<svg viewBox="80 160 2960.000000000001 1960" xmlns="http://www.w3.org/2000/svg" overflow="visible" xmlns:xlink="http://www.w3.org/1999/xlink" width="2960.000000000001px" height="1960px"><defs><linearGradient x1="50%" y1="0%" x2="50%" y2="100%" id="masterbackgroundparty-linearGradient-1"><stop stop-color="#E7EAFD" offset="0%"/><stop stop-color="#FFF" stop-opacity="0" offset="100%"/></linearGradient></defs><g id="Master/Background/Party" stroke="none" stroke-width="1" fill="none" fill-rule="evenodd"><path d="M161.004574,1418.73147 C271.900773,1134 691.489253,1288.92192 723.943218,1062.61369 C756.397183,836.305463 826.154452,560.033774 1181.36722,509.395872 C1536.58,458.75797 1759.13257,777.549238 2036.56208,724.509698 C2313.99159,671.470159 2504.38515,675.166946 2767,909.241766 C3029.61485,1143.31659 2962,1919.28161 2767,2132.03656 C2036.56208,2132.03656 1038.11685,2132.03656 588.368655,2132.03656 C138.620461,2132.03656 50.1083754,1703.46294 161.004574,1418.73147 Z" id="Background" fill="url(#masterbackgroundparty-linearGradient-1)" opacity=".5"/><path d="M1778.95904,518.665428 C1771.19804,497.886428 1820.81104,492.282428 1816.48304,508.111428 C1804.24504,503.064428 1777.00604,515.975428 1802.48404,521.541428 C1806.30304,523.453428 1805.19004,529.518428 1801.30004,530.465428 C1793.59504,531.663428 1786.04504,525.993428 1779.00504,531.931428 C1776.67904,540.435428 1783.08004,546.721428 1785.75804,553.896428 C1766.90304,558.241428 1758.31304,522.390428 1778.95904,518.665428" id="Confetti-1" fill="#F85B68"/><path d="M2871.2738,593.829 C2866.8078,589.026 2861.3408,593.169 2856.4568,590.673 C2846.2738,584.37 2855.4068,576.732 2863.3268,574.577 C2877.9488,565.743 2860.4288,555.367 2849.2318,560.881 C2845.6248,561.738 2842.4318,557.023 2845.8698,554.422 C2865.4228,539.262 2891.2038,554.456 2878.7808,579.161 C2886.9148,588.493 2891.6528,597.634 2880.1098,606.407 C2901.4578,627.433 2897.7508,640.903 2872.5828,655.332 C2856.7188,661.129 2861.7098,642.993 2871.0868,638.212 C2898.7818,621.521 2841.8318,611.72 2871.2738,593.829" id="Confetti-2" fill="#18B6B8"/><path d="M2400.4628,827.7206 C2396.7888,810.1286 2393.0948,792.9916 2394.5508,775.1476 C2406.1068,784.9626 2440.7428,777.6326 2435.5578,792.0526 C2430.7218,803.5146 2420.5358,811.6576 2415.2438,823.0096 C2412.3668,828.5336 2407.6258,830.3766 2400.4628,827.7206" id="Confetti-3" fill="#18B6B8"/><path d="M2202.57655,446.404915 C2177.01155,444.388915 2168.29055,410.790915 2177.66355,390.470915 C2181.79955,379.906915 2190.65755,386.421915 2185.96455,395.027915 C2182.39055,408.387915 2178.98255,422.675915 2189.42355,429.828915 C2205.90055,441.118915 2209.36555,410.253915 2215.66855,424.985915 C2214.05355,462.496915 2224.07855,440.797915 2237.80155,453.658915 C2234.19855,468.482915 2205.41255,460.484915 2202.57655,446.404915" id="Confetti-4" fill="#38C270"/><path d="M2721.2558,529.0282 C2693.7418,575.5692 2691.8888,538.8122 2680.9228,508.9822 C2695.0118,507.8472 2707.9708,522.9052 2721.2558,529.0282" id="Confetti-5" fill="#FFB201"/><path d="M2600.5033,675.3056 C2588.0613,676.6656 2575.8763,667.0596 2562.8793,663.9526 C2596.0593,611.7376 2577.5393,615.3636 2600.5033,675.3056" id="Confetti-6" fill="#FFB201"/><path d="M2378.7016,292.1469 C2374.9626,275.7799 2394.5766,265.8459 2403.2376,280.1839 C2413.0006,298.8589 2379.4086,318.3429 2378.7016,292.1469" id="Confetti-7" fill="#F8CF13"/><path d="M2862.7411,179.2343 C2862.9121,191.5663 2867.9841,203.2793 2865.4931,216.3413 C2853.9201,214.5013 2843.2351,205.5093 2834.9961,197.4203 C2850.2791,184.4203 2854.2301,181.8053 2862.7411,179.2343" id="Confetti-8" fill="#F8A613"/><path d="M2327.7958,647.0224 C2302.5498,644.9164 2315.9908,615.6104 2335.9038,620.6564 C2351.3618,624.7844 2341.6918,647.6814 2327.7958,647.0224" id="Confetti-9" fill="#F8A613"/><path d="M2910.8929,442.04 C2910.0239,464.011 2876.8669,449.473 2884.0919,432.605 C2890.7589,419.283 2912.9709,426.613 2910.8929,442.04" id="Confetti-10" fill="#F85B68"/><path d="M2739.0273,734.3495 C2733.3263,723.6205 2712.7563,727.1565 2710.5203,738.7595 C2709.5343,761.7715 2747.7833,755.1415 2739.0273,734.3495" id="Confetti-11" fill="#F85B68"/><path d="M2847.2284,854.4179 C2844.9974,840.2059 2872.4854,838.6299 2871.4284,853.4659 C2871.2734,867.1299 2847.2754,870.8219 2847.2284,854.4179" id="Confetti-12" fill="#F8CF13"/><path d="M811.462929,585.721315 C807.788929,568.129315 804.094929,550.992315 805.550929,533.148315 C817.106929,542.963315 851.742929,535.633315 846.557929,550.053315 C841.721929,561.515315 831.535929,569.658315 826.243929,581.010315 C823.366929,586.534315 818.625929,588.377315 811.462929,585.721315" id="Confetti-13" fill="#18B6B8"/><path d="M1192.25593,287.028915 C1164.74193,333.569915 1162.88893,296.812915 1151.92293,266.982915 C1166.01193,265.847915 1178.97093,280.905915 1192.25593,287.028915" id="Confetti-14" fill="#FFB201"/><path d="M1071.50343,433.306315 C1059.06143,434.666315 1046.87643,425.060315 1033.87943,421.953315 C1067.05943,369.738315 1048.53943,373.364315 1071.50343,433.306315" id="Confetti-15" fill="#F8CF13"/><path d="M213.468347,203.871826 C209.729347,187.504826 229.343347,177.570826 238.004347,191.908826 C247.767347,210.583826 214.175347,230.067826 213.468347,203.871826" id="Confetti-16" fill="#FFB201"/><path d="M798.795929,405.023115 C773.549929,402.917115 786.990929,373.611115 806.903929,378.657115 C822.361929,382.785115 812.691929,405.682115 798.795929,405.023115" id="Confetti-17" fill="#FFB201"/><path d="M1381.89303,200.040715 C1381.02403,222.011715 1347.86703,207.473715 1355.09203,190.605715 C1361.75903,177.283715 1383.97103,184.613715 1381.89303,200.040715" id="Confetti-18" fill="#F85B68"/><path d="M1210.02743,492.350215 C1204.32643,481.621215 1183.75643,485.157215 1181.52043,496.760215 C1180.53443,519.772215 1218.78343,513.142215 1210.02743,492.350215" id="Confetti-19" fill="#F85B68"/><path d="M1318.22853,612.418615 C1315.99753,598.206615 1343.48553,596.630615 1342.42853,611.466615 C1342.27353,625.130615 1318.27553,628.822615 1318.22853,612.418615" id="Confetti-20" fill="#F8CF13"/><path d="M1844.745,275 C1844.916,287.332 1849.988,299.045 1847.497,312.107 C1835.924,310.267 1825.239,301.275 1817,293.186 C1832.283,280.186 1836.234,277.571 1844.745,275" id="Confetti-21" fill="#F8A613"/><path d="M268.576547,813.404915 C243.011547,811.388915 234.290547,777.790915 243.663547,757.470915 C247.799547,746.906915 256.657547,753.421915 251.964547,762.027915 C248.390547,775.387915 244.982547,789.675915 255.423547,796.828915 C271.900547,808.118915 275.365547,777.253915 281.668547,791.985915 C280.053547,829.496915 290.078547,807.797915 303.801547,820.658915 C300.198547,835.482915 271.412547,827.484915 268.576547,813.404915" id="Confetti-22" fill="#38C270"/><g id="Flying Objects" opacity=".5" transform="translate(193.000000, 135.000000) scale(1 1)"><g id="Flying Objects/Cloud 2" stroke="none" stroke-width="1" fill="none" fill-rule="evenodd"><path d="M479.95575,473.895048 C489.613069,459.137123 499.099888,436.733126 487.997876,423.547909 C481.436886,415.755283 470.330969,416.37302 462.370839,421.934228 C454.409408,427.495437 448.858402,436.870226 443.55859,445.96136 C452.064059,424.955151 460.742631,403.137375 461.346539,379.753193 C461.950447,356.369012 424.683149,265.573363 301,363.097442 C274.191914,384.2356 253.304938,454.747164 158,473.792617 C160.945352,473.792617 156.578734,478.669903 159.524086,478.669903 L479.95575,473.895048 Z" id="cloud" fill="#E4E8FD" transform="translate(325.500000, 398.771931) scale(-1, 1) translate(-325.500000, -398.771931)"/></g></g><g id="Flying Objects" opacity=".5" transform="translate(2509.000000, 752.000000) scale(1 1)"><g id="Flying Objects/Cloud 1" stroke="none" stroke-width="1" fill="none" fill-rule="evenodd"><path d="M479.95575,473.895048 C489.613069,459.137123 499.099888,436.733126 487.997876,423.547909 C481.436886,415.755283 470.330969,416.37302 462.370839,421.934228 C454.409408,427.495437 448.858402,436.870226 443.55859,445.96136 C452.064059,424.955151 460.742631,403.137375 461.346539,379.753193 C461.950447,356.369012 452.155166,330.873179 433.86613,323.327963 C414.905507,315.50382 394.716245,328.774134 378.352165,342.761464 C343.415317,372.620853 311.811676,408.189581 284.665759,448.195929 C286.38117,435.63948 288.09658,422.759979 286.097437,410.263412 C284.098294,397.765269 277.573747,385.527143 267.572825,381.604829 C257.656503,377.714031 246.935838,382.62441 237.627328,388.303808 C205.588977,407.842892 177.856072,437.617184 158,473.792617 C160.945352,473.792617 156.578734,478.669903 159.524086,478.669903 L479.95575,473.895048 Z" id="cloud" fill="#F0F1FF" transform="translate(325.500000, 399.834951) scale(-1, 1) translate(-325.500000, -399.834951)"/></g></g><g id="Flying Objects" opacity=".5" transform="translate(1969.000000, 5.000000) scale(1 1)"><g id="Flying Objects/Cloud 2" stroke="none" stroke-width="1" fill="none" fill-rule="evenodd"><path d="M479.95575,473.895048 C489.613069,459.137123 499.099888,436.733126 487.997876,423.547909 C481.436886,415.755283 470.330969,416.37302 462.370839,421.934228 C454.409408,427.495437 448.858402,436.870226 443.55859,445.96136 C452.064059,424.955151 460.742631,403.137375 461.346539,379.753193 C461.950447,356.369012 424.683149,265.573363 301,363.097442 C274.191914,384.2356 253.304938,454.747164 158,473.792617 C160.945352,473.792617 156.578734,478.669903 159.524086,478.669903 L479.95575,473.895048 Z" id="cloud" fill="#E4E8FD" transform="translate(325.500000, 398.771931) scale(-1, 1) translate(-325.500000, -398.771931)"/></g></g></g></svg>