<svg viewBox="-7.5 56.25 993.75 1499.9999999999998" xmlns="http://www.w3.org/2000/svg" overflow="visible" xmlns:xlink="http://www.w3.org/1999/xlink" width="993.75px" height="1499.9999999999998px"><g id="Master/Character/Standing" stroke="none" stroke-width="1" fill="none" fill-rule="evenodd"><g id="Lower Body/Standing" transform="translate(-64.000000, 629.000000) scale(1 1)"><g id="Lower Body/Standing/Running" stroke="none" stroke-width="1" fill="none" fill-rule="evenodd"><g id="Group" transform="translate(68.000000, 0.000000)"><g id="leg-2" transform="translate(713.999940, 727.000000)"><path d="M86.8812876,-5.95025052e-13 C86.8812876,-5.95025052e-13 110.415193,71.5226503 114.153391,77.1032393 C118.69279,83.8785521 136.916223,85.263092 136.916223,85.263092 C136.916223,85.263092 135.741202,111.238847 117.660601,117.980663 C105.075708,122.673583 66.2386266,135.834528 70.4499571,125.734086 C74.6624034,115.633644 -6.34304245e-14,35.5882577 -6.34304245e-14,35.5882577 L86.8812876,-5.95025052e-13 Z" id="Fill-1" fill="#ca8f67"/><g id="shoe-2" transform="translate(64.488745, 73.673999)"><path d="M187.396689,7.11111109 C173.558663,-6.85599321 130.552655,3.64864483 97.8796932,6.01464483 C73.7900794,7.75871845 63.8453584,3.58946692 57.7303369,6.68681661 C52.0270751,9.57536876 70.1835558,30.0230129 35.8680193,40.5734301 C27.402955,43.1761418 16.7875902,44.9414301 2.34252578,42.1031234 C0,41.6430988 0.280379859,43.4809638 0.00252578201,52.0237982 C-0.151465634,56.7837123 6.73128115,94.6240804 21.9273326,104.120461 C47.2299078,92.0425835 65.1063026,77.7963381 90.9087919,69.1909761 C137.676431,53.5914546 159.69274,38.9879086 190.851453,19.0248534 C195.574972,15.9989638 190.93626,10.6841172 187.396689,7.11111109" id="Fill-16" fill="#071777"/><path d="M183.670878,29.3737307 C122.110019,72.5702583 80.6004056,73.0782951 66.2747404,86.9303933 C60.3137103,92.6952154 22.7531953,112.913964 17.4717361,105.868442 C13.5248691,100.603841 11.6624657,93.5259393 12.6968863,93.2400988 C17.7908777,91.8343442 25.9825515,92.4652031 55.5466717,79.1378902 C92.6184314,61.5587 139.393882,52.0600865 184.200921,19.5200497 C189.350706,15.7784424 191.07474,11.3423319 191.07474,11.3423319 C191.07474,11.3423319 194.406758,13.6636694 194.27062,17.0301111 C194.135599,20.3965528 190.752251,24.4050191 183.670878,29.3737307" id="Fill-18" fill="#FFB201"/><path d="M99.9297876,17.201727 C96.2060966,16.5440706 98.5896159,7.29110127 101.759831,4.64707673 C105.745753,1.32306446 112.213393,3.95369023 107.395024,5.47780066 C101.806697,7.2464387 103.527384,17.8359356 99.9297876,17.201727" id="Fill-20" fill="#FFB201"/><path d="M118.468234,15.1375344 C112.566346,11.7253135 117.851152,0.797497591 123.354672,0.793029745 C126.010466,0.790798204 127.154243,3.144516 124.936989,3.03955894 C116.410552,6.31555894 122.563513,14.7936326 118.468234,15.1375344" id="Fill-22" fill="#FFB201"/></g></g><g id="leg-1" transform="translate(-0.000060, 553.000000)"><path d="M100.386404,52.8810145 C100.386404,52.8810145 159.42143,13.4878607 177.805139,1.34132224 C197.031328,-11.3617931 218.582716,70.3468222 218.582716,70.3468222 C218.582716,70.3468222 138.367262,89.2972069 128.931267,94.7982838 C124.401542,97.4372838 117.672879,108.472899 117.672879,108.472899 C117.672879,108.472899 90.7638126,98.3998607 89.5023279,80.3518222 C88.2408432,62.3026684 100.386404,52.8810145 100.386404,52.8810145" id="Fill-3" fill="#ca8f67"/><g id="shoe-1" transform="translate(-0.000000, 45.068572)"><path d="M64.6502973,0.515596262 C59.7808993,0.967327032 57.1640728,-1.57240374 51.348282,12.1501732 C45.5324912,25.8705193 39.197134,51.166327 37.3792106,55.2943655 C29.8147718,72.472404 12.3707514,92.1399809 8.66227688,109.025789 C-6.18726394,176.635942 23.6090269,187.089327 27.4426442,184.842942 C39.4574759,177.802635 48.4577054,155.851865 58.1551595,145.466519 C76.8472565,125.449827 123.79594,62.9146732 124.85295,56.0539424 C108.804496,51.4507501 101.990915,40.0626732 101.080277,29.5457116 C100.013211,17.2340963 104.259129,9.41525011 102.669144,6.07801934 C101.07916,2.74078857 78.4674095,-0.764865276 64.6502973,0.515596262" id="Fill-8" fill="#071777"/><path d="M91.2091871,105.760418 C90.3197789,105.765965 89.6080289,104.987427 89.6962993,104.104042 C90.1756412,91.2380809 71.5584065,91.2258116 72.1740646,87.5327732 C72.8500595,84.0505424 94.2070289,88.332504 92.9142585,103.681312 C92.848335,104.467658 91.9812738,105.760418 91.2091871,105.760418" id="Fill-10" fill="#FFB201"/><path d="M103.614531,88.9339122 C102.909486,88.9339122 102.279302,88.4419232 102.130695,87.7269616 C99.5060468,76.5865001 83.9671029,75.1153078 84.6319243,71.4769232 C85.6274804,68.2345001 104.543047,74.982577 105.100603,87.1123847 C105.144179,88.0604616 104.560924,88.9449616 103.614531,88.9339122" id="Fill-12" fill="#FFB201"/><path d="M53.603982,41.4101693 C56.2520942,27.6039386 62.9841095,3.92097703 64.6500738,0.515707801 C59.7806759,0.96743857 52.9168136,-3.99825374 47.1021401,9.7232078 C41.2863493,23.4457847 39.1969106,51.1664386 37.3789871,55.294477 C29.8145483,72.4725155 9.28329831,94.9385924 4.51222688,111.557823 C0.0171401435,127.210015 -3.41981904,157.183746 5.91561463,175.737054 C12.1850483,188.198131 23.6088034,187.089439 27.4424208,184.843054 C28.937431,183.967477 30.9978187,182.431592 32.4067932,181.144439 C31.1743595,181.738939 30.1832728,182.172823 28.5821146,182.629015 C19.8768646,185.112977 11.2610024,173.239708 8.7737881,151.720592 C6.28657382,130.200362 10.212931,108.782746 22.8579463,90.4391309 C30.1173493,79.9099001 51.0027983,54.975477 53.603982,41.4101693" id="Fill-14" fill="#FFB201"/></g></g><path d="M628.138791,249.3571 C642.496601,138.247068 634.681308,0 634.681308,0 C634.681308,0 566.831168,0 431.130889,0 C431.130889,0 395.87848,47.5599962 403.828897,124.793374 C409.714735,181.97064 438.898174,240.012628 469.347671,295.628481 C465.477985,313.947934 461.130449,327.818967 456.262638,334.800251 C403.669066,410.250365 228.935865,470.048962 161.148248,559.937184 C150.091841,574.599667 222.21248,666.522888 234.548362,690.412634 C239.409474,699.8252 471.501343,556.50124 552.417535,481.747692 C588.663747,604.444826 628.841051,786.246222 671.533763,795.696743 C692.752283,800.392979 793.508156,749.169731 811.990207,737.243277 C812.892315,724.978587 750.950536,570.720556 683.29243,412.72295 C659.567433,357.316959 641.688276,299.934016 628.138791,249.3571 Z" id="Fill-5" fill="#001386"/><path d="M471.288096,298.13676 C505.014456,355.262303 534.453719,411.650388 552.413,478.304688 C553.534826,482.467575 552.760844,483.591106 552.44208,482.729434 C536.582168,439.861776 518.87678,401.465864 499.598822,361.495442 C489.321197,340.583652 481.468415,317.597134 470.081267,297.243754 C469.774806,296.759203 470.368714,296.967347 471.288096,298.13676" id="Fill-24" fill="#090E2B"/><path d="M574.19504,47.2123655 C585.49684,73.8390424 597.737357,124.231476 605.43642,152.401485 C613.442002,183.507291 621.340528,217.439373 628.964087,248.75416 C629.146647,249.423571 628.582064,248.592116 628.393869,247.85677 C611.590486,189.736498 575.655518,55.8454167 574.833999,52.9006801 C574.379854,51.5618587 573.647361,45.8344299 574.19504,47.2123655" id="Fill-26" fill="#090E2B"/></g></g></g><g id="Upper Body/Standing" transform="translate(69.000000, -172.000000) scale(1 1)"><g id="Upper Body/Standing/Shopping Coffee 2" stroke="none" stroke-width="1" fill="none" fill-rule="evenodd"><polygon id="bag-strap" fill="#FFB201" points="313.83974 757.398591 300 838 305.25 837.52068 321 755"/><path d="M786.278252,651.10399 C791.328241,648.208557 789.737333,624.694964 795.918002,633.205027 C797.455915,635.322272 798.808553,642.201644 798.808553,642.201644 L825.795616,643.887911 C825.795616,643.887911 827.482617,633.785656 829.538838,624.524086 C831.594058,615.262516 837.175937,645.929045 827.434154,655.304844 C825.581054,657.087418 817.066199,660.751724 801.528976,665.837922 C791.592078,669.090443 654.315264,745.946862 629.673638,738.490912 C604.890927,730.99388 567,673.729745 567,673.729745 L611.666513,617 C611.666513,617 643.703565,680.164412 652.755878,680.164412 C656.403591,680.164412 668.93953,673.729745 716.076341,665.837922 C733.395565,662.938272 781.228264,653.999423 786.278252,651.10399 Z" id="hand-2" fill="#ca8f67"/><path d="M535.965742,496.521459 C515.178733,487.803266 510.291226,487.919616 503.66698,480.315458 C500.833687,477.063041 496.655838,459.368807 499.284149,444.997536 C501.913463,430.625269 448.170884,421 448.170884,421 C448.170884,421 455.080748,469.498844 445.997129,475.853248 C440.958984,479.37766 425,484.676546 425,484.676546 C474.558153,527.80829 489.045431,535.213551 503.66698,534.995397 C525.92396,534.664016 536.690214,521.839369 535.965742,496.521459 Z" id="Fill-5" fill="#ca8f67"/><path d="M221.442785,756.389176 C170.320586,798.139517 148.682544,817.874293 144.520074,817.411525 C99.5236222,812.41122 62.5232294,856.149863 75.6993838,856 C88.8755382,855.850366 105.516418,850.797975 126.497702,846.505846 C144.529071,842.817721 223.348085,814.436584 292.059815,772.598097 C335.666779,746.044996 337.20741,760.001003 374.722614,671.493005 C385.804538,645.349585 321.136722,634.70429 321.136722,634.70429 C329.096907,620.36409 309.306473,649.022857 292.42668,697.130757 C286.322925,714.529654 272.181126,714.953358 221.442785,756.389176 Z" id="hand-1" fill="#ca8f67"/><path d="M432.561659,484.936518 C438.973815,489.656606 461.096355,515.501972 498.147199,524.345259 C525.78616,530.943996 526.337798,499.566267 524.388544,492.645738 C523.228202,488.530396 535.260115,493.039483 546.804465,499.979 C547.235388,500.238037 547.638255,500.537885 548.015002,500.873762 C553.088363,505.05382 580.55187,531.282137 627,640.96292 C613.881831,667.152001 571.080337,692.526609 571.080337,692.526609 L563.113441,677.224226 C562.963785,677.815086 562.811248,678.408781 562.655795,679.005344 C557.577923,698.490756 573.929832,769.205072 575.423559,815.441202 C576.248513,840.979703 432.202944,799.491506 368.944794,817.202064 C343.622513,824.291484 376.843929,764.620034 387.105795,725.496309 C394.555378,697.091547 392.290147,684.118357 394.506506,660.444831 C384.181761,680.050186 373.527099,698.617868 368.867105,704.099532 C358.825493,715.9129 312.948442,694.73858 297,666.16404 C297,666.16404 312.344744,630.173291 329.131155,589.075841 C353.3693,529.734576 369.351692,507.990011 380.082186,499.271274 C380.647638,498.354438 382.183505,497.279686 384.752232,496.038068 C387.569193,494.425676 389.932963,493.682302 391.932041,493.091956 C400.081964,490.126598 412.522429,486.464205 429.76305,482.013101 C430.522539,481.81702 431.113189,483.870278 432.561659,484.936518 Z" id="Tshirt" fill="#3615F6"/><path d="M825.168366,655 L799.556866,655 C798.146559,655 796.95427,653.958929 796.770317,652.56593 L789,594 L833,594 L827.969677,652.438059 C827.843635,653.887638 826.6275,655 825.168366,655" id="Fill-16" fill="#FFB201"/><path d="M556.637102,557.064687 C575.548412,605.312956 571.370622,627.221639 562.52612,676.699042 C562.46226,677.14153 561.729875,677.084338 561.778767,676.604725 C563.309393,651.664847 569.196415,626.437 565.807885,601.527224 C564.170495,591.741311 561.788745,581.707566 559.206438,572.110288 C558.962974,570.125613 554.494824,555.927863 556.637102,557.064687 Z M408.259361,638.708918 C407.20269,641.121031 396.526527,659.573899 394.536635,659.573899 C394.18702,659.573899 393.143718,659.342028 395.474247,654.654723 C400.420007,644.707501 403.786233,638.16663 407.607809,628.687751 C409.006725,625.468925 413.83671,614.353974 415.476096,611.166253 C420.04203,608.722032 409.380889,636.924918 408.259361,638.708918 Z" id="Combined-Shape" fill="#090E2B"/><path d="M826.742627,655.086935 C832.512059,650.345255 837.805567,620.668179 830.278469,622.046512 C822.751371,623.424845 819.445042,625.615207 814,657.0159 C814.24572,659.993093 820.973194,659.829626 826.742627,655.086935 Z" id="Fill-27" fill="#ca8f67"/><path d="M830,591 L792,591 L793.852514,583.834186 C794.285035,582.161766 795.742788,581 797.407648,581 L824.592352,581 C826.257212,581 827.713821,582.161766 828.146341,583.834186 L830,591 Z" id="Fill-30" fill="#111B56"/><polygon id="Fill-32" fill="#090E2B" points="786 596 836 596 836 587 786 587"/><g id="Bag" transform="translate(254.000000, 484.000000)"><path d="M164.53652,148.190512 C167.58552,132.607512 171.468025,112.261232 174.833025,96.7362318 C181.517025,66.1332318 190.08882,19.8568254 152.48182,3.71182538 C147.89982,2.77282538 155.503137,0.942 160.278137,0 C161.976137,0.277 183.053137,11.21 186.749137,36.406 C191.533137,69.029 183.365137,94.213 177.550137,125.692 C162.444137,198.16 146.350137,285.365 132.241137,358.678 C131.614137,362.268 125.735137,361.56 126.319137,357.713 C139.433337,285.264848 151.09452,218.060512 164.53652,148.190512 Z" id="Fill-14" fill="#FFB201"/><path d="M166.302537,463.6173 C142.227537,501.8863 21.921537,495.1413 2.275537,454.4223 C-11.376463,426.1283 40.859537,349.9333 40.859537,349.9333 L139.637537,355.4713 C139.637537,355.4713 183.031537,437.0263 166.302537,463.6173" id="Fill-20" fill="#090E2B"/><path d="M139.215637,375.2471 C136.740637,394.2141 127.173637,413.0821 111.060637,423.9711 C72.420637,449.2461 42.198637,415.7261 40.767637,376.6001 C40.608637,374.1171 39.044637,347.6861 43.215637,353.8551 C43.133637,375.4801 45.520637,399.4701 60.156637,416.4681 C75.170637,434.1401 102.325637,428.5601 117.123637,413.4691 C127.910637,403.2781 134.631637,389.4361 138.218637,375.0611 C138.326637,374.4641 139.329637,374.6191 139.215637,375.2471" id="Fill-23" fill="#FFF"/></g></g></g><g id="Head" transform="translate(399.000000, 26.000000) scale(1 1)"><g id="Head/Short Hair Dark" stroke="none" stroke-width="1" fill="none" fill-rule="evenodd"><path d="M203.3041,80.3781 C203.3041,80.3781 245.325044,106.524642 237.9671,158.0421 C233.30916,190.655184 248.155059,198.619131 237.9671,236.39085 C233.30916,253.6601 223.9421,270.1291 204.9101,273.8721 C190.5291,276.7011 155.4841,270.1421 130.1601,253.6601 C115.741004,244.275411 108.695804,231.120338 102.839951,212.467257 C86.3461236,211.07768 67.2046642,185.016111 81.55,174.4899 C84.9121577,172.023692 88.2985705,171.112896 91.8838097,171.633573 C86.3580791,146.740974 87.2671,137.240294 87.2671,126.0621 C87.2671,110.5371 68.5191,91.9091 103.9891,87.9181 C139.4581,83.9261 195.8531,70.4331 203.3041,80.3781 Z" id="Combined-Shape" fill="#ca8f67"/><path d="M86.5912,186.8615 C91.2362,181.0155 99.3112,184.2235 102.9222,189.5595 C104.5732,191.9995 105.1982,196.5475 104.3242,197.5495 C104.1152,197.7905 103.5582,195.9695 103.1792,195.2405 C99.7342,188.6025 96.3562,185.4085 87.2562,187.8575 C86.6992,187.9965 86.2372,187.3175 86.5912,186.8615" id="Fill-8" fill="#090E2B"/><path d="M101.9779,193.4806 C96.6629,193.6326 98.9159,202.7266 96.9999,200.2376 C96.0239,196.4226 97.4289,191.4386 101.8789,190.7476 C103.9009,190.3956 104.0229,193.6846 101.9779,193.4806" id="Fill-10" fill="#090E2B"/><path d="M164.020452,271.36959 C154.644565,269.470255 148.435203,265.601303 140.050203,261.363303 C139.551203,261.083303 130.571062,255.208763 130.268783,254.3815 C129.882863,253.325333 130.7298,253.9565 131.3648,254.3815 C138.7548,259.3395 158.1098,266.6665 169.8538,269.9605 C170.357039,270.040748 173.552665,271.357952 171.903442,271.675889 C171.278277,271.796408 167.7443,272.123954 164.020452,271.36959 Z" id="Fill-12" fill="#090E2B"/><path d="M123.991097,197.974758 C127.207892,191.05864 123.657342,175.918238 118.355838,164.003141 C115.785715,158.226807 110.408838,116.248782 130.751715,118.061567 C151.63046,119.922104 160.5076,123.0061 180.4026,122.6081 C193.0006,122.3561 215.366179,111.996593 215.705179,108.447593 C220.759389,111.359054 234.024819,113.974183 238.403543,137.719356 C246.854543,128.547356 246.0036,115.7791 243.8766,103.7461 C240.6826,85.6911 220.0506,84.2101 217.6836,83.9141 C220.3876,77.1091 214.2306,61.5091 206.7796,54.3251 C201.5256,49.2601 186.4756,32.6451 163.7056,35.2811 C151.1626,36.7331 147.0366,50.7761 147.0366,50.7761 C141.9666,47.5221 122.7226,46.0641 110.0236,50.7881 C88.7996,58.6831 104.4456,72.0791 106.8116,74.7421 C101.0646,76.2221 80.2401078,86.8514986 71.692034,103.7461 C60.6046971,125.659357 68.0307556,147.086046 78.446496,160.848214 C88.8622364,174.610382 94.4314772,169.724614 105.882354,179.67861 C112.512678,189.080043 121.004519,204.395906 123.991097,197.974758 Z" id="Fill-3" fill="#090E2B"/></g></g><g id="Expressions" transform="translate(520.000000, 159.000000) scale(1 1)"><g id="Expressions/Happy" stroke="none" stroke-width="1" fill="none" fill-rule="evenodd"><g id="eye1" transform="translate(21.027098, 10.213671)"><path d="M0.0487023333,7.96572872 C1.82485498,-0.0171869856 25.1977023,-2.81531309 35.4827023,3.36568691 C39.0387023,5.47868691 45.6427023,11.2837287 39.7957023,14.4437287 C38.2517023,15.1157287 36.7517023,14.4267287 35.4827023,13.6077287 C21.4647023,3.86572872 -1.18942441,13.5304877 0.0487023333,7.96572872 Z" id="Fill-1" fill="#090E2B"/><path d="M19.0113023,22.3973287 C13.7233023,23.8973287 9.19030233,28.1473287 8.76930233,31.6693287 C8.51430233,33.7973287 16.8643023,38.9063287 24.9173023,39.3033287 C35.5113023,39.8243287 40.8513023,34.0853287 40.8324531,32.2513287 C40.1193023,26.7013287 33.7283023,18.2233287 19.0113023,22.3973287 Z" id="Fill-6" fill="#FFF"/><path d="M35.3981023,25.5550287 C27.2551023,19.4010287 14.6431023,23.4110287 8.76910233,31.6690287 C8.43210233,32.0970287 8.52910233,31.0200287 8.76310233,30.5290287 C11.5971023,24.5820287 16.7101023,21.7750287 22.6381023,20.5510287 C26.2051023,19.8140287 29.5311023,19.7540287 33.0101023,21.3120287 C34.3551023,21.9130287 36.7311023,23.7450287 38.5671023,25.8170287 C39.9991023,27.4320287 41.2051023,30.2010287 39.5481023,29.2220287 C38.2511023,28.4550287 36.4781023,26.3720287 35.3981023,25.5550287 Z" id="Fill-8" fill="#090E2B"/><path d="M24.8135023,36.0623287 C29.3405023,36.0623287 33.0105023,32.7143287 33.0105023,28.5833287 C33.0105023,24.4533287 29.3405023,21.1043287 24.8135023,21.1043287 C20.2865023,21.1043287 16.6165023,24.4533287 16.6165023,28.5833287 C16.6165023,32.7143287 20.2865023,36.0623287 24.8135023,36.0623287 Z" id="Fill-10" fill="#090E2B"/></g><g id="eye2" transform="translate(81.203378, 15.000183)"><path d="M23.2557812,1.861246 C26.6096324,3.34897691 31.0744206,8.28711729 27.357522,8.28711729 C23.6406234,8.28711729 15.5900245,7.23270759 10.1930245,9.45970759 C8.30802454,9.94170759 6.87752199,10.8641173 4.98452199,11.0891173 C0.67652199,11.9281173 -1.66408888,6.76839233 1.38185604,3.64904337 C4.82290212,0.125071736 16.4397812,-1.545754 23.2557812,1.861246 Z" id="Fill-4" fill="#090E2B"/><path d="M19.455322,34.2343173 C24.826322,32.9853173 28.843322,28.1153173 28.389322,24.4763173 C27.503322,19.6543173 18.218322,16.5753173 13.017322,19.2083173 C7.86632199,21.8153173 4.64332199,27.6403173 5.05932199,29.9403173 C5.66032199,31.5323173 13.966322,35.5113173 19.455322,34.2343173 Z" id="Fill-12" fill="#FFF"/><path d="M15.011222,31.6060173 C18.549222,31.6060173 21.417222,28.8520173 21.417222,25.4560173 C21.417222,22.0590173 19.396222,18.8490173 15.011222,19.3060173 C11.492222,19.6720173 8.60422199,22.0590173 8.60422199,25.4560173 C8.60422199,28.8520173 11.473222,31.6060173 15.011222,31.6060173 Z" id="Fill-14" fill="#090E2B"/><path d="M5.25072199,26.6376173 C7.27972199,19.0636173 16.440722,15.1686173 23.685722,18.7546173 C24.705722,19.2866173 26.361722,20.4806173 27.601722,21.9226173 C28.742722,23.2526173 28.593722,23.9496173 28.127722,23.8116173 C27.355722,23.5816173 25.722722,22.1166173 24.395722,21.4866173 C17.685722,18.3036173 10.704722,20.0896173 5.59372199,27.5586173 C5.34272199,27.9456173 5.10472199,27.0746173 5.25072199,26.6376173" id="Fill-22" fill="#090E2B"/></g><path d="M89.773817,88.8585998 C81.203378,89.8585998 88.1482904,99.3833823 83.7083884,100.648667 C72.3411441,103.888108 60,99.9572383 58.0067117,89.8585998 C56.8303329,83.8986871 60.3418642,84.6193542 63.1467832,84.8682179 C65.9517021,85.1170816 79.8038764,85.6292987 87.244688,85.6292987 C94.4593207,85.6292987 90.833428,88.7349642 89.773817,88.8585998 Z" id="Fill-18" fill="#090E2B"/><path d="M79.5163974,56.0474227 C79.9047316,56.0474227 82.4878873,60.4695558 83.4356699,62.0222568 C86.4544009,66.9676809 89.7813295,72.5049636 84.8702,75.6883 C82.4912,77.2313 75.0122,74.8407787 75.0122,73.0253 C75.0122,70.2632077 81.8382,75.1193 83.4442,72.3153 C84.3857451,70.8872578 80.8590997,63.6440183 79.5163974,59.348811 C78.7670658,56.9517537 79.1280631,56.0474227 79.5163974,56.0474227 Z" id="nose" fill="#090E2B"/></g></g><g id="Facial Accesories" transform="translate(517.000000, 209.000000) scale(1 1)" fill="#000"><g id="Facial Accesories/None" stroke="none" stroke-width="1" fill="none" fill-rule="evenodd" fill-opacity="0"/></g><g id="Glass" transform="translate(520.000000, 164.000000) scale(1 1)" fill="#000"><g id="Glass/None" stroke="none" stroke-width="1" fill="none" fill-rule="evenodd" fill-opacity="0"/></g></g></svg>