<svg viewBox="0 160 3240 1880.0000000000002" xmlns="http://www.w3.org/2000/svg" overflow="visible" xmlns:xlink="http://www.w3.org/1999/xlink" width="3240px" height="1880.0000000000002px"><g id="Master/Background/Park" stroke="none" stroke-width="1" fill="none" fill-rule="evenodd"><path d="M2955.75981,1528.48462 C2955.75981,1528.48462 3009.16134,1334.87571 2902.35489,1328.19954 C2795.54844,1321.52337 2775.52159,1421.66591 2775.52159,1421.66591 C2775.52159,1421.66591 3029.19158,967.693181 2775.52159,827.497018 C2521.85161,687.300855 2429.91758,1128.82114 2429.91758,1128.82114 C2429.91758,1128.82114 2361.64023,947.668068 2314.91092,981.048916 C2268.18162,1014.42976 2314.91092,1394.96123 2314.91092,1394.96123 C2314.91092,1394.96123 2034.54187,1007.7502 1914.38079,1034.45488 C1794.22311,1061.15616 1874.3305,1628.62377 1874.3305,1628.62377 C1874.3305,1628.62377 1754.17281,1341.55527 1714.11912,1481.75144 L1674.06543,1621.9476 C1674.06543,1621.9476 1604.83733,1296.37058 1505.94247,1295.59633 C1407.04421,1294.82209 1226.80599,1475.07187 1226.80599,1475.07187 C1226.80599,1475.07187 1286.88653,867.554035 913.062255,867.554035 C539.231189,867.554035 619.338573,1341.55527 619.338573,1341.55527 C619.338573,1341.55527 552.58242,1167.97826 445.772574,1167.97826 C338.966123,1167.97826 379.019815,1448.37059 379.019815,1448.37059 C379.019815,1448.37059 185.43376,1261.44124 138.704453,1361.58039 C91.9751452,1461.71953 198.781596,1635.29994 198.781596,1635.29994 C198.781596,1635.29994 38.5736177,1481.75144 11.8677607,1555.18591 C-14.8347008,1628.62377 11.8677607,1989.13013 11.8677607,1989.13013 L3200,2011.50331 C3200,2011.50331 3225.59932,1548.03093 3122.6468,1441.69442 C3089.93425,1407.90947 2995.81011,1421.66591 2955.75981,1528.48462 Z" id="Bushes-2" fill="#DADFFF" opacity=".5"/><path d="M3129.17813,1949.64058 C3129.17813,1949.64058 3146.88676,1865.54119 3080.49126,1865.54119 C3019.45444,1865.54119 3023.64872,1915.03364 3024.72283,1923.02297 C3022.98096,1911.67109 3007.28748,1816.85432 2969.83842,1816.85432 C2930.00349,1816.85432 2891.86053,1877.42537 2891.86053,1877.42537 C2891.86053,1877.42537 2912.29961,1808 2837.05453,1808 C2761.80946,1808 2734.91382,1909.24245 2734.91382,1909.24245 C2734.91382,1909.24245 2744.1032,1865.54119 2695.41396,1869.96597 C2646.72709,1874.39551 2633.44799,1945.21342 2633.44799,1945.21342 C2633.44799,1945.21342 2544.81688,1870.53392 2513.88855,1885.74263 L2482.95784,1900.95133 C2482.95784,1900.95133 2447.55007,1834.5582 2390.01126,1834.5582 C2332.47008,1834.5582 2328.04292,1914.22806 2328.04292,1914.22806 C2328.04292,1914.22806 2323.61576,1856.68925 2288.20799,1856.68925 C2252.79784,1856.68925 2221.81248,1892.09939 2221.81248,1892.09939 C2221.81248,1892.09939 2230.6668,1856.68925 2186.40472,1847.8373 C2142.14263,1838.98536 2137.71785,1869.96597 2137.71785,1869.96597 C2137.71785,1869.96597 2120.01159,1821.2791 2071.32472,1834.5582 C2022.63785,1847.8373 2043.11732,1920.9888 2043.11732,1920.9888 C2043.11732,1920.9888 2013.78353,1869.96597 1978.37576,1878.82029 C1942.96799,1887.67461 1942.96799,1923.08238 1942.96799,1923.08238 C1942.96799,1923.08238 1916.40979,1896.52417 1894.27637,1896.52417 C1872.1477,1896.52417 1850.01428,1940.78626 1850.01428,1940.78626 C1850.01428,1940.78626 1868.71149,1875.80706 1814.60652,1874.39551 C1760.50155,1872.9792 1765.91965,1931.93432 1765.91965,1931.93432 C1765.91965,1931.93432 1743.7886,1918.65522 1708.37846,1918.65522 C1672.96831,1918.65522 1681.82263,1976.1964 1681.82263,1976.1964 C1681.82263,1976.1964 1669.58675,1922.215 1637.55817,1918.65522 C1622.38986,1916.97038 1611.24236,1919.14237 1603.11996,1923.75251 C1601.94603,1923.46497 1600.7032,1923.22971 1599.35343,1923.08238 C1559.5185,1918.65522 1546.2394,1949.64058 1546.2394,1949.64058 C1546.2394,1949.64058 1563.94328,1865.54119 1497.55015,1865.54119 C1436.51096,1865.54119 1440.70999,1915.03364 1441.78173,1923.02297 C1440.03986,1911.67109 1424.34875,1816.85432 1386.89731,1816.85432 C1347.06238,1816.85432 1308.91943,1877.42537 1308.91943,1877.42537 C1308.91943,1877.42537 1329.35612,1808 1254.11343,1808 C1178.86836,1808 1151.97271,1909.24245 1151.97271,1909.24245 C1151.97271,1909.24245 1161.1621,1865.54119 1112.47523,1869.96597 C1063.78598,1874.39551 1050.50688,1945.21342 1050.50688,1945.21342 C1050.50688,1945.21342 961.875771,1870.53392 930.945066,1885.74263 L900.019114,1900.95133 C900.019114,1900.95133 864.606593,1834.5582 807.067781,1834.5582 C749.52897,1834.5582 745.099435,1914.22806 745.099435,1914.22806 C745.099435,1914.22806 740.674652,1856.68925 705.266884,1856.68925 C669.856739,1856.68925 638.873754,1892.09939 638.873754,1892.09939 C638.873754,1892.09939 647.725696,1856.68925 603.463609,1847.8373 C559.201523,1838.98536 554.77674,1869.96597 554.77674,1869.96597 C554.77674,1869.96597 537.07048,1821.2791 488.38361,1834.5582 C439.696741,1847.8373 460.176214,1920.9888 460.176214,1920.9888 C460.176214,1920.9888 430.842423,1869.96597 395.434655,1878.82029 C360.022134,1887.67461 360.022134,1923.08238 360.022134,1923.08238 C360.022134,1923.08238 333.468684,1896.52417 311.335265,1896.52417 C289.206598,1896.52417 267.073178,1940.78626 267.073178,1940.78626 C267.073178,1940.78626 285.768004,1875.80706 231.66541,1874.39551 C177.562816,1872.9792 182.978541,1931.93432 182.978541,1931.93432 C182.978541,1931.93432 160.845121,1918.65522 125.437353,1918.65522 C90.0272086,1918.65522 98.881527,1976.1964 98.881527,1976.1964 C98.881527,1976.1964 86.6432716,1922.215 54.6194405,1918.65522 C-25.0527904,1909.80327 5.93019488,2007.17939 5.93019488,2007.17939 L1622.80201,2007.17939 C1623.84603,2012.46441 2143.67687,2012.90462 3182.29453,2008.5 C3182.29453,2008.5 3222.13184,1927.50716 3182.29453,1923.08238 C3142.45723,1918.65522 3129.17813,1949.64058 3129.17813,1949.64058 Z" id="Bushes-1" fill="#BDC5FE" opacity=".5"/><g id="Outdoor Plants" transform="translate(-27.000000, 1034.000000) scale(1 1)"><g id="Outdoor Plants/Trees" stroke="none" stroke-width="1" fill="none" fill-rule="evenodd"><g id="Group" transform="translate(50.000000, 27.000000)"><path d="M246.327941,707.554023 C202.725234,648.694159 266.995654,634.469818 237.177083,579.041474 C201.045875,511.877502 252.889207,525.364984 230.558991,457.77841 C212.889507,404.298257 182.034281,401.995081 179.286724,325.770544 C176.543382,249.546006 39.2582753,245.25238 68.925141,351.777408 C98.5962208,458.302435 22.2672523,432.071593 35.6974086,509.466735 C53.6492336,612.915227 -18.38566,571.479753 4.55980649,651.097777 C24.0792556,718.828035 -59.1552187,832.362634 138.705486,859 C314.797719,849.998599 289.934862,766.418112 246.327941,707.554023 Z" id="Fill-1" fill="#009BA0"/><path d="M95,585 C95,585 102.269883,617.395249 137,651" id="Stroke-5" stroke="#090E2B" stroke-width="9.107" stroke-linecap="round" stroke-linejoin="round"/><path d="M63,713 C63,713 75.8067111,744.89889 137,778" id="Stroke-7" stroke="#090E2B" stroke-width="9.107" stroke-linecap="round" stroke-linejoin="round"/><path d="M199,637 C199,637 190.990083,687.972701 137,725" id="Stroke-9" stroke="#090E2B" stroke-width="9.107" stroke-linecap="round" stroke-linejoin="round"/><path d="M608.603445,473.480495 C570.590587,379.998182 626.937388,314.013535 549.627883,136.939688 C472.318378,-40.1341592 367.026875,-40.7590157 351.056381,107.78507 C335.090104,256.329155 210.936686,350.641456 268.195115,484.721371 C324.468099,616.493705 207.88992,647.351714 245.711222,745.061987 C293.787219,869.262883 452.912681,874 452.912681,874 C626.199908,874 654.358401,816.786582 667.882995,767.076651 C703.354583,636.700085 625.009296,513.826235 608.603445,473.480495 Z" id="Fill-11" fill="#FFB201"/><path d="M535,314 C535,314 520.978644,385.165722 454,459" id="Stroke-15" stroke="#090E2B" stroke-width="9.107" stroke-linecap="round" stroke-linejoin="round"/><path d="M560,611 C560,611 541.481013,682.167801 453,756" id="Stroke-17" stroke="#090E2B" stroke-width="9.107" stroke-linecap="round" stroke-linejoin="round"/><path d="M365,465 C365,465 376.498556,549.574282 454,611" id="Stroke-19" stroke="#090E2B" stroke-width="9.107" stroke-linecap="round" stroke-linejoin="round"/><line x1="136" y1="938" x2="136" y2="511" id="Stroke-3" stroke="#090E2B" stroke-width="9.107" stroke-linecap="round" stroke-linejoin="round"/><line x1="453" y1="932" x2="453" y2="226" id="Stroke-13" stroke="#090E2B" stroke-width="9.107" stroke-linecap="round" stroke-linejoin="round"/></g></g></g><g id="Outdoor Plants" transform="translate(-27.000000, 1044.000000) scale(1 1)"><g id="Outdoor Plants/Bush" stroke="none" stroke-width="1" fill="none" fill-rule="evenodd"><g id="Group-16-Copy" transform="translate(98.000000, 689.000000)"><path d="M2.39500229,275.969448 C4.95578,275.610539 7.81571397,276.244612 10.3764917,275.885703 L558,275.885703 C557.748709,255.057012 545.866222,224.872758 527.67752,214.67974 C509.500785,204.498686 485.903338,204.821704 468.013793,215.46934 C476.079046,172.735231 481.918576,128.086941 470.155752,86.2022508 C458.41686,44.3175605 424.971188,5.75876099 381.773022,0.590470148 C341.267263,-4.24283888 301.934196,21.2038153 278.611973,54.6661058 C255.28975,88.1283962 244.831246,128.637268 234.815494,168.165122 C235.952288,149.465959 226.678444,130.479668 211.253946,119.855959 C195.817483,109.23225 174.768847,107.365923 157.704973,115.094432 C138.654702,123.720214 125.982442,142.814177 120.107013,162.889159 C114.24355,182.976104 114.255516,204.223522 114.315347,225.135958 C102.109771,197.476031 66.8212974,182.581304 38.4971814,193.133231 C10.1610992,203.697122 -6.48395591,247.077267 2.39500229,275.969448" id="Fill-1" fill="#F67A49"/><path d="M118.397008,275.974803 C119.891241,275.760692 121.552828,276.153228 123.047061,275.927223 L442,275.927223 C441.856554,263.85377 434.923314,246.356186 424.344146,240.456253 C413.753025,234.556319 400.018038,234.734745 389.59427,240.920159 C394.292138,216.142818 397.687034,190.247344 390.849426,165.969594 C383.999863,141.691845 364.515068,119.341089 339.352189,116.343542 C315.76722,113.536316 292.863621,128.286149 279.27208,147.686938 C265.692493,167.087727 259.607977,190.556615 253.762539,213.478332 C254.420001,202.641962 249.02881,191.639062 240.039506,185.489334 C231.050202,179.32771 218.785539,178.233367 208.85188,182.717792 C197.758697,187.725599 190.37121,198.787974 186.952406,210.42131 C183.545555,222.066541 183.545555,234.389789 183.581417,246.498926 C176.480823,230.476325 155.92018,221.840536 139.423851,227.966474 C122.915568,234.080518 113.220986,259.226605 118.397008,275.974803" id="Fill-4" fill="#FFB201"/></g></g></g><path d="M2595.4375,2005 C2597.3705,2005 2598.9375,2006.567 2598.9375,2008.5 C2598.9375,2010.36856 2597.47322,2011.89513 2595.62954,2011.99482 L2595.4375,2012 L1552.5,2012 C1550.567,2012 1549,2010.433 1549,2008.5 C1549,2006.63144 1550.46428,2005.10487 1552.30796,2005.00518 L1552.5,2005 L2595.4375,2005 Z" id="Floor" fill="#090E2B" fill-rule="nonzero"/><g id="Bench" transform="translate(2164.000000, 1378.000000)"><g id="Group-4" transform="translate(0.200000, 0.000000)"><polygon id="Fill-5" fill="#C5CDFF" points="53.568 609.6 90.9696 609.6 90.9696 0 53.568 0"/><polygon id="Fill-6" fill="#C5CDFF" points="924.6656 609.6 962.0672 609.6 962.0672 0 924.6656 0"/><polygon id="Fill-7" fill="#C5CDFF" points="0 336.992 1009.7856 336.992 1009.7856 299.2832 0 299.2832"/><path d="M24.7488,76.5632 L990.88,76.5632 C1004.54838,76.5632 1015.6288,65.4827848 1015.6288,51.8144 C1015.6288,38.1460152 1004.54838,27.0656 990.88,27.0656 L24.7488,27.0656 C11.0804152,27.0656 -1.67389437e-15,38.1460152 0,51.8144 C1.67389437e-15,65.4827848 11.0804152,76.5632 24.7488,76.5632 Z" id="Fill-2" fill="#BDC5FE"/><path d="M24.7488,139.0208 L990.88,139.0208 C1004.54838,139.0208 1015.6288,127.940385 1015.6288,114.272 C1015.6288,100.603615 1004.54838,89.5232 990.88,89.5232 L24.7488,89.5232 C11.0804152,89.5232 -1.67389437e-15,100.603615 0,114.272 C1.67389437e-15,127.940385 11.0804152,139.0208 24.7488,139.0208 Z" id="Fill-3" fill="#BDC5FE"/><path d="M24.7488,201.472 L990.88,201.472 C1004.54838,201.472 1015.6288,190.391585 1015.6288,176.7232 C1015.6288,163.054815 1004.54838,151.9744 990.88,151.9744 L24.7488,151.9744 C11.0804152,151.9744 -1.67389437e-15,163.054815 0,176.7232 C1.67389437e-15,190.391585 11.0804152,201.472 24.7488,201.472 Z" id="Fill-4" fill="#BDC5FE"/></g></g><g id="Flying Objects" opacity=".5" transform="translate(132.000000, 0.000000) scale(1 1)"><g id="Flying Objects/Cloud 1" stroke="none" stroke-width="1" fill="none" fill-rule="evenodd"><path d="M479.95575,473.895048 C489.613069,459.137123 499.099888,436.733126 487.997876,423.547909 C481.436886,415.755283 470.330969,416.37302 462.370839,421.934228 C454.409408,427.495437 448.858402,436.870226 443.55859,445.96136 C452.064059,424.955151 460.742631,403.137375 461.346539,379.753193 C461.950447,356.369012 452.155166,330.873179 433.86613,323.327963 C414.905507,315.50382 394.716245,328.774134 378.352165,342.761464 C343.415317,372.620853 311.811676,408.189581 284.665759,448.195929 C286.38117,435.63948 288.09658,422.759979 286.097437,410.263412 C284.098294,397.765269 277.573747,385.527143 267.572825,381.604829 C257.656503,377.714031 246.935838,382.62441 237.627328,388.303808 C205.588977,407.842892 177.856072,437.617184 158,473.792617 C160.945352,473.792617 156.578734,478.669903 159.524086,478.669903 L479.95575,473.895048 Z" id="cloud" fill="#F0F1FF" transform="translate(325.500000, 399.834951) scale(-1, 1) translate(-325.500000, -399.834951)"/></g></g><g id="Flying Objects" opacity=".5" transform="translate(899.000000, -159.000000) scale(1 1)"><g id="Flying Objects/Cloud 1" stroke="none" stroke-width="1" fill="none" fill-rule="evenodd"><path d="M479.95575,473.895048 C489.613069,459.137123 499.099888,436.733126 487.997876,423.547909 C481.436886,415.755283 470.330969,416.37302 462.370839,421.934228 C454.409408,427.495437 448.858402,436.870226 443.55859,445.96136 C452.064059,424.955151 460.742631,403.137375 461.346539,379.753193 C461.950447,356.369012 452.155166,330.873179 433.86613,323.327963 C414.905507,315.50382 394.716245,328.774134 378.352165,342.761464 C343.415317,372.620853 311.811676,408.189581 284.665759,448.195929 C286.38117,435.63948 288.09658,422.759979 286.097437,410.263412 C284.098294,397.765269 277.573747,385.527143 267.572825,381.604829 C257.656503,377.714031 246.935838,382.62441 237.627328,388.303808 C205.588977,407.842892 177.856072,437.617184 158,473.792617 C160.945352,473.792617 156.578734,478.669903 159.524086,478.669903 L479.95575,473.895048 Z" id="cloud" fill="#F0F1FF" transform="translate(325.500000, 399.834951) scale(-1, 1) translate(-325.500000, -399.834951)"/></g></g><path d="M1248.91203,2002.5 C1250.84503,2002.5 1252.41203,2004.067 1252.41203,2006 C1252.41203,2007.86856 1250.94776,2009.39513 1249.10407,2009.49482 L1248.91203,2009.5 L415.20923,2009.5 C413.276234,2009.5 411.70923,2007.933 411.70923,2006 C411.70923,2004.13144 413.173508,2002.60487 415.017195,2002.50518 L415.20923,2002.5 L1248.91203,2002.5 Z" id="Floor" fill="#090E2B" fill-rule="nonzero"/><g id="Flying Objects" opacity=".5" transform="translate(1250.000000, -81.000000) scale(1 1)"><g id="Flying Objects/Cloud 1" stroke="none" stroke-width="1" fill="none" fill-rule="evenodd"><path d="M479.95575,473.895048 C489.613069,459.137123 499.099888,436.733126 487.997876,423.547909 C481.436886,415.755283 470.330969,416.37302 462.370839,421.934228 C454.409408,427.495437 448.858402,436.870226 443.55859,445.96136 C452.064059,424.955151 460.742631,403.137375 461.346539,379.753193 C461.950447,356.369012 452.155166,330.873179 433.86613,323.327963 C414.905507,315.50382 394.716245,328.774134 378.352165,342.761464 C343.415317,372.620853 311.811676,408.189581 284.665759,448.195929 C286.38117,435.63948 288.09658,422.759979 286.097437,410.263412 C284.098294,397.765269 277.573747,385.527143 267.572825,381.604829 C257.656503,377.714031 246.935838,382.62441 237.627328,388.303808 C205.588977,407.842892 177.856072,437.617184 158,473.792617 C160.945352,473.792617 156.578734,478.669903 159.524086,478.669903 L479.95575,473.895048 Z" id="cloud" fill="#F0F1FF" transform="translate(325.500000, 399.834951) scale(-1, 1) translate(-325.500000, -399.834951)"/></g></g><g id="Flying Objects" opacity=".5" transform="translate(2800.000000, 319.000000) scale(-1, 1) translate(-2800.000000, -319.000000) translate(2450.000000, -81.000000) scale(1 1)"><g id="Flying Objects/Cloud 1" stroke="none" stroke-width="1" fill="none" fill-rule="evenodd"><path d="M479.95575,473.895048 C489.613069,459.137123 499.099888,436.733126 487.997876,423.547909 C481.436886,415.755283 470.330969,416.37302 462.370839,421.934228 C454.409408,427.495437 448.858402,436.870226 443.55859,445.96136 C452.064059,424.955151 460.742631,403.137375 461.346539,379.753193 C461.950447,356.369012 452.155166,330.873179 433.86613,323.327963 C414.905507,315.50382 394.716245,328.774134 378.352165,342.761464 C343.415317,372.620853 311.811676,408.189581 284.665759,448.195929 C286.38117,435.63948 288.09658,422.759979 286.097437,410.263412 C284.098294,397.765269 277.573747,385.527143 267.572825,381.604829 C257.656503,377.714031 246.935838,382.62441 237.627328,388.303808 C205.588977,407.842892 177.856072,437.617184 158,473.792617 C160.945352,473.792617 156.578734,478.669903 159.524086,478.669903 L479.95575,473.895048 Z" id="cloud" fill="#F0F1FF" transform="translate(325.500000, 399.834951) scale(-1, 1) translate(-325.500000, -399.834951)"/></g></g></g></svg>