<svg viewBox="34.99999999999997 7 210.00000000000003 276.5" xmlns="http://www.w3.org/2000/svg" xmlns:xlink="http://www.w3.org/1999/xlink" overflow="visible" width="210.00000000000003px" height="276.5px"><defs><path d="M83,36.3476251 C83,52.6289957 105.161905,65.8276544 132.5,65.8276544 C159.838095,65.8276544 182,52.6289957 182,36.3476251 C182,34.9853134 181.844841,33.6445843 181.544472,32.3313638 C210.784239,41.4879251 232,68.792221 232,101.051724 L232,110 L32,110 L32,101.051724 C32,68.3970853 53.7386736,40.8197864 83.5337207,32.0021267 C83.1821692,33.4207025 83,34.871494 83,36.3476251 Z" id="masteravataaardefault-path-1"/></defs><g id="Master/Avataaar/Default" stroke="none" stroke-width="1" fill="none" fill-rule="evenodd"><path d="M140,36 C170.927946,36 196,61.072054 196,92 L196.000809,98.1660527 C201.675838,99.1185422 206,104.05429 206,110 L206,124 C206,130.052417 201.519235,135.058294 195.693975,135.881364 C193.627928,155.686472 181.237929,172.421678 164.001014,180.610469 L164,199 L168,199 C207.764502,199 240,231.235498 240,271 L240,280 L40,280 L40,271 C40,231.235498 72.235498,199 112,199 L116,199 L115.999984,180.610943 C98.7625487,172.422324 86.3721119,155.686854 84.3051107,135.88097 C78.480765,135.058294 74,130.052417 74,124 L74,110 C74,104.053942 78.3246685,99.1179645 84.0001873,98.1658855 L84,92 C84,61.072054 109.072054,36 140,36 Z" id="Body" fill="#eac7a8"/><path d="M115.998216,180.610103 C123.272713,184.066155 131.410519,186 140,186 C148.588785,186 156.725969,184.066469 164.000016,180.610943 L164.000353,185.94579 C157.441661,190.398372 149.524652,193 141,193 C131.589035,193 122.918635,189.829263 115.998807,184.497795 Z" id="shadow" fill-opacity=".24" fill="#000"/><g id="Nose" transform="translate(112.000000, 122.000000) scale(1 1)" fill="#000"><g id="Nose/Wide" stroke="none" stroke-width="1" fill="none" fill-rule="evenodd"><path d="M13,6 C13,12.627417 16.8281211,18 28,18 C39.1718789,18 43,12.627417 43,6 C39.0361818,6 32.8972468,9 27.83815,9 C23.0794079,9 17.1013384,6 13,6 Z" id="Nose" fill-opacity=".16" fill="#000"/></g></g><g id="Clothing" transform="translate(8.000000, 170.000000) scale(1 1)"><g id="Clothing/Bond Suit" stroke="none" stroke-width="1" fill="none" fill-rule="evenodd"><g id="Suit" transform="translate(31.500000, 28.600000)"><path d="M124.379699,3.0005061 L128.359699,3.0005061 C167.925874,3.0005061 199.999699,34.434727 199.999699,73.2118883 L199.999699,81.9883111 L0.9996985,81.9883111 L0.9996985,73.2118883 L1.0096485,72.050475 C1.6424685,33.8096507 33.4695335,3.0005061 72.6396985,3.0005061 L76.6196985,3.0005061 C76.6196985,3.0005061 76.4236835,15.1129447 100.491739,15.1129447 C124.559794,15.1129447 124.379699,3.0005061 124.379699,3.0005061" id="Fill-1" fill="#4e598c"/><path d="M86.846271,30.4401 L100.520301,16.6691854 L114.194331,30.4401 L142.147401,2.28791707 C137.769621,1.45386829 133.258176,1.00040488 128.639196,1.00040488 L124.619196,1.00040488 C124.619196,1.00040488 124.801101,13.5728805 100.491156,13.5728805 C76.181211,13.5728805 76.380201,1.00040488 76.380201,1.00040488 L72.360201,1.00040488 C67.753281,1.00040488 63.252891,1.44981951 58.885161,2.27981951 L86.846271,30.4401 Z" id="Fill-7" fill="#FFF"/><path d="M128.639698,0.000506097561 L124.640803,0.000506097561 L124.640803,81.988311 L200.999698,81.988311 L200.999698,72.8785549 C200.999698,32.6286159 168.603523,0.000506097561 128.639698,0.000506097561" id="Fill-9" fill="#191919"/><path d="M76.380201,0.000506097561 L72.360201,0.000506097561 C32.796366,0.000506097561 0.649431,31.9797988 0.009246,71.6730305 L0.000201,72.8785549 L0.000201,81.988311 L76.380201,81.988311 L76.380201,0.000506097561 Z" id="Fill-12" fill="#191919"/><path d="M66.873906,0.206082927 L40.132866,43.4571805 L62.584566,56.6946683 L48.757776,75.9982415 L55.328466,81.9884122 L76.380201,81.9884122 L76.380201,0.000607317073 C76.380201,0.000607317073 73.264701,0.0431195122 66.873906,0.206082927" id="Fill-15" fill="#2B2B2B"/><path d="M134.28006,0.224909756 L160.887435,43.4577878 L138.435735,56.6942634 L152.26353,75.9978366 L145.69083,81.9880073 L124.6401,81.9869951 L124.6401,-0.000809756098 C124.6401,-0.000809756098 127.889265,0.0619463415 134.28006,0.224909756" id="Fill-18" fill="#2B2B2B"/><path d="M117.319471,4.55653649 L104.309494,9.42526147 C103.959547,8.06616124 102.826255,7.06466754 101.46774,7.06466754 L99.5726387,7.06466754 C98.2087401,7.06466754 97.0727562,8.07300071 96.7272951,9.43894041 L83.6805286,4.55653649 C81.6014805,3.86379597 79.5,5.55705312 79.5,7.92546359 L79.5,20.8755099 C79.5,23.2429433 81.6014805,24.9362005 83.6805286,24.24346 L96.7272951,19.3620331 C97.0727562,20.7269957 98.2087401,21.7353289 99.5726387,21.7353289 L101.46774,21.7353289 C102.826255,21.7353289 103.959547,20.7328581 104.308597,19.3757121 L117.319471,24.24346 C119.398519,24.9362005 121.5,23.2429433 121.5,20.8755099 L121.5,7.92546359 C121.5,5.55705312 119.398519,3.86379597 117.319471,4.55653649" id="Fill-1" fill="#191919"/></g></g></g><g id="Mouth" transform="translate(86.000000, 134.000000) scale(1 1)" fill="#000"><g id="Mouth/Twinkle" stroke="none" stroke-width="1" fill="none" fill-rule="evenodd"><path d="M40,16 C40,21.371763 46.1581544,25 54,25 C61.8418456,25 68,21.371763 68,16 C68,14.8954305 67.050301,14 66,14 C64.7072748,14 64.1302316,14.9051755 64,16 C62.7575758,18.9378973 59.6832595,20.7163149 54,21 C48.3167405,20.7163149 45.2424242,18.9378973 44,16 C43.8697684,14.9051755 43.2927252,14 42,14 C40.949699,14 40,14.8954305 40,16 Z" id="Mouth" fill-opacity=".6" fill="#000" fill-rule="nonzero"/></g></g><g id="Eyes" transform="translate(84.000000, 90.000000) scale(1 1)" fill="#000"><g id="Eyes/Default" stroke="none" stroke-width="1" fill="none" fill-rule="evenodd"><circle id="Eye" fill-opacity=".6" fill="#000" cx="30" cy="22" r="6"/><circle id="Eye" fill-opacity=".6" fill="#000" cx="82" cy="22" r="6"/></g></g><g id="Eyebrow/Outline" transform="translate(84.000000, 82.000000) scale(1 1)" fill="#000"><g id="Eyebrow/Outline/Default" stroke="none" stroke-width="1" fill="none" fill-rule="evenodd"><g id="I-Browse" transform="translate(12.000000, 6.000000)" fill="#000" fill-opacity=".6" fill-rule="nonzero"><path d="M3.63024536,11.1585767 C7.54515501,5.64986673 18.2779197,2.56083721 27.5230268,4.83118046 C28.5957248,5.0946055 29.6788665,4.43856013 29.9422916,3.36586212 C30.2057166,2.2931641 29.5496712,1.21002236 28.4769732,0.94659732 C17.7403633,-1.69001789 5.31209962,1.88699832 0.369754639,8.84142326 C-0.270109626,9.74178291 -0.0589363917,10.9903811 0.84142326,11.6302454 C1.74178291,12.2701096 2.9903811,12.0589364 3.63024536,11.1585767 Z" id="Eyebrow"/><path d="M61.6302454,11.1585767 C65.545155,5.64986673 76.2779197,2.56083721 85.5230268,4.83118046 C86.5957248,5.0946055 87.6788665,4.43856013 87.9422916,3.36586212 C88.2057166,2.2931641 87.5496712,1.21002236 86.4769732,0.94659732 C75.7403633,-1.69001789 63.3120996,1.88699832 58.3697546,8.84142326 C57.7298904,9.74178291 57.9410636,10.9903811 58.8414233,11.6302454 C59.7417829,12.2701096 60.9903811,12.0589364 61.6302454,11.1585767 Z" id="Eyebrow" transform="translate(73.000154, 6.039198) scale(-1, 1) translate(-73.000154, -6.039198)"/></g></g></g><g id="Facial Hair" transform="translate(57.000000, 72.000000) scale(1 1)" fill="#000"><defs><path d="M64.7214121,63.4643353 C71.8381194,62.1698595 81.796173,63.6461901 84.1074639,67.092174 L83.998,66.939 L84.010445,66.9215199 C86.5309935,63.5977488 96.2765075,62.1914341 103.274279,63.4643353 C112.927938,65.2207224 117.019147,75.7669804 115.780485,77.6791014 C114.655476,79.4153191 111.53642,77.7739966 109.119711,77.6298353 C104.118941,77.3322546 94.948229,81.5102869 86.0463327,76.6891498 C85.2347477,76.2495714 84.5386341,75.6083797 83.9975585,74.8390687 C83.4573866,75.6083797 82.7612729,76.2495714 81.949688,76.6891498 C73.0477917,81.5102869 63.8767499,77.3322546 58.8763101,77.6298353 C56.459601,77.7739966 53.3405442,79.4153191 52.2155358,77.6791014 C50.9768736,75.7669804 55.0680827,65.2207224 64.7214121,63.4643353 Z" id="facial-hairmoustache-magnum-path-1"/></defs><g id="Facial Hair/Moustache Magnum" stroke="none" stroke-width="1" fill="none" fill-rule="evenodd"><mask id="facial-hairmoustache-magnum-mask-2" fill="#ffffff"><use xlink:href="#facial-hairmoustache-magnum-path-1" fill="#ffffff"/></mask><use id="Hey..." fill="#724133" xlink:href="#facial-hairmoustache-magnum-path-1"/></g></g><g id="Hairstyle" transform="translate(7.000000, 0.000000) scale(1 1)"><defs><path d="M264,0 L264,280 L232,280 L232,271 C232,231.235498 199.764502,199 160,199 L160,199 L156,199 L156.001014,180.610469 C173.531251,172.282329 186.048207,155.114429 187.791415,134.867236 C193.568906,134.002616 198,129.018777 198,123 L198,123 L198,110 C198,104.05429 193.675838,99.1185422 188.000809,98.1660527 L188,92 C188,61.072054 162.927946,36 132,36 C101.072054,36 76,61.072054 76,92 L76,92 L76.0001873,98.1658855 C70.3246685,99.1179645 66,104.053942 66,110 L66,110 L66,123 C66,129.018777 70.4310943,134.002616 76.2090181,134.867253 C77.9518263,155.114813 90.4692242,172.28298 107.999984,180.610943 L108,199 L104,199 C64.633143,199 32.6454629,230.594012 32.0096459,269.809348 L32,271 L32,280 L0,280 L0,0 L264,0 Z" id="hairstylewild-path-1"/></defs><g id="Hairstyle/Wild" stroke="none" stroke-width="1" fill="none" fill-rule="evenodd"><g id="template-for-hairstyles" opacity=".184" transform="translate(1.000000, 0.000000)"><mask id="hairstylewild-mask-2" fill="#ffffff"><use xlink:href="#hairstylewild-path-1" fill="#ffffff"/></mask><g id="Mask-Hair"/></g><path d="M75.3966,134.2411 C75.3966,134.2411 83.0916,122.8731 85.6626,115.9421 L86.2066,121.5271 C86.2066,121.5271 107.0486,98.2341 107.7296,75.7581 L109.5966,80.3891 C109.5966,80.3891 125.1296,68.8371 128.8346,58.5941 L128.8346,63.6341 C128.8346,63.6341 136.2946,56.6331 137.2886,51.6471 C137.2886,51.6471 140.2856,62.1361 146.4156,65.9501 L147.7776,57.2321 C147.7776,57.2321 153.3626,76.8471 170.9356,86.5191 L172.0246,82.8411 C172.0246,82.8411 177.4586,89.6601 180.6066,90.8781 C180.6066,90.8781 179.4526,122.7531 191.3356,131.6081 C203.2196,140.4621 190.5506,69.0831 190.5506,69.0831 L159.4926,45.3811 L134.4286,36.0001 L73.2666,54.3711 L67.0006,117.7131 L75.3966,134.2411 Z" id="Fill-1" fill-opacity=".16" fill="#000"/><g id="Group-9" transform="translate(33.000000, 10.000000)"><path d="M193.5081,115.5138 C192.6601,74.4668 165.4761,45.2248 165.4761,45.2248 L178.5531,51.2188 C162.7511,21.2498 145.6791,15.4378 145.6791,15.4378 L171.4691,18.7068 C149.4311,0.9088 115.1651,4.7218 115.1651,4.7218 L119.5251,-0.0002 C109.1721,1.3568 102.3771,7.5928 102.3771,7.5928 L96.7541,1.9978 L96.7541,7.4468 C69.9871,2.1798 52.3231,13.9848 52.3231,13.9848 L69.0331,14.7118 C6.7351,30.7798 7.4621,84.0928 7.4621,84.0928 L20.7201,73.0138 C-14.8779,131.8598 6.1911,163.0998 6.1911,163.0998 L10.3681,145.4818 C10.1861,174.5418 28.8941,182.7148 28.8941,182.7148 L28.8941,161.8278 C39.9731,181.9888 55.4111,182.7148 55.4111,182.7148 L50.3251,171.9988 C59.6971,180.9088 69.8741,184.4338 76.0311,185.8218 L76.0311,170.4198 C58.5001,162.0918 45.9831,144.9238 44.2401,124.6758 C44.0721,124.6508 51.0941,105.3008 52.5051,92.9098 L52.5051,101.3468 C52.5051,101.3468 71.0301,81.9128 73.0291,52.6708 L74.1181,62.1158 C74.1181,62.1158 96.5201,51.0368 100.0311,33.4188 L96.7541,48.1308 C96.7541,48.1308 103.9041,38.5048 104.6311,35.7798 C104.6311,35.7798 105.5391,45.4068 111.1701,50.4918 C111.1701,50.4918 112.8051,39.4128 113.7131,38.3228 C113.7131,38.3228 120.2511,60.6628 136.4161,70.6518 L133.3281,53.0348 C133.3281,53.0348 137.1431,71.7418 150.0371,78.4618 C150.0371,78.4618 150.9651,107.4348 155.9671,124.6478 C155.9181,124.6558 155.8711,124.6688 155.8221,124.6758 C154.0791,144.9228 141.5621,162.0908 124.0311,170.4188 L124.0311,185.1928 C134.0101,183.7208 144.7711,177.9928 144.7711,177.9928 L140.4111,183.8048 C161.1161,182.0748 165.6571,169.8198 165.6571,169.8198 L166.7471,179.2638 C178.0081,168.7298 180.1881,156.3788 180.1881,156.3788 L189.0871,166.1878 C193.9901,128.7718 179.0981,105.3428 179.0981,105.3428 L193.5081,115.5138 Z" id="Fill-1" fill="#724133"/><path d="M44.24,124.675884 C44.139,124.6609 41.159,135.1169 41.97,139.8519 C42.965,145.6499 47.896,171.8349 71.352,184.5279 C73.073,185.0869 74.657,185.5109 76.031,185.8219 L76.031,170.4199 C58.5,162.0919 45.983,144.9239 44.24,124.675884" id="Fill-4" fill-opacity=".24" fill="#000"/><path d="M124.0315,170.4189 L124.0315,183.5159 C146.0655,173.6019 163.8065,153.0999 155.8225,124.6759 C154.0795,144.9229 141.5615,162.0909 124.0315,170.4189 Z" id="Fill-7" fill-opacity=".24" fill="#000"/></g></g></g><g id="Accesories" transform="translate(70.000000, 85.000000) scale(1 1)"><g id="Accesories/Prescription 01" stroke="none" stroke-width="1" fill="none" fill-rule="evenodd"><g id="Glasses" transform="translate(8.000000, 8.000000)"><path d="M80.420644,2.03156667 L103.711555,2.4879 L104.418885,2.51739042 C108.716907,2.73064946 111.842183,3.56082362 114.25907,7.0052776 L115.270648,7.06122262 C117.98538,7.22356852 120.815928,7.51990231 123.241565,8.63936667 C126.626236,10.2013667 127.149293,13.7387 122.882414,14.2260333 C120.960673,14.4457 119.036739,14.0827 117.144457,13.7450333 L116.805075,13.6912775 C117.908933,23.1522104 110.598088,34.5597165 102.577413,38.0372333 C91.6003746,42.7965667 79.3375086,37.5292333 73.5337832,28.0035667 C70.9077874,23.6933472 69.3913647,17.4882292 69.0679314,12.1428905 C68.2485064,11.7454964 67.4674464,11.2201465 66.7189648,10.8553 C64.7120473,9.8773 61.3809643,9.75663333 59.2126933,10.8553 C58.4674989,11.2329059 57.6844252,11.7618811 56.860867,12.1592462 C56.5358863,17.500774 55.019749,23.6993553 52.3955746,28.0058333 C46.5921826,37.5318333 34.3293166,42.7991667 23.352278,38.0395 C15.3308758,34.5619527 8.01918948,23.1527353 9.12481053,13.6913039 L8.78716336,13.7450333 L7.91167874,13.9004644 C6.30295502,14.1806014 4.67529677,14.4119051 3.04920921,14.2260333 C-1.2176675,13.7387 -0.69461078,10.2013667 2.69005822,8.63936667 C5.41866332,7.38007813 8.65964371,7.16238412 11.6724863,7.00636982 C14.088769,3.56285878 17.2136434,2.73316872 21.5106444,2.51998225 L22.2178029,2.4905 L46.367281,2.01387049 C51.1910659,1.92297948 55.3004405,2.2797475 56.5415862,6.63986622 C58.6301126,5.82581137 61.0470363,5.38463333 62.8914864,5.38463333 C64.750063,5.38463333 67.2403142,5.83268843 69.3827667,6.65903161 C70.6884926,2.02106814 75.2241204,1.89209727 80.420644,2.03156667 Z M46.6792964,9.28413029 L45.1743719,9.26279162 C40.2545196,9.2171575 20.0180517,9.15303061 17.6158944,11.1491667 C15.2262624,13.1345 16.5340925,19.0731667 17.1565036,21.5561667 C18.2203032,25.7998333 20.6396056,30.0601667 24.1723805,32.7525 C27.160879,35.03 30.9870799,35.1875781 34.598636,34.8394006 L34.8137377,34.8154434 C34.5755438,34.8270989 36.279595,34.5883296 36.6288896,34.5222918 L36.6612747,34.5158333 C37.7297416,34.2861667 38.7985419,33.9835 39.8106684,33.5641667 C41.7165732,32.7748333 43.5084639,31.6188333 44.9776475,30.1685 C47.7666627,27.4145 48.9648125,23.7228333 49.6852359,19.9548333 C50.1572949,17.4871667 50.5553446,14.6705 50.1459601,12.1651667 C49.7671628,9.84641667 48.7581109,9.35491276 46.6792964,9.28413029 L46.6792964,9.28413029 Z M82.2432286,9.24980184 L79.6805515,9.27256667 C77.3089217,9.29523333 76.1877816,9.68923333 75.7837311,12.1625667 C75.3743466,14.6679 75.7723963,17.4845667 76.244122,19.9522333 C76.9648787,23.7202333 78.1630285,27.4119 80.9520437,30.1659 C82.4212273,31.6162333 84.213118,32.7722333 86.1190228,33.5619 C86.9624616,33.9110667 87.8452571,34.1794463 88.7344192,34.392116 L89.2684165,34.5132333 C89.5131654,34.5657289 91.2030063,34.8028032 91.1366495,34.8130415 L90.9855976,34.8019336 C94.6972751,35.192883 98.6733348,35.1001622 101.757311,32.7499 C105.290086,30.0575667 107.709388,25.7975667 108.773188,21.5539 L108.961141,20.7771479 C109.606864,17.9999642 110.480835,12.9475202 108.313797,11.1465667 C106.107164,9.3129068 88.8513244,9.2177679 82.2432286,9.24980184 L82.2432286,9.24980184 Z" id="Shape" fill-opacity=".16" fill="#000"/><path d="M80.420644,0.0315666667 L103.711555,0.4879 L104.418885,0.517390422 C108.716907,0.73064946 111.842183,1.56082362 114.25907,5.0052776 L115.270648,5.06122262 C117.98538,5.22356852 120.815928,5.51990231 123.241565,6.63936667 C126.626236,8.20136667 127.149293,11.7387 122.882414,12.2260333 C120.960673,12.4457 119.036739,12.0827 117.144457,11.7450333 L116.805075,11.6912775 C117.908933,21.1522104 110.598088,32.5597165 102.577413,36.0372333 C91.6003746,40.7965667 79.3375086,35.5292333 73.5337832,26.0035667 C70.9077874,21.6933472 69.3913647,15.4882292 69.0679314,10.1428905 C68.2485064,9.74549637 67.4674464,9.22014648 66.7189648,8.8553 C64.7120473,7.8773 61.3809643,7.75663333 59.2126933,8.8553 C58.4674989,9.2329059 57.6844252,9.7618811 56.860867,10.1592462 C56.5358863,15.500774 55.019749,21.6993553 52.3955746,26.0058333 C46.5921826,35.5318333 34.3293166,40.7991667 23.352278,36.0395 C15.3308758,32.5619527 8.01918948,21.1527353 9.12481053,11.6913039 L8.78716336,11.7450333 L7.91167874,11.9004644 C6.30295502,12.1806014 4.67529677,12.4119051 3.04920921,12.2260333 C-1.2176675,11.7387 -0.69461078,8.20136667 2.69005822,6.63936667 C5.41866332,5.38007813 8.65964371,5.16238412 11.6724863,5.00636982 C14.088769,1.56285878 17.2136434,0.733168723 21.5106444,0.519982254 L22.2178029,0.4905 L46.367281,0.0138704941 C51.1910659,-0.0770205207 55.3004405,0.279747502 56.5415862,4.63986622 C58.6301126,3.82581137 61.0470363,3.38463333 62.8914864,3.38463333 C64.750063,3.38463333 67.2403142,3.83268843 69.3827667,4.65903161 C70.6884926,0.0210681394 75.2241204,-0.10790273 80.420644,0.0315666667 Z M46.6792964,7.28413029 L45.1743719,7.26279162 C40.2545196,7.2171575 20.0180517,7.15303061 17.6158944,9.14916667 C15.2262624,11.1345 16.5340925,17.0731667 17.1565036,19.5561667 C18.2203032,23.7998333 20.6396056,28.0601667 24.1723805,30.7525 C27.160879,33.03 30.9870799,33.1875781 34.598636,32.8394006 L34.8137377,32.8154434 C34.5755438,32.8270989 36.279595,32.5883296 36.6288896,32.5222918 L36.6612747,32.5158333 C37.7297416,32.2861667 38.7985419,31.9835 39.8106684,31.5641667 C41.7165732,30.7748333 43.5084639,29.6188333 44.9776475,28.1685 C47.7666627,25.4145 48.9648125,21.7228333 49.6852359,17.9548333 C50.1572949,15.4871667 50.5553446,12.6705 50.1459601,10.1651667 C49.7671628,7.84641667 48.7581109,7.35491276 46.6792964,7.28413029 L46.6792964,7.28413029 Z M82.2432286,7.24980184 L79.6805515,7.27256667 C77.3089217,7.29523333 76.1877816,7.68923333 75.7837311,10.1625667 C75.3743466,12.6679 75.7723964,15.4845667 76.244122,17.9522333 C76.9648787,21.7202333 78.1630285,25.4119 80.9520437,28.1659 C82.4212274,29.6162333 84.213118,30.7722333 86.1190229,31.5619 C86.9624616,31.9110667 87.8452571,32.1794463 88.7344192,32.392116 L89.2684165,32.5132333 C89.5131654,32.5657289 91.2030063,32.8028032 91.1366495,32.8130415 L90.9855976,32.8019336 C94.6972751,33.192883 98.6733348,33.1001622 101.757311,30.7499 C105.290086,28.0575667 107.709388,23.7975667 108.773188,19.5539 L108.961141,18.7771479 C109.606864,15.9999642 110.480835,10.9475202 108.313797,9.14656667 C106.107164,7.3129068 88.8513244,7.2177679 82.2432286,7.24980184 L82.2432286,7.24980184 Z" id="Shape-Copy" fill="#D6EAF2"/></g></g></g></g></svg>