<svg viewBox="175.5 246.65289256198344 1033.5 679.7520661157025" fill="none" xmlns="http://www.w3.org/2000/svg" xmlns:xlink="http://www.w3.org/1999/xlink" overflow="visible" width="1033.5px" height="679.7520661157025px"><g id="Master/Vehicles/Large Vehicle"><g id="Large Vehicle" transform="scale(1 1)"><g id="Large Vehicle/Pickup"><g id="pickup"><g id="cars"><path id="Path" d="M816.15 588.88C816.15 588.88 773.08 589.43 762.08 589.88C755.71 590.16 749.52 589.88 743.19 590.05C729.32 590.52 664.96 590.16 664.91 590.39C685.38 505.68 704.63 417.82 725.1 333.11C726.58 326.99 728.44 320.31 733.65 316.78C738.15 313.78 744.01 313.85 749.44 314.08L788.18 315.72C795.46 316.03 803.52 316.72 808.55 321.96C812.7 326.32 813.66 332.73 814.37 338.7C815.703 349.807 816.87 360.937 817.87 372.09C820.123 397.13 821.546 422.23 822.14 447.39C822.733 472.55 822.503 497.687 821.45 522.8C820.916 535.367 820.18 547.917 819.24 560.45C818.81 566.16 816.15 588.88 816.15 588.88Z" fill="#1C4870"/><path id="Path_2" d="M828.43 560.66C826.852 553.793 824.926 547.011 822.66 540.34C820.303 533.169 817.154 526.283 813.27 519.81L813.08 519.47C808.146 510.721 800.669 503.679 791.64 499.28C784.01 495.7 775.76 494.8 769.42 494.41C760.755 493.815 752.054 493.989 743.42 494.93C735.209 495.87 727.408 499.022 720.85 504.05C718.59 505.72 716.43 507.57 714.33 509.36C709.72 513.3 705.33 517.03 700.11 519.02C691.9 522.14 683.18 522.02 673.94 521.86H670.58C668.06 521.86 662.99 521.72 662.99 521.72C661.948 521.694 661.002 522.321 660.62 523.29C660.231 524.252 660.478 525.355 661.24 526.06C663.7 528.34 665.12 534.49 664.07 538.31L662.68 542.16L663.68 543.16C664.331 543.811 664.57 544.769 664.3 545.65L662.15 552.65C661.393 556.715 658.718 560.164 654.97 561.91L671.22 565.78L673.35 590C673.468 591.288 674.546 592.275 675.84 592.28H828.24C829.58 592.276 830.681 591.219 830.74 589.88C831.114 580.083 830.338 570.276 828.43 560.66V560.66Z" fill="#D2DCD0"/><path id="Path" d="M662.66 542.12L664.05 538.27C665.1 534.45 663.68 528.27 661.22 526.02C660.984 525.799 660.793 525.534 660.66 525.24C653.53 524.39 646.21 523.68 639 525.24C632.862 526.524 627.051 529.046 621.92 532.65C616.38 536.57 613.06 540.71 610.81 546.46C608.56 552.21 608.64 557.76 611.04 562.11C614.43 568.28 619.52 571.7 624.92 571.7C626.341 571.697 627.752 571.468 629.1 571.02C633.24 569.67 638.58 565.8 641.35 562.85C642.249 561.896 643.097 560.894 643.89 559.85C646.109 561.536 648.804 562.477 651.59 562.54C652.408 562.549 653.224 562.438 654.01 562.21C657.92 561.03 661.43 556.84 662.09 552.61L664.24 545.61C664.51 544.729 664.271 543.771 663.62 543.12L662.66 542.12Z" fill="#fbd2ae"/><path id="Path_3" d="M647.19 561.42C646.239 561.427 645.368 560.893 644.943 560.043C644.518 559.193 644.613 558.175 645.19 557.42C647.5 554.23 648.48 551.26 648.12 548.57C647.932 547.478 647.651 546.404 647.28 545.36C646.942 544.376 646.658 543.375 646.43 542.36C646.19 541.463 646.468 540.506 647.15 539.877C647.833 539.247 648.808 539.048 649.683 539.359C650.558 539.67 651.188 540.44 651.32 541.36C651.517 542.205 651.757 543.039 652.04 543.86C652.494 545.187 652.828 546.553 653.04 547.94C653.57 551.94 652.28 556.13 649.2 560.39C648.735 561.037 647.987 561.421 647.19 561.42V561.42Z" fill="#1B1812"/><path id="Path_4" d="M672.44 548.27C672.125 548.273 671.813 548.215 671.52 548.1C670.241 547.59 669.611 546.144 670.11 544.86C672.11 539.86 672.21 530.61 669.47 525.68C669.036 524.899 669.051 523.946 669.51 523.18C669.969 522.414 670.802 521.951 671.695 521.965C672.588 521.98 673.406 522.469 673.84 523.25C677.51 529.84 677.18 540.55 674.77 546.68C674.395 547.639 673.47 548.271 672.44 548.27V548.27Z" fill="#A3B6B7"/><path id="Path_5" d="M700.68 561.6C700.361 561.598 700.046 561.537 699.75 561.42C699.134 561.171 698.642 560.688 698.383 560.076C698.124 559.465 698.12 558.775 698.37 558.16C702.608 547.687 708.334 537.879 715.37 529.04C716.229 527.957 717.802 527.776 718.885 528.635C719.967 529.494 720.149 531.067 719.29 532.15C712.55 540.603 707.064 549.982 703 560C702.629 560.96 701.709 561.595 700.68 561.6V561.6Z" fill="#A3B6B7"/><path id="Path" d="M802 447.46V447.46C800.203 446.127 798.069 445.324 795.84 445.14C794.9 445.02 793.95 444.95 792.99 444.91L793.08 444.47C793.53 442.18 794.46 437.41 791.3 434.34C789.48 432.58 787.07 432.17 784.94 431.92C773.8 430.574 762.539 430.574 751.4 431.92C748.28 432.32 744.74 433.09 742.21 435.8C739.45 438.8 738.45 442.8 737.57 446.37C737.44 446.91 737.31 447.44 737.17 447.95C735.478 454.347 734.143 460.834 733.17 467.38C732.61 471.23 732.44 475.57 735.44 478.59C737.9 481.06 741.29 481.4 744.54 481.53L773.15 482.7C773.8 482.7 774.5 482.75 775.24 482.75C777.772 482.88 780.287 482.261 782.47 480.97C786.39 478.38 787.37 473.38 787.95 470.39L788.11 469.61C790.481 469.849 792.876 469.541 795.11 468.71C799.503 467.033 802.927 463.495 804.46 459.05C805.8 455.32 805.51 450.32 802 447.46Z" fill="#fbd2ae"/><path id="Path_6" d="M756.61 471.83C754.387 471.834 752.197 471.284 750.24 470.23C749.065 469.552 748.646 468.061 749.294 466.87C749.943 465.678 751.423 465.222 752.63 465.84C754.771 467.006 757.316 467.171 759.589 466.29C761.863 465.41 763.633 463.574 764.43 461.27C764.727 460.402 765.478 459.768 766.383 459.62C767.288 459.471 768.201 459.833 768.76 460.56L769.38 461.35C769.787 461.874 769.97 462.538 769.887 463.196C769.805 463.854 769.464 464.453 768.94 464.86C768.669 465.069 768.36 465.222 768.03 465.31C766.505 467.875 764.169 469.86 761.39 470.95C759.865 471.536 758.244 471.834 756.61 471.83V471.83Z" fill="#1B1812"/><path id="Shape" fill-rule="evenodd" clip-rule="evenodd" d="M676.92 549.26C679.813 553.895 681.959 558.957 683.28 564.26C684.457 569.557 684.891 574.993 684.57 580.41V581.87C684.633 583.517 684.492 585.167 684.15 586.78C683.436 589.634 682.458 592.416 681.23 595.09C679.079 600.118 675.979 604.685 672.1 608.54C666.72 613.75 658.55 615.54 651.55 615.54C649.791 615.541 648.033 615.425 646.29 615.19C634 613.48 624.15 603.75 619.13 588.03C614.11 572.31 615.75 555.96 623.4 545.31C632.99 531.87 651.31 528.2 664.99 536.87C665.54 537.2 666.03 537.55 666.54 537.92C670.689 541.006 674.212 544.855 676.92 549.26ZM646.14 598.16C653.71 601.47 661.34 599.68 664.71 593.68C668.47 587.06 670.32 576.51 668.92 569.66C667.74 564.06 666.08 559.78 663.74 556.59C660.389 551.899 655.023 549.064 649.26 548.94C647.515 548.932 645.782 549.23 644.14 549.82C636.14 552.73 630.5 562.76 631.14 573.16C631.79 584.16 638.14 594.65 646.14 598.16Z" fill="#1B1812"/><path id="Path" d="M647 542.86C646.717 542.039 646.477 541.205 646.28 540.36C645.87 538.45 646.34 533.36 647.18 532.43C648.74 530.99 649.42 529.51 649.18 528C648.894 526.468 647.828 525.198 646.37 524.65C645.989 524.461 645.564 524.378 645.14 524.41C643.069 524.522 641.009 524.793 638.98 525.22C632.842 526.504 627.031 529.025 621.9 532.63C616.36 536.55 613.04 540.69 610.79 546.44C608.54 552.19 608.62 557.74 611.02 562.09C614.41 568.26 619.5 571.68 624.9 571.68C626.321 571.677 627.732 571.448 629.08 571C633.22 569.65 638.56 565.78 641.33 562.83C646.46 557.37 648.71 552.02 648.03 546.94C647.807 545.552 647.463 544.187 647 542.86V542.86Z" fill="#fbd2ae"/><path id="Path_7" d="M640.55 562.48C640.009 562.481 639.482 562.305 639.05 561.98C632.62 557.15 626.55 548.1 627.47 538.79C627.605 537.409 628.834 536.399 630.215 536.535C631.595 536.67 632.605 537.899 632.47 539.28C631.74 546.66 636.77 553.99 642.07 557.98C642.931 558.625 643.282 559.749 642.941 560.77C642.601 561.791 641.646 562.48 640.57 562.48H640.55Z" fill="#1B1812"/><path id="Path_8" d="M631.36 569.74C630.944 569.738 630.536 569.635 630.17 569.44C623.17 565.63 618.86 556.52 618.24 549.44C618.159 548.547 618.561 547.678 619.295 547.162C620.028 546.646 620.981 546.56 621.795 546.937C622.608 547.314 623.159 548.097 623.24 548.99C623.73 554.56 627.17 562.06 632.58 564.99C633.589 565.535 634.098 566.697 633.815 567.808C633.531 568.92 632.527 569.696 631.38 569.69L631.36 569.74Z" fill="#1B1812"/><path id="Path_9" d="M692.77 592.32C686.21 581.4 675.03 573.39 661.3 569.76C651.2 567.09 640.78 567.14 630.71 567.18C628.71 567.18 626.78 567.18 624.82 567.18C578.21 566.93 552.07 567.51 551.82 567.52C550.469 567.557 549.39 568.658 549.38 570.01L549.29 594.23C549.285 594.895 549.546 595.535 550.016 596.007C550.486 596.478 551.125 596.742 551.79 596.74V596.74L690.64 596.1C691.541 596.093 692.369 595.605 692.81 594.82C693.249 594.04 693.233 593.085 692.77 592.32V592.32Z" fill="#1B1812"/><path id="Path_10" d="M784.23 551.11C783.959 550.505 783.459 550.034 782.839 549.799C782.22 549.564 781.533 549.586 780.93 549.86C779.667 550.427 778.371 550.918 777.05 551.33C777.444 546.798 777.585 542.247 777.47 537.7C777.431 536.319 776.28 535.231 774.9 535.27C773.519 535.308 772.431 536.459 772.47 537.84C772.601 542.75 772.418 547.663 771.92 552.55C764.09 553.92 755.59 553.37 747.28 552.81C744.08 552.6 740.77 552.38 737.57 552.28C734.91 552.2 730.57 552.12 727.2 552.05H724.46H724.41C723.029 552.05 721.91 553.169 721.91 554.55C721.91 555.93 723.029 557.05 724.41 557.05H727.16C730.5 557.11 734.66 557.19 737.32 557.28C745.26 565.64 749.5 578.76 747.64 589.28C747.402 590.63 748.293 591.922 749.64 592.18C749.786 592.194 749.933 592.194 750.08 592.18C751.29 592.179 752.327 591.311 752.54 590.12C754.43 579.45 751.08 566.96 744.1 557.58L746.98 557.76C751.58 558.07 756.24 558.38 760.85 558.38C768.52 558.38 776.07 557.52 783.02 554.38C784.242 553.797 784.778 552.347 784.23 551.11Z" fill="#A3B6B7"/><path id="Path" d="M736.94 589.29C738.8 578.72 735.03 568.06 726.33 559.29L723.93 556.88L721.01 556.75C712.01 556.34 702.74 555.91 693.86 558.9C676.68 564.66 666.22 575.51 664.41 589.44C664.302 590.163 664.522 590.896 665.01 591.44C665.485 591.981 666.17 592.29 666.89 592.29H739.41C738.67 592.292 737.968 591.967 737.491 591.401C737.015 590.836 736.813 590.088 736.94 589.36V589.29Z" fill="#fbd2ae"/><path id="Path_11" d="M677.76 592.22V592.22C677.095 592.212 676.461 591.94 675.997 591.463C675.534 590.986 675.279 590.345 675.29 589.68C675.499 580.395 680.411 571.852 688.33 567C689.525 566.321 691.043 566.733 691.731 567.923C692.418 569.113 692.015 570.635 690.83 571.33C684.407 575.271 680.425 582.206 680.26 589.74C680.249 591.113 679.133 592.22 677.76 592.22Z" fill="#1B1812"/><path id="Path_12" d="M689.69 592.22C689.567 592.23 689.443 592.23 689.32 592.22C688.664 592.126 688.073 591.775 687.677 591.244C687.281 590.712 687.113 590.045 687.21 589.39C688.47 580.85 694.47 572.89 703.21 568.1C704.422 567.437 705.942 567.883 706.605 569.095C707.268 570.307 706.822 571.827 705.61 572.49C698.18 576.49 693.14 583.12 692.11 590.11C691.921 591.307 690.901 592.196 689.69 592.22Z" fill="#1B1812"/><path id="Path_13" d="M447.9 530.25C447.42 522.01 446.13 513.68 440.01 508.57C434.55 504 426.95 503.7 421.4 503.48C414.21 503.19 406.11 503.35 400.91 508.87C396.29 513.76 394.91 520.68 394.57 524.37C394.3 526.92 394.02 529.45 393.74 531.98C392.83 540.17 391.88 548.63 391.52 557.17C391.38 560.56 391.52 563.95 391.61 567.24C391.7 570.53 391.83 573.73 391.69 576.93C391.46 582.5 391.19 588.82 392.98 594.75C394.82 600.85 399.19 607.5 405.71 607.5C406.28 607.498 406.848 607.448 407.41 607.35C413 606.35 418.59 606.54 424.5 606.69C425.85 606.69 427.19 606.76 428.5 606.78C433.36 606.85 438.4 606.66 442.14 603.39C446.06 599.95 446.8 594.61 447.19 589.88C448.816 570.044 449.053 550.119 447.9 530.25V530.25Z" fill="#1B1812"/><path id="Path_14" d="M1178.55 747.88L1178.49 747.58C1176.49 739.81 1172.33 731.88 1157.32 731.88H1157.14C1152.28 731.88 1148.29 732.36 1144.83 737.96C1142.59 741.59 1141.62 745.76 1140.69 749.8C1140.38 751.13 1140.09 752.38 1139.76 753.6C1139.57 754.31 1139.24 755.21 1138.89 756.16C1137.67 759.47 1136.16 763.58 1137.63 766.93C1139.42 771.01 1144.2 771.49 1147.36 771.81L1148.36 771.92C1151.01 772.254 1153.68 772.435 1156.36 772.46C1161.76 772.46 1167 771.46 1171.43 768.24C1177.05 764.1 1179.72 756.49 1178.55 747.88Z" fill="#FA4A1B"/><path id="Path_15" d="M1047.68 778C1046.24 778 1012.3 777.55 1001.68 777.88C984.75 778.4 970.21 791.57 961.76 814.1C957 828.27 956.44 850.85 960.47 866.63C963.84 879.8 969.64 890.46 977.25 897.44C984 903.63 991.97 906.88 1000.38 906.88C1000.86 906.88 1001.38 906.88 1001.84 906.88C1024.55 905.88 1047.33 906.88 1047.56 906.88C1048.24 906.913 1048.91 906.663 1049.4 906.19C1049.89 905.716 1050.17 905.062 1050.17 904.38V780.54C1050.18 779.871 1049.93 779.224 1049.46 778.747C1048.99 778.269 1048.35 778 1047.68 778Z" fill="#1B1812"/><path id="Path_16" d="M1012.75 899.92C1004.52 899.92 994.6 899.29 994.1 899.26C992.719 899.171 991.672 897.98 991.76 896.6C991.848 895.219 993.039 894.171 994.42 894.26C994.57 894.26 1009 895.19 1017.26 894.83C1018.64 894.769 1019.81 895.839 1019.87 897.22C1019.93 898.6 1018.86 899.769 1017.48 899.83C1016 899.9 1014.43 899.92 1012.75 899.92Z" fill="#3F3931"/><path id="Path_17" d="M988.73 893.11C987.349 893.126 986.216 892.02 986.2 890.64C986.183 889.259 987.289 888.126 988.67 888.11L1010.08 887.56C1010.74 887.535 1011.39 887.779 1011.87 888.236C1012.36 888.693 1012.64 889.325 1012.65 889.99C1012.68 891.37 1011.59 892.516 1010.21 892.56L988.8 893.11H988.73Z" fill="#3F3931"/><path id="Path_18" d="M978.25 879.08C976.869 879.08 975.75 877.961 975.75 876.58C975.75 875.199 976.869 874.08 978.25 874.08L1001.7 873.63V873.63C1003.08 873.63 1004.2 874.749 1004.2 876.13C1004.2 877.511 1003.08 878.63 1001.7 878.63L978.26 879.08H978.25Z" fill="#3F3931"/><path id="Path_19" d="M998.19 858.27H973.9C972.519 858.27 971.4 857.15 971.4 855.77C971.4 854.389 972.519 853.27 973.9 853.27H998.19C999.571 853.27 1000.69 854.389 1000.69 855.77C1000.69 857.15 999.571 858.27 998.19 858.27Z" fill="#3F3931"/><path id="Path_20" d="M848.82 830.3C848.678 829.037 847.611 828.082 846.34 828.08H719.1C717.822 828.077 716.748 829.039 716.61 830.31C715.26 842.84 716.02 856.43 718.61 866.67C721.98 879.84 727.78 890.5 735.38 897.48C742.14 903.67 750.1 906.92 758.52 906.92C759 906.92 759.52 906.92 759.98 906.92C774.2 906.29 788.45 906.45 797.17 906.65C799.786 907.309 802.472 907.644 805.17 907.65C807.108 907.652 809.043 907.478 810.95 907.13C822.71 904.98 833.46 896.48 840.44 883.79C848.24 869.53 851.14 851.06 848.82 830.3Z" fill="#1B1812"/><path id="Path_21" d="M770.94 899.92C762.71 899.92 752.79 899.29 752.29 899.26C751.397 899.203 750.602 898.674 750.205 897.871C749.808 897.069 749.869 896.116 750.365 895.371C750.861 894.627 751.717 894.203 752.61 894.26C752.75 894.26 767.19 895.19 775.44 894.83C776.333 894.791 777.179 895.231 777.66 895.985C778.141 896.739 778.183 897.692 777.77 898.485C777.357 899.278 776.553 899.791 775.66 899.83C774.22 899.9 772.61 899.92 770.94 899.92Z" fill="#3F3931"/><path id="Path_22" d="M746.92 893.11C745.539 893.129 744.404 892.025 744.385 890.645C744.366 889.264 745.469 888.129 746.85 888.11L768.27 887.56C768.934 887.535 769.579 887.779 770.061 888.237C770.542 888.694 770.82 889.326 770.83 889.99C770.849 890.653 770.603 891.296 770.148 891.778C769.692 892.26 769.063 892.541 768.4 892.56L746.98 893.11H746.92Z" fill="#3F3931"/><path id="Path_23" d="M736.44 879.08C735.059 879.094 733.928 877.986 733.915 876.605C733.901 875.224 735.009 874.094 736.39 874.08L759.83 873.63V873.63C761.21 873.63 762.33 874.749 762.33 876.13C762.33 877.511 761.21 878.63 759.83 878.63L736.38 879.08H736.44Z" fill="#3F3931"/><path id="Path_24" d="M756.38 858.27H732.09C730.709 858.27 729.59 857.15 729.59 855.77C729.59 854.389 730.709 853.27 732.09 853.27H756.38C757.761 853.27 758.88 854.389 758.88 855.77C758.88 857.15 757.761 858.27 756.38 858.27V858.27Z" fill="#3F3931"/><path id="Path_25" d="M442.67 830.3C442.519 829.038 441.451 828.086 440.18 828.08H312.94C311.662 828.077 310.588 829.039 310.45 830.31C309.11 842.83 309.87 856.42 312.45 866.67C315.82 879.84 321.62 890.5 329.23 897.48C335.98 903.67 343.95 906.92 352.36 906.92C352.85 906.92 353.36 906.92 353.82 906.92C368.04 906.29 382.29 906.45 391.01 906.65C393.626 907.309 396.312 907.644 399.01 907.65C400.952 907.651 402.89 907.477 404.8 907.13C416.56 904.98 427.3 896.48 434.28 883.79C442.08 869.53 445 851.06 442.67 830.3Z" fill="#1B1812"/><path id="Path_26" d="M364.78 899.92C356.55 899.92 346.63 899.29 346.13 899.26C344.749 899.171 343.702 897.98 343.79 896.6C343.878 895.219 345.069 894.171 346.45 894.26C346.6 894.26 361.04 895.19 369.29 894.83C370.671 894.772 371.837 895.844 371.895 897.225C371.953 898.605 370.881 899.772 369.5 899.83C368.06 899.9 366.46 899.92 364.78 899.92Z" fill="#3F3931"/><path id="Path_27" d="M340.76 893.11C339.379 893.126 338.246 892.02 338.23 890.64C338.213 889.259 339.319 888.126 340.7 888.11L362.11 887.56C362.774 887.535 363.421 887.779 363.904 888.236C364.387 888.693 364.667 889.325 364.68 889.99C364.708 891.37 363.62 892.516 362.24 892.56L340.83 893.11H340.76Z" fill="#3F3931"/><path id="Path_28" d="M330.28 879.08C328.899 879.08 327.78 877.961 327.78 876.58C327.78 875.199 328.899 874.08 330.28 874.08L353.73 873.63H353.78C355.16 873.63 356.28 874.749 356.28 876.13C356.28 877.511 355.16 878.63 353.78 878.63L330.34 879.08H330.28Z" fill="#3F3931"/><path id="Path_29" d="M350.22 858.27H325.93C324.549 858.27 323.43 857.15 323.43 855.77C323.43 854.389 324.549 853.27 325.93 853.27H350.22C351.6 853.27 352.72 854.389 352.72 855.77C352.72 857.15 351.6 858.27 350.22 858.27V858.27Z" fill="#3F3931"/><path id="Path_30" d="M1144.19 910.72H227.3C225.919 910.72 224.8 909.6 224.8 908.22C224.8 906.839 225.919 905.72 227.3 905.72H1144.19C1145.57 905.72 1146.69 906.839 1146.69 908.22C1146.69 909.6 1145.57 910.72 1144.19 910.72Z" fill="#1B1812"/><path id="Path_31" d="M639.85 778C638.41 778 604.47 777.55 593.85 777.88C576.92 778.4 562.38 791.57 553.93 814.1C549.17 828.27 548.61 850.85 552.64 866.63C556.01 879.8 561.81 890.46 569.42 897.44C576.17 903.63 584.14 906.88 592.55 906.88C593.03 906.88 593.55 906.88 594.01 906.88C616.72 905.88 639.5 906.88 639.73 906.88C640.412 906.914 641.078 906.664 641.57 906.19C642.061 905.716 642.339 905.062 642.34 904.38V780.54C642.353 779.871 642.097 779.224 641.628 778.747C641.16 778.269 640.519 778 639.85 778V778Z" fill="#1B1812"/><path id="Path_32" d="M604.92 899.92C596.69 899.92 586.77 899.29 586.27 899.26C584.889 899.171 583.842 897.98 583.93 896.6C584.018 895.219 585.209 894.171 586.59 894.26C586.74 894.26 601.17 895.19 609.43 894.83C610.811 894.769 611.979 895.839 612.04 897.22C612.101 898.6 611.031 899.769 609.65 899.83C608.2 899.9 606.6 899.92 604.92 899.92Z" fill="#3F3931"/><path id="Path_33" d="M580.9 893.11C579.519 893.126 578.386 892.02 578.37 890.64C578.353 889.259 579.459 888.126 580.84 888.11L602.25 887.56C602.914 887.535 603.561 887.779 604.044 888.236C604.527 888.693 604.807 889.325 604.82 889.99C604.848 891.37 603.76 892.516 602.38 892.56L580.97 893.11H580.9Z" fill="#3F3931"/><path id="Path_34" d="M570.42 879.08C569.039 879.08 567.92 877.961 567.92 876.58C567.92 875.199 569.039 874.08 570.42 874.08L593.87 873.63V873.63C595.251 873.63 596.37 874.749 596.37 876.13C596.37 877.511 595.251 878.63 593.87 878.63L570.43 879.08H570.42Z" fill="#3F3931"/><path id="Path_35" d="M590.36 858.27H566.07C564.689 858.27 563.57 857.15 563.57 855.77C563.57 854.389 564.689 853.27 566.07 853.27H590.36C591.741 853.27 592.86 854.389 592.86 855.77C592.86 857.15 591.741 858.27 590.36 858.27Z" fill="#3F3931"/><path id="Shape_2" fill-rule="evenodd" clip-rule="evenodd" d="M1170.89 569.49C1177.3 568.77 1185.16 568.68 1189 574.68C1190.69 577.41 1191.03 580.766 1189.92 583.78C1188.46 587.947 1185.26 591.272 1181.15 592.89C1178.61 593.84 1175.92 594.367 1173.21 594.45C1174.49 595.953 1175.54 597.638 1176.33 599.45C1178.77 605.18 1178.9 611.5 1178.77 618.01C1177.49 683.29 1165.75 750.74 1143.88 818.49C1143.55 819.522 1142.58 820.22 1141.5 820.22L1068.76 810.22L1058.56 838.57C1058.21 839.563 1057.26 840.225 1056.21 840.22L982.07 850.22H695.7L635.55 840.22L564.66 850.22H270.51C269.16 850.22 268.053 849.149 268.01 847.8L267.28 824.09C264.03 824.33 260.66 824.55 257.28 824.7C253.44 824.87 249.95 824.95 246.77 824.95C221.1 824.95 215.8 819.76 214.17 815.64C214.09 815.55 214.09 815.46 214.09 815.38C203.478 776.418 194.949 736.919 188.54 697.05C183.98 668.6 188.53 647.53 201.98 634.44C212.16 624.53 227.06 619.39 246.46 619.04C247.36 603.84 250.38 588.72 257.96 575.39C269.45 555.17 291.63 539.68 318.8 532.89C325.187 531.318 331.671 530.172 338.21 529.46C355.52 520.11 378.01 517.9 410.09 528.6C399.39 527.41 390.36 527.61 382.63 528.95C386.27 529.183 389.887 529.443 393.48 529.73C407.301 530.901 421.024 533.033 434.55 536.11L485.94 361C492.45 338.79 500.56 311.15 520.69 293.6C535.31 280.86 554.71 274.89 573.5 270.34C643.247 253.404 715.545 249.656 786.67 259.29C799.36 260.99 812.61 263.37 822.75 271.78C837.89 284.33 840.69 305.85 842.13 325.02C848.41 408.79 851 493.86 850 578.14C969.59 581.19 1070.37 580.78 1170.89 569.49ZM819.24 560.48C820.18 547.946 820.917 535.396 821.45 522.83C822.503 497.696 822.733 472.55 822.14 447.39C821.547 422.23 820.123 397.13 817.87 372.09C816.87 360.936 815.703 349.806 814.37 338.7C813.66 332.73 812.7 326.32 808.55 321.96C803.52 316.72 795.46 316.03 788.18 315.72L749.44 314.08C744.01 313.85 738.15 313.78 733.65 316.78C728.44 320.31 726.58 326.99 725.1 333.11C714.865 375.464 704.935 418.607 695.005 461.749C685.075 504.892 675.145 548.034 664.91 590.39C664.93 590.295 675.763 590.3 689.493 590.307C709.25 590.315 735.007 590.327 743.19 590.05C746.01 589.974 748.803 589.988 751.596 590.001C755.071 590.018 758.548 590.035 762.08 589.88C773.08 589.43 816.15 588.88 816.15 588.88C816.15 588.88 818.81 566.16 819.24 560.48Z" fill="#38AFD4"/><path id="Shape_3" fill-rule="evenodd" clip-rule="evenodd" d="M384.35 629.34C391.04 631.4 400.25 635.66 406.13 644.34C413.42 655.13 413.06 668.67 412 682.76L404.08 786.45C403.981 787.752 402.896 788.759 401.59 788.76H264.08C264.886 793.1 265.72 797.433 266.58 801.76C266.836 803.123 265.942 804.438 264.58 804.7C264.417 804.715 264.253 804.715 264.09 804.7C262.902 804.7 261.877 803.864 261.64 802.7C251.805 753.04 245.234 702.789 241.97 652.27C241.445 641.275 241.502 630.259 242.14 619.27C242.188 618.377 242.709 617.577 243.507 617.172C244.304 616.768 245.257 616.819 246.007 617.307C246.756 617.796 247.188 618.647 247.14 619.54C246.92 623.58 246.74 628.44 246.65 633.44C250.104 629.789 254.805 627.572 259.82 627.23C285.61 624.61 318.9 624.15 358.76 625.86C367.12 626.22 375.99 626.79 384.35 629.34ZM399.27 783.72L407 682.34V682.38C408 669.2 408.38 656.6 402.01 647.14C398.07 641.32 391.29 636.7 382.92 634.14C375.12 631.76 366.58 631.22 358.58 630.88C318.96 629.22 285.91 629.63 260.35 632.22C253.52 632.91 249.17 636.39 246.67 643.14C246.72 646.24 246.82 649.25 247 652C249.843 696.18 255.232 740.16 263.14 783.72H399.27Z" fill="#1B1812"/><path id="Path_36" d="M388.36 681.53C359.82 683.13 331.79 683.66 303.6 683.17C303.36 678.25 303.143 673.33 302.95 668.41C327.41 668.31 356.95 667.63 388.95 666.81C389.613 666.794 390.243 666.515 390.7 666.035C391.158 665.555 391.406 664.913 391.39 664.25C391.38 663.584 391.101 662.95 390.617 662.493C390.133 662.035 389.485 661.793 388.82 661.82C356.77 662.63 327.21 663.31 302.76 663.41C302.573 658.463 302.403 653.523 302.25 648.59L317.4 648.52C336.62 648.44 356.49 648.35 375.04 647.97C375.933 647.95 376.748 647.455 377.177 646.672C377.607 645.889 377.586 644.936 377.122 644.172C376.659 643.408 375.823 642.95 374.93 642.97C356.43 643.35 336.58 643.44 317.38 643.52L302.09 643.59C302.09 642.59 302.02 641.59 301.99 640.59C301.965 639.697 301.465 638.885 300.679 638.46C299.893 638.035 298.94 638.061 298.179 638.53C297.418 638.998 296.965 639.837 296.99 640.73C296.99 641.73 297.06 642.64 297.08 643.6C282.15 643.69 268.34 643.86 256.81 644.25C255.429 644.275 254.33 645.414 254.355 646.795C254.38 648.175 255.519 649.275 256.9 649.25H257C268.49 648.85 282.31 648.69 297.25 648.6C297.41 653.526 297.583 658.46 297.77 663.4C282.62 663.4 269.64 663.16 259.52 662.54C258.139 662.457 256.953 663.509 256.87 664.89C256.787 666.27 257.839 667.457 259.22 667.54C269.3 668.16 282.15 668.41 297.12 668.41H297.97C298.17 673.29 298.387 678.173 298.62 683.06C286.13 682.79 273.62 682.34 260.96 681.66C260.067 681.611 259.216 682.043 258.727 682.793C258.239 683.542 258.188 684.495 258.592 685.293C258.997 686.09 259.797 686.611 260.69 686.66C273.5 687.35 286.2 687.81 298.86 688.08C299.133 693.6 299.43 699.126 299.75 704.66C287.23 704.61 274.75 704.33 262.28 703.66C260.899 703.585 259.719 704.644 259.645 706.025C259.57 707.405 260.629 708.585 262.01 708.66C274.65 709.34 287.34 709.66 300.01 709.66C300.303 714.526 300.61 719.396 300.93 724.27C288.61 724.27 276.39 724.02 264.2 723.6C263.307 723.569 262.465 724.018 261.992 724.776C261.519 725.534 261.487 726.487 261.907 727.276C262.328 728.065 263.137 728.569 264.03 728.6C276.39 729.02 288.77 729.24 301.26 729.26C301.6 734.26 301.96 739.16 302.33 744.11C290.73 744.22 279.09 744.23 267.26 744.11V744.11C265.879 744.11 264.76 745.229 264.76 746.61C264.76 747.99 265.879 749.11 267.26 749.11C272.96 749.16 278.61 749.19 284.26 749.19C290.453 749.19 296.62 749.16 302.76 749.1C303.133 753.86 303.52 758.616 303.92 763.37C292.92 763.3 282.01 763.13 270.65 762.87H270.59C269.209 762.87 268.09 763.989 268.09 765.37C268.09 766.75 269.209 767.87 270.59 767.87C282.13 768.13 293.25 768.3 304.39 768.37C304.86 773.77 305.33 779.15 305.84 784.53C305.963 785.808 307.035 786.785 308.32 786.79H308.56C309.221 786.731 309.832 786.411 310.257 785.901C310.681 785.39 310.884 784.731 310.82 784.07C310.33 778.86 309.87 773.64 309.41 768.41H317.33C337.59 768.41 358.5 768.1 382.72 767.47C383.613 767.446 384.426 766.948 384.852 766.163C385.279 765.378 385.254 764.425 384.787 763.663C384.321 762.901 383.483 762.446 382.59 762.47C355.08 763.18 331.85 763.47 308.99 763.39C308.59 758.61 308.19 753.82 307.82 749.03C332.76 748.72 357.65 747.9 383.99 746.54C385.371 746.468 386.432 745.29 386.36 743.91C386.288 742.529 385.111 741.468 383.73 741.54C357.35 742.91 332.43 743.72 307.45 744.03C307.08 739.1 306.72 734.18 306.38 729.24C331.98 729.18 358.05 728.3 385.19 726.56C386.083 726.504 386.879 725.977 387.277 725.175C387.676 724.374 387.617 723.421 387.122 722.675C386.628 721.93 385.773 721.504 384.88 721.56C357.72 723.3 331.65 724.18 306.05 724.23C305.73 719.37 305.423 714.506 305.13 709.64C325.79 709.64 346.39 708.95 366.58 708.31C373.333 708.09 380.087 707.883 386.84 707.69C388.222 707.646 389.309 706.492 389.27 705.11C389.254 704.447 388.974 703.817 388.491 703.362C388.008 702.908 387.363 702.665 386.7 702.69C379.93 702.88 373.18 703.1 366.42 703.31C346.18 703.95 325.53 704.6 304.84 704.64C304.527 699.153 304.233 693.66 303.96 688.16C310.5 688.27 317.03 688.35 323.55 688.35C345.19 688.35 366.82 687.73 388.76 686.51C390.141 686.432 391.197 685.25 391.12 683.87C391.043 682.489 389.861 681.432 388.48 681.51L388.36 681.53Z" fill="#1B1812"/><path id="Path_37" d="M564.66 850.22H695.66C688.78 838.57 687.66 823.66 687.01 809.79C686.043 789.923 685.076 770.05 684.11 750.17C683.54 738.4 682.65 725.76 675.22 716.62C667 706.41 653 702.4 641.94 700C629.84 697.42 618.94 697.75 610.01 707C604.48 712.76 602.14 722.93 600.78 731.8C596.78 757.96 592.753 784.123 588.7 810.29C586.54 824.29 583.24 840.1 571.1 847.42C569.085 848.631 566.92 849.572 564.66 850.22Z" fill="#1B1812"/><path id="Path_38" d="M1102.88 703.73C1094.83 693.73 1080.37 692.53 1067.51 692.56C1054.29 692.56 1039.94 693 1029.62 701.27C1018.68 710.05 1015.46 725.08 1012.95 738.89C1008.07 765.65 1003.19 792.416 998.32 819.19C996.78 827.61 995.1 836.38 989.9 843.19C987.724 845.967 985.073 848.337 982.07 850.19H1056.21C1057.26 850.195 1058.21 849.533 1058.56 848.54L1068.76 820.19H1101.89C1104.07 804.02 1105.74 787.75 1107.5 770.69C1108.44 761.63 1109.25 740.62 1108.99 731.49C1108.71 721.71 1108.5 710.72 1102.88 703.73Z" fill="#1B1812"/><path id="Shape_4" fill-rule="evenodd" clip-rule="evenodd" d="M664.32 592.85C664.514 592.892 664.711 592.916 664.91 592.92L665.26 592.82H689.2C709.61 592.83 735 592.84 743.26 592.56C746.2 592.5 749.18 592.5 752.06 592.5C755.35 592.52 758.75 592.54 762.18 592.39C773.03 591.95 815.75 591.39 816.18 591.39C817.437 591.378 818.488 590.43 818.63 589.18C818.645 589.038 818.719 588.403 818.833 587.411C819.469 581.922 821.374 565.473 821.73 560.68C822.67 548.18 823.42 535.48 823.95 522.95C825 497.88 825.23 472.48 824.64 447.37C824.05 422.26 822.61 396.9 820.36 371.9C819.36 360.79 818.18 349.53 816.86 338.45C816.04 331.61 814.92 325.07 810.36 320.28C804.8 314.45 796.4 313.62 788.28 313.28L749.55 311.63L749.5 311.628C744.464 311.418 737.602 311.132 732.25 314.76C726.43 318.7 724.33 325.72 722.67 332.58C712.44 374.94 702.33 418.83 692.57 461.24C682.81 503.65 672.71 547.51 662.48 589.85C662.172 591.185 662.991 592.519 664.32 592.85ZM735.05 318.88C737.88 316.96 741.49 316.51 745.49 316.51C746.73 316.51 748 316.55 749.33 316.62L788.07 318.26C795.47 318.58 802.46 319.23 806.74 323.72C810.24 327.41 811.18 333.04 811.89 339.04C813.21 350.08 814.38 361.28 815.38 372.35C817.64 397.21 819.04 422.52 819.64 447.49C820.24 472.46 819.95 497.74 818.95 522.74C818.43 535.22 817.68 547.85 816.75 560.31C816.41 564.83 814.6 580.6 813.92 586.42C804.97 586.54 771.45 587.01 761.97 587.42C758.67 587.53 755.33 587.53 752.1 587.53C749.17 587.51 746.1 587.49 743.1 587.59C734.93 587.85 708.51 587.85 689.22 587.85H668.1C678.08 546.47 687.92 503.71 697.44 462.34L698.256 458.797C707.771 417.491 717.584 374.892 727.53 333.73C729.05 327.58 730.71 321.82 735.05 318.88Z" fill="#1B1812"/><path id="Path_39" d="M751.9 549.25C751.42 541.01 750.13 532.68 744.01 527.57C738.55 523 730.95 522.7 725.4 522.48C717.58 522.17 708.91 522.57 703.91 527.87C699.73 532.3 699.06 538.7 698.57 543.37C697.39 554.59 696.97 564.58 696.52 575.17L695.69 594.93C695.46 600.5 695.19 606.82 696.98 612.75C698.56 618 702.98 624.07 710.57 625.35C713.589 625.826 716.644 626.047 719.7 626.01C721.7 626.01 723.61 625.95 725.53 625.89C727.84 625.82 730.22 625.74 732.53 625.78C737.39 625.86 742.43 625.66 746.17 622.39C750.09 618.95 750.83 613.61 751.22 608.88C752.837 589.043 753.064 569.118 751.9 549.25V549.25Z" fill="#1B1812"/><path id="Path_40" d="M838.5 832.41C823.92 832.41 810.29 832.3 795.58 831.72L793.58 831.65C780.86 831.18 759.58 830.4 750.53 821.36C740.64 811.48 736.37 797.52 734.53 787.54C731.77 772.54 728.81 757.46 725.95 742.82C724.617 736.153 723.317 729.486 722.05 722.82C718.66 705.29 714.45 683.47 700.11 669.58C689.52 659.32 674.72 654.16 661.69 650.13C611.603 634.626 559.471 626.734 507.04 626.72H506.91C490.19 626.72 473.13 628.14 461.41 638.36C451.73 646.79 445.48 660.7 444.26 676.5C441.78 708.44 447.7 738.72 453.95 770.78C455.65 779.44 457.4 788.4 458.95 797.3C459.15 798.199 458.841 799.135 458.144 799.737C457.446 800.338 456.475 800.508 455.615 800.179C454.755 799.849 454.146 799.073 454.03 798.16C452.49 789.3 450.74 780.37 449.03 771.74C442.98 740.74 436.73 708.74 439.25 676.11C440.58 659.01 447.45 643.88 458.11 634.59C471.11 623.29 489.2 621.72 506.89 621.72H507.03C559.96 621.733 612.587 629.698 663.15 645.35C676.73 649.56 692.15 654.96 703.56 665.99C719.04 680.99 723.42 703.65 726.94 721.87C728.227 728.536 729.527 735.203 730.84 741.87C733.7 756.52 736.66 771.67 739.43 786.64C740.84 794.24 744.6 808.39 754.05 817.84C761.7 825.49 782.55 826.25 793.76 826.66L795.76 826.74C815.02 827.49 832.45 827.45 852.64 827.4C857.64 827.4 862.77 827.4 868.09 827.4C886.38 827.4 908.32 827.4 920.09 827.4V827.4C923.972 827.388 927.386 824.831 928.49 821.11C935.39 797.48 942.42 772.79 949.21 748.92C956.78 722.3 964.61 694.77 972.32 668.58C975.32 658.4 979.04 645.73 988.72 637.85C996.99 631.11 1008 629.28 1017.72 628.11C1043.93 624.916 1070.4 624.35 1096.72 626.42C1109.5 627.42 1123.72 629.84 1131.96 640.1C1139.86 649.88 1139.7 663.1 1138.85 675.82C1135.44 726.88 1126.92 803.82 1126.85 804.6C1126.75 805.493 1126.18 806.266 1125.36 806.627C1124.54 806.989 1123.59 806.884 1122.86 806.352C1122.14 805.821 1121.75 804.943 1121.85 804.05C1121.93 803.28 1130.44 726.44 1133.85 675.49C1134.63 663.77 1134.85 651.62 1128.06 643.24C1120.97 634.46 1108.06 632.33 1096.31 631.41C1070.32 629.365 1044.19 629.921 1018.31 633.07C1009.31 634.16 999.15 635.83 991.91 641.72C984.08 648.11 980.59 658.3 977.16 669.99C969.46 696.16 961.63 723.68 954.06 750.29C947.26 774.17 940.24 798.86 933.33 822.51C931.595 828.359 926.23 832.378 920.13 832.4V832.4C908.37 832.4 886.42 832.4 868.13 832.4C862.82 832.4 857.69 832.4 852.69 832.4L838.5 832.41Z" fill="#1B1812"/><path id="Path_41" d="M1182.7 769.22C1177.09 762.97 1168.29 761.86 1160.49 761.3C1142.15 760 1125.49 760.87 1114.72 763.69C1101.51 767.16 1100.51 778.9 1099.12 795.15L1098.84 798.39C1097.73 811.09 1096.99 819.48 1100.61 823.65C1101.9 825.131 1103.75 826.002 1105.72 826.05C1112.86 826.43 1120.12 826.72 1127.27 826.9C1133.67 827.06 1140.14 827.14 1146.57 827.14H1151.77V827.14C1160.61 827.08 1169.77 826.53 1176.57 820.72C1183.37 814.91 1185.21 806.09 1186.73 796.72C1188.25 787.35 1189.36 776.64 1182.7 769.22Z" fill="#88D3E5"/><path id="Path_42" d="M516.36 801C514.09 794.14 506.88 786 497.49 783.69C492.567 782.554 487.541 781.928 482.49 781.82C460.34 780.99 434.01 780.74 415.41 781.2C400.48 781.56 380.33 781.35 358.99 781.12C344.74 780.96 329.99 780.81 315.77 780.81C291.38 780.81 256.9 780.6 234.08 780.47C223.77 780.41 216.23 780.37 213.8 780.37C211.8 780.37 209.8 780.31 207.8 780.25C200 780.03 195.8 780 193.8 781.85C188.8 786.4 190.35 796.32 192.04 801.47C196.39 814.68 201.31 829.66 212.36 840.24C228.31 855.51 251.63 858.89 272.36 860.24C280 860.72 374.27 861.4 388.25 861.43L472.06 861.63H472.91C485.91 861.63 498.2 860.85 507.27 852.92C513.07 847.87 516.65 839.98 518.27 828.82C519.1 822.55 518.71 808.14 516.36 801Z" fill="#88D3E5"/><path id="Path_43" d="M451.38 845.34C450.192 845.34 449.168 844.504 448.93 843.34C445.683 828.095 443.908 812.574 443.63 796.99C443.617 796.327 443.867 795.686 444.327 795.207C444.786 794.729 445.417 794.453 446.08 794.44C447.454 794.434 448.582 795.526 448.62 796.9C448.899 812.161 450.641 827.361 453.82 842.29C453.968 842.943 453.849 843.628 453.488 844.192C453.127 844.756 452.555 845.151 451.9 845.29C451.729 845.326 451.555 845.343 451.38 845.34V845.34Z" fill="#1B1812"/><path id="Path_44" d="M817.56 818.47C817.407 818.485 817.253 818.485 817.1 818.47C816.447 818.349 815.869 817.973 815.494 817.425C815.119 816.877 814.977 816.202 815.1 815.55C827.203 750.844 831.057 684.865 826.57 619.19C826.509 618.297 826.929 617.439 827.673 616.94C828.416 616.441 829.369 616.376 830.173 616.77C830.976 617.164 831.509 617.957 831.57 618.85C836.076 684.934 832.188 751.323 820 816.43C819.787 817.611 818.759 818.47 817.56 818.47Z" fill="#1B1812"/><path id="Shape_5" fill-rule="evenodd" clip-rule="evenodd" d="M781.75 644.87C784.08 646.33 787.17 646.46 792.08 646.46H815.24C816.58 646.461 817.681 645.4 817.73 644.06C817.97 639.18 817.96 633.59 817.73 627.45C817.682 626.133 816.617 625.081 815.3 625.05C814.26 625.02 789.81 624.38 778.62 625.17C777.338 625.261 776.333 626.306 776.29 627.59C776.29 627.596 776.289 627.605 776.289 627.614C776.273 628.45 776.027 641.223 781.75 644.87ZM784.44 640.62C782.69 639.51 781.52 634.57 781.31 630C790.598 629.59 806.078 629.847 812.412 629.953C812.563 629.955 812.709 629.958 812.85 629.96C812.93 634.09 812.95 637.92 812.85 641.43H793.78L793.734 641.43C789.097 641.44 785.745 641.447 784.44 640.62Z" fill="#1B1812"/><path id="Path_45" d="M552.49 838.5C551.242 838.51 550.177 837.598 549.996 836.363C549.815 835.129 550.572 833.949 551.77 833.6C556.59 832.15 560.96 828.03 563.77 822.31C566.47 816.76 567.57 810.31 568.54 804.71C572.79 779.9 576.44 754.71 579.4 729.71C579.563 728.329 580.814 727.342 582.195 727.505C583.575 727.668 584.563 728.919 584.4 730.3C581.4 755.37 577.76 780.7 573.5 805.59C572.5 811.59 571.31 818.35 568.29 824.59C564.89 831.59 559.41 836.59 553.29 838.48C553.026 838.527 552.756 838.534 552.49 838.5V838.5Z" fill="#1B1812"/><path id="Path_46" d="M584 709.2H583.77C583.109 709.139 582.5 708.818 582.076 708.308C581.652 707.798 581.449 707.14 581.51 706.48C582.31 697.6 589.44 686.77 603.51 682.61C614.22 679.44 625.37 680.79 635.88 682.45C637.244 682.665 638.175 683.946 637.96 685.31C637.744 686.674 636.464 687.605 635.1 687.39C625.16 685.82 614.64 684.53 604.93 687.39C596.66 689.83 587.35 696.99 586.45 706.92C586.333 708.193 585.278 709.175 584 709.2V709.2Z" fill="#1B1812"/><path id="Path_47" d="M458.2 663.71C460.28 658.77 463.45 653.85 468.43 651.86C473.41 649.87 479.26 651.3 483.52 654.53C487.78 657.76 490.62 662.53 492.63 667.47C497.118 678.62 497.842 690.931 494.69 702.53C492.97 708.79 489.69 715.66 483.45 718.53C477.82 721.08 470.95 719.03 466.22 715.46C463.71 713.544 461.66 711.09 460.22 708.28C459.56 707 459.22 705.52 458.45 704.28C457.622 702.822 457 701.258 456.6 699.63C455.37 695.554 454.619 691.349 454.36 687.1C453.901 679.974 454.894 672.83 457.28 666.1C457.55 665.31 457.86 664.51 458.2 663.71Z" fill="#F6F1BD"/><path id="Shape_6" fill-rule="evenodd" clip-rule="evenodd" d="M483.65 643.85C489.78 645.96 495.12 650.98 499.52 658.75C509.604 676.836 510.352 698.675 501.53 717.41C500.933 718.655 499.44 719.181 498.195 718.585C496.949 717.988 496.423 716.495 497.02 715.25C505.137 698.003 504.452 677.903 495.18 661.25C491.4 654.61 486.97 650.32 482.03 648.61C479.411 647.768 476.6 647.729 473.96 648.5C477.982 648.693 481.849 650.113 485.04 652.57C489.15 655.68 492.4 660.26 494.96 666.57C499.662 678.227 500.417 691.103 497.11 703.23C494.68 712.09 490.32 718.17 484.49 720.81C482.453 721.727 480.243 722.194 478.01 722.18C475.872 722.157 473.752 721.792 471.73 721.1C473.317 723.485 475.844 725.082 478.68 725.49C482.75 726.03 487.3 724.43 491.16 721.03C492.198 720.118 493.779 720.221 494.69 721.26C495.601 722.298 495.498 723.878 494.46 724.79C490.587 728.376 485.546 730.44 480.27 730.6C479.511 730.6 478.752 730.55 478 730.45C471.39 729.53 465.99 724.12 465.56 718.05C465.488 718 465.416 717.951 465.345 717.903C465.128 717.755 464.916 717.61 464.72 717.46C461.912 715.323 459.614 712.591 457.99 709.46C457.669 708.811 457.389 708.143 457.15 707.46C456.939 706.835 456.667 706.232 456.34 705.66C455.437 704.133 454.763 702.482 454.34 700.76L454.22 700.38C452.936 696.122 452.151 691.729 451.88 687.29C451.384 679.829 452.404 672.345 454.88 665.29C455.19 664.43 455.53 663.57 455.88 662.74C457.393 658.803 459.787 655.266 462.88 652.4C462.895 652.121 462.96 651.846 463.07 651.59C466.39 643.85 476.39 641.34 483.65 643.85ZM492.31 701.87C495.317 690.797 494.614 679.045 490.31 668.41C488.1 663 485.39 659.07 482.04 656.45C479.538 654.518 476.48 653.445 473.32 653.39C471.976 653.375 470.641 653.62 469.39 654.11C465.85 655.53 462.87 659.06 460.54 664.6C460.22 665.36 459.92 666.13 459.64 666.91C457.375 673.321 456.433 680.124 456.87 686.91C457.115 690.979 457.833 695.006 459.01 698.91L459.13 699.31C459.438 700.576 459.919 701.794 460.56 702.93C461.081 703.792 461.51 704.707 461.84 705.66C462.013 706.152 462.217 706.633 462.45 707.1C463.724 709.58 465.538 711.744 467.76 713.43C471.36 716.16 477.37 718.53 482.44 716.22C488.04 713.68 490.9 707.01 492.31 701.87Z" fill="#1B1812"/><path id="Path_48" d="M195.53 661.91C197.33 657.45 200.08 653.04 204.38 651.31C208.68 649.58 213.73 650.97 217.38 653.97C221.03 656.97 223.49 661.35 225.22 665.89C229.088 676.089 229.709 687.234 227 697.8C225.5 703.47 222.65 709.67 217.26 712.14C212.39 714.38 206.47 712.4 202.39 709.07C200.202 707.266 198.434 705.007 197.21 702.45C196.64 701.28 196.36 699.92 195.69 698.82C194.97 697.479 194.438 696.046 194.11 694.56C193.05 690.836 192.41 687.005 192.2 683.14C191.81 676.7 192.68 670.246 194.76 664.14C195 663.37 195.23 662.63 195.53 661.91Z" fill="#F6F1BD"/><path id="Shape_7" fill-rule="evenodd" clip-rule="evenodd" d="M217.72 644.08C223.08 646.13 227.72 650.81 231.53 658C240.201 674.623 240.805 694.296 233.17 711.42C232.763 712.306 231.875 712.873 230.9 712.87C230.537 712.871 230.179 712.793 229.85 712.64C229.248 712.363 228.782 711.859 228.553 711.238C228.324 710.617 228.352 709.93 228.63 709.33C235.644 693.627 235.099 675.58 227.15 660.33C223.97 654.25 220.17 650.35 215.97 648.74C214.255 648.118 212.411 647.942 210.61 648.23C213.705 648.72 216.611 650.036 219.02 652.04C222.62 655.04 225.41 659.23 227.62 665.04C231.662 675.733 232.284 687.418 229.4 698.48C227.23 706.72 223.5 712.09 218.29 714.48C216.559 715.273 214.675 715.68 212.77 715.67C211.1 715.654 209.441 715.388 207.85 714.88C209.135 716.651 211.056 717.855 213.21 718.24C216.58 718.79 220.38 717.43 223.64 714.49C224.29 713.827 225.254 713.579 226.143 713.846C227.033 714.113 227.701 714.851 227.878 715.762C228.056 716.674 227.714 717.608 226.99 718.19C223.676 721.377 219.296 723.219 214.7 723.36C213.93 723.36 213.161 723.3 212.4 723.18C206.59 722.22 201.85 717.16 201.46 711.58C201.24 711.42 201.01 711.25 200.8 711.08C198.328 709.046 196.332 706.497 194.95 703.61C194.673 703.02 194.43 702.416 194.22 701.8C194.041 701.241 193.813 700.699 193.54 700.18C192.752 698.764 192.163 697.246 191.79 695.67L191.69 695.31C190.585 691.395 189.915 687.371 189.69 683.31C189.296 676.532 190.209 669.742 192.38 663.31C192.65 662.53 192.94 661.76 193.25 660.99C194.53 657.48 196.58 654.302 199.25 651.69C199.273 651.443 199.33 651.201 199.42 650.97C202.38 643.8 211.27 641.62 217.72 644.08ZM224.53 697.19C227.148 687.132 226.578 676.51 222.9 666.79V666.77C221 661.81 218.7 658.26 215.82 655.93C213.732 654.156 211.099 653.15 208.36 653.08C207.317 653.07 206.282 653.26 205.31 653.64C202.35 654.87 199.84 657.94 197.84 662.87C197.57 663.55 197.31 664.24 197.07 664.94C195.101 670.753 194.276 676.893 194.64 683.02C194.847 686.702 195.458 690.35 196.46 693.9L196.56 694.26C196.825 695.404 197.235 696.51 197.78 697.55C198.233 698.351 198.604 699.195 198.89 700.07C199.037 700.519 199.211 700.96 199.41 701.39C200.479 703.616 202.018 705.584 203.92 707.16C206.94 709.63 211.96 711.82 216.16 709.89C220.87 707.73 223.31 701.79 224.53 697.19Z" fill="#1B1812"/><path id="Shape_8" fill-rule="evenodd" clip-rule="evenodd" d="M296.47 609.08C297.83 613.83 301.68 618.92 308.47 618.92C315.147 618.925 321.18 614.936 323.79 608.79C324.927 605.681 325.895 602.513 326.69 599.3L326.763 599.037C328.54 592.633 330.731 584.738 333.69 578.08C337.87 568.72 344.09 556.54 355.18 545.46C363.07 537.56 377.33 527.48 409.79 531.09C411.068 531.243 412.253 530.402 412.53 529.145C412.806 527.888 412.084 526.627 410.86 526.23C371.14 512.98 341.66 517.89 318.14 541.68C307.06 552.9 300.12 567.9 296.31 588.9C295.26 594.65 294.76 602.98 296.47 609.08ZM301.25 589.79C304.87 569.82 311.37 555.65 321.71 545.19C339.87 526.84 361.11 520.5 388.96 525.62C373.44 526.92 361.32 532.26 351.66 541.92C340 553.58 333.5 566.28 329.14 576.05C325.989 583.119 323.743 591.321 321.936 597.921L321.92 597.98C321.175 600.977 320.278 603.934 319.23 606.84C317.401 611.155 313.157 613.948 308.47 613.92C303.57 613.92 301.83 609.59 301.3 607.73C299.82 602.44 300.34 594.79 301.25 589.79Z" fill="#1B1812"/><path id="Path_49" d="M306.3 610.5C304.987 610.498 303.899 609.48 303.81 608.17C302.27 585.66 312.43 558.36 327.97 543.25C328.607 542.614 329.537 542.369 330.405 542.61C331.272 542.851 331.943 543.539 332.162 544.412C332.38 545.286 332.112 546.209 331.46 546.83C317.12 560.78 307.37 587 308.79 607.83C308.837 608.492 308.619 609.145 308.183 609.646C307.748 610.146 307.132 610.454 306.47 610.5H306.3Z" fill="#1B1812"/><path id="Path_50" d="M681.8 624.91C681.374 624.131 680.567 623.636 679.68 623.61L669.14 623.29C668.379 617.286 667.206 611.342 665.63 605.5C665.268 604.166 663.894 603.378 662.56 603.74C661.226 604.101 660.438 605.476 660.8 606.81C662.251 612.175 663.346 617.63 664.08 623.14L656.08 622.9C655.187 622.873 654.347 623.325 653.877 624.085C653.408 624.845 653.379 625.798 653.802 626.585C654.226 627.372 655.037 627.873 655.93 627.9L678.03 628.56C679.452 631.677 680.159 635.074 680.1 638.5C675.73 638.37 670.1 638.27 665.5 638.19V638.19C664.119 638.112 662.937 639.169 662.86 640.55C662.783 641.93 663.839 643.112 665.22 643.19C665.17 645.02 665.11 646.85 664.98 648.66C664.936 649.321 665.157 649.974 665.594 650.472C666.031 650.971 666.648 651.276 667.31 651.32H667.48C668.803 651.339 669.91 650.32 670 649C670.13 647.12 670.2 645.22 670.25 643.31C674.25 643.39 679.16 643.5 682.58 643.63H682.68C683.346 643.638 683.986 643.377 684.457 642.906C684.927 642.436 685.188 641.795 685.18 641.13C685.13 636.14 685.13 631 681.8 624.91Z" fill="#1B1812"/><path id="Path_51" d="M999.4 600C948.59 600 898.02 599.15 850.4 598.35H849.72C848.339 598.35 847.22 597.23 847.22 595.85C847.22 594.469 848.339 593.35 849.72 593.35V593.35H850.4C952.4 595.06 1068.02 597.01 1170.18 590.35C1171.07 590.291 1171.93 590.713 1172.43 591.457C1172.92 592.201 1172.99 593.154 1172.59 593.957C1172.2 594.76 1171.4 595.291 1170.51 595.35C1116 598.84 1057.53 600 999.4 600Z" fill="#1B1812"/><path id="Path_52" d="M530.06 568.85C569.12 582.43 591.66 588.95 644.44 590.19C666.32 502.14 698.96 358.19 705.87 327.6C706.683 324.063 704.811 320.459 701.45 319.09C695.008 316.506 688.196 314.96 681.27 314.51C673.163 314.056 665.043 313.746 656.91 313.58C631.888 313.04 606.854 313.797 581.91 315.85C573.05 316.58 543.31 319.18 526.86 320.61C519.703 321.247 513.46 325.731 510.57 332.31C508.47 337.09 506.02 343.12 503.84 349.7C482.84 413.1 466.74 477.95 451.75 542.99C478.44 550.27 504.73 560 530.06 568.85Z" fill="#87DEED"/><path id="Path_53" d="M705.57 328.92C631.05 400.866 560.426 476.741 494 556.22C506.21 560.4 518.27 564.73 530.11 568.85C542.93 573.31 553.97 577 564.89 580C567.24 577.57 569.58 575.12 571.99 572.76C578.89 565.98 585.82 559.24 592.71 552.45C606.523 538.817 620.287 525.093 634 511.28C647 498.173 659.93 484.997 672.79 471.75C687.52 408.57 701 349 705.57 328.92Z" fill="#B5F7FD"/><path id="Path_54" d="M475.14 545.89C485.667 535.41 496.14 524.87 506.56 514.27C516.98 503.67 527.333 493.003 537.62 482.27C547.953 471.51 558.227 460.686 568.44 449.8C578.653 438.913 588.8 427.98 598.88 417C608.927 406.046 618.927 395.046 628.88 384C638.833 372.953 648.73 361.786 658.57 350.5C668.357 339.32 678.083 328.086 687.75 316.8L688.91 315.45C686.403 314.975 683.868 314.665 681.32 314.52C673.213 314.066 665.093 313.756 656.96 313.59C640.82 313.243 624.683 313.44 608.55 314.18C563.003 369.593 516.037 423.8 467.65 476.8C462.15 498.8 456.93 520.9 451.83 543C458.61 544.85 465.37 546.87 472.1 549L475.14 545.89Z" fill="#B5F7FD"/><path id="Shape_9" fill-rule="evenodd" clip-rule="evenodd" d="M644.38 592.69H644.44C645.617 592.724 646.658 591.933 646.94 590.79C668.95 502.21 701.98 356.47 708.38 328.15C709.48 323.413 706.962 318.582 702.45 316.77C695.749 314.072 688.659 312.465 681.45 312.01C673.36 311.56 665.13 311.25 657 311.08C631.888 310.537 606.764 311.291 581.73 313.34C574.086 313.958 551.299 315.949 535.845 317.299C532.315 317.607 529.167 317.882 526.67 318.1C518.605 318.818 511.57 323.868 508.31 331.28C505.68 337.27 503.38 343.19 501.49 348.89C479.73 414.51 463.57 480.68 449.35 542.41C449.032 543.724 449.816 545.053 451.12 545.41C472.472 551.236 493.694 558.708 514.235 565.94L514.49 566.03C519.443 567.783 524.36 569.51 529.24 571.21C569.5 585.21 592.56 591.47 644.38 592.69ZM516.15 561.32C496.19 554.28 475.58 547.02 454.76 541.22C468.82 480.28 484.82 415.08 506.27 350.48C508.11 344.94 510.35 339.16 512.92 333.32C515.435 327.571 520.889 323.656 527.14 323.11C540.53 321.93 572.76 319.11 582.14 318.34C606.988 316.307 631.924 315.553 656.85 316.08C664.93 316.25 673.14 316.56 681.14 317C687.791 317.448 694.33 318.936 700.52 321.41C702.747 322.316 703.982 324.71 703.43 327.05C697.08 355.15 664.5 498.94 642.5 587.64C592.58 586.33 570.97 580.42 530.88 566.49C526 564.783 521.09 563.06 516.15 561.32Z" fill="#1B1812"/><path id="Path_55" d="M1090.64 828.32C1087.55 800.78 1072.16 780.61 1052.32 778.15C1033.84 775.85 1016.65 789.61 1007.45 814.15C1002.68 828.32 1002.13 850.9 1006.16 866.68C1012.58 891.81 1027.81 906.95 1045.91 906.95C1047.96 906.944 1050 906.756 1052.01 906.39C1075.07 902.16 1095.74 874 1090.64 828.32Z" fill="#1B1812"/><path id="Path_56" d="M1083.15 830.51C1080.6 807 1067.8 789.86 1051.3 787.86C1036.05 786.02 1021.91 797.73 1014.37 818.5C1010.46 830.5 1010 849.58 1013.3 862.92C1018.59 884.26 1031.21 897.16 1046.21 897.16C1047.8 897.154 1049.39 897.01 1050.96 896.73C1070.15 893.33 1087.37 869.49 1083.15 830.51Z" fill="#D2DCD0"/><path id="Path_57" d="M1065.64 836.76C1064.25 825.41 1057.53 817.28 1048.51 816.07C1041.78 815.17 1032.79 818.57 1027.74 830.92C1025.62 836.68 1025.37 845.84 1027.15 852.22C1029.58 860.93 1036 868.91 1045.26 868.91C1046.39 868.907 1047.52 868.793 1048.63 868.57C1058.77 866.55 1067.87 855 1065.64 836.76Z" fill="#A3B6B7"/><path id="Path_58" d="M1058 831.47C1057.02 828.524 1054.9 826.096 1052.11 824.73V824.73C1048.42 823.07 1043.94 824.23 1041.91 827.36C1040.41 829.67 1040.28 832.82 1041.55 836.22C1043.16 840.56 1046.92 844.6 1051.82 844.6C1052.69 844.596 1053.55 844.472 1054.39 844.23C1056.09 843.791 1057.51 842.643 1058.3 841.08C1060 837.73 1058.68 833.24 1058 831.47Z" fill="#F6F6F6"/><path id="Path_59" d="M398 781.42C386.6 781.42 373.54 781.28 359.82 781.14C345.17 780.98 330.01 780.83 315.82 780.83C302.33 780.83 284.21 780.77 260.4 780.64C259.019 780.64 257.9 779.52 257.9 778.14C257.9 776.759 259.019 775.64 260.4 775.64V775.64C284.19 775.77 302.31 775.83 315.79 775.83C329.99 775.83 345.16 775.98 359.79 776.14C375.79 776.3 390.92 776.46 403.52 776.4V776.4C404.901 776.4 406.02 777.519 406.02 778.9C406.02 780.28 404.901 781.4 403.52 781.4L398 781.42Z" fill="#1B1812"/><path id="Path_60" d="M683 828.32C679.92 800.78 664.52 780.61 644.69 778.15C626.19 775.84 609.01 789.61 599.81 814.15C595.05 828.32 594.49 850.9 598.52 866.68C604.94 891.81 620.17 906.95 638.27 906.95C640.316 906.944 642.357 906.757 644.37 906.39C667.44 902.16 688.12 874 683 828.32Z" fill="#1B1812"/><path id="Path_61" d="M675.52 830.51C672.97 807 660.18 789.86 643.67 787.86C628.42 786.02 614.28 797.73 606.74 818.5C602.83 830.5 602.38 849.58 605.68 862.92C610.96 884.26 623.58 897.16 638.58 897.16C640.176 897.153 641.769 897.009 643.34 896.73C662.53 893.33 679.75 869.49 675.52 830.51Z" fill="#D2DCD0"/><path id="Path_62" d="M658 836.76C656.61 825.41 649.88 817.28 640.86 816.07C634.12 815.17 625.15 818.57 620.09 830.92C617.98 836.68 617.73 845.84 619.51 852.22C621.94 860.93 628.35 868.91 637.61 868.91C638.745 868.907 639.877 868.793 640.99 868.57C651.14 866.55 660.24 855 658 836.76Z" fill="#A3B6B7"/><path id="Path_63" d="M650.39 831.47C649.409 828.525 647.287 826.096 644.5 824.73V824.73C640.909 823.048 636.63 824.151 634.3 827.36C632.81 829.67 632.68 832.82 633.94 836.22C635.55 840.56 639.32 844.6 644.21 844.6C645.083 844.596 645.951 844.471 646.79 844.23C648.481 843.787 649.901 842.64 650.69 841.08C652.4 837.73 651.05 833.24 650.39 831.47Z" fill="#F6F6F6"/></g></g></g></g><g id="Hair" transform="translate(656 336) scale(1 1)"><g id="Hair/Mohawk"><g id="mohawk"><g id="hair"><path id="Path" d="M112.24 144.94C112.224 142.357 110.786 139.993 108.5 138.79C105.917 137.545 102.865 137.778 100.5 139.4C98.2508 140.842 96.9813 143.407 97.2001 146.07C97.1904 146.173 97.1904 146.277 97.2001 146.38C97.8701 149.77 101.2 152.16 103.64 153.67C104.463 154.195 105.517 154.195 106.34 153.67C109.57 151.51 112.45 149 112.24 144.94Z" fill="#9390ff"/><path id="Path" d="M97.9402 104.92C98.6095 105.402 99.4734 105.522 100.249 105.243C101.025 104.963 101.613 104.318 101.82 103.52C102.91 99.31 107.38 96.74 111.34 96.05C112.992 95.7782 114.669 95.6943 116.34 95.8C116.587 95.7848 116.834 95.7848 117.08 95.8C120.967 95.9467 124.914 96.2533 128.92 96.72C131.05 96.97 133.46 97.38 135.28 99.14C138.45 102.21 137.51 106.98 137.06 109.27L136.97 109.71C137.97 109.71 138.88 109.82 139.82 109.94C141.342 110.108 142.827 110.516 144.22 111.15L144.62 110.81C145.288 110.25 145.614 109.381 145.48 108.52C145.338 107.664 144.768 106.94 143.97 106.6L138.68 104.38C141 102.38 143.02 100.68 143.51 100.29C143.906 100.051 144.225 99.7044 144.43 99.29C144.709 98.688 144.737 97.9999 144.508 97.3772C144.279 96.7545 143.812 96.2483 143.21 95.97H143.11C141.632 95.4249 140.127 94.9576 138.6 94.57L137.24 94.18C138.18 92.27 139.24 90.08 139.41 89.71C139.863 88.9001 139.83 87.9059 139.325 87.1277C138.819 86.3495 137.924 85.9153 137 86L129.49 86.56L129.35 79.35C129.317 78.4193 128.769 77.5841 127.929 77.1828C127.089 76.7815 126.095 76.8806 125.35 77.44C125.3 77.44 121.35 80.57 118.19 82.62C116.72 79.98 114.65 76.29 114.65 76.29C114.211 75.508 113.387 75.02 112.49 75.01V75.01C111.603 75.0097 110.782 75.4773 110.33 76.24C110.33 76.29 107.9 80.37 105.96 83.4L100 78.59C99.2081 77.9443 98.1027 77.8457 97.2088 78.3411C96.3149 78.8365 95.8125 79.826 95.9402 80.84L96.9402 88.26L87.3602 87.72C86.3812 87.6527 85.4565 88.1761 85.0102 89.05C84.553 89.919 84.6469 90.9752 85.2502 91.75C85.4702 92.12 92.3302 100.91 97.9402 104.92Z" fill="#9390ff"/></g></g></g></g><g id="Facial Hair" transform="translate(658 332) scale(220 200)"><g id="Facial Hair/None" stroke="none" stroke-width="1" fill="none" fill-rule="evenodd" fill-opacity="0"/></g><g id="Accessories" transform="translate(652 338) scale(1 1)"><g id="Accessories/Blue Cap"><g id="snapback"><g id="hair"><path id="Path" d="M145.42 92.8399C144.68 86.9099 141.68 81.8399 137.42 79.3099C134.08 77.3099 130.33 76.9099 126.42 76.6299C120.85 76.2199 115.19 75.9699 109.59 75.8899C103.59 75.7899 97.2399 75.9699 91.6799 78.9399C86.1199 81.9099 83.0899 87.9399 83.3499 95.3399C83.3984 96.6854 84.5036 97.7508 85.8499 97.7499H85.9999C87.1503 97.7039 88.1206 96.8782 88.3499 95.7499L139.7 106.75V106.83C139.58 107.48 139.724 108.15 140.099 108.694C140.474 109.238 141.05 109.611 141.7 109.73C141.85 109.745 142 109.745 142.15 109.73C143.357 109.73 144.393 108.868 144.61 107.68C145.605 102.8 145.878 97.7996 145.42 92.8399Z" fill="#B5F7FD"/><path id="Path_2" d="M142.1 104.82C138.461 104.914 134.826 104.524 131.29 103.66C128.09 102.82 124.7 101.66 121.42 100.44C118.92 99.55 116.33 98.62 113.8 97.86L113.34 97.72C107.769 95.862 102.052 94.4738 96.2498 93.57C92.4688 93.1831 88.6707 92.9862 84.8698 92.98C79.403 92.9447 73.9577 93.6683 68.6898 95.13C67.4798 95.43 63.3198 96.6 60.6898 99.13C59.6945 100.086 59.0979 101.382 59.0198 102.76C58.8336 104.859 59.5626 106.937 61.0198 108.46C62.6019 110.039 64.79 110.856 67.0198 110.7C68.7045 110.572 70.3635 110.212 71.9498 109.63C72.4198 109.48 72.8798 109.33 73.3498 109.2C80.5998 107.15 88.5798 109.04 96.2898 110.87L98.6598 111.43C103.259 112.6 107.976 113.244 112.72 113.35C113.54 113.35 114.36 113.35 115.18 113.27H115.79V113.27C117.21 113.15 119.03 112.81 121.13 112.41C122.82 112.1 124.73 111.74 126.82 111.41C131.949 110.616 137.116 110.086 142.3 109.82C143.681 109.787 144.773 108.641 144.74 107.26C144.707 105.879 143.561 104.787 142.18 104.82H142.1Z" fill="#0085FA"/><path id="Path_3" d="M124.92 106.59H124.8C123.423 106.525 122.358 105.357 122.42 103.98L123.04 90.66C123.225 88.7935 123.134 86.9099 122.77 85.07C122.5 83.7202 121.637 82.5635 120.42 81.92C119.141 81.3981 118.528 79.9385 119.05 78.66C119.572 77.3815 121.031 76.7681 122.31 77.29C124.985 78.5198 126.939 80.9206 127.6 83.79C128.117 86.1191 128.265 88.5149 128.04 90.89L127.42 104.21C127.356 105.544 126.255 106.592 124.92 106.59V106.59Z" fill="#005EB1"/><path id="Path_4" d="M105.69 112.82C105.453 112.816 105.218 112.783 104.99 112.72C101.21 111.62 96.74 108.62 93.48 106.43L93.09 106.17C90.001 104.006 86.4568 102.579 82.73 102C75.19 100.82 69.02 101.56 62.73 104.4C61.4749 104.946 60.0145 104.38 59.4533 103.132C58.8922 101.884 59.4389 100.417 60.68 99.84C67.83 96.62 75.1 95.74 83.54 97.06C87.9851 97.7704 92.2112 99.48 95.9 102.06L96.29 102.32C99.11 104.21 103.38 107.07 106.41 107.96C107.603 108.308 108.359 109.479 108.186 110.709C108.012 111.939 106.962 112.855 105.72 112.86L105.69 112.82Z" fill="#005EB1"/></g></g></g></g></g></svg>