<svg viewBox="156 324.3388429752065 1170.0000000000002 602.0661157024795" fill="none" xmlns="http://www.w3.org/2000/svg" xmlns:xlink="http://www.w3.org/1999/xlink" overflow="visible" width="1170.0000000000002px" height="602.0661157024795px"><g id="Master/Vehicles/Large Vehicle"><g id="Large Vehicle" transform="scale(1 1)"><g id="Large Vehicle/Airplane"><g id="airplane"><g id="cars"><path id="Path" d="M828.43 560.66C826.853 553.793 824.927 547.011 822.66 540.34C820.304 533.169 817.154 526.283 813.27 519.81L813.08 519.47C808.147 510.721 800.669 503.679 791.64 499.28C784.01 495.7 775.76 494.8 769.42 494.41C760.755 493.815 752.054 493.989 743.42 494.93C735.21 495.87 727.409 499.022 720.85 504.05C718.59 505.72 716.43 507.57 714.33 509.36C709.72 513.3 705.33 517.03 700.11 519.02C691.9 522.14 683.18 522.02 673.94 521.86H670.58C668.06 521.86 662.99 521.72 662.99 521.72C661.949 521.694 661.002 522.321 660.62 523.29C660.232 524.252 660.479 525.355 661.24 526.06C663.7 528.34 665.12 534.49 664.07 538.31L662.68 542.16L663.68 543.16C664.332 543.811 664.57 544.769 664.3 545.65L662.15 552.65C661.393 556.715 658.719 560.164 654.97 561.91L671.22 565.78L673.35 590C673.469 591.288 674.547 592.275 675.84 592.28H828.24C829.581 592.276 830.681 591.219 830.74 589.88C831.114 580.083 830.339 570.276 828.43 560.66V560.66Z" fill="#E03B36"/><path id="Path" d="M662.66 542.12L664.05 538.27C665.1 534.45 663.68 528.27 661.22 526.02C660.984 525.799 660.794 525.534 660.66 525.24C653.53 524.39 646.21 523.68 639 525.24C632.863 526.524 627.051 529.046 621.92 532.65C616.38 536.57 613.06 540.71 610.81 546.46C608.56 552.21 608.64 557.76 611.04 562.11C614.43 568.28 619.52 571.7 624.92 571.7C626.341 571.697 627.752 571.468 629.1 571.02C633.24 569.67 638.58 565.8 641.35 562.85C642.25 561.896 643.098 560.894 643.89 559.85C646.109 561.536 648.804 562.477 651.59 562.54C652.409 562.549 653.224 562.438 654.01 562.21C657.92 561.03 661.43 556.84 662.09 552.61L664.24 545.61C664.51 544.729 664.272 543.771 663.62 543.12L662.66 542.12Z" fill="#fcb7a0"/><path id="Path_2" d="M647.18 561.42C646.23 561.428 645.358 560.894 644.933 560.044C644.508 559.194 644.604 558.176 645.18 557.42C647.49 554.23 648.47 551.26 648.11 548.57C647.923 547.478 647.642 546.404 647.27 545.36C646.931 544.377 646.647 543.375 646.42 542.36C646.232 541.05 647.098 539.821 648.394 539.556C649.69 539.291 650.969 540.082 651.31 541.36C651.507 542.205 651.747 543.04 652.03 543.86C652.483 545.188 652.817 546.553 653.03 547.94C653.56 551.94 652.27 556.13 649.19 560.39C648.724 561.036 647.977 561.419 647.18 561.42V561.42Z" fill="#1B1812"/><path id="Path_3" d="M672.44 548.27C672.126 548.273 671.813 548.215 671.52 548.1C670.241 547.59 669.612 546.144 670.11 544.86C672.11 539.86 672.21 530.61 669.47 525.68C669.036 524.899 669.052 523.946 669.511 523.18C669.97 522.414 670.803 521.951 671.696 521.965C672.589 521.98 673.406 522.469 673.84 523.25C677.51 529.84 677.18 540.55 674.77 546.68C674.395 547.639 673.47 548.271 672.44 548.27V548.27Z" fill="#BA2222"/><path id="Path_4" d="M700.68 561.6C700.362 561.598 700.046 561.537 699.75 561.42C699.134 561.171 698.643 560.688 698.384 560.076C698.125 559.465 698.12 558.775 698.37 558.16C702.609 547.687 708.334 537.88 715.37 529.04C716.229 527.958 717.803 527.776 718.885 528.635C719.968 529.494 720.149 531.068 719.29 532.15C712.551 540.603 707.065 549.982 703 560C702.63 560.96 701.709 561.595 700.68 561.6V561.6Z" fill="#BA2222"/><path id="Path" d="M802 447.46V447.46C800.203 446.128 798.07 445.324 795.84 445.14C794.9 445.02 793.95 444.95 792.99 444.91L793.08 444.47C793.53 442.18 794.46 437.41 791.3 434.34C789.48 432.58 787.07 432.17 784.94 431.92C773.801 430.575 762.54 430.575 751.4 431.92C748.28 432.32 744.74 433.09 742.21 435.8C739.45 438.8 738.45 442.8 737.57 446.37C737.44 446.91 737.31 447.44 737.17 447.95C735.478 454.348 734.143 460.834 733.17 467.38C732.61 471.23 732.44 475.57 735.44 478.59C737.9 481.06 741.29 481.4 744.54 481.53L773.15 482.7C773.8 482.7 774.5 482.75 775.24 482.75C777.773 482.881 780.288 482.262 782.47 480.97C786.39 478.38 787.37 473.38 787.95 470.39L788.11 469.61C790.482 469.849 792.876 469.541 795.11 468.71C799.504 467.033 802.928 463.495 804.46 459.05C805.8 455.32 805.51 450.32 802 447.46Z" fill="#fcb7a0"/><path id="Path_5" d="M756.61 471.83C754.387 471.834 752.198 471.284 750.24 470.23C749.066 469.552 748.646 468.061 749.295 466.87C749.943 465.678 751.423 465.222 752.63 465.84C754.771 467.006 757.317 467.171 759.59 466.29C761.863 465.41 763.634 463.574 764.43 461.27C764.728 460.402 765.478 459.768 766.383 459.62C767.288 459.471 768.202 459.833 768.76 460.56L769.38 461.35C769.788 461.874 769.97 462.538 769.888 463.196C769.805 463.855 769.465 464.453 768.94 464.86C768.67 465.069 768.361 465.222 768.03 465.31C766.505 467.876 764.169 469.86 761.39 470.95C759.865 471.536 758.244 471.834 756.61 471.83V471.83Z" fill="#1B1812"/><path id="Shape" fill-rule="evenodd" clip-rule="evenodd" d="M676.92 549.26C679.813 553.896 681.959 558.958 683.28 564.26C684.457 569.557 684.891 574.993 684.57 580.41V581.87C684.633 583.518 684.492 585.167 684.15 586.78C683.436 589.634 682.458 592.416 681.23 595.09C679.079 600.118 675.979 604.685 672.1 608.54C666.72 613.75 658.55 615.54 651.55 615.54C649.791 615.542 648.033 615.425 646.29 615.19C634 613.48 624.15 603.75 619.13 588.03C614.11 572.31 615.75 555.96 623.4 545.31C632.99 531.87 651.31 528.2 664.99 536.87C665.54 537.2 666.03 537.55 666.54 537.92C670.689 541.006 674.212 544.855 676.92 549.26ZM646.14 598.16C653.71 601.47 661.34 599.68 664.71 593.68C668.47 587.06 670.32 576.51 668.92 569.66C667.74 564.06 666.08 559.78 663.74 556.59C660.389 551.9 655.023 549.064 649.26 548.94C647.515 548.932 645.782 549.23 644.14 549.82C636.14 552.73 630.5 562.76 631.14 573.16C631.79 584.16 638.14 594.65 646.14 598.16Z" fill="#1B1812"/><path id="Path" d="M647 542.86C646.718 542.04 646.477 541.205 646.28 540.36C645.87 538.45 646.34 533.36 647.18 532.43C648.74 530.99 649.42 529.51 649.18 528C648.895 526.468 647.829 525.198 646.37 524.65C645.989 524.462 645.564 524.379 645.14 524.41C643.069 524.522 641.01 524.793 638.98 525.22C632.843 526.504 627.031 529.026 621.9 532.63C616.36 536.55 613.04 540.69 610.79 546.44C608.54 552.19 608.62 557.74 611.02 562.09C614.41 568.26 619.5 571.68 624.9 571.68C626.321 571.677 627.732 571.448 629.08 571C633.22 569.65 638.56 565.78 641.33 562.83C646.46 557.37 648.71 552.02 648.03 546.94C647.808 545.552 647.463 544.187 647 542.86V542.86Z" fill="#fcb7a0"/><path id="Path_6" d="M640.55 562.48C640.009 562.481 639.482 562.306 639.05 561.98C632.62 557.15 626.55 548.1 627.47 538.79C627.606 537.409 628.835 536.4 630.215 536.535C631.596 536.67 632.606 537.899 632.47 539.28C631.74 546.66 636.77 553.99 642.07 557.98C642.931 558.626 643.282 559.75 642.942 560.771C642.602 561.791 641.646 562.48 640.57 562.48H640.55Z" fill="#1B1812"/><path id="Path_7" d="M631.36 569.74C630.945 569.738 630.537 569.635 630.17 569.44C623.17 565.63 618.86 556.52 618.24 549.44C618.16 548.547 618.562 547.679 619.295 547.162C620.029 546.646 620.982 546.56 621.795 546.937C622.609 547.314 623.16 548.097 623.24 548.99C623.73 554.56 627.17 562.06 632.58 564.99C633.59 565.535 634.099 566.697 633.815 567.808C633.531 568.92 632.527 569.696 631.38 569.69L631.36 569.74Z" fill="#1B1812"/><path id="Path_8" d="M692.77 592.32C686.21 581.4 675.03 573.39 661.3 569.76C651.2 567.09 640.78 567.14 630.71 567.18C628.71 567.18 626.78 567.18 624.82 567.18C578.21 566.93 552.07 567.51 551.82 567.52C550.469 567.558 549.39 568.658 549.38 570.01L549.29 594.23C549.285 594.896 549.546 595.536 550.016 596.007C550.486 596.479 551.125 596.743 551.79 596.74V596.74L690.64 596.1C691.541 596.094 692.369 595.605 692.81 594.82C693.249 594.04 693.233 593.085 692.77 592.32V592.32Z" fill="#1B1812"/><path id="Path_9" d="M784.23 551.11C783.959 550.506 783.459 550.034 782.84 549.799C782.221 549.565 781.533 549.587 780.93 549.86C779.668 550.428 778.372 550.919 777.05 551.33C777.445 546.798 777.585 542.248 777.47 537.7C777.431 536.319 776.281 535.231 774.9 535.27C773.519 535.309 772.431 536.459 772.47 537.84C772.602 542.75 772.418 547.663 771.92 552.55C764.09 553.92 755.59 553.37 747.28 552.81C744.08 552.6 740.77 552.38 737.57 552.28C734.91 552.2 730.57 552.12 727.2 552.05H724.46H724.41C723.029 552.05 721.91 553.169 721.91 554.55C721.91 555.931 723.029 557.05 724.41 557.05H727.16C730.5 557.11 734.66 557.19 737.32 557.28C745.26 565.64 749.5 578.76 747.64 589.28C747.403 590.631 748.293 591.922 749.64 592.18C749.786 592.194 749.934 592.194 750.08 592.18C751.291 592.18 752.327 591.312 752.54 590.12C754.43 579.45 751.08 566.96 744.1 557.58L746.98 557.76C751.58 558.07 756.24 558.38 760.85 558.38C768.52 558.38 776.07 557.52 783.02 554.38C784.242 553.797 784.779 552.348 784.23 551.11Z" fill="#BA2222"/><path id="Path" d="M736.94 589.29C738.8 578.72 735.03 568.06 726.33 559.29L723.93 556.88L721.01 556.75C712.01 556.34 702.74 555.91 693.86 558.9C676.68 564.66 666.22 575.51 664.41 589.44C664.302 590.163 664.522 590.896 665.01 591.44C665.485 591.981 666.171 592.29 666.89 592.29H739.41C738.671 592.292 737.968 591.967 737.492 591.401C737.015 590.836 736.813 590.088 736.94 589.36V589.29Z" fill="#fcb7a0"/><path id="Path_10" d="M677.76 592.22V592.22C677.096 592.212 676.461 591.94 675.998 591.463C675.534 590.986 675.28 590.345 675.29 589.68C675.499 580.395 680.411 571.852 688.33 567C689.525 566.321 691.044 566.733 691.731 567.923C692.418 569.113 692.016 570.635 690.83 571.33C684.407 575.271 680.426 582.206 680.26 589.74C680.249 591.113 679.133 592.22 677.76 592.22Z" fill="#1B1812"/><path id="Path_11" d="M689.69 592.22C689.567 592.23 689.443 592.23 689.32 592.22C688.664 592.126 688.073 591.775 687.677 591.243C687.281 590.712 687.113 590.045 687.21 589.39C688.47 580.85 694.47 572.89 703.21 568.1C704.422 567.437 705.942 567.883 706.605 569.095C707.268 570.307 706.822 571.827 705.61 572.49C698.18 576.49 693.14 583.12 692.11 590.11C691.921 591.307 690.901 592.196 689.69 592.22Z" fill="#1B1812"/><path id="Path_12" d="M1156.37 874.12C1154 874.118 1151.89 872.594 1151.15 870.34L1149.93 866.62C1142.93 845.43 1136.41 825.42 1130.71 802.94C1130.2 801.026 1130.75 798.983 1132.17 797.594C1133.58 796.204 1135.63 795.683 1137.54 796.229C1139.44 796.774 1140.91 798.303 1141.37 800.23C1146.98 822.35 1153.19 841.23 1160.37 863.23L1161.59 866.95C1162.54 869.836 1160.97 872.943 1158.08 873.89C1157.53 874.058 1156.95 874.135 1156.37 874.12Z" fill="#E03B36"/><path id="Path_13" d="M464.29 860.8C457.93 844.06 445.46 832.8 432.42 831.08C428.119 830.569 423.772 830.569 419.47 831.08C409.7 831.81 403.12 839.29 401.66 852.47C400.39 872.16 415.24 903.31 435.44 906.53C438.32 906.99 449.44 906.83 451.69 906.66C467.44 905.43 473.91 886.75 464.29 860.8Z" fill="#1B1812"/><path id="Shape_2" fill-rule="evenodd" clip-rule="evenodd" d="M424.17 880.88C429.24 890.79 438.14 899.79 447.44 899.79C449.451 899.775 451.437 899.339 453.27 898.51C465 893.34 464.79 876.33 459.36 861.76C453.79 846.82 442.22 836.95 431.79 838.29C428.23 838.79 419.78 841.46 418.3 856.29C417.89 862.96 420.41 873.53 424.17 880.88ZM451.26 893.97C445.45 896.52 435.88 892.81 428.62 878.6C425.29 872.06 422.93 862.39 423.29 856.7C424.08 848.71 427.33 843.95 432.43 843.29C439.22 842.39 449.34 849.21 454.68 863.55C459.13 875.52 459.96 890.14 451.26 893.97Z" fill="#3F3931"/><path id="Path_14" d="M443.63 874.32C441.324 874.323 439.26 872.886 438.462 870.721C437.665 868.557 438.303 866.124 440.06 864.63C464.74 843.63 485.85 813.88 504.59 773.76C505.423 771.974 507.145 770.767 509.108 770.595C511.072 770.423 512.978 771.311 514.108 772.925C515.239 774.539 515.423 776.634 514.59 778.42C495.17 819.99 473.14 850.93 447.23 873C446.229 873.859 444.95 874.328 443.63 874.32Z" fill="#E03B36"/><path id="Path_15" d="M503.84 360.43C501.576 360.079 499.331 361.171 498.21 363.17C497.203 363.095 496.25 363.631 495.79 364.53L447.14 459.64C446.837 460.23 446.782 460.916 446.986 461.547C447.191 462.177 447.639 462.701 448.23 463C448.578 463.184 448.966 463.28 449.36 463.28C450.299 463.28 451.16 462.755 451.59 461.92L496.13 374.85C490.755 413.406 488.747 452.356 490.13 491.26C490.233 494.218 492.661 496.562 495.62 496.56H495.82C498.855 496.451 501.227 493.904 501.12 490.87C499.634 449.343 502.075 407.768 508.41 366.7C508.877 363.707 506.832 360.901 503.84 360.43V360.43Z" fill="#E03B36"/><path id="Path_16" d="M400.51 367.56C400.266 366.943 399.785 366.449 399.176 366.186C398.566 365.923 397.877 365.914 397.26 366.16C397.062 366.248 396.874 366.359 396.7 366.49C395.725 365.501 394.409 364.921 393.02 364.87C389.99 364.763 387.44 367.12 387.31 370.15C385.883 407.781 387.358 445.466 391.72 482.87C392.049 485.64 394.391 487.729 397.18 487.74C397.39 487.74 397.61 487.74 397.82 487.74C400.836 487.385 402.996 484.657 402.65 481.64C398.532 446.349 397.028 410.802 398.15 375.29C410.99 408.09 422.64 441.75 432.77 475.45C433.092 476.507 434.066 477.229 435.17 477.23C435.414 477.227 435.657 477.19 435.89 477.12C437.209 476.721 437.956 475.33 437.56 474.01C426.78 438.13 414.32 402.33 400.51 367.56Z" fill="#E03B36"/><path id="Path_17" d="M1303.49 621.17C1301.86 610.57 1298.42 602.88 1290.84 598.59C1277.96 591.3 1262.64 598.21 1249.36 605.92C1220.36 622.75 1191.73 638.49 1159.98 646.24C1142.61 650.689 1124.58 651.906 1106.77 649.83C1086 647.3 961.08 589.72 845.28 554C840.424 552.514 835.145 553.691 831.38 557.1C822.86 564.75 810.38 572.63 802.75 576.1C781.99 585.44 752.68 587.92 733.02 583.46C713.36 579 704.07 569 696.6 554C689.6 539.88 683.69 524.45 682.88 508.88L680.77 506.29C644.83 496.43 608.26 486.77 572.1 477.58C552.34 472.58 532.78 465.72 513.85 459.11C500.19 454.34 486.06 449.4 471.91 445.16C467.91 443.95 463.91 442.84 460.08 441.86C440.54 436.86 423.22 434.64 407.08 435.11C399.46 435.32 389.55 435.92 380.53 438.62C378.922 439.131 377.404 439.89 376.03 440.87C374.123 442.063 372.142 443.135 370.1 444.08C368.6 444.82 367.05 445.57 365.54 446.43C349.95 455.29 335.54 468.83 323.97 485.58C307.81 508.93 298.28 535.78 290.4 561.31C281.75 589.31 271.69 626.38 270.63 664.67C269.55 703.47 278.02 738.67 295.13 766.61C300.7 775.69 306.13 782.14 312.23 786.91C327.68 799 337.78 803.23 355.47 804.99C358.42 805.28 362.94 805.43 368.98 805.43C374.62 805.43 381.58 805.3 389.82 805.05C414.1 804.29 438.94 804.39 462.96 804.5C471.487 804.54 480.014 804.563 488.54 804.57L734.45 804.39L1151.26 804.05C1171.06 804.05 1193.86 800.13 1215.33 792.38C1231.51 786.53 1256.88 770.98 1267.25 757.79C1291.59 726.85 1298.71 696.79 1303.61 657.79C1304.55 650.48 1305 631.17 1303.49 621.17Z" fill="#FF625A"/><path id="Path_18" d="M479 699C483.843 684.884 487.686 670.445 490.5 655.79C494.13 635.61 496.83 614.99 496.93 594.45C497.09 560.86 493.48 526.45 480.93 495.45C470.42 469.45 448.86 444.77 421.31 435.45C416.44 435.14 411.7 435.04 407.06 435.18C398.11 435.395 389.209 436.572 380.51 438.69C357.79 444.53 338.07 457.18 316.95 485.69C300.04 508.5 290.26 535.89 282.38 561.42C273.73 589.42 269.67 626.49 268.61 664.78C267.53 703.58 276 738.78 293.11 766.72C298.68 775.8 304.11 782.25 310.21 787.02C325.66 799.11 337.76 803.34 355.45 805.1C358.4 805.39 362.92 805.54 368.96 805.54C374.6 805.54 381.56 805.41 389.8 805.16C392.8 805.06 395.8 804.977 398.8 804.91C416.3 798.44 431.8 784.53 443.94 769.61C460.55 749.22 470.68 724.16 479 699Z" fill="#A3B6C4"/><path id="Path_19" d="M357.83 805.2C356.449 805.2 355.33 804.081 355.33 802.7C355.33 801.319 356.449 800.2 357.83 800.2C372.54 800.02 395.41 793.41 420.83 762.94C437.91 742.48 447.83 717.07 455.37 694.94C460.99 678.32 464.51 665.43 466.78 653.13C471.06 629.95 473.09 611.07 473.17 593.73C473.35 555.45 468.17 524.17 457.4 498.1C449.49 478.98 435.59 461.75 419.28 450.82C418.134 450.05 417.83 448.496 418.6 447.35C419.371 446.204 420.924 445.9 422.07 446.67C439.18 458.13 453.74 476.18 462.02 496.18C473.07 522.89 478.36 554.8 478.17 593.75C478.08 611.4 476.03 630.56 471.7 654.03C469.38 666.58 465.81 679.69 460.11 696.54C452.46 719.14 442.27 745.08 424.67 766.17C398.03 798.11 373.67 805.04 357.89 805.23L357.83 805.2Z" fill="#697D8E"/><path id="Path_20" d="M430.25 804.2C429.357 804.25 428.505 803.82 428.015 803.071C427.525 802.323 427.472 801.37 427.875 800.571C428.279 799.773 429.077 799.25 429.97 799.2C452.78 796.58 473.39 784.56 491.24 763.48C508.31 743.32 518.24 718.29 525.77 696.48C531.39 680.12 534.91 667.42 537.18 655.3C540.718 635.993 542.522 616.408 542.57 596.78C542.7 569.61 541.14 534.34 527.8 502.59C515.23 472.66 489.8 451.87 459.9 446.97C458.536 446.746 457.612 445.459 457.835 444.095C458.059 442.731 459.346 441.806 460.71 442.03C492.36 447.22 519.17 469.13 532.41 500.65C546.1 533.24 547.7 569.16 547.57 596.81C547.522 616.737 545.688 636.62 542.09 656.22C539.78 668.59 536.2 681.51 530.5 698.11C522.85 720.38 512.66 745.94 495.06 766.73C476.36 788.81 454.65 801.41 430.54 804.19L430.25 804.2Z" fill="#E03B36"/><path id="Path_21" d="M643.27 869.2C641.665 869.205 640.14 868.503 639.1 867.28C622.03 847.39 599.2 803.51 590.53 764.49C589.873 761.524 591.745 758.587 594.71 757.93C597.676 757.273 600.613 759.144 601.27 762.11C609.45 798.95 631.61 841.66 647.44 860.11C648.835 861.742 649.155 864.036 648.26 865.988C647.365 867.939 645.417 869.193 643.27 869.2V869.2Z" fill="#E03B36"/><path id="Path_22" d="M1246.33 751.2C1233.71 749.97 1211.4 749.83 1192.06 750.88C1154.68 752.88 1153.45 757.47 1152.86 759.66C1151.86 763.47 1156.63 765.66 1158.21 766.36C1183.89 778.01 1212.86 783.5 1248.97 783.5C1251.02 783.5 1253.1 783.5 1255.19 783.5C1273.33 783.19 1282.6 779.12 1282.73 771.39C1283 756 1254.93 752.05 1246.33 751.2Z" fill="#E03B36"/><path id="Path_23" d="M584.43 480.82C591.7 460.09 597.78 446.11 614.84 431.31C622.54 424.63 635.38 419.93 648.5 420.67C661.62 421.41 671.35 428.57 675.25 435.6C687.31 457.29 688.94 486.21 679.41 531.06C679.181 532.161 678.315 533.019 677.212 533.237C676.108 533.455 674.981 532.992 674.35 532.06C667.11 521.32 659.09 514.17 649.86 507.64C641.83 502 623.36 491 584.43 480.82Z" fill="#87DEED"/><path id="Path_24" d="M521.77 671.87C521.561 671.872 521.352 671.845 521.15 671.79C519.83 671.451 519.028 670.114 519.35 668.79C543.09 575.59 520.9 515.32 505.56 487.69C505.126 486.909 505.141 485.956 505.6 485.19C506.059 484.424 506.892 483.961 507.785 483.975C508.679 483.99 509.496 484.479 509.93 485.26C524.3 511.14 532.5 541.54 534.29 575.61C535.85 605.3 532.36 637.95 524.19 670.03C523.892 671.12 522.9 671.874 521.77 671.87Z" fill="#FCB1A7"/><path id="Path_25" d="M957.56 711.36H957.47C829.47 706.93 718.83 692 587.56 661.41C586.235 661.08 585.42 659.749 585.728 658.419C586.037 657.089 587.356 656.252 588.69 656.54C719.63 687.05 830 702 957.64 706.36C959.021 706.382 960.122 707.519 960.1 708.9C960.078 710.281 958.941 711.382 957.56 711.36Z" fill="#1B1812"/><path id="Path_26" d="M951.4 686.85H951.18C894.94 681.85 747.8 664.51 596.59 610.69C595.29 610.226 594.611 608.796 595.075 607.495C595.539 606.194 596.97 605.516 598.27 605.98C748.94 659.61 895.57 676.92 951.62 681.87C953.001 681.931 954.071 683.099 954.01 684.48C953.949 685.861 952.781 686.931 951.4 686.87V686.85Z" fill="#1B1812"/><path id="Path_27" d="M1257.73 910.72H311.78C310.4 910.72 309.28 909.601 309.28 908.22C309.28 906.839 310.4 905.72 311.78 905.72H1257.78C1259.16 905.72 1260.28 906.839 1260.28 908.22C1260.28 909.601 1259.16 910.72 1257.78 910.72H1257.73Z" fill="#1B1812"/><path id="Path_28" d="M687.8 860.8C690.27 844.06 683.8 832.8 671.61 831.08C667.292 830.568 662.928 830.568 658.61 831.08C648.45 831.81 637.93 839.29 629.51 852.47C617.85 872.16 616.27 903.31 634.76 906.53C637.41 906.99 648.61 906.83 650.95 906.66C667.4 905.43 683.73 886.75 687.8 860.8Z" fill="#1B1812"/><path id="Path_29" d="M672.62 839.07C663.73 835.75 652.68 842.07 644.45 855.18C640.56 861.78 637.53 872.32 637.45 879.7C637.17 897.16 647.45 899.4 650.64 899.7C651.07 899.7 651.5 899.7 651.93 899.7C657.79 899.7 664.19 896.37 669.67 890.4C675.98 883.54 680.38 873.82 682.05 863.04C683.87 851.11 680.27 841.92 672.62 839.07Z" fill="#3F3931"/><path id="Path_30" d="M669.15 851.58C663.15 849.26 655.79 852.83 650.47 860.74C647.916 865.047 646.501 869.934 646.36 874.94C646.49 883.4 651.36 886.72 655.89 887.01H656.61C664.44 887.01 673.73 879.13 675.61 865.83C676.78 857.61 673 853.07 669.15 851.58Z" fill="#847E7A"/><path id="Path_31" d="M671.58 862.17C671.444 859.9 670.158 857.856 668.17 856.75C665.466 855.537 662.289 856.203 660.3 858.4C658.809 860.121 658.138 862.405 658.46 864.66C658.61 866.854 659.705 868.875 661.46 870.2C662.474 870.899 663.679 871.269 664.91 871.26C665.552 871.259 666.19 871.175 666.81 871.01C670.92 869.94 671.94 865.58 671.58 862.17Z" fill="white"/><path id="Path_32" d="M1189.68 871.88C1188.2 859.16 1180.99 850.61 1171.43 849.31C1168.16 848.922 1164.87 848.922 1161.6 849.31C1154.03 849.87 1147.54 855.54 1143.78 865.56C1138.87 880.56 1143.91 904.17 1158.61 906.62C1162.71 906.884 1166.82 906.914 1170.92 906.71C1183.13 905.77 1191.79 891.58 1189.68 871.88Z" fill="#1B1812"/><path id="Path_33" d="M1184.33 873.71C1183.33 864.65 1178.27 858.04 1171.69 857.24C1166.87 856.66 1160.46 859.46 1156.94 869.15C1155.45 874.55 1155.31 880.232 1156.53 885.7C1158.98 895.59 1164.84 898.98 1169.8 898.98C1170.42 898.983 1171.05 898.929 1171.66 898.82C1179.17 897.49 1185.93 888.44 1184.33 873.71Z" fill="#3F3931"/><path id="Path_34" d="M1178 876.32C1177.53 872.45 1175 869.56 1171.78 869.12C1169.28 868.79 1165.98 869.96 1164.19 874.33C1163.47 876.565 1163.4 878.957 1163.99 881.23C1165.15 885.38 1167.99 887.09 1170.7 887.09C1171.11 887.09 1171.52 887.05 1171.93 886.97C1175.55 886.25 1178.78 882.37 1178 876.32Z" fill="#847E7A"/><path id="Path_35" d="M1172.68 877.78C1172.56 877.79 1172.45 877.79 1172.33 877.78C1171.31 877.637 1170.37 877.134 1169.68 876.36C1169.01 875.223 1169.15 873.778 1170.05 872.803C1170.94 871.828 1172.37 871.553 1173.56 872.125C1174.75 872.697 1175.43 873.982 1175.22 875.288C1175.02 876.595 1173.99 877.615 1172.68 877.8V877.78Z" fill="white"/><path id="Path_36" d="M683.22 457.14C679.01 457.77 674.83 458.59 670.69 459.56C665.39 460.81 660.15 462.29 654.95 463.89C649.949 465.316 645.084 467.18 640.41 469.46C636.627 471.505 632.977 473.786 629.48 476.29L611.09 488.9C620.386 492.093 629.431 495.974 638.15 500.51L638.44 500.35C653.38 492.48 669.1 484.54 685.56 482.11C685.698 473.726 684.913 465.352 683.22 457.14Z" fill="#B5F7FD"/><path id="Path_37" d="M597.05 482.29C618.282 464.954 643.661 453.443 670.69 448.89C673.97 448.35 677.264 447.913 680.57 447.58C679.154 443.431 677.373 439.416 675.25 435.58C673.841 433.117 672.017 430.914 669.86 429.07C665.568 430.186 661.341 431.541 657.2 433.13C649.87 435.91 642.77 439.26 635.75 442.72L630.6 445.29C625.11 448.04 619.6 450.79 614.29 453.84C604.942 459.301 596.005 465.438 587.55 472.2C586.55 474.94 585.48 477.8 584.43 480.8C588.23 481.787 591.837 482.787 595.25 483.8C595.85 483.31 596.44 482.79 597.05 482.29Z" fill="#B5F7FD"/><path id="Path_38" d="M755.57 605.33C742.321 605.484 729.185 602.875 717 597.67C694.61 587.74 680.73 569.36 676.85 544.49C676.655 543.135 677.587 541.875 678.94 541.664C680.292 541.453 681.563 542.37 681.79 543.72C685.4 566.82 698.27 583.9 719.03 593.1C747.8 605.85 788.71 601.1 818.54 581.45C819.287 580.93 820.257 580.856 821.073 581.258C821.89 581.66 822.423 582.474 822.466 583.383C822.509 584.292 822.055 585.153 821.28 585.63C801.721 598.367 778.91 605.206 755.57 605.33V605.33Z" fill="#E03B36"/><path id="Path_39" d="M833.34 576.66C832.218 576.659 831.234 575.911 830.934 574.83C830.633 573.749 831.09 572.6 832.05 572.02C835.831 569.746 839.26 566.933 842.23 563.67C842.822 562.979 843.744 562.665 844.635 562.849C845.526 563.034 846.247 563.688 846.516 564.557C846.785 565.427 846.561 566.374 845.93 567.03C842.634 570.656 838.828 573.782 834.63 576.31C834.239 576.54 833.794 576.661 833.34 576.66V576.66Z" fill="#E03B36"/><path id="Path_40" d="M1214.43 753.43C1214.03 753.427 1213.63 753.327 1213.27 753.14C1212.68 752.833 1212.24 752.304 1212.04 751.67C1211.84 751.036 1211.9 750.349 1212.21 749.76C1237.93 700.745 1259.88 649.845 1277.88 597.5C1278.34 596.208 1279.75 595.525 1281.05 595.969C1282.34 596.414 1283.04 597.819 1282.61 599.12C1264.52 651.72 1242.46 702.868 1216.61 752.12C1216.18 752.923 1215.34 753.425 1214.43 753.43V753.43Z" fill="#E03B36"/><path id="Path_41" d="M337.31 666.32H336.8C333.44 666.22 321.99 664.51 315.52 646.76C315.168 645.912 315.308 644.938 315.887 644.225C316.466 643.512 317.389 643.173 318.292 643.343C319.194 643.513 319.931 644.165 320.21 645.04C323.02 652.75 328.9 661.04 336.95 661.32C339.34 661.339 341.701 660.805 343.85 659.76C353.8 655.23 359.17 644.26 362.73 635.2C370.2 616.2 373.39 575.05 358.25 566.35C357.052 565.66 356.64 564.128 357.33 562.93C358.021 561.732 359.552 561.32 360.75 562.01C379.04 572.54 375.44 616.57 367.38 637.01C363.78 646.16 357.63 658.95 345.92 664.28C343.23 665.57 340.293 666.265 337.31 666.32V666.32Z" fill="#697D8E"/><path id="Path_42" d="M297.7 713.39C297.209 713.387 296.73 713.241 296.32 712.97C295.173 712.207 294.86 710.659 295.62 709.51L310.2 687.51C310.962 686.358 312.514 686.043 313.665 686.805C314.817 687.567 315.132 689.118 314.37 690.27L299.79 712.27C299.327 712.972 298.541 713.394 297.7 713.39V713.39Z" fill="#697D8E"/><path id="Path_43" d="M321 739.09C320.857 739.1 320.713 739.1 320.57 739.09C319.228 738.832 318.339 737.547 318.57 736.2L324.11 704.32C324.345 702.959 325.639 702.045 327 702.28C328.362 702.515 329.275 703.809 329.04 705.17L323.42 737C323.223 738.189 322.205 739.068 321 739.09V739.09Z" fill="#697D8E"/><path id="Path_44" d="M357.64 735.49C356.457 735.482 355.441 734.648 355.2 733.49L349.52 706.34C349.244 704.987 350.117 703.666 351.47 703.39C352.823 703.114 354.144 703.987 354.42 705.34L360.09 732.49C360.241 733.144 360.122 733.832 359.758 734.397C359.395 734.962 358.818 735.356 358.16 735.49C357.987 735.51 357.813 735.51 357.64 735.49V735.49Z" fill="#697D8E"/><path id="Path_45" d="M389.38 709.16C388.73 709.157 388.107 708.902 387.64 708.45C385.39 706.26 382.23 702.99 379.18 699.83C376.13 696.67 373.03 693.46 370.84 691.34C369.862 690.377 369.843 688.804 370.799 687.818C371.755 686.832 373.327 686.802 374.32 687.75C376.57 689.93 379.72 693.2 382.77 696.35C385.82 699.5 388.94 702.73 391.13 704.86C391.866 705.569 392.096 706.656 391.711 707.602C391.326 708.549 390.403 709.166 389.38 709.16V709.16Z" fill="#697D8E"/><path id="Path_46" d="M409.81 675.31C409.335 675.313 408.869 675.177 408.47 674.92L380.64 657.31C379.472 656.573 379.123 655.028 379.86 653.86C380.597 652.692 382.142 652.343 383.31 653.08L411.14 670.7C412.077 671.295 412.509 672.437 412.201 673.503C411.894 674.569 410.92 675.305 409.81 675.31V675.31Z" fill="#697D8E"/><path id="Path_47" d="M424.21 627.65H423.92L388.52 623.59C387.627 623.488 386.856 622.918 386.498 622.093C386.139 621.269 386.248 620.316 386.783 619.593C387.317 618.871 388.197 618.488 389.09 618.59L424.5 622.65C425.881 622.73 426.935 623.914 426.855 625.295C426.775 626.676 425.591 627.73 424.21 627.65Z" fill="#697D8E"/><path id="Path_48" d="M389.77 592.34C388.39 592.461 387.172 591.441 387.05 590.06C386.929 588.679 387.95 587.461 389.33 587.34L428 580.49C429.339 580.289 430.595 581.189 430.833 582.522C431.071 583.855 430.206 585.135 428.88 585.41L390.26 592.3C390.099 592.331 389.935 592.345 389.77 592.34V592.34Z" fill="#697D8E"/><path id="Path_49" d="M392 555.46C390.869 555.45 389.885 554.686 389.595 553.593C389.306 552.5 389.783 551.348 390.76 550.78L413.66 537.72C414.861 537.035 416.39 537.454 417.075 538.655C417.76 539.856 417.341 541.385 416.14 542.07L393.24 555.13C392.862 555.345 392.435 555.458 392 555.46V555.46Z" fill="#697D8E"/><path id="Path_50" d="M320.88 542.9C319.993 542.9 319.172 542.433 318.72 541.67C318.55 541.38 314.35 534.3 313.12 530.12C312.731 528.795 313.49 527.404 314.815 527.015C316.141 526.626 317.531 527.385 317.92 528.71C318.79 531.71 321.92 537.23 323.02 539.12C323.36 539.69 323.46 540.372 323.296 541.015C323.133 541.659 322.721 542.211 322.15 542.55C321.765 542.775 321.327 542.896 320.88 542.9Z" fill="#697D8E"/><path id="Path_51" d="M311.78 556.28C311.247 556.28 310.728 556.108 310.3 555.79L304.18 551.3C303.076 550.472 302.852 548.905 303.68 547.8C304.509 546.695 306.076 546.472 307.18 547.3L313.3 551.79C314.176 552.428 314.54 553.558 314.203 554.588C313.866 555.618 312.904 556.313 311.82 556.31L311.78 556.28Z" fill="#697D8E"/><path id="Path_52" d="M334.25 532.47C332.898 532.476 331.788 531.402 331.75 530.05L331.11 509.91C331.082 509.017 331.532 508.176 332.291 507.705C333.05 507.234 334.003 507.203 334.791 507.625C335.579 508.047 336.082 508.857 336.11 509.75L336.76 529.89C336.782 530.553 336.539 531.198 336.085 531.682C335.631 532.165 335.003 532.449 334.34 532.47H334.25Z" fill="#697D8E"/><path id="Path_53" d="M286.23 684.13C285.124 684.134 284.146 683.409 283.828 682.35C283.509 681.29 283.925 680.147 284.85 679.54L300.32 669.36C301.474 668.601 303.026 668.921 303.785 670.075C304.544 671.229 304.224 672.781 303.07 673.54L287.6 683.72C287.194 683.989 286.717 684.132 286.23 684.13Z" fill="#697D8E"/><path id="Path_54" d="M286.89 660.88C285.509 661.007 284.287 659.991 284.16 658.61C284.033 657.229 285.049 656.007 286.43 655.88L296.43 654C297.309 653.836 298.209 654.153 298.791 654.832C299.372 655.511 299.548 656.448 299.251 657.292C298.953 658.135 298.229 658.756 297.35 658.92L287.35 660.79C287.2 660.834 287.046 660.864 286.89 660.88Z" fill="#697D8E"/><path id="Path_55" d="M296.36 630.61C295.117 628.329 292.985 626.663 290.47 626.01C284.28 624.31 278.47 628.76 273.74 632.34C272.85 633.02 272 633.67 271.24 634.2C259.463 642.435 248.304 651.519 237.85 661.38C216.87 681.162 198.851 703.866 184.35 728.79C180.75 734.99 177.35 741.42 174.16 747.9C170.16 756.12 166.41 767.67 163.96 775.9C163.16 778.567 163.978 781.457 166.059 783.308C168.139 785.159 171.104 785.635 173.66 784.53C178.52 782.45 182.66 780.53 185.9 778.79C193.9 774.53 205.9 767.68 217.11 757.45C234.75 741.32 254.79 722.16 269.31 698.76C278.89 683.33 286.67 666.69 294.2 650.59C295.113 648.674 295.898 646.7 296.55 644.68C297.38 642.09 299 635.5 296.36 630.61Z" fill="#AC6040"/><path id="Path_56" d="M356.36 595.85C356.139 591.68 354.145 587.804 350.88 585.2C346.14 581.45 339.14 576.35 332.77 573.34C319.89 567.24 307.19 561.62 293.41 559.9C277.49 557.9 262.8 561.97 253.13 571.02C245.66 578.02 241.27 588.15 240.76 599.58C240.315 610.404 243.274 621.095 249.22 630.15C253.14 635.97 260.47 640.99 267.05 642.35C280.645 645.316 294.506 646.897 308.42 647.07C320.86 647.07 331.79 645.47 341.12 642.27C344.449 641.112 347.236 638.77 348.95 635.69V635.69C354.77 625.28 357.26 611.87 356.36 595.85Z" fill="#D1D9DB"/><path id="Path_57" d="M290.76 479.67C289.565 479.665 288.54 478.813 288.316 477.639C288.092 476.464 288.731 475.295 289.84 474.85C310.14 466.754 332.219 464.166 353.84 467.35C355.153 467.606 356.032 468.851 355.834 470.174C355.635 471.497 354.431 472.43 353.1 472.29C332.356 469.242 311.174 471.729 291.7 479.5C291.401 479.618 291.082 479.675 290.76 479.67V479.67Z" fill="#3F3931"/><path id="Path_58" d="M264.77 468.68C264.032 468.683 263.332 468.357 262.86 467.79C261.97 466.737 262.099 465.163 263.15 464.27C273.23 455.75 286.37 451.91 296.69 449.52C318.15 444.52 352.74 443.61 375.45 447.37C376.814 447.596 377.736 448.886 377.51 450.25C377.284 451.614 375.994 452.536 374.63 452.31C352.47 448.63 318.74 449.54 297.82 454.39C288.04 456.65 275.64 460.25 266.38 468.08C265.932 468.465 265.361 468.678 264.77 468.68Z" fill="#3F3931"/><path id="Path_59" d="M275.24 643.88C274.083 643.88 273.078 643.086 272.809 641.961C272.54 640.836 273.078 639.673 274.11 639.15C284.6 633.85 293.8 616.6 295.81 603.8C298.06 589.44 296.21 574.37 290.86 563.49C290.466 562.688 290.529 561.736 291.026 560.993C291.523 560.25 292.379 559.829 293.271 559.888C294.163 559.947 294.956 560.478 295.35 561.28C301.22 573.28 303.19 589.01 300.75 604.58C297.89 622.75 286.11 638.69 276.37 643.58C276.022 643.766 275.635 643.869 275.24 643.88V643.88Z" fill="#A3B6C4"/><path id="Path_60" d="M317.85 766.67C295.081 766.632 272.446 763.163 250.71 756.38C249.856 756.117 249.208 755.419 249.008 754.548C248.809 753.678 249.089 752.767 249.743 752.158C250.397 751.55 251.326 751.337 252.18 751.6C292.4 763.98 332.46 764.93 374.67 754.51C376.012 754.179 377.369 754.998 377.7 756.34C378.032 757.682 377.212 759.039 375.87 759.37C356.897 764.144 337.415 766.596 317.85 766.67Z" fill="#3F3931"/><path id="Path_61" d="M314.27 785.29C286.735 785.292 259.38 780.834 233.27 772.09C231.959 771.654 231.249 770.237 231.685 768.925C232.122 767.613 233.539 766.904 234.85 767.34C264.015 777.111 294.733 781.417 325.46 780.04C326.353 780.001 327.2 780.441 327.68 781.195C328.161 781.949 328.203 782.902 327.79 783.695C327.378 784.488 326.573 785.001 325.68 785.04C321.894 785.213 318.09 785.297 314.27 785.29Z" fill="#3F3931"/><path id="Path_62" d="M449.75 425.41C446.628 422.58 442.155 421.802 438.26 423.41C420.83 430.49 404.16 442.26 388.73 458.41C370.1 477.88 355.57 501.08 341.52 523.53L340.45 525.23C334.72 534.38 327.99 545.23 321.55 555.93C318.92 560.32 317.29 563.53 315.42 567.26L313.67 570.71C313.29 571.437 313.29 572.303 313.67 573.03C317.128 579.439 319.052 586.562 319.29 593.84C319.341 594.856 320.001 595.741 320.96 596.08C321.228 596.171 321.508 596.218 321.79 596.22C322.504 596.216 323.183 595.911 323.66 595.38C325.37 593.45 329.29 590.38 332.75 587.68C335.22 585.76 337.56 583.94 338.94 582.68V582.68C377.58 546.47 421.38 505.43 446.1 454.01C448.884 448.448 451.192 442.661 453 436.71C454.19 432.632 452.925 428.233 449.75 425.41V425.41Z" fill="#AC6040"/><path id="Path_63" d="M255.34 585C254.853 585.002 254.376 584.859 253.97 584.59C252.82 583.83 252.502 582.282 253.26 581.13C258.471 573.379 266.898 568.39 276.2 567.55C277.093 567.479 277.957 567.889 278.465 568.627C278.974 569.365 279.05 570.318 278.665 571.127C278.28 571.936 277.493 572.479 276.6 572.55C268.828 573.257 261.787 577.426 257.43 583.9C256.963 584.595 256.177 585.008 255.34 585V585Z" fill="#F6F6F6"/><path id="Shape_3" fill-rule="evenodd" clip-rule="evenodd" d="M1184.66 412.17C1183.27 411.696 1181.75 411.798 1180.43 412.454C1179.12 413.109 1178.12 414.264 1177.66 415.66C1176.84 418.118 1176.04 420.577 1175.22 423.064L1175.18 423.19C1133.68 486.38 1096.57 544.72 1062.99 602.29C1049.19 532.45 1037.29 461.6 1032.99 398.43L1033.59 394.04C1033.94 392.058 1033.17 390.044 1031.6 388.791C1030.02 387.537 1027.89 387.243 1026.04 388.025C1024.18 388.806 1022.9 390.538 1022.7 392.54C1008.16 497.63 994.79 618.01 984.04 740.67C983.899 742.131 984.348 743.587 985.287 744.714C986.227 745.842 987.578 746.546 989.04 746.67H989.52C992.362 746.662 994.733 744.499 995 741.67C995.07 740.76 995.15 739.86 995.23 738.96L995.23 738.96C1015.51 697.36 1037.23 656.96 1060.64 616.29C1067.24 649.13 1074.17 681.62 1080.84 712.86C1082.91 722.573 1084.94 732.09 1086.92 741.41L1086.86 741.64C1086.53 743.063 1086.79 744.557 1087.56 745.793C1088.34 747.029 1089.58 747.906 1091 748.23C1091.4 748.321 1091.82 748.368 1092.23 748.37C1094.8 748.365 1097.02 746.59 1097.59 744.09C1122.45 635.62 1154.59 520.22 1188.07 419.15C1188.54 417.772 1188.45 416.262 1187.81 414.953C1187.17 413.644 1186.04 412.643 1184.66 412.17ZM996.54 725.11C1006.07 618.99 1017.54 515.03 1029.92 421.74C1035.39 480.83 1046.6 545.36 1059.24 608.83C1036.86 647.45 1016.05 685.8 996.54 725.11ZM1085.81 711.78C1087.11 717.88 1088.39 723.903 1089.66 729.85C1112.08 633.6 1140 532.56 1169.35 441.28C1130.77 500.33 1096.08 555.32 1064.51 609.71C1070.42 639.371 1076.67 668.776 1082.73 697.296C1083.77 702.151 1084.79 706.98 1085.81 711.78Z" fill="#E03B36"/><path id="Path_64" d="M1236.79 415.92C1232.63 408.13 1218.65 400.12 1208.08 397.18C1196.08 393.83 1184.59 391.41 1176.2 389.65L1174.03 389.19C1052.1 363.44 926.34 354.26 804.72 345.38C660.86 334.88 525.42 330.2 332.05 341.54C325.61 341.92 306.05 343.07 306.16 358.26C306.125 361.874 307.549 365.35 310.11 367.9C317.37 375.19 332.05 374.57 333.69 374.46C526.26 363.22 661.25 367.89 804.69 378.36C824.84 379.84 845.69 381.36 866.53 382.96C895.13 385.16 918.8 387.13 941 389.17C967.83 391.62 992.14 394.17 1015.31 396.85C1041.52 399.93 1065.72 403.19 1089.31 406.85C1114.73 410.78 1139.47 415.17 1162.84 419.92C1173.22 422.03 1183.84 424.39 1194.04 426.67L1199.41 427.87C1206.29 429.261 1213.28 429.994 1220.3 430.06C1228.52 429.99 1236.37 428.34 1237.87 422.67C1238.4 420.365 1238.01 417.944 1236.79 415.92Z" fill="#FF625A"/><path id="Path_65" d="M1135 758.32C1130.91 747.95 1121 745.92 1110.39 744.61C1058.39 738.22 1010.05 735.61 943.61 735.42C849.69 735.22 757.81 735.42 666.28 740.78C660.74 741.1 642.09 742.87 634.68 752.12C631.38 756.24 630.53 761.38 632.48 765.53C633.89 768.53 638.02 773.53 649.97 773.74C660.44 773.91 697.75 773.93 730.67 773.95C751.77 773.95 771.67 773.95 783.21 774.03L963.67 774.77C974.97 774.77 994.08 774.9 1015.11 774.9C1056.31 774.9 1104.88 774.6 1116.6 773.15C1123.78 772.27 1131.91 771.27 1134.82 766.38C1136.2 764.13 1136.26 761.42 1135 758.32Z" fill="#E03B36"/></g></g></g></g><g id="Hair" transform="translate(656 336) scale(1 1)"><g id="Hair/Mohawk"><g id="mohawk"><g id="hair"><path id="Path" d="M112.24 144.94C112.224 142.357 110.786 139.993 108.5 138.79C105.917 137.545 102.865 137.778 100.5 139.4C98.2508 140.842 96.9813 143.407 97.2001 146.07C97.1904 146.173 97.1904 146.277 97.2001 146.38C97.8701 149.77 101.2 152.16 103.64 153.67C104.463 154.195 105.517 154.195 106.34 153.67C109.57 151.51 112.45 149 112.24 144.94Z" fill="#fc6e47"/><path id="Path" d="M97.9402 104.92C98.6095 105.402 99.4734 105.522 100.249 105.243C101.025 104.963 101.613 104.318 101.82 103.52C102.91 99.31 107.38 96.74 111.34 96.05C112.992 95.7782 114.669 95.6943 116.34 95.8C116.587 95.7848 116.834 95.7848 117.08 95.8C120.967 95.9467 124.914 96.2533 128.92 96.72C131.05 96.97 133.46 97.38 135.28 99.14C138.45 102.21 137.51 106.98 137.06 109.27L136.97 109.71C137.97 109.71 138.88 109.82 139.82 109.94C141.342 110.108 142.827 110.516 144.22 111.15L144.62 110.81C145.288 110.25 145.614 109.381 145.48 108.52C145.338 107.664 144.768 106.94 143.97 106.6L138.68 104.38C141 102.38 143.02 100.68 143.51 100.29C143.906 100.051 144.225 99.7044 144.43 99.29C144.709 98.688 144.737 97.9999 144.508 97.3772C144.279 96.7545 143.812 96.2483 143.21 95.97H143.11C141.632 95.4249 140.127 94.9576 138.6 94.57L137.24 94.18C138.18 92.27 139.24 90.08 139.41 89.71C139.863 88.9001 139.83 87.9059 139.325 87.1277C138.819 86.3495 137.924 85.9153 137 86L129.49 86.56L129.35 79.35C129.317 78.4193 128.769 77.5841 127.929 77.1828C127.089 76.7815 126.095 76.8806 125.35 77.44C125.3 77.44 121.35 80.57 118.19 82.62C116.72 79.98 114.65 76.29 114.65 76.29C114.211 75.508 113.387 75.02 112.49 75.01V75.01C111.603 75.0097 110.782 75.4773 110.33 76.24C110.33 76.29 107.9 80.37 105.96 83.4L100 78.59C99.2081 77.9443 98.1027 77.8457 97.2088 78.3411C96.3149 78.8365 95.8125 79.826 95.9402 80.84L96.9402 88.26L87.3602 87.72C86.3812 87.6527 85.4565 88.1761 85.0102 89.05C84.553 89.919 84.6469 90.9752 85.2502 91.75C85.4702 92.12 92.3302 100.91 97.9402 104.92Z" fill="#fc6e47"/></g></g></g></g><g id="Facial Hair" transform="translate(658 332) scale(220 200)"><g id="Facial Hair/None" stroke="none" stroke-width="1" fill="none" fill-rule="evenodd" fill-opacity="0"/></g><g id="Accessories" transform="translate(652 338) scale(1 1)"><g id="Accessories/Blue Cap"><g id="snapback"><g id="hair"><path id="Path" d="M145.42 92.8399C144.68 86.9099 141.68 81.8399 137.42 79.3099C134.08 77.3099 130.33 76.9099 126.42 76.6299C120.85 76.2199 115.19 75.9699 109.59 75.8899C103.59 75.7899 97.2399 75.9699 91.6799 78.9399C86.1199 81.9099 83.0899 87.9399 83.3499 95.3399C83.3984 96.6854 84.5036 97.7508 85.8499 97.7499H85.9999C87.1503 97.7039 88.1206 96.8782 88.3499 95.7499L139.7 106.75V106.83C139.58 107.48 139.724 108.15 140.099 108.694C140.474 109.238 141.05 109.611 141.7 109.73C141.85 109.745 142 109.745 142.15 109.73C143.357 109.73 144.393 108.868 144.61 107.68C145.605 102.8 145.878 97.7996 145.42 92.8399Z" fill="#B5F7FD"/><path id="Path_2" d="M142.1 104.82C138.461 104.914 134.826 104.524 131.29 103.66C128.09 102.82 124.7 101.66 121.42 100.44C118.92 99.55 116.33 98.62 113.8 97.86L113.34 97.72C107.769 95.862 102.052 94.4738 96.2498 93.57C92.4688 93.1831 88.6707 92.9862 84.8698 92.98C79.403 92.9447 73.9577 93.6683 68.6898 95.13C67.4798 95.43 63.3198 96.6 60.6898 99.13C59.6945 100.086 59.0979 101.382 59.0198 102.76C58.8336 104.859 59.5626 106.937 61.0198 108.46C62.6019 110.039 64.79 110.856 67.0198 110.7C68.7045 110.572 70.3635 110.212 71.9498 109.63C72.4198 109.48 72.8798 109.33 73.3498 109.2C80.5998 107.15 88.5798 109.04 96.2898 110.87L98.6598 111.43C103.259 112.6 107.976 113.244 112.72 113.35C113.54 113.35 114.36 113.35 115.18 113.27H115.79V113.27C117.21 113.15 119.03 112.81 121.13 112.41C122.82 112.1 124.73 111.74 126.82 111.41C131.949 110.616 137.116 110.086 142.3 109.82C143.681 109.787 144.773 108.641 144.74 107.26C144.707 105.879 143.561 104.787 142.18 104.82H142.1Z" fill="#0085FA"/><path id="Path_3" d="M124.92 106.59H124.8C123.423 106.525 122.358 105.357 122.42 103.98L123.04 90.66C123.225 88.7935 123.134 86.9099 122.77 85.07C122.5 83.7202 121.637 82.5635 120.42 81.92C119.141 81.3981 118.528 79.9385 119.05 78.66C119.572 77.3815 121.031 76.7681 122.31 77.29C124.985 78.5198 126.939 80.9206 127.6 83.79C128.117 86.1191 128.265 88.5149 128.04 90.89L127.42 104.21C127.356 105.544 126.255 106.592 124.92 106.59V106.59Z" fill="#005EB1"/><path id="Path_4" d="M105.69 112.82C105.453 112.816 105.218 112.783 104.99 112.72C101.21 111.62 96.74 108.62 93.48 106.43L93.09 106.17C90.001 104.006 86.4568 102.579 82.73 102C75.19 100.82 69.02 101.56 62.73 104.4C61.4749 104.946 60.0145 104.38 59.4533 103.132C58.8922 101.884 59.4389 100.417 60.68 99.84C67.83 96.62 75.1 95.74 83.54 97.06C87.9851 97.7704 92.2112 99.48 95.9 102.06L96.29 102.32C99.11 104.21 103.38 107.07 106.41 107.96C107.603 108.308 108.359 109.479 108.186 110.709C108.012 111.939 106.962 112.855 105.72 112.86L105.69 112.82Z" fill="#005EB1"/></g></g></g></g></g></svg>