<svg viewBox="157.5799492385787 86.54999999999995 295.0126903553299 490.44999999999993" xmlns="http://www.w3.org/2000/svg" overflow="visible" xmlns:xlink="http://www.w3.org/1999/xlink" width="295.0126903553299px" height="490.44999999999993px"><g id="Master/Character/Standing" stroke="none" stroke-width="1" fill="none" fill-rule="evenodd"><g id="Standing Body" transform="translate(122.000000, -7.000000) scale(1 1)"><g id="Standing Body/Holding" stroke="none" stroke-width="1" fill="none" fill-rule="evenodd"><path d="M119.741119,285.617142 C137.127634,280.148127 148.155352,277.344683 152.824271,277.20681 C159.827649,277 176.348028,278.867704 197.215227,280.66455 C211.126692,281.862447 220.981615,280.640931 226.779995,277 L271.086765,386.57258 C273.280142,391.238965 274.37683,394.305664 274.37683,395.772677 C274.37683,397.23969 276.08251,428.853253 279.493868,490.613367 L285,490.613367 L285,502.753847 L285,505.144523 C271.829348,505.144523 263.762454,505.144523 260.799317,505.144523 C257.83618,505.144523 248.819835,506.523878 233.750282,509.282588 L232.806288,495.737601 L236.603227,494.119077 L223.820855,398.491461 L210.252114,371.520063 L182.94334,321.515355 L170.931701,321.515355 L168.574378,331.123089 L164.626001,500.921381 L170.785302,502.753847 L172.430376,523.301642 L134.19263,526 L103,525.745556 L103,509.282588 L107.474394,509.282588 L119.741119,285.617142 Z" id="Path-16" fill="#FFF"/><g id="Group-10" transform="translate(41.000000, 147.000000)" fill="#000"><g id="Group-3" transform="translate(0.000000, 0.000000)"><path d="M73.2486,432.674411 C72.3346,432.081921 71.6296,432.197777 70.7076,432.504693 C71.5346,433.861425 72.2556,433.468125 73.2486,432.674411 L73.2486,432.674411 Z M74.9606,432.287209 C77.2016,434.378711 78.6686,434.25066 80.2266,432.287209 L74.9606,432.287209 Z M97.9466,394.053774 C97.9436,394.250932 97.9406,394.449107 97.9376,394.647281 C99.4456,394.857651 100.9536,395.068021 102.6776,395.308879 C102.5496,394.411504 102.4776,393.901332 102.3786,393.210263 C100.8056,393.510065 99.3756,393.781411 97.9466,394.053774 L97.9466,394.053774 Z M103.6806,400.064049 C103.4546,399.253058 103.1836,398.284544 102.9336,397.391235 C100.4416,396.936958 98.1206,396.726588 95.9326,396.06499 C92.9276,395.156437 90.3496,396.039583 87.7906,397.247939 L87.7906,403.218579 C93.0246,402.178925 98.1446,401.162646 103.6806,400.064049 L103.6806,400.064049 Z M102.7776,391.11063 C101.8276,389.534381 101.3836,387.881911 100.3336,387.217265 C95.9476,384.438758 91.2796,384.671486 86.6276,386.650181 C85.3826,387.179663 85.1296,388.288423 85.4036,389.486616 C85.6986,390.776274 85.7096,392.346425 87.4506,392.674683 C90.1796,393.187904 92.8616,393.696044 95.6656,392.706188 C97.8136,391.94906 100.1296,391.682795 102.7776,391.11063 L102.7776,391.11063 Z M115.5656,403.308011 C114.8346,400.469544 113.8656,397.874983 113.5636,395.201153 C113.2556,392.468379 113.6026,389.659383 113.6626,386.921528 C110.9856,387.411374 108.4036,387.855488 105.8326,388.363628 C104.5146,388.623795 104.4696,388.803677 104.8856,390.68176 C105.8996,390.579116 106.9236,390.39517 107.9466,390.408381 C108.4096,390.414479 108.8686,390.810828 109.3296,391.029328 C109.0696,391.489702 108.9086,392.092356 108.5206,392.367767 C108.1456,392.634032 107.5406,392.594397 107.0326,392.633016 C106.2086,392.693993 105.3826,392.708221 104.4096,392.748872 C104.5086,393.837307 104.5796,394.616793 104.6536,395.422702 C105.8046,395.704211 106.7776,396.184911 107.4476,394.817 C107.5226,394.662525 108.2676,394.845456 108.9196,394.88509 C108.3556,396.020274 107.9756,396.784516 107.5896,397.558921 C107.1116,397.58636 106.7176,397.599572 106.3266,397.632093 C105.9546,397.662581 105.5826,397.710346 105.1986,397.750997 C105.8666,400.97057 105.8696,400.955325 108.7366,401.51936 C109.6726,401.703307 110.5936,401.976686 111.5186,402.220593 C112.8746,402.579339 114.2286,402.948249 115.5656,403.308011 L115.5656,403.308011 Z M184.8296,63.7061649 C184.8836,63.8311672 184.9376,63.9561695 184.9916,64.0821881 C186.9266,63.7752719 188.8536,63.3392881 190.7996,63.1959928 C192.9416,63.0394858 194.7936,62.2599998 196.6426,61.2416881 C202.3256,58.1115486 208.0406,55.0423858 213.7666,51.99863 C214.7376,51.4823602 215.8606,51.2699579 216.8606,50.8024695 C218.0456,50.2475812 219.4676,50.0778626 220.4576,48.6906416 C219.9126,47.9772137 219.4756,47.184516 218.8326,46.6458881 C218.4356,46.3145812 217.6416,46.1286021 217.1666,46.2952719 C215.3736,46.9212998 213.6056,47.6499719 211.8836,48.4599463 C202.9016,52.6937649 194.1106,57.293444 185.8046,62.799644 C185.4406,63.0405021 185.1526,63.4022974 184.8296,63.7061649 L184.8296,63.7061649 Z M74.2596,381.099265 C74.2596,382.701937 74.2646,384.219242 74.2585584,385.736546 C74.2526,386.982504 74.8956,387.428651 76.0686,387.429667 C77.8256,387.430683 79.5836,387.487595 81.3366,387.600402 C82.6066,387.682721 83.6496,387.569914 84.3566,386.235539 C84.6626,385.659309 85.4076,385.207065 86.0506,384.951979 C91.4416,382.814744 96.7356,382.371646 101.7486,386.055658 C102.2456,386.41847 102.8846,386.900186 103.4116,386.847339 C106.0076,386.587172 108.6136,386.288386 111.2146,385.426581 L111.2146,379.296386 C98.8376,379.900056 86.5976,380.497628 74.2596,381.099265 L74.2596,381.099265 Z M70.9746,388.938842 C71.8046,391.985646 72.5336,394.799723 73.3416,397.591442 C74.4866,401.5468 74.8966,405.524516 73.9626,409.5876 C73.8766,409.959558 73.9506,410.370135 73.9506,410.817297 C74.2696,410.781728 74.5326,410.824411 74.7146,410.720751 C77.9866,408.871123 81.2536,407.015397 84.5026,405.125118 C84.8806,404.905602 85.3376,404.52653 85.4256,404.142377 C85.8756,402.184007 86.1776,400.199214 85.5216,397.898358 C84.6226,398.239828 83.8546,398.640242 83.0426,398.795732 C82.6196,398.876018 82.1166,398.527435 81.6486,398.37296 C81.9106,397.949172 82.0766,397.363795 82.4526,397.135132 C83.3136,396.612765 84.2776,396.264181 85.1116,395.886125 C85.1946,394.619842 84.7616,393.993814 83.6486,393.963325 C83.2556,393.953163 82.8416,393.999911 82.4756,393.89117 C82.0786,393.772265 81.7266,393.500918 81.3546,393.29563 C81.6396,392.95416 81.8636,392.508014 82.2226,392.294595 C82.7306,391.99276 83.3386,391.862677 84.0196,391.617753 C83.4436,390.620783 83.4836,389.368728 82.0336,389.325028 C78.4616,389.217302 74.8906,389.078072 70.9746,388.938842 L70.9746,388.938842 Z M78.8006,152.746439 C88.7516,151.347023 97.5816,140.37629 96.1786,130.211467 C95.3256,130.46757 94.4876,130.688102 93.6716,130.970628 C89.7466,132.332442 85.8546,133.802997 81.8916,135.035744 C80.4046,135.498151 79.7866,136.319304 79.6856,137.748193 C79.5326,139.933193 79.3846,142.120225 79.2566,144.307258 C79.0936,147.112188 78.9526,149.917118 78.8006,152.746439 L78.8006,152.746439 Z M191.5746,147.192474 C189.3606,140.196409 187.1986,133.363965 185.0446,126.557944 C179.7486,127.864879 174.3196,129.205351 168.8826,130.546839 C171.7846,139.577495 183.5756,148.25347 191.5746,147.192474 L191.5746,147.192474 Z M286.3016,428.915195 C256.4406,428.257663 227.1716,429.49549 197.9226,428.245467 C197.1276,428.210914 196.3296,428.284086 195.5326,428.316607 C195.4596,428.318639 195.3816,428.376567 195.3236,428.429414 C195.2686,428.478195 195.2356,428.552383 195.1696,428.650963 C195.1696,428.854218 195.1346,429.099142 195.1796,429.327804 C195.2256,429.561549 195.3316,429.789195 195.4426,430.002614 C196.5976,432.218102 197.6536,432.447781 199.5586,430.925395 C200.0446,430.537177 200.5636,430.193674 201.0366,429.852204 C201.4596,430.069688 201.7746,430.172332 202.0196,430.366442 C204.6926,432.482335 207.4326,433.055516 210.3366,430.822751 C211.0616,430.264814 211.8196,430.393881 212.5966,430.764823 C213.4626,431.178449 214.3376,431.583944 215.2386,431.907121 C217.1626,432.599207 218.9726,432.457944 220.6916,431.19166 C222.3566,429.965011 222.3936,430.016842 224.1646,431.344102 C226.6986,433.244544 229.0076,433.407149 231.6966,431.646953 C232.7386,430.96503 233.5646,430.950802 234.5446,431.596139 C236.6636,432.992507 238.7126,432.6612 240.4646,430.999583 C241.8366,429.696714 242.9576,429.789195 244.4756,430.768888 C246.9626,432.373593 249.7706,432.950839 252.4326,431.384753 C254.2056,430.342051 255.5686,430.461972 257.2776,431.401014 C260.9446,433.415279 264.7516,433.71 268.4786,431.515853 C269.8116,430.732302 270.7726,430.880679 271.8676,431.952853 C273.5736,433.623616 275.6676,433.998623 277.8696,433.1419 C279.1306,432.652053 280.3036,432.526035 281.5856,432.996572 C282.7446,433.421377 283.8726,433.182551 284.5986,432.146963 C285.2176,431.263816 285.6236,430.227211 286.3016,428.915195 L286.3016,428.915195 Z M56.9466,83.3894579 C50.3016,69.2997649 45.9286,54.4082277 36.5116,41.8957998 C33.0496,44.91923 29.7456,47.8044463 26.3816,50.7425091 C34.8306,62.5730137 40.7956,75.5173602 47.7866,88.1263347 C50.8336,86.5511021 53.7216,85.0571719 56.9466,83.3894579 L56.9466,83.3894579 Z M193.0866,362.3479 C194.5866,362.09383 195.6736,361.914965 196.7576,361.724921 C202.5726,360.706609 208.3556,359.422032 214.2066,358.726897 C222.6806,357.722814 231.1886,356.890481 239.7506,357.133372 C240.5776,357.156746 241.4106,356.940279 242.3346,356.823407 C242.1736,352.117018 242.0226,347.705351 241.8656,343.127014 C239.7196,343.317058 237.8186,343.445109 235.9266,343.662593 C229.9046,344.355695 223.8826,345.059977 217.8656,345.798811 C209.9506,346.77139 202.0406,347.796816 194.1246,348.754151 C192.9276,348.898463 192.4006,349.478758 192.4296,350.633251 C192.4886,352.982888 192.5446,355.332525 192.6626,357.679114 C192.7346,359.115116 192.9176,360.544004 193.0866,362.3479 L193.0866,362.3479 Z M60.5396,82.5205393 L60.5396,83.8254416 C56.2226,85.9840184 52.0436,88.0745044 47.8406,90.1751533 C50.8296,93.5329393 53.7486,96.8510905 56.7086,100.129607 C59.6786,103.420318 62.5066,106.873635 65.7336,109.883853 C68.9136,112.850372 71.6606,116.174621 74.1706,119.522244 C74.6556,115.678677 74.8106,111.918444 75.6426,108.3198 C78.1466,97.4852486 78.7136,86.4982556 78.6746,75.4391067 C78.6726,75.0783277 78.5676,74.7175486 78.4696,74.0976184 C72.4596,76.9208416 66.6856,79.6332905 60.5396,82.5205393 L60.5396,82.5205393 Z M62.1576,363.496295 C61.5776,368.29923 61.1996,373.107246 61.4256,378.157137 C62.2686,378.336002 63.0206,378.587023 63.7876,378.642918 C66.4136,378.831946 69.0516,379.159188 71.6716,379.063658 C83.7986,378.62056 95.9286,378.174414 108.0426,377.478263 C113.6906,377.15407 119.3096,376.290232 124.9346,375.608309 C126.3976,375.43046 127.8316,375.019883 129.2526,374.721097 C128.6836,368.276872 128.1446,362.169035 127.5876,355.873186 C126.4406,355.800014 125.5026,355.667897 124.5716,355.696353 C121.4576,355.790867 118.3476,355.980911 115.2346,356.064246 C107.2176,356.279697 99.3406,357.319351 91.6526,359.752323 C85.0826,361.83163 78.3846,363.332674 71.4646,363.485116 C68.5186,363.549142 65.5696,363.496295 62.1576,363.496295 L62.1576,363.496295 Z M134.2026,429.997532 C135.0866,426.774911 134.7296,423.572616 133.2706,420.63557 C131.0106,416.091786 127.8126,412.243137 123.7056,409.277635 C119.7376,406.411728 115.1846,404.973693 110.5136,403.736881 C105.3746,402.3771 100.2816,402.275472 95.1176,403.368988 C88.2896,404.815153 82.1676,407.900577 76.3676,411.715688 C74.6456,412.847823 73.3646,414.466756 72.6946,416.410897 C71.6966,419.31339 70.8136,422.266697 70.0816,425.24846 C69.6916,426.839953 69.7206,428.537139 69.5246,430.559535 C91.0136,429.773951 112.1636,429.281056 133.3126,430.171316 C133.5406,430.181479 133.7706,430.084932 134.2026,429.997532 L134.2026,429.997532 Z M65.7266,162.01897 C66.7626,162.621623 67.6126,163.222244 68.5466,163.613511 C68.9766,163.793393 69.7126,163.754774 70.0696,163.48546 C72.8216,161.414283 75.1326,159.0555 75.4516,155.268844 C75.9566,149.283977 76.5056,143.300125 77.1866,137.333551 C77.8006,131.940158 76.7576,127.064051 73.7626,122.51417 C71.5296,119.12183 69.0826,115.955104 66.2986,113.017042 C62.2536,108.745621 58.3516,104.333953 54.3256,100.042207 C51.1866,96.6955998 47.9726,93.4221649 44.7486,90.1599091 C44.0196,89.4220905 43.0456,88.9342765 42.3146,88.1974742 C42.0236,87.9037695 42.0836,87.2482695 41.9836,86.758423 C42.4166,86.7563905 42.9116,86.6151277 43.2686,86.7807812 C43.9346,87.08973 44.5206,87.577544 45.4196,88.1761323 C43.7376,82.8660742 29.8506,58.1593137 27.3876,55.9519556 C26.8716,56.2903765 26.3286,56.6257486 25.8056,56.9905928 C19.6466,61.3077463 14.4666,66.7397579 9.2366,72.1057114 C7.7816,73.5986253 6.4536,75.2460137 5.2436,76.9523463 C1.4796,82.2603719 0.8456,88.0308044 3.3496,94.0278672 C6.8296,102.361356 12.6396,108.648058 20.6516,112.508902 C29.8106,116.92057 39.1446,120.963328 48.4556,125.039623 C55.0546,127.928904 61.7476,130.596637 68.3856,133.394453 C69.0366,133.667832 69.6266,134.121093 70.1976,134.554028 C71.2866,135.381279 72.4566,136.153651 71.5266,137.895553 C71.3086,138.304097 71.6446,138.9972 71.6656,139.562251 C71.8026,143.369232 71.9356,147.176214 72.0436,150.984211 C72.0896,152.586883 71.3196,153.703774 70.0306,154.615377 C67.2756,156.561551 64.5846,158.601223 61.8736,160.611423 C61.3346,161.010821 60.5726,161.311639 61.0286,162.484425 C61.7076,162.093158 62.3276,161.787258 62.8936,161.400056 C66.0746,159.225218 69.2316,157.00973 72.4336,154.866397 C72.8126,154.611311 73.4176,154.702777 73.9176,154.634686 C73.8476,155.121483 73.9156,155.693649 73.6826,156.079835 C72.8896,157.390835 71.9926,158.636793 71.1336,159.907142 C70.4896,160.858379 69.6576,161.473228 68.4976,160.99456 C67.4206,160.551463 66.6576,160.896997 65.7266,162.01897 L65.7266,162.01897 Z M238.3156,399.745953 C238.4846,398.611786 238.4766,397.829251 238.7236,397.139197 C241.2346,390.128904 241.2236,382.98243 239.8976,375.761767 C239.5326,373.771893 239.1636,373.500546 237.1436,373.675346 C236.7466,373.7099 236.3556,373.811528 235.9576,373.853195 C228.8076,374.610323 221.6646,375.452818 214.5026,376.086977 C209.1696,376.560563 203.8126,376.751623 198.4676,377.101223 C197.6416,377.155086 196.8266,377.391879 195.9036,377.562614 C196.1086,378.7354 196.2386,379.614481 196.4166,380.4834 C197.4966,385.73553 198.2256,391.032377 198.4936,396.400363 C198.9496,405.552972 198.0756,414.5694 196.0146,423.481151 C195.8076,424.375477 195.7636,425.308421 195.6146,426.448686 C225.6356,427.689563 255.3466,426.471044 285.0866,427.051339 C285.6366,425.011667 286.1806,423.31753 286.5456,421.584774 C288.1796,413.821418 285.4036,407.400567 278.7116,403.39033 C272.7786,399.83437 266.1296,398.324179 259.5766,396.551788 C259.4486,396.517235 259.2816,396.63309 259.0596,396.701181 C258.0506,398.409546 258.2756,400.736825 256.5636,402.570193 C254.8286,400.037625 257.4716,398.022344 256.8636,395.63917 C255.2546,395.183877 253.5296,394.697079 251.7066,394.181825 C251.5536,394.84139 251.4576,395.22656 251.3766,395.614779 C251.1306,396.804842 250.9656,398.020311 250.6076,399.173788 C250.4826,399.575218 249.8806,399.822174 249.4986,400.139253 C249.2876,399.679895 248.9256,399.226635 248.9046,398.75813 C248.8806,398.218486 249.1996,397.671728 249.2936,397.11379 C249.4806,396.016209 249.6166,394.908465 249.7806,393.750923 C247.2136,392.563909 244.8476,391.469377 242.2806,390.282363 C241.8446,392.128942 241.5806,393.813932 241.0346,395.398311 C240.5326,396.858704 240.7206,398.815042 238.3156,399.745953 L238.3156,399.745953 Z M211.3516,61.7345835 C210.0546,62.6167137 209.9746,62.5516719 207.1056,62.9205812 C199.2646,63.92873 191.3716,64.6726463 183.6146,66.150316 C170.7506,68.6005649 157.9366,71.3617951 145.1936,74.3882742 C141.2656,75.3212184 137.9696,75.0163347 134.4186,73.2713835 C131.0576,71.61993 127.4356,70.5152347 123.9176,69.2011858 C123.1636,68.9186602 122.3566,68.6259719 121.2706,69.1869579 C125.2026,72.5833626 130.4566,73.1209742 134.1016,76.8060021 C133.1316,77.9940323 131.9186,78.3842835 130.6886,78.5743277 C126.9896,79.1475091 123.4206,78.4320486 120.3326,76.4127021 C116.1746,73.6941556 112.2536,70.5995858 108.2276,67.6706695 C107.6176,67.2255393 106.9866,66.8088649 106.0726,66.1777556 C106.0456,67.7885579 106.8256,68.5040184 107.4826,69.2591137 C111.0036,73.3028881 115.0656,76.6992928 119.5806,79.5265812 C120.6716,80.210537 121.2546,80.9412416 120.7176,82.3782602 C119.3776,82.6750137 118.2326,82.2349649 117.1246,81.5337323 C113.1256,79.0021812 109.1286,76.4685974 105.1136,73.9655021 C104.1996,73.3963858 103.2136,72.9451579 102.2606,72.4400672 C102.1406,72.5894602 102.0196,72.737837 101.8996,72.8862137 C102.3506,73.491916 102.7216,74.1900998 103.2686,74.6870602 C105.0526,76.3080253 106.8336,77.9452509 108.7396,79.4117416 C111.4776,81.5195044 114.3306,83.4717765 117.1166,85.5144974 C117.7436,85.9748719 118.2956,86.5378905 118.8676,87.0378998 C117.6556,88.7635416 117.5576,88.8417951 115.9266,87.9688114 C112.8886,86.34683 109.8956,84.6374486 106.8746,82.9809137 C106.3916,82.7156649 105.8626,82.5367998 105.3556,82.3172835 C106.8816,84.5073649 108.8816,85.95353 110.9726,87.2950184 C113.0666,88.6385393 115.1426,90.0094998 117.2116,91.3916393 C117.8486,91.8174602 118.4206,92.46483 117.8486,93.182323 C117.5496,93.55733 116.7546,93.6020463 116.1746,93.6396486 C115.8106,93.663023 115.4186,93.4130184 115.0536,93.2524463 C112.7126,92.2158416 110.3786,91.1650091 108.0366,90.1324695 C107.5156,89.9038067 106.9716,89.730023 106.0926,89.4017649 C107.7296,91.4810719 109.3516,92.8347556 112.1716,93.8357905 C116.2356,95.2768742 120.3346,96.6844207 124.5156,97.6946021 C129.8106,98.9740974 135.2406,99.3592672 140.6996,99.2159719 C150.2856,98.9619021 159.8786,98.9019416 169.4586,98.4984788 C179.2766,98.0848533 189.0766,97.2830091 198.8906,96.7890974 C205.3556,96.4638881 211.8316,96.3653091 218.3036,96.197623 C221.9966,96.1010765 225.3686,95.0370323 228.4536,92.9780509 C230.0436,91.9160393 231.1316,90.4901998 231.8646,88.7035812 C233.3016,85.1994509 233.4546,81.6922719 232.5326,77.9950486 C230.7506,70.8536556 227.3246,64.5730509 223.0206,58.7639998 C221.4096,56.5891626 219.3676,54.7456323 217.4746,52.6998626 C212.0036,55.7110974 206.3086,57.6349137 200.9626,61.5191323 C201.9466,61.5191323 202.3816,61.5516533 202.8106,61.5130347 C205.0376,61.3097788 207.2656,61.1187184 209.4866,60.8565184 C210.3366,60.7559067 211.0836,60.6603765 211.3516,61.7345835 L211.3516,61.7345835 Z M214.3866,45.1001277 C213.5616,44.0726695 213.0076,43.3002974 212.3736,42.6051626 C207.3696,37.1274184 202.3536,31.659837 197.3326,26.197337 C192.3156,20.734837 187.3946,15.1747742 182.2136,9.8769114 C180.1036,7.71731837 177.5256,5.96626953 174.9736,4.33107651 C171.7556,2.26701372 168.1116,1.53630907 164.3716,2.39506488 C157.9916,3.86257186 151.6526,5.51809047 145.3016,7.11771372 C144.4696,7.32706721 143.6716,7.67565093 142.7876,7.98459977 C142.8366,8.87689279 142.8736,9.68076953 142.9276,10.4826137 C143.1806,14.223537 143.2236,17.95633 142.3796,21.6393253 C141.6976,24.617023 140.5556,27.3436998 138.2456,29.4463812 C136.8776,30.691323 135.3486,31.3264974 133.4836,31.4017021 C129.2766,31.572437 126.1496,29.4971951 123.3866,26.6201091 C119.1376,22.1972626 116.2006,16.9095626 113.7326,11.3190114 C113.4856,10.7610742 113.1686,10.2336253 112.8906,9.70516023 C99.9316,13.5649881 87.1226,17.2378207 74.9886,23.0265463 C62.8916,28.7990114 51.4466,35.6873509 40.2336,42.60313 C40.2016,43.1448067 40.1236,43.3490788 40.1916,43.4598533 C47.1986,54.788316 51.8256,67.2773695 57.1746,79.4137742 C57.4646,80.072323 57.8276,80.6973347 58.2276,81.477837 C64.6816,78.455423 71.0526,75.4716277 77.4236,72.4898649 C77.6416,72.388237 77.8676,72.3028695 78.0946,72.2276649 C79.6756,71.7042812 80.2866,72.1229881 80.4206,73.8577765 C80.4646,74.4228277 80.4396,74.9949928 80.4266,75.5630928 C80.3456,79.0540114 80.2216,82.5439137 80.1816,86.033816 C80.1226,91.2463114 79.6336,96.404944 78.6776,101.529023 C77.8596,105.9163 76.9386,110.301544 76.4906,114.731504 C76.1836,117.763065 76.0206,121.049711 76.8656,123.89326 C77.7806,126.97157 79.1746,129.896421 79.2126,133.207458 C79.6076,133.227783 79.8616,133.306037 80.0736,133.240995 C83.8046,132.091583 87.5286,130.919814 91.2586,129.765321 C94.4536,128.777497 97.6226,127.679916 100.8576,126.85673 C105.9016,125.574186 111.0266,124.747951 116.2376,124.518272 C122.9096,124.225583 129.4566,125.1443 136.0196,126.2368 C142.4796,127.311007 148.9706,128.336432 155.4896,128.855751 C166.0076,129.693165 176.1596,127.601663 186.0016,123.861756 C187.1736,123.415609 188.3456,122.971495 189.5736,122.506039 C189.4766,121.675739 189.4436,121.032435 189.3196,120.407423 C188.9066,118.340311 188.5406,116.258972 188.0086,114.222349 C186.9436,110.148086 185.9456,106.042318 184.6056,102.059521 C183.5406,98.8907626 183.6446,99.4100812 180.8596,99.5239044 C179.8206,99.5665881 178.7786,99.5787835 177.7456,99.6804114 C167.6266,100.667218 157.4886,101.127593 147.3246,101.035111 C146.3666,101.025965 145.4076,101.070681 144.4506,101.124544 C139.4906,101.397923 134.5436,101.310523 129.6476,100.40197 C126.8196,99.8765533 123.9976,99.2860951 121.2116,98.5665695 C118.4296,97.847044 115.6076,97.1488602 112.9686,96.0360347 C110.4856,94.9892672 108.1886,93.4638323 105.8736,92.0390091 C105.1496,91.5948951 104.4566,90.8895974 104.0806,90.1334858 C103.7666,89.5023765 103.7166,88.5440253 103.9496,87.8732812 C104.2486,87.0063951 105.1456,86.9322067 106.0036,87.1486742 C106.3986,87.2472533 106.8096,87.2767253 107.6566,87.4047765 C106.5906,86.452523 105.8396,85.8539347 105.1746,85.1709951 C104.1656,84.1343905 103.1186,83.1069323 102.2836,81.9310974 C101.9506,81.4615765 101.9146,80.5133881 102.1446,79.9554509 C102.4506,79.216616 103.2596,79.1475091 104.0206,79.4656044 C104.5826,79.7023974 105.1576,79.9087021 105.7256,80.1292347 C105.2906,79.1373463 104.5566,78.5743277 103.9486,77.8964695 C102.664591,76.4645323 101.3896,75.0163347 100.2236,73.4858184 C99.6506,72.7327556 99.6746,71.7733881 100.3266,70.9989835 C100.9986,70.2001881 101.9076,70.283523 102.7626,70.5884067 C103.4366,70.8272323 104.0526,71.2296788 104.7056,71.5365951 C105.2406,71.7896486 105.7906,72.0081486 106.3346,72.2418928 C106.1816,71.61993 105.8496,71.2733788 105.5876,70.8800788 C104.8316,69.7438788 104.0226,68.6320695 103.3876,67.4277788 C102.8856,66.4785742 103.1336,65.5181905 103.9596,64.7895184 C104.7536,64.0882858 105.6306,63.8494602 106.6016,64.4256905 C107.2226,64.7945998 107.8616,65.1391184 108.4496,65.5557928 C111.1356,67.4633486 113.7536,69.4755812 116.5006,71.2876067 C118.7686,72.7835695 121.1106,74.2063602 123.5556,75.3639021 C125.1496,76.1179812 126.9816,76.4767277 129.2106,75.6758998 C128.3306,75.2094277 127.8066,74.9136905 127.2676,74.6494579 C125.6146,73.8374509 123.9126,73.1148765 122.3146,72.2032742 C121.4296,71.6991998 120.5776,70.9928858 119.9736,70.17783 C119.5566,69.6137951 119.3486,68.6574765 119.4826,67.9643742 C119.6586,67.0527719 120.6266,66.8576463 121.4416,66.969437 C122.9336,67.1747253 124.4766,67.3210695 125.8786,67.8312416 C129.3346,69.0873626 132.7406,70.4959253 136.1336,71.9217649 C138.8776,73.0762579 141.6096,73.3537021 144.5476,72.6748277 C154.6696,70.3363695 164.8196,68.12393 174.9566,65.8616928 C176.3226,65.5578253 177.6826,65.2356649 179.1516,64.8982602 C178.9176,63.8972253 178.7746,63.18583 178.5846,62.4876463 C177.3976,58.0963044 176.0636,53.7618742 173.8036,49.7851742 C173.3586,49.001623 172.8966,48.178437 174.3556,47.5209044 C178.1246,52.1856253 178.9066,58.1755742 181.0336,63.8149067 C191.5246,56.2039928 202.8766,50.8146649 214.3866,45.1001277 L214.3866,45.1001277 Z M127.0696,172.372821 C125.8106,172.099442 124.9566,171.909397 124.1016,171.7285 C120.2726,170.921574 116.4386,170.142088 112.6236,169.274186 C112.2196,169.182721 111.9286,168.584132 111.5866,168.220304 C111.9926,167.930665 112.3726,167.463177 112.8106,167.399151 C113.3286,167.321914 113.8926,167.605456 114.4416,167.711149 C119.2996,168.65019 124.1326,169.790456 129.0296,170.442907 C132.0046,170.838239 135.0796,170.507949 138.1086,170.449004 C141.6066,170.378881 144.2226,171.644149 145.9086,174.9623 C149.4986,182.029504 153.3636,188.956463 156.8956,196.053139 C161.2926,204.891718 165.3506,213.905097 169.7796,222.727416 C173.0086,229.162495 176.6156,235.400416 180.0246,241.743014 C181.9576,245.340642 183.1606,249.162867 183.6386,253.265586 C185.0756,265.598132 186.5656,277.924581 188.1276,290.241883 C190.1296,306.015551 192.2136,321.779056 194.2876,337.543577 C194.6746,340.493835 195.1806,343.427832 195.6396,346.41366 C210.0366,344.78863 224.1246,343.19917 238.3606,341.592432 C238.3056,340.745872 238.2716,340.194032 238.2356,339.641177 C237.8416,333.725416 237.4066,327.810672 237.0646,321.890846 C236.6426,314.592946 236.3416,307.2859 235.9086,299.988 C235.3786,291.070151 234.7376,282.159416 234.2006,273.241567 C233.8056,266.674372 233.4626,260.103111 233.1666,253.531851 C232.9316,248.295981 232.0386,243.220683 230.1066,238.338479 C226.6496,229.602544 223.3306,220.807665 219.7856,212.109332 C214.2526,198.53286 208.6826,184.971632 202.9256,171.492723 C199.9686,164.570846 196.5756,157.841046 193.3786,151.024863 C193.1136,150.456763 192.8486,149.887646 192.5566,149.264667 C186.4876,149.818539 181.5976,146.904867 176.8506,143.925137 C171.9536,140.851909 168.9746,136.003242 166.7526,130.843593 C166.2716,130.790746 166.0336,130.72977 165.7996,130.745014 C156.3156,131.392383 146.9706,130.234842 137.6766,128.468549 C128.9276,126.8049 120.1586,125.598577 111.2376,126.863844 C106.9736,127.46853 102.7256,128.144356 98.6526,129.463486 C97.9026,144.871293 89.7666,151.856179 78.1616,155.485311 C78.1126,155.905035 78.0346,156.376588 78.0046,156.85119 C77.4186,166.171486 76.8176,175.489749 76.2636,184.81106 C75.8436,191.864037 75.5096,198.922095 75.0946,205.976088 C74.1856,221.377797 73.2446,236.777474 72.3266,252.179183 C71.5196,265.717037 70.7266,279.25489 69.9296,292.791728 C69.1276,306.4119 68.3346,320.030039 67.5236,333.649195 C67.1086,340.62087 66.6286,347.588479 66.2486,354.563202 C66.1256,356.808163 66.2286,359.065318 66.2286,361.475932 C66.7136,361.519632 67.2516,361.591788 67.7926,361.614146 C73.3436,361.845858 78.8066,361.144625 84.1886,359.842772 C87.6826,358.997228 91.1446,358.008388 94.5966,356.998207 C101.8866,354.865037 109.3686,354.378239 116.8906,354.15669 C118.9386,354.097746 120.9846,353.934125 123.1976,353.80709 C124.4916,293.17893 125.7786,232.853621 127.0696,172.372821 L127.0696,172.372821 Z M128.4156,432.354283 C129.4216,432.813642 130.3926,433.419344 131.4476,433.691707 C132.4826,433.961021 133.4156,433.61447 133.7436,431.989439 C131.8016,432.143914 130.0806,432.279079 128.3586,432.41526 C127.6226,432.200825 126.8966,431.849193 126.1506,431.800411 C124.3986,431.681507 122.6376,431.668295 120.8806,431.681507 C108.4186,431.778053 95.9566,431.889844 83.4956,432.011797 C83.0076,432.015863 82.5196,432.177451 81.5736,432.349202 C82.8526,433.294342 83.6656,434.104316 84.6376,434.570788 C86.5936,435.50983 87.9946,433.529102 89.5646,433.274016 C90.4756,433.977281 91.2016,434.974251 91.9686,435.008804 C92.7216,435.042342 93.5296,434.116511 94.2906,433.577883 C94.9526,433.108363 95.6446,432.917302 96.2336,433.565688 C97.9586,435.461049 99.8256,435.022016 101.6456,433.874637 C102.9546,433.050435 104.0166,433.083972 105.3946,433.845165 C107.1906,434.837053 109.0856,434.70697 110.7246,433.203893 C111.1246,432.838032 111.6286,432.589044 112.1576,432.237411 C114.9416,434.481356 117.7726,434.212042 120.6736,432.588028 C121.0936,432.353267 121.8466,432.252656 122.2136,432.479286 C124.3316,433.785204 126.3566,433.223202 128.4156,432.354283 L128.4156,432.354283 Z M240.3116,341.144253 C244.1136,341.236735 243.9666,341.23267 243.8716,345.149409 C243.7846,348.714516 244.0656,352.28877 244.1726,355.858958 C244.1976,356.661818 244.1766,357.466711 244.1766,358.591732 C241.5236,358.750272 238.9346,358.904746 236.1626,359.0704 C236.1076,359.678135 236.0356,360.291967 236.0006,360.908849 C235.8396,363.747316 235.6956,366.585783 235.5336,369.423235 C235.4966,370.065523 235.5136,370.864318 234.5856,370.770821 C233.7516,370.687486 233.7076,369.958814 233.7506,369.275874 C233.8966,366.925221 234.0636,364.575583 234.1876,362.222897 C234.2376,361.26353 234.1956,360.300097 234.1956,359.386463 C229.9186,358.250263 202.9996,361.459672 196.7746,363.819472 C196.3186,367.48519 196.8636,371.181397 197.1376,375.199765 C197.9546,375.199765 198.7206,375.252611 199.4796,375.191635 C209.8376,374.371497 220.1966,373.557458 230.5496,372.68549 C233.0156,372.47817 235.4586,372.008649 237.9216,371.755595 C240.7246,371.467988 240.9276,371.637707 241.4296,374.372514 C242.2506,378.849223 242.7266,383.360486 242.4886,388.203056 C244.5346,389.254904 246.6336,390.335209 249.0346,391.568972 C249.0346,390.647207 248.9486,390.102481 249.0646,389.605521 C249.1386,389.284377 249.4876,388.836197 249.7516,388.806725 C250.0436,388.774204 250.6336,389.122788 250.6616,389.358565 C251.0956,393.09339 254.1596,392.972453 256.6706,393.658442 C256.7446,393.678767 256.8306,393.652344 257.2586,393.622872 C257.0396,392.092356 256.8256,390.585214 256.6036,389.034372 C258.4826,389.261002 258.4826,389.261002 259.3586,394.434879 C260.4386,394.796674 261.6236,395.220463 262.8266,395.589372 C265.6546,396.453209 268.5566,397.115823 271.3056,398.185965 C274.4246,399.401435 277.4886,400.82016 280.4356,402.418767 C287.8866,406.463558 289.5276,414.846844 288.5486,420.978056 C288.3446,422.253486 287.8226,423.481151 287.6566,424.758614 C287.4526,426.327749 287.2676,427.948714 287.4336,429.507686 C287.7486,432.45896 285.0196,435.490521 282.1416,434.901079 C280.5906,434.585016 279.2156,434.638879 277.7156,435.073846 C275.5326,435.710037 273.4396,435.248646 271.5456,433.949842 C271.0876,433.634795 270.6376,433.307553 270.0956,432.9234 C267.7266,434.178504 265.2136,435.16836 262.5416,434.693758 C259.9786,434.239481 257.4876,433.366497 254.4826,432.545344 C250.7996,434.981365 246.6456,434.251677 242.6256,431.838014 C241.7796,432.425423 241.0896,432.987425 240.3276,433.415279 C238.4496,434.471193 236.5006,434.439688 234.5606,433.592111 C233.8136,433.265886 233.1946,432.995556 232.3336,433.498614 C229.2376,435.308607 226.2126,434.897014 223.3116,432.93153 C223.0476,432.752665 222.7626,432.608353 222.3376,432.358349 C219.2876,434.788272 216.0446,434.43359 212.7216,432.811609 C212.2226,432.568718 211.3856,432.49453 210.9456,432.757746 C207.7356,434.673432 204.6726,434.125658 201.6246,432.40713 C201.4926,432.332942 201.3276,432.318714 201.1446,432.2679 C200.9546,432.369528 200.7236,432.452863 200.5386,432.59819 C199.0156,433.790286 197.3636,434.320783 195.6996,433.055516 C193.9566,431.729272 192.8906,429.982288 193.3356,427.609277 C194.2056,422.986223 195.1946,418.381463 195.8976,413.731986 C197.4176,403.682002 197.0006,393.65336 195.1956,383.669435 C194.8916,381.99359 194.5516,380.323844 194.2406,378.649016 C194.0266,377.496556 193.3906,376.250597 195.0136,375.51786 C195.2206,375.424363 195.2846,374.798335 195.2656,374.427393 C195.0946,371.03607 194.8916,367.645763 194.6906,364.115209 C194.2476,364.075574 193.8706,364.0522 193.4966,364.0085 C191.8096,363.809309 191.2646,363.46479 191.1536,361.841793 C190.8776,357.792937 190.6936,353.734935 190.6086,349.677949 C190.5696,347.83137 190.9186,347.582381 192.7466,347.057981 C193.0466,346.971597 193.3436,346.873018 193.8536,346.715495 C193.4806,344.068088 193.0936,341.445072 192.7456,338.816974 C191.6906,330.851379 190.6406,322.884767 189.6056,314.916123 C188.5596,306.870242 187.5186,298.823344 186.5026,290.773397 C185.0896,279.5801 183.5116,268.403063 182.3776,257.180293 C181.7356,250.8255 180.1166,244.962586 176.9136,239.469597 C168.5086,225.057744 161.5196,209.908072 154.3976,194.822425 C151.3266,188.314174 147.6646,182.095563 144.3446,175.7052 C143.1136,173.333204 141.2336,172.299649 138.7016,172.36469 C135.6036,172.444977 132.5066,172.598435 129.2176,172.727502 C129.0856,173.903337 128.8946,174.92673 128.8696,175.956221 C128.6846,183.427904 128.5316,190.902637 128.3736,198.375337 C127.8886,221.2843 127.4076,244.194279 126.9226,267.103242 C126.4536,289.361786 125.9836,311.621346 125.5056,333.87989 C125.3886,339.323081 125.2346,344.765256 125.1086,350.20743 C125.0816,351.32737 125.1046,352.448325 125.1046,353.398546 C125.3936,353.606883 125.4516,353.681072 125.5176,353.691235 C129.0966,354.228846 129.1796,354.218683 129.5666,357.869158 C129.9426,361.414956 130.0996,364.98616 130.4056,368.541104 C130.5576,370.318577 130.8776,372.080804 131.0176,373.859293 C131.0836,374.716016 130.9076,375.592049 130.8316,376.580888 C124.9596,377.402042 119.2776,378.197788 113.3316,379.031137 C113.2456,380.534214 113.1606,382.031193 113.0696,383.598295 C113.4986,383.854397 113.8436,384.032246 114.1596,384.253795 C115.7166,385.349344 116.3816,385.249749 115.7586,388.141063 C114.5926,393.547667 115.0926,398.795732 118.5836,403.435046 C119.3396,404.43913 120.1276,405.245039 121.2356,405.782651 C127.1656,408.666851 131.3046,413.434216 134.5066,419.100988 C136.3576,422.375439 136.8206,425.974083 136.2146,429.704844 C136.1376,430.182495 136.0116,430.660146 136.0016,431.138814 C135.9406,434.244563 133.5106,436.310658 130.6016,435.363486 C128.8626,434.798435 127.2776,434.516925 125.5256,435.02913 C125.0126,435.178523 124.3346,435.1958 123.8696,434.976283 C122.1286,434.156146 120.5816,434.645993 118.8776,435.225272 C116.6296,435.989514 114.3006,435.818779 112.1296,434.596195 C109.5116,436.382814 106.8246,436.748674 103.9536,435.306574 C103.5666,435.111449 102.8686,435.298444 102.4226,435.52609 C99.9916,436.767983 97.5926,437.209049 95.1856,435.375681 C93.1336,437.125714 91.0756,437.89707 89.1036,435.435642 C86.1636,437.233439 83.6076,436.905181 81.2576,434.412249 C78.8846,435.611458 76.4676,436.382814 74.1296,434.501681 C72.7316,435.069781 71.4136,435.951911 70.0366,434.721197 C68.5336,433.377677 67.4546,431.809558 67.6976,429.647932 C68.1796,425.364316 69.0926,421.197572 70.4536,417.085707 C72.6166,410.550016 73.6676,403.895421 71.4156,397.075172 C70.5026,394.310893 69.8556,391.454132 69.1156,388.632942 C68.5336,386.412372 68.8386,385.91846 70.9726,385.453004 C71.3496,385.370686 71.7246,385.28227 72.3066,385.150153 C72.2256,383.811714 72.1486,382.546446 72.0496,380.927514 C70.9326,380.927514 69.9206,380.979344 68.9156,380.916335 C66.7626,380.780153 64.6066,380.653118 62.4666,380.398032 C60.0296,380.10636 59.5596,379.598221 59.6196,377.129679 C59.7296,372.583863 59.9506,368.041095 60.1346,363.499344 C60.1476,363.177183 60.2306,362.858072 60.2966,362.540993 C60.6766,360.715756 60.6876,360.713723 62.4776,361.048079 C62.9326,361.13243 63.3946,361.175114 63.9916,361.257432 C64.1016,360.581607 64.2376,360.049077 64.2696,359.510449 C64.9586,347.670797 65.6266,335.831146 66.3196,323.993528 C67.4496,304.692356 68.5936,285.393216 69.7326,266.094077 C70.3636,255.391642 70.9906,244.687174 71.6316,233.985756 C72.5456,218.742586 73.4686,203.501449 74.3926,188.259295 C74.6666,183.719577 75.0036,179.18189 75.2226,174.640139 C75.3236,172.536442 75.2046,170.422581 75.1946,168.313802 C75.1866,166.550558 75.1936,164.786297 75.1936,162.971223 C73.9716,162.4204 73.4116,163.27509 72.7856,163.989535 C70.6916,166.384904 69.8596,166.540395 67.0526,165.027156 C65.9296,164.421453 64.8306,163.771035 63.7576,163.162283 C62.8526,163.575909 62.0846,164.036283 61.2556,164.282223 C59.5066,164.800525 58.3096,163.734449 58.8046,161.943765 C59.1316,160.765897 59.9716,159.734374 60.6876,158.446749 C59.7246,154.97209 59.7246,154.97209 61.4336,153.84707 C61.9076,152.804367 62.0566,151.747437 62.6316,151.379544 C63.6146,150.750467 64.3786,151.734225 65.0646,152.396839 C65.6986,153.006607 66.2856,153.665156 66.9006,154.311509 C69.5016,153.32267 70.7616,151.586865 70.5076,148.724007 C70.2286,145.571509 70.1236,142.404783 69.9016,139.246188 C69.7396,136.948381 68.6896,135.387377 66.4606,134.491018 C61.1136,132.342604 55.8106,130.078335 50.5276,127.771381 C40.5486,123.415609 30.5246,119.154351 20.6536,114.556704 C12.6336,110.820863 6.5496,104.816686 2.5486,96.7606416 C-1.5224,88.5633347 -0.7644,80.7948974 5.1696,73.8811509 C11.1676,66.893216 17.7046,60.4337463 25.2356,55.1043788 C25.6196,54.832016 25.9796,54.5250998 26.4596,54.1500928 C26.0616,53.5504881 25.7286,53.0250719 25.3736,52.5148998 C24.0936,50.6734021 24.0646,50.4569347 25.7726,48.8654416 C27.6576,47.1082951 29.6316,45.450744 31.5676,43.7535579 C32.4756,42.9567951 33.4176,42.1976347 34.2916,41.3663184 C36.3366,39.420144 36.3246,39.405916 38.7776,41.230137 C39.9206,40.5258556 41.1166,39.7484021 42.3486,39.0349742 C50.5386,34.2879347 58.5716,29.2248323 66.9746,24.9036137 C76.9416,19.7775021 87.1036,15.0091207 98.0556,12.2641509 C102.3866,11.1787649 106.6066,9.6289393 110.8616,8.23968581 C111.8916,7.90329744 112.8576,7.36466953 113.8446,6.92258814 C114.9746,9.49580674 115.8266,12.0456509 117.1496,14.3099207 C119.1436,17.7185207 121.2816,21.0803719 123.7216,24.1637626 C125.1286,25.9412347 127.0926,27.4341486 129.0866,28.5286812 C133.2156,30.7949835 136.9696,29.5226021 139.1946,25.3152067 C141.3476,21.240944 141.6186,16.7865928 141.3616,12.2773626 C141.2876,10.982623 141.0686,9.69804628 140.9036,8.40940442 C140.6926,6.75185326 140.8446,6.39717186 142.3996,5.94086256 C143.9296,5.48963465 145.5056,5.20406023 147.0536,4.81177651 C152.0106,3.55768814 156.9706,2.31986023 161.9156,1.01699047 C168.6476,-0.757432791 174.6686,0.875727674 179.8406,5.31788349 C183.7376,8.66550674 187.3926,12.3383393 190.8986,16.1127998 C198.2516,24.0285974 205.4376,32.1059835 212.6876,40.1203602 C213.2826,40.7778928 213.8726,41.4445719 214.4036,42.1549509 C215.3606,43.4354626 216.3066,44.3755207 218.1856,43.9263253 C219.5596,43.5980672 222.8456,46.4873486 222.7866,47.8999765 C222.7506,48.7516184 222.1206,49.6723672 221.5396,50.374616 C221.0566,50.9579602 220.2546,51.2689416 219.3346,51.8695626 C220.1666,52.7933602 220.8936,53.6114649 221.6316,54.4173742 C228.6146,62.0475974 233.3596,70.902437 234.7926,81.2471416 C235.5616,86.7889114 233.6566,91.6700998 228.7276,94.8622323 C225.4796,96.96593 221.9076,97.9669649 218.0596,98.0614788 C212.6236,98.1946114 207.1886,98.3633137 201.7536,98.5472602 C196.9586,98.7088486 192.1656,98.9049905 187.3726,99.1041812 C186.8426,99.1265393 186.3176,99.2647533 185.8496,99.3399579 C185.7956,99.6539881 185.7046,99.8359021 185.7526,99.9598881 C188.3236,106.474237 189.6066,113.340218 191.1326,120.142174 C191.3376,121.05276 191.8246,121.898304 192.2306,122.895274 C191.0806,124.439002 188.9596,124.323146 187.3266,125.706302 C187.5506,127.113849 187.6386,128.737863 188.0786,130.256183 C191.5366,142.209658 196.1986,153.654993 201.7416,164.7802 C205.2376,171.798623 208.2226,179.091442 211.2106,186.355804 C217.5256,201.713814 223.7676,217.10536 229.8716,232.551786 C231.6216,236.977681 232.9206,241.602767 234.1776,246.207528 C234.7476,248.289883 234.7986,250.540942 234.9276,252.725942 C235.4956,262.293193 235.9976,271.865525 236.5396,281.434809 C237.3326,295.463525 238.1276,309.492242 238.9526,323.520958 C239.2476,328.547474 239.6196,333.568909 239.9746,338.592377 C240.0326,339.399302 240.1836,340.198097 240.3116,341.144253 L240.3116,341.144253 Z" id="Fill-1"/></g><path d="M130.157074,158 C129.6851,156.578735 130.341628,156.25231 131.263388,156.16817 C132.627877,156.044493 133.99539,155.949202 135.361896,155.840732 C135.924634,155.796127 136.48838,155.763687 137.05011,155.70489 C140.117939,155.381507 140.533437,154.893897 140.064489,151.869908 C139.256688,146.672457 138.396445,141.482103 137.557381,136.288707 C137.325428,134.85325 137.055152,133.422861 136.8827,131.980308 C136.844377,131.655911 137.144908,131 137.29013,131 C137.695544,130.997993 138.290553,131.14904 138.465022,131.445052 C138.779672,131.977267 138.90069,132.650391 139.000531,133.280938 C139.945487,139.276202 140.873299,145.275522 141.793043,151.274842 C141.902968,151.993584 141.973562,152.724491 141.993732,153.451344 C142.058276,155.732261 141.648828,156.543254 139.616719,157.078509 C136.50149,157.89964 133.291464,157.900653 130.157074,158" id="Fill-4"/><path d="M240,389.124075 C239.513456,389.541645 239.1219,390.079988 238.941425,389.99005 C238.568865,389.802465 238.307124,389.283394 238,388.900515 C238.269129,388.579308 238.603694,387.945887 238.795778,388.003704 C239.182058,388.119339 239.490237,388.615283 240,389.124075" id="Fill-6"/><path d="M237.996504,384 C237.572067,383.509696 237.286649,383.177077 237,382.84569 C237.430588,382.54387 237.83288,382.149655 238.311448,382.001825 C238.448006,381.959939 239.024994,382.649815 238.999159,382.97381 C238.975784,383.292878 238.443085,383.571292 237.996504,384" id="Fill-8"/></g></g></g><g id="Head" transform="translate(275.000000, 91.000000) scale(1 1)" fill="#000"><g id="Head/Long Hair" stroke="none" stroke-width="1" fill="none" fill-rule="evenodd"><path d="M-2.55837564,27.1477722 C-4.92837564,28.2197722 -6.17537564,28.3137722 -7.42937564,28.7217722 C-18.3953756,32.2957722 -33.6343756,24.4237722 -36.3233756,37.8327722 C-35.9933756,34.8567722 -34.5413756,31.4077722 -28.7073756,28.8147722 C-26.0623756,27.6397722 -22.1963756,27.8247722 -18.1023756,28.0207722 C-12.8793756,28.2717722 -7.47937564,28.5297722 -3.54137564,26.1487722 C-1.99637564,25.2157722 -0.781375639,23.8827722 0.185624361,22.4367722 C0.126624361,22.7817722 0.0996243607,23.1517722 0.114624361,23.5477722 C0.120624361,23.7227722 0.143624361,23.8897722 0.163624361,24.0597722 C-0.340375639,25.3907722 -1.36037564,26.6057722 -2.55837564,27.1477722 M-41.0673756,58.0077722 C-56.1683756,62.8417722 -59.9463756,74.2677722 -55.7823756,83.9347722 C-56.5233756,83.0567722 -57.3033756,81.8947722 -58.1203756,80.4457722 C-64.6243756,68.9057722 -49.9953756,59.8087722 -42.1343756,54.9207722 C-41.7003756,54.6517722 -41.2863756,54.3937722 -40.8933756,54.1477722 C-37.5513756,52.0487722 -36.2793756,49.6877722 -35.8993756,47.3627722 C-35.3793756,51.3307722 -35.6443756,56.2727722 -41.0673756,58.0077722 M1.52562436,20.1477722 C1.50362436,20.1647722 1.48162436,20.1797722 1.46062436,20.1967722 C1.49262436,20.1277722 1.52662436,20.0607722 1.55862436,19.9917722 C1.54662436,20.0447722 1.53662436,20.0957722 1.52562436,20.1477722 M35.0556244,30.5207722 C32.9826244,27.4437722 32.7156244,24.0787722 32.8886244,20.4097722 C32.8896244,20.3867722 32.8926244,20.3627722 32.8936244,20.3397722 C32.9566244,19.7947722 33.0146244,19.2497722 33.0636244,18.7037722 C33.5356244,15.3267722 34.6256244,11.1157722 32.8646244,7.35477222 C31.7876244,5.44577222 30.2156244,4.01877222 28.2216244,3.00477222 C25.2286244,1.48277222 18.5226244,-0.396227778 12.3486244,2.56277222 C10.5476244,3.35277222 8.99762436,4.42677222 7.75062436,5.82877222 C5.97162436,7.82877222 4.51462436,10.7437722 3.41462436,13.6877722 L3.29062436,13.6697722 C3.28862436,13.6847722 3.24362436,13.9657722 3.15062436,14.4137722 C2.63262436,15.8757722 2.20562436,17.3237722 1.87162436,18.6567722 C1.60162436,19.3337722 1.28362436,20.0337722 0.915624361,20.7327722 C0.705624361,20.9977722 0.535624361,21.3027722 0.404624361,21.6437722 C-0.601375639,23.3127722 -1.92937564,24.8827722 -3.67037564,25.9357722 C-7.54437564,28.2757722 -12.9053756,28.0197722 -18.0903756,27.7707722 C-22.2153756,27.5737722 -26.1103756,27.3867722 -28.8093756,28.5867722 C-35.5803756,31.5957722 -36.5593756,35.7507722 -36.6563756,39.0347722 C-36.6643756,39.3337722 -36.6483756,39.6497722 -36.6223756,39.9737722 C-36.6893756,40.7017722 -36.7373756,41.4617722 -36.7433756,42.2937722 C-36.7473756,43.0197722 -36.3453756,44.5487722 -36.0423756,46.3917722 C-36.2193756,48.9557722 -37.3293756,51.6137722 -41.0263756,53.9357722 C-41.4183756,54.1817722 -41.8323756,54.4397722 -42.2663756,54.7097722 C-50.1983756,59.6407722 -64.9593756,68.8197722 -58.3363756,80.5687722 C-57.3253756,82.3657722 -56.3613756,83.7227722 -55.4483756,84.6597722 C-50.0423756,96.0037722 -33.6103756,104.583772 -11.7683756,96.4947722 C3.68362436,90.0767722 12.0206244,72.0107722 10.3316244,57.7947722 C9.15662436,47.9107722 6.23462436,45.0357722 5.30762436,40.9877722 C5.80662436,37.6277722 6.23362436,34.2567722 6.53562436,30.8647722 C6.75462436,28.4007722 6.72762436,28.3267722 4.35862436,27.0997722 C2.53562436,26.1547722 1.47762436,24.1267722 2.12762436,22.5777722 C2.34862436,22.0487722 2.89062436,21.3967722 3.37562436,21.3127722 C3.80562436,21.2377722 4.40662436,21.8177722 4.84162436,22.2097722 C5.12262436,22.4607722 6.42662436,23.8347722 6.92562436,24.1297722 C7.15562436,23.6697722 7.51562436,23.2307722 7.59262436,22.7467722 C7.61062436,22.6317722 7.62562436,22.5167722 7.64262436,22.4017722 C7.86062436,21.7867722 8.07562436,21.1247722 8.19662436,20.6907722 C8.92362436,18.0827722 9.53862436,15.4267722 10.4946244,12.9027722 C11.4056244,10.4987722 13.2486244,10.8997722 15.9156244,10.6807722 C18.2906244,10.4857722 23.5726244,9.86077222 25.1606244,7.48977222 C26.0876244,9.79677222 27.2536244,10.4277722 28.2106244,10.9157722 C31.2616244,12.4727722 31.1626244,16.5607722 30.9176244,18.3437722 C29.9506244,25.3817722 28.7856244,32.3887722 25.1166244,38.6657722 C25.0306244,38.8117722 24.9616244,38.9577722 24.9006244,39.1037722 C23.9366244,39.6757722 22.7466244,39.6657722 21.0356244,39.1387722 C18.8116244,38.4527722 16.6916244,37.5447722 14.8946244,35.9997722 C14.3796244,35.5567722 13.7356244,34.8127722 13.0886244,35.6677722 C12.4996244,36.4477722 13.2536244,37.0157722 13.8126244,37.4267722 C14.7726244,38.1337722 15.7536244,38.8417722 16.8126244,39.3777722 C19.3276244,40.6517722 21.9456244,41.5787722 24.7886244,41.1967722 C24.8426244,41.4157722 24.9116244,41.6377722 25.0016244,41.8647722 C25.9306244,44.2407722 26.7126244,46.6747722 27.5766244,49.0777722 C27.6256244,49.2127722 27.6876244,49.3477722 27.7426244,49.4807722 C28.1906244,51.0557722 28.6396244,52.6287722 29.1046244,54.1987722 C29.3746244,55.1107722 29.3116244,56.3127722 31.2076244,56.7877722 C31.0626244,55.6927722 31.0476244,54.9227722 30.8506244,54.2027722 C30.4916244,52.8967722 30.1216244,51.5937722 29.7536244,50.2907722 C32.7576244,48.3487722 34.9456244,45.9177722 36.1636244,42.4347722 C36.7496244,40.7577722 38.9246244,34.5857722 35.0556244,30.5207722" id="Fill-10" fill="#000"/></g></g><g id="Face" transform="translate(289.000000, 103.000000) scale(1 1)" fill="#000"><g id="Face/Kind" stroke="none" stroke-width="1" fill="none" fill-rule="evenodd"><g id="Group-14" transform="translate(-1.000000, -2.000000)" fill="#000"><g id="Group-3" transform="translate(0.000000, 0.826700)"><path d="M2.9468,4.9331 C2.8728,4.9681 2.7978,5.0001 2.7248,5.0371 C2.7978,5.0001 2.8728,4.9681 2.9468,4.9331 L2.9468,4.9331 Z M2.2548,5.2951 C2.1438,5.3601 2.0348,5.4321 1.9268,5.5031 C2.0348,5.4321 2.1438,5.3601 2.2548,5.2951 L2.2548,5.2951 Z M1.3118,5.9561 C1.1808,6.0631 1.0508,6.1721 0.9278,6.2901 C1.0508,6.1721 1.1808,6.0631 1.3118,5.9561 L1.3118,5.9561 Z M0.5868,6.6471 C0.4758,6.7721 0.3698,6.9071 0.2668,7.0441 C0.3698,6.9071 0.4758,6.7721 0.5868,6.6471 L0.5868,6.6471 Z M8.8638,3.3911 C9.1358,3.2861 9.4338,2.7271 9.5868,2.0321 C9.7708,1.2071 9.6858,0.5141 9.3598,0.1771 C9.3568,0.1751 9.3538,0.1731 9.3508,0.1741 C9.3468,0.1741 9.3438,0.1761 9.3418,0.1791 C8.4728,1.6591 6.7308,2.1161 5.0448,2.5581 C4.1508,2.7931 3.2408,3.0431 2.4678,3.4371 C2.4308,3.4561 2.3968,3.4751 2.3608,3.4951 C2.2408,3.5591 2.1138,3.6171 2.0018,3.6901 C0.4748,4.6891 0.1898,6.3111 -0.0002,7.3861 C-0.0012,7.3911 0.0018,7.3951 0.0078,7.3971 C0.0088,7.3981 0.0098,7.3981 0.0118,7.3981 C0.0158,7.3981 0.0188,7.3961 0.0218,7.3931 C1.7588,4.7331 5.0088,4.1571 7.1588,3.7751 C7.8598,3.6501 8.4668,3.5431 8.8638,3.3911 L8.8638,3.3911 Z" id="Fill-1"/></g><path d="M11.2918,7.2554 C11.2868,7.2554 11.2818,7.2604 11.2818,7.2654 L10.5298,13.9934 C10.5288,13.9974 10.5308,14.0004 10.5328,14.0034 C10.5348,14.0054 10.5378,14.0064 10.5408,14.0064 L10.5428,14.0064 L12.9348,13.7674 C12.9378,13.7674 12.9408,13.7654 12.9428,13.7634 C12.9438,13.7604 12.9448,13.7564 12.9438,13.7534 L11.3038,7.2644 C11.3028,7.2584 11.2978,7.2544 11.2918,7.2554" id="Fill-4"/><path d="M11.7547,15.8785 C10.7447,16.4055 9.8277,16.5295 9.0337,16.2465 C7.8567,15.8325 7.3077,14.6495 7.2837,14.5975 L7.2337,14.4865 L6.8387,14.6575 L6.8897,14.7745 C6.9537,14.9165 7.5507,16.1815 8.8877,16.6535 C9.2117,16.7685 9.5557,16.8265 9.9077,16.8265 C10.5467,16.8265 11.2347,16.6365 11.9547,16.2625 L12.0667,16.2035 L11.8647,15.8215 L11.7547,15.8785 Z" id="Fill-6"/><path d="M2.8611,7.8843 C2.8181,8.0723 2.7911,8.2923 2.7911,8.4473 C2.7911,9.4393 3.7101,10.2453 4.8401,10.2453 C5.9701,10.2453 6.8901,9.4393 6.8901,8.4473 C6.8901,8.0203 6.5391,7.5143 6.2291,7.1833 C7.7841,7.3093 9.1651,8.1533 9.5691,8.4243 C9.2101,8.8623 7.8491,10.3523 5.9351,10.4703 C5.8571,10.4753 5.7791,10.4783 5.7011,10.4783 C3.8431,10.4783 2.0451,9.1473 1.5491,8.7503 C1.7491,8.5763 2.2061,8.2183 2.8611,7.8843 M9.9431,8.4863 C9.9951,8.4133 9.9791,8.3133 9.9061,8.2563 C9.8291,8.1983 7.9891,6.8523 5.9141,6.8253 L5.8311,6.8253 C3.0181,6.8253 1.2541,8.5673 1.1771,8.6433 C1.1471,8.6763 1.1301,8.7203 1.1321,8.7643 C1.1331,8.8103 1.1551,8.8543 1.1851,8.8783 C1.1891,8.8833 1.7791,9.4043 2.6561,9.8973 C3.3961,10.3133 4.5261,10.8103 5.7041,10.8103 C5.7881,10.8103 5.8731,10.8083 5.9561,10.8023 C8.3401,10.6553 9.8781,8.5753 9.9431,8.4863" id="Fill-8"/><path d="M13.0281,7.9351 C13.0601,8.3401 13.2221,8.7511 13.4981,9.0811 C13.8221,9.4721 14.2371,9.6871 14.6661,9.6871 C15.5761,9.6871 16.3161,8.9471 16.3161,8.0371 C16.3161,7.6151 16.1541,7.2261 15.8751,6.9231 C15.9941,6.9141 16.1091,6.8981 16.2331,6.8981 C17.4531,6.8981 18.5721,7.8021 18.8841,8.0791 C18.6001,8.4841 17.4971,9.9011 15.9431,10.0121 C15.8821,10.0171 15.8211,10.0191 15.7591,10.0191 C14.2661,10.0191 12.8141,8.7801 12.4081,8.4031 C12.5251,8.3001 12.7431,8.1261 13.0281,7.9351 M16.2331,6.5651 C13.7801,6.5661 12.0621,8.2691 12.0481,8.2851 C11.9831,8.3481 11.9831,8.4541 12.0461,8.5161 C12.0501,8.5211 12.5181,9.0031 13.2481,9.4801 C13.8561,9.8771 14.7851,10.3511 15.7571,10.3511 C15.8271,10.3511 15.8971,10.3491 15.9661,10.3441 C17.9031,10.2051 19.1121,8.3511 19.2451,8.1381 C19.2841,8.0731 19.2741,7.9891 19.2191,7.9341 C19.0771,7.7941 17.7811,6.5651 16.2331,6.5651" id="Fill-10"/><path d="M18.8367,6.7896 C18.7807,6.7396 18.7237,6.6956 18.6667,6.6476 C18.7237,6.6956 18.7807,6.7396 18.8367,6.7896 M19.4807,7.4466 C19.4007,7.3576 19.3217,7.2686 19.2417,7.1856 C19.3217,7.2686 19.4007,7.3576 19.4807,7.4466 M17.8557,6.0516 C17.8057,6.0196 17.7557,5.9876 17.7057,5.9576 C17.7557,5.9876 17.8057,6.0196 17.8557,6.0516 M19.6807,7.0156 C19.5557,6.1276 19.4387,5.2886 18.2467,4.6476 C17.4157,4.2016 16.4997,3.9486 15.6137,3.7036 C14.0107,3.2616 12.4957,2.8426 11.4547,1.3746 C11.4527,1.3716 11.4497,1.3696 11.4457,1.3696 C11.4417,1.3686 11.4397,1.3716 11.4377,1.3736 C11.1427,1.7366 11.1167,2.4356 11.3697,3.2416 C11.5827,3.9216 11.9277,4.4526 12.2067,4.5326 C12.5907,4.6436 13.0577,4.7026 13.5977,4.7696 C15.3757,4.9936 17.8117,5.2996 19.8117,7.8516 C19.8137,7.8536 19.8167,7.8556 19.8197,7.8556 C19.8217,7.8556 19.8237,7.8546 19.8247,7.8536 C19.8307,7.8516 19.8327,7.8466 19.8317,7.8416 C19.7587,7.5676 19.7197,7.2866 19.6807,7.0156" id="Fill-12"/></g></g></g><g id="Glasses" transform="translate(286.000000, 108.000000) scale(1 1)"><g id="Glasses/Round" stroke="none" stroke-width="1" fill="none" fill-rule="evenodd"><g id="Group-3" transform="translate(2.000000, -2.000000)" fill="#F7B500"><g id="Fill-1"><path d="M17.2501,8.77461 C14.9011,8.77461 13.2231,7.24661 13.0431,5.00861 L13.0771,5.00861 L13.0771,4.49261 L13.0281,4.49261 C13.0771,2.49461 14.3881,0.51661 17.2501,0.51661 C20.1681,0.51661 21.4741,2.57161 21.4741,4.60761 C21.4741,7.06061 19.7371,8.77461 17.2501,8.77461 M5.1041,9.06361 C2.4031,9.06361 0.5171,7.29061 0.5171,4.75161 C0.5171,2.64361 1.9361,0.51661 5.1041,0.51661 C8.2741,0.51661 9.6931,2.64361 9.6931,4.75161 C9.6931,7.29061 7.8071,9.06361 5.1041,9.06361 M17.2501,0.00061 C14.4991,0.00061 12.5671,1.84161 12.5131,4.49261 L10.2041,4.49261 C10.1451,3.17061 9.6281,2.04861 8.7011,1.23961 C7.7871,0.44061 6.5101,0.00061 5.1041,0.00061 C3.7001,0.00061 2.4231,0.44061 1.5081,1.23961 C0.5211,2.10061 0.0001,3.31561 0.0001,4.75161 C0.0001,7.59361 2.0991,9.58061 5.1041,9.58061 C8.0191,9.58061 10.0801,7.71361 10.2031,5.00861 L12.5251,5.00861 C12.7061,7.54961 14.5971,9.29161 17.2501,9.29161 C20.0411,9.29161 21.9901,7.36561 21.9901,4.60761 C21.9901,1.89461 20.0411,0.00061 17.2501,0.00061"/></g></g></g></g></g></svg>