<svg viewBox="0 134.12844036697265 2499.9999999999995 1247.7064220183488" xmlns="http://www.w3.org/2000/svg" overflow="visible" xmlns:xlink="http://www.w3.org/1999/xlink" width="2499.9999999999995px" height="1247.7064220183488px"><g id="Master/Composition/Downtown" stroke="none" stroke-width="1" fill="none" fill-rule="evenodd"><g id="bg"><g id="Sky" transform="scale(1 1)"><g id="Sky/None" stroke="none" stroke-width="1" fill="none" fill-rule="evenodd" fill-opacity="0"/></g><g id="Horizon" transform="translate(0.000000, 593.000000) scale(1 1)"><g id="Horizon/None" stroke="none" stroke-width="1" fill="none" fill-rule="evenodd" fill-opacity="0"/></g></g><g id="Street" transform="translate(0.000000, 1250.000000)"><rect id="Rectangle" fill="#E8E7FF" x="0" y="0" width="2500" height="110"/><rect id="Rectangle" fill="#A39FFF" x="0" y="0" width="2500" height="16"/></g><g id="Building-Back" transform="translate(790.000000, 161.000000)"><g id="Building/Skyscraper" transform="translate(-0.000000, 140.000000) scale(0.8602941176470589 0.860125260960334)"><g id="Building/Skyscraper/1" stroke="none" stroke-width="1" fill="none" fill-rule="evenodd"><polygon id="Rectangle" fill="#A39FFF" points="27 408 100 348 100 958 27 958"/><polygon id="Rectangle" fill="#A39FFF" points="96 103.109489 240 -2 240 958 96 958"/><polygon id="Rectangle" fill="#7364FF" points="240 -2 376 -2 376 958 240 958"/><rect id="Rectangle" fill="#CECCFF" x="48" y="832" width="176" height="126"/><rect id="Rectangle-Copy" fill="#5628D2" x="112" y="885" width="48" height="73"/><polygon id="Rectangle" fill="#5628D2" points="112 116.421927 160 78 160 814 112 814"/><polygon id="Rectangle" fill="#5628D2" points="176 65.411215 224 27 224 814 176 814"/><rect id="Rectangle" fill="#370EA3" x="267" y="356" width="88" height="192"/><rect id="Rectangle-Copy-2" fill="#370EA3" x="267" y="719" width="88" height="192"/><rect id="Rectangle" fill="#370EA3" x="267" y="235" width="88" height="71"/><rect id="Rectangle" fill="#370EA3" x="267" y="27" width="88" height="157"/><polygon id="Rectangle" fill="#CECCFF" points="48 423 96 383 96 814 48 814"/><rect id="Rectangle" fill="#FFC30D" x="267" y="598" width="88" height="71"/></g></g><g id="Building/Skyscraper" transform="translate(269.000000, 0.000000) scale(0.9313725490196079 0.9311064718162839)"><g id="Building/Skyscraper/4" stroke="none" stroke-width="1" fill="none" fill-rule="evenodd"><rect id="Rectangle-Copy-4" fill="#7364FF" x="213" y="6" width="105" height="453"/><rect id="Rectangle-Copy" fill="#CECCFF" x="48" y="459" width="230" height="499"/><polygon id="Rectangle-Copy-3" fill="#CECCFF" points="48 6 213 6 213 459 74.3601924 459 48 459"/><rect id="Rectangle-Copy-2" fill="#7364FF" x="278" y="459" width="104" height="499"/><rect id="Rectangle-Copy-28" fill="#370EA3" x="306" y="477" width="48" height="343"/><rect id="Rectangle-Copy-27" fill="#FFC30D" x="242" y="246" width="56" height="192"/><rect id="Rectangle-Copy-30" fill="#5628D2" x="139" y="246" width="47" height="192"/><rect id="Rectangle-Copy-31" fill="#FFC30D" x="65" y="246" width="47" height="192"/><rect id="Rectangle-Copy-29" fill="#370EA3" x="242" y="20" width="56" height="192"/><rect id="Rectangle-Copy-7" fill="#5628D2" x="65" y="477" width="47" height="340"/><rect id="Rectangle-Copy-10" fill="#5628D2" x="65" y="20" width="47" height="184"/><rect id="Rectangle-Copy-12" fill="#5628D2" x="139" y="20" width="47" height="184"/><rect id="Rectangle-Copy-13" fill="#5628D2" x="139" y="477" width="47" height="343"/><rect id="Rectangle-Copy-15" fill="#5628D2" x="213" y="477" width="47" height="343"/><rect id="Rectangle-Copy-48" fill="#5628D2" x="139" y="857" width="47" height="101"/><rect id="Rectangle-Copy-14" fill="#E8E7FF" x="33" y="0" width="177" height="12"/><rect id="Rectangle-Copy-19" fill="#A39FFF" x="210" y="0" width="120" height="12"/></g></g><g id="Building/Large" transform="translate(590.000000, 302.000000) scale(0.8602941176470589 0.8612903225806452)"><g id="Building/Large/6" stroke="none" stroke-width="1" fill="none" fill-rule="evenodd"><rect id="Rectangle-Copy" fill="#A39FFF" x="240" y="-54" width="20" height="84" rx="10"/><rect id="Rectangle-Copy-2" fill="#A39FFF" x="268" y="-54" width="20" height="84" rx="10"/><rect id="Rectangle" fill="#CECCFF" x="8" y="0" width="288" height="620"/><rect id="Rectangle" fill="#A39FFF" x="296" y="0" width="104" height="620"/><rect id="Rectangle" fill="#5628D2" x="120" y="548" width="48" height="72"/><rect id="Rectangle" fill="#7364FF" x="24" y="156" width="240" height="56"/><rect id="Rectangle-Copy-3" fill="#7364FF" x="24" y="60" width="240" height="56"/><rect id="Rectangle" fill="#7364FF" x="24" y="348" width="240" height="56"/><rect id="Rectangle" fill="#7364FF" x="24" y="252" width="240" height="56"/><rect id="Rectangle" fill="#FFC30D" x="323" y="156" width="48" height="56"/><rect id="Rectangle" fill="#5628D2" x="323" y="348" width="48" height="56"/><rect id="Rectangle" fill="#5628D2" x="323" y="56" width="48" height="60"/><rect id="Rectangle" fill="#5628D2" x="323" y="252" width="48" height="56"/><rect id="Rectangle" fill="#7364FF" x="24" y="444" width="240" height="56"/><rect id="Rectangle" fill="#5628D2" x="323" y="444" width="48" height="56"/><rect id="Rectangle" fill="#7364FF" x="200" y="548" width="64" height="56"/><rect id="Rectangle-Copy" fill="#7364FF" x="24" y="548" width="64" height="56"/><rect id="Rectangle" fill="#E8E7FF" x="0" y="-16" width="304" height="32"/><rect id="Rectangle" fill="#CECCFF" x="304" y="-16" width="104" height="32"/></g></g></g><g id="Building-Front" transform="translate(400.000000, 716.000000)"><g id="Building/Medium" transform="translate(0.000000, 226.000000) scale(1 1)"><g id="Building/Medium/1" stroke="none" stroke-width="1" fill="none" fill-rule="evenodd"><path d="M136,0 C147.045695,0 156,8.954305 156,20 L156,30 L116,30 L116,20 C116,16.222207 110.179718,3.01395126 112,0 L136,0 Z" id="Rectangle" fill="#7364FF"/><rect id="Rectangle" fill="#E8E7FF" x="8" y="36" width="208" height="272"/><rect id="Rectangle" fill="#CECCFF" x="216" y="36" width="104" height="272"/><path d="M40,62 C48.836556,62 56,69.163444 56,78 L56,110 L56,110 L24,110 L24,78 C24,69.163444 31.163444,62 40,62 Z" id="Rectangle" fill="#7364FF"/><path d="M40,148 C48.836556,148 56,155.163444 56,164 L56,196 L56,196 L24,196 L24,164 C24,155.163444 31.163444,148 40,148 Z" id="Rectangle" fill="#FFC30D"/><path d="M136,62 C144.836556,62 152,69.163444 152,78 L152,110 L152,110 L120,110 L120,78 C120,69.163444 127.163444,62 136,62 Z" id="Rectangle" fill="#FFC30D"/><path d="M244,62 C252.836556,62 260,69.163444 260,78 L260,110 L260,110 L228,110 L228,78 C228,69.163444 235.163444,62 244,62 Z" id="Rectangle" fill="#5628D2"/><path d="M244,148 C252.836556,148 260,155.163444 260,164 L260,196 L260,196 L228,196 L228,164 C228,155.163444 235.163444,148 244,148 Z" id="Rectangle" fill="#5628D2"/><path d="M136,148 C144.836556,148 152,155.163444 152,164 L152,196 L152,196 L120,196 L120,164 C120,155.163444 127.163444,148 136,148 Z" id="Rectangle" fill="#7364FF"/><path d="M88,62 C96.836556,62 104,69.163444 104,78 L104,110 L104,110 L72,110 L72,78 C72,69.163444 79.163444,62 88,62 Z" id="Rectangle" fill="#7364FF"/><path d="M88,148 C96.836556,148 104,155.163444 104,164 L104,196 L104,196 L72,196 L72,164 C72,155.163444 79.163444,148 88,148 Z" id="Rectangle" fill="#7364FF"/><path d="M184,62 C192.836556,62 200,69.163444 200,78 L200,110 L200,110 L168,110 L168,78 C168,69.163444 175.163444,62 184,62 Z" id="Rectangle" fill="#7364FF"/><path d="M292,62 C300.836556,62 308,69.163444 308,78 L308,110 L308,110 L276,110 L276,78 C276,69.163444 283.163444,62 292,62 Z" id="Rectangle" fill="#5628D2"/><path d="M292,148 C300.836556,148 308,155.163444 308,164 L308,196 L308,196 L276,196 L276,164 C276,155.163444 283.163444,148 292,148 Z" id="Rectangle" fill="#5628D2"/><path d="M184,148 C192.836556,148 200,155.163444 200,164 L200,196 L200,196 L168,196 L168,164 C168,155.163444 175.163444,148 184,148 Z" id="Rectangle" fill="#7364FF"/><rect id="Rectangle" fill="#A39FFF" x="0" y="108" width="224" height="8"/><rect id="Rectangle" fill="#A39FFF" x="0" y="28" width="224" height="8"/><rect id="Rectangle" fill="#7364FF" x="224" y="28" width="104" height="8"/><rect id="Rectangle" fill="#7364FF" x="224" y="108" width="104" height="8"/><rect id="Rectangle" fill="#7364FF" x="224" y="196" width="104" height="8"/><rect id="Rectangle" fill="#A39FFF" x="0" y="196" width="224" height="8"/><path d="M112,0 C123.045695,-2.02906125e-15 132,8.954305 132,20 L132,30 L132,30 L92,30 L92,20 C92,8.954305 100.954305,2.02906125e-15 112,0 Z" id="Rectangle" fill="#A39FFF"/><path d="M111.5,236 C122.269553,236 131,244.730447 131,255.5 L131,308 L131,308 L92,308 L92,255.5 C92,244.730447 100.730447,236 111.5,236 Z" id="Rectangle" fill="#7364FF"/><circle id="Oval" fill="#7364FF" cx="112" cy="16" r="8"/><rect id="Rectangle" fill="#7364FF" x="24" y="236" width="54" height="56"/><rect id="Rectangle" fill="#7364FF" x="146" y="236" width="54" height="56"/><rect id="Rectangle" fill="#FFC30D" x="241" y="236" width="54" height="56"/></g></g><g id="Building/Large" transform="translate(270.000000, 0.000000) scale(0.8602941176470589 0.8612903225806452)"><g id="Building/Large/1" stroke="none" stroke-width="1" fill="none" fill-rule="evenodd"><rect id="Rectangle" fill="#A39FFF" x="250" y="-30" width="36" height="47"/><rect id="Rectangle" fill="#A39FFF" x="222" y="-22" width="28" height="39"/><rect id="Rectangle" fill="#7364FF" x="286" y="-30" width="20" height="47"/><rect id="Rectangle" fill="#7364FF" x="250" y="-22" width="20" height="39"/><g id="Group" transform="translate(24.000000, 0.000000)"><rect id="Rectangle" fill="#A39FFF" x="8" y="0" width="208" height="620"/><rect id="Rectangle" fill="#7364FF" x="216" y="0" width="136" height="620"/><rect id="Rectangle" fill="#5628D2" x="24" y="548" width="48" height="72"/><rect id="Rectangle" fill="#5628D2" x="24" y="156" width="48" height="56"/><rect id="Rectangle" fill="#5628D2" x="24" y="348" width="48" height="56"/><rect id="Rectangle" fill="#370EA3" x="24" y="40" width="48" height="76"/><rect id="Rectangle" fill="#5628D2" x="24" y="252" width="48" height="56"/><rect id="Rectangle" fill="#5628D2" x="88" y="156" width="48" height="56"/><rect id="Rectangle" fill="#5628D2" x="88" y="348" width="48" height="56"/><rect id="Rectangle" fill="#5628D2" x="88" y="40" width="48" height="76"/><rect id="Rectangle" fill="#5628D2" x="88" y="252" width="48" height="56"/><rect id="Rectangle" fill="#CECCFF" x="152" y="156" width="48" height="56"/><rect id="Rectangle" fill="#5628D2" x="152" y="348" width="48" height="56"/><rect id="Rectangle" fill="#5628D2" x="152" y="40" width="48" height="76"/><rect id="Rectangle" fill="#5628D2" x="152" y="252" width="48" height="56"/><rect id="Rectangle" fill="#5628D2" x="243" y="156" width="88" height="56"/><rect id="Rectangle" fill="#5628D2" x="243" y="348" width="88" height="56"/><rect id="Rectangle" fill="#5628D2" x="243" y="40" width="88" height="76"/><rect id="Rectangle" fill="#5628D2" x="243" y="252" width="88" height="56"/><rect id="Rectangle" fill="#CECCFF" x="24" y="444" width="48" height="56"/><rect id="Rectangle" fill="#5628D2" x="88" y="444" width="48" height="56"/><rect id="Rectangle" fill="#5628D2" x="152" y="444" width="48" height="56"/><rect id="Rectangle" fill="#FFC30D" x="243" y="444" width="88" height="56"/><rect id="Rectangle" fill="#370EA3" x="88" y="548" width="112" height="56"/><rect id="Rectangle" fill="#5628D2" x="244" y="548" width="88" height="56"/><rect id="Rectangle" fill="#E8E7FF" x="0" y="0" width="224" height="16"/><rect id="Rectangle" fill="#A39FFF" x="224" y="0" width="136" height="16"/></g></g></g><g id="Building/Large" transform="translate(539.000000, 0.000000) scale(0.8602941176470589 0.8612903225806452)"><g id="Building/Large/3" stroke="none" stroke-width="1" fill="none" fill-rule="evenodd"><rect id="Rectangle" fill="#A39FFF" x="81" y="51" width="20" height="60" rx="10"/><rect id="Rectangle" fill="#A39FFF" x="109" y="27" width="20" height="60" rx="10"/><polygon id="Rectangle" fill="#7364FF" points="48 112 256 0 256 620 48 620"/><rect id="Rectangle" fill="#5628D2" x="256" y="0" width="128" height="620"/><path d="M152,540 C165.254834,540 176,550.745166 176,564 L176,620 L176,620 L128,620 L128,564 C128,550.745166 138.745166,540 152,540 Z" id="Rectangle" fill="#5628D2"/><rect id="Rectangle" fill="#370EA3" x="64" y="156" width="48" height="56" rx="24"/><rect id="Rectangle" fill="#FFC30D" x="64" y="348" width="48" height="56" rx="24"/><rect id="Rectangle" fill="#5628D2" x="64" y="252" width="48" height="56" rx="24"/><rect id="Rectangle" fill="#5628D2" x="128" y="156" width="48" height="56" rx="24"/><rect id="Rectangle" fill="#5628D2" x="128" y="348" width="48" height="56" rx="24"/><rect id="Rectangle" fill="#5628D2" x="128" y="252" width="48" height="56" rx="24"/><rect id="Rectangle" fill="#FFC30D" x="192" y="156" width="48" height="56" rx="24"/><rect id="Rectangle" fill="#5628D2" x="192" y="348" width="48" height="56" rx="24"/><rect id="Rectangle" fill="#5628D2" x="192" y="252" width="48" height="56" rx="24"/><rect id="Rectangle" fill="#370EA3" x="280" y="156" width="80" height="56" rx="28"/><rect id="Rectangle" fill="#370EA3" x="280" y="348" width="80" height="56" rx="28"/><rect id="Rectangle" fill="#370EA3" x="280" y="40" width="80" height="76" rx="28"/><rect id="Rectangle" fill="#370EA3" x="280" y="252" width="80" height="56" rx="28"/><rect id="Rectangle" fill="#5628D2" x="64" y="444" width="48" height="56" rx="24"/><rect id="Rectangle" fill="#5628D2" x="64" y="540" width="48" height="56" rx="24"/><rect id="Rectangle" fill="#5628D2" x="128" y="444" width="48" height="56" rx="24"/><rect id="Rectangle" fill="#370EA3" x="192" y="444" width="48" height="56" rx="24"/><rect id="Rectangle" fill="#5628D2" x="192" y="540" width="48" height="56" rx="24"/><rect id="Rectangle" fill="#370EA3" x="280" y="444" width="80" height="56" rx="28"/><rect id="Rectangle" fill="#370EA3" x="280" y="540" width="80" height="56" rx="28"/></g></g><g id="Building/Large" transform="translate(810.000000, 0.000000) scale(0.8602941176470589 0.8612903225806452)"><g id="Building/Large/2" stroke="none" stroke-width="1" fill="none" fill-rule="evenodd"><g id="Group" transform="translate(16.000000, 0.000000)"><path d="M136,0 C147.045695,0 156,8.954305 156,20 L156,30 L116,30 L116,20 C116,16.222207 110.179718,3.01395126 112,0 L136,0 Z" id="Rectangle" fill="#7364FF"/><rect id="Rectangle" fill="#A39FFF" x="0" y="28" width="224" height="8"/><rect id="Rectangle" fill="#7364FF" x="224" y="28" width="152" height="8"/><path d="M112,0 C123.045695,-2.02906125e-15 132,8.954305 132,20 L132,30 L132,30 L92,30 L92,20 C92,8.954305 100.954305,2.02906125e-15 112,0 Z" id="Rectangle" fill="#A39FFF"/><circle id="Oval" fill="#7364FF" cx="112" cy="16" r="8"/></g><rect id="Rectangle" fill="#E8E7FF" x="24" y="36" width="208" height="584"/><circle id="Oval" fill="#A39FFF" cx="56" cy="78" r="12"/><circle id="Oval" fill="#A39FFF" cx="104" cy="78" r="12"/><circle id="Oval" fill="#A39FFF" cx="152" cy="78" r="12"/><circle id="Oval" fill="#A39FFF" cx="200" cy="78" r="12"/><rect id="Rectangle" fill="#CECCFF" x="232" y="36" width="152" height="584"/><g id="Group-2" transform="translate(16.000000, 342.000000)"><path d="M40,0 C48.836556,-1.623249e-15 56,7.163444 56,16 L56,48 L56,48 L24,48 L24,16 C24,7.163444 31.163444,1.623249e-15 40,0 Z" id="Rectangle" fill="#7364FF"/><path d="M136,0 C144.836556,-1.623249e-15 152,7.163444 152,16 L152,48 L152,48 L120,48 L120,16 C120,7.163444 127.163444,1.623249e-15 136,0 Z" id="Rectangle" fill="#7364FF"/><path d="M244,0 C252.836556,-1.623249e-15 260,7.163444 260,16 L260,48 L260,48 L228,48 L228,16 C228,7.163444 235.163444,1.623249e-15 244,0 Z" id="Rectangle" fill="#5628D2"/><path d="M88,0 C96.836556,-1.623249e-15 104,7.163444 104,16 L104,48 L104,48 L72,48 L72,16 C72,7.163444 79.163444,1.623249e-15 88,0 Z" id="Rectangle" fill="#7364FF"/><path d="M184,0 C192.836556,-1.623249e-15 200,7.163444 200,16 L200,48 L200,48 L168,48 L168,16 C168,7.163444 175.163444,1.623249e-15 184,0 Z" id="Rectangle" fill="#7364FF"/><path d="M292,0 C300.836556,-1.623249e-15 308,7.163444 308,16 L308,48 L308,48 L276,48 L276,16 C276,7.163444 283.163444,1.623249e-15 292,0 Z" id="Rectangle" fill="#5628D2"/><path d="M340,0 C348.836556,-1.623249e-15 356,7.163444 356,16 L356,48 L356,48 L324,48 L324,16 C324,7.163444 331.163444,1.623249e-15 340,0 Z" id="Rectangle" fill="#5628D2"/><rect id="Rectangle" fill="#A39FFF" x="0" y="46" width="224" height="8"/><rect id="Rectangle" fill="#7364FF" x="224" y="46" width="152" height="8"/></g><g id="Group-2" transform="translate(16.000000, 240.000000)"><path d="M40,0 C48.836556,-1.623249e-15 56,7.163444 56,16 L56,48 L56,48 L24,48 L24,16 C24,7.163444 31.163444,1.623249e-15 40,0 Z" id="Rectangle" fill="#7364FF"/><path d="M136,0 C144.836556,-1.623249e-15 152,7.163444 152,16 L152,48 L152,48 L120,48 L120,16 C120,7.163444 127.163444,1.623249e-15 136,0 Z" id="Rectangle" fill="#7364FF"/><path d="M244,0 C252.836556,-1.623249e-15 260,7.163444 260,16 L260,48 L260,48 L228,48 L228,16 C228,7.163444 235.163444,1.623249e-15 244,0 Z" id="Rectangle" fill="#5628D2"/><path d="M88,0 C96.836556,-1.623249e-15 104,7.163444 104,16 L104,48 L104,48 L72,48 L72,16 C72,7.163444 79.163444,1.623249e-15 88,0 Z" id="Rectangle" fill="#FFC30D"/><path d="M184,0 C192.836556,-1.623249e-15 200,7.163444 200,16 L200,48 L200,48 L168,48 L168,16 C168,7.163444 175.163444,1.623249e-15 184,0 Z" id="Rectangle" fill="#7364FF"/><path d="M292,0 C300.836556,-1.623249e-15 308,7.163444 308,16 L308,48 L308,48 L276,48 L276,16 C276,7.163444 283.163444,1.623249e-15 292,0 Z" id="Rectangle" fill="#7364FF"/><path d="M340,0 C348.836556,-1.623249e-15 356,7.163444 356,16 L356,48 L356,48 L324,48 L324,16 C324,7.163444 331.163444,1.623249e-15 340,0 Z" id="Rectangle" fill="#7364FF"/><rect id="Rectangle" fill="#A39FFF" x="0" y="46" width="224" height="8"/><rect id="Rectangle" fill="#7364FF" x="224" y="46" width="152" height="8"/></g><g id="Group-2" transform="translate(16.000000, 138.000000)"><path d="M40,0 C48.836556,-1.623249e-15 56,7.163444 56,16 L56,48 L56,48 L24,48 L24,16 C24,7.163444 31.163444,1.623249e-15 40,0 Z" id="Rectangle" fill="#7364FF"/><path d="M136,0 C144.836556,-1.623249e-15 152,7.163444 152,16 L152,48 L152,48 L120,48 L120,16 C120,7.163444 127.163444,1.623249e-15 136,0 Z" id="Rectangle" fill="#7364FF"/><path d="M244,0 C252.836556,-1.623249e-15 260,7.163444 260,16 L260,48 L260,48 L228,48 L228,16 C228,7.163444 235.163444,1.623249e-15 244,0 Z" id="Rectangle" fill="#5628D2"/><path d="M88,0 C96.836556,-1.623249e-15 104,7.163444 104,16 L104,48 L104,48 L72,48 L72,16 C72,7.163444 79.163444,1.623249e-15 88,0 Z" id="Rectangle" fill="#7364FF"/><path d="M184,0 C192.836556,-1.623249e-15 200,7.163444 200,16 L200,48 L200,48 L168,48 L168,16 C168,7.163444 175.163444,1.623249e-15 184,0 Z" id="Rectangle" fill="#5628D2"/><path d="M292,0 C300.836556,-1.623249e-15 308,7.163444 308,16 L308,48 L308,48 L276,48 L276,16 C276,7.163444 283.163444,1.623249e-15 292,0 Z" id="Rectangle" fill="#5628D2"/><path d="M340,0 C348.836556,-1.623249e-15 356,7.163444 356,16 L356,48 L356,48 L324,48 L324,16 C324,7.163444 331.163444,1.623249e-15 340,0 Z" id="Rectangle" fill="#5628D2"/><rect id="Rectangle" fill="#A39FFF" x="0" y="46" width="224" height="8"/><rect id="Rectangle" fill="#7364FF" x="224" y="46" width="152" height="8"/></g><path d="M56,444 C64.836556,444 72,451.163444 72,460 L72,492 L72,492 L40,492 L40,460 C40,451.163444 47.163444,444 56,444 Z" id="Rectangle" fill="#5628D2"/><path d="M260,444 C268.836556,444 276,451.163444 276,460 L276,492 L276,492 L244,492 L244,460 C244,451.163444 251.163444,444 260,444 Z" id="Rectangle" fill="#7364FF"/><path d="M152,444 C160.836556,444 168,451.163444 168,460 L168,492 L168,492 L136,492 L136,460 C136,451.163444 143.163444,444 152,444 Z" id="Rectangle" fill="#7364FF"/><path d="M104,444 C112.836556,444 120,451.163444 120,460 L120,492 L120,492 L88,492 L88,460 C88,451.163444 95.163444,444 104,444 Z" id="Rectangle" fill="#7364FF"/><path d="M308,444 C316.836556,444 324,451.163444 324,460 L324,492 L324,492 L292,492 L292,460 C292,451.163444 299.163444,444 308,444 Z" id="Rectangle" fill="#5628D2"/><path d="M200,444 C208.836556,444 216,451.163444 216,460 L216,492 L216,492 L184,492 L184,460 C184,451.163444 191.163444,444 200,444 Z" id="Rectangle" fill="#7364FF"/><rect id="Rectangle" fill="#7364FF" x="240" y="492" width="152" height="8"/><rect id="Rectangle" fill="#A39FFF" x="16" y="492" width="224" height="8"/><path d="M127.5,548 C138.269553,548 147,556.730447 147,567.5 L147,620 L147,620 L108,620 L108,567.5 C108,556.730447 116.730447,548 127.5,548 Z" id="Rectangle" fill="#7364FF"/><rect id="Rectangle" fill="#7364FF" x="40" y="548" width="54" height="56"/><rect id="Rectangle" fill="#7364FF" x="162" y="548" width="54" height="56"/><rect id="Rectangle" fill="#5628D2" x="256" y="548" width="104" height="56"/><circle id="Oval" fill="#7364FF" cx="260" cy="78" r="12"/><circle id="Oval" fill="#7364FF" cx="308" cy="78" r="12"/><path d="M356,444 C364.836556,444 372,451.163444 372,460 L372,492 L372,492 L340,492 L340,460 C340,451.163444 347.163444,444 356,444 Z" id="Rectangle" fill="#5628D2"/><circle id="Oval" fill="#7364FF" cx="356" cy="78" r="12"/></g></g><g id="Building/Large" transform="translate(1079.000000, 0.000000) scale(0.8602941176470589 0.8612903225806452)"><g id="Building/Large/4" stroke="none" stroke-width="1" fill="none" fill-rule="evenodd"><g id="Group" transform="translate(0.000000, -16.000000)"><rect id="Rectangle" fill="#7364FF" x="8" y="16" width="288" height="620"/><rect id="Rectangle" fill="#5628D2" x="296" y="16" width="104" height="620"/><rect id="Rectangle" fill="#CECCFF" x="24" y="564" width="48" height="72"/><rect id="Rectangle" fill="#CECCFF" x="24" y="172" width="48" height="56"/><rect id="Rectangle" fill="#5628D2" x="24" y="364" width="48" height="56"/><rect id="Rectangle" fill="#CECCFF" x="24" y="56" width="48" height="76"/><rect id="Rectangle" fill="#CECCFF" x="24" y="268" width="48" height="56"/><rect id="Rectangle" fill="#CECCFF" x="88" y="172" width="48" height="56"/><rect id="Rectangle" fill="#CECCFF" x="88" y="364" width="48" height="56"/><rect id="Rectangle" fill="#CECCFF" x="88" y="56" width="48" height="76"/><rect id="Rectangle" fill="#CECCFF" x="88" y="268" width="48" height="56"/><rect id="Rectangle" fill="#CECCFF" x="152" y="172" width="48" height="56"/><rect id="Rectangle" fill="#CECCFF" x="216" y="172" width="48" height="56"/><rect id="Rectangle" fill="#CECCFF" x="152" y="364" width="48" height="56"/><rect id="Rectangle" fill="#CECCFF" x="216" y="364" width="48" height="56"/><rect id="Rectangle" fill="#CECCFF" x="152" y="56" width="48" height="76"/><rect id="Rectangle" fill="#5628D2" x="216" y="56" width="48" height="76"/><rect id="Rectangle" fill="#CECCFF" x="152" y="268" width="48" height="56"/><rect id="Rectangle" fill="#CECCFF" x="216" y="268" width="48" height="56"/><rect id="Rectangle" fill="#FFC30D" x="323" y="172" width="48" height="56"/><rect id="Rectangle" fill="#A39FFF" x="323" y="364" width="48" height="56"/><rect id="Rectangle" fill="#A39FFF" x="323" y="56" width="48" height="76"/><rect id="Rectangle" fill="#A39FFF" x="323" y="268" width="48" height="56"/><rect id="Rectangle" fill="#CECCFF" x="24" y="460" width="48" height="56"/><rect id="Rectangle" fill="#CECCFF" x="88" y="460" width="48" height="56"/><rect id="Rectangle" fill="#CECCFF" x="152" y="460" width="48" height="56"/><rect id="Rectangle" fill="#CECCFF" x="216" y="460" width="48" height="56"/><rect id="Rectangle" fill="#A39FFF" x="323" y="460" width="48" height="56"/><rect id="Rectangle" fill="#CECCFF" x="88" y="564" width="176" height="56"/><rect id="Rectangle" fill="#A39FFF" x="324" y="564" width="48" height="56"/><rect id="Rectangle" fill="#E8E7FF" x="0" y="0" width="304" height="32"/><rect id="Rectangle" fill="#A39FFF" x="304" y="0" width="104" height="32"/></g><g id="Group-2" transform="translate(-6.000000, 520.000000)"><rect id="Rectangle" fill="#E8E7FF" x="35" y="0" width="235" height="33"/><path d="M261.253284,0 L270,0 C270,4.41653847 270,15.4165385 270,33 L228,33 C228,14.7746033 242.888003,0 261.253284,0 Z" id="Path" fill="#A39FFF"/><path d="M33.2532845,0 L42,0 C42,4.41653847 42,15.4165385 42,33 L0,33 C0,14.7746033 14.8880026,0 33.2532845,0 Z" id="Path" fill="#E8E7FF"/></g></g></g><g id="Building/Medium" transform="translate(1332.000000, 226.000000) scale(1 1)"><g id="Building/Medium/1" stroke="none" stroke-width="1" fill="none" fill-rule="evenodd"><path d="M136,0 C147.045695,0 156,8.954305 156,20 L156,30 L116,30 L116,20 C116,16.222207 110.179718,3.01395126 112,0 L136,0 Z" id="Rectangle" fill="#7364FF"/><rect id="Rectangle" fill="#E8E7FF" x="8" y="36" width="208" height="272"/><rect id="Rectangle" fill="#CECCFF" x="216" y="36" width="104" height="272"/><path d="M40,62 C48.836556,62 56,69.163444 56,78 L56,110 L56,110 L24,110 L24,78 C24,69.163444 31.163444,62 40,62 Z" id="Rectangle" fill="#7364FF"/><path d="M40,148 C48.836556,148 56,155.163444 56,164 L56,196 L56,196 L24,196 L24,164 C24,155.163444 31.163444,148 40,148 Z" id="Rectangle" fill="#FFC30D"/><path d="M136,62 C144.836556,62 152,69.163444 152,78 L152,110 L152,110 L120,110 L120,78 C120,69.163444 127.163444,62 136,62 Z" id="Rectangle" fill="#FFC30D"/><path d="M244,62 C252.836556,62 260,69.163444 260,78 L260,110 L260,110 L228,110 L228,78 C228,69.163444 235.163444,62 244,62 Z" id="Rectangle" fill="#5628D2"/><path d="M244,148 C252.836556,148 260,155.163444 260,164 L260,196 L260,196 L228,196 L228,164 C228,155.163444 235.163444,148 244,148 Z" id="Rectangle" fill="#5628D2"/><path d="M136,148 C144.836556,148 152,155.163444 152,164 L152,196 L152,196 L120,196 L120,164 C120,155.163444 127.163444,148 136,148 Z" id="Rectangle" fill="#7364FF"/><path d="M88,62 C96.836556,62 104,69.163444 104,78 L104,110 L104,110 L72,110 L72,78 C72,69.163444 79.163444,62 88,62 Z" id="Rectangle" fill="#7364FF"/><path d="M88,148 C96.836556,148 104,155.163444 104,164 L104,196 L104,196 L72,196 L72,164 C72,155.163444 79.163444,148 88,148 Z" id="Rectangle" fill="#7364FF"/><path d="M184,62 C192.836556,62 200,69.163444 200,78 L200,110 L200,110 L168,110 L168,78 C168,69.163444 175.163444,62 184,62 Z" id="Rectangle" fill="#7364FF"/><path d="M292,62 C300.836556,62 308,69.163444 308,78 L308,110 L308,110 L276,110 L276,78 C276,69.163444 283.163444,62 292,62 Z" id="Rectangle" fill="#5628D2"/><path d="M292,148 C300.836556,148 308,155.163444 308,164 L308,196 L308,196 L276,196 L276,164 C276,155.163444 283.163444,148 292,148 Z" id="Rectangle" fill="#5628D2"/><path d="M184,148 C192.836556,148 200,155.163444 200,164 L200,196 L200,196 L168,196 L168,164 C168,155.163444 175.163444,148 184,148 Z" id="Rectangle" fill="#7364FF"/><rect id="Rectangle" fill="#A39FFF" x="0" y="108" width="224" height="8"/><rect id="Rectangle" fill="#A39FFF" x="0" y="28" width="224" height="8"/><rect id="Rectangle" fill="#7364FF" x="224" y="28" width="104" height="8"/><rect id="Rectangle" fill="#7364FF" x="224" y="108" width="104" height="8"/><rect id="Rectangle" fill="#7364FF" x="224" y="196" width="104" height="8"/><rect id="Rectangle" fill="#A39FFF" x="0" y="196" width="224" height="8"/><path d="M112,0 C123.045695,-2.02906125e-15 132,8.954305 132,20 L132,30 L132,30 L92,30 L92,20 C92,8.954305 100.954305,2.02906125e-15 112,0 Z" id="Rectangle" fill="#A39FFF"/><path d="M111.5,236 C122.269553,236 131,244.730447 131,255.5 L131,308 L131,308 L92,308 L92,255.5 C92,244.730447 100.730447,236 111.5,236 Z" id="Rectangle" fill="#7364FF"/><circle id="Oval" fill="#7364FF" cx="112" cy="16" r="8"/><rect id="Rectangle" fill="#7364FF" x="24" y="236" width="54" height="56"/><rect id="Rectangle" fill="#7364FF" x="146" y="236" width="54" height="56"/><rect id="Rectangle" fill="#FFC30D" x="241" y="236" width="54" height="56"/></g></g></g><g id="Cars" transform="translate(76.000000, 1159.000000)"><g id="Transport" transform="translate(235.000000, 0.000000) scale(1 1)"><g id="Transport/SUV" stroke="none" stroke-width="1" fill="none" fill-rule="evenodd"><g id="Group" transform="translate(56.000000, 38.000000)"><path d="M17,32 L200.048387,32 C204.466665,32 208.048387,35.581722 208.048387,40 L208.048387,68 C208.048387,70.209139 206.257526,72 204.048387,72 L21.0435513,72 C18.8363017,72 17.0462243,70.2120867 17.0435542,68.0048387 L17,32 L17,32 Z" id="Rectangle" fill="#A39FFF"/><path d="M35.4176131,0 L135.170134,0 C138.295611,2.97857303e-15 141.134881,1.82016185 142.439667,4.66025581 L155,32 L155,32 L17,32 L28.0090072,4.98129847 C29.2363113,1.96920475 32.1650781,2.37383782e-15 35.4176131,0 Z" id="Rectangle" fill="#CECCFF"/><path d="M136.80242,7 C137.258466,7 137.685626,7.15427188 138.027265,7.41893832 C138.368903,7.68360476 138.625019,8.05866575 138.738975,8.50024396 L138.738975,8.50024396 L150.255041,32 L105,32 L105,7 Z M101,32 L31.0230422,32 C30.6744946,32 30.3286132,31.9392608 30.0009195,31.820508 C28.443196,31.2560053 27.6380314,29.5356009 28.2025342,27.9778774 L28.2025342,27.9778774 L35.261025,8.50024396 C35.3749807,8.05866575 35.6310967,7.68360476 35.9727352,7.41893832 C36.3143736,7.15427188 36.7415345,7 37.1975797,7 L37.1975797,7 L101,7 L101,32 Z" id="Combined-Shape" fill="#5628D2"/><circle id="Oval" fill="#370EA3" cx="45.5" cy="77.5" r="18.5"/><circle id="Oval" fill="#E8E7FF" cx="45.5" cy="77.5" r="9.5"/><circle id="Oval" fill="#370EA3" cx="174.5" cy="77.5" r="18.5"/><circle id="Oval" fill="#E8E7FF" cx="174.5" cy="77.5" r="9.5"/><rect id="Rectangle" fill="#5628D2" x="0" y="32" width="17" height="37" rx="3"/></g></g></g><g id="Transport" transform="translate(2003.000000, 0.000000) scale(1 1)"><g id="Transport/School Bus" stroke="none" stroke-width="1" fill="none" fill-rule="evenodd"><g id="Group" transform="translate(5.000000, 0.000000)"><path d="M10,0 L253,0 C258.522847,-1.01453063e-15 263,4.4771525 263,10 L263,113 C263,114.656854 261.656854,116 260,116 L3,116 C1.34314575,116 2.02906125e-16,114.656854 0,113 L0,10 C-6.76353751e-16,4.4771525 4.4771525,1.01453063e-15 10,0 Z" id="Rectangle" fill="#CECCFF"/><path d="M71,78 L91,78 C101.49341,78 110,86.5065898 110,97 L110,113 C110,114.656854 108.656854,116 107,116 L55,116 C53.3431458,116 52,114.656854 52,113 L52,97 C52,86.5065898 60.5065898,78 71,78 Z" id="Rectangle-Copy-8" fill="#A39FFF"/><path d="M75,91 L87,91 C95.2842712,91 102,97.7157288 102,106 L102,116 L102,116 L60,116 L60,106 C60,97.7157288 66.7157288,91 75,91 Z" id="Rectangle-Copy-9" fill="#370EA3"/><circle id="Oval" fill="#5628D2" cx="81.5" cy="115.5" r="18.5"/><path d="M255,47.7498051 L304.484856,73.1796949 C308.485091,75.2353851 311,79.3553292 311,83.8528555 L311,116 L311,116 L255,116 L255,47.7498051 Z" id="Rectangle" fill="#CECCFF"/><path d="M263,78 L292,78 C302.49341,78 311,86.5065898 311,97 L311,113 C311,114.656854 309.656854,116 308,116 L256,116 C254.343146,116 253,114.656854 253,113 L253,88 C253,82.4771525 257.477153,78 263,78 Z" id="Rectangle-Copy-3" fill="#A39FFF"/><path d="M276,91 L288,91 C296.284271,91 303,97.7157288 303,106 L303,116 L303,116 L261,116 L261,106 C261,97.7157288 267.715729,91 276,91 Z" id="Rectangle-Copy-4" fill="#370EA3"/><circle id="Oval" fill="#E8E7FF" cx="81.5" cy="115.5" r="9.5"/><circle id="Oval" fill="#5628D2" cx="282.5" cy="115.5" r="18.5"/><circle id="Oval" fill="#E8E7FF" cx="282.5" cy="115.5" r="9.5"/><rect id="Rectangle" fill="#5628D2" x="213" y="22" width="35" height="88"/><rect id="Rectangle-Copy" fill="#5628D2" x="171" y="22" width="33" height="26"/><rect id="Rectangle-Copy-6" fill="#5628D2" x="255" y="22" width="8" height="30"/><rect id="Rectangle-Copy-2" fill="#5628D2" x="135" y="22" width="33" height="26"/><rect id="Rectangle-Copy-3" fill="#5628D2" x="99" y="22" width="33" height="26"/><rect id="Rectangle-Copy-4" fill="#5628D2" x="63" y="22" width="33" height="26"/><rect id="Rectangle-Copy-5" fill="#5628D2" x="27" y="22" width="33" height="26"/><rect id="Rectangle-Copy-7" fill="#5628D2" x="0" y="22" width="24" height="26"/><rect id="Rectangle" fill="#5628D2" x="0" y="63" width="213" height="9"/></g></g></g><g id="Transport" transform="scale(1 1)"><g id="Transport/Mini" stroke="none" stroke-width="1" fill="none" fill-rule="evenodd"><g id="Group" transform="translate(98.000000, 57.000000)"><path d="M9,31 L116,31 C120.418278,31 124,34.581722 124,39 L124,58 C124,60.209139 122.209139,62 120,62 L5.32645481,62 C3.11731581,62 1.32645481,60.209139 1.32645481,58 C1.32645481,57.6226322 1.37985591,57.247163 1.4850699,56.8847592 L9,31 L9,31 Z" id="Rectangle" fill="#CECCFF"/><path d="M23.0703445,0 L77.120668,0 C80.6938412,1.11997558e-15 83.8337596,2.36954991 84.8138446,5.80568138 L92,31 L92,31 L9,31 L15.3146567,6.03803484 C16.2128956,2.48727855 19.4077357,6.72810323e-16 23.0703445,0 Z" id="Rectangle" fill="#A39FFF"/><path d="M77.8024203,6 C78.2584655,6 78.6856264,6.15427188 79.0272648,6.41893832 C79.3689033,6.68360476 79.6250193,7.05866575 79.738975,7.50024396 L79.738975,7.50024396 L85.2550411,31 L50,31 L50,6 Z M46,31 L18.5306831,31 C18.2998727,31 18.0698333,30.9733636 17.8451301,30.9206193 C16.2321166,30.5419988 15.2314434,28.9274605 15.6100638,27.314447 L15.6100638,27.314447 L20.261025,7.50024396 C20.3749807,7.05866575 20.6310967,6.68360476 20.9727352,6.41893832 C21.3143736,6.15427188 21.7415345,6 22.1975797,6 L22.1975797,6 L46,6 L46,31 Z" id="Combined-Shape" fill="#5628D2"/><circle id="Oval" fill="#5628D2" cx="24" cy="61" r="16"/><circle id="Oval" fill="#E8E7FF" cx="24" cy="61" r="8"/><circle id="Oval" fill="#5628D2" cx="102" cy="61" r="16"/><circle id="Oval" fill="#E8E7FF" cx="102" cy="61" r="8"/></g></g></g><g id="Transport" transform="translate(1768.000000, 0.000000) scale(1 1)"><g id="Transport/Mini" stroke="none" stroke-width="1" fill="none" fill-rule="evenodd"><g id="Group" transform="translate(98.000000, 57.000000)"><path d="M9,31 L116,31 C120.418278,31 124,34.581722 124,39 L124,58 C124,60.209139 122.209139,62 120,62 L5.32645481,62 C3.11731581,62 1.32645481,60.209139 1.32645481,58 C1.32645481,57.6226322 1.37985591,57.247163 1.4850699,56.8847592 L9,31 L9,31 Z" id="Rectangle" fill="#CECCFF"/><path d="M23.0703445,0 L77.120668,0 C80.6938412,1.11997558e-15 83.8337596,2.36954991 84.8138446,5.80568138 L92,31 L92,31 L9,31 L15.3146567,6.03803484 C16.2128956,2.48727855 19.4077357,6.72810323e-16 23.0703445,0 Z" id="Rectangle" fill="#A39FFF"/><path d="M77.8024203,6 C78.2584655,6 78.6856264,6.15427188 79.0272648,6.41893832 C79.3689033,6.68360476 79.6250193,7.05866575 79.738975,7.50024396 L79.738975,7.50024396 L85.2550411,31 L50,31 L50,6 Z M46,31 L18.5306831,31 C18.2998727,31 18.0698333,30.9733636 17.8451301,30.9206193 C16.2321166,30.5419988 15.2314434,28.9274605 15.6100638,27.314447 L15.6100638,27.314447 L20.261025,7.50024396 C20.3749807,7.05866575 20.6310967,6.68360476 20.9727352,6.41893832 C21.3143736,6.15427188 21.7415345,6 22.1975797,6 L22.1975797,6 L46,6 L46,31 Z" id="Combined-Shape" fill="#5628D2"/><circle id="Oval" fill="#5628D2" cx="24" cy="61" r="16"/><circle id="Oval" fill="#E8E7FF" cx="24" cy="61" r="8"/><circle id="Oval" fill="#5628D2" cx="102" cy="61" r="16"/><circle id="Oval" fill="#E8E7FF" cx="102" cy="61" r="8"/></g></g></g><g id="Transport" transform="translate(494.000000, 0.000000) scale(1 1)"><g id="Transport/SUV" stroke="none" stroke-width="1" fill="none" fill-rule="evenodd"><g id="Group" transform="translate(56.000000, 38.000000)"><path d="M17,32 L200.048387,32 C204.466665,32 208.048387,35.581722 208.048387,40 L208.048387,68 C208.048387,70.209139 206.257526,72 204.048387,72 L21.0435513,72 C18.8363017,72 17.0462243,70.2120867 17.0435542,68.0048387 L17,32 L17,32 Z" id="Rectangle" fill="#A39FFF"/><path d="M35.4176131,0 L135.170134,0 C138.295611,2.97857303e-15 141.134881,1.82016185 142.439667,4.66025581 L155,32 L155,32 L17,32 L28.0090072,4.98129847 C29.2363113,1.96920475 32.1650781,2.37383782e-15 35.4176131,0 Z" id="Rectangle" fill="#CECCFF"/><path d="M136.80242,7 C137.258466,7 137.685626,7.15427188 138.027265,7.41893832 C138.368903,7.68360476 138.625019,8.05866575 138.738975,8.50024396 L138.738975,8.50024396 L150.255041,32 L105,32 L105,7 Z M101,32 L31.0230422,32 C30.6744946,32 30.3286132,31.9392608 30.0009195,31.820508 C28.443196,31.2560053 27.6380314,29.5356009 28.2025342,27.9778774 L28.2025342,27.9778774 L35.261025,8.50024396 C35.3749807,8.05866575 35.6310967,7.68360476 35.9727352,7.41893832 C36.3143736,7.15427188 36.7415345,7 37.1975797,7 L37.1975797,7 L101,7 L101,32 Z" id="Combined-Shape" fill="#5628D2"/><circle id="Oval" fill="#370EA3" cx="45.5" cy="77.5" r="18.5"/><circle id="Oval" fill="#E8E7FF" cx="45.5" cy="77.5" r="9.5"/><circle id="Oval" fill="#370EA3" cx="174.5" cy="77.5" r="18.5"/><circle id="Oval" fill="#E8E7FF" cx="174.5" cy="77.5" r="9.5"/><rect id="Rectangle" fill="#5628D2" x="0" y="32" width="17" height="37" rx="3"/></g></g></g></g></g></svg>