<svg viewBox="-17.11780104712045 52.700000000000045 1027.068062827225 909.0749999999999" fill="none" xmlns="http://www.w3.org/2000/svg" xmlns:xlink="http://www.w3.org/1999/xlink" overflow="visible" width="1027.068062827225px" height="909.0749999999999px"><g id="Master/Background/Lovely Clouds"><g id="Blush/Background/Lovely Clouds"><g id="Texture/Blob 10"><g id="Pattern"><mask id="mask0d69482bd-c17d-4c3f-b1f9-52a3ec478773" mask-type="alpha" maskUnits="userSpaceOnUse" x="-14" y="45" width="1020" height="965"><path id="Shape" fill-rule="evenodd" clip-rule="evenodd" d="M986.748 512.505C957.648 607.381 897.411 692.889 823.45 774.074C749.488 855.258 662.012 931.56 554.326 974.118C446.442 1016.78 318.652 1025.31 230.167 978.264C142.671 931.408 93.6066 829.905 53.8227 731.15L52.62 728.158C12.6206 628.467 -17.9199 532.238 -13.5906 427.066C-9.16856 322.069 30.5194 207.916 112.167 141.202C193.286 75.2226 315.917 55.5306 427.557 48.2313L430.937 48.0138C543.382 40.7159 644.27 45.6075 739.118 74.5111C833.965 103.415 922.773 156.33 968.339 234.945C1013.81 313.385 1015.76 417.455 986.748 512.505ZM701.524 372.623L698.188 367.704C672.804 330.525 646.132 297.509 608.567 274.21C569.81 250.223 519.263 236.691 475.626 249.808C432.926 262.748 396.665 301.241 367.319 339.156L365.306 341.769C335.571 380.439 312.999 417.92 300.502 459.078C288.006 500.237 285.586 545.072 302.817 580.613C320.009 616.079 356.898 642.129 398.012 654.85C438.424 667.291 482.849 666.681 529.012 660.156L531.284 659.83C578.262 653.003 626.746 640.125 667.99 611.757C709.319 583.344 743.198 539.456 747.646 496.166C751.923 453.311 727.359 410.968 701.524 372.623V372.623Z" fill="white"/></mask><g mask="url(#mask0d69482bd-c17d-4c3f-b1f9-52a3ec478773)"><g id="Group 231"><path id="Fill 1" fill-rule="evenodd" clip-rule="evenodd" d="M331.228 156.33C332.034 141.87 324.596 127.351 312.103 119.854C301.486 113.484 288.09 112.893 276.751 117.475C276.844 114.423 276.417 111.403 274.997 108.514C272.601 103.646 267.721 100.569 262.247 100.811C254.544 101.151 250.127 106.05 247.526 112.184C240.819 107.897 231.384 107.302 223.264 109.974C216.924 112.06 210.87 116.323 208.848 122.991C207.699 126.781 208.096 130.798 209.834 134.116C202.056 136.044 194.53 138.709 187.19 142.035C182.988 143.938 184.419 148.917 187.715 150.6C188.429 152.137 189.843 153.365 191.962 153.547C237.459 157.453 282.957 161.36 328.455 165.266C333.737 165.72 334.638 159.014 331.228 156.33" fill="#BFDAE4"/><path id="Fill 3" fill-rule="evenodd" clip-rule="evenodd" d="M289.319 64.776L286.892 64.7449C278.191 57.7439 267.025 54.178 255.92 54.7C258.004 41.55 250.371 28.212 237.163 24.262C224.312 20.419 206.195 27.622 206.665 42.1639C202.198 42.0149 197.848 43.995 194.933 47.437C188.98 44.94 182.259 44.304 175.72 45.309C163.525 47.181 153.281 54.8019 144.299 62.8009C142.878 64.0669 142.499 65.571 142.787 66.956C142.31 69.729 143.89 72.945 147.531 72.99L148.325 73.0009C149.065 73.6099 150.015 74.029 151.179 74.131C196.895 78.13 242.587 81.6389 288.475 78.5009C289.938 78.4009 291.068 77.799 291.863 76.936C293.005 75.792 293.695 74.146 293.47 72.477C295.109 69.542 293.734 64.832 289.319 64.776" fill="#BFDAE4"/><path id="Fill 9" fill-rule="evenodd" clip-rule="evenodd" d="M148.103 121.753C147.457 121.693 146.811 121.633 146.165 121.573C146.503 106.599 133.21 95.3323 119.067 97.6483C117.577 91.2843 114.415 85.5843 106.842 85.2723C100.916 85.0273 95.2599 87.7843 90.8769 91.8403C87.1469 83.5483 78.8749 77.5923 69.1179 77.7203C56.4259 77.8863 46.3379 88.1813 45.7599 100.445C33.2359 93.8223 17.3439 96.3013 8.07591 108.231C6.73091 109.961 6.68491 111.941 7.36291 113.586C7.32091 116.117 8.91891 118.837 12.1469 119.137C57.4649 123.342 102.784 127.548 148.103 131.753C154.507 132.348 154.467 122.344 148.103 121.753" fill="#BFDAE4"/><path id="Fill 11" fill-rule="evenodd" clip-rule="evenodd" d="M27.423 357.274C26.617 342.814 34.055 328.295 46.548 320.798C57.165 314.428 70.561 313.837 81.9 318.419C81.807 315.367 82.234 312.347 83.654 309.458C86.05 304.59 90.93 301.513 96.404 301.755C104.107 302.095 108.524 306.994 111.125 313.128C117.832 308.841 127.267 308.246 135.387 310.918C141.727 313.004 147.781 317.267 149.803 323.934C150.952 327.725 150.555 331.742 148.817 335.06C156.595 336.988 164.121 339.653 171.461 342.979C175.663 344.882 174.232 349.861 170.936 351.544C170.222 353.08 168.808 354.309 166.689 354.491C121.192 358.397 75.694 362.303 30.196 366.21C24.914 366.664 24.013 359.958 27.423 357.274" fill="#BFDAE4"/><path id="Fill 13" fill-rule="evenodd" clip-rule="evenodd" d="M212.952 416.038L215.379 416.008C224.08 409.006 235.246 405.44 246.351 405.962C244.267 392.812 251.9 379.474 265.108 375.524C277.959 371.681 296.076 378.885 295.606 393.426C300.073 393.277 304.423 395.257 307.338 398.699C313.291 396.202 320.012 395.566 326.551 396.571C338.746 398.444 348.99 406.064 357.972 414.063C359.393 415.329 359.772 416.833 359.484 418.218C359.961 420.991 358.381 424.207 354.74 424.253C354.475 424.256 354.211 424.259 353.946 424.263C353.206 424.872 352.256 425.292 351.092 425.393C305.376 429.392 259.684 432.901 213.796 429.764C212.333 429.663 211.203 429.061 210.408 428.198C209.266 427.055 208.576 425.409 208.801 423.739C207.162 420.804 208.537 416.094 212.952 416.038" fill="#BFDAE4"/><path id="Fill 15" fill-rule="evenodd" clip-rule="evenodd" d="M206.265 298.278C212.613 297.645 218.961 297.011 225.309 296.379C226.814 291.116 228.32 285.853 229.825 280.591C231.037 276.351 231.755 270.852 235.803 268.286C239.63 265.861 243.815 267.374 247.124 269.908C252.062 273.69 256.633 278.067 261.338 282.133C261.51 282.282 261.662 282.434 261.805 282.589C265.593 277.688 270.352 273.65 276.586 272.12C282.75 270.607 289.526 272.119 293.993 276.388C297.818 268.75 306.78 264.852 315.6 268.849C323.897 272.61 332.912 281.411 333.021 291.007C345.026 289.713 357.012 292.299 367.449 298.756C369.952 300.304 370.251 302.958 369.317 305.054C369.221 306.248 368.803 307.459 367.983 308.579C364.475 313.367 356.126 311.922 351.085 311.971C334.987 312.128 318.886 312.096 302.787 311.873C270.59 311.428 238.408 310.216 206.265 308.278C199.758 307.885 199.914 298.911 206.265 298.278" fill="#BFDAE4"/><path id="Fill 17" fill-rule="evenodd" clip-rule="evenodd" d="M69.374 213.252C73.455 203.641 86.426 200.387 95.988 202.884C96.864 195.533 99.775 188.282 107.1 185.201C111.805 183.222 116.153 184.116 120.056 186.297C120.784 185.878 121.513 185.484 122.233 185.117C128.672 174.526 143.53 171.627 155.857 175.185C170.023 179.273 180.779 192.84 177.909 207.569C187.314 208.442 195.936 214.192 200.031 222.857C201.795 226.588 198.839 230.021 195.778 230.433C194.717 231.717 193.025 232.398 190.915 231.676C176.522 226.759 160.683 227.71 145.674 227.325C129.637 226.914 113.601 226.502 97.563 226.09C89.799 225.891 62.729 228.896 69.374 213.252" fill="#BFDAE4"/><path id="Fill 19" fill-rule="evenodd" clip-rule="evenodd" d="M962.24 686.004C963.046 671.544 955.608 657.025 943.114 649.528C932.497 643.158 919.102 642.567 907.763 647.149C907.855 644.097 907.429 641.076 906.008 638.188C903.613 633.319 898.732 630.243 893.258 630.485C885.556 630.825 881.138 635.724 878.538 641.858C871.831 637.57 862.396 636.976 854.276 639.648C847.936 641.734 841.882 645.997 839.859 652.663C838.71 656.454 839.108 660.472 840.846 663.79C833.067 665.718 825.542 668.382 818.201 671.708C814 673.611 815.43 678.59 818.726 680.273C819.441 681.81 820.855 683.039 822.973 683.221C868.471 687.127 913.969 691.033 959.467 694.939C964.748 695.393 965.649 688.688 962.24 686.004" fill="#BFDAE4"/><path id="Fill 21" fill-rule="evenodd" clip-rule="evenodd" d="M837.277 827.952C843.625 827.319 849.972 826.685 856.321 826.053C857.826 820.79 859.332 815.527 860.837 810.265C862.048 806.025 862.767 800.525 866.815 797.96C870.642 795.535 874.826 797.048 878.135 799.582C883.073 803.364 887.644 807.741 892.349 811.807C892.521 811.955 892.674 812.108 892.817 812.263C896.604 807.362 901.363 803.324 907.598 801.794C913.762 800.281 920.538 801.792 925.004 806.062C928.829 798.424 937.791 794.526 946.611 798.523C954.908 802.284 963.924 811.085 964.033 820.681C976.037 819.387 988.023 821.973 998.461 828.43C1000.96 829.978 1001.26 832.631 1000.33 834.728C1000.23 835.922 999.815 837.133 998.994 838.253C995.486 843.041 987.138 841.596 982.097 841.645C965.998 841.801 949.897 841.769 933.799 841.547C901.601 841.102 869.419 839.89 837.277 837.952C830.77 837.559 830.926 828.585 837.277 827.952" fill="#BFDAE4"/><path id="Fill 23" fill-rule="evenodd" clip-rule="evenodd" d="M700.385 742.925C704.467 733.314 717.438 730.059 726.999 732.557C727.875 725.206 730.787 717.955 738.112 714.874C742.817 712.895 747.164 713.789 751.068 715.969C751.796 715.551 752.525 715.157 753.244 714.79C759.684 704.199 774.542 701.3 786.869 704.858C801.035 708.946 811.791 722.513 808.921 737.242C818.326 738.115 826.948 743.865 831.043 752.53C832.807 756.261 829.851 759.694 826.79 760.106C825.729 761.39 824.037 762.071 821.926 761.349C807.533 756.432 791.695 757.383 776.686 756.998C760.649 756.587 744.612 756.175 728.574 755.763C720.811 755.564 693.741 758.568 700.385 742.925" fill="#BFDAE4"/><path id="Fill 25" fill-rule="evenodd" clip-rule="evenodd" d="M349.13 205.146C349.776 205.086 350.422 205.026 351.068 204.966C350.73 189.991 364.023 178.725 378.166 181.041C379.656 174.677 382.818 168.976 390.391 168.664C396.317 168.42 401.973 171.177 406.356 175.233C410.086 166.941 418.358 160.985 428.115 161.113C440.807 161.279 450.895 171.574 451.473 183.838C463.997 177.215 479.889 179.694 489.157 191.624C490.502 193.354 490.548 195.334 489.87 196.979C489.912 199.51 488.314 202.23 485.086 202.53C439.768 206.735 394.449 210.94 349.13 215.146C342.726 215.74 342.766 205.737 349.13 205.146" fill="#BFDAE4"/><path id="Fill 27" fill-rule="evenodd" clip-rule="evenodd" d="M627.452 681.21C628.258 666.75 620.82 652.23 608.327 644.734C597.71 638.364 584.314 637.773 572.975 642.355C573.068 639.303 572.641 636.283 571.221 633.394C568.825 628.526 563.945 625.449 558.471 625.691C550.768 626.031 546.351 630.93 543.75 637.064C537.043 632.776 527.608 632.182 519.488 634.854C513.148 636.939 507.094 641.203 505.072 647.87C503.923 651.661 504.32 655.678 506.058 658.996C498.28 660.924 490.754 663.589 483.414 666.915C479.212 668.818 480.643 673.797 483.939 675.48C484.653 677.016 486.067 678.245 488.186 678.426C533.683 682.333 579.181 686.239 624.679 690.146C629.961 690.599 630.862 683.894 627.452 681.21" fill="#BFDAE4"/><path id="Fill 29" fill-rule="evenodd" clip-rule="evenodd" d="M258.989 628.556L256.562 628.525C247.861 621.524 236.695 617.958 225.59 618.48C227.674 605.33 220.041 591.992 206.833 588.042C193.982 584.199 175.865 591.402 176.335 605.944C171.868 605.795 167.518 607.775 164.603 611.217C158.65 608.72 151.929 608.084 145.39 609.089C133.195 610.961 122.951 618.582 113.969 626.581C112.548 627.847 112.169 629.351 112.457 630.736C111.98 633.509 113.56 636.725 117.201 636.77L117.995 636.781C118.735 637.39 119.685 637.809 120.849 637.911C166.565 641.91 212.257 645.419 258.145 642.281C259.608 642.181 260.738 641.579 261.533 640.716C262.675 639.572 263.365 637.926 263.14 636.257C264.779 633.322 263.404 628.612 258.989 628.556" fill="#BFDAE4"/><path id="Fill 31" fill-rule="evenodd" clip-rule="evenodd" d="M303.302 495.229C296.954 494.596 290.607 493.963 284.258 493.33C282.753 488.067 281.247 482.804 279.742 477.542C278.531 473.302 277.812 467.803 273.764 465.237C269.937 462.812 265.753 464.325 262.444 466.859C257.506 470.641 252.935 475.018 248.23 479.084C248.058 479.233 247.905 479.385 247.762 479.54C243.975 474.639 239.216 470.601 232.981 469.071C226.817 467.558 220.041 469.07 215.575 473.339C211.75 465.701 202.788 461.803 193.968 465.8C185.671 469.561 176.655 478.362 176.546 487.958C164.542 486.664 152.556 489.25 142.118 495.707C139.615 497.255 139.317 499.909 140.251 502.005C140.346 503.199 140.764 504.41 141.585 505.53C145.093 510.318 153.441 508.874 158.482 508.922C174.581 509.079 190.682 509.047 206.78 508.824C238.978 508.379 271.16 507.167 303.302 505.229C309.809 504.837 309.653 495.862 303.302 495.229" fill="#BFDAE4"/><path id="Fill 33" fill-rule="evenodd" clip-rule="evenodd" d="M135.725 546.215C131.643 536.604 118.672 533.35 109.111 535.847C108.235 528.496 105.323 521.245 97.9978 518.164C93.2928 516.185 88.9458 517.079 85.0418 519.26C84.3138 518.841 83.5848 518.447 82.8658 518.08C76.4258 507.489 61.5678 504.59 49.2408 508.148C35.0748 512.236 24.3188 525.803 27.1888 540.532C17.7838 541.405 9.16176 547.155 5.06676 555.82C3.30276 559.551 6.25876 562.984 9.31976 563.396C10.3808 564.68 12.0728 565.361 14.1838 564.639C28.5768 559.722 44.4148 560.673 59.4238 560.288C75.4608 559.877 91.4978 559.465 107.536 559.053C115.299 558.854 142.369 561.859 135.725 546.215" fill="#BFDAE4"/><path id="Fill 35" fill-rule="evenodd" clip-rule="evenodd" d="M117.773 685.533C117.127 685.473 116.481 685.413 115.835 685.353C116.173 670.379 102.88 659.112 88.7368 661.428C87.2468 655.064 84.0848 649.364 76.5118 649.052C70.5858 648.807 64.9298 651.564 60.5468 655.62C56.8168 647.328 48.5448 641.372 38.7878 641.5C26.0958 641.666 16.0078 651.961 15.4298 664.225C2.90583 657.602 -12.9862 660.081 -22.2542 672.011C-23.5992 673.741 -23.6452 675.721 -22.9672 677.366C-23.0092 679.897 -21.4112 682.617 -18.1832 682.917C27.1348 687.122 72.4538 691.328 117.773 695.533C124.177 696.128 124.137 686.124 117.773 685.533" fill="#BFDAE4"/><path id="Fill 37" fill-rule="evenodd" clip-rule="evenodd" d="M-2.90711 921.054C-3.71311 906.594 3.72489 892.075 16.2179 884.578C26.8349 878.208 40.2309 877.617 51.5699 882.199C51.4769 879.147 51.9039 876.127 53.3239 873.238C55.7199 868.37 60.5999 865.293 66.0739 865.535C73.7769 865.875 78.1939 870.774 80.7949 876.908C87.5019 872.621 96.9369 872.026 105.057 874.698C111.397 876.784 117.451 881.047 119.473 887.714C120.622 891.505 120.225 895.522 118.487 898.84C126.265 900.768 133.791 903.433 141.131 906.759C145.333 908.662 143.902 913.641 140.606 915.324C139.892 916.86 138.478 918.089 136.359 918.271C90.8619 922.177 45.3639 926.083 -0.134109 929.99C-5.41611 930.444 -6.31711 923.738 -2.90711 921.054" fill="#BFDAE4"/><path id="Fill 39" fill-rule="evenodd" clip-rule="evenodd" d="M-1.00723 447.046L1.41977 447.016C10.1218 440.014 21.2878 436.448 32.3918 436.97C30.3078 423.82 37.9408 410.482 51.1488 406.532C64.0008 402.689 82.1178 409.893 81.6468 424.434C86.1148 424.285 90.4638 426.265 93.3788 429.707C99.3328 427.21 106.053 426.574 112.593 427.579C124.787 429.452 135.031 437.072 144.014 445.071C145.434 446.337 145.813 447.841 145.526 449.226C146.003 451.999 144.423 455.215 140.781 455.261C140.516 455.264 140.252 455.267 139.987 455.271C139.247 455.88 138.297 456.3 137.134 456.401C91.4178 460.4 45.7248 463.909 -0.163233 460.772C-1.62623 460.671 -2.75623 460.069 -3.55123 459.206C-4.69323 458.063 -5.38323 456.417 -5.15823 454.747C-6.79723 451.812 -5.42223 447.102 -1.00723 447.046" fill="#BFDAE4"/><path id="Fill 41" fill-rule="evenodd" clip-rule="evenodd" d="M203.439 833.911C209.787 833.278 216.135 832.644 222.483 832.011C223.988 826.748 225.494 821.486 226.999 816.223C228.211 811.984 228.929 806.484 232.977 803.919C236.804 801.494 240.989 803.007 244.298 805.541C249.236 809.323 253.807 813.7 258.512 817.766C258.684 817.914 258.836 818.067 258.979 818.222C262.767 813.321 267.526 809.283 273.76 807.753C279.924 806.24 286.7 807.751 291.167 812.021C294.992 804.383 303.954 800.485 312.774 804.482C321.071 808.243 330.086 817.044 330.195 826.64C342.2 825.346 354.186 827.932 364.623 834.389C367.126 835.937 367.425 838.59 366.491 840.686C366.395 841.88 365.977 843.092 365.157 844.212C361.649 849 353.3 847.555 348.259 847.604C332.161 847.76 316.06 847.728 299.961 847.506C267.764 847.061 235.582 845.849 203.439 843.911C196.932 843.518 197.088 834.544 203.439 833.911" fill="#BFDAE4"/><path id="Fill 43" fill-rule="evenodd" clip-rule="evenodd" d="M39.0439 777.032C43.1249 767.421 56.0959 764.167 65.6579 766.664C66.5339 759.313 69.4449 752.062 76.7699 748.981C81.4749 747.002 85.8229 747.896 89.7259 750.077C90.4539 749.658 91.1829 749.264 91.9029 748.897C98.3419 738.306 113.2 735.407 125.527 738.965C139.693 743.053 150.449 756.62 147.579 771.349C156.984 772.222 165.606 777.972 169.701 786.637C171.465 790.368 168.509 793.801 165.448 794.213C164.387 795.497 162.695 796.178 160.585 795.456C146.192 790.539 130.353 791.49 115.344 791.105C99.3069 790.694 83.2709 790.282 67.2329 789.87C59.4689 789.671 32.3989 792.676 39.0439 777.032" fill="#BFDAE4"/><path id="Fill 53" fill-rule="evenodd" clip-rule="evenodd" d="M1135.72 546.215C1131.64 536.604 1118.67 533.35 1109.11 535.847C1108.23 528.496 1105.32 521.245 1098 518.164C1093.29 516.185 1088.95 517.079 1085.04 519.26C1084.31 518.841 1083.58 518.447 1082.87 518.08C1076.43 507.489 1061.57 504.59 1049.24 508.148C1035.07 512.236 1024.32 525.803 1027.19 540.532C1017.78 541.405 1009.16 547.155 1005.07 555.82C1003.3 559.551 1006.26 562.984 1009.32 563.396C1010.38 564.68 1012.07 565.361 1014.18 564.639C1028.58 559.722 1044.41 560.673 1059.42 560.288C1075.46 559.877 1091.5 559.465 1107.54 559.053C1115.3 558.854 1142.37 561.859 1135.72 546.215" fill="#BFDAE4"/><path id="Fill 55" fill-rule="evenodd" clip-rule="evenodd" d="M1117.77 685.533C1117.13 685.473 1116.48 685.413 1115.83 685.353C1116.17 670.379 1102.88 659.112 1088.74 661.428C1087.25 655.064 1084.08 649.364 1076.51 649.052C1070.59 648.807 1064.93 651.564 1060.55 655.62C1056.82 647.328 1048.54 641.372 1038.79 641.5C1026.1 641.666 1016.01 651.961 1015.43 664.225C1002.91 657.602 987.014 660.081 977.746 672.011C976.401 673.741 976.355 675.721 977.033 677.366C976.991 679.897 978.589 682.617 981.817 682.917C1027.13 687.122 1072.45 691.328 1117.77 695.533C1124.18 696.128 1124.14 686.124 1117.77 685.533" fill="#BFDAE4"/><path id="Fill 57" fill-rule="evenodd" clip-rule="evenodd" d="M997.093 921.054C996.287 906.594 1003.72 892.075 1016.22 884.578C1026.83 878.208 1040.23 877.617 1051.57 882.199C1051.48 879.147 1051.9 876.127 1053.32 873.238C1055.72 868.37 1060.6 865.293 1066.07 865.535C1073.78 865.875 1078.19 870.774 1080.79 876.908C1087.5 872.621 1096.94 872.026 1105.06 874.698C1111.4 876.784 1117.45 881.047 1119.47 887.714C1120.62 891.505 1120.22 895.522 1118.49 898.84C1126.26 900.768 1133.79 903.433 1141.13 906.759C1145.33 908.662 1143.9 913.641 1140.61 915.324C1139.89 916.86 1138.48 918.089 1136.36 918.271C1090.86 922.177 1045.36 926.083 999.866 929.99C994.584 930.444 993.683 923.738 997.093 921.054" fill="#BFDAE4"/><path id="Fill 59" fill-rule="evenodd" clip-rule="evenodd" d="M998.993 447.046L1001.42 447.016C1010.12 440.014 1021.29 436.448 1032.39 436.97C1030.31 423.82 1037.94 410.482 1051.15 406.532C1064 402.689 1082.12 409.893 1081.65 424.434C1086.11 424.285 1090.46 426.265 1093.38 429.707C1099.33 427.21 1106.05 426.574 1112.59 427.579C1124.79 429.452 1135.03 437.072 1144.01 445.071C1145.43 446.337 1145.81 447.841 1145.53 449.226C1146 451.999 1144.42 455.215 1140.78 455.261C1140.52 455.264 1140.25 455.267 1139.99 455.271C1139.25 455.88 1138.3 456.3 1137.13 456.401C1091.42 460.4 1045.72 463.909 999.837 460.772C998.374 460.671 997.244 460.069 996.449 459.206C995.308 458.063 994.617 456.417 994.842 454.747C993.203 451.812 994.578 447.102 998.993 447.046" fill="#BFDAE4"/><path id="Fill 63" fill-rule="evenodd" clip-rule="evenodd" d="M235.784 732.953C236.43 732.893 237.076 732.833 237.722 732.773C237.384 717.798 250.677 706.532 264.82 708.848C266.31 702.484 269.472 696.783 277.045 696.471C282.971 696.227 288.627 698.984 293.01 703.039C296.74 694.748 305.012 688.792 314.769 688.92C327.461 689.086 337.549 699.381 338.127 711.645C350.651 705.022 366.543 707.501 375.811 719.43C377.156 721.161 377.202 723.14 376.524 724.786C376.566 727.317 374.968 730.037 371.74 730.337C326.422 734.542 281.103 738.747 235.784 742.953C229.38 743.547 229.42 733.543 235.784 732.953" fill="#BFDAE4"/><path id="Fill 68" fill-rule="evenodd" clip-rule="evenodd" d="M607.743 178.902L610.17 178.872C618.872 171.87 630.038 168.304 641.142 168.826C639.058 155.676 646.691 142.338 659.899 138.388C672.751 134.545 690.868 141.749 690.397 156.29C694.865 156.141 699.214 158.121 702.129 161.563C708.083 159.067 714.803 158.43 721.343 159.435C733.537 161.308 743.781 168.928 752.764 176.927C754.184 178.193 754.563 179.698 754.276 181.082C754.753 183.855 753.173 187.071 749.531 187.117C749.266 187.12 749.002 187.124 748.737 187.127C747.997 187.737 747.047 188.156 745.884 188.257C700.168 192.256 654.475 195.765 608.587 192.628C607.124 192.527 605.994 191.925 605.199 191.062C604.057 189.919 603.367 188.273 603.592 186.603C601.953 183.668 603.328 178.958 607.743 178.902" fill="#BFDAE4"/><path id="Fill 70" fill-rule="evenodd" clip-rule="evenodd" d="M434.625 88.5805C440.973 87.9475 447.321 87.3135 453.669 86.6815C455.174 81.4185 456.68 76.1555 458.185 70.8935C459.397 66.6535 460.115 61.1545 464.163 58.5885C467.99 56.1635 472.175 57.6765 475.484 60.2105C480.422 63.9925 484.993 68.3695 489.698 72.4355C489.87 72.5845 490.022 72.7365 490.165 72.8915C493.953 67.9905 498.712 63.9525 504.946 62.4225C511.11 60.9095 517.886 62.4215 522.353 66.6905C526.178 59.0525 535.14 55.1545 543.96 59.1515C552.257 62.9125 561.272 71.7135 561.381 81.3095C573.386 80.0155 585.372 82.6015 595.809 89.0585C598.312 90.6065 598.611 93.2605 597.677 95.3565C597.581 96.5505 597.163 97.7615 596.343 98.8815C592.835 103.67 584.486 102.225 579.445 102.274C563.347 102.431 547.246 102.399 531.147 102.176C498.95 101.731 466.768 100.519 434.625 98.5805C428.118 98.1875 428.274 89.2135 434.625 88.5805" fill="#BFDAE4"/><path id="Fill 72" fill-rule="evenodd" clip-rule="evenodd" d="M731.011 96.5609C735.092 86.9499 748.063 83.6959 757.625 86.1939C758.501 78.8419 761.412 71.5909 768.737 68.5109C773.442 66.5319 777.79 67.4249 781.693 69.6059C782.421 69.1879 783.15 68.7929 783.87 68.4269C790.309 57.8349 805.167 54.9359 817.494 58.4939C831.66 62.5819 842.416 76.1489 839.546 90.8779C848.951 91.7509 857.573 97.5009 861.668 106.166C863.432 109.897 860.476 113.33 857.415 113.742C856.354 115.026 854.662 115.707 852.552 114.985C838.159 110.068 822.32 111.02 807.311 110.635C791.274 110.223 775.238 109.811 759.2 109.399C751.436 109.2 724.366 112.205 731.011 96.5609" fill="#BFDAE4"/><path id="Fill 74" fill-rule="evenodd" clip-rule="evenodd" d="M830.744 309.064C831.55 294.604 824.112 280.085 811.618 272.588C801.001 266.218 787.606 265.627 776.267 270.209C776.359 267.157 775.933 264.137 774.512 261.248C772.117 256.38 767.236 253.303 761.762 253.545C754.06 253.885 749.642 258.784 747.042 264.918C740.335 260.631 730.9 260.036 722.78 262.708C716.44 264.794 710.386 269.057 708.363 275.725C707.214 279.515 707.612 283.532 709.35 286.85C701.571 288.778 694.046 291.443 686.705 294.769C682.504 296.672 683.934 301.652 687.23 303.334C687.945 304.871 689.359 306.099 691.477 306.281C736.975 310.187 782.473 314.094 827.971 318C833.252 318.454 834.153 311.748 830.744 309.064" fill="#BFDAE4"/><path id="Fill 76" fill-rule="evenodd" clip-rule="evenodd" d="M1027.17 197.492L1024.74 197.462C1016.04 190.46 1004.87 186.894 993.77 187.416C995.854 174.266 988.221 160.928 975.013 156.978C962.161 153.135 944.044 160.339 944.515 174.88C940.047 174.731 935.698 176.711 932.783 180.153C926.829 177.656 920.109 177.02 913.569 178.025C901.375 179.898 891.131 187.518 882.149 195.517C880.728 196.783 880.349 198.287 880.636 199.672C880.159 202.445 881.739 205.661 885.381 205.707C885.646 205.71 885.91 205.713 886.175 205.717C886.915 206.326 887.865 206.746 889.028 206.847C934.744 210.846 980.437 214.355 1026.33 211.218C1027.79 211.117 1028.92 210.515 1029.71 209.652C1030.86 208.509 1031.55 206.863 1031.32 205.193C1032.96 202.258 1031.58 197.548 1027.17 197.492" fill="#BFDAE4"/><path id="Fill 78" fill-rule="evenodd" clip-rule="evenodd" d="M400.2 759.568C404.282 749.957 417.253 746.703 426.814 749.201C427.69 741.849 430.602 734.598 437.927 731.518C442.632 729.539 446.979 730.432 450.883 732.613C451.611 732.195 452.34 731.8 453.059 731.434C459.499 720.842 474.357 717.943 486.684 721.501C500.85 725.589 511.606 739.156 508.736 753.885C518.141 754.758 526.763 760.508 530.858 769.173C532.622 772.904 529.666 776.337 526.605 776.749C525.544 778.033 523.852 778.714 521.741 777.992C507.348 773.075 491.51 774.027 476.501 773.642C460.464 773.23 444.427 772.818 428.389 772.406C420.626 772.207 393.556 775.212 400.2 759.568" fill="#BFDAE4"/><path id="Fill 80" fill-rule="evenodd" clip-rule="evenodd" d="M676.278 817.098L673.851 817.068C665.15 810.066 653.984 806.5 642.879 807.022C644.963 793.872 637.33 780.534 624.122 776.584C611.271 772.741 593.154 779.945 593.624 794.486C589.157 794.337 584.807 796.317 581.892 799.759C575.939 797.262 569.218 796.626 562.679 797.631C550.484 799.504 540.24 807.124 531.257 815.123C529.837 816.389 529.458 817.893 529.746 819.278C529.269 822.051 530.849 825.267 534.49 825.313C534.755 825.316 535.019 825.319 535.284 825.323C536.024 825.932 536.974 826.352 538.138 826.453C583.854 830.452 629.546 833.961 675.434 830.824C676.897 830.723 678.027 830.121 678.822 829.258C679.964 828.115 680.654 826.469 680.429 824.799C682.068 821.864 680.693 817.154 676.278 817.098" fill="#BFDAE4"/><path id="Fill 82" fill-rule="evenodd" clip-rule="evenodd" d="M656.241 395.426C649.893 394.793 643.546 394.159 637.197 393.526C635.692 388.263 634.186 383.001 632.681 377.738C631.47 373.499 630.751 367.999 626.703 365.434C622.876 363.009 618.692 364.522 615.383 367.056C610.445 370.838 605.874 375.215 601.169 379.281C600.997 379.429 600.844 379.582 600.701 379.737C596.914 374.836 592.155 370.798 585.92 369.268C579.756 367.755 572.98 369.266 568.514 373.536C564.689 365.898 555.727 362 546.907 365.997C538.61 369.758 529.594 378.559 529.485 388.155C517.481 386.861 505.495 389.447 495.057 395.904C492.554 397.452 492.256 400.105 493.19 402.201C493.285 403.395 493.703 404.607 494.524 405.727C498.032 410.515 506.38 409.07 511.421 409.119C527.52 409.275 543.621 409.243 559.719 409.021C591.917 408.576 624.099 407.364 656.241 405.426C662.748 405.033 662.592 396.059 656.241 395.426" fill="#BFDAE4"/><path id="Fill 88" fill-rule="evenodd" clip-rule="evenodd" d="M378.759 499.375C377.953 484.915 385.391 470.396 397.884 462.899C408.501 456.529 421.897 455.938 433.236 460.52C433.143 457.468 433.57 454.448 434.99 451.559C437.386 446.691 442.266 443.614 447.74 443.856C455.443 444.196 459.86 449.095 462.461 455.229C469.168 450.942 478.603 450.347 486.723 453.019C493.063 455.105 499.117 459.368 501.139 466.035C502.288 469.826 501.891 473.843 500.153 477.161C507.931 479.089 515.457 481.754 522.797 485.08C526.999 486.983 525.568 491.962 522.272 493.645C521.558 495.182 520.144 496.41 518.025 496.592C472.528 500.498 427.03 504.405 381.532 508.311C376.25 508.765 375.349 502.059 378.759 499.375" fill="#BFDAE4"/><path id="Fill 90" fill-rule="evenodd" clip-rule="evenodd" d="M451.286 303.677L453.713 303.646C462.415 296.645 473.581 293.078 484.685 293.6C482.601 280.451 490.234 267.113 503.442 263.163C516.294 259.32 534.411 266.523 533.94 281.065C538.408 280.916 542.757 282.895 545.672 286.337C551.626 283.841 558.346 283.205 564.886 284.209C577.08 286.082 587.324 293.703 596.307 301.702C597.727 302.968 598.106 304.472 597.819 305.857C598.296 308.63 596.716 311.845 593.074 311.891L592.28 311.902C591.54 312.511 590.59 312.93 589.427 313.032C543.711 317.031 498.018 320.539 452.13 317.402C450.667 317.302 449.537 316.7 448.742 315.837C447.6 314.693 446.91 313.047 447.135 311.377C445.496 308.443 446.871 303.732 451.286 303.677" fill="#BFDAE4"/><path id="Fill 94" fill-rule="evenodd" clip-rule="evenodd" d="M913.434 28.1053C917.516 18.4943 930.487 15.2403 940.048 17.7383C940.924 10.3863 943.836 3.13534 951.161 0.0553379C955.866 -1.92366 960.213 -1.03066 964.117 1.15034C964.845 0.732338 965.574 0.337338 966.293 -0.0296621C972.733 -10.6207 987.591 -13.5197 999.918 -9.96166C1014.08 -5.87366 1024.84 7.69334 1021.97 22.4223C1031.38 23.2953 1040 29.0453 1044.09 37.7103C1045.86 41.4413 1042.9 44.8743 1039.84 45.2863C1038.78 46.5703 1037.09 47.2513 1034.98 46.5293C1020.58 41.6123 1004.74 42.5643 989.735 42.1793C973.698 41.7673 957.661 41.3553 941.623 40.9433C933.86 40.7443 906.79 43.7493 913.434 28.1053" fill="#BFDAE4"/><path id="Fill 96" fill-rule="evenodd" clip-rule="evenodd" d="M843.944 378.053C844.59 377.993 845.236 377.933 845.882 377.873C845.544 362.899 858.837 351.632 872.98 353.948C874.47 347.584 877.632 341.883 885.205 341.572C891.131 341.327 896.787 344.084 901.17 348.14C904.9 339.848 913.172 333.892 922.929 334.02C935.621 334.186 945.709 344.481 946.287 356.745C958.811 350.122 974.703 352.601 983.971 364.531C985.316 366.261 985.362 368.241 984.684 369.886C984.726 372.417 983.128 375.137 979.9 375.437C934.582 379.642 889.263 383.848 843.944 388.053C837.54 388.648 837.58 378.644 843.944 378.053" fill="#BFDAE4"/><path id="Fill 98" fill-rule="evenodd" clip-rule="evenodd" d="M807.299 629.235C808.105 614.775 800.667 600.256 788.173 592.759C777.556 586.389 764.161 585.798 752.822 590.38C752.914 587.328 752.488 584.308 751.067 581.419C748.672 576.551 743.791 573.474 738.317 573.716C730.615 574.056 726.197 578.955 723.597 585.089C716.89 580.802 707.455 580.207 699.335 582.879C692.995 584.965 686.941 589.228 684.918 595.895C683.769 599.686 684.167 603.703 685.905 607.021C678.126 608.949 670.601 611.614 663.26 614.94C659.059 616.843 660.489 621.822 663.785 623.505C664.5 625.041 665.914 626.27 668.032 626.452C713.53 630.358 759.028 634.264 804.526 638.171C809.807 638.625 810.708 631.919 807.299 629.235" fill="#BFDAE4"/><path id="Fill 102" fill-rule="evenodd" clip-rule="evenodd" d="M333.632 931.449C327.284 930.816 320.937 930.183 314.588 929.55C313.083 924.287 311.577 919.024 310.072 913.762C308.861 909.522 308.142 904.023 304.094 901.457C300.267 899.032 296.083 900.545 292.774 903.079C287.836 906.861 283.265 911.238 278.56 915.304C278.388 915.453 278.235 915.605 278.092 915.76C274.305 910.859 269.546 906.821 263.311 905.291C257.147 903.778 250.371 905.29 245.905 909.559C242.08 901.921 233.118 898.023 224.298 902.02C216.001 905.781 206.985 914.582 206.876 924.178C194.872 922.884 182.886 925.47 172.448 931.927C169.945 933.475 169.647 936.129 170.581 938.225C170.676 939.419 171.094 940.63 171.915 941.75C175.423 946.538 183.771 945.094 188.812 945.142C204.911 945.299 221.012 945.267 237.11 945.044C269.308 944.599 301.49 943.387 333.632 941.449C340.139 941.057 339.983 932.082 333.632 931.449" fill="#BFDAE4"/><path id="Fill 104" fill-rule="evenodd" clip-rule="evenodd" d="M428.759 936.529C427.953 922.069 435.391 907.55 447.884 900.053C458.501 893.683 471.897 893.092 483.236 897.674C483.143 894.622 483.57 891.602 484.99 888.713C487.386 883.845 492.266 880.768 497.74 881.01C505.443 881.35 509.86 886.249 512.461 892.383C519.168 888.096 528.603 887.501 536.723 890.173C543.063 892.259 549.117 896.522 551.139 903.189C552.288 906.98 551.891 910.997 550.153 914.315C557.931 916.243 565.457 918.908 572.797 922.234C576.999 924.137 575.568 929.116 572.272 930.799C571.558 932.335 570.144 933.564 568.025 933.746C522.528 937.652 477.03 941.558 431.532 945.465C426.25 945.919 425.349 939.213 428.759 936.529" fill="#BFDAE4"/><path id="Fill 106" fill-rule="evenodd" clip-rule="evenodd" d="M611.884 901.953C612.53 901.893 613.176 901.833 613.822 901.773C613.484 886.798 626.777 875.532 640.92 877.848C642.41 871.484 645.572 865.783 653.145 865.471C659.071 865.227 664.727 867.984 669.11 872.04C672.84 863.748 681.112 857.792 690.869 857.92C703.561 858.086 713.649 868.381 714.227 880.645C726.751 874.022 742.643 876.501 751.911 888.431C753.256 890.161 753.302 892.141 752.624 893.786C752.666 896.317 751.068 899.037 747.84 899.337C702.522 903.542 657.203 907.747 611.884 911.953C605.48 912.547 605.52 902.544 611.884 901.953" fill="#BFDAE4"/><path id="Fill 108" fill-rule="evenodd" clip-rule="evenodd" d="M960.165 928.937L957.738 928.907C949.037 921.905 937.871 918.339 926.766 918.861C928.85 905.711 921.217 892.373 908.009 888.423C895.158 884.58 877.041 891.784 877.511 906.325C873.044 906.176 868.694 908.156 865.779 911.598C859.826 909.102 853.105 908.465 846.566 909.47C834.371 911.343 824.127 918.963 815.144 926.962C813.724 928.228 813.345 929.733 813.633 931.117C813.156 933.89 814.736 937.106 818.377 937.152C818.642 937.155 818.906 937.159 819.171 937.162C819.911 937.772 820.861 938.191 822.025 938.292C867.741 942.291 913.433 945.8 959.321 942.663C960.784 942.562 961.914 941.96 962.709 941.097C963.851 939.954 964.541 938.308 964.316 936.638C965.955 933.703 964.58 928.993 960.165 928.937" fill="#BFDAE4"/><path id="Fill 110" fill-rule="evenodd" clip-rule="evenodd" d="M726.841 509.479C720.493 508.846 714.146 508.212 707.797 507.579C706.292 502.316 704.786 497.054 703.281 491.791C702.07 487.552 701.351 482.052 697.303 479.487C693.476 477.061 689.292 478.575 685.983 481.109C681.045 484.891 676.474 489.268 671.769 493.334C671.597 493.482 671.444 493.635 671.301 493.79C667.514 488.889 662.755 484.851 656.52 483.321C650.356 481.808 643.58 483.319 639.114 487.589C635.289 479.951 626.327 476.052 617.507 480.05C609.21 483.811 600.194 492.611 600.085 502.208C588.081 500.914 576.095 503.5 565.657 509.957C563.154 511.505 562.856 514.158 563.79 516.254C563.885 517.448 564.303 518.66 565.124 519.78C568.632 524.568 576.98 523.123 582.021 523.172C598.12 523.328 614.221 523.296 630.319 523.074C662.517 522.629 694.699 521.417 726.841 519.479C733.348 519.086 733.192 510.112 726.841 509.479" fill="#BFDAE4"/><path id="Fill 112" fill-rule="evenodd" clip-rule="evenodd" d="M459.223 598.056C455.141 588.445 442.17 585.191 432.609 587.689C431.733 580.337 428.821 573.086 421.496 570.006C416.791 568.027 412.444 568.92 408.54 571.101C407.812 570.683 407.083 570.288 406.364 569.922C399.924 559.33 385.066 556.431 372.739 559.989C358.573 564.077 347.817 577.644 350.687 592.373C341.282 593.246 332.66 598.996 328.565 607.661C326.801 611.392 329.757 614.825 332.818 615.237C333.879 616.521 335.571 617.202 337.682 616.48C352.075 611.563 367.913 612.515 382.922 612.13C398.959 611.718 414.996 611.306 431.034 610.894C438.797 610.695 465.867 613.7 459.223 598.056" fill="#BFDAE4"/><path id="Fill 114" fill-rule="evenodd" clip-rule="evenodd" d="M922.337 491.251C921.691 491.191 921.045 491.131 920.399 491.071C920.737 476.096 907.444 464.829 893.301 467.146C891.811 460.782 888.649 455.081 881.076 454.769C875.15 454.525 869.494 457.282 865.111 461.337C861.381 453.046 853.109 447.09 843.352 447.218C830.66 447.384 820.572 457.678 819.994 469.943C807.47 463.32 791.578 465.799 782.31 477.728C780.965 479.459 780.919 481.438 781.597 483.084C781.555 485.615 783.153 488.335 786.381 488.635C831.699 492.84 877.018 497.045 922.337 501.251C928.741 501.845 928.701 491.841 922.337 491.251" fill="#BFDAE4"/><path id="Fill 116" fill-rule="evenodd" clip-rule="evenodd" d="M231.364 115.346C217.754 114.594 201.721 127.195 210.789 140.444C207.223 141.868 175.665 147.972 187.239 154.132C187.731 155.281 188.249 156.335 190.134 156.554L326.626 168.273C330.241 168.561 329.798 163.518 327.174 162.258C330.152 133.418 298.474 111.998 272.66 125.477C275.749 105.638 252.269 100.864 246.443 120.143C242.127 117.061 237.145 115.302 231.364 115.346M326.93 172.286C326.867 172.389 190.061 160.515 189.793 160.539C185.297 159.811 180.831 155.086 180.594 150.613C181.922 142.262 198.473 140.629 205.086 137.76C198.37 117.011 229.249 105.416 244.634 114.371C251.616 98.0703 276.053 101.842 276.68 119.639C303.58 109.849 332.791 132.227 331.266 160.5C335.154 164.389 333.046 172.504 326.93 172.286" fill="#7688A2"/><path id="Fill 118" fill-rule="evenodd" clip-rule="evenodd" d="M179.656 51.8496C165.645 51.6556 153.082 60.7326 143.629 69.2946C142.473 70.1936 142.781 71.1706 142.758 72.2946C142.222 75.0556 144.6 76.3836 147.053 76.0096C193.333 82.7466 240.758 83.7766 286.339 81.5076C288.558 81.4136 289.934 78.9716 289.399 77.0826C291.883 72.6376 288.022 71.2696 284.176 71.7366C275.251 64.2706 263.188 60.7776 251.56 61.8126C259.366 26.6356 206.561 18.6436 206.733 49.2336C201.631 48.5716 196.538 50.5656 193.511 54.8486C189.214 52.8986 184.606 51.8316 179.656 51.8496M249.541 86.7036C215.464 85.9486 180.056 85.3796 145.664 79.9926C121.978 72.7106 161.885 48.6086 173.417 48.3326C180.05 47.3136 186.579 47.9166 192.396 50.0746C195.181 47.3116 198.867 45.5846 202.71 45.2256C209.821 12.7456 259.657 25.1166 256.174 57.6486C266.867 57.6616 277.212 61.2046 285.6 67.7536C294.775 66.4316 296.185 77.9066 291.278 83.3496C290.125 84.6046 288.492 85.3676 286.612 85.4956C274.275 86.3396 261.922 86.7036 249.541 86.7036" fill="#7688A2"/><path id="Fill 124" fill-rule="evenodd" clip-rule="evenodd" d="M29.4496 103.873C22.6926 103.35 5.65261 109.893 7.36861 118.206C7.22661 119.94 8.06861 121.917 10.3316 122.146C12.4146 121.385 146.978 136.674 148.388 133.968C150.5 129.369 145.895 128.37 142.123 128.393C143.875 113.927 129.655 101.189 115.546 104.924C113.545 87.8992 97.1816 90.0942 88.1946 100.197C79.5606 75.3322 44.2736 82.6842 45.6096 108.686C40.6906 105.796 34.9676 103.749 29.4496 103.873M146.622 138.778C146.334 138.864 10.4126 126.124 9.96261 126.129C5.72861 125.736 3.48761 122.298 3.36661 118.966C2.19361 102.429 29.5706 96.0642 42.0646 102.431C44.9786 79.1842 78.4536 72.7212 89.5076 93.6802C99.6466 85.5712 114.833 85.6062 118.556 100.446C132.445 98.8992 145.804 110.757 146.139 124.748C154.413 124.905 155.402 138.824 146.622 138.778" fill="#7688A2"/><path id="Fill 126" fill-rule="evenodd" clip-rule="evenodd" d="M64.4292 322.398C42.9612 321.863 25.4482 341.982 27.4772 363.202C24.8692 364.462 24.3942 369.503 28.0252 369.217L164.517 357.498C166.407 357.278 166.905 356.226 167.411 355.076C178.963 348.913 147.504 342.833 143.862 341.388C156.233 321.21 121.324 309.074 108.207 321.086C102.374 301.795 78.9002 306.6 81.9912 326.421C76.4552 323.963 70.3612 322.315 64.4292 322.398M27.7202 373.23C21.6042 373.448 19.4972 365.332 23.3842 361.443C21.8602 333.167 51.0732 310.795 77.9702 320.583C78.5962 302.783 103.038 299.017 110.017 315.315C125.407 306.358 156.28 317.957 149.565 338.703C156.234 341.586 172.664 343.184 174.056 351.554C173.848 356.029 169.325 360.755 164.86 361.483C164.061 361.481 28.3792 373.285 27.7202 373.23" fill="#7688A2"/><path id="Fill 128" fill-rule="evenodd" clip-rule="evenodd" d="M210.976 423.037C208.145 422.962 207.427 426.447 208.871 428.344C208.318 430.274 209.764 432.687 211.931 432.767C257.513 435.037 304.945 434.008 351.216 427.271C353.661 427.638 356.056 426.323 355.512 423.556C355.485 422.431 355.8 421.455 354.641 420.556C342.417 408.624 322.018 397.508 304.758 406.109C301.73 401.828 296.619 399.84 291.537 400.495C291.698 369.888 238.897 377.919 246.709 413.074C235.065 412.037 223.015 415.535 214.093 422.998L210.976 423.037ZM248.73 437.965C236.346 437.965 223.999 437.601 211.658 436.758C207.731 436.577 204.622 432.925 204.762 429.129C202.309 423.814 206.89 418.058 212.67 419.016C221.058 412.466 231.404 408.923 242.096 408.91C238.622 376.354 288.46 364.026 295.56 396.487C299.404 396.845 303.088 398.572 305.873 401.336C311.693 399.177 318.221 398.575 324.853 399.593C336.332 399.849 376.31 423.97 352.606 431.254C318.214 436.641 282.812 437.208 248.73 437.965V437.965Z" fill="#7688A2"/><path id="Fill 130" fill-rule="evenodd" clip-rule="evenodd" d="M349.352 314.97C355.249 315.01 364.847 316.608 365.491 309.24C365.746 308.668 366.419 306.707 364.398 305.456C353.861 298.878 341.445 296.497 329.047 298.232C330.54 280.17 300.16 262.988 292.569 284.705C283.178 273.64 267.307 278.824 259.94 290.686C232.313 263.454 233.791 271.325 224.86 303.234L204.464 305.268C200.57 305.664 200.239 310.969 204.386 311.282C253.133 314.214 300.889 315.443 349.352 314.97M355.543 319.137C304.905 319.143 255.05 318.537 204.146 315.274C195.059 314.554 195.376 302.241 204.068 301.288L221.76 299.523C229.379 269.519 232.727 258.567 259.582 284.693C267.53 274.776 281.321 271.098 291.457 278.345C303.423 260.31 330.41 276.363 332.864 293.834C342.123 292.835 373.281 297.136 369.279 310.55C368.549 317.177 361.409 319.421 355.543 319.137" fill="#7688A2"/><path id="Fill 132" fill-rule="evenodd" clip-rule="evenodd" d="M94.6701 229.08C122.434 231.192 162.897 227.208 189.562 234.782C191.005 235.336 191.993 234.632 192.735 233.556C205.493 230.322 182.668 213.094 175.725 214.561C175.725 214.56 173.524 214.356 173.524 214.356C181.452 185.582 136.709 168.059 121.648 191.642C120.471 192.225 119.223 192.924 118.069 193.596C106.077 186.002 96.0371 197.036 95.7031 210.399C86.4381 207.226 73.1561 209.854 69.2151 219.034C64.2091 231.92 86.3391 228.662 94.6701 229.08M190.579 238.967C164.207 231.528 123.109 235.002 95.5121 233.088C83.8571 233.303 58.7411 235.017 65.5331 217.471C69.7341 207.581 82.2171 203.757 92.3201 205.482C94.3501 191.953 105.808 183.042 118.026 189.021C135.632 163.894 182.183 180.803 178.194 210.849C191.725 211.738 212.891 234.131 190.579 238.967" fill="#7688A2"/><path id="Fill 134" fill-rule="evenodd" clip-rule="evenodd" d="M862.375 645.02C848.765 644.269 832.731 656.867 841.8 670.119C838.239 671.541 806.678 677.645 818.248 683.806C818.741 684.954 819.26 686.009 821.144 686.228L957.637 697.947C961.249 698.236 960.809 693.191 958.185 691.932C961.162 663.094 929.487 641.671 903.672 655.151C906.756 635.309 883.279 630.54 877.454 649.817C873.138 646.734 868.156 644.976 862.375 645.02M957.941 701.96C957.878 702.063 821.071 690.189 820.803 690.213C816.308 689.485 811.841 684.76 811.605 680.287C812.929 671.936 829.489 670.302 836.097 667.434C829.379 646.685 860.262 635.09 875.645 644.045C882.624 627.744 907.063 631.516 907.69 649.313C934.59 639.521 963.801 661.902 962.277 690.174C966.162 694.063 964.057 702.178 957.941 701.96" fill="#7688A2"/><path id="Fill 136" fill-rule="evenodd" clip-rule="evenodd" d="M980.363 844.644C986.26 844.685 995.859 846.282 996.502 838.914C996.757 838.342 997.43 836.381 995.41 835.13C984.872 828.551 972.453 826.172 960.059 827.906C961.553 809.844 931.17 792.662 923.58 814.38C914.192 803.314 898.319 808.497 890.955 820.357C863.316 793.137 864.808 800.991 855.872 832.908L835.476 834.942C831.582 835.338 831.251 840.643 835.398 840.956C884.143 843.889 931.9 845.115 980.363 844.644M986.555 848.811C935.915 848.816 886.061 848.211 835.158 844.948C826.071 844.228 826.388 831.915 835.08 830.962L852.772 829.197C860.39 799.247 863.72 788.212 890.593 814.367C898.539 804.451 912.336 800.771 922.468 808.019C934.435 789.985 961.422 806.037 963.876 823.508C973.132 822.508 1004.29 826.811 1000.29 840.223C999.563 846.851 992.421 849.095 986.555 848.811" fill="#7688A2"/><path id="Fill 138" fill-rule="evenodd" clip-rule="evenodd" d="M725.681 758.753C753.445 760.865 793.908 756.88 820.573 764.455C822.014 765.008 823.005 764.305 823.747 763.229C836.505 759.995 813.681 742.767 806.737 744.234C806.737 744.233 804.535 744.029 804.535 744.029C812.463 715.254 767.722 697.732 752.659 721.315C751.483 721.898 750.235 722.597 749.08 723.268C737.085 715.675 727.049 726.71 726.714 740.073C716.483 735.87 696.592 741.897 700.022 754.708C703.92 759.913 718.322 758.75 725.681 758.753M821.59 768.64C795.218 761.2 754.12 764.676 726.523 762.761C714.854 762.974 689.758 764.689 696.544 747.144C700.744 737.254 713.222 733.427 723.331 735.155C725.36 721.626 736.82 712.716 749.038 718.694C766.642 693.567 813.196 710.476 809.206 740.522C822.739 741.411 843.903 763.806 821.59 768.64" fill="#7688A2"/><path id="Fill 140" fill-rule="evenodd" clip-rule="evenodd" d="M347.314 212.137C343.67 212.513 342.928 218.184 346.944 218.155C346.945 218.155 482.901 205.538 482.901 205.538C484.978 205.345 485.896 203.575 485.87 202.012C485.995 200.678 486.926 199.696 485.578 197.851C476.656 186.173 460.039 184.155 447.623 192.078C448.954 166.064 413.663 158.731 405.038 183.59C396.042 173.478 379.689 171.297 377.687 188.317C363.574 184.579 349.358 197.322 351.11 211.786L347.314 212.137ZM346.605 222.171C338.08 222.241 338.479 208.572 347.093 208.14C347.427 194.149 360.79 182.291 374.676 183.838C378.402 168.997 393.581 168.964 403.726 177.073C414.781 156.107 448.255 162.584 451.168 185.823C463.98 179.535 490.687 185.592 489.868 202.358C489.745 205.69 487.503 209.129 483.27 209.521C482.519 209.542 347.252 222.216 346.605 222.171V222.171Z" fill="#7688A2"/><path id="Fill 142" fill-rule="evenodd" clip-rule="evenodd" d="M527.588 640.225C513.977 639.473 497.945 652.074 507.013 665.324C503.453 666.745 471.888 672.851 483.463 679.011C483.955 680.16 484.473 681.214 486.358 681.433L622.85 693.152C626.466 693.437 626.022 688.398 623.398 687.137C626.375 658.298 594.701 636.875 568.884 650.356C571.973 630.517 548.489 625.744 542.667 645.022C538.352 641.939 533.369 640.181 527.588 640.225M623.154 697.165C623.091 697.268 486.285 685.393 486.017 685.418C481.521 684.691 477.055 679.965 476.818 675.492C478.145 667.141 494.702 665.506 501.31 662.639C494.594 641.889 525.471 630.295 540.858 639.25C547.841 622.947 572.279 626.722 572.904 644.518C599.804 634.727 629.015 657.106 627.49 685.379C631.378 689.268 629.269 697.383 623.154 697.165" fill="#7688A2"/><path id="Fill 144" fill-rule="evenodd" clip-rule="evenodd" d="M149.326 615.629C135.315 615.435 122.752 624.512 113.299 633.074C112.143 633.973 112.451 634.95 112.428 636.074C111.892 638.835 114.27 640.163 116.723 639.789C163.003 646.526 210.427 647.556 256.009 645.287C258.228 645.193 259.604 642.751 259.069 640.862C261.553 636.417 257.692 635.049 253.846 635.516C244.921 628.05 232.86 624.552 221.23 625.592C229.036 590.415 176.231 582.423 176.403 613.013C171.304 612.354 166.208 614.346 163.181 618.628C158.884 616.678 154.276 615.611 149.326 615.629M219.211 650.483C185.134 649.728 149.726 649.159 115.334 643.772C91.6478 636.49 131.555 612.388 143.087 612.112C149.719 611.093 156.249 611.696 162.066 613.854C164.851 611.091 168.537 609.364 172.38 609.005C179.491 576.525 229.327 588.896 225.844 621.428C236.537 621.441 246.882 624.984 255.27 631.533C264.445 630.211 265.855 641.686 260.948 647.129C259.795 648.384 258.162 649.147 256.282 649.275C243.945 650.119 231.592 650.483 219.211 650.483" fill="#7688A2"/><path id="Fill 146" fill-rule="evenodd" clip-rule="evenodd" d="M168.516 494.632C162.735 494.225 138.096 498.732 140.079 506.19C140.613 512.409 147.674 512.285 153.336 512C163.188 512.625 375.042 511.402 280.709 500.185C271.766 468.159 273.202 460.483 245.629 487.637C238.268 475.776 222.384 470.59 213.001 481.656C205.405 459.934 175.026 477.129 176.522 495.183C173.91 494.881 171.117 494.611 168.516 494.632M150.026 516.088C144.162 516.372 137.016 514.127 136.292 507.5C132.325 494.075 163.373 489.799 172.705 490.784C175.158 473.312 202.15 457.262 214.113 475.296C224.255 468.049 238.036 471.726 245.988 481.644C272.911 455.429 276.202 466.62 283.809 496.474L301.501 498.238C310.196 499.192 310.507 511.506 301.423 512.225C250.518 515.488 200.67 516.093 150.026 516.088" fill="#7688A2"/><path id="Fill 148" fill-rule="evenodd" clip-rule="evenodd" d="M57.5071 513.714C40.2841 513.169 22.5561 528.659 27.5731 547.318L25.3721 547.523C18.4531 546.049 -4.40287 563.276 8.36113 566.518C9.13313 567.593 10.0731 568.299 11.5361 567.746C26.3101 562.718 42.0681 563.677 57.3711 563.288L105.483 562.053C113.824 561.482 136.893 565.223 131.883 551.996C127.942 542.817 114.663 540.188 105.395 543.362C105.061 529.998 95.0211 518.964 83.0281 526.558C81.8731 525.886 80.6261 525.188 79.4501 524.604C75.1161 517.005 66.2791 513.704 57.5071 513.714M10.5191 571.929C-11.7989 567.093 9.37813 544.698 22.9031 543.811C18.9221 513.756 65.4631 496.863 83.0711 521.984C95.2941 516.007 106.745 524.914 108.778 538.444C118.892 536.718 131.364 540.544 135.565 550.433C142.35 567.981 117.252 566.262 105.586 566.051C77.8531 567.971 37.0411 564.48 10.5191 571.929" fill="#7688A2"/><path id="Fill 150" fill-rule="evenodd" clip-rule="evenodd" d="M-0.88047 667.653C-7.63747 667.13 -24.6775 673.673 -22.9615 681.986C-23.1035 683.72 -22.2615 685.697 -19.9985 685.926C-17.9155 685.166 116.647 700.454 118.058 697.748C120.17 693.149 115.565 692.15 111.793 692.173C113.546 677.707 99.3225 664.968 85.2155 668.704C83.2145 651.679 66.8475 653.872 57.8645 663.977C49.2655 639.111 13.9395 646.457 15.2795 672.466C10.3605 669.576 4.63753 667.529 -0.88047 667.653M116.292 702.558C116.004 702.644 -19.9175 689.904 -20.3675 689.909C-24.6015 689.516 -26.8425 686.078 -26.9635 682.746C-28.1365 666.209 -0.759469 659.844 11.7345 666.211C14.6395 642.957 48.1555 636.515 59.1775 657.46C69.3155 649.352 84.5025 649.386 88.2255 664.226C102.111 662.678 115.475 674.537 115.809 688.528C124.083 688.685 125.072 702.604 116.292 702.558" fill="#7688A2"/><path id="Fill 152" fill-rule="evenodd" clip-rule="evenodd" d="M34.0991 886.178C12.6311 885.643 -4.88188 905.762 -2.85288 926.982C-5.46088 928.241 -5.93489 933.285 -2.30489 932.997L134.187 921.278C136.077 921.058 136.575 920.006 137.081 918.856C148.633 912.693 117.174 906.613 113.532 905.168C125.903 884.99 90.9931 872.854 77.8771 884.866C72.0431 865.575 48.5701 870.376 51.6611 890.201C46.1251 887.743 40.0311 886.095 34.0991 886.178M-2.60989 937.01C-8.72589 937.228 -10.8329 929.112 -6.94588 925.223C-8.46989 896.947 20.7431 874.575 47.6401 884.363C48.2641 866.563 72.7071 862.797 79.6871 879.095C95.0761 870.138 125.95 881.737 119.235 902.483C125.904 905.366 142.334 906.964 143.726 915.334C143.518 919.809 138.995 924.535 134.53 925.263C133.731 925.261 -1.95089 937.065 -2.60989 937.01" fill="#7688A2"/><path id="Fill 154" fill-rule="evenodd" clip-rule="evenodd" d="M-2.98063 454.046C-5.81163 453.971 -6.52963 457.456 -5.08563 459.353C-5.63863 461.283 -4.19263 463.696 -2.02563 463.776C43.5604 466.047 90.9904 465.018 137.259 458.28C139.704 458.647 142.101 457.334 141.556 454.565C141.53 453.44 141.843 452.464 140.684 451.565C128.458 439.631 108.063 428.52 90.8004 437.118C87.7744 432.835 82.6714 430.844 77.5804 431.504C77.7434 400.897 24.9404 408.927 32.7524 444.083C21.1154 443.048 9.06137 446.544 0.136367 454.007L-2.98063 454.046ZM34.7734 468.974C22.3904 468.974 10.0424 468.61 -2.29863 467.767C-6.22563 467.586 -9.33463 463.934 -9.19463 460.138C-11.6476 454.823 -7.06663 449.067 -1.28663 450.025C7.10237 443.475 17.4484 439.932 28.1394 439.919C24.6654 407.362 74.5034 395.033 81.6034 427.496C85.4474 427.854 89.1314 429.581 91.9174 432.345C97.7354 430.187 104.264 429.584 110.897 430.602C122.375 430.857 162.355 454.981 138.649 462.263C104.257 467.65 68.8554 468.218 34.7734 468.974V468.974Z" fill="#7688A2"/><path id="Fill 156" fill-rule="evenodd" clip-rule="evenodd" d="M346.523 850.602C352.421 850.641 362.022 852.243 362.665 844.872C362.919 844.3 363.593 842.34 361.572 841.089C351.035 834.511 338.617 832.132 326.221 833.865C327.714 815.802 297.334 798.62 289.743 820.338C280.351 809.272 264.486 814.456 257.116 826.315C229.48 799.092 230.969 806.952 222.034 838.866L201.638 840.901C197.744 841.296 197.413 846.602 201.56 846.914C250.3 849.847 298.073 851.075 346.523 850.602M352.719 854.769C302.087 854.775 252.22 854.17 201.32 850.907C192.233 850.187 192.55 837.874 201.242 836.92L218.934 835.155C226.552 805.153 229.901 794.199 256.755 820.325C264.704 810.409 278.495 806.73 288.631 813.977C300.597 795.942 327.584 811.996 330.038 829.466C339.294 828.468 370.455 832.768 366.453 846.182C365.724 852.808 358.584 855.054 352.719 854.769" fill="#7688A2"/><path id="Fill 158" fill-rule="evenodd" clip-rule="evenodd" d="M64.34 792.859C92.104 794.971 132.567 790.987 159.232 798.561C160.673 799.115 161.663 798.411 162.405 797.335C175.163 794.101 152.338 776.873 145.395 778.34C145.395 778.339 143.194 778.135 143.194 778.135C151.122 749.361 106.379 731.838 91.318 755.421C90.141 756.004 88.893 756.703 87.739 757.375C75.747 749.781 65.707 760.815 65.373 774.178C56.108 771.005 42.825 773.634 38.885 782.813C33.879 795.699 56.01 792.441 64.34 792.859M160.249 802.746C133.877 795.307 92.779 798.781 65.182 796.867C53.527 797.081 28.411 798.796 35.203 781.25C39.403 771.359 51.884 767.538 61.99 769.261C64.02 755.732 75.478 746.821 87.696 752.8C105.303 727.673 151.852 744.582 147.864 774.628C161.395 775.517 182.561 797.91 160.249 802.746" fill="#7688A2"/><path id="Fill 162" fill-rule="evenodd" clip-rule="evenodd" d="M1029.45 103.873C1022.69 103.35 1005.65 109.893 1007.37 118.206C1007.23 119.94 1008.07 121.917 1010.33 122.146C1012.41 121.385 1146.98 136.674 1148.39 133.968C1150.5 129.369 1145.89 128.37 1142.12 128.393C1143.87 113.927 1129.65 101.189 1115.55 104.924C1113.54 87.8998 1097.18 90.0938 1088.19 100.197C1079.56 75.3318 1044.27 82.6838 1045.61 108.686C1040.69 105.796 1034.97 103.749 1029.45 103.873M1146.62 138.778C1146.33 138.864 1010.41 126.124 1009.96 126.129C1005.73 125.736 1003.49 122.298 1003.37 118.966C1002.19 102.429 1029.57 96.0638 1042.06 102.431C1044.97 79.1838 1078.5 72.7148 1089.51 93.6798C1099.65 85.5708 1114.83 85.6058 1118.56 100.446C1132.44 98.8978 1145.8 110.757 1146.14 124.748C1154.41 124.905 1155.4 138.824 1146.62 138.778" fill="#7688A2"/><path id="Fill 168" fill-rule="evenodd" clip-rule="evenodd" d="M1057.51 513.714C1040.28 513.169 1022.56 528.659 1027.57 547.318L1025.37 547.523C1018.45 546.049 995.597 563.276 1008.36 566.518C1009.13 567.593 1010.07 568.299 1011.54 567.746C1026.31 562.718 1042.07 563.677 1057.37 563.288L1105.48 562.053C1113.82 561.482 1136.89 565.223 1131.88 551.996C1127.94 542.816 1114.66 540.188 1105.4 543.362C1105.06 529.998 1095.02 518.964 1083.03 526.558C1081.87 525.886 1080.63 525.188 1079.45 524.604C1075.12 517.005 1066.28 513.704 1057.51 513.714M1010.52 571.929C988.201 567.093 1009.38 544.698 1022.9 543.811C1018.92 513.755 1065.47 496.863 1083.07 521.984C1095.29 516.007 1106.75 524.914 1108.78 538.444C1118.89 536.718 1131.36 540.544 1135.57 550.433C1142.35 567.981 1117.25 566.262 1105.59 566.051C1077.85 567.971 1037.04 564.48 1010.52 571.929" fill="#7688A2"/><path id="Fill 170" fill-rule="evenodd" clip-rule="evenodd" d="M999.12 667.652C992.363 667.129 975.323 673.672 977.039 681.985C976.897 683.719 977.739 685.696 980.002 685.925C982.085 685.164 1116.65 700.453 1118.06 697.747C1120.17 693.148 1115.56 692.149 1111.79 692.172C1113.55 677.706 1099.32 664.967 1085.22 668.703C1083.21 651.678 1066.85 653.87 1057.86 663.976C1049.27 639.11 1013.94 646.456 1015.28 672.465C1010.36 669.575 1004.64 667.528 999.12 667.652M1116.29 702.557C1116 702.643 980.083 689.903 979.633 689.908C975.399 689.515 973.158 686.077 973.037 682.745C971.864 666.208 999.241 659.843 1011.73 666.21C1014.65 642.963 1048.12 636.5 1059.18 657.459C1069.32 649.351 1084.5 649.385 1088.23 664.225C1102.12 662.677 1115.47 674.536 1115.81 688.527C1124.08 688.684 1125.07 702.603 1116.29 702.557" fill="#7688A2"/><path id="Fill 172" fill-rule="evenodd" clip-rule="evenodd" d="M1034.1 886.178C1012.63 885.643 995.118 905.762 997.147 926.982C994.54 928.241 994.062 933.286 997.695 932.997L1134.19 921.278C1136.08 921.058 1136.58 920.006 1137.08 918.856C1148.63 912.693 1117.17 906.613 1113.53 905.168C1125.9 884.99 1090.99 872.854 1077.88 884.866C1072.04 865.574 1048.57 870.376 1051.66 890.201C1046.13 887.743 1040.03 886.095 1034.1 886.178M997.39 937.01C991.274 937.228 989.167 929.112 993.054 925.223C991.53 896.947 1020.74 874.575 1047.64 884.363C1048.27 866.563 1072.71 862.797 1079.69 879.095C1095.08 870.138 1125.95 881.737 1119.24 902.483C1125.9 905.366 1142.33 906.964 1143.73 915.334C1143.52 919.809 1139 924.535 1134.53 925.263C1133.73 925.261 998.049 937.065 997.39 937.01" fill="#7688A2"/><path id="Fill 174" fill-rule="evenodd" clip-rule="evenodd" d="M997.019 454.046C994.188 453.971 993.47 457.456 994.914 459.353C994.361 461.283 995.807 463.696 997.974 463.776C1043.56 466.047 1090.99 465.018 1137.26 458.28C1139.7 458.647 1142.1 457.334 1141.56 454.565C1141.53 453.44 1141.84 452.464 1140.68 451.565C1128.46 439.631 1108.06 428.52 1090.8 437.118C1087.77 432.833 1082.66 430.846 1077.58 431.504C1077.74 400.898 1024.94 408.927 1032.75 444.083C1021.12 443.048 1009.06 446.543 1000.14 454.007L997.019 454.046ZM1034.77 468.974C1022.39 468.974 1010.04 468.61 997.701 467.767C993.774 467.586 990.665 463.934 990.805 460.138C988.352 454.823 992.933 449.067 998.713 450.025C1007.1 443.475 1017.45 439.932 1028.14 439.919C1024.67 407.362 1074.5 395.033 1081.6 427.496C1085.45 427.854 1089.13 429.581 1091.92 432.345C1097.74 430.187 1104.27 429.584 1110.9 430.602C1122.38 430.857 1162.36 454.981 1138.65 462.263C1104.26 467.65 1068.86 468.218 1034.77 468.974V468.974Z" fill="#7688A2"/><path id="Fill 178" fill-rule="evenodd" clip-rule="evenodd" d="M259.123 715.547C246.659 715.289 236.34 727.246 237.765 739.591L233.969 739.944C230.258 740.145 229.834 746.306 233.6 745.962L369.556 733.345C371.633 733.152 372.551 731.382 372.524 729.818C372.662 728.483 373.572 727.503 372.232 725.657C363.309 713.981 346.695 711.962 334.277 719.885C335.61 693.864 300.311 686.551 291.692 711.396C282.685 701.284 266.346 699.106 264.342 716.124C262.683 715.84 260.791 715.518 259.123 715.547M233.267 749.977C224.484 750.022 225.476 736.105 233.748 735.947C234.08 721.956 247.449 710.099 261.331 711.645C265.052 696.804 280.253 696.77 290.381 704.879C301.419 683.938 334.917 690.38 337.822 713.63C351.126 708.024 366.54 711.811 375.391 723.203C378.684 727.902 376.698 736.582 369.926 737.328C369.177 737.349 233.914 750.022 233.267 749.977" fill="#7688A2"/><path id="Fill 182" fill-rule="evenodd" clip-rule="evenodd" d="M605.769 185.902C602.938 185.827 602.22 189.312 603.664 191.209C603.111 193.139 604.556 195.552 606.724 195.632C652.311 197.901 699.743 196.876 746.01 190.134C748.455 190.504 750.851 189.188 750.306 186.421C750.28 185.296 750.593 184.321 749.434 183.421C737.208 171.487 716.812 160.376 699.55 168.974C696.522 164.689 691.408 162.7 686.33 163.36C686.494 132.752 633.685 140.787 641.503 175.939C629.862 174.903 617.81 178.399 608.886 185.863L605.769 185.902ZM643.523 200.83C631.14 200.83 618.792 200.466 606.451 199.623C602.524 199.443 599.415 195.789 599.555 191.994C597.102 186.679 601.683 180.923 607.463 181.881C615.852 175.331 626.198 171.788 636.889 171.775C633.415 139.219 683.254 126.89 690.353 159.352C694.197 159.71 697.881 161.437 700.667 164.201C706.486 162.043 713.017 161.44 719.647 162.458C731.125 162.714 771.105 186.837 747.399 194.119C713.007 199.506 677.605 200.074 643.523 200.83V200.83Z" fill="#7688A2"/><path id="Fill 184" fill-rule="evenodd" clip-rule="evenodd" d="M577.71 105.272C583.607 105.312 593.206 106.91 593.85 99.5424C594.105 98.9704 594.778 97.0094 592.757 95.7584C582.222 89.1804 569.805 86.8004 557.406 88.5344C558.899 70.4724 528.519 53.2904 520.928 75.0074C511.536 63.9414 495.666 69.1264 488.299 80.9884C460.673 53.7564 462.15 61.6274 453.219 93.5364L432.823 95.5704C428.929 95.9664 428.598 101.271 432.745 101.584C481.493 104.516 529.246 105.745 577.71 105.272M583.902 109.439C533.263 109.445 483.409 108.839 432.505 105.576C423.418 104.856 423.735 92.5434 432.427 91.5904L450.119 89.8254C457.738 59.8214 461.086 48.8694 487.941 74.9954C495.889 65.0794 509.681 61.3994 519.816 68.6474C531.781 50.6124 558.769 66.6654 561.223 84.1364C570.481 83.1374 601.64 87.4384 597.638 100.852C596.908 107.479 589.768 109.723 583.902 109.439" fill="#7688A2"/><path id="Fill 186" fill-rule="evenodd" clip-rule="evenodd" d="M756.307 112.389C784.071 114.501 824.534 110.517 851.199 118.091C852.639 118.643 853.631 117.941 854.372 116.864C867.131 113.633 844.306 96.4009 837.362 97.8699C837.362 97.8689 835.161 97.6649 835.161 97.6649C843.089 68.8899 798.345 51.3669 783.285 74.9509C782.108 75.5339 780.86 76.2329 779.705 76.9039C767.712 69.3099 757.675 80.3469 757.34 93.7089C748.074 90.5339 734.79 93.1629 730.852 102.343C725.846 115.229 747.98 111.971 756.307 112.389M852.216 122.276C825.844 114.836 784.746 118.312 757.149 116.397C745.488 116.61 720.379 118.326 727.17 100.779C731.37 90.8889 743.851 87.0639 753.957 88.7909C755.987 75.2609 767.445 66.3519 779.663 72.3299C797.267 47.2019 843.82 64.1109 839.831 94.1579C853.362 95.0469 874.528 117.44 852.216 122.276" fill="#7688A2"/><path id="Fill 188" fill-rule="evenodd" clip-rule="evenodd" d="M730.879 268.079C717.269 267.328 701.235 279.927 710.304 293.178C706.742 294.6 675.182 300.705 686.752 306.865C687.245 308.013 687.764 309.069 689.648 309.287L826.141 321.006C829.757 321.291 829.31 316.252 826.689 314.991C829.666 286.153 797.991 264.731 772.176 278.21C775.258 258.367 751.783 253.598 745.958 272.877C741.642 269.794 736.66 268.035 730.879 268.079M826.445 325.019C826.382 325.122 689.575 313.248 689.307 313.272C684.813 312.545 680.345 307.819 680.109 303.347C681.433 294.995 697.993 293.361 704.601 290.493C697.884 269.744 728.762 258.149 744.149 267.105C751.129 250.802 775.568 254.571 776.194 272.372C803.094 262.581 832.305 284.961 830.781 313.233C834.668 317.123 832.56 325.237 826.445 325.019" fill="#7688A2"/><path id="Fill 190" fill-rule="evenodd" clip-rule="evenodd" d="M917.505 184.566C903.494 184.372 890.932 193.45 881.479 202.011C880.323 202.909 880.63 203.886 880.607 205.011C880.07 207.773 882.45 209.1 884.903 208.726C931.179 215.464 978.598 216.491 1024.19 214.224C1026.41 214.13 1027.79 211.688 1027.25 209.799C1029.73 205.354 1025.87 203.985 1022.03 204.453C1013.11 196.989 1001.06 193.49 989.409 194.529C997.22 159.354 944.409 151.359 944.583 181.95C939.494 181.294 934.388 183.282 931.362 187.564C927.063 185.615 922.455 184.548 917.505 184.566M987.39 219.42C953.309 218.665 917.904 218.095 883.514 212.709C859.827 205.428 899.733 181.325 911.266 181.048C917.896 180.029 924.428 180.632 930.246 182.791C933.031 180.027 936.717 178.3 940.56 177.942C947.67 145.462 997.508 157.833 994.024 190.364C1004.72 190.378 1015.06 193.92 1023.45 200.47C1032.62 199.145 1034.04 210.623 1029.13 216.066C1027.97 217.321 1026.34 218.084 1024.46 218.212C1012.12 219.056 999.771 219.42 987.39 219.42" fill="#7688A2"/><path id="Fill 192" fill-rule="evenodd" clip-rule="evenodd" d="M425.497 775.396C453.261 777.508 493.724 773.524 520.389 781.098C521.834 781.65 522.821 780.948 523.563 779.871C536.322 776.64 513.497 759.408 506.553 760.877C506.553 760.876 504.352 760.672 504.352 760.672C512.279 731.897 467.538 714.375 452.475 737.958C451.299 738.541 450.051 739.24 448.896 739.911C436.904 732.319 426.864 743.353 426.53 756.716C416.3 752.512 396.407 758.541 399.838 771.351C403.737 776.556 418.135 775.393 425.497 775.396M521.407 785.283C495.035 777.843 453.936 781.318 426.339 779.404C414.678 779.619 389.572 781.333 396.36 763.786C400.561 753.896 413.032 750.071 423.147 751.798C425.176 738.269 436.637 729.358 448.854 735.337C466.46 710.211 513.011 727.117 509.022 757.165C522.553 758.054 543.719 780.447 521.407 785.283" fill="#7688A2"/><path id="Fill 194" fill-rule="evenodd" clip-rule="evenodd" d="M566.615 804.172C552.603 803.979 540.04 813.056 530.588 821.617C529.432 822.516 529.74 823.493 529.717 824.617C529.181 827.378 531.559 828.707 534.012 828.332C580.289 835.07 627.71 836.097 673.298 833.831C675.516 833.737 676.894 831.294 676.358 829.405C678.841 824.96 674.981 823.592 671.136 824.059C662.214 816.595 650.165 813.096 638.518 814.135C646.328 778.962 593.521 770.964 593.692 801.556C588.59 800.896 583.497 802.889 580.47 807.171C576.173 805.221 571.565 804.154 566.615 804.172M636.499 839.026C602.419 838.271 567.014 837.702 532.623 832.315C508.937 825.033 548.842 800.932 560.376 800.655C567.009 799.635 573.538 800.239 579.355 802.397C582.14 799.634 585.826 797.907 589.669 797.548C596.779 765.068 646.616 777.439 643.133 809.971C653.826 809.984 664.171 813.527 672.558 820.077C681.733 818.752 683.145 830.23 678.237 835.672C677.083 836.928 675.45 837.691 673.571 837.819C661.232 838.663 648.88 839.026 636.499 839.026" fill="#7688A2"/><path id="Fill 196" fill-rule="evenodd" clip-rule="evenodd" d="M521.455 394.829C515.484 394.506 491.288 398.77 493.018 406.386C493.552 412.606 500.611 412.48 506.274 412.197C516.118 412.821 727.983 411.6 633.648 400.381C624.699 368.347 626.149 360.687 598.565 387.83C591.205 375.97 575.317 370.787 565.94 381.853C558.344 360.131 527.965 377.326 529.461 395.38C526.848 395.078 524.057 394.808 521.455 394.829M502.963 416.284C497.101 416.569 489.954 414.323 489.231 407.696C485.265 394.27 516.31 390.003 525.644 390.981C528.097 373.509 555.089 357.46 567.052 375.493C577.194 368.246 590.975 371.923 598.927 381.841C625.851 355.627 629.141 366.815 636.748 396.67L654.44 398.435C663.135 399.389 663.446 411.702 654.362 412.422C603.461 415.685 553.598 416.289 502.963 416.284" fill="#7688A2"/><path id="Fill 202" fill-rule="evenodd" clip-rule="evenodd" d="M415.765 464.499C394.297 463.964 376.784 484.083 378.813 505.303C376.205 506.562 375.729 511.607 379.361 511.318L515.853 499.599C517.743 499.379 518.241 498.327 518.747 497.177C530.299 491.014 498.84 484.934 495.198 483.489C507.569 463.311 472.659 451.174 459.543 463.187C453.707 443.894 430.235 448.7 433.327 468.522C427.791 466.064 421.697 464.416 415.765 464.499M379.056 515.331C372.94 515.549 370.833 507.433 374.72 503.544C373.196 475.268 402.41 452.896 429.306 462.684C429.931 444.88 454.371 441.118 461.353 457.416C476.743 448.459 507.616 460.058 500.901 480.804C507.57 483.687 524 485.285 525.392 493.655C525.184 498.13 520.662 502.855 516.196 503.584C515.397 503.582 379.715 515.386 379.056 515.331" fill="#7688A2"/><path id="Fill 204" fill-rule="evenodd" clip-rule="evenodd" d="M449.31 310.677C446.478 310.602 445.761 314.086 447.205 315.984C446.652 317.913 448.097 320.326 450.265 320.407C495.852 322.678 543.282 321.647 589.55 314.911C591.995 315.277 594.392 313.964 593.847 311.195C593.821 310.071 594.134 309.095 592.975 308.196C580.749 296.261 560.354 285.151 543.091 293.748C540.067 289.468 534.964 287.48 529.871 288.135C530.035 257.527 477.226 265.561 485.044 300.714C473.415 299.675 461.355 303.172 452.427 310.637L449.31 310.677ZM487.064 325.604C474.681 325.604 462.333 325.241 449.992 324.397C446.065 324.217 442.956 320.564 443.096 316.768C440.643 311.453 445.223 305.698 451.004 306.655C459.393 300.106 469.739 296.563 480.43 296.549C476.955 263.993 526.795 251.665 533.894 284.127C537.738 284.485 541.422 286.212 544.208 288.975C550.027 286.818 556.557 286.215 563.188 287.232C574.666 287.488 614.646 311.612 590.94 318.893C556.548 324.28 521.146 324.848 487.064 325.604V325.604Z" fill="#7688A2"/><path id="Fill 208" fill-rule="evenodd" clip-rule="evenodd" d="M938.73 43.9336C966.494 46.0456 1006.96 42.0616 1033.62 49.6356C1035.07 50.1886 1036.06 49.4856 1036.8 48.4086C1049.56 45.1776 1026.73 27.9456 1019.79 29.4146C1019.79 29.4136 1017.59 29.2096 1017.59 29.2096C1025.51 0.434586 980.776 -17.0874 965.709 6.49459C964.535 7.07959 963.286 7.77759 962.131 8.44859C950.139 0.856586 940.099 11.8906 939.765 25.2536C929.533 21.0506 909.642 27.0786 913.073 39.8886C916.97 45.0936 931.368 43.9316 938.73 43.9336M1034.64 53.8206C1008.27 46.3806 967.171 49.8566 939.574 47.9416C927.913 48.1536 902.807 49.8706 909.595 32.3236C913.796 22.4336 926.27 18.6086 936.382 20.3356C938.411 6.80659 949.872 -2.10441 962.089 3.87459C979.695 -21.2534 1026.25 -4.34341 1022.26 25.7026C1035.79 26.5916 1056.95 48.9866 1034.64 53.8206" fill="#7688A2"/><path id="Fill 210" fill-rule="evenodd" clip-rule="evenodd" d="M842.128 385.045C838.416 385.246 837.996 391.41 841.76 391.062L977.716 378.446C979.982 378.216 980.815 376.24 980.678 374.506C981.126 373.514 981.512 372.352 980.393 370.758C971.468 359.08 954.853 357.063 942.438 364.986C943.768 338.975 908.485 331.636 899.853 356.497C890.864 346.386 874.503 344.203 872.502 361.224C858.387 357.489 844.175 370.228 845.925 384.692L842.128 385.045ZM841.426 395.078C832.644 395.122 833.637 381.205 841.908 381.048C842.24 367.057 855.609 355.198 869.491 356.746C873.216 341.904 888.401 341.874 898.541 349.98C909.596 329.014 943.07 335.492 945.982 358.731C958.8 352.444 985.502 358.5 984.683 375.265C984.56 378.597 982.318 382.036 978.085 382.429C977.337 382.449 842.073 395.125 841.426 395.078V395.078Z" fill="#7688A2"/><path id="Fill 212" fill-rule="evenodd" clip-rule="evenodd" d="M707.434 588.251C693.824 587.5 677.79 600.098 686.859 613.35C683.298 614.772 651.737 620.876 663.307 627.037C663.8 628.185 664.319 629.24 666.203 629.459L802.696 641.178C806.307 641.464 805.868 636.423 803.244 635.163C806.221 606.325 774.546 584.903 748.731 598.382C751.815 578.541 728.338 573.771 722.513 593.048C718.197 589.965 713.215 588.207 707.434 588.251M803 645.191C802.937 645.294 666.13 633.42 665.862 633.444C661.367 632.716 656.9 627.991 656.664 623.518C657.988 615.167 674.548 613.533 681.156 610.665C674.438 589.916 705.321 578.321 720.704 587.276C727.682 570.976 752.121 574.747 752.749 592.544C779.649 582.752 808.86 605.133 807.336 633.405C811.221 637.294 809.116 645.409 803 645.191" fill="#7688A2"/><path id="Fill 216" fill-rule="evenodd" clip-rule="evenodd" d="M198.845 930.853C192.874 930.53 168.678 934.795 170.408 942.411C170.943 948.631 178 948.504 183.665 948.221C193.518 948.846 405.37 947.623 311.038 936.406C302.095 904.381 303.531 896.703 275.958 923.858C268.597 911.997 252.713 906.811 243.33 917.877C235.734 896.155 205.355 913.35 206.851 931.404C204.238 931.102 201.447 930.832 198.845 930.853M180.355 952.309C174.491 952.593 167.345 950.348 166.621 943.721C162.655 930.295 193.698 926.023 203.034 927.005C205.487 909.533 232.478 893.485 244.442 911.517C254.585 904.27 268.365 907.947 276.317 917.865C303.24 891.65 306.531 902.841 314.138 932.695L331.83 934.459C340.525 935.413 340.836 947.727 331.752 948.446C280.847 951.709 230.999 952.313 180.355 952.309" fill="#7688A2"/><g id="Group 220"><mask id="mask1d69482bd-c17d-4c3f-b1f9-52a3ec478773" mask-type="alpha" maskUnits="userSpaceOnUse" x="422" y="884" width="154" height="69"><path id="Clip 219" fill-rule="evenodd" clip-rule="evenodd" d="M422.756 884.196H575.392V952.49H422.756V884.196Z" fill="white"/></mask><g mask="url(#mask1d69482bd-c17d-4c3f-b1f9-52a3ec478773)"><path id="Fill 218" fill-rule="evenodd" clip-rule="evenodd" d="M465.765 901.654C444.297 901.119 426.784 921.238 428.813 942.458C426.206 943.718 425.728 948.759 429.361 948.473L565.853 936.754C567.743 936.534 568.241 935.482 568.747 934.332C580.299 928.169 548.84 922.089 545.198 920.644C557.57 900.466 522.658 888.33 509.543 900.342C503.707 881.05 480.236 885.853 483.327 905.677C477.791 903.219 471.697 901.571 465.765 901.654M429.056 952.486C422.94 952.704 420.833 944.588 424.72 940.699C423.196 912.423 452.41 890.05 479.306 899.839C479.935 882.039 504.376 878.274 511.353 894.571C526.741 885.614 557.617 897.213 550.901 917.959C557.57 920.842 574 922.44 575.392 930.81C575.184 935.285 570.662 940.011 566.196 940.739C565.397 940.737 429.715 952.541 429.056 952.486" fill="#7688A2"/></g></g><path id="Fill 221" fill-rule="evenodd" clip-rule="evenodd" d="M610.068 908.944C606.425 909.323 605.679 914.983 609.698 914.962C609.699 914.962 745.655 902.345 745.655 902.345C747.732 902.152 748.65 900.382 748.624 898.819C748.749 897.485 749.68 896.503 748.332 894.658C739.41 882.98 722.793 880.962 710.377 888.885C711.711 862.865 676.395 855.543 667.792 880.397C658.79 870.287 642.444 868.104 640.441 885.124C626.329 881.386 612.112 894.129 613.864 908.593L610.068 908.944ZM609.359 918.978C600.834 919.048 601.233 905.379 609.847 904.947C610.181 890.957 623.546 879.097 637.43 880.645C641.158 865.805 656.33 865.77 666.48 873.88C677.526 852.935 711.013 859.382 713.922 882.63C726.736 876.343 753.441 882.399 752.622 899.165C752.499 902.497 750.257 905.936 746.024 906.328C745.273 906.349 610.006 919.023 609.359 918.978V918.978Z" fill="#7688A2"/><path id="Fill 223" fill-rule="evenodd" clip-rule="evenodd" d="M850.5 916.01C836.489 915.817 823.926 924.894 814.474 933.455C813.317 934.355 813.627 935.331 813.603 936.455C813.067 939.216 815.444 940.546 817.897 940.169C864.172 946.911 911.596 947.934 957.184 945.669C959.402 945.575 960.78 943.132 960.244 941.243C962.727 936.798 958.867 935.43 955.021 935.897C946.1 928.432 934.054 924.932 922.404 925.973C930.214 890.799 877.406 882.804 877.578 913.394C872.477 912.735 867.382 914.727 864.357 919.008C860.058 917.06 855.45 915.992 850.5 916.01M920.385 950.864C886.305 950.109 850.9 949.54 816.509 944.153C792.824 936.871 832.728 912.77 844.262 912.493C850.895 911.473 857.423 912.077 863.24 914.235C866.026 911.471 869.711 909.745 873.555 909.386C880.665 876.907 930.502 889.277 927.019 921.809C937.712 921.822 948.057 925.365 956.444 931.915C965.619 930.59 967.031 942.068 962.123 947.51C960.969 948.766 959.336 949.529 957.457 949.657C945.118 950.501 932.766 950.864 920.385 950.864" fill="#7688A2"/><path id="Fill 225" fill-rule="evenodd" clip-rule="evenodd" d="M592.053 508.882C586.272 508.475 561.633 512.982 563.616 520.439C564.151 526.659 571.202 526.531 576.872 526.25C586.718 526.874 798.58 525.653 704.246 514.434C695.302 482.408 696.74 474.733 669.166 501.886C661.804 490.025 645.919 484.839 636.538 495.906C628.942 474.181 598.563 491.38 600.059 509.433C597.447 509.131 594.654 508.861 592.053 508.882M573.561 530.337C567.699 530.622 560.552 528.376 559.829 521.749C555.863 508.325 586.906 504.05 596.242 505.034C598.695 487.562 625.687 471.512 637.65 489.546C647.793 482.3 661.572 485.975 669.525 495.894C696.449 469.68 699.739 480.868 707.346 510.723L725.038 512.488C733.733 513.442 734.044 525.755 724.96 526.475C674.059 529.738 624.197 530.343 573.561 530.337" fill="#7688A2"/><path id="Fill 227" fill-rule="evenodd" clip-rule="evenodd" d="M381.005 565.556C363.783 565.01 346.055 580.502 351.072 599.16L348.871 599.365C341.952 597.89 319.095 615.12 331.86 618.359C332.632 619.434 333.568 620.14 335.035 619.588C349.809 614.56 365.567 615.519 380.87 615.13L428.982 613.895C437.326 613.325 460.391 617.064 455.382 603.838C451.441 594.658 438.163 592.031 428.894 595.204C428.56 581.84 418.52 570.807 406.527 578.399C405.372 577.727 404.126 577.03 402.949 576.446C398.615 568.847 389.778 565.546 381.005 565.556M334.017 623.771C311.7 618.934 332.877 596.54 346.401 595.653C342.42 565.597 388.964 548.705 406.569 573.825C418.791 567.848 430.245 576.755 432.276 590.286C442.393 588.557 454.863 592.385 459.064 602.274C465.848 619.823 440.751 618.105 429.085 617.893C401.352 619.813 360.539 616.322 334.017 623.771" fill="#7688A2"/><path id="Fill 229" fill-rule="evenodd" clip-rule="evenodd" d="M803.682 473.371C796.949 472.843 779.874 479.393 781.601 487.704C781.46 489.438 782.3 491.415 784.564 491.644L920.52 504.261C924.327 504.611 923.821 498.438 920.151 498.244V498.243L916.355 497.891C918.108 483.425 903.884 470.686 889.778 474.422C887.777 457.397 871.413 459.595 862.427 469.695C853.794 444.832 818.505 452.181 819.842 478.184C814.923 475.294 809.2 473.247 803.682 473.371M920.853 508.276C920.564 508.364 784.645 495.622 784.195 495.627C779.961 495.234 777.72 491.796 777.599 488.464C776.425 471.927 803.802 465.562 816.297 471.929C819.211 448.683 852.686 442.22 863.739 463.178C873.881 455.067 889.064 455.104 892.788 469.944C906.677 468.395 920.036 480.256 920.371 494.246C928.646 494.404 929.633 508.323 920.853 508.276" fill="#7688A2"/></g></g></g></g></g></g></svg>