<svg viewBox="0 0 599.9999999999999 607.5" fill="none" xmlns="http://www.w3.org/2000/svg" xmlns:xlink="http://www.w3.org/1999/xlink" overflow="visible" width="599.9999999999999px" height="607.5px"><g id="Master/Spot Illustrations/Point"><g id="Background" style="mix-blend-mode:soft-light" transform="scale(1 1)"><g id="Background/Clouds"><path id="Path" d="M289.1 249.49C292.57 239.61 295.26 216.68 285.74 208.49C280.79 204.2 273.01 202.75 264.42 204.49C258.802 205.581 253.53 208.009 249.05 211.57C255.74 180.99 264.55 126 223.85 114.1C208.21 109.53 189.08 114.57 172.68 127.59C159.32 138.2 150.34 152.09 147.68 165.59C141.707 152.047 129.886 141.967 115.57 138.21C98.9928 133.721 81.3071 139.073 69.9999 152C52.5099 171.57 54.1599 201.41 74.8599 240.84C74.0567 240.655 73.2413 240.528 72.4199 240.46C60.2799 239.34 45.3199 249.29 40.4199 261.74C37.9099 268.1 35.8999 280.48 50.7099 292.04C57.2999 297.19 66.7099 298.54 76.3199 298.54C82.0399 298.54 87.8199 298.06 93.1199 297.62C96.0099 297.39 98.7499 297.16 101.19 297.04C122.39 295.99 207.4 287.84 220.11 286.56C234.42 285.13 278.13 280.71 289.1 249.49Z" fill="#EAF3F3"/><path id="Path_2" d="M566.65 394C561.38 384.13 553.78 378.93 544.05 378.55C538.312 378.481 532.628 379.658 527.39 382C528.39 380.19 529.24 378.35 530.06 376.5C534.2 367.1 538.11 353.32 533.19 341.09C529.42 331.7 523.27 326.24 514.93 324.86C491.93 321.05 456.74 350.29 434.15 372.16C455.91 340.58 486.15 289.52 474.39 268.62C469.91 260.62 460.02 257.83 444.99 260.28C420.78 264.23 393.53 286.87 376.11 306.74C367.41 316.66 336.44 358.2 324.9 373.74C324.382 369.63 322.998 365.676 320.84 362.14C316.71 355.14 310.71 350.58 304.84 349.85C289.33 347.95 275.09 357.85 263.67 378.52C255.47 393.35 250.82 418.88 253.19 427.86C264.07 469.09 318.02 473.86 359.85 473.86C366.65 473.86 373.14 473.73 379.06 473.62C384.11 473.52 388.89 473.43 393.06 473.43C414.56 473.43 440.06 472.84 465.92 468.5C472.05 467.5 478.39 466.83 485.09 466.15C501.38 464.5 518.22 462.79 532.22 455.22C538 452.1 552.52 443.42 562 430.7C571.24 418.29 572.85 405.6 566.65 394Z" fill="#EAF3F3"/></g></g><g id="Master/Hands/Point" transform="scale(1 1)"><g id="Master/Hands/Point"><g id="base"><path id="Path" d="M300.081 246.837C299.231 245.931 299.405 244.477 300.445 243.796C300.549 243.728 300.549 243.728 301.042 243.406C301.528 243.088 302.092 242.719 302.728 242.304C304.544 241.117 306.57 239.794 308.754 238.37C314.995 234.3 321.253 230.231 327.118 226.432L327.546 226.155C338.933 218.783 347.368 213.386 351.643 210.766C353.269 209.767 354.994 208.66 357.207 207.206C358.128 206.6 362.028 204.019 363.053 203.346C371.93 197.515 377.761 194.173 383.868 191.803C386.589 190.746 389.205 189.976 391.745 189.504C405.997 186.856 415.385 203.021 409.9 215.845C408.51 219.101 406.329 222.592 403.431 226.324C400.263 230.405 396.307 234.691 391.583 239.286C387.742 243.022 385.129 245.386 378.465 251.279C374.652 254.647 369.063 259.291 362.12 264.893C361.666 265.26 361.207 265.63 360.743 266.003C355.685 270.072 350.268 274.367 344.85 278.619C342.954 280.107 341.194 281.483 339.614 282.714C339.061 283.146 338.569 283.528 338.146 283.857C337.892 284.054 337.716 284.19 337.625 284.261C336.809 284.893 335.646 284.801 334.941 284.047L300.081 246.837Z" fill="#ff9ba5"/><path id="Path" d="M343.218 296.377C342.427 290.546 341.178 284.696 339.185 276.833C338.824 275.41 338.752 275.13 337.846 271.629C332.161 249.619 322.048 241.324 301.347 243.44C285.554 245.053 271.867 248.538 245.815 256.65C243.78 257.284 242.01 257.822 238.505 258.874C237.856 259.069 237.856 259.069 237.205 259.265C218.893 264.768 210.353 268.001 201.759 273.612C190.334 281.069 183.305 291.125 180.84 305.144C178.733 317.039 177.95 329.341 177.871 346.087C177.854 349.769 177.864 352.721 177.903 359.314C177.939 365.267 177.949 367.888 177.94 371.164C177.936 375.638 177.879 381.717 177.7 398.392L177.696 398.816C177.523 414.953 177.46 421.832 177.46 426.44V597.74C177.46 598.844 178.355 599.74 179.46 599.74H363.81C364.915 599.74 365.81 598.844 365.81 597.74V349.29C365.81 348.719 365.811 348.293 365.814 347.143C365.836 338.7 365.722 334.278 365.159 328.928C363.637 314.444 359.162 304.404 350.067 299.712C348.03 298.566 345.741 297.84 343.375 297.589C343.325 297.187 343.273 296.783 343.218 296.377Z" fill="#ff9ba5"/><path id="Path" d="M208.446 314.252C210.579 315.54 212.376 316.982 214.614 319.115C215.073 319.551 215.548 320.014 216.163 320.621C216.354 320.809 217.465 321.908 217.797 322.235C218.584 323.01 219.85 323 220.625 322.213C221.4 321.426 221.39 320.16 220.603 319.385C220.276 319.062 219.167 317.965 218.972 317.773C218.341 317.151 217.851 316.673 217.373 316.218C214.941 313.901 212.928 312.285 210.513 310.828C209.568 310.257 208.338 310.561 207.768 311.506C207.197 312.452 207.501 313.681 208.446 314.252Z" fill="#484882"/><path id="Path" d="M273.066 253.605C278.856 254.525 287.905 261.919 291.006 267.882C295.689 276.894 299.634 289.791 302.987 305.078C303.184 305.983 303.342 306.786 303.638 308.37C303.982 310.204 304.109 310.859 304.312 311.814C304.428 312.362 304.545 312.879 304.666 313.38C304.926 314.454 306.007 315.114 307.08 314.854C308.154 314.594 308.814 313.513 308.554 312.44C308.442 311.977 308.333 311.495 308.224 310.982C308.03 310.07 307.907 309.434 307.57 307.633C307.266 306.012 307.103 305.18 306.894 304.223C303.471 288.616 299.44 275.439 294.555 266.038C290.905 259.017 280.834 250.789 273.694 249.655C272.603 249.481 271.578 250.225 271.405 251.316C271.232 252.407 271.975 253.432 273.066 253.605Z" fill="#484882"/><path id="Path" d="M267.396 364.787C275.935 357.221 275.973 327.287 267.519 296.353C263.434 281.421 250.613 265.675 237.251 260.993C236.209 260.627 235.068 261.176 234.702 262.218C234.337 263.261 234.886 264.402 235.928 264.767C247.944 268.979 259.9 283.662 263.661 297.408C271.726 326.919 271.689 355.639 264.744 361.793C263.917 362.526 263.84 363.79 264.573 364.616C265.306 365.443 266.57 365.519 267.396 364.787Z" fill="#484882"/><path id="Path" d="M277.342 448.472C271.769 447.056 266.624 447.158 262.227 449.291C261.233 449.773 260.819 450.969 261.301 451.963C261.783 452.957 262.979 453.372 263.973 452.889C267.398 451.228 271.619 451.145 276.358 452.348C277.428 452.62 278.517 451.973 278.789 450.902C279.06 449.832 278.413 448.743 277.342 448.472Z" fill="#484882"/><path id="Path" d="M322.654 355.517C325.065 354.711 324.047 351.099 321.57 351.671C319.087 352.245 317.042 352.905 313.659 354.217C311.001 355.082 308.927 355.799 307.065 356.512C304.703 357.426 302.656 358.252 300.822 359.052C298.695 359.682 296.919 360.021 294.988 360.198C289.287 360.72 287.063 358.429 283.859 350.55C283.78 350.356 283.068 348.592 282.851 348.061C280.176 341.484 280.842 336.338 284.384 331.632C287.207 327.88 290.852 325.122 299.184 319.851L300.32 319.132C300.818 318.817 301.219 318.562 301.605 318.316C305.44 315.874 309.609 313.401 314.898 310.395C316.349 309.57 317.841 308.729 319.781 307.641C319.997 307.519 323.577 305.514 324.61 304.933C331.347 301.141 338.401 298.936 342.349 298.88C343.453 298.864 344.336 297.956 344.32 296.852C344.304 295.747 343.396 294.864 342.292 294.88C337.614 294.946 329.928 297.349 322.649 301.447C321.62 302.025 318.042 304.03 317.824 304.152C315.878 305.244 314.38 306.088 312.921 306.917C307.579 309.954 303.357 312.458 299.456 314.943C299.073 315.187 298.675 315.439 298.181 315.752L297.046 316.47C288.29 322.009 284.408 324.947 281.188 329.227C276.8 335.058 275.942 341.689 279.147 349.573C279.362 350.097 280.071 351.854 280.153 352.056C281.953 356.482 283.18 358.801 285.103 360.781C286.83 362.56 288.911 363.669 291.423 364.079C290.278 364.844 289.135 365.673 287.938 366.597C276.277 375.649 270.135 385.309 262.317 403.894C261.888 404.912 262.367 406.085 263.385 406.513C264.403 406.942 265.575 406.464 266.004 405.445C273.579 387.438 279.393 378.294 290.387 369.76C294.181 366.831 297.382 364.934 302.169 362.829C304.616 362.09 307.462 361.012 311.343 359.443C312.744 358.876 313.946 358.397 315.006 357.985C315.81 357.725 321.195 356.004 322.654 355.517Z" fill="#484882"/><path id="Path" d="M284.253 355.535C268.514 361.874 255.721 364.132 243.381 361.736C233.369 359.786 226.932 351.391 223.53 337.821C220.954 327.544 220.344 315.247 221.077 302.878C221.142 301.775 220.301 300.829 219.198 300.763C218.096 300.698 217.149 301.539 217.084 302.642C216.329 315.381 216.958 328.052 219.65 338.794C223.389 353.71 230.788 363.358 242.618 365.663C255.847 368.231 269.358 365.847 285.747 359.245C286.772 358.832 287.268 357.667 286.855 356.643C286.443 355.618 285.277 355.122 284.253 355.535Z" fill="#484882"/><path id="Path" d="M305.485 243.21C322.767 243.082 332.346 250.206 336.599 267.264C336.896 268.441 337.342 270.274 338.029 273.127L338.049 273.212C338.209 273.873 338.759 276.16 338.738 276.074C338.998 277.155 339.176 277.893 339.326 278.511C339.586 279.585 340.668 280.244 341.741 279.984C342.815 279.723 343.474 278.642 343.213 277.569C343.064 276.953 342.887 276.217 342.627 275.138C342.648 275.224 342.098 272.937 341.938 272.276L341.918 272.19C341.227 269.323 340.779 267.482 340.479 266.291C335.772 247.413 324.552 239.068 305.455 239.21C304.35 239.218 303.462 240.12 303.47 241.225C303.478 242.329 304.38 243.218 305.485 243.21Z" fill="#484882"/></g><g id="Point/Wear" transform="scale(1 1)"><g id="Point/Wear/Cloud"><g id="clothing"><path id="Path" d="M464.52 526.18C455.24 518.66 447.79 519.05 440.85 522.4C442.786 519.078 444.253 515.504 445.21 511.78C448.1 502.128 448.404 491.886 446.09 482.08C442.71 468.08 435.09 457.65 423.3 451.13C402.12 439.36 383.2 439.78 365.8 445.31V510.58C362.162 508.906 358.38 507.567 354.5 506.58C316.25 496.12 275.39 532.94 257.27 561.99C256.61 549.99 250.43 544.41 241.87 540.65C232.36 536.49 213.74 537.48 200.57 541.54C192.572 543.921 184.831 547.09 177.46 551V482.25C175.98 484.15 174.52 486.12 172.93 488.25C164.51 499.77 156.36 518.32 152.56 534.18C147.22 525.64 138.75 516.77 129.06 514.92C122.94 513.76 117.19 515.53 111.98 520.17C97.7496 532.86 99.2896 559.17 105.98 576C93.2796 573.15 67.5196 573.48 57.1596 583.64C53.8796 586.85 52.7696 589.91 53.8596 592.74C56.6296 599.96 73.3696 601.43 80.4396 601.74C92.6896 602.25 113.5 601.81 131.86 601.41C141.95 601.2 151.49 600.99 158.28 600.98C171.21 600.98 188.28 601.24 208.04 601.57C231.04 601.95 257.15 602.39 281.71 602.39C309.41 602.39 332.536 602.333 351.09 602.22C362.53 602.22 371.85 602.13 378.77 602.13C395.46 602.13 423.4 602.13 444.3 595.25C459.3 590.3 475.71 576.25 476.48 559.91C477 549.38 475.34 535 464.52 526.18Z" fill="#91D5DD"/><path id="Path_2" d="M554.49 496.16C551.832 495.021 548.832 494.974 546.14 496.03C548.393 487.463 546.961 478.344 542.19 470.88C536.906 462.682 527.823 457.727 518.07 457.72C508.49 457.62 500.27 461.72 496.16 468.72C493.561 473.31 492.753 478.699 493.89 483.85C488.11 478.85 483.02 477.69 478.71 480.36C475.737 482.031 473.66 484.936 473.04 488.29C472.698 490.583 473.01 492.926 473.94 495.05C472.133 495.154 470.412 495.857 469.05 497.05C466.256 499.481 465.159 503.331 466.25 506.87C467.45 510.51 470.92 512.79 475.77 513.13H476C485.78 513.13 495.75 513.97 505.39 514.78C515.03 515.59 525.12 516.44 535.1 516.44C538.094 516.44 541.094 516.357 544.1 516.19C549.31 515.89 559 515.32 559.19 505.25C559.22 499.38 556.26 497 554.49 496.16Z" fill="#91D5DD"/><path id="Path_3" d="M242.674 538.799C233.052 534.64 214.234 535.215 199.981 539.609C185.191 544.113 172.519 549.969 165.953 557.05C165.202 557.86 165.25 559.125 166.06 559.877C166.87 560.628 168.135 560.58 168.886 559.77C174.814 553.377 187.013 547.739 201.153 543.433C214.583 539.293 232.471 538.747 241.077 542.466C250.29 546.513 254.72 552.041 255.273 562.08C255.38 564.03 257.933 564.686 258.967 563.028C268.687 547.445 283.567 531.722 299.454 521.112C318.121 508.646 336.921 503.824 353.972 508.489C364.695 511.411 370.881 514.751 376.75 521.403C382.196 527.516 385.596 535.167 386.482 543.297C387.324 549.769 386.71 558.044 384.88 562.193C384.434 563.204 384.892 564.384 385.903 564.83C386.913 565.276 388.094 564.818 388.54 563.807C390.711 558.885 391.376 549.913 390.453 542.822C389.482 533.906 385.737 525.477 379.743 518.75C373.296 511.443 366.439 507.741 355.026 504.63C336.71 499.619 316.781 504.731 297.233 517.785C282.4 527.691 268.47 541.868 258.536 556.382C256.656 547.98 251.426 542.643 242.674 538.799Z" fill="#1A4E66"/></g></g></g><g id="Point/Item" transform="scale(1 1)"><g id="Point/Item/Button"><g id="items"><path id="Path" d="M533.419 261.62C533.239 254.12 533.279 246.48 533.329 239.1C533.329 235.1 533.329 231.15 533.329 227.17C533.329 208.03 532.869 187.98 531.979 162.17C531.629 152.04 531.299 143.37 530.859 133.95C530.619 129.08 530.179 118.28 530.179 118.28C530.137 117.207 529.254 116.359 528.179 116.36V116.36C520.969 116.36 513.419 116.36 506.109 116.24C498.159 116.16 490.649 116.08 483.569 116.13H476.019C469.469 116.13 462.699 116.13 456.109 116.38C451.279 116.53 450.809 118.68 450.669 121.7C450.669 122.053 450.649 122.433 450.609 122.84C450.129 129.63 450.069 136.84 450.009 143.84C450.009 149.59 449.919 155.54 449.629 161.11C449.379 166.11 448.809 171.11 448.259 176.04C447.239 183.523 446.728 191.067 446.729 198.62L446.819 202.62C447.099 215.06 447.389 227.92 447.309 240.51C447.219 251.98 447.389 269.74 447.949 283.6C448.082 286.857 450.692 289.467 453.949 289.6C455.689 289.69 457.749 289.82 459.869 289.96C463.019 290.16 466.279 290.36 468.869 290.47C478.269 290.84 488.329 290.93 496.049 290.97C499.209 290.97 504.169 291.09 508.539 291.19L516.069 291.34H516.719C520.669 291.34 530.999 290.99 531.459 290.98C532.537 290.942 533.39 290.058 533.389 288.98C533.369 288.13 533.539 266.52 533.419 261.62Z" fill="#CCC9C6"/><path id="Path_2" d="M507.003 121.194C508.072 139.952 508.45 156.218 508.12 172.78C507.938 181.969 508.042 190.721 508.405 204.462C508.441 205.832 508.47 206.902 508.538 209.406C508.752 217.241 508.84 220.768 508.92 225.157C508.958 227.19 508.991 228.845 509.067 232.45C509.264 241.891 509.333 246.023 509.353 251.225C509.367 254.655 509.347 257.862 509.29 260.953C509.228 264.391 509.157 267.156 508.986 273.231C508.948 274.589 508.932 275.13 508.912 275.854C508.802 279.839 508.732 282.671 508.68 285.504C508.66 286.608 509.539 287.52 510.643 287.54C511.748 287.56 512.66 286.681 512.68 285.577C512.731 282.759 512.801 279.939 512.911 275.965C512.931 275.242 512.946 274.701 512.984 273.344C513.156 267.255 513.227 264.481 513.29 261.026C513.347 257.904 513.367 254.668 513.353 251.209C513.333 245.978 513.264 241.83 513.066 232.367C512.99 228.765 512.957 227.112 512.92 225.083C512.839 220.679 512.751 217.144 512.537 209.296C512.469 206.794 512.44 205.725 512.403 204.356C512.042 190.672 511.938 181.973 512.12 172.86C512.451 156.188 512.071 139.821 510.997 120.966C510.934 119.864 509.989 119.021 508.886 119.083C507.784 119.146 506.94 120.091 507.003 121.194Z" fill="#AFADAC"/><path id="Path_3" d="M399.837 149.538L393.697 146.328C392.718 145.816 391.509 146.195 390.998 147.173C390.486 148.152 390.864 149.361 391.843 149.872L397.983 153.082C398.962 153.594 400.171 153.215 400.682 152.237C401.194 151.258 400.815 150.049 399.837 149.538Z" fill="#CCC9C6"/><path id="Path_4" d="M416.822 135.713L411.862 129.413C411.178 128.545 409.921 128.395 409.053 129.079C408.185 129.762 408.035 131.019 408.719 131.887L413.679 138.187C414.362 139.055 415.619 139.205 416.487 138.521C417.355 137.838 417.505 136.581 416.822 135.713Z" fill="#CCC9C6"/><path id="Path_5" d="M403.672 269.414L397.042 276.904C396.31 277.731 396.387 278.995 397.214 279.728C398.042 280.46 399.306 280.383 400.038 279.556L406.668 272.066C407.4 271.239 407.323 269.975 406.496 269.242C405.669 268.51 404.405 268.587 403.672 269.414Z" fill="#CCC9C6"/><path id="Path_6" d="M423.81 273.816L420.24 283.626C419.863 284.664 420.398 285.812 421.436 286.189C422.474 286.567 423.621 286.032 423.999 284.994L427.569 275.184C427.947 274.146 427.412 272.998 426.374 272.621C425.336 272.243 424.188 272.778 423.81 273.816Z" fill="#CCC9C6"/><path id="Path_7" d="M488.17 204.17C488.17 189.34 488.12 180.39 481.93 164.96C479.93 160.07 474.38 155.75 469.46 155.33C463.309 154.735 457.126 154.541 450.95 154.75C448.02 154.87 439.1 155.25 436.27 161.17C434.214 165.769 432.985 170.694 432.64 175.72C432.11 183.62 431.9 190.89 432 197.95C432 199.42 432 200.95 432.05 202.39C432.15 211.44 432.26 220.81 433.43 229.68L433.56 230.63C434.26 235.96 435.06 242 437.56 246.76C440.34 252.07 445.14 252.83 449.86 252.83C450.86 252.83 451.77 252.83 452.71 252.76H453.77C455.71 252.76 458.77 252.68 462.07 252.66C469.07 252.66 473.82 252.56 475.22 252.34C479.53 251.66 481.94 248.92 483.81 242.54C486.64 232.85 488.24 220.13 488.19 207.64L488.17 204.17Z" fill="#FC6E47"/><path id="Path_8" d="M446.808 242.839C446.657 243.318 446.52 243.723 446.378 244.103C445.669 246.008 444.894 247.072 444.045 247.347C442.994 247.687 442.417 248.814 442.757 249.865C443.097 250.916 444.224 251.493 445.275 251.153C447.608 250.398 449.029 248.448 450.127 245.499C450.295 245.048 450.452 244.582 450.622 244.043C450.719 243.738 451.025 242.736 451.013 242.774C454.608 231.156 455.34 209.47 453.864 191.03C453.799 190.231 453.774 189.917 453.739 189.493C453.025 180.704 452.435 175.961 451.258 171.313C449.675 165.061 447.209 160.644 443.378 158.062C442.462 157.444 441.219 157.686 440.602 158.602C439.984 159.518 440.226 160.761 441.142 161.378C446.445 164.953 448.339 172.436 449.753 189.817C449.787 190.24 449.812 190.553 449.876 191.35C451.316 209.32 450.597 230.59 447.19 241.596C447.206 241.543 446.899 242.551 446.808 242.839Z" fill="#C44538"/></g></g></g></g></g></g></svg>