<svg viewBox="0 0 599.9999999999999 599.9999999999999" fill="none" xmlns="http://www.w3.org/2000/svg" xmlns:xlink="http://www.w3.org/1999/xlink" overflow="visible" width="599.9999999999999px" height="599.9999999999999px"><g id="Master/Spot Illustrations/Point"><g id="Background" style="mix-blend-mode:soft-light" transform="scale(1 1)"><g id="Background/Sun"><path id="Path" d="M377.85 200.5C358.3 192.1 340.31 187.68 322.85 187C300.427 186.302 278.2 191.374 258.3 201.73V201.73C219.25 221.73 194.53 256.85 190.48 298.1C187.75 325.94 192.42 350.62 204.37 371.44C216.07 391.84 234.08 407.44 257.89 417.87C272.82 424.39 293.74 428.28 315.89 428.28C338.75 428.28 362.89 424.13 383.08 414.45C406.9 403.03 422.68 385.16 428.74 362.78C445.22 301.8 433 224.21 377.85 200.5Z" fill="#EAF3F3"/><path id="Path_2" d="M181.82 161.2C177.48 156.32 164.92 143.78 153.14 132.87C127.56 109.19 120.91 107 117.71 106C112.973 104.392 107.737 105.434 103.976 108.733C100.215 112.032 98.5 117.086 99.4764 121.993C100.453 126.899 103.973 130.912 108.71 132.52C117.04 136.43 152.08 169.96 160.89 179.85C164.206 183.617 169.286 185.321 174.203 184.316C179.121 183.31 183.123 179.749 184.695 174.983C186.266 170.216 185.165 164.972 181.81 161.24L181.82 161.2Z" fill="#EAF3F3"/><path id="Path_3" d="M68.0001 252.54C77.8701 252.54 113.06 254.17 122.27 255.24C122.815 255.3 123.362 255.33 123.91 255.33C131.304 255.294 137.395 249.514 137.818 242.132C138.242 234.75 132.851 228.312 125.51 227.43C115.15 226.22 79.0201 224.59 68.1201 224.54H68.0601C60.3281 224.524 54.0466 230.778 54.0301 238.51C54.0135 246.242 60.2681 252.524 68.0001 252.54Z" fill="#EAF3F3"/><path id="Path_4" d="M114.72 347.19C122.416 346.439 128.046 339.591 127.295 331.895C126.544 324.199 119.696 318.569 112 319.32C96.29 320.85 60.17 329.32 45.37 334.87C40.6002 336.571 37.1204 340.714 36.2699 345.706C35.4195 350.698 37.3311 355.76 41.2689 358.944C45.2067 362.128 50.5568 362.937 55.26 361.06C67.93 356.28 101.27 348.5 114.72 347.19Z" fill="#EAF3F3"/><path id="Path_5" d="M123.39 417.32C106.11 426.46 68.2801 461.86 57.5601 474.07C52.9076 479.91 53.6575 488.374 59.2643 493.305C64.8712 498.237 73.3615 497.9 78.5601 492.54C88.7901 480.89 123.82 448.75 136.44 442.07C140.918 439.762 143.811 435.227 144.016 430.194C144.22 425.161 141.705 420.406 137.43 417.742C133.154 415.079 127.778 414.917 123.35 417.32H123.39Z" fill="#EAF3F3"/><path id="Path_6" d="M220.73 486.59C217.652 484.511 213.875 483.74 210.229 484.448C206.583 485.155 203.368 487.281 201.29 490.36C191.88 504.31 181.01 520.13 179.09 522.49C174.31 528.425 175.155 537.093 180.992 541.993C186.828 546.893 195.512 546.225 200.53 540.49C203.77 536.63 218.38 515.09 224.53 506.01C228.839 499.597 227.138 490.905 220.73 486.59V486.59Z" fill="#EAF3F3"/><path id="Path_7" d="M545.42 308.36C533.21 305.7 518.6 302.36 516.19 301.66C508.911 299.448 501.198 303.453 498.82 310.679C496.443 317.905 500.27 325.708 507.44 328.25C511.15 329.49 529.09 333.46 539.44 335.72C546.995 337.377 554.463 332.595 556.12 325.04C557.777 317.485 552.995 310.017 545.44 308.36H545.42Z" fill="#EAF3F3"/><path id="Path_8" d="M346.43 500.93C346.585 495.928 344.061 491.224 339.807 488.588C335.553 485.953 330.216 485.787 325.807 488.153C321.397 490.519 318.585 495.058 318.43 500.06C318.29 504.59 318.43 511.61 318.59 519.75C318.8 530.75 319.07 544.34 318.49 550.05C317.71 557.74 323.31 564.607 331 565.39C331.475 565.438 331.953 565.461 332.43 565.46C339.609 565.45 345.617 560.012 346.34 552.87C347.09 545.48 346.83 532.12 346.57 519.19C346.44 511.77 346.31 504.75 346.43 500.93Z" fill="#EAF3F3"/><path id="Path_9" d="M466.69 500.78C462.05 496.58 456.28 491.35 454.52 489.03C449.826 482.875 441.03 481.69 434.875 486.385C428.72 491.079 427.536 499.875 432.23 506.03C435.56 510.41 441.23 515.59 447.89 521.58C453.22 526.41 461.27 533.71 463.24 536.77C465.934 540.998 470.684 543.462 475.692 543.231C480.7 543 485.202 540.109 487.495 535.651C489.789 531.193 489.524 525.849 486.8 521.64C482.83 515.4 475 508.3 466.69 500.78Z" fill="#EAF3F3"/><path id="Path_10" d="M545.38 417.15C535.56 412.29 510.26 404.93 490.76 399.61C483.4 397.833 475.961 402.228 473.968 409.532C471.974 416.836 476.148 424.402 483.39 426.61C508.14 433.36 527.14 439.34 532.96 442.23C539.891 445.66 548.29 442.821 551.72 435.89C555.15 428.959 552.311 420.56 545.38 417.13V417.15Z" fill="#EAF3F3"/><path id="Shape" fill-rule="evenodd" clip-rule="evenodd" d="M548.79 210.83C556.505 210.334 563.162 216.185 563.66 223.9C564.113 231.273 558.76 237.73 551.43 238.65C551.32 238.674 551.201 238.7 551.074 238.73L550.58 238.77C550.607 238.769 550.636 238.767 550.666 238.765C550.777 238.759 550.907 238.752 551.029 238.74C544.149 240.359 513.818 250.744 508.48 253.33C506.329 254.632 503.864 255.324 501.35 255.33C495.179 255.333 489.734 251.295 487.945 245.389C486.156 239.483 488.445 233.102 493.58 229.68C494.86 228.83 497.86 226.85 520.79 219C543.72 211.15 547.14 210.93 548.79 210.83ZM551.029 238.74C551.085 238.735 551.14 238.728 551.19 238.72L551.074 238.73C551.059 238.733 551.044 238.737 551.029 238.74Z" fill="#EAF3F3"/><path id="Path_11" d="M436.79 181.93C443.098 186.395 451.83 184.905 456.3 178.6C463.07 169.05 474.19 162.6 485.96 155.71C496.02 149.85 506.42 143.78 515.02 135.23C518.685 131.73 520.173 126.523 518.91 121.615C517.646 116.707 513.83 112.865 508.93 111.57C504.031 110.275 498.814 111.728 495.29 115.37C489.22 121.37 480.79 126.31 471.85 131.52C458.67 139.21 443.74 147.92 433.46 162.41C431.312 165.44 430.457 169.199 431.081 172.86C431.706 176.521 433.759 179.784 436.79 181.93V181.93Z" fill="#EAF3F3"/><path id="Path_12" d="M352.87 127.34C359.823 130.719 368.2 127.823 371.58 120.87C374.03 115.82 377.37 107.64 380.9 98.9801C385.41 87.9101 391.03 74.1401 394.36 68.2901C396.836 63.9387 396.802 58.5969 394.272 54.277C391.741 49.9571 387.098 47.3154 382.092 47.347C377.085 47.3786 372.476 50.0787 370 54.4301C365.75 61.8701 360.25 75.3601 354.93 88.4301C351.58 96.6601 348.41 104.43 346.35 108.66C342.998 115.619 345.916 123.978 352.87 127.34V127.34Z" fill="#EAF3F3"/><path id="Path_13" d="M238.47 130.42C240.105 136.548 245.657 140.812 252 140.81C253.219 140.812 254.433 140.651 255.61 140.33C263.079 138.338 267.519 130.669 265.53 123.2C262.9 113.32 241.53 52.8 234.02 41.04C229.829 34.6327 221.268 32.7806 214.803 36.8826C208.338 40.9847 206.368 49.5191 210.38 56.04C214.94 63.25 235.47 119.18 238.47 130.42Z" fill="#EAF3F3"/></g></g><g id="Master/Hands/Point" transform="scale(1 1)"><g id="Master/Hands/Point"><g id="base"><path id="Path" d="M300.081 246.837C299.231 245.931 299.405 244.477 300.445 243.796C300.549 243.728 300.549 243.728 301.042 243.406C301.528 243.088 302.092 242.719 302.728 242.304C304.544 241.117 306.57 239.794 308.754 238.37C314.995 234.3 321.253 230.231 327.118 226.432L327.546 226.155C338.933 218.783 347.368 213.386 351.643 210.766C353.269 209.767 354.994 208.66 357.207 207.206C358.128 206.6 362.028 204.019 363.053 203.346C371.93 197.515 377.761 194.173 383.868 191.803C386.589 190.746 389.205 189.976 391.745 189.504C405.997 186.856 415.385 203.021 409.9 215.845C408.51 219.101 406.329 222.592 403.431 226.324C400.263 230.405 396.307 234.691 391.583 239.286C387.742 243.022 385.129 245.386 378.465 251.279C374.652 254.647 369.063 259.291 362.12 264.893C361.666 265.26 361.207 265.63 360.743 266.003C355.685 270.072 350.268 274.367 344.85 278.619C342.954 280.107 341.194 281.483 339.614 282.714C339.061 283.146 338.569 283.528 338.146 283.857C337.892 284.054 337.716 284.19 337.625 284.261C336.809 284.893 335.646 284.801 334.941 284.047L300.081 246.837Z" fill="#ff9ba5"/><path id="Path" d="M343.218 296.377C342.427 290.546 341.178 284.696 339.185 276.833C338.824 275.41 338.752 275.13 337.846 271.629C332.161 249.619 322.048 241.324 301.347 243.44C285.554 245.053 271.867 248.538 245.815 256.65C243.78 257.284 242.01 257.822 238.505 258.874C237.856 259.069 237.856 259.069 237.205 259.265C218.893 264.768 210.353 268.001 201.759 273.612C190.334 281.069 183.305 291.125 180.84 305.144C178.733 317.039 177.95 329.341 177.871 346.087C177.854 349.769 177.864 352.721 177.903 359.314C177.939 365.267 177.949 367.888 177.94 371.164C177.936 375.638 177.879 381.717 177.7 398.392L177.696 398.816C177.523 414.953 177.46 421.832 177.46 426.44V597.74C177.46 598.844 178.355 599.74 179.46 599.74H363.81C364.915 599.74 365.81 598.844 365.81 597.74V349.29C365.81 348.719 365.811 348.293 365.814 347.143C365.836 338.7 365.722 334.278 365.159 328.928C363.637 314.444 359.162 304.404 350.067 299.712C348.03 298.566 345.741 297.84 343.375 297.589C343.325 297.187 343.273 296.783 343.218 296.377Z" fill="#ff9ba5"/><path id="Path" d="M208.446 314.252C210.579 315.54 212.376 316.982 214.614 319.115C215.073 319.551 215.548 320.014 216.163 320.621C216.354 320.809 217.465 321.908 217.797 322.235C218.584 323.01 219.85 323 220.625 322.213C221.4 321.426 221.39 320.16 220.603 319.385C220.276 319.062 219.167 317.965 218.972 317.773C218.341 317.151 217.851 316.673 217.373 316.218C214.941 313.901 212.928 312.285 210.513 310.828C209.568 310.257 208.338 310.561 207.768 311.506C207.197 312.452 207.501 313.681 208.446 314.252Z" fill="#484882"/><path id="Path" d="M273.066 253.605C278.856 254.525 287.905 261.919 291.006 267.882C295.689 276.894 299.634 289.791 302.987 305.078C303.184 305.983 303.342 306.786 303.638 308.37C303.982 310.204 304.109 310.859 304.312 311.814C304.428 312.362 304.545 312.879 304.666 313.38C304.926 314.454 306.007 315.114 307.08 314.854C308.154 314.594 308.814 313.513 308.554 312.44C308.442 311.977 308.333 311.495 308.224 310.982C308.03 310.07 307.907 309.434 307.57 307.633C307.266 306.012 307.103 305.18 306.894 304.223C303.471 288.616 299.44 275.439 294.555 266.038C290.905 259.017 280.834 250.789 273.694 249.655C272.603 249.481 271.578 250.225 271.405 251.316C271.232 252.407 271.975 253.432 273.066 253.605Z" fill="#484882"/><path id="Path" d="M267.396 364.787C275.935 357.221 275.973 327.287 267.519 296.353C263.434 281.421 250.613 265.675 237.251 260.993C236.209 260.627 235.068 261.176 234.702 262.218C234.337 263.261 234.886 264.402 235.928 264.767C247.944 268.979 259.9 283.662 263.661 297.408C271.726 326.919 271.689 355.639 264.744 361.793C263.917 362.526 263.84 363.79 264.573 364.616C265.306 365.443 266.57 365.519 267.396 364.787Z" fill="#484882"/><path id="Path" d="M277.342 448.472C271.769 447.056 266.624 447.158 262.227 449.291C261.233 449.773 260.819 450.969 261.301 451.963C261.783 452.957 262.979 453.372 263.973 452.889C267.398 451.228 271.619 451.145 276.358 452.348C277.428 452.62 278.517 451.973 278.789 450.902C279.06 449.832 278.413 448.743 277.342 448.472Z" fill="#484882"/><path id="Path" d="M322.654 355.517C325.065 354.711 324.047 351.099 321.57 351.671C319.087 352.245 317.042 352.905 313.659 354.217C311.001 355.082 308.927 355.799 307.065 356.512C304.703 357.426 302.656 358.252 300.822 359.052C298.695 359.682 296.919 360.021 294.988 360.198C289.287 360.72 287.063 358.429 283.859 350.55C283.78 350.356 283.068 348.592 282.851 348.061C280.176 341.484 280.842 336.338 284.384 331.632C287.207 327.88 290.852 325.122 299.184 319.851L300.32 319.132C300.818 318.817 301.219 318.562 301.605 318.316C305.44 315.874 309.609 313.401 314.898 310.395C316.349 309.57 317.841 308.729 319.781 307.641C319.997 307.519 323.577 305.514 324.61 304.933C331.347 301.141 338.401 298.936 342.349 298.88C343.453 298.864 344.336 297.956 344.32 296.852C344.304 295.747 343.396 294.864 342.292 294.88C337.614 294.946 329.928 297.349 322.649 301.447C321.62 302.025 318.042 304.03 317.824 304.152C315.878 305.244 314.38 306.088 312.921 306.917C307.579 309.954 303.357 312.458 299.456 314.943C299.073 315.187 298.675 315.439 298.181 315.752L297.046 316.47C288.29 322.009 284.408 324.947 281.188 329.227C276.8 335.058 275.942 341.689 279.147 349.573C279.362 350.097 280.071 351.854 280.153 352.056C281.953 356.482 283.18 358.801 285.103 360.781C286.83 362.56 288.911 363.669 291.423 364.079C290.278 364.844 289.135 365.673 287.938 366.597C276.277 375.649 270.135 385.309 262.317 403.894C261.888 404.912 262.367 406.085 263.385 406.513C264.403 406.942 265.575 406.464 266.004 405.445C273.579 387.438 279.393 378.294 290.387 369.76C294.181 366.831 297.382 364.934 302.169 362.829C304.616 362.09 307.462 361.012 311.343 359.443C312.744 358.876 313.946 358.397 315.006 357.985C315.81 357.725 321.195 356.004 322.654 355.517Z" fill="#484882"/><path id="Path" d="M284.253 355.535C268.514 361.874 255.721 364.132 243.381 361.736C233.369 359.786 226.932 351.391 223.53 337.821C220.954 327.544 220.344 315.247 221.077 302.878C221.142 301.775 220.301 300.829 219.198 300.763C218.096 300.698 217.149 301.539 217.084 302.642C216.329 315.381 216.958 328.052 219.65 338.794C223.389 353.71 230.788 363.358 242.618 365.663C255.847 368.231 269.358 365.847 285.747 359.245C286.772 358.832 287.268 357.667 286.855 356.643C286.443 355.618 285.277 355.122 284.253 355.535Z" fill="#484882"/><path id="Path" d="M305.485 243.21C322.767 243.082 332.346 250.206 336.599 267.264C336.896 268.441 337.342 270.274 338.029 273.127L338.049 273.212C338.209 273.873 338.759 276.16 338.738 276.074C338.998 277.155 339.176 277.893 339.326 278.511C339.586 279.585 340.668 280.244 341.741 279.984C342.815 279.723 343.474 278.642 343.213 277.569C343.064 276.953 342.887 276.217 342.627 275.138C342.648 275.224 342.098 272.937 341.938 272.276L341.918 272.19C341.227 269.323 340.779 267.482 340.479 266.291C335.772 247.413 324.552 239.068 305.455 239.21C304.35 239.218 303.462 240.12 303.47 241.225C303.478 242.329 304.38 243.218 305.485 243.21Z" fill="#484882"/></g><g id="Point/Wear" transform="scale(1 1)"><g id="Point/Wear/Bracelet"><g id="clothing"><path id="Path" d="M186.39 505.35C187.28 497.41 180.61 489.91 172.39 490.95C166.94 491.64 162.96 495.62 161.67 501.15C160.38 506.68 163.97 514.33 170.48 516.15C174.048 517.14 177.871 516.512 180.934 514.433C183.998 512.353 185.993 509.032 186.39 505.35V505.35Z" fill="#F97560"/><path id="Path_2" d="M176.993 510.02C178.917 512.866 182.211 515.354 186.311 517.417C187.298 517.913 188.5 517.515 188.996 516.529C189.493 515.542 189.095 514.34 188.108 513.843C184.565 512.061 181.778 509.955 180.306 507.78C179.688 506.865 178.444 506.624 177.529 507.243C176.614 507.862 176.374 509.105 176.993 510.02Z" fill="#0B0B0A"/><path id="Path_3" d="M188.79 509.89C182.69 515.04 182.36 525.07 189.03 529.96C193.46 533.21 199.09 533.05 203.84 529.96C208.59 526.87 211.23 518.81 207.75 513.02C205.843 509.851 202.642 507.679 198.993 507.076C195.344 506.474 191.614 507.502 188.79 509.89V509.89Z" fill="#F97560"/><path id="Path_4" d="M205.607 522.98C205.971 523.032 206.488 523.131 209.183 523.659L209.262 523.675C211.572 524.128 212.642 524.327 213.175 524.387C214.272 524.511 215.263 523.722 215.387 522.625C215.511 521.527 214.722 520.537 213.625 520.413C213.258 520.371 212.141 520.163 210.031 519.75L209.953 519.734C207.052 519.166 206.648 519.088 206.173 519.02C205.079 518.864 204.066 519.624 203.91 520.717C203.754 521.811 204.514 522.824 205.607 522.98Z" fill="#0B0B0A"/><path id="Path_5" d="M216.66 511.89C210.55 517.04 210.23 527.07 216.9 531.96C221.33 535.21 226.96 535.05 231.7 531.96C236.44 528.87 239.1 520.81 235.62 515.02C233.713 511.851 230.512 509.679 226.863 509.076C223.214 508.474 219.484 509.502 216.66 511.89V511.89Z" fill="#F97560"/><path id="Path_6" d="M235.1 526.043C237.47 526.244 239.997 526.391 242.636 526.489C243.74 526.529 244.668 525.667 244.708 524.564C244.749 523.46 243.887 522.532 242.783 522.491C240.205 522.396 237.741 522.253 235.439 522.057C234.338 521.964 233.37 522.78 233.277 523.88C233.183 524.981 234 525.949 235.1 526.043Z" fill="#0B0B0A"/><path id="Path_7" d="M246.78 511.82C240.18 515.82 238.78 525.75 244.21 531.26C244.852 531.911 245.563 532.491 246.33 532.99C248.82 534.965 252.011 535.836 255.16 535.4C260.343 534.727 264.597 530.97 265.905 525.909C267.213 520.849 265.312 515.501 261.104 512.401C256.896 509.301 251.225 509.071 246.78 511.82V511.82Z" fill="#F97560"/><path id="Path_8" d="M365.17 492.868C365.097 496.322 363.992 499.675 361.996 502.495C361.358 503.397 361.572 504.645 362.474 505.283C363.376 505.921 364.624 505.707 365.262 504.805C367.718 501.333 369.079 497.204 369.169 492.952C369.192 491.848 368.316 490.934 367.211 490.91C366.107 490.887 365.193 491.763 365.17 492.868Z" fill="#0B0B0A"/><path id="Path_9" d="M355.999 495.46C349.389 499.46 347.999 509.39 353.419 514.9C354.059 515.551 354.771 516.128 355.539 516.62C358.026 518.603 361.219 519.478 364.369 519.04C369.555 518.372 373.814 514.617 375.125 509.555C376.437 504.493 374.537 499.143 370.328 496.041C366.119 492.939 360.446 492.709 355.999 495.46V495.46Z" fill="#F97560"/><path id="Path_10" d="M354.384 509.453C351.939 510.577 349.458 511.6 346.942 512.522C345.904 512.902 345.372 514.05 345.751 515.088C346.131 516.125 347.28 516.658 348.317 516.278C350.934 515.32 353.513 514.256 356.055 513.087C357.059 512.625 357.498 511.438 357.037 510.434C356.575 509.431 355.387 508.991 354.384 509.453Z" fill="#0B0B0A"/><path id="Path_11" d="M329.88 508.42C323.78 513.58 323.45 523.61 330.12 528.49C334.55 531.74 340.18 531.59 344.93 528.49C349.68 525.39 352.32 517.35 348.84 511.55C346.933 508.381 343.732 506.209 340.083 505.606C336.434 505.004 332.704 506.032 329.88 508.42V508.42Z" fill="#F97560"/><path id="Path_12" d="M326.922 517.802C324.523 518.237 322.111 518.623 319.685 518.959C318.591 519.11 317.827 520.12 317.978 521.214C318.13 522.309 319.14 523.073 320.234 522.921C322.715 522.577 325.182 522.183 327.636 521.738C328.723 521.541 329.444 520.5 329.247 519.413C329.05 518.326 328.009 517.605 326.922 517.802Z" fill="#0B0B0A"/><path id="Path_13" d="M297.839 522.05C297.579 529.2 303.429 535.05 310.409 535.63C318.629 536.31 324.809 526.57 323.339 520.56C321.869 514.55 317.229 509.32 310.469 509.3C303.499 509.29 298.099 515.26 297.839 522.05Z" fill="#F97560"/><path id="Path_14" d="M299.475 520.944C296.928 521.103 294.347 521.239 291.733 521.352C290.63 521.399 289.774 522.333 289.821 523.436C289.869 524.54 290.802 525.396 291.906 525.348C294.545 525.234 297.151 525.097 299.724 524.936C300.827 524.867 301.664 523.918 301.595 522.815C301.527 521.713 300.577 520.875 299.475 520.944Z" fill="#0B0B0A"/><path id="Path_15" d="M263 526.6H271.61C272.715 526.6 273.61 525.705 273.61 524.6C273.61 523.495 272.715 522.6 271.61 522.6H263C261.895 522.6 261 523.495 261 524.6C261 525.705 261.895 526.6 263 526.6Z" fill="#0B0B0A"/><path id="Path_16" d="M274.639 513.92C268.529 519.08 268.209 529.11 274.879 533.99C279.309 537.24 284.939 537.09 289.679 533.99C294.419 530.89 297.069 522.84 293.599 516.99C291.682 513.83 288.476 511.67 284.828 511.08C281.18 510.489 277.456 511.527 274.639 513.92V513.92Z" fill="#F97560"/></g></g></g><g id="Point/Item" transform="scale(1 1)"><g id="Point/Item/Bird"><g id="items"><path id="Path" d="M433.353 178.419C433.634 178.591 433.848 178.722 433.891 178.749C435.495 179.741 434.961 182.198 433.09 182.434C425.97 183.334 418.793 183.693 411.598 183.509C401.289 183.138 392.01 181.806 385.053 179.225C374.906 175.454 365.881 169.171 358.816 160.955C351.289 152.101 348.962 141.333 348.341 122.855C347.909 111.373 349.503 101.22 353.55 93.7726C358.604 84.4722 367.22 79.8626 379.391 81.0802C391.272 82.2803 399.829 88.0285 402.726 98.4535C403.826 102.404 404.71 106.646 405.788 112.765C405.922 113.526 406.059 114.315 406.228 115.295C406.304 115.733 406.592 117.409 406.661 117.806C407.328 121.677 407.751 124.005 408.236 126.375C409.825 134.932 413.094 143.09 417.843 150.36C422.251 156.968 426.211 159.528 437.739 164.334C439.167 164.93 439.407 166.852 438.17 167.78C437.371 168.379 436.464 168.907 435.482 169.36C438.46 169.801 439.968 170.074 441.602 170.507C443.204 170.931 443.624 173.008 442.314 174.022C440.853 175.152 439.257 176.095 437.562 176.828C436.194 177.452 434.788 177.983 433.353 178.419Z" fill="#90BFFF"/><path id="Path_2" d="M375.658 148.294C374.925 147.467 373.661 147.39 372.834 148.123C372.007 148.855 371.931 150.119 372.663 150.946C379.807 159.015 394.266 166.845 402.549 165.202C403.486 165.016 404.16 164.195 404.16 163.24C404.16 161.706 404.019 160.524 403.602 157.896C403.188 155.285 403.061 154.145 403.099 152.787C403.131 151.683 402.261 150.762 401.157 150.731C400.053 150.699 399.132 151.569 399.101 152.673C399.053 154.362 399.199 155.667 399.652 158.523C399.854 159.797 399.984 160.69 400.062 161.433C393.114 161.428 381.452 154.838 375.658 148.294Z" fill="#484882"/><path id="Path_3" d="M384.49 170.95V194.21C384.49 195.315 385.386 196.21 386.49 196.21C387.595 196.21 388.49 195.315 388.49 194.21V170.95C388.49 169.846 387.595 168.95 386.49 168.95C385.386 168.95 384.49 169.846 384.49 170.95Z" fill="#484882"/><path id="Path_4" d="M371.171 101.362L370.941 105.212C370.727 108.796 373.459 111.874 377.042 112.089C380.626 112.303 383.704 109.571 383.918 105.988L384.148 102.138C384.362 98.5542 381.631 95.4757 378.048 95.2616C374.464 95.0476 371.386 97.779 371.171 101.362Z" fill="white"/><path id="Path_5" d="M378.489 196.946C378.389 193.231 378.369 189.293 378.403 183.968C378.411 182.707 378.42 181.654 378.439 179.452C378.478 174.984 378.49 173.104 378.49 170.74C378.49 169.635 377.595 168.74 376.49 168.74C375.385 168.74 374.49 169.635 374.49 170.74C374.49 173.089 374.478 174.961 374.439 179.417C374.42 181.622 374.411 182.677 374.403 183.943C374.369 189.308 374.389 193.286 374.491 197.054C374.521 198.158 375.44 199.029 376.544 198.999C377.648 198.969 378.519 198.05 378.489 196.946Z" fill="#484882"/><path id="Path_6" d="M375.663 101.631L375.433 105.481C375.367 106.583 376.208 107.531 377.31 107.597C378.413 107.662 379.36 106.822 379.426 105.719L379.656 101.869C379.722 100.767 378.882 99.8195 377.779 99.7536C376.676 99.6878 375.729 100.528 375.663 101.631Z" fill="#484882"/><path id="Path_7" d="M338.809 110.902C338.584 111.029 337.021 111.901 336.573 112.156C335.714 112.644 335.042 113.044 334.435 113.436C333.577 113.989 332.878 114.51 332.302 115.042C331.068 116.183 331.708 118.247 333.372 118.489C335.605 118.815 338.639 119.001 342.296 119.075C345.487 119.139 348.893 119.115 352.184 119.035C352.87 119.018 353.494 119 354.046 118.983C354.378 118.972 354.613 118.963 354.738 118.959C355.636 118.924 356.401 118.294 356.607 117.419C357.167 115.045 357.567 112.772 358.114 109.098C358.055 109.492 358.612 105.714 358.775 104.65C359.045 102.887 359.298 101.345 359.578 99.7961C359.735 98.9323 359.309 98.0676 358.53 97.664L341.92 89.064C340.181 88.1636 338.318 90.0403 339.231 91.7727C339.275 91.8557 339.359 92.018 339.479 92.2502C339.68 92.64 339.904 93.0812 340.145 93.5646C340.835 94.9459 341.524 96.3853 342.166 97.8072C342.475 98.4892 342.764 99.1517 343.033 99.7896C343.764 101.523 344.317 103.025 344.648 104.208C344.818 104.819 344.924 105.326 344.963 105.704C344.977 105.844 344.981 105.955 344.977 106.031C344.326 107.432 342.492 108.827 338.809 110.902Z" fill="#484882"/><path id="Path_8" d="M315.986 99.8335C305.009 102.16 294.169 101.383 282.444 97.8908C273.423 95.2043 265.991 91.8865 250.98 84.3539C245.235 81.4705 243.777 80.7441 241.096 79.4452C231.365 74.7302 223.911 71.6931 216.476 69.6702C208.935 67.7026 201.165 66.8658 193.399 67.1817C185.541 67.5873 174.255 70.0822 167.422 73.0119C166.407 73.4472 165.937 74.623 166.372 75.6382C166.808 76.6534 167.983 77.1235 168.999 76.6882C175.383 73.9508 186.206 71.5583 193.584 71.1774C200.933 70.8785 208.307 71.6728 215.446 73.5352C222.577 75.4754 229.824 78.4286 239.352 83.0449C242.009 84.3324 243.46 85.0552 249.186 87.929C264.403 95.5651 271.984 98.9495 281.302 101.724C293.632 105.396 305.138 106.221 316.815 103.747C317.896 103.518 318.586 102.456 318.357 101.375C318.128 100.295 317.066 99.6045 315.986 99.8335Z" fill="#CCC9C6"/><path id="Path_9" d="M263.969 56.6789C258.49 52.578 252.31 49.5106 245.731 47.6273C239.801 46.1267 227.987 45.0244 222.765 45.644C221.668 45.7741 220.884 46.7688 221.014 47.8657C221.144 48.9626 222.139 49.7463 223.236 49.6161C227.929 49.0593 239.264 50.1168 244.69 51.489C250.741 53.2223 256.483 56.0717 261.572 59.8812C262.456 60.5431 263.709 60.3628 264.371 59.4786C265.033 58.5943 264.853 57.3409 263.969 56.6789Z" fill="#CCC9C6"/><path id="Path_10" d="M305.796 125.442C298.329 131.446 282.553 132.165 273.324 127.421C272.341 126.916 271.136 127.303 270.631 128.286C270.126 129.268 270.513 130.474 271.495 130.979C282.06 136.408 299.531 135.613 308.303 128.559C309.164 127.866 309.3 126.607 308.608 125.747C307.916 124.886 306.657 124.749 305.796 125.442Z" fill="#CCC9C6"/><path id="Path_11" d="M194.968 107.512C188.244 103.154 180.455 101.536 171.529 102.133C164.685 102.591 157.896 104.186 148.585 107.144C147.532 107.478 146.949 108.603 147.284 109.656C147.618 110.708 148.743 111.291 149.795 110.956C158.825 108.088 165.347 106.556 171.796 106.124C179.918 105.581 186.858 107.022 192.792 110.868C193.719 111.469 194.958 111.205 195.558 110.278C196.159 109.351 195.895 108.112 194.968 107.512Z" fill="#CCC9C6"/><path id="Path_12" fill-rule="evenodd" clip-rule="evenodd" d="M278.822 63.8384C285.869 60.1476 294.543 62.3303 296.905 69.7213L296.908 69.7301C299.157 76.8825 296.01 82.0049 289.201 84.2311C282.993 86.2611 276.295 84.2361 273.698 79.138C270.855 73.5575 272.728 67.0296 278.822 63.8384ZM277.262 77.3222C278.88 80.4993 283.485 81.8915 287.958 80.4291C292.8 78.8462 294.639 75.8543 293.093 70.9345C291.58 66.2087 285.727 64.7373 280.678 67.3818C276.573 69.5315 275.391 73.6499 277.262 77.3222Z" fill="#CCC9C6"/><path id="Path_13" fill-rule="evenodd" clip-rule="evenodd" d="M293.109 70.9827C290.848 64.4333 289.052 57.7378 287.732 50.9463C287.72 50.8952 287.71 50.8436 287.702 50.7915C286.947 46.8861 286.35 42.9491 285.912 38.9899C285.803 38.008 286.428 37.0939 287.382 36.8382C289.121 36.3721 290.578 36.5031 293.301 37.085L293.534 37.1349C295.04 37.4579 295.676 37.5685 296.392 37.6022C298.58 37.7037 300.545 37.1648 303.325 35.8553C303.691 35.6832 304.073 35.4971 304.548 35.2619C304.701 35.1862 305.096 34.9892 305.41 34.8329C305.599 34.7386 305.759 34.6591 305.817 34.6299C306.223 34.4287 306.556 34.2649 306.882 34.1081C307.924 33.606 309.174 34.0909 309.605 35.1647C309.949 36.0196 310.229 36.7817 310.717 38.1624C311.583 40.6098 311.904 41.4683 312.459 42.7223C313.703 45.5405 313.893 47.5049 312.71 49.1638C311.81 50.4268 310.83 50.9155 307.69 52.0834C302.062 54.1874 298.031 54.4785 292.28 53.2091C293.488 58.7808 295.027 64.2801 296.89 69.6774C297.25 70.7215 296.696 71.8601 295.652 72.2206C294.608 72.581 293.469 72.0268 293.109 70.9827ZM292.466 40.9967C291.481 40.7863 290.737 40.6543 290.129 40.5981C290.476 43.3742 290.904 46.1381 291.413 48.8865C297.442 50.454 300.904 50.35 306.292 48.3355C308.516 47.5086 309.233 47.1507 309.454 46.8413C309.593 46.6455 309.53 45.9916 308.801 44.3397C308.19 42.9606 307.847 42.0435 306.946 39.4964C306.84 39.1962 306.744 38.927 306.656 38.6811C306.516 38.7509 306.395 38.811 306.324 38.8462C305.827 39.0921 305.422 39.289 305.03 39.4739C301.713 41.0364 299.165 41.7352 296.205 41.5978C295.192 41.5501 294.421 41.416 292.695 41.0459L292.466 40.9967Z" fill="#CCC9C6"/><path id="Path_14" fill-rule="evenodd" clip-rule="evenodd" d="M240.132 147.676C232.729 141.106 236.908 129.312 246.081 128.02C253.689 126.948 260.53 132.737 260.53 138.95C260.53 149.974 247.782 154.477 240.132 147.676ZM256.53 138.95C256.53 135.193 251.864 131.245 246.639 131.981C240.733 132.812 238.024 140.457 242.789 144.685C248.002 149.321 256.53 146.308 256.53 138.95Z" fill="#CCC9C6"/><path id="Path_15" fill-rule="evenodd" clip-rule="evenodd" d="M193.498 135.901C188.868 128.408 193.594 119.647 202.694 117.666L202.729 117.659C210.25 116.163 215.512 121.111 216.681 127.615C218.73 139.657 200.166 146.707 193.498 135.901ZM196.902 133.8C201.258 140.86 214.051 136.002 212.741 128.304C211.932 123.803 208.523 120.593 203.527 121.578C196.965 123.016 193.832 128.833 196.902 133.8Z" fill="#CCC9C6"/><path id="Path_16" d="M224.794 96.3183C225.08 96.347 225.351 96.3765 225.625 96.4087C228.671 96.7665 231.876 97.419 235.65 98.3812C236.517 98.6023 237.384 98.8314 238.445 99.1181C238.667 99.1782 240.317 99.6265 240.87 99.7752C243.45 100.648 245.979 101.663 248.445 102.816C250.584 108.068 252.26 113.497 253.455 119.041C254.257 122.914 255.11 128.532 256.548 139.266C256.695 140.36 257.701 141.129 258.796 140.982C259.891 140.836 260.659 139.829 260.513 138.734C259.062 127.906 258.2 122.227 257.369 118.214C256.066 112.167 254.218 106.267 251.847 100.571C251.658 100.118 251.309 99.7498 250.866 99.5372C248.016 98.1686 245.085 96.9757 242.09 95.965L241.968 95.9283C241.498 95.8023 239.725 95.3206 239.488 95.2565C238.41 94.9653 237.526 94.7316 236.638 94.5052C232.707 93.503 229.341 92.8177 226.091 92.436C225.795 92.4012 225.501 92.3692 225.209 92.34C220.521 91.8298 215.79 91.5889 211.057 91.6201C209.745 91.6288 208.796 92.8778 209.14 94.1444C209.781 96.5017 210.32 99.5031 210.866 103.479C211.118 105.317 211.86 111.289 211.917 111.729C212.661 117.561 212.96 123.446 212.811 129.329C212.783 130.434 213.655 131.351 214.76 131.379C215.864 131.407 216.782 130.535 216.81 129.431C216.964 123.345 216.655 117.256 215.884 111.217C215.829 110.794 215.085 104.804 214.829 102.935C214.436 100.071 214.043 97.6801 213.608 95.63C217.345 95.6843 221.078 95.914 224.794 96.3183Z" fill="#CCC9C6"/><path id="Path_17" d="M213.422 107.991C215.233 107.816 217.058 107.841 218.863 108.065C223.517 108.675 228.143 109.568 232.703 110.737C234.118 111.067 235.322 111.34 237.631 111.86C239.047 112.179 239.284 112.233 239.891 112.37C244.918 113.507 248.154 114.291 251.425 115.197C252.127 115.393 252.813 115.654 253.47 115.976C254.462 116.462 255.66 116.052 256.146 115.059C256.632 114.067 256.221 112.869 255.229 112.384C254.352 111.955 253.438 111.606 252.498 111.344C249.146 110.415 245.858 109.619 240.773 108.468C240.165 108.331 239.927 108.277 238.509 107.958C236.209 107.44 235.012 107.168 233.652 106.852C228.981 105.654 224.197 104.73 219.37 104.097C217.259 103.835 215.14 103.806 213.037 104.009C211.938 104.115 211.133 105.093 211.239 106.192C211.345 107.292 212.322 108.097 213.422 107.991Z" fill="#CCC9C6"/></g></g></g></g></g></g></svg>