<svg viewBox="145.83783783783792 76.65000000000009 805.9459459459459 1303.0500000000004" xmlns="http://www.w3.org/2000/svg" overflow="visible" xmlns:xlink="http://www.w3.org/1999/xlink" width="805.9459459459459px" height="1303.0500000000004px"><g id="Master/Pose/Bust" stroke="none" stroke-width="1" fill="none" fill-rule="evenodd"><g id="Body" transform="translate(147.000000, 639.000000) scale(1 1)"><g id="Body/Dress" stroke="none" stroke-width="1" fill="none" fill-rule="evenodd"><path d="M765.567026,645.397237 C763.141026,622.866237 761.646026,600.177237 760.788026,577.532237 C759.931026,554.914237 761.052026,532.018237 761.544026,509.391237 C762.547026,463.362237 764.177026,417.224237 760.512026,371.265237 C757.049026,327.830237 749.098026,284.698237 736.551026,242.964237 C730.441026,222.639237 724.002026,201.496237 713.953026,182.716237 C703.848026,163.834237 687.842026,151.260237 670.260026,139.729237 C651.541026,127.452237 632.972026,114.943237 614.326026,102.552237 C598.674026,92.1512369 570.507121,80.0456887 557.665121,66.1406887 C544.152121,51.5096887 541.611964,15.2425369 532.612964,-2.08946307 C523.848964,-18.9714631 499.040961,-29.9840045 479.939528,-29.9840045 C448.322028,-29.9840045 424.366026,-31.5997631 398.368026,-2.35276307 C385.397026,12.2402369 395.717416,26.9924973 382.121416,40.9984973 C369.621416,53.8754973 337.654026,67.1092369 321.543026,74.5812369 C302.247026,83.5302369 282.464026,91.4312369 262.394026,98.4692369 C241.921026,105.649237 220.932026,111.000237 200.344026,117.776237 C180.610026,124.271237 154.841759,151.042195 139.521759,165.207195 C125.278759,178.377195 121.744026,176.902237 110.916026,192.901237 C87.1520263,228.012237 63.3620263,263.526237 44.4380263,301.541237 C35.0120263,320.477237 25.8850263,340.396237 22.4650263,361.426237 C18.8170263,383.856237 22.4340263,405.532237 28.3500263,427.249237 C34.3720263,449.350237 53.4950125,470.392537 59.7250125,492.437537 C62.5960125,502.596537 52.7410263,513.683237 57.2740263,523.257237 C59.5380263,528.038237 62.3890263,532.295237 65.6350263,536.461237 C68.1360263,539.671237 77.8893708,538.95988 79.1513708,542.88888 C80.4263708,546.85688 73.3700263,555.091237 73.2650263,559.198237 C73.1160263,565.075237 72.8820263,570.952237 72.6890263,576.829237 L71.5490263,611.574237 C70.8000263,634.406237 70.0510263,657.239237 69.3020263,680.071237 C69.0570263,687.524237 68.7000263,694.806237 70.4870263,701.878237 C69.8420263,701.280237 69.2290263,700.629237 68.6690263,699.898237 C67.0300263,697.758237 63.5540263,699.572237 64.9450263,702.075237 C67.2670263,706.252237 70.6060263,709.192237 74.5290263,711.304237 C79.0880263,718.025237 769.512026,733.037237 772.909026,713.387237 C774.815026,702.362237 771.346026,690.559237 769.959026,679.605237 C768.515026,668.196237 766.799026,656.836237 765.567026,645.397237 Z" id="✋-Skin" fill="#d08b5b"/><path d="M46.058634,317.448817 L759.153899,356.437009 C759.664937,361.374742 760.117593,366.318024 760.512026,371.265237 C764.177026,417.224237 762.547026,463.362237 761.544026,509.391237 C761.411361,515.492512 761.232961,521.613346 761.059939,527.743015 L690.71251,539.356697 L190.622773,551.3757 L65.6350263,536.461237 L60.4474263,527.467648 L56.8534379,511.813339 C58.3958106,505.385684 61.5042809,498.733457 59.7250125,492.437537 C59.2063357,490.602187 58.5982931,488.773787 57.915885,486.951147 L58.5611697,474.388426 L46.058634,317.448817 Z" id="👕-Top" fill="#FDEA6B"/><path d="M64.2284263,361.465537 C65.9174263,356.627537 73.6434263,358.721054 71.9424263,363.591537 C63.1984263,388.637537 69.4014263,415.892537 78.8544263,439.801537 C80.7514263,444.598537 73.0114263,446.659537 71.1404263,441.927537 C61.1964263,416.777537 55.0444263,387.768537 64.2284263,361.465537 M122.857426,504.527537 C147.517426,507.996537 172.197426,510.136537 197.027426,511.866537 C198.137426,511.946537 199.097426,511.777537 199.927426,511.416537 C199.187426,522.786537 198.587426,534.166537 198.117426,545.546537 C191.347426,545.357537 184.437426,545.806537 177.727426,545.626537 C168.957426,545.386537 160.197426,544.946537 151.447426,544.277537 C134.507426,542.996537 117.597426,540.956537 100.847426,538.136537 C94.5874263,537.086537 86.6374263,536.446537 79.5074263,534.366537 C72.7674263,532.397537 66.7674263,529.136537 63.6174263,522.996537 C60.9374263,517.796537 60.4474263,511.427537 60.4474263,505.677537 C60.4474263,501.716537 61.1274263,497.696537 61.5374263,493.706537 C62.0474263,493.347537 62.5074263,492.916537 62.8774263,492.437537 C70.3174263,494.786537 78.0374263,496.437537 85.5974263,498.036537 C97.9074263,500.656537 110.397426,502.777537 122.857426,504.527537 M108.949426,412.064537 C109.085426,419.707537 111.200426,426.650537 115.315426,433.085537 C118.099426,437.440537 111.172426,441.447537 108.407426,437.123537 C103.563426,429.546537 101.109426,421.041537 100.949426,412.064537 C100.857426,406.905537 108.857426,406.922537 108.949426,412.064537 M741.077426,495.446537 C744.416426,495.633537 747.776426,495.747537 751.125426,495.925537 C754.079426,498.451537 758.169426,499.746537 761.904426,498.942537 C762.033426,499.265537 762.150426,499.628537 762.257426,500.046537 C762.917426,502.616537 763.247426,505.376537 763.627426,507.996537 C764.007426,510.576537 764.297426,513.177537 764.497426,515.777537 C764.597426,517.086537 765.227426,520.046537 764.427426,521.187537 C763.707426,522.216537 762.117426,522.126537 761.017426,522.256537 C758.057426,522.576537 755.057426,522.727537 752.077426,522.977537 C746.447426,523.466537 740.817426,523.956537 735.197426,524.446537 C729.687426,524.927537 723.637426,524.777537 718.247426,526.227537 C717.327426,515.416537 716.487426,504.607537 715.707426,493.786537 C724.057426,495.017537 732.787426,494.986537 741.077426,495.446537 M40.9574263,477.517537 C44.3174263,484.006537 47.4174263,490.386537 53.8474263,494.286537 C54.6874263,494.786537 55.6274263,495.056537 56.5874263,495.126537 C55.8674263,498.216537 55.4174263,501.376537 55.0174263,504.296537 C54.1374263,510.727537 53.9474263,517.376537 55.5574263,523.716537 C57.1274263,529.886537 59.7274263,535.397537 64.8274263,539.347537 C67.1974263,541.187537 69.7874263,542.586537 72.5074263,543.696537 C72.0474263,544.986537 71.7774263,546.267537 71.9174263,547.677537 C71.2674263,550.946537 70.8374263,554.277537 70.3674263,557.466537 C69.3374263,564.546537 68.3074263,571.636537 67.4974263,578.756537 C65.8774263,592.916537 64.6074263,607.076537 63.5374263,621.286537 C62.4674263,635.456537 61.6974263,649.647537 61.0574263,663.847537 C60.7274263,671.107537 60.4374263,678.366537 60.1674263,685.636537 C59.8974263,693.107537 58.6874263,700.746537 61.9874263,707.677537 C64.6474263,713.277537 73.6374263,712.956537 76.3974263,707.677537 C79.8974263,700.966537 78.8674263,692.996537 78.9574263,685.636537 C79.0474263,678.706537 79.1674263,671.767537 79.3174263,664.836537 C79.6174263,650.647537 80.0574263,636.466537 80.4074263,622.277537 C80.7474263,608.427537 81.1674263,594.586537 81.4474263,580.736537 C81.5874263,573.486537 81.5974263,566.236537 81.6374263,558.986537 C81.6574263,554.966537 81.8274263,550.677537 81.5274263,546.486537 C84.0274263,547.076537 86.5474263,547.576537 89.0374263,548.086537 C108.047426,551.986537 127.257426,554.826537 146.587426,556.586537 C156.297426,557.466537 166.037426,558.086537 175.777426,558.437537 C182.937426,558.696537 190.357426,559.196537 197.627426,558.927537 C197.057426,576.286537 196.797426,593.656537 196.827426,611.027537 C196.847426,623.556537 197.017426,636.086537 197.327426,648.616537 C197.497426,655.206537 197.637426,661.796537 197.837426,668.386537 C197.927426,671.347537 197.927426,674.336537 198.127426,677.286537 C198.187426,678.206537 198.317426,679.097537 198.487426,679.977537 C197.827426,681.847537 197.277426,683.696537 196.827426,685.427537 C194.627426,693.826537 194.627426,701.897537 195.607426,710.456537 C196.447426,717.716537 202.557426,724.446537 210.627426,721.897537 C211.937426,721.486537 213.247426,721.056537 214.547426,720.616537 C226.427426,721.966537 238.377426,722.277537 250.427426,722.506537 C268.037426,722.847537 285.657426,722.956537 303.277426,723.046537 C337.837426,723.227537 372.407426,723.317537 406.977426,723.416537 C476.447426,723.616537 545.917426,723.806537 615.387426,724.006537 C634.667426,724.067537 653.947426,724.116537 673.227426,724.177537 C683.207426,724.206537 693.167426,724.216537 703.137426,724.597537 C707.787426,724.777537 712.447426,725.027537 717.097426,725.097537 C722.487426,725.187537 727.257426,723.636537 732.407426,722.227537 C735.317426,721.416537 736.467426,718.496537 735.847426,716.027537 C740.507426,717.136537 746.157426,714.777537 747.747426,709.527537 C748.907426,705.716537 748.477426,701.586537 746.747426,698.056537 L746.747426,698.046537 C743.407426,676.956537 739.167426,655.966537 735.837426,634.866537 C732.187426,611.756537 728.677426,588.597537 725.587426,565.397537 C723.267426,547.876537 721.357426,560.296537 719.707426,542.696537 C726.897426,543.256537 735.027426,541.067537 742.147426,540.136537 C747.257426,539.477537 752.407426,538.946537 757.527426,538.246537 C757.147426,543.406537 757.257426,548.666537 757.117426,553.616537 C756.847426,563.446537 756.967426,573.236537 757.217426,583.067537 C757.697426,602.036537 758.767426,590.996537 760.477426,609.886537 C762.207426,628.916537 764.327426,647.876537 766.897426,666.817537 C768.217426,676.567537 769.627426,686.306537 771.117426,696.036537 C771.807426,700.576537 772.517426,705.107537 773.247426,709.647537 C774.117426,714.996537 774.397426,720.067537 778.407426,724.086537 C781.457426,727.136537 787.687426,726.876537 789.707426,722.626537 C792.267426,717.256537 791.107426,712.656537 790.157426,707.017537 C789.387426,702.486537 788.647426,697.956537 787.917426,693.427537 C786.357426,683.716537 784.877426,673.996537 783.487426,664.267537 C780.807426,645.517537 778.277426,626.736537 776.017426,607.937537 C773.737426,588.986537 771.377426,600.056537 769.137426,581.107537 C768.007426,571.546537 766.877426,562.006537 765.557426,552.477537 C764.887426,547.576537 764.467426,542.357537 763.587426,537.306537 C763.867426,537.267537 764.147426,537.216537 764.427426,537.166537 C770.507426,536.056537 775.697426,532.626537 777.227426,526.366537 C778.687426,520.376537 776.947426,513.486537 775.717426,507.607537 C774.667426,502.599537 773.718426,496.206537 770.494426,491.915537 C781.854426,477.445537 789.243426,459.237537 793.956426,441.732537 C799.090426,422.661537 801.239426,402.754537 801.694426,383.046537 C802.222426,360.214537 800.501426,337.514537 796.588426,315.190537 C796.496426,310.459537 796.278426,305.730537 795.927426,301.006537 C792.487426,254.647537 778.047426,199.777537 732.267426,178.116537 C732.087426,178.027537 731.897426,177.946537 731.707426,177.866537 C728.117426,173.576537 723.637426,169.716537 720.017426,166.107537 C713.607426,159.706537 706.907426,153.586537 699.807426,147.946537 C685.747426,136.777537 670.327426,127.857537 654.297426,119.826537 C638.087426,111.696537 621.637426,104.067537 605.797426,95.1965369 C591.997426,87.4565369 579.577426,78.1365369 567.787426,67.6165369 C554.537426,55.7865369 545.107426,39.8365369 541.407426,22.4265369 C541.217426,21.5175369 539.867426,21.7675369 539.847426,22.6365369 C538.877426,54.5465369 560.417426,82.7465369 585.207426,100.586537 C614.847426,121.897537 650.637426,131.986537 680.697426,152.647537 C688.167426,157.777537 695.157426,163.567537 701.807426,169.716537 C691.617426,168.676537 681.247426,169.336537 671.697426,172.156537 C667.937426,171.926537 664.157426,171.857537 660.387426,171.676537 C651.767426,171.246537 643.137426,170.847537 634.507426,170.466537 C616.917426,169.687537 599.317426,168.977537 581.717426,168.357537 C547.187426,167.136537 512.647426,166.216537 478.107426,165.607537 C408.697426,164.376537 339.197426,164.136537 269.797426,166.147537 C250.977426,166.687537 152.017426,162.937537 142.857426,163.996537 C156.327426,152.336537 171.107426,142.817537 187.357426,134.986537 C207.687426,125.216537 228.697426,118.696537 250.407426,112.736537 C295.117426,100.466537 341.547426,88.6365369 377.327426,57.4665369 C386.217426,49.7165369 394.117426,40.8075369 400.587426,30.9375369 C406.767426,21.5175369 413.637426,9.45653693 413.807426,-2.03346307 C413.927426,-10.1924631 402.567426,-13.1634631 398.527426,-6.17346307 C396.017426,-1.84346307 394.777426,2.90653693 392.727426,7.44653693 C390.687426,11.9465369 388.267426,16.2865369 385.577426,20.4375369 C380.287426,28.5975369 373.727426,35.8765369 366.587426,42.4465369 C351.367426,56.4665369 332.927426,66.7365369 313.847426,74.5065369 C270.527426,92.1365369 223.147426,99.5765369 182.097426,122.817537 C164.137426,132.986537 146.947426,147.017537 136.157426,164.916537 C134.417426,165.187537 132.687426,165.506537 130.957426,165.866537 C132.247426,164.236537 133.547426,162.607537 134.857426,160.986537 C135.717426,159.926537 134.387426,158.527537 133.337426,159.466537 C112.927426,177.626537 94.1274263,197.236537 77.0874263,218.616537 C60.7874263,239.076537 45.5874263,260.517537 34.8274263,284.477537 C15.4874263,327.517537 11.2274263,376.746537 21.2174263,422.767537 C23.9374263,435.306537 27.7774263,447.586537 32.6674263,459.456537 C35.1874263,465.586537 37.9174263,471.626537 40.9574263,477.517537" id="🖍-Ink" fill="#000"/></g></g><g id="Head" transform="translate(372.000000, 180.000000) scale(0.9978902953586498 1)"><g id="Head/Bun 2" stroke="none" stroke-width="1" fill="none" fill-rule="evenodd"><path d="M397.5017,243.7566 C395.1257,213.0126 398.8077,180.7886 386.9537,151.5666 C366.2857,103.0816 308.3297,86.9156 263.3987,68.4566 C245.398536,63.1379728 184.830055,62.3945685 163.754,55.3552 C116.053659,39.423363 104.656889,20.4408103 66.7547,50.7756 C60.3567,55.9576 56.3537,61.5896 53.4337,69.2846 L53.5537,69.3176 C52.7197,72.5256 53.6137,75.7266 55.4927,78.1716 C39.0587,94.9696 32.1817,120.1536 40.6137,142.5146 C68.1307,200.7036 66.8367,232.1666 57.9707,294.7226 C46.3927,353.1226 72.8497,374.4556 116.6657,406.2316 C114.8817,409.6906 114.5117,414.2876 116.8377,417.3396 C167.5047,488.5386 263.037604,522.532978 344.890604,486.394978 C378.115604,471.606978 392.9487,436.2236 401.4137,404.2966 C411.2747,368.5476 414.3047,330.8776 406.2767,294.4616 C403.0387,277.6196 398.8207,260.8996 397.5017,243.7566 Z" id="✋-Skin" fill="#d08b5b"/><path d="M34.604,156.542779 L64.7308389,176.612571 L172.569953,62.925405 L136.683492,34.6802511 C93.2789544,66.7591122 67.3095712,87.0317357 58.7753427,95.4981214 C50.2411142,103.964507 42.184,124.312726 34.604,156.542779 Z" id="bandana" fill="#9FD8E5"/><path d="M105.244,-96.8628 C111.394175,-97.7863088 116.038608,-93.970587 118.247976,-88.5923941 L118.364,-88.3028 C119.074,-86.4728 119.864,-84.6928 120.714,-82.9428 C136.104,-90.4928 158.064,-88.5528 167.804,-73.2628 C174.754,-62.3428 170.514,-49.3828 167.894,-37.8028 L166.174,-30.1728 C169.49875,-28.05705 172.005962,-24.2682 171.888262,-20.3448366 L171.874,-20.0428 L171.174,-9.4028 C173.394,-11.6528 175.424,-14.1028 177.234,-16.7128 C178.484,-19.0028 179.834,-21.2528 181.284,-23.4328 C189.814,-36.2628 208.964,-25.1128 201.924,-11.3728 C200.574,-8.7228 199.054,-6.2128 197.424,-3.7928 C195.584,-0.2228 194.074,3.4472 192.914,7.2172 C196.244,8.6672 198.804,11.8872 199.074,16.7472 C199.704,28.0972 193.744,37.5672 184.264,43.5172 C181.474,45.2672 178.594,45.6072 175.984,44.9572 C175.524,45.5772 175.064,46.1972 174.624,46.8272 C178.404,49.8972 181.814,53.3972 184.744,57.2772 C193.564,55.9572 202.434,55.3372 211.304,55.3172 C222.144,50.0072 235.124,50.1172 246.774,52.1072 C254.274,53.3872 261.474,55.8772 268.854,57.6672 C276.634,59.5472 284.534,59.6172 292.404,60.8972 C302.324,62.5072 311.024,67.0872 316.494,74.3972 C322.504,74.5772 328.824,77.0372 334.064,80.3772 C346.264,88.1572 358.394,96.0472 370.564,103.8772 C375.234625,106.883242 376.98101,111.682178 376.122343,117.034803 L376.064,117.3772 L375.654,119.5972 L376.616833,120.963599 C380.341184,126.22304 384.3936,131.732 386.804,137.5372 C391.264,143.9672 395.294,150.7072 398.864,157.6572 C403.674,166.9972 407.644,176.8972 410.334,187.0572 C411.004,189.6272 411.674,192.2172 412.114,194.8372 C412.744,198.5372 411.774,201.4072 411.244,204.9572 C410.584,209.4572 410.344,214.0172 409.644,218.5272 C409.174,221.5172 406.634,222.9872 403.974,223.0672 C404.974,230.6772 405.694,238.3372 406.384,245.9372 C407.354,256.7972 408.014,267.6872 408.584,278.5772 C411.524,282.8472 417.534,286.2272 421.874,287.3972 C427.884,289.0072 434.184,287.2572 439.864,285.2072 C443.434,283.9172 446.364,288.4072 444.624,291.4072 C439.154,300.8272 427.454,300.7872 418.594,296.6172 C414.844,294.8572 411.554,292.3072 409.114,288.9872 C409.264,292.1472 409.424,295.3072 409.584,298.4772 L409.733019,301.348481 C411.534571,334.880433 415.424,369.565811 409.124,402.7672 C398.214,460.2772 350.621536,504.066686 292.484,507.4672 C261.975969,509.251641 236.570564,500.240629 223.937282,495.213915 C211.304,490.1872 216.214126,479.938033 224.9842,482.867831 C240.09212,487.9149 267.846269,495.434144 292.684,492.1872 C351.224,484.534485 400.864,455.275433 395.764,329.2572 C395.040771,311.386598 392.814,293.5072 392.334,275.6372 C391.874,258.1672 392.044,240.6872 391.274,223.2272 L391.017237,217.269998 C390.716593,210.309175 390.395111,203.316089 389.874,196.3472 C389.244,193.6472 388.724,190.9072 387.954,188.2572 C385.864,181.0472 383.134,174.0372 379.744,167.3472 C378.994,167.9172 378.154,168.3272 377.244,168.4872 C370.334,169.7272 363.854,169.3772 357.384,166.4972 C354.364,165.1672 351.704,163.3972 349.224,161.2072 C348.044,160.1772 347.254,159.1772 346.634,158.1372 C343.504,158.1872 340.374,157.2472 338.414,154.9972 C336.178516,152.432684 335.806716,149.783881 336.682306,147.331747 L336.774,147.0872 L336.554,147.0072 C333.914,153.8372 328.654,159.8472 322.884,163.9072 C313.764,170.3472 302.354,172.2072 291.414,172.3772 C279.334,172.5572 266.594,170.6972 254.674,168.7972 C251.524,168.2972 248.394,167.7272 245.324,166.9572 C245.204,167.0772 245.084,167.2172 244.954,167.3372 C234.724,177.1272 220.334,179.6472 207.354,174.0572 C199.854,170.8272 193.564,165.6272 188.004,159.6672 C187.924,162.7872 187.764,165.9072 187.494,168.9972 L187.38219,170.224228 C186.828578,175.979244 185.763333,182.083867 181.414,186.2372 C174.384,192.9672 164.184,190.2672 156.074,185.8872 C156.084,186.0972 156.084,186.3172 156.084,186.5372 C158.274,193.9772 160.474,201.4272 162.674,208.8772 L163.147862,210.46421 C164.747636,215.754142 166.502182,221.050836 166.984,226.5872 C167.904,237.1672 160.864,247.6172 149.104,244.0672 C142.935429,242.211771 137.993633,237.025176 133.251896,232.870958 L130.264,230.2872 C137.994,255.5572 143.354,281.7272 143.854,308.0972 C143.884,309.5272 142.654,310.6072 141.294,310.6572 C138.114,310.7872 134.694,310.1572 131.494,308.8872 C131.314,308.8772 131.134,308.8672 130.944,308.8372 C125.484,308.0472 120.414,306.0772 115.944,303.1672 C116.974,306.4372 117.434,309.9472 117.164,313.6172 C117.094,314.5072 115.704,314.8172 115.504,313.8372 C112.924,301.1472 98.074,291.5572 85.274,293.9872 C71.534,296.5972 61.414,308.4172 58.934,321.8672 C56.274,336.3172 61.364,353.0272 70.794,364.1772 C75.134,369.3172 80.844,373.6072 87.624,374.6872 C90.724,375.1772 93.944,375.0072 96.954,374.1272 C98.234,373.7472 99.434,373.2172 100.654,372.7172 C102.434,371.9972 104.514,371.8872 106.194,371.1272 C110.004,369.4172 113.834,372.9272 111.904,376.8372 C110.224,380.2472 108.714,382.5472 105.924,384.3072 C108.184,387.0672 110.234,390.9072 110.994,391.9372 C114.874,397.1772 118.814,402.1272 123.234,406.9172 C127.734,411.7772 132.644,416.2172 137.834,420.3272 L140.015504,422.05095 C145.014625,426.015794 149.36775,429.6897 152.894,435.3772 C155.674,439.8672 152.074,445.9572 146.864,445.8872 C130.564,445.6572 118.714,431.3372 110.274,418.8272 C109.074,417.0372 107.944,415.1472 106.894,413.2072 C106.514,413.8172 106.094,414.3872 105.624,414.9072 L106.554,417.4072 C109.314,424.7672 97.424,429.5772 93.974,422.7072 C91.464,417.7272 88.554,412.9872 85.314,408.5072 C83.404,408.2372 81.534,407.0772 80.494,405.5772 C77.864,401.7672 74.914,397.9172 72.424,393.8572 C71.044,392.5472 69.624,391.2872 68.174,390.0572 C67.754,390.4272 67.324,390.7972 66.914,391.1872 C65.094,395.3372 62.844,399.1272 60.054,402.6972 L59.4558229,403.45882 C54.110919,410.195002 47.1489091,417.089382 38.534,418.7372 C35.904,419.2372 33.374,415.9672 35.704,413.8772 C41.734,408.4572 48.864,404.7672 54.424,398.7172 C57.1632857,395.736486 59.6783878,392.453986 61.8412012,389.013818 L62.334,388.2172 C62.694,387.6272 63.064,387.0372 63.444,386.4372 C60.934,384.7272 58.424,383.0072 55.914,381.2872 C49.0043226,387.190426 40.0061956,389.890738 32.3636123,394.780705 L31.604,395.2772 C24.694,399.8972 17.414,389.6772 22.954,384.0672 C29.061,377.9062 34.159,370.5592 39.569,363.7112 C37.025,359.0252 35.821,353.4842 35.37,347.8842 C35.192,346.2992 35.053,344.7132 34.914,343.1272 C31.034,343.1872 27.134,341.8572 23.834,339.5672 L22.584,338.6772 C18.574,339.9572 14.364,340.5772 10.334,340.4672 C0.854,340.1872 -3.026,329.3572 2.904,322.5072 C8.954,315.5072 19.544,313.9772 27.934,317.3772 C28.204,317.2372 28.484,317.0872 28.754,316.9372 C28.354,315.0972 28.443,313.4282 28.898,311.9622 L28.766,311.0682 C26.921,308.2372 25.708,305.0052 25.248,301.5902 C24.884,298.8852 24.958,296.2042 25.584,293.5332 C25.792,292.6442 26.225,291.7232 26.556,290.7962 C25.874,289.0742 25.473,287.2942 25.349,285.5042 C25.158,285.2772 24.968,285.0442 24.788,284.7922 C20.625,278.9472 21.466,271.9042 25.428,267.1742 C25.446,266.8732 25.474,266.5722 25.515,266.2732 C25.283,265.7512 25.07,265.2242 24.876,264.6912 C21.005,260.7862 18.163,256.0872 18.693,250.2642 C19.004,246.8382 20.412,243.7542 22.543,241.4492 C22.165,240.3312 22.129,239.0362 22.587,237.9552 C19.186,228.9092 19.616,218.0142 22.064,207.8972 C21.524,206.3572 21.244,204.6872 21.304,202.9172 C21.584,195.4072 28.084,188.5072 35.784,188.5972 C36.711,188.6052 37.579,188.7262 38.413,188.9032 L38.424,188.7242 C38.719,186.4702 39.339,184.3872 40.244,182.5182 C39.799,182.3572 39.387,182.1262 39.026,181.8192 C34.092,184.4512 28.871,186.4632 23.397,187.8342 C19.372,188.8422 15.249,184.2672 17.751,180.4892 C18.912,178.7362 20.193,177.1622 21.573,175.7242 C19.611,175.7352 17.619,175.8682 15.604,176.1272 C11.984,176.5972 7.944,174.1272 5.594,170.7872 C2.674,173.6272 -0.256,176.4572 -3.186,179.2872 C-10.606,186.4772 -21.816,181.1872 -22.986,171.7072 C-25.196,171.1172 -27.256,170.1172 -29.066,168.6872 C-40.766,173.7672 -53.356,176.5572 -66.226,177.0872 C-75.466,177.4672 -80.866,166.7072 -76.546,159.1072 C-73.646,154.0072 -70.046,149.4272 -65.896,145.4472 C-72.336,147.4172 -78.986,148.8372 -85.776,149.7472 C-89.446,150.2372 -94.636,147.1972 -96.106,143.8272 C-101.726,130.8672 -101.246,117.3572 -94.776,104.7472 C-94.526,104.2472 -94.246,103.7672 -93.976,103.2872 C-93.306,101.6172 -92.576,99.9672 -91.786,98.3472 C-99.746,90.0472 -100.436,77.7072 -96.146,67.3772 C-97.866,64.5872 -98.526,61.2272 -97.356,58.1872 C-94.026,49.4372 -89.226,41.3572 -83.166,34.4172 C-83.746,33.2972 -84.256,32.1072 -84.686,30.8272 C-88.096,20.4772 -84.146,7.9872 -76.176,0.7772 C-71.166,-3.7628 -65.406,-6.4828 -59.256,-8.2228 C-56.666,-12.8028 -53.336,-16.9328 -49.456,-20.4128 C-49.306,-20.7428 -49.156,-21.0728 -48.986,-21.4028 C-42.946,-32.7828 -31.946,-38.8828 -20.156,-40.2928 C-19.696,-44.7428 -16.696,-48.9928 -12.336,-50.3728 C-11.136,-54.2228 -9.346,-57.9028 -6.886,-61.2428 C-3.016,-66.5028 3.414,-68.9828 9.474,-65.5328 C12.794,-63.6428 15.974,-61.4728 18.954,-59.0728 C20.2924615,-59.7004923 21.809858,-60.1066462 23.5219199,-60.2362046 L23.954,-60.2628 L33.814,-60.7628 C37.944,-62.5928 42.064,-64.5128 46.194,-66.3828 C48.674,-68.4328 51.444,-70.1428 54.464,-71.4128 C57.884,-72.8428 61.384,-73.6528 64.894,-73.9228 C67.744,-74.8528 70.614,-75.6728 73.534,-76.3128 C80.394,-77.8128 87.574,-78.6528 94.694,-78.5828 C94.8397143,-80.4256571 94.9119592,-82.2905551 94.8981399,-84.1774939 L94.884,-85.1228 C94.724,-91.1728 99.554,-96.0028 105.244,-96.8628 Z M98.334,387.1872 C97.354,387.3972 96.364,387.5672 95.374,387.6872 C95.674,388.4272 95.974,389.1672 96.264,389.9072 C97.064,390.3572 97.874,390.7872 98.684,391.1872 C98.444,389.8272 98.304,388.4572 98.334,387.1872 Z M46.957,371.9202 L46.2921852,373.144348 C46.1844444,373.344644 46.0783333,373.542533 45.974,373.7372 C47.384,373.6272 48.804,373.6572 50.204,373.8172 L50.2,373.6682 C50.02,373.6072 49.84,373.5512 49.668,373.4672 C48.702,373.0032 47.804,372.4832 46.957,371.9202 Z M74.724,316.0673 C83.5712222,316.582578 91.0667855,317.939098 99.1129371,321.809367 L99.804,322.1473 C106.914,325.6773 118.674,332.1973 117.684,341.5473 C117.404,344.2073 115.474,347.0073 112.434,346.7973 C104.104,346.2273 99.344,337.8273 93.704,332.5873 C88.014,327.3073 81.024,321.8773 74.134,318.2473 C73.1600714,317.736229 73.5437194,316.118639 74.6034989,316.066514 L74.724,316.0673 Z M34.604,192.8772 C32.484,192.9472 33.194,195.0072 34.284,193.2872 C34.374,193.1472 34.484,193.0072 34.604,192.8772 Z M149.04,55.3552 C128.962,55.8832 108.755,67.7382 93.714,79.7212 C80.629,90.1462 69.33,102.5462 59.325,115.9112 C56.751,122.5672 54.541,129.3622 52.674,136.2072 C51.444,140.7272 50.674,145.2972 49.644,149.8572 L49.324,151.2552 C48.515,152.7672 47.914,154.3942 47.476,156.0752 C49.299,157.9032 51.664,159.2122 54.268,159.8332 C55.107,160.0332 55.804,160.4662 56.355,161.0402 C58.451,157.5422 60.283,153.8502 61.349,149.9362 L61.388,149.7552 C65.417,143.1562 69.793,136.7622 74.484,130.5872 C87.424,113.5372 101.674,97.9972 118.804,85.0672 C131.794,75.2672 146.314,67.5872 161.754,62.5972 C157.975,59.5482 153.683,57.1362 149.04,55.3552 Z" id="🖍-Ink" fill="#000"/></g></g><g id="Face" transform="translate(531.000000, 366.000000) scale(1 1)" fill="#000"><g id="Face/Calm" stroke="none" stroke-width="1" fill="none" fill-rule="evenodd"><path d="M171.041749,240.15887 C163.675125,242.292501 155.767928,242.483273 148.258906,240.279784 C141.4481,238.280984 134.454927,233.882403 129.442325,228.062017 C124.989403,222.891504 122.105494,216.608051 122.218765,209.900917 C122.23165,209.134907 122.505549,208.495522 122.926888,207.999233 C123.380478,207.464958 124.014007,207.098085 124.692682,206.938847 C125.390651,206.775083 126.128513,206.833141 126.756813,207.118539 C127.325595,207.376901 127.812904,207.815736 128.117618,208.457126 C128.887965,209.469087 129.655321,210.466061 130.425688,211.435384 C136.619652,219.083686 142.618023,224.799426 151.931921,226.849502 C156.985367,227.962038 162.032458,227.4687 166.663343,225.771293 C171.620483,223.954301 176.101584,220.7596 179.613092,216.671419 C181.200004,214.823854 183.073535,214.069743 184.905526,214.057068 C186.981571,214.042704 189.033559,215.007378 190.57944,216.549217 C192.09898,218.064783 193.116434,220.124293 193.208649,222.278695 C193.289584,224.169532 192.672753,226.144647 191.031753,227.906756 C185.626535,233.711247 178.621333,237.963558 171.041749,240.15887 Z M170.814304,144.367155 C178.365682,148.9572 189.871664,159.660291 181.748119,171.039573 C172.185929,181.073062 158.418535,169.568982 151.634201,164.366134 C145.343449,160.333898 138.275437,170.704507 144.112,175.412823 C193.135736,211.708059 213.030606,145.567387 174.633685,138.970386 C170.406047,138.243425 168.835891,142.947174 170.814304,144.367155 Z M100.174958,124.170086 C97.7478949,122.617925 94.8928863,122.085145 91.7287079,123.524696 C89.2560287,124.649136 84.9192282,128.39769 81.9011027,133.325394 C79.8363008,136.696603 78.3721211,140.651472 78.6769434,144.770947 C78.7477349,145.727649 78.3942255,146.433054 77.8366311,146.954624 C77.3962557,147.366548 76.7601476,147.669274 76.0129997,147.763908 C75.3786744,147.844253 74.6686661,147.771772 74.0913555,147.591587 C72.9931588,147.248829 72.4119407,146.536464 72.1929489,145.954883 C70.0797393,140.342792 70.9901323,134.080043 73.3585073,128.429944 C76.5547725,120.804793 82.3592783,114.41778 86.1622145,112.358526 C92.669833,108.833475 100.346995,108.671236 106.863929,112.262379 C112.411467,115.318853 115.880218,120.253414 119.330136,125.2834 C120.06351,126.352661 120.791391,127.414081 121.543672,128.456831 C123.05132,130.546275 123.201386,132.618559 122.617532,134.395557 C121.970727,136.36415 120.32151,138.025511 118.259199,138.894957 C116.353068,139.69856 114.140756,139.811681 112.183119,138.985995 C110.529381,138.288488 109.0117,136.92878 108.051384,134.621701 C106.434021,130.736299 103.739338,126.449586 100.174958,124.170086 L100.174958,124.170086 Z M223.440775,132.814369 C221.778563,133.680468 220.478145,133.941602 218.634261,133.389159 C217.614596,133.082886 216.606823,132.495899 215.817824,131.706899 C215.035882,130.924958 214.471712,129.952552 214.252419,128.873803 C213.713072,126.211477 212.256412,123.719368 210.18061,122.094757 C208.406384,120.706172 206.16691,119.97019 203.68291,120.385402 C201.002485,120.832856 198.448729,122.551933 196.689869,124.578687 C196.102007,125.256875 195.641205,126.027105 195.177941,126.792136 C194.311333,128.22283 193.469024,129.552694 192.273843,130.603376 C191.82079,131.003129 191.138107,131.28 190.476901,131.28 C190.208169,131.28 189.935444,131.236271 189.675563,131.155276 C187.007679,128.47758 186.494623,126.446273 186.580635,124.431485 C186.670832,122.318684 187.503809,120.179493 188.849905,118.183565 C192.007516,113.501608 198.002761,109.662839 202.048399,108.79334 C207.588873,107.602708 213.091225,109.031983 217.502758,112.126467 C222.041966,115.310509 225.405508,120.254035 226.454161,125.825144 C226.706431,127.166899 226.599231,128.615171 226.088238,129.870886 C225.588922,131.097909 224.71878,132.148831 223.440775,132.814369 Z M112.394258,74.2526486 C109.069304,77.4921444 105.133931,77.9939318 101.152655,78.4402385 C98.9405594,78.6905522 97.1746454,78.8923401 95.4369094,79.2844431 C90.6605649,80.3626109 85.9393099,81.9864477 81.6319378,84.3250848 C77.1292738,86.7698547 72.2223932,89.7182412 68.6922598,93.4953513 C67.8528342,94.3941678 67.061542,95.3372855 66.2691444,96.2824677 C65.5465882,97.1443561 64.8505415,97.9741006 64.1169766,98.7741419 C63.2745284,99.6930924 62.474532,100.656215 61.6787885,101.616822 C61.1867388,102.427379 61.0895404,102.626735 60.9904523,102.834265 C60.8413425,103.146109 60.6678954,103.495099 60.4697946,103.869494 C60.1984889,104.382242 59.8807027,104.94353 59.5478797,105.452422 C58.9941378,106.382586 58.6970103,106.638799 58.44026,106.753401 C58.0142242,106.943142 57.6101892,107.036611 57.2182099,106.985995 C56.8506749,106.938536 56.5044166,106.762013 56.1624818,106.47304 C54.4554262,105.030757 53.951973,102.663788 54.003574,100.151245 C54.0818781,96.3384852 55.4881691,92.117066 56.7845563,89.5220553 C59.7989145,83.4923568 63.9794222,77.2240967 69.0062346,72.7238372 C74.7422821,67.5868727 81.0177087,63.6979271 88.2256814,61.0181785 C92.7050141,59.3522788 97.8912946,57.8231463 102.771356,58.0162973 C106.284021,58.1553272 109.63736,59.1994956 112.406688,61.8070554 C114.107217,63.4077623 114.923517,65.6846039 114.923517,67.9598329 C114.923517,70.2803828 114.075698,72.6146356 112.394258,74.2526486 Z M230.202983,103.917581 C229.991535,104.264137 229.698869,104.50296 229.373218,104.646395 C229.031839,104.796759 228.650729,104.840068 228.284999,104.778443 C227.920889,104.717091 227.574779,104.552038 227.300232,104.299793 C227.037084,104.058021 226.836702,103.737376 226.747103,103.344559 C224.539595,93.6490336 220.253164,86.4354186 211.104309,81.7836507 C206.603851,79.4952872 201.428751,78.0413484 196.529682,76.8821344 C195.106038,76.5452379 193.601743,76.3269526 192.086825,76.1057581 C187.338965,75.4125185 182.556847,74.6185951 179.461645,70.7808275 C177.596631,68.4690944 176.81391,65.5126371 177.256458,62.8088302 C177.67314,60.2630482 179.160769,57.9287462 181.865031,56.529874 C188.597516,53.048922 196.963943,56.4646469 203.762668,59.3743755 C204.266993,59.5902173 204.762058,59.8021006 205.246454,60.0065439 C211.895078,62.8129721 217.958974,66.5173942 222.943608,71.815137 C226.89868,76.0180237 230.563109,82.2312248 232.038949,88.62289 C233.266795,93.9405248 232.978088,99.3690991 230.202983,103.917581 Z" id="🖍-Ink" fill="#000"/></g></g><g id="Facial Hair" transform="translate(494.999934, 517.999659) scale(1 1)" fill="#000"><g id="Facial Hair/None" stroke="none" stroke-width="1" fill="none" fill-rule="evenodd" fill-opacity="0"/></g><g id="Mask" transform="translate(400.000000, 480.000000) scale(1 1)" fill="#000"><g id="Mask/None" stroke="none" stroke-width="1" fill="none" fill-rule="evenodd" fill-opacity="0"/></g><g id="Accessories" transform="translate(419.000000, 421.000000) scale(1 1)" fill="#000"><g id="Accessories/None" stroke="none" stroke-width="1" fill="none" fill-rule="evenodd" fill-opacity="0"/></g></g></svg>