<svg viewBox="241.9375 67.90573770491801 3338.7374999999997 2231.188524590164" xmlns="http://www.w3.org/2000/svg" overflow="visible" xmlns:xlink="http://www.w3.org/1999/xlink" width="3338.7374999999997px" height="2231.188524590164px"><g id="Master/Compositions/In a Hurry" stroke="none" stroke-width="1" fill="none" fill-rule="evenodd"><polygon id="Triangle" fill-opacity=".5" fill="#FFF" style="mix-blend-mode:overlay" transform="translate(2343.000000, 990.722845) rotate(40.000000) translate(-2343.000000, -990.722845)" points="2343 181.722845 3256 1799.72284 1430 1799.72284"/><polygon id="You-are-beautiful-☺️" fill="#389DFF" opacity=".5" style="mix-blend-mode:overlay" points="2754.34693 717.770372 3304.1237 552.471023 3360.34693 683.124669 2815.85913 918.471023"/><polygon id="You-are-beautiful-☺️" fill="#389DFF" opacity=".5" style="mix-blend-mode:overlay" points="2965.34693 400.143008 3512.26432 225.471023 3562.34693 336.099016 3017.85177 571.471023"/><polygon id="You-are-beautiful-☺️" fill="#389DFF" opacity=".5" style="mix-blend-mode:overlay" points="245 1996.29935 794.776762 1831 851 1961.65365 306.512192 2197"/><polygon id="You-are-beautiful-☺️" fill="#389DFF" opacity=".5" style="mix-blend-mode:overlay" points="456 1678.67198 1002.91739 1504 1053 1614.62799 508.504839 1850"/><g transform="translate(384.000000, 19.000000) scale(3.0322265625 3.0338541666666665)" id="Master/Doodles/Groovy"><g id="Master/Doodles/Groovy" stroke="none" stroke-width="1" fill="none" fill-rule="evenodd"><path d="M568.2611,182.8461 C557.6231,187.0691 550.4771,196.9211 548.0101,207.9571 C546.8681,213.0591 547.9511,220.8471 544.6081,224.9601 C540.6061,229.8831 534.3851,225.6221 529.7731,228.7071 C519.2521,235.7461 530.5181,248.4521 538.3581,250.5441 C544.6101,252.2121 550.9701,253.2341 557.2561,254.4521 C563.1591,255.5951 566.0411,260.8121 569.5841,265.5391 C564.6901,264.7241 559.8891,263.4911 554.9681,262.7131 C552.8501,262.3781 549.7781,261.3251 547.5721,261.4611 C544.9111,261.6261 543.2141,263.4791 540.6861,263.9181 C536.3391,264.6731 533.3501,261.8831 531.6381,267.3451 C530.3771,271.3701 532.3821,276.1811 535.9851,278.1671 C532.8011,281.2831 525.4551,282.1211 521.2901,283.4141 C515.2561,285.2861 509.1181,286.5021 503.5221,289.6621 C503.5221,279.8261 503.6441,272.0391 498.8391,263.0411 C496.5071,258.6731 492.0591,246.4041 487.2911,244.5781 C485.8581,244.0291 483.8351,244.3321 482.3401,243.8861 C480.7871,243.4231 479.9281,242.0721 478.1881,242.0261 C475.0221,241.9411 471.6051,245.6381 469.7261,248.0541 C464.9741,254.1641 465.1601,263.9391 465.4531,271.3001 C465.7561,278.9081 466.5251,288.4591 469.6341,295.4971 C470.3561,297.1321 471.0971,298.9701 472.6731,299.9531 C473.8181,300.6661 475.9521,300.1031 476.8331,300.9141 C480.0321,303.8621 475.5901,305.5501 473.1221,307.3551 C466.8171,311.9661 461.3701,316.4341 456.7571,322.6231 C452.8621,327.8481 446.7871,334.1901 445.7911,340.8871 C441.5041,335.0831 438.4901,328.5351 435.2021,322.1491 C433.3351,318.5221 433.2951,319.2571 435.2811,316.5101 C436.8291,314.3691 439.5501,312.1411 441.7601,310.6451 C446.2801,307.5851 450.9531,304.2911 452.2801,298.4681 C453.2831,294.0651 450.8851,285.9291 449.5101,281.4741 C447.7531,275.7811 443.1611,271.4131 437.2721,274.7381 C432.9101,277.2021 430.8111,286.0111 426.5821,287.2441 C421.8101,288.6351 422.4661,277.0661 422.0261,273.8561 C421.2071,267.8671 418.0411,257.7951 420.0201,251.9131 C421.5611,247.3331 428.9911,244.8921 432.8511,242.1061 C438.5841,237.9681 444.2361,232.6981 448.2671,226.8491 C452.4001,220.8501 452.0351,214.7411 451.2951,207.7491 C450.8631,203.6711 450.1921,192.5721 443.3861,194.9261 C439.4691,196.2811 421.9631,220.1131 418.8641,211.6551 C417.9911,209.2701 419.8781,203.2591 420.2101,200.5091 C420.4521,198.5041 420.4131,188.9491 421.7661,187.6171 C422.2861,187.1051 428.4241,186.2781 429.7661,185.4521 C432.9841,183.4691 435.4001,180.8701 437.3361,177.6381 C443.7481,166.9311 436.4581,150.1951 424.4081,147.5081 C416.5531,145.7561 412.3061,148.5111 407.9091,154.8381 C403.6541,160.9621 395.3031,158.3151 388.2001,159.7911 C386.8631,156.1551 391.5651,149.0021 392.8081,145.4981 C394.6391,140.3371 396.6601,134.9781 397.3901,129.5331 C398.8121,118.9071 396.3611,107.4451 392.9891,97.4311 C397.0341,98.0511 402.7831,97.8051 405.5661,100.8301 C408.3561,103.8601 409.5951,110.0811 411.9511,113.7231 C416.4971,120.7491 421.7221,128.4161 427.9791,134.0041 C436.1491,141.3001 439.3801,137.8931 445.6421,131.1181 C451.9891,124.2511 448.6631,114.5591 446.4071,106.0801 C451.5431,105.3101 457.4781,106.7551 462.5261,107.5681 C467.1021,108.3041 475.6851,108.4701 479.5681,111.2341 C482.4731,113.3011 481.4411,115.5541 481.7241,119.6181 C482.1051,125.1141 482.9691,130.6711 484.6411,135.9351 C488.0431,146.6461 495.7271,150.3221 504.9641,143.4311 C508.1731,147.7371 511.6591,153.4321 516.6141,155.8741 C521.4771,158.2731 530.5191,160.2471 535.9631,160.6421 C542.8151,161.1381 548.2891,158.0901 553.9551,154.6281 C556.7281,152.9341 557.5081,151.5441 559.9291,152.8741 C561.7181,153.8581 564.0811,158.5071 565.8981,160.1131 C567.9331,161.9111 570.1721,163.5661 572.3531,165.1811 C573.3701,166.0181 574.4261,166.8021 575.5221,167.5331 C577.9321,168.1091 578.7421,169.5391 577.9521,171.8231 C579.4761,176.2231 579.7691,180.8841 581.0571,185.3301 C582.5781,190.5831 586.1901,193.4451 591.0461,195.3831 C592.7301,195.8621 594.3851,196.4301 596.0081,197.0871 C598.9021,197.1441 599.5591,198.3141 597.9781,200.5971 C597.9771,203.6651 594.8621,208.3311 593.1941,210.7461 C591.5571,206.1971 585.2291,201.1311 580.3201,203.0601 C574.6121,205.3021 574.3911,211.8621 574.7961,216.9921 C571.2301,215.3141 568.1661,212.8911 565.1181,210.4371 C563.6361,209.2441 561.1831,207.8611 560.0941,206.2681 C558.2061,203.5081 558.3721,204.9391 559.6991,201.1961 C561.1671,197.0571 572.0341,186.8731 568.2611,182.8461" id="Accent" fill="#FF5678"/><path d="M531.2861,17.5991 C536.2111,18.8861 536.6011,20.8951 540.3341,23.1101 C544.1351,25.3661 551.3981,23.5261 556.2441,25.0121 C558.628163,25.74335 560.154413,27.0291898 562.126378,28.3109647 L562.5271,28.5671 C563.8441,29.3941 563.6801,29.8341 565.0621,30.4081 C565.7821,30.7061 567.4031,30.3471 568.2531,30.5321 C574.1451,31.8211 574.6731,38.7581 578.4261,40.1181 C581.3141,41.1661 582.6731,39.1361 585.8441,41.3681 C587.6351,42.6291 589.4061,44.9841 590.3531,46.9421 C590.8181,47.9031 591.2691,51.1361 591.6731,51.6171 L591.946936,51.9389176 C592.837976,52.9688696 592.559145,52.431436 593.532396,53.0695416 L593.6731,53.1641 C596.2251,54.9181 599.2261,54.9061 602.0271,57.8601 C605.8271,61.8681 610.3541,65.0441 611.2571,70.8311 C611.410271,71.8128168 611.441279,72.7163338 611.403576,73.5848839 L611.3713,73.0721 L611.401401,73.5867799 L611.401401,73.5867799 C611.327932,75.3147052 610.981399,76.9036934 610.783515,78.694445 L610.67075,79.865647 C610.50427,81.4333495 610.312491,81.5555783 610.7051,82.8941 C610.9951,83.8811 612.6921,85.2111 613.1021,86.6671 C616.3201,98.0841 597.8031,110.9441 588.2811,104.5221 C584.3921,112.7451 581.5881,121.3981 577.8501,129.6651 C575.8031,134.1951 565.0281,144.7921 565.8071,148.0131 C566.4481,150.6671 572.5791,152.4521 574.7181,153.7311 C578.5941,156.0511 582.3491,158.8501 586.0681,161.4131 C589.300185,163.640889 592.398628,166.012354 595.546506,168.305102 L595.4387,168.2772 C597.239848,168.693473 598.578244,169.723502 599.603845,171.169051 C601.758498,172.631741 603.970951,174.015936 606.2951,175.2561 L607.805411,176.06492 C610.186432,177.36797 611.065679,178.137521 612.3541,181.3451 C613.9221,185.2421 611.9661,183.8811 615.3821,186.3711 C621.824865,191.066806 631.537456,193.18697 638.977177,196.315784 L639.6471,196.6031 C656.3231,203.8981 672.6581,207.7251 690.9931,204.5531 C707.089278,201.769367 722.152922,194.155672 737.216057,188.053725 L738.2431,187.6401 C753.4961,181.5351 768.6911,174.8551 783.1501,167.1011 C796.299138,160.048215 809.319664,152.603319 821.519147,143.874747 L822.9791,142.8211 C830.0501,137.6731 837.5231,133.0871 844.3191,127.5851 C850.9961,122.1801 857.2191,116.1831 863.9991,110.9471 C877.2841,100.6871 891.2951,90.8641 905.3201,81.5671 C909.3161,78.9181 913.2391,76.1581 917.1451,73.3781 C919.4981,71.7051 924.2121,66.8331 927.3221,67.4361 C937.0291,69.3141 927.3061,81.8571 925.6671,85.5271 C930.180982,83.1158059 933.910034,79.6211623 938.493323,77.2499903 L939.697493,76.6564844 C942.483756,75.2724011 949.080141,71.4115694 951.6661,73.1381 C957.9971,77.3631 943.0511,91.2921 940.6451,94.5251 L941.502346,94.0230988 C946.29608,91.1736078 958.341725,83.65685 961.4111,90.5981 C964.800583,98.2620101 952.652206,107.33081 947.990101,111.708681 L947.8341,111.8561 C934.4411,124.5961 918.9721,134.6291 905.3461,146.9941 L905.083695,147.222701 C902.953923,149.017689 897.326845,152.587866 897.7711,155.5301 C898.192997,158.327485 903.579179,161.547341 905.730157,163.473735 L906.552316,164.246527 C911.092433,168.573095 922.1273,179.86755 914.4741,185.7091 C911.6321,187.8781 903.5271,186.0831 900.1281,185.7241 C895.1481,185.1991 890.2421,184.7931 885.3021,183.9681 C878.0401,182.7541 870.9201,177.0591 863.6491,176.8441 C855.627452,176.607563 847.000848,183.568848 840.035571,187.125488 L839.6431,187.3231 C831.3831,191.4201 823.4471,195.9571 815.2261,200.1421 C799.5321,208.1311 784.5511,217.0821 768.3561,224.2821 C751.234243,231.894171 732.915673,236.915689 715.903803,244.78566 L714.0191,245.6721 C696.1721,254.2081 678.9671,256.9201 659.4191,256.3171 C640.3391,255.7291 619.9421,243.0891 604.8401,232.2641 L602.2231,230.3711 L602.2231,230.3711 C600.6041,227.9001 599.1921,227.8361 597.9861,230.1771 L597.321767,230.290638 C595.323651,230.645356 594.241814,230.939576 591.5981,230.7541 C587.01698,230.43346 584.635719,229.430836 580.579174,227.918752 L577.415765,226.741581 C568.782001,223.490604 562.006464,220.417464 555.6301,212.6311 C551.081015,224.460898 562.378315,236.935749 568.629234,246.262339 L568.8291,246.5621 C572.2481,251.7191 576.1381,256.6371 579.0851,262.0881 C581.4781,266.5161 582.3421,273.3951 586.9221,275.3401 C589.6571,276.5021 591.3491,274.5791 593.1931,277.3371 C594.3541,279.073779 593.170026,281.057796 592.872362,282.56198 L592.8431,282.7271 C592.2411,286.5941 590.3741,281.1441 591.7121,286.8471 C592.1351,288.6481 594.6691,292.0821 595.5121,293.7361 C601.2581,305.0101 605.9431,316.8061 610.8581,328.4681 C615.7481,340.0701 620.5941,351.5601 625.3851,363.1831 C627.4521,368.1991 630.3521,372.8221 632.3231,377.8921 C634.52585,383.558017 635.950503,389.454169 637.935761,395.195431 L638.4921,396.7571 C642.0451,406.4271 642.7271,419.2171 639.7941,429.2141 C636.9231,439.0031 624.4531,449.0671 614.5141,448.4401 C619.1151,457.6521 624.3351,465.9351 629.1301,474.9831 C633.6231,483.4601 636.7631,492.5141 641.4251,500.6851 C646.7321,509.9861 651.3681,519.9131 656.6911,529.0251 C661.1871,536.7211 664.0081,545.4861 668.2321,553.3061 C677.8611,571.1341 687.1441,589.6711 697.4671,607.3601 C703.4721,617.6501 708.8841,628.2381 714.9771,638.4941 C718.2351,643.9781 721.5651,649.4151 724.8831,654.8631 C726.7991,658.0081 728.9661,664.9181 732.5611,666.4391 C731.5271,667.5191 728.2111,669.9981 728.0921,671.5731 C727.7751,675.7651 732.0141,674.6061 734.3891,674.0271 C740.4191,672.5591 746.2281,671.0201 752.0571,668.9271 C762.661,665.1214 772.780258,659.812135 783.443723,656.20846 L785.1321,655.6541 C796.4624,652.0436 807.160081,645.836279 818.84927,642.918919 L820.40911,642.545686 C826.31762,641.06129 843.8322,633.73332 845.4051,640.1141 C845.7091,641.3451 844.9151,644.3051 844.9281,645.7981 C844.9501,648.4381 845.6411,650.7951 845.2651,653.5401 C844.5431,658.7961 841.6571,664.0471 838.8451,668.4341 C832.1111,678.9361 824.5621,689.2331 815.6861,698.0141 C800.704897,712.835834 787.142301,732.633354 768.809711,743.50138 L767.9331,744.0121 C764.2071,746.1461 760.6761,749.9261 756.4631,751.0481 C751.7841,752.2931 747.8091,750.7271 743.6261,750.5521 C741.3261,750.4561 741.2001,751.7361 738.4281,750.6921 C736.249143,749.871404 733.47548,747.299525 731.611499,745.793584 L731.3631,745.5951 C726.6711,741.8921 722.7081,737.2031 718.8351,732.6631 C715.4111,728.6491 711.7831,720.9851 707.1481,718.4211 C704.5731,716.9971 704.7121,719.2821 702.4011,716.1141 C701.1251,714.3641 701.0091,712.5761 699.4321,710.8211 C697.7501,708.9491 696.6881,708.6841 695.5751,706.4241 C694.7971,704.8451 694.7661,703.3071 693.7611,701.6851 C690.4161,696.2911 685.3581,691.6631 681.7721,686.3261 C676.4131,678.3511 669.5291,671.4561 663.8901,663.7091 C657.1411,654.4411 649.6361,645.2091 642.3141,636.4021 C628.797767,620.1411 616.32382,602.27565 603.552694,585.036016 L601.8851,582.7911 C587.4371,563.3991 573.9441,542.6981 561.8961,521.7041 C555.4391,510.4511 547.6291,499.5611 540.8481,488.4381 C534.2191,477.5651 528.1161,466.1721 520.3631,456.0831 C518.8681,457.2651 521.3941,461.5571 519.5571,463.3161 C517.6371,465.1581 508.6431,465.2311 506.1891,465.6551 L502.38369,466.313134 C495.564648,467.484928 488.488742,468.62085 481.642884,468.980036 L480.3621,469.0381 C462.8201,469.7031 445.5221,473.2681 427.8411,474.0361 C424.121571,474.197982 421.126636,473.653872 417.609906,472.927335 L414.586703,472.289333 C410.958845,471.550485 410.007094,471.782138 409.038937,476.274257 L407.540469,483.386934 C406.185953,489.862491 404.889732,496.5071 404.3091,502.8911 C403.4951,511.8421 403.3491,520.8021 403.2241,529.7911 C403.1651,534.0751 403.0491,538.3631 403.0691,542.6461 C403.0991,548.8741 404.7931,554.9511 404.4701,561.1691 L404.431059,561.865503 C403.970419,569.494424 402.427041,576.049776 394.5051,578.2171 L393.896394,578.379013 C389.924853,579.401883 389.699053,578.712356 386.6231,576.3191 C383.2311,573.6821 378.7531,571.3001 375.8961,568.1751 C365.2771,556.5591 356.8651,540.2871 353.6601,524.7571 C350.0291,507.1581 354.9171,488.1841 356.6981,470.6861 L356.778238,469.866526 C357.474509,462.479368 357.923318,451.298664 362.9111,445.6691 C368.4411,439.4271 379.7311,439.6351 387.1631,439.5521 C388.860719,439.532772 390.171183,439.360181 391.304477,439.059662 C391.046975,439.037316 390.790786,439.023247 390.5371,439.0299 L391.983435,438.858108 C394.013512,438.189631 395.560726,437.078831 398.0621,435.6991 C401.390205,433.8631 406.130986,432.886014 409.848421,431.546005 L410.4581,431.3191 C420.2621,427.54475 430.558865,425.54652 440.526172,422.332171 L442.0971,421.8141 C450.5511,418.9621 458.9491,417.2861 467.5331,415.2081 C473.814784,413.686167 480.367763,413.396585 486.664433,412.323694 C485.94551,412.240315 485.226427,412.155276 484.5231,412.2513 C486.014451,411.278191 487.635806,411.808481 489.213686,411.837377 C490.743635,411.512808 492.253217,411.123439 493.7351,410.6401 C483.8641,392.6981 474.8471,374.4061 463.9061,357.0611 C461.5161,361.4281 457.4611,361.5071 452.7151,360.0151 C450.0591,359.1791 448.9541,356.5551 446.4681,355.6201 C444.9181,355.0371 443.9931,356.8051 442.3691,355.5451 C441.423682,354.812608 440.843628,352.226071 440.291863,350.010537 C431.174584,340.806358 426.857123,330.367255 422.6396,318.2124 C425.7386,323.9704 428.5686,329.9004 431.7756,335.5974 C432.503276,336.890753 433.431071,338.200502 434.42299,339.526814 L434.135878,339.102316 C432.816998,337.145957 431.533671,335.158243 430.4061,333.0381 C420.4511,314.3171 415.1411,295.9521 411.8941,275.0631 C409.076161,256.924918 408.433163,237.80505 408.979433,219.423185 L409.0341,217.7021 C409.063786,216.823365 409.101323,215.949385 409.146726,215.079471 L409.220397,213.776784 C409.716894,205.712069 410.89609,197.96929 412.7711,189.9921 C413.5041,186.8741 415.0351,182.2841 415.1011,179.1861 L415.10202,178.761979 C415.07447,176.211132 414.561631,168.073692 413.9871,167.5921 C411.722057,165.690535 403.196121,167.024176 400.182741,167.379155 L399.8071,167.4211 C395.0731,167.9121 390.3671,168.6571 385.6331,169.1541 L382.7781,169.4281 L382.7781,169.4281 C380.9501,168.9601 379.6161,169.4781 378.7771,170.9821 C376.2871,171.4201 379.4341,173.4841 375.9651,171.4641 C371.9361,169.1191 372.0381,160.3931 372.0231,156.4351 C372.0171,154.9381 373.1241,148.6061 372.0931,147.5021 C371.2981,146.6511 365.8461,146.9921 364.4831,146.8801 C359.3041,146.4581 354.0921,145.8311 348.8981,145.6231 C338.6451,145.2111 328.2391,145.4671 317.9871,145.5121 C299.7671,145.5901 282.5101,153.8861 267.2921,163.2521 C260.2641,167.5771 252.5081,170.5891 245.5691,175.0041 C238.7421,179.3491 232.7461,184.6851 226.0381,189.2491 C217.049892,195.363267 207.647484,200.528723 199.224131,207.376196 L198.1311,208.2791 C193.9661,211.7751 188.4361,215.2711 185.3851,219.8991 C182.3201,224.5461 184.3841,229.8041 184.2561,235.1351 C184.1161,240.9101 184.4811,247.0351 183.4911,252.6951 L183.417635,253.141399 C183.096998,255.179855 182.714957,258.489814 181.0361,259.6821 C178.34732,261.591368 178.942299,260.276841 176.778641,258.998831 L176.6111,258.9031 C166.3881,253.2501 164.5721,242.6681 161.6241,232.5771 C145.130386,254.721005 134.035121,280.214521 118.653383,303.227719 L117.20483,305.375909 C114.716251,309.113494 110.595058,315.953558 105.6721,312.4221 C102.660383,310.261381 102.089045,306.106026 102.391683,302.03949 L102.418383,301.711061 L102.418383,301.711061 C102.643164,299.089321 103.214917,296.528394 103.711839,294.588609 L104.272318,292.426984 C106.034268,285.586703 107.72854,278.66466 110.9421,272.3461 C112.442957,269.395814 114.19508,266.579243 115.78347,263.675978 L116.5621,262.2161 C117.4711,260.4651 120.2901,256.9821 120.1661,255.0151 L117.6241,258.2431 L117.6241,258.2431 C113.6361,260.1671 110.5951,266.3961 107.3011,269.4951 C104.3041,272.3141 100.9001,275.1201 97.6641,277.8111 C92.0395737,282.485416 87.1151028,287.54207 82.3337606,293.170671 L81.2953353,294.401467 C78.2812115,297.936597 74.5424947,301.053232 71.8931,294.5461 C69.8131,289.4381 73.0751,284.8531 75.4601,280.4891 C78.5781,274.7841 81.7131,269.6191 85.8541,264.6121 C89.3621,260.3731 94.2881,255.8531 95.6631,250.5101 C88.6721,255.3591 82.4021,261.0161 74.8431,265.0661 L74.477897,265.255294 C68.4448688,268.277266 59.18724,267.91886 62.8201,258.4501 C65.5121,251.4371 73.8081,242.9151 79.2881,237.8071 C84.9831,232.4971 91.5221,227.5601 97.6381,222.6941 C111.33047,211.799137 126.5399,202.777315 141.039363,192.949775 L142.7091,191.8121 C156.4031,182.4311 170.4061,173.5761 184.0101,164.3931 L186.217358,162.898303 C216.002588,142.666435 245.318016,120.428919 279.8611,108.8791 C295.712029,103.579386 312.354257,99.4075758 328.805966,96.4694735 L330.6331,96.1481 C339.4281,94.6251 348.8301,92.4491 357.7291,92.0561 C361.0091,91.9111 364.1761,92.5301 367.4201,92.3341 C370.7931,92.1311 374.9621,93.0201 378.2811,92.2511 C381.7741,91.4431 384.8541,87.7111 388.3261,87.9391 C389.383946,88.0092538 390.367662,89.0396917 391.422755,89.2874696 L391.6884,89.3317 L391.6884,89.3317 C393.073977,89.1836231 394.431817,88.1035935 395.742363,89.1115319 L395.8991,89.2431 L395.8991,89.2431 C400.715561,89.3827152 405.525083,89.4484966 410.318599,89.6889027 L410.1063,89.7796 C411.8333,89.0036 413.5573,89.1316 415.2803,89.7906 L412.043359,89.7837769 L412.043359,89.7837769 C415.770072,90.0058587 419.486396,90.3520745 423.1881,90.9391 C439.239201,93.4850956 457.969009,94.8230613 473.286422,101.225176 C473.21681,101.148878 473.148778,101.068869 473.0816,100.9867 C474.4466,100.6967 475.4816,101.2307 476.3076,102.2847 C476.16188,102.32748 476.020877,102.358574 475.88425,102.378819 C477.62442,103.194082 479.312712,104.085178 480.9401,105.0601 C483.4131,99.7461 478.7921,101.3481 474.4961,99.3641 C469.7501,97.1731 466.0101,94.4351 462.4621,90.7031 C459.4291,87.5131 456.8331,83.5321 457.8921,78.7791 C458.4401,76.3211 461.1791,75.3441 461.6661,73.5431 C461.8321,72.9301 460.1531,70.8871 460.0841,70.0071 C459.929023,68.0631 459.912834,66.5383189 460.292726,64.6847695 L460.5504,63.5318263 C462.821345,53.1249104 462.053616,40.1111108 473.7251,35.6981 C476.3071,34.7231 476.2511,35.8081 478.1691,33.7771 C480.0251,31.8131 480.7161,28.5521 482.8391,26.4331 C486.8971,22.3811 491.9691,19.2231 497.5881,17.9771 C503.4791,16.6701 508.4691,18.6971 514.1331,18.4981 C520.2771,18.2821 524.8631,15.9191 531.2861,17.5991 Z M827.0641,657.9131 C822.8581,661.3411 818.5121,664.7151 814.1531,667.9451 C804.1811,675.3371 794.8921,683.4241 785.4451,691.4731 C776.8971,698.7541 767.7451,705.2761 758.8461,712.1091 C750.3881,718.6021 742.8601,726.2591 734.9461,733.4161 L735.56676,733.783812 C740.549575,736.772906 745.95522,740.80986 751.9341,739.4361 C756.9891,738.2731 762.9581,733.8761 767.3181,731.0201 C777.151881,724.580819 785.425914,715.777515 793.643023,707.44037 L794.4381,706.6351 C802.7521,698.2321 810.6941,690.0261 818.5431,681.3081 C827.3671,671.5061 833.6081,662.1641 839.5151,650.4191 C835.0171,647.4341 830.0801,655.4561 827.0641,657.9131 Z M751.6281,681.5791 C745.6981,683.5011 739.5521,684.3431 733.6411,686.1611 C728.4981,687.7431 724.0931,692.7321 720.8521,696.8761 C718.7241,699.5971 717.3291,702.7991 715.4251,705.7301 C714.3481,707.3891 710.2341,711.2911 710.284169,712.9121 C710.3511,715.0051 716.4001,720.2541 717.8241,721.8621 C720.4611,724.8401 723.1731,727.7511 725.9331,730.6151 C729.9881,722.0881 739.6881,714.9301 746.9291,709.0821 C754.4401,703.0131 762.3201,697.0061 770.0991,690.9971 C787.2751,677.7251 803.4451,664.6261 821.9951,653.1431 C820.8791,650.4631 758.5251,679.3421 751.6281,681.5791 Z M722.9201,676.5761 L722.26721,677.375621 C716.619892,684.204862 708.592666,691.88776 706.8221,700.7531 C710.3901,696.6381 713.5441,692.1151 716.9961,687.8961 C718.31035,686.29135 719.671303,684.838959 721.121164,683.384846 L721.7481,682.7611 C724.8381,679.7071 725.8191,679.9811 722.9201,676.5761 Z M577.0751,287.3121 C566.271743,288.120833 555.35728,289.973253 544.689268,292.27101 L543.161701,292.603637 L543.161701,292.603637 C540.469547,293.194981 537.792989,293.813544 535.1391,294.4491 C508.993867,300.709756 483.010965,313.17715 464.133711,332.58333 L463.5,333.2403 C462.62,334.6373 460.571,336.5903 460.979,338.4703 C459.700075,337.666513 459.296286,336.973422 459.423282,336.347999 C459.244189,336.607341 459.08541,336.88855 458.9501,337.1951 C464.3001,340.5571 467.7181,348.2781 471.2511,353.4901 C475.2351,359.3661 479.6961,364.8901 483.5111,370.8911 C491.8021,383.9361 499.7531,397.4091 507.2041,410.9551 C520.0991,434.3991 535.9771,456.6511 550.1601,479.3391 C564.3191,501.9911 577.8291,524.3141 591.9831,546.9351 C607.0511,571.0151 624.3361,593.7031 639.9011,617.1781 C649.1821,631.1751 659.7821,644.3051 669.2901,658.1701 C678.2871,671.2921 687.1571,684.4141 696.3221,697.4181 C701.1561,683.8421 710.5801,672.1841 723.6021,665.3161 C705.8691,640.1471 688.8991,614.6421 673.2881,588.0751 C660.51155,566.3315 649.16817,544.522017 637.358017,522.532622 L635.4891,519.0591 C623.1861,496.2361 611.0461,473.3911 598.6121,450.5861 C592.4021,439.1961 587.1721,427.2291 581.8441,415.3291 C576.1761,402.6681 573.7941,388.5681 567.6571,376.1451 L567.013244,374.856123 C564.243127,369.355893 560.930051,363.140734 561.2841,356.9041 C561.6441,350.5581 566.0531,344.0811 569.4431,338.9671 L569.670049,338.615239 C571.738057,335.329531 575.465718,327.492609 579.4571,327.4531 C586.85735,327.37984 578.250607,342.341314 576.942482,345.555329 L576.9051,345.6491 C571.5171,359.4871 579.0171,371.4521 584.6571,383.8481 C590.1641,395.9541 594.5431,408.6561 600.4031,420.6191 C602.8631,425.6411 605.3611,430.5431 607.6001,435.6381 L607.984124,436.548722 C608.945287,438.864156 610.763911,443.254397 612.4651,443.7491 C613.5901,444.0761 619.1701,440.4651 620.0301,439.9161 C624.3971,437.1311 630.3491,432.2901 632.9701,427.7801 C635.5641,423.3161 634.5121,415.6971 633.3221,410.9231 C629.966786,397.4523 623.007582,384.620367 617.371814,371.973529 L612.611448,361.190367 C607.97609,350.68584 603.363159,340.080629 599.4081,329.3801 C596.6131,321.8201 594.0971,314.1921 591.0411,306.7251 C589.594433,303.1876 588.091517,299.673711 586.513253,296.193271 L585.181168,293.288005 C583.067936,288.620233 582.605082,286.897564 577.0751,287.3121 Z M376.733213,452.254389 L375.955058,452.634952 C370.989594,455.090481 369.610952,456.592989 368.5411,462.2841 C367.451211,468.084878 367.846461,473.813406 367.359647,479.633113 L367.2641,480.6611 C366.2761,490.2571 365.0581,499.8511 364.4711,509.3351 C363.716341,521.50547 368.079626,532.88015 373.335663,543.525322 L373.6341,544.1271 C376.0051,548.8891 378.4221,553.5161 382.0191,557.5041 C383.67585,559.34085 385.530038,560.968912 387.423459,562.550287 L389.3241,564.1221 C392.5331,566.7651 393.0221,568.3971 395.1161,564.8151 C397.6891,560.4111 395.6371,553.2641 394.9071,548.5131 C393.7571,541.0221 393.1601,533.8741 393.2541,526.2651 C393.484992,523.519948 393.662359,520.771396 393.822999,518.021927 L393.941311,515.952691 C394.413378,507.554347 394.815519,499.15325 396.1961,490.8201 C396.6931,487.8241 397.2931,484.8411 398.0371,481.8971 C398.7151,479.2101 401.4711,474.3351 401.2501,471.6991 C401.0271,469.0401 396.8881,464.0781 396.1071,459.6581 C395.7048,457.3775 395.66052,454.97378 395.552898,452.648873 L395.5141,451.8771 C395.3081,448.1661 396.1961,447.2671 392.9841,446.2341 C389.216193,445.02197 380.180929,450.543349 376.733213,452.254389 L376.733213,452.254389 Z M320.2865,423.2896 C318.8275,427.7196 312.8945,432.1296 309.8285,435.4306 C301.4575,444.4456 294.9755,453.6066 288.4055,463.9256 C277.8635,480.4796 268.2555,499.7696 263.8555,519.1436 C252.74374,522.21458 256.460893,499.61184 258.031578,494.823212 L258.0785,494.6836 C261.8605,483.7166 266.2695,472.9376 272.0075,462.8516 C277.2705,453.6016 284.4575,443.5796 291.8085,435.8716 L295.233999,432.264306 C297.132186,430.276431 299.112891,428.249116 301.024979,426.484449 L304.152256,423.641485 C307.429562,420.677489 312.028389,416.724822 314.8735,416.2566 C319.1445,415.5536 321.7685,418.7896 320.2865,423.2896 Z M720.541028,354.31382 L721.2386,355.6241 C727.642067,367.502144 730.837988,382.110666 733.182069,395.385137 L733.3406,396.2881 C735.4786,408.5301 737.1726,421.9021 736.8496,434.3321 C737.168601,436.465944 737.296739,438.610023 737.324627,440.75949 L737.3913,437.96 L737.3913,437.96 C738.03612,439.529912 738.114339,441.083499 737.327626,442.615113 C737.293528,445.747641 737.103981,448.888107 737.0366,452.0221 C736.9386,456.5541 737.9016,465.8121 734.8106,469.7101 C730.0976,475.6551 728.6896,464.9961 728.3966,462.0821 C727.6646,454.7901 727.5596,447.4111 726.9826,440.1031 L726.684278,436.426415 C724.663776,412.213756 721.295085,385.938199 712.262772,363.462622 L711.7986,362.3231 C710.8636,360.0591 709.3926,355.2091 707.5966,353.6051 C706.3246,352.4701 705.3476,353.7151 703.8826,351.7311 C702.3546,349.6631 700.1906,337.6211 702.8266,335.2871 C707.9096,330.78462 717.305008,348.220828 720.541028,354.31382 L720.541028,354.31382 Z M272.7,415.2964 C280.54,420.7624 251.764,434.0964 247.906,436.5454 C241.009,440.9234 234.135,445.1704 227.394,449.7994 C220.313,454.6614 213.612,460.4854 206.332,464.9204 C197.48172,454.50066 221.388874,439.471451 229.634333,434.921995 L230.353,434.5304 C237.479588,430.698871 244.282855,426.368628 251.617348,422.994491 L252.999,422.3734 C256.76,420.7234 268.725,412.5244 272.7,415.2964 Z M495.8231,419.2471 C494.2791,419.4871 491.2951,421.3531 489.8011,421.8781 C475.0911,427.0551 458.1201,429.5071 444.5641,436.8531 C435.4101,436.9431 425.7541,442.4101 416.9771,444.9331 C413.4911,445.9351 406.5101,446.9281 403.5801,448.9221 C400.2971,451.1571 401.8641,460.3841 401.8641,464.4601 C407.5751,459.1081 414.2741,460.2041 421.8311,459.8821 C432.4601,459.4301 443.0201,458.3811 453.5921,457.7731 C464.2435,457.16035 474.664763,455.559362 485.339447,455.43852 L487.0271,455.4321 C498.1221,455.4761 508.9781,453.1591 519.9021,455.2951 C517.9971,447.8131 511.1431,439.8011 506.9761,433.4011 C504.4101,429.4601 502.5241,424.4421 499.6071,420.7891 C497.3911,418.0131 498.9521,418.7581 495.8231,419.2471 Z M421.2009,459.8682 L417.4219,459.9302 C418.6659,458.9202 419.9299,459.1562 421.2009,459.8682 Z M755.98124,368.992885 L756.677577,370.981996 C761.818127,385.723495 766.420251,400.193133 766.7387,416.0235 L766.774799,418.042486 C766.856379,423.701043 766.743589,431.349833 764.5907,436.0325 C760.5607,444.7985 756.9327,437.0425 757.0947,431.0245 C755.7697,415.8945 753.9647,400.6675 750.6977,385.8145 C749.1787,378.9065 745.8237,370.1775 747.0347,363.0175 C748.80086,352.59478 754.698142,365.413171 755.98124,368.992885 L755.98124,368.992885 Z M790.8492,397.9788 L791.141101,398.772591 C792.910629,403.747039 795.458736,413.814639 792.7122,418.1048 C788.8392,424.1538 785.9412,417.3748 784.8082,413.0308 C783.0262,406.1918 783.1552,399.0848 780.5762,392.4678 C784.5112,384.0888 788.6282,392.1438 790.8492,397.9788 Z M239.0195,391.545 C239.0195,396.382 231.6405,397.864 227.6525,399.866 C224.7155,401.34 221.2725,405.645 219.3945,402.212 C216.2395,396.441 235.1395,391.545 239.0195,391.545 Z M392.9891,97.4311 C396.3581,107.4381 398.8111,118.9171 397.3901,129.5331 C396.6591,134.9891 394.6361,140.3281 392.8081,145.4981 C391.6801,148.6901 386.9261,156.3261 388.2001,159.7911 C393.4481,158.7011 402.0741,160.5201 406.3231,157.5981 C411.1541,154.2761 410.7151,147.3371 418.3311,146.8731 C430.0181,146.1611 439.4321,156.5371 440.2481,168.1601 C440.6701,174.1761 436.2411,180.5361 431.7411,184.0891 C429.457806,185.892394 427.283467,186.536159 424.812901,187.606938 L424.3461,187.8131 C422.575795,188.610388 422.055779,188.575529 421.938892,188.534682 L421.960013,188.572192 C422.031363,188.725242 422.083931,189.252168 421.3721,190.8801 C420.4111,193.0791 420.6861,196.5641 420.4021,198.9141 C419.9861,202.3591 418.6041,206.6611 419.0581,210.0551 L419.228583,211.336317 C419.575969,213.784093 419.910251,213.927006 423.3481,212.7961 C426.7621,211.67335 430.900038,207.851162 434.198022,204.580084 L437.1581,201.6131 C440.5111,198.2881 443.8311,191.1581 448.6491,196.8641 C452.3441,201.2401 452.3361,212.2231 451.7711,217.6491 C450.489895,229.971532 436.744177,240.066759 426.740739,246.109137 L426.0491,246.5241 C418.9641,250.7461 419.9801,253.5121 420.4261,261.4811 C420.759331,267.448792 421.650668,273.45994 422.461452,279.393419 L422.6621,280.8751 C423.7011,288.6241 426.1891,288.7431 429.9921,282.9961 L430.818234,281.755994 C433.767295,277.385496 438.22607,271.61804 443.9191,273.9151 C450.021667,276.377367 449.607995,284.203274 450.913212,289.468616 L450.9811,289.7341 C452.9261,297.1011 452.3011,302.6451 446.0351,308.0291 C443.1901,310.4741 434.0211,314.4531 433.2411,318.4171 C432.8621,320.3441 437.3091,326.3731 438.3701,328.4331 C440.5861,332.7371 442.9081,336.9841 445.7911,340.8871 C446.74232,334.491002 452.226079,329.045767 455.824828,323.930162 L456.0911,323.5471 C460.274686,317.452755 465.357868,313.101668 471.297442,308.688283 L471.9371,308.2151 C474.2141,306.5401 479.9551,304.2891 477.2661,301.3801 C474.9321,298.8531 472.5021,300.7201 470.1891,296.6691 C466.577373,290.343918 465.84922,280.419695 465.519946,272.907922 L465.41965,270.432355 C465.168829,263.676869 465.102225,254.639267 468.9921,248.9621 C473.9331,241.7501 478.8821,241.4751 486.2881,244.5481 C491.961063,246.902674 494.985898,255.931995 498.018422,261.529021 L498.1901,261.8421 C503.4181,271.2541 503.5221,279.2491 503.5221,289.6621 C508.884933,286.633767 514.745541,285.390808 520.535355,283.644871 L521.2901,283.4141 C525.4551,282.1211 532.8011,281.2831 535.9851,278.1671 C532.5681,276.2841 530.7441,272.1921 531.4541,268.3301 C532.6181,262.0011 535.8671,264.7551 540.6861,263.9181 C542.8461,263.5431 544.4091,261.9121 546.5821,261.6001 C548.668038,261.301975 550.899873,262.062053 552.993337,262.440027 L553.4101,262.5101 C558.8611,263.3531 564.1711,264.6381 569.5841,265.5391 C566.5691,261.5181 563.5271,256.0451 558.6761,254.5291 C552.8301,252.7011 545.7991,252.4061 539.6921,250.8801 C531.8171,248.9131 518.2411,236.4221 529.7731,228.7081 C534.1311,225.7921 539.8591,229.4891 543.9861,225.5801 C547.8981,221.8741 546.7431,214.1711 547.7921,209.1801 C550.2111,197.6781 557.0811,187.2841 568.2611,182.8461 C572.045946,186.885638 561.457548,196.774266 559.760662,201.033047 L559.6991,201.1961 C558.8171,203.6771 558.1421,203.4031 559.0521,205.4621 C559.6831,206.8941 562.7781,208.5131 564.1171,209.6081 L565.237691,210.524007 C568.230569,212.961878 571.277878,215.3361 574.7961,216.9921 L574.75645,216.455808 C574.410202,211.408029 574.783824,205.234445 580.3201,203.0601 C585.2461,201.1241 591.5601,206.2081 593.1941,210.7461 L593.87852,209.742518 C595.592194,207.189787 597.977225,203.282475 597.9781,200.5971 C599.5581,198.3141 598.9021,197.1441 596.0081,197.0871 C594.7851,196.5791 593.5391,196.1391 592.2701,195.7661 L591.589754,195.494474 C586.541029,193.443158 582.71827,191.030738 581.0571,185.3301 C579.7611,180.8831 579.4741,176.2171 577.9521,171.8231 C578.7421,169.5391 577.9321,168.1091 575.5221,167.5331 L573.2671,165.9111 L573.2671,165.9111 C570.7781,164.0811 568.2141,162.1591 565.8981,160.1131 C564.0751,158.5011 562.3751,155.1591 560.5371,153.9201 C560.1251,153.0591 559.5651,152.3021 558.8591,151.6511 C557.2301,152.6531 555.5961,153.6451 553.9551,154.6281 L552.769095,155.348019 C547.509796,158.512646 542.373333,161.145356 535.9631,160.6421 C530.5831,160.2191 522.6111,158.3781 517.5941,156.3761 C512.1141,154.1891 508.3451,147.9671 504.9641,143.4311 C495.7261,150.3221 488.0581,146.6271 484.6411,135.9351 C483.1161,131.1651 482.2601,126.1091 481.8271,121.1281 C481.4741,117.0571 482.6871,113.4521 479.5681,111.2341 C475.6741,108.4641 467.1231,108.3061 462.5261,107.5681 L461.391474,107.378774 C456.607683,106.555889 451.158026,105.368063 446.4071,106.0801 L446.795949,107.520788 C449.004045,115.624686 451.651283,124.664396 445.6411,131.1181 L444.031576,132.836622 C438.746287,138.404645 435.452944,140.677078 427.9791,134.0041 C421.7051,128.4011 416.5341,120.7481 411.9511,113.7231 C409.5481,110.0391 408.4791,105.2361 406.0491,101.7451 C403.2521,97.7271 397.6931,98.1521 392.9891,97.4311 Z M385.0601,99.1444236 C383.152517,99.1084848 378.847621,99.8834793 376.55435,100.330249 L375.9821,100.4431 C370.3721,101.5651 364.7971,102.4771 358.9201,103.4151 C346.941918,105.3251 335.017455,107.748323 323.094871,109.940968 L319.5181,110.5911 C307.4851,112.7501 294.1341,115.6981 282.6951,120.2781 L279.441923,121.581686 C268.084246,126.140733 257.02197,130.7021 246.1531,136.4981 C234.2161,142.8631 223.9661,151.1581 212.5551,158.1811 C191.1641,171.3451 169.5151,184.8831 148.5351,198.8611 C135.1921,207.7501 120.9561,215.4461 108.0161,224.8351 C102.0158,229.1884 96.15887,233.71828 90.417608,238.40287 L88.5081,239.9701 C83.8341,243.8271 75.3511,249.1421 74.1081,255.5861 C80.3721,255.5861 88.8471,244.6391 93.9541,241.2131 C97.6731,238.7181 101.8361,236.7021 105.7011,234.4301 C107.9191,233.1261 115.0071,226.3351 117.4191,226.3001 C120.8981,226.2491 121.4071,231.2201 120.5401,233.4671 C119.4161,236.3791 116.1031,238.7701 113.9021,240.8561 C106.7271,247.6571 100.7761,256.6071 96.0051,265.2531 C104.618581,262.084878 111.789031,251.820944 117.951363,245.024056 L118.512992,244.413895 C122.26396,240.448272 138.42514,225.87624 137.2511,240.2401 C136.8081,245.6631 132.8951,249.8081 130.1671,254.2931 L128.390788,257.21254 C126.01962,261.1175 123.6601,265.0743 121.5841,269.1111 C116.3131,279.3571 112.3301,289.8971 109.1831,301.0031 C114.6411,298.8531 116.0681,292.8401 118.6151,288.1341 C121.2081,283.3431 124.2411,278.7131 127.1531,274.1131 C132.945913,264.961225 138.025932,255.365502 144.044404,246.35178 L145.427216,244.312158 C148.31241,240.005499 159.52214,220.9562 164.0811,223.7051 C167.2141,225.5931 168.1411,234.4781 169.0811,237.5971 C170.5691,242.5311 172.8611,247.7011 177.8181,249.9361 C178.0451,239.8581 177.6991,229.7931 177.8601,219.7411 C177.983529,212.112636 181.967682,209.740596 187.093952,204.629659 L187.6681,204.0501 C200.1891,191.2451 216.1991,182.9851 231.0601,173.3271 C237.6741,169.0291 243.7971,163.4361 251.1021,159.8571 C259.3171,155.8331 267.2981,151.1901 275.3201,146.6821 C292.163036,137.218537 311.06077,133.635114 330.2216,135.369952 L331.0991,135.4531 L331.0991,135.4531 C349.5431,132.8681 370.2241,136.4421 387.2021,143.6081 C390.849581,131.033658 392.25293,117.812813 389.53476,104.894636 L388.987355,102.366108 C388.447021,99.937803 388.030709,99.207164 385.0601,99.1444236 Z M921.8881,78.3331 C916.5251,83.1891 909.5071,87.2171 903.5841,91.2651 C898.1451,94.9821 893.0841,99.2121 887.7121,102.9271 C873.7561,112.5791 861.0051,123.9931 847.4821,134.3531 C822.0841,153.8111 795.6151,171.3701 766.5551,184.9361 C753.6591,190.955865 740.412318,196.242176 727.16241,201.411143 L724.6781,202.3791 C710.9591,207.7181 698.0281,215.0251 682.8671,215.0791 L677.253267,215.108385 C671.213281,215.127755 665.04929,215.037052 659.1651,214.1441 C650.8381,212.8791 642.1531,207.8931 634.5631,204.3861 C630.9951,202.7371 627.3531,201.1651 623.9211,199.2471 C620.7661,197.4841 616.5101,192.9731 613.1751,192.3901 C605.6411,191.0731 604.8701,206.5451 602.9221,211.9481 C602.2601,213.7851 600.0181,216.9871 599.9931,218.7911 L599.972317,219.564989 C599.885168,221.797114 599.707249,220.752375 602.077173,222.376691 L602.4521,222.6411 C605.542924,224.880159 609.752529,226.725917 613.277609,228.496849 L613.9301,228.8281 C620.8291,232.3701 628.1901,235.5291 635.2981,238.4731 C642.9121,241.6271 650.2711,243.7081 658.5121,244.6011 C662.069477,244.986592 665.427289,245.089686 668.793141,245.11507 L669.016406,245.020293 C670.390947,244.452825 671.76885,244.125117 673.1686,245.1032 L672.036891,245.12227 L674.517161,245.120572 C676.183344,245.12189 677.878798,245.131984 679.6271,245.1741 L675.7002,245.0791 L675.7002,245.0791 C677.0252,244.4501 678.3392,244.3181 679.6282,245.1741 C698.550207,243.090311 715.203078,232.365871 732.933221,226.39343 L733.8841,226.0781 C752.3181,220.0621 771.4571,211.4161 788.9681,202.3461 L801.447522,195.872522 C812.904323,189.939526 824.423869,184.051314 836.130616,178.552009 L839.3281,177.0621 C849.1261,172.5341 859.5431,163.1561 870.7501,166.7001 C875.9181,168.3341 880.5341,171.5241 885.8911,172.6321 C892.0551,173.9061 898.0341,174.1241 904.1331,175.9541 C903.7511,173.1191 895.7121,168.8631 893.8511,165.9211 C892.6101,163.9581 892.4341,161.7281 891.4031,159.7911 C890.4611,158.0201 889.0041,157.8701 888.6371,155.7821 C887.256196,147.934859 899.822061,139.719996 905.079358,135.161052 L905.4551,134.8301 C921.4091,120.5281 940.1621,109.1081 956.0571,94.4121 C946.4811,94.4121 934.9161,106.6481 927.7481,112.2351 L925.121368,114.283301 C921.6194,117.009132 918.107574,119.702745 914.451256,122.222583 L912.858341,123.306312 C911.116397,124.519793 905.1453,129.011478 903.4511,128.4821 C898.4781,126.9301 903.2151,118.2531 905.0161,116.3111 C908.5401,112.5081 913.2901,109.4511 917.3381,106.2381 C925.8581,99.4741 933.6411,92.2611 940.8651,83.9591 C933.7371,84.3861 923.9141,96.1701 918.8731,100.8481 L916.280218,103.251046 C911.179725,107.944907 904.99895,113.2974 898.9121,115.5771 L898.501401,115.726231 C895.077828,116.927648 893.368647,116.413817 893.1021,112.0971 C892.793948,107.093296 896.598,104.406375 899.985906,101.455261 L901.005007,100.56396 C907.893203,94.5786789 918.218987,86.4517226 921.8881,78.3331 Z M515.1455,209.9781 C516.0985,218.4051 509.8835,228.8331 500.5635,229.1811 C490.892847,229.540384 490.044449,218.563067 490.324746,211.408303 L490.383141,210.062861 C490.502292,206.634816 490.2345,204.493806 492.7145,202.0091 C493.8075,200.9151 496.4585,200.4461 497.7565,199.3911 C499.4275,198.0321 500.5525,196.0531 502.1945,194.6381 C510.6545,187.3451 516.1535,203.2191 515.1455,209.9781 Z M477.5107,151.7664 C480.7347,153.7714 484.2527,158.9144 485.7957,162.2334 C488.5347,168.1224 490.6887,173.7554 492.0557,180.0874 L491.959393,180.508758 C490.28742,187.598923 483.77436,204.66774 473.5167,200.5194 C463.014833,196.272833 462.408733,183.24062 462.33643,173.95419 L462.330245,173.0074 C462.2967,166.2174 466.0417,144.6334 477.5107,151.7664 Z M548.7061,183.1031 C548.8661,189.2961 540.8661,196.0491 535.9561,198.6681 C528.044661,202.88859 526.382703,192.461645 526.866459,186.642581 L526.8821,186.4641 C527.4771,180.0031 530.0731,176.4271 536.0221,173.6791 C544.8561,169.5981 546.8631,175.6091 548.7061,183.1031 Z M531.0781,84.2821 C528.27337,85.1712892 524.125525,90.3153177 521.767259,92.7953406 L521.3811,93.1931 C519.9791,94.6001 517.5751,98.9161 515.5761,99.1651 C512.6031,99.5361 512.8751,98.1321 510.8541,95.7121 C503.2411,86.5911 495.1891,86.6241 490.8171,97.6931 C493.3651,98.9561 496.0621,99.1871 498.8501,99.0901 C499.7961,99.0581 503.4331,97.9711 504.1331,98.4341 C508.0921,101.0571 502.2931,103.3241 501.4971,104.6681 C500.89295,105.687912 500.598384,106.595026 500.36225,107.40775 L500.3184,106.4927 L500.3184,106.4927 L500.360497,107.413786 L500.124749,108.228089 C499.652931,109.79126 499.052255,110.971076 496.0381,111.9341 C492.5921,113.0351 489.6991,112.0721 486.2721,110.9941 L486.340093,112.143394 C486.719307,119.033809 486.946627,130.067327 491.413652,135.305404 L491.6758,135.6006 L495.6748,137.4296 L495.6748,137.4296 C495.492572,137.443978 495.312752,137.453124 495.135872,137.455872 C497.42733,137.499805 500.155776,136.475417 501.7831,136.1291 L501.696002,135.740163 C500.811622,131.977572 497.309921,121.32435 498.9791,118.9821 C502.2551,114.3891 503.6901,121.2341 504.5061,124.3301 C506.426139,131.618174 510.609822,141.191627 517.194376,145.770875 C517.12886,145.668611 517.068307,145.557044 517.0127,145.4361 L517.923121,145.586938 C519.194954,145.803841 520.412892,146.125023 521.0437,147.5611 C520.762115,147.443823 520.463829,147.358068 520.160391,147.281966 L519.5521,147.1371 L520.497026,147.57432 C526.926573,150.51486 537.819148,154.769874 543.7791,151.6581 C552.4431,147.1341 559.4311,139.6411 566.7441,133.3611 C561.7041,130.8711 561.0161,127.0091 564.9321,122.9631 C573.2381,131.8661 578.3191,112.7631 580.9891,106.9351 C575.8781,106.4841 571.2951,109.5591 566.0671,108.5121 C561.8091,107.6591 556.6731,106.1601 553.0231,103.7651 C548.1471,100.5641 543.8731,95.9431 539.6841,91.9411 C537.1761,89.5451 533.7711,83.4271 531.0781,84.2821 Z M377.6711,148.0411 L378.3701,150.9161 L378.3701,150.9161 L378.746051,150.201505 C379.74416,148.27771 379.5557,148.2562 377.6711,148.0411 Z M538.4541,146.4488 L538.189007,146.417009 C535.771449,146.106547 528.375369,144.661762 533.4571,142.3858 C536.1551,141.1768 538.7091,143.9698 538.4541,146.4488 Z M563.14,116.8578 C564.289,119.5608 559.707,124.4038 558.421,126.7268 C556.406,130.3678 552.894,145.5918 547.209,144.0498 C540.958,144.0338 541.993,138.0798 545.429,135.1808 C546.627,134.1698 547.939,134.1218 549.127,132.8328 C550.159,131.7128 550.799,129.4678 551.486,128.0968 L551.942213,127.169306 C553.456,124.042139 554.933273,120.6028 557.356,118.1428 L558.208507,117.284885 C560.079207,115.442559 561.938792,114.035309 563.14,116.8578 Z M532.9238,113.2266 C535.9578,113.5806 533.9788,115.0296 535.5358,116.3206 C536.577675,117.184037 536.738788,117.610756 536.651495,117.806597 L536.63885,117.82882 L536.716123,117.824171 C537.074228,117.803757 537.690011,117.812008 538.704663,117.894884 L539.2018,117.9386 C542.0888,118.2086 550.9688,115.6196 545.3258,121.3296 C544.0978,122.5726 536.7098,126.0456 535.0648,125.2526 C531.3958,123.4856 532.9528,116.2906 532.9238,113.2266 Z" id="Ink" fill="#000"/></g></g></g></svg>