<svg viewBox="200 160 1120 879.9999999999997" fill="none" xmlns="http://www.w3.org/2000/svg" xmlns:xlink="http://www.w3.org/1999/xlink" overflow="visible" width="1120px" height="879.9999999999997px"><g id="Master/Close Ups/Selfie"><g id="Master/Character/Bust" transform="matrix(-1 0 0 1 1600 0) scale(1 1)"><g id="Master/Character/Bust"><g id="Bodies" transform="translate(290 534) scale(1 1)"><g id="Bodies/Green A"><g id="Patterns"><path id="Mask" fill-rule="evenodd" clip-rule="evenodd" d="M87.3758 98.6254C55.2838 135.268 40.9068 187.81 65.1858 229.117C83.7298 260.665 119.85 280.63 156.81 292.928C212.938 311.603 276.392 315.647 332.303 296.443C388.213 277.238 434.854 232.727 445.139 179.222C453.22 137.183 446.599 85.9854 387.998 55.3514C342.94 31.7974 163.736 11.4374 87.3758 98.6254" fill="#21BFCA"/><mask id="mask0763ec776-7962-498f-a5cd-04f642514c46" mask-type="alpha" maskUnits="userSpaceOnUse" x="53" y="35" width="395" height="275" fill="#ffffff"><path id="Mask_2" fill-rule="evenodd" clip-rule="evenodd" d="M87.3758 98.6254C55.2838 135.268 40.9068 187.81 65.1858 229.117C83.7298 260.665 119.85 280.63 156.81 292.928C212.938 311.603 276.392 315.647 332.303 296.443C388.213 277.238 434.854 232.727 445.139 179.222C453.22 137.183 446.599 85.9854 387.998 55.3514C342.94 31.7974 163.736 11.4374 87.3758 98.6254" fill="#ffffff"/></mask><g mask="url(#mask0763ec776-7962-498f-a5cd-04f642514c46)"><g id="Patterns_2"><g id="Group"><path id="Path 23" fill-rule="evenodd" clip-rule="evenodd" d="M371.634 107.342L372.933 106.95C384.424 103.562 393.874 104.658 402.999 111.08C407.5 114.248 411.929 118.739 416.4 124.7C428.158 140.376 427.443 162.249 415.414 180.03C402.715 198.803 380.2 209.31 353.947 206.497C327.937 203.71 312.948 189.778 311.252 170.419C309.701 152.713 319.935 133.964 336.756 124.564C357.449 113 363.532 109.853 371.634 107.342ZM415.6 125.3C411.189 119.418 406.832 115.001 402.423 111.898C393.564 105.662 384.429 104.603 373.215 107.909C365.388 110.217 360.089 112.746 343.289 122.068L337.244 125.436C320.762 134.647 310.732 153.023 312.248 170.331C313.901 189.194 328.5 202.765 354.054 205.503C379.938 208.276 402.094 197.937 414.586 179.47C426.387 162.025 427.087 140.615 415.6 125.3Z" fill="white"/><path id="Path 23_2" fill-rule="evenodd" clip-rule="evenodd" d="M348.681 86.7976C359.439 81.5461 368.326 77.9219 376.527 75.5859C395.995 70.0401 411.974 71.8307 427.419 82.3337C435.052 87.5252 442.57 94.8901 450.164 104.673C470.099 130.355 468.887 166.206 448.476 195.359C426.92 226.148 388.704 243.38 344.128 238.765C299.994 234.196 274.602 211.39 271.728 179.691C269.098 150.679 286.459 119.945 314.99 104.54C334.616 93.9431 338.677 91.7585 344.462 88.8787L348.681 86.7976ZM449.374 105.286C441.841 95.5812 434.397 88.2887 426.856 83.1606C411.673 72.8351 395.999 71.0787 376.801 76.5476C368.439 78.9297 359.337 82.67 348.222 88.1364C343.42 90.4976 340.914 91.7523 334.927 94.9429L315.466 105.42C287.279 120.639 270.131 150.996 272.724 179.601C275.552 210.797 300.55 233.248 344.231 237.77C388.448 242.348 426.31 225.276 447.657 194.786C467.828 165.974 469.025 130.602 449.374 105.286Z" fill="white"/><path id="Path 23_3" fill-rule="evenodd" clip-rule="evenodd" d="M369.81 128.854L370.823 128.562C377.601 126.667 383.192 127.282 388.585 130.881C391.24 132.653 393.849 135.161 396.479 138.487C403.429 147.274 403.007 159.531 395.909 169.48C388.43 179.964 375.179 185.828 359.74 184.259C344.422 182.703 335.562 174.894 334.559 164.032C333.642 154.107 339.682 143.613 349.605 138.355C361.521 132.041 365.171 130.242 369.81 128.854ZM395.695 139.107C393.126 135.859 390.591 133.422 388.03 131.713C382.895 128.286 377.605 127.704 371.092 129.525L370.89 129.582C366.601 130.796 363.523 132.172 354.671 136.813L350.073 139.239C340.498 144.313 334.676 154.428 335.555 163.94C336.511 174.295 344.973 181.754 359.841 183.264C374.925 184.797 387.826 179.088 395.095 168.9C401.947 159.295 402.353 147.525 395.695 139.107Z" fill="white"/><path id="Path 23_4" fill-rule="evenodd" clip-rule="evenodd" d="M368.991 144.08L369.491 143.966C373.224 143.146 376.311 143.413 379.295 144.978C380.764 145.748 382.206 146.838 383.658 148.28C387.571 152.167 387.332 157.619 383.357 161.997C379.225 166.547 371.94 169.08 363.468 168.404C355.023 167.73 350.087 164.312 349.52 159.488C349.002 155.078 352.38 150.466 357.887 148.173C364.445 145.443 366.422 144.679 368.991 144.08ZM382.954 148.99C381.569 147.615 380.206 146.585 378.83 145.863C376.072 144.417 373.223 144.171 369.706 144.943C367.394 145.451 365.772 146.007 361.218 147.877L358.272 149.097C353.144 151.231 350.052 155.452 350.513 159.372C351.015 163.642 355.528 166.767 363.548 167.407C371.725 168.06 378.704 165.633 382.617 161.324C386.251 157.322 386.463 152.476 382.954 148.99Z" fill="white"/><path id="Path 24" fill-rule="evenodd" clip-rule="evenodd" d="M171.877 6.66685C210.625 -36.6871 262.904 -72.4906 302.902 -80.4902C342.108 -88.3315 370.017 -78.2215 384.301 -54.886C396.522 -34.9218 396.988 -6.91214 386.451 15.215C373.059 43.3383 336.652 72.7317 277.16 103.474C219.701 122.849 174.557 122.849 141.745 103.43C118.532 89.6916 132.481 50.7465 171.877 6.66685ZM385.549 14.7851C395.945 -7.048 395.485 -34.7004 383.449 -54.3639C369.398 -77.3179 341.916 -87.2732 303.098 -79.5097C263.346 -71.5591 211.239 -35.8737 172.623 7.33324C133.618 50.9752 119.881 89.3279 142.255 102.57C174.777 121.817 219.632 121.817 276.77 102.556C336.015 71.9351 372.274 42.6618 385.549 14.7851Z" fill="white"/><path id="Path 24_2" fill-rule="evenodd" clip-rule="evenodd" d="M196.022 9.18493C224.383 -23.766 262.648 -50.9781 291.943 -57.0619C320.68 -63.0299 341.157 -55.3273 351.635 -37.5519C360.594 -22.3547 360.935 -1.04265 353.213 15.7962C343.404 37.1876 316.752 59.5305 273.19 82.9027C231.122 97.633 198.055 97.633 174.011 82.8568C156.933 72.3617 167.158 42.7192 196.022 9.18493ZM352.304 15.3793C359.895 -1.17317 359.559 -22.1409 350.774 -37.0441C340.525 -54.4293 320.484 -61.968 292.146 -56.0828C263.103 -50.0512 225.01 -22.9617 196.779 9.83728C168.292 42.9346 158.264 72.006 174.534 82.0048C198.282 96.599 231.049 96.599 272.789 81.9902C316.104 58.7435 342.608 36.5244 352.304 15.3793Z" fill="white"/><path id="Path 24_3" fill-rule="evenodd" clip-rule="evenodd" d="M218.485 11.5518C236.972 -9.50223 261.914 -26.8888 281.029 -30.7799C299.804 -34.602 313.21 -29.6593 320.073 -18.2475C325.938 -8.49437 326.162 5.17181 321.109 15.9715C314.83 29.3933 298.015 43.376 270.6 57.9932L268.908 58.8889C241.477 68.304 219.9 68.304 204.196 58.8443C192.928 52.0568 199.624 33.0313 218.485 11.5518ZM320.203 15.5477C325.12 5.03849 324.902 -8.27654 319.216 -17.7322C312.584 -28.7584 299.61 -33.542 281.228 -29.8C262.362 -25.9595 237.592 -8.69308 219.236 12.2117C200.759 33.2537 194.269 51.6969 204.712 57.9877C220.123 67.271 241.406 67.271 268.513 57.9735C296.682 43.1549 313.911 28.997 320.203 15.5477Z" fill="white"/><path id="Path 24_4" fill-rule="evenodd" clip-rule="evenodd" d="M242.971 18.0942C250.697 7.40952 261.122 -1.41453 269.16 -3.40144C277.114 -5.36762 282.838 -2.80458 285.75 3.07548C288.218 8.05825 288.312 15.0182 286.19 20.5258C283.502 27.5021 276.234 34.7542 264.321 42.3557C252.816 47.1507 243.722 47.1507 237.088 42.2977C232.349 38.8309 234.926 29.4858 242.439 18.839L242.971 18.0942ZM285.257 20.1663C287.282 14.9097 287.192 8.23993 284.854 3.51929C282.153 -1.93531 276.904 -4.28557 269.4 -2.43066C261.638 -0.511944 251.382 8.16912 243.781 18.6801C236.17 29.2063 233.496 38.4314 237.679 41.4906C243.988 46.1057 252.724 46.1057 263.86 41.4728C275.533 34.0157 282.662 26.9024 285.257 20.1663Z" fill="white"/><path id="Path 25" fill-rule="evenodd" clip-rule="evenodd" d="M407.752 3.16223C403.675 -51.3289 432.969 -102.574 483.834 -120.472C509.464 -129.49 532.819 -121.847 551.408 -100.532C568.157 -81.3269 579.98 -51.9305 584.246 -20.1917C588.561 11.907 584.741 43.21 573.039 65.994C559.913 91.5497 537.802 105.156 507.973 103.499C477.832 101.825 453.187 90.3116 435.537 70.883C419.325 53.0382 409.693 29.1139 407.752 3.16223ZM583.255 -20.0585C579.013 -51.6154 567.264 -80.83 550.655 -99.8746C532.321 -120.897 509.386 -128.402 484.166 -119.528C433.752 -101.79 404.704 -50.9751 408.749 3.08763C410.674 28.8246 420.221 52.5373 436.277 70.2106C453.749 89.4428 478.147 100.841 508.028 102.501C537.45 104.135 559.199 90.7519 572.149 65.5371C583.749 42.9521 587.544 11.8515 583.255 -20.0585Z" fill="white"/><path id="Path 25_2" fill-rule="evenodd" clip-rule="evenodd" d="M439.408 -1.26101C436.787 -37.8419 455.631 -72.2515 488.366 -84.2739C504.901 -90.3465 519.976 -85.1971 531.956 -70.8589C542.73 -57.9634 550.331 -38.2367 553.073 -16.9408C555.847 4.59648 553.391 25.6024 545.863 40.9003C537.408 58.0847 523.146 67.2451 503.917 66.13C466.251 63.9458 442.093 36.1883 439.408 -1.26101ZM552.081 -16.813C549.361 -37.9325 541.829 -57.4818 531.188 -70.2178C519.464 -84.2504 504.821 -89.252 488.711 -83.3352C456.424 -71.4776 437.814 -37.4951 440.406 -1.3325C443.056 35.6449 466.846 62.9786 503.975 65.1317C522.785 66.2225 536.681 57.2966 544.966 40.4588C552.398 25.3544 554.831 4.54277 552.081 -16.813Z" fill="white"/><path id="Path 26" fill-rule="evenodd" clip-rule="evenodd" d="M381.543 61.1237C377.553 57.5775 377.315 52.9372 381.613 47.6834C390.584 36.719 407.252 37.0978 410.479 47.8563C413.579 58.1904 406.312 67.5337 395.95 66.4975C390.309 65.9334 384.752 63.9762 381.543 61.1237ZM396.05 65.5025C405.688 66.4663 412.421 57.8097 409.521 48.1437C406.557 38.2615 390.905 37.9058 382.387 48.3166C378.421 53.1645 378.628 57.1948 382.207 60.3763C385.236 63.0682 390.6 64.9575 396.05 65.5025Z" fill="white"/><path id="Path 27" fill-rule="evenodd" clip-rule="evenodd" d="M29.2505 241.735C30.3481 204.143 53.1191 172.464 94.8219 156.533C147.615 136.365 186.355 129.591 214.658 139.026C249.109 150.509 265.786 186.229 262.5 251.025C259.289 314.314 232.778 349.427 189.851 358.24C154.98 365.399 110.921 353.841 76.7261 331.418C46.5072 311.602 28.2307 276.666 29.2505 241.735ZM261.501 250.975C264.767 186.579 248.291 151.291 214.342 139.974C186.325 130.635 147.769 137.377 95.1787 157.467C53.8512 173.255 31.3358 204.578 30.2501 241.765C29.2404 276.348 47.3456 310.956 77.2745 330.582C111.265 352.871 155.065 364.36 189.65 357.26C232.103 348.545 258.313 313.832 261.501 250.975Z" fill="white"/><path id="Path 27_2" fill-rule="evenodd" clip-rule="evenodd" d="M59.5872 243.268C60.4 215.416 77.2648 191.944 108.139 180.144C147.188 165.22 175.848 160.207 196.806 167.196C222.336 175.71 234.69 202.18 232.258 250.148C229.882 297.005 210.246 323.023 178.454 329.552C152.642 334.854 120.041 326.298 94.7383 309.699C72.3637 295.021 58.832 269.144 59.5872 243.268ZM231.259 250.097C233.671 202.53 221.518 176.491 196.49 168.145C175.817 161.251 147.342 166.232 108.496 181.078C77.9971 192.735 61.3877 215.851 60.5867 243.297C59.8417 268.825 73.2022 294.375 95.2868 308.863C120.384 325.328 152.727 333.815 178.253 328.573C209.571 322.14 228.905 296.523 231.259 250.097Z" fill="white"/><path id="Path 27_3" fill-rule="evenodd" clip-rule="evenodd" d="M79.5802 244.264C80.2054 222.742 93.1772 204.602 116.915 195.487C146.907 183.97 168.923 180.1 185.041 185.501C204.692 192.085 214.196 212.545 212.327 249.578C210.501 285.758 195.398 305.865 170.944 310.912C151.1 315.007 126.05 308.401 106.608 295.586C89.4037 284.246 78.9995 264.256 79.5802 244.264ZM211.328 249.527C213.177 212.895 203.874 192.865 184.724 186.449C168.893 181.145 147.062 184.982 117.273 196.42C93.9108 205.392 81.1932 223.176 80.5798 244.293C80.0092 263.938 90.2432 283.602 107.159 294.752C126.396 307.431 151.186 313.968 170.742 309.932C194.721 304.984 209.524 285.276 211.328 249.527Z" fill="white"/><path id="Path 27_4" fill-rule="evenodd" clip-rule="evenodd" d="M116.567 246.15C116.845 236.62 122.617 228.584 133.152 224.556C146.387 219.496 156.113 217.794 163.275 220.183C172.05 223.11 176.283 232.183 175.456 248.498C174.647 264.448 167.926 273.358 157.048 275.593C148.249 277.401 137.17 274.492 128.57 268.848C120.929 263.833 116.309 254.995 116.567 246.15ZM174.457 248.447C175.264 232.533 171.232 223.892 162.959 221.132C156.082 218.838 146.542 220.507 133.51 225.49C123.349 229.375 117.833 237.055 117.567 246.18C117.319 254.676 121.768 263.187 129.119 268.012C137.514 273.521 148.334 276.362 156.847 274.613C167.251 272.475 173.671 263.966 174.457 248.447Z" fill="white"/><path id="Path 27_5" fill-rule="evenodd" clip-rule="evenodd" d="M135.167 257.001C124.333 252.091 124.804 240.951 138.031 237.459C146.256 235.288 152.3 234.557 156.758 235.584C162.299 236.861 165.018 240.885 164.494 248.029C163.98 255.025 159.711 258.933 152.887 259.901C147.414 260.677 140.523 259.428 135.167 257.001ZM163.496 247.956C163.986 241.288 161.576 237.72 156.534 236.559C152.279 235.579 146.364 236.294 138.286 238.426C125.996 241.671 125.578 251.558 135.58 256.09C140.773 258.443 147.475 259.658 152.747 258.91C159.133 258.004 163.02 254.447 163.496 247.956Z" fill="white"/><path id="Path 28" fill-rule="evenodd" clip-rule="evenodd" d="M272.263 308.515C277.004 287.583 287.751 271.853 304.861 262.823C324.165 252.636 351.129 251.183 386.116 259.514C453.078 275.457 495.905 306.519 513.83 345.667C528.519 377.749 524.008 412.699 505.354 431.354C488.583 448.124 443.86 460.231 397.884 461C347.267 461.846 306.897 449.211 292.567 424.249C274.421 392.641 264.358 343.406 272.263 308.515ZM512.921 346.083C495.134 307.237 452.565 276.363 385.884 260.486C351.114 252.208 324.391 253.647 305.327 263.708C288.495 272.591 277.919 288.072 273.238 308.735C265.394 343.362 275.406 392.347 293.434 423.751C307.53 448.306 347.58 460.84 397.867 460C443.608 459.236 488.103 447.19 504.647 430.646C522.991 412.302 527.444 377.802 512.921 346.083Z" fill="white"/><path id="Path 28_2" fill-rule="evenodd" clip-rule="evenodd" d="M317.146 401.079C303.296 380.466 295.617 348.366 301.655 325.594C309.487 296.055 337.816 283.282 388.492 293.591C439.519 303.971 472.167 324.202 485.845 349.726C497.078 370.685 493.625 393.539 479.351 405.735C466.553 416.67 432.478 424.551 397.444 425.051C358.862 425.602 328.096 417.376 317.146 401.079ZM484.964 350.198C471.443 324.969 439.051 304.896 388.293 294.571C338.089 284.358 310.301 296.887 302.621 325.851C296.665 348.317 304.275 380.13 317.976 400.521C328.677 416.447 359.161 424.598 397.43 424.052C432.25 423.554 466.126 415.719 478.701 404.975C492.606 393.095 495.981 370.756 484.964 350.198Z" fill="white"/><path id="Oval" fill-rule="evenodd" clip-rule="evenodd" d="M430.5 247C430.5 239.722 436.342 234.5 444 234.5C451.658 234.5 457.5 239.722 457.5 247C457.5 254.104 451.918 258.5 444 258.5C436.082 258.5 430.5 254.104 430.5 247ZM456.5 247C456.5 240.3 451.129 235.5 444 235.5C436.871 235.5 431.5 240.3 431.5 247C431.5 253.492 436.589 257.5 444 257.5C451.411 257.5 456.5 253.492 456.5 247Z" fill="white"/><path id="Oval_2" fill-rule="evenodd" clip-rule="evenodd" d="M275.5 248C275.5 241.963 278.182 237.5 283 237.5C287.988 237.5 292.5 243.397 292.5 249C292.5 254.076 288.455 257.5 283 257.5C278.087 257.5 275.5 253.766 275.5 248ZM291.5 249C291.5 243.899 287.369 238.5 283 238.5C278.869 238.5 276.5 242.444 276.5 248C276.5 253.276 278.734 256.5 283 256.5C287.937 256.5 291.5 253.483 291.5 249Z" fill="white"/><path id="Path 34" fill-rule="evenodd" clip-rule="evenodd" d="M28.5801 148.576C-2.42917 63.1657 3.24464 6.46022 45.7257 -21.418C74.8646 -40.5404 96.2635 -25.0377 107.73 14.3603C117.052 46.39 117.91 90.8507 110.474 113.158C101.058 141.408 74.1726 154.178 29.9698 151.499L29.644 151.479L28.5801 148.576ZM109.526 112.842C116.893 90.7414 116.038 46.4854 106.77 14.6398C95.4641 -24.206 74.709 -39.2422 46.2744 -20.5819C3.8512 7.25827 -1.45989 64.3525 30.4691 150.827L30.356 150.519L31.339 150.576C73.9202 152.879 99.8407 140.568 109.243 113.67L109.526 112.842Z" fill="white"/><path id="Path 34_2" fill-rule="evenodd" clip-rule="evenodd" d="M23.6457 140.78C0.418238 73.0412 4.66975 28.0541 36.5235 5.9208C58.4398 -9.30753 74.5451 3.04626 83.1471 34.3397C90.1303 59.7441 90.7729 95.0035 85.2007 112.703C78.1343 135.149 57.9475 145.302 24.7981 143.174L24.4671 143.153L23.6457 140.78ZM84.2469 112.403C89.757 94.9002 89.1179 59.8341 82.1829 34.6047C73.7357 3.87441 58.2815 -7.97987 37.0941 6.74202C5.43159 28.7425 1.42223 73.859 25.1925 142.196L25.1923 142.196L25.3022 142.511C25.2656 142.406 25.229 142.301 25.1925 142.196L25.8402 142.236C57.6646 144.059 77.0136 134.328 84.0358 113.058L84.2469 112.403Z" fill="white"/><path id="Path 34_3" fill-rule="evenodd" clip-rule="evenodd" d="M20.8049 120.415C1.37932 69.2001 4.93917 35.1475 31.6087 18.3953C49.9567 6.87011 63.4587 16.2327 70.6632 39.9264C76.5062 59.1424 77.0438 85.8058 72.3771 99.2064C66.4529 116.218 49.5582 123.899 21.8381 122.291L21.5165 122.272L20.8049 120.415ZM71.4327 98.8775C76.0246 85.6918 75.4914 59.2422 69.7065 40.2173C62.6674 17.0679 49.8032 8.14746 32.1406 19.2421C5.70585 35.8468 2.39417 69.9224 22.3336 121.612L22.2182 121.31L22.7124 121.337C49.2747 122.713 65.4107 115.378 71.257 99.3702L71.4327 98.8775Z" fill="white"/></g></g></g></g><g id="Patterns_3"><path id="Mask_3" fill-rule="evenodd" clip-rule="evenodd" d="M143.677 352.328C131.006 377.228 137.22 409.211 155.202 430.593C173.185 451.974 201.107 463.4 228.965 465.524C256.823 467.648 284.722 461.25 311.016 451.806C331.365 444.497 351.537 435.009 366.613 419.509C381.688 404.008 390.929 381.482 385.993 360.431C374.273 310.444 312.926 307.159 271.858 309.057C226.927 311.134 168.228 304.084 143.677 352.328" fill="#2088A8"/><mask id="mask1763ec776-7962-498f-a5cd-04f642514c46" mask-type="alpha" maskUnits="userSpaceOnUse" x="137" y="308" width="251" height="158" fill="#ffffff"><path id="Mask_4" fill-rule="evenodd" clip-rule="evenodd" d="M143.677 352.328C131.006 377.228 137.22 409.211 155.202 430.593C173.185 451.974 201.107 463.4 228.965 465.524C256.823 467.648 284.722 461.25 311.016 451.806C331.365 444.497 351.537 435.009 366.613 419.509C381.688 404.008 390.929 381.482 385.993 360.431C374.273 310.444 312.926 307.159 271.858 309.057C226.927 311.134 168.228 304.084 143.677 352.328" fill="#ffffff"/></mask><g mask="url(#mask1763ec776-7962-498f-a5cd-04f642514c46)"><g id="Patterns_4"><g id="Group_2"><path id="Path 23_5" fill-rule="evenodd" clip-rule="evenodd" d="M295.681 179.798C306.439 174.546 315.326 170.922 323.526 168.586C342.994 163.04 358.974 164.831 374.418 175.334C382.052 180.525 389.57 187.89 397.164 197.673C417.099 223.355 415.886 259.206 395.475 288.359C373.92 319.148 335.704 336.38 291.128 331.765C246.994 327.196 221.601 304.39 218.727 272.691C216.097 243.679 233.458 212.945 261.99 197.54C281.616 186.943 285.677 184.759 291.461 181.879L295.681 179.798ZM396.374 198.286C388.84 188.581 381.396 181.289 373.856 176.161C358.672 165.835 342.998 164.079 323.8 169.548C315.438 171.93 306.337 175.67 295.221 181.136C290.42 183.498 287.913 184.752 281.926 187.943L262.465 198.42C234.278 213.639 217.13 243.996 219.723 272.601C222.551 303.797 247.549 326.248 291.231 330.77C335.447 335.348 373.31 318.276 394.656 287.786C414.828 258.974 416.024 223.602 396.374 198.286Z" fill="white"/><path id="Path 27_6" fill-rule="evenodd" clip-rule="evenodd" d="M-23.7497 334.735C-22.6521 297.143 0.118809 265.464 41.8216 249.533C94.6146 229.365 133.355 222.591 161.658 232.026C196.109 243.509 212.786 279.229 209.499 344.025C206.289 407.314 179.778 442.427 136.851 451.24C101.98 458.399 57.9208 446.841 23.7259 424.418C-6.49306 404.602 -24.7696 369.666 -23.7497 334.735ZM208.501 343.975C211.767 279.579 195.291 244.291 161.342 232.974C133.324 223.635 94.7686 230.377 42.1785 250.467C0.850948 266.255 -21.6644 297.578 -22.7501 334.765C-23.7599 369.348 -5.65461 403.956 24.2742 423.582C58.2644 445.871 102.065 457.36 136.65 450.26C179.103 441.545 205.312 406.832 208.501 343.975Z" fill="white"/><path id="Path 27_7" fill-rule="evenodd" clip-rule="evenodd" d="M6.58717 336.268C7.40002 308.416 24.2648 284.944 55.1391 273.144C94.1883 258.22 122.848 253.207 143.806 260.196C169.336 268.71 181.69 295.18 179.258 343.148C176.882 390.005 157.246 416.023 125.454 422.552C99.6416 427.854 67.0407 419.298 41.7383 402.699C19.3637 388.021 5.83199 362.144 6.58717 336.268ZM178.259 343.097C180.671 295.53 168.518 269.491 143.49 261.145C122.817 254.251 94.3424 259.232 55.4961 274.078C24.9971 285.735 8.38774 308.851 7.58674 336.297C6.84171 361.825 20.2022 387.375 42.2868 401.863C67.3845 418.328 99.7267 426.815 125.253 421.573C156.571 415.14 175.905 389.523 178.259 343.097Z" fill="white"/><path id="Path 27_8" fill-rule="evenodd" clip-rule="evenodd" d="M26.5802 337.264C27.2054 315.742 40.1772 297.602 63.915 288.487C93.907 276.97 115.923 273.1 132.041 278.501C151.692 285.085 161.196 305.545 159.327 342.578C157.501 378.758 142.398 398.865 117.944 403.912C98.1003 408.007 73.0504 401.401 53.6082 388.586C36.4037 377.246 25.9995 357.256 26.5802 337.264ZM158.328 342.527C160.177 305.895 150.874 285.865 131.724 279.449C115.893 274.145 94.0618 277.982 64.2734 289.42C40.9108 298.392 28.1932 316.176 27.5798 337.293C27.0092 356.938 37.2432 376.602 54.1586 387.752C73.3955 400.431 98.1857 406.968 117.742 402.932C141.721 397.984 156.524 378.276 158.328 342.527Z" fill="white"/><path id="Path 28_3" fill-rule="evenodd" clip-rule="evenodd" d="M219.262 401.515C224.004 380.583 234.75 364.853 251.86 355.823C271.165 345.636 298.129 344.183 333.116 352.514C400.077 368.457 442.905 399.519 460.829 438.667C475.519 470.749 471.008 505.699 452.353 524.354C435.582 541.124 390.86 553.231 344.883 554C294.267 554.846 253.896 542.211 239.566 517.249C221.421 485.641 211.358 436.406 219.262 401.515ZM459.92 439.083C442.134 400.237 399.564 369.363 332.884 353.486C298.114 345.208 271.391 346.647 252.327 356.708C235.495 365.591 224.918 381.072 220.237 401.735C212.393 436.362 222.405 485.347 240.433 516.751C254.53 541.306 294.579 553.84 344.866 553C390.608 552.236 435.102 540.19 451.646 523.646C469.99 505.302 474.443 470.802 459.92 439.083Z" fill="white"/><path id="Path 28_4" fill-rule="evenodd" clip-rule="evenodd" d="M264.146 494.079C250.296 473.466 242.617 441.366 248.655 418.594C256.487 389.055 284.816 376.282 335.492 386.591C386.519 396.971 419.167 417.202 432.845 442.726C444.078 463.685 440.625 486.539 426.351 498.735C413.553 509.67 379.478 517.551 344.444 518.051C305.862 518.602 275.096 510.376 264.146 494.079ZM431.964 443.198C418.443 417.969 386.051 397.896 335.293 387.571C285.089 377.358 257.301 389.887 249.621 418.851C243.665 441.317 251.275 473.13 264.976 493.521C275.677 509.447 306.161 517.598 344.43 517.052C379.25 516.554 413.126 508.719 425.701 497.975C439.606 486.095 442.981 463.756 431.964 443.198Z" fill="white"/><path id="Path 28_5" fill-rule="evenodd" clip-rule="evenodd" d="M292.749 495.875C283.928 481.998 279.039 460.398 282.886 445.06C287.887 425.126 305.991 416.498 338.284 423.441C370.758 430.424 391.551 444.044 400.268 461.236C407.435 475.372 405.231 490.795 396.104 499.038C387.93 506.42 366.237 511.723 343.933 512.06L343.197 512.069C318.967 512.319 299.68 506.779 292.749 495.875ZM399.376 461.688C390.81 444.793 370.275 431.343 338.074 424.419C306.266 417.58 288.712 425.946 283.856 445.304C280.082 460.35 284.909 481.677 293.593 495.339C300.35 505.968 319.661 511.426 343.918 511.06C366.001 510.726 387.485 505.474 395.434 498.296C404.212 490.368 406.346 475.436 399.376 461.688Z" fill="white"/><path id="Path 28_6" fill-rule="evenodd" clip-rule="evenodd" d="M315.701 477.246C310.843 472.224 308.15 464.402 310.291 458.791C313.062 451.532 322.936 448.439 340.478 450.918L341.17 451.018C358.385 453.535 369.444 458.349 374.152 464.453C378.163 469.652 376.915 475.391 371.819 478.416C367.36 481.063 355.611 482.95 343.522 483.07C330.177 483.203 319.553 481.229 315.701 477.246ZM373.36 465.063C368.782 459.128 357.716 454.364 340.338 451.908C323.203 449.487 313.787 452.436 311.225 459.148C309.244 464.34 311.806 471.781 316.419 476.551C319.902 480.152 329.824 482.083 342.349 482.077L343.512 482.07C355.436 481.952 367.045 480.087 371.308 477.556C375.898 474.832 376.997 469.778 373.36 465.063Z" fill="white"/><path id="Oval_3" fill-rule="evenodd" clip-rule="evenodd" d="M377.5 340C377.5 332.722 383.342 327.5 391 327.5C398.658 327.5 404.5 332.722 404.5 340C404.5 347.104 398.918 351.5 391 351.5C383.082 351.5 377.5 347.104 377.5 340ZM403.5 340C403.5 333.3 398.129 328.5 391 328.5C383.871 328.5 378.5 333.3 378.5 340C378.5 346.492 383.589 350.5 391 350.5C398.411 350.5 403.5 346.492 403.5 340Z" fill="white"/><path id="Path 31" fill-rule="evenodd" clip-rule="evenodd" d="M-17.2294 491.556C1.49359 481.892 52.4979 470.113 96.84 467.001C156.082 462.844 200.506 472.709 219.41 499.713C232.002 517.702 233.881 532.79 226.656 545.202C220.819 555.229 209.348 563.063 193.777 569.106C187.23 571.647 180.271 573.748 172.952 575.529C170.197 576.2 167.513 576.796 164.719 577.371C164.202 577.478 163.698 577.58 163.175 577.685L159.098 578.49C151.357 580.038 99.1951 562.305 53.5517 542.584L52.543 542.147C28.7285 531.821 9.00765 521.968 -3.88723 513.721L-4.96063 513.028C-12.2085 508.302 -17.0857 504.167 -19.3711 500.687C-21.9196 496.806 -21.2625 493.637 -17.2294 491.556ZM225.792 544.699C232.802 532.655 230.975 517.979 218.59 500.287C199.953 473.662 155.83 463.864 96.91 467.999C52.6923 471.102 1.81486 482.852 -16.7707 492.444C-20.2537 494.242 -20.7704 496.734 -18.5352 500.138C-16.4491 503.314 -12.0057 507.149 -5.41856 511.529L-4.41445 512.191C8.21387 520.425 27.9535 530.358 51.9397 540.795L53.9483 541.666C99.2912 561.257 151.47 578.996 158.902 577.51L162.45 576.81C163.165 576.668 163.83 576.533 164.517 576.392L166.175 576.045C168.372 575.578 170.521 575.092 172.716 574.558C179.995 572.786 186.913 570.698 193.416 568.174C208.795 562.205 220.092 554.489 225.792 544.699Z" fill="white"/><path id="Path 33" fill-rule="evenodd" clip-rule="evenodd" d="M183.695 450.245C186.14 446.126 191.737 442.555 198.862 440.519C202.414 439.505 204.642 440.77 205.225 443.78C205.718 446.323 204.985 450 203.331 453.704C199.5 462.287 192.97 467.233 187.706 463.404C182.303 459.475 181.018 454.753 183.695 450.245ZM202.418 453.296C203.996 449.762 204.69 446.277 204.243 443.97C203.775 441.552 202.139 440.623 199.137 441.481C192.236 443.453 186.851 446.889 184.555 450.755C182.156 454.795 183.288 458.955 188.294 462.596C192.84 465.902 198.809 461.382 202.418 453.296Z" fill="white"/><path id="Oval_4" fill-rule="evenodd" clip-rule="evenodd" d="M222.5 341C222.5 334.963 225.182 330.5 230 330.5C234.988 330.5 239.5 336.397 239.5 342C239.5 347.076 235.455 350.5 230 350.5C225.087 350.5 222.5 346.766 222.5 341ZM238.5 342C238.5 336.899 234.369 331.5 230 331.5C225.869 331.5 223.5 335.444 223.5 341C223.5 346.276 225.734 349.5 230 349.5C234.937 349.5 238.5 346.483 238.5 342Z" fill="white"/></g></g></g></g></g></g><g id="Heads" transform="translate(508 359) scale(1 1)"><g id="Heads/Diamond"><g id="Patterns"><path id="Mask" fill-rule="evenodd" clip-rule="evenodd" d="M45.1359 34.9915C93.3573 3.25145 116.372 5.44042 151.442 34.9915C186.512 64.5426 220.486 111.605 163.497 155.385C106.509 199.164 80.206 195.881 35.2725 155.385C-9.66105 114.889 -3.08541 66.7315 45.1359 34.9915Z" fill="#7AD8DF"/><mask id="mask07bbd674e-f29c-4eb2-8f3e-d48dc243a680" mask-type="alpha" maskUnits="userSpaceOnUse" x="5" y="12" width="189" height="175" fill="#ffffff"><path id="Mask_2" fill-rule="evenodd" clip-rule="evenodd" d="M45.1359 34.9915C93.3573 3.25145 116.372 5.44042 151.442 34.9915C186.512 64.5426 220.486 111.605 163.497 155.385C106.509 199.164 80.206 195.881 35.2725 155.385C-9.66105 114.889 -3.08541 66.7315 45.1359 34.9915Z" fill="#ffffff"/></mask><g mask="url(#mask07bbd674e-f29c-4eb2-8f3e-d48dc243a680)"><g id="Pattern"><g id="Group"><path id="Path 23" fill-rule="evenodd" clip-rule="evenodd" d="M170.751 166.606L171.75 166.305C182.764 163.045 191.825 164.1 200.571 170.279C204.886 173.327 209.13 177.646 213.414 183.38C224.682 198.46 223.997 219.5 212.47 236.603C200.301 254.66 178.724 264.767 153.566 262.061C128.639 259.381 114.272 245.977 112.647 227.353C111.161 210.321 120.968 192.286 137.089 183.243C157.123 172.006 162.862 169.034 170.751 166.606ZM212.613 183.978C208.388 178.324 204.216 174.079 199.994 171.096C191.513 165.105 182.769 164.087 172.033 167.264C164.62 169.457 159.574 171.86 143.901 180.581L137.579 184.115C121.796 192.968 112.192 210.63 113.643 227.266C115.225 245.394 129.203 258.436 153.673 261.067C178.461 263.733 199.678 253.795 211.641 236.044C222.942 219.276 223.612 198.698 212.613 183.978Z" fill="white"/><path id="Path 23_2" fill-rule="evenodd" clip-rule="evenodd" d="M148.816 146.828C158.777 142.004 167.071 138.648 174.742 136.462C193.505 131.115 208.908 132.842 223.794 142.968C231.151 147.973 238.396 155.073 245.714 164.505C264.927 189.265 263.759 223.828 244.088 251.934C223.314 281.615 186.485 298.227 143.528 293.779C100.994 289.374 76.5203 267.386 73.7506 236.823C71.2158 208.853 87.9478 179.223 115.445 164.371C133.466 154.638 137.867 152.268 143.065 149.664L148.816 146.828ZM244.924 165.118C237.666 155.764 230.495 148.737 223.231 143.795C208.606 133.846 193.509 132.154 175.016 137.424C166.96 139.719 158.191 143.324 147.482 148.593L146.35 149.15C141.841 151.374 139.252 152.694 132.127 156.514L115.921 165.251C88.7679 179.917 72.2486 209.17 74.7466 236.733C77.4706 266.792 101.55 288.426 143.631 292.784C186.229 297.195 222.704 280.743 243.269 251.361C262.701 223.596 263.853 189.511 244.924 165.118Z" fill="white"/><path id="Path 23_3" fill-rule="evenodd" clip-rule="evenodd" d="M168.409 187.747L169.217 187.512C175.695 185.683 181.039 186.276 186.194 189.752C188.73 191.462 191.222 193.882 193.734 197.09C200.373 205.569 199.97 217.395 193.19 226.994C186.047 237.11 173.389 242.768 158.643 241.255C144.01 239.753 135.545 232.215 134.586 221.733C133.711 212.157 139.48 202.032 148.958 196.958C160.47 190.796 163.902 189.092 168.409 187.747ZM192.947 197.707C190.496 194.576 188.078 192.228 185.635 190.581C180.74 187.281 175.699 186.721 169.489 188.474C165.322 189.651 162.436 190.94 153.984 195.413L149.43 197.84C140.298 202.728 134.744 212.476 135.582 221.642C136.495 231.62 144.564 238.805 158.745 240.26C173.134 241.737 185.44 236.236 192.374 226.418C198.911 217.161 199.298 205.818 192.947 197.707Z" fill="white"/><path id="Path 24" fill-rule="evenodd" clip-rule="evenodd" d="M-21.7292 70.6453C15.4748 29.0456 65.6708 -5.30909 104.078 -12.9855C141.728 -20.5105 168.531 -10.8072 182.25 11.5902C193.987 30.7513 194.434 57.6331 184.315 78.8695C171.455 105.858 136.497 134.062 79.3731 163.562C24.2026 182.153 -19.1461 182.153 -50.6539 163.518C-72.9584 150.326 -59.5613 112.947 -21.7292 70.6453ZM183.412 78.4393C193.391 57.4972 192.95 30.9729 181.397 12.1125C167.912 -9.90346 141.535 -19.4523 104.274 -12.0049C66.1125 -4.37759 16.0888 29.8592 -20.9838 71.312C-58.4244 113.176 -71.6091 149.962 -50.1449 162.657C-18.9265 181.121 24.1334 181.121 78.984 162.643C135.861 133.266 170.67 105.181 183.412 78.4393Z" fill="white"/><path id="Path 24_2" fill-rule="evenodd" clip-rule="evenodd" d="M1.72526 73.0528C29.0549 41.3998 65.9282 15.2596 94.1591 9.41507C121.855 3.68124 141.593 11.0827 151.694 28.1637C160.33 42.7671 160.659 63.2452 153.216 79.4253C143.761 99.9772 118.079 121.44 76.0996 143.893C35.5607 158.043 3.69372 158.043 -19.4786 143.847C-35.9496 133.757 -26.0933 105.272 1.72526 73.0528ZM152.307 79.0074C159.619 63.1143 159.295 42.9815 150.833 28.6727C140.963 11.9811 121.66 4.74286 94.3619 10.3943C66.3818 16.1869 29.681 42.2048 2.48217 73.7063C-24.959 105.489 -34.6171 133.4 -18.9563 142.994C3.92041 157.009 35.4882 157.009 75.699 142.98C117.431 120.653 142.966 99.3129 152.307 79.0074Z" fill="white"/><path id="Path 24_3" fill-rule="evenodd" clip-rule="evenodd" d="M23.5027 75.3158C41.2532 55.1269 65.2012 38.4549 83.556 34.7233C101.588 31.0572 114.466 35.7992 121.059 46.7482C126.694 56.1054 126.908 69.2155 122.055 79.576C116.024 92.4493 99.8793 105.858 73.5552 119.875L71.9308 120.734C45.5919 129.763 24.8716 129.763 9.7905 120.69C-1.0434 114.172 5.38834 95.9185 23.5027 75.3158ZM121.149 79.1517C125.867 69.082 125.658 56.3235 120.202 47.264C113.841 36.7004 101.395 32.1171 83.7552 35.7032C65.6487 39.3844 41.873 55.9364 24.2537 75.9761L23.7253 76.5803C6.40106 96.4936 0.397755 113.872 10.306 119.833C25.0946 128.73 45.5212 128.73 71.5361 119.819C98.5743 105.613 115.111 92.0413 121.149 79.1517Z" fill="white"/><path id="Path 24_4" fill-rule="evenodd" clip-rule="evenodd" d="M46.4605 81.7534C53.892 71.5015 63.919 63.0348 71.6528 61.1277C79.3092 59.2397 84.8224 61.7021 87.6267 67.3506C90.0023 72.1356 90.0925 78.8177 88.0501 84.106C85.4637 90.8025 78.4728 97.7613 67.0116 105.056C55.9439 109.658 47.1934 109.658 40.8081 104.998C36.2401 101.665 38.716 92.699 45.9367 82.485L46.4605 81.7534ZM87.1172 83.7457C89.0625 78.709 88.9762 72.3177 86.731 67.7953C84.1377 62.5718 79.0992 60.3215 71.8923 62.0986C64.434 63.9377 54.576 72.2617 47.2701 82.3403C39.9577 92.428 37.3901 101.266 41.3976 104.19C47.458 108.613 55.852 108.613 66.551 104.173C77.772 97.0221 84.6237 90.2019 87.1172 83.7457Z" fill="white"/><path id="Path 26" fill-rule="evenodd" clip-rule="evenodd" d="M180.406 122.241C176.626 118.819 176.4 114.343 180.47 109.276C188.965 98.7007 204.759 99.0663 207.817 109.448C210.751 119.411 203.868 128.424 194.048 127.424C188.707 126.88 183.445 124.993 180.406 122.241ZM194.149 126.429C203.241 127.355 209.597 119.031 206.857 109.731C204.06 100.232 189.292 99.8898 181.25 109.902C177.504 114.566 177.7 118.441 181.077 121.499C183.936 124.087 189.002 125.905 194.149 126.429Z" fill="white"/><path id="Path 35" fill-rule="evenodd" clip-rule="evenodd" d="M-150.003 -7.53104C-142.966 -30.8269 -133.166 -54.7348 -120.602 -79.2551C-111.615 -96.7947 -81.5841 -102.685 -39.9586 -97.9508C-3.42554 -93.7957 37.4919 -81.6552 62.0311 -67.9013C84.7844 -55.1484 75.1949 -29.3695 42.9613 -4.20279C11.2374 20.566 -32.3895 36.9099 -65.3261 34.2005C-112.341 30.3329 -140.742 17.0892 -150.459 -5.60445L-150.53 -5.77049L-150.003 -7.53104ZM61.5421 -67.029C37.1267 -80.7135 -3.66376 -92.8164 -40.0717 -96.9572C-81.3088 -101.647 -110.988 -95.826 -119.712 -78.7991C-132.502 -53.8361 -142.421 -29.5142 -149.468 -5.8335L-149.469 -5.834L-149.52 -5.6589C-149.503 -5.71709 -149.486 -5.7753 -149.468 -5.8335L-149.248 -5.33275C-139.54 16.3116 -112.025 29.1409 -66.6391 33.0859L-65.2441 33.2038C-32.5858 35.8904 10.8049 19.635 42.3459 -4.991C74.1072 -29.7889 83.4024 -54.7766 61.5421 -67.029Z" fill="white"/><path id="Path 35_2" fill-rule="evenodd" clip-rule="evenodd" d="M-140.043 -19.7707C-134.235 -42.4771 -126.158 -65.7789 -115.812 -89.6763C-108.379 -106.846 -83.5164 -112.617 -49.0983 -107.984C-18.9059 -103.92 14.9066 -92.0469 35.1887 -78.5931C53.9869 -66.1237 46.0793 -40.9654 19.4499 -16.3591C-6.77075 7.86954 -42.8348 23.8594 -70.0837 21.2065C-108.948 17.4227 -132.442 4.45713 -140.47 -17.7334L-140.522 -17.877L-140.043 -19.7707ZM34.636 -77.7598C14.4868 -91.1254 -19.1826 -102.949 -49.2317 -106.993C-83.2491 -111.572 -107.701 -105.896 -114.895 -89.279C-125.462 -64.87 -133.656 -41.0874 -139.478 -17.9315L-139.478 -17.933L-139.515 -17.7818C-139.503 -17.8317 -139.49 -17.8816 -139.478 -17.9315L-139.289 -17.4235C-131.275 3.72375 -108.587 16.2438 -71.1378 20.096L-69.9868 20.2112C-43.0613 22.8326 -7.25827 6.95846 18.7712 -17.0935C44.9947 -41.3247 52.6838 -65.788 34.636 -77.7598Z" fill="white"/></g></g></g></g></g></g><g id="Face" transform="translate(589 429) scale(1 1)"><g id="Face/Face"><g id="MOUTH"><g id="Group"><path id="Clip 11" fill-rule="evenodd" clip-rule="evenodd" d="M24.9999 38.5633C10.9824 34.7403 13.9999 54.5633 24.9999 57.5633C35.9999 60.5633 42.9999 60.5633 52.9999 57.5633C66.6922 53.4556 65.482 34.4026 52.9999 38.5633C43.9999 41.5633 35.9999 41.5633 24.9999 38.5633Z" fill="white"/><mask id="mask0cfdd10ce-4683-432b-bb37-66c02dcb8190" mask-type="alpha" maskUnits="userSpaceOnUse" x="15" y="37" width="48" height="23" fill="#ffffff"><path id="Clip 11_2" fill-rule="evenodd" clip-rule="evenodd" d="M24.9999 38.5633C10.9824 34.7403 13.9999 54.5633 24.9999 57.5633C35.9999 60.5633 42.9999 60.5633 52.9999 57.5633C66.6922 53.4556 65.482 34.4026 52.9999 38.5633C43.9999 41.5633 35.9999 41.5633 24.9999 38.5633Z" fill="#ffffff"/></mask><g mask="url(#mask0cfdd10ce-4683-432b-bb37-66c02dcb8190)"><path id="Fill 7" fill-rule="evenodd" clip-rule="evenodd" d="M27.5685 66.605L25.0205 33.197L27.6045 33L30.1535 66.407L27.5685 66.605Z" fill="#BEDBEA"/><path id="Fill 4" fill-rule="evenodd" clip-rule="evenodd" d="M40.9148 69.0913L38.3218 69.0583L38.7258 37.2753L41.3178 37.3073L40.9148 69.0913Z" fill="#BEDBEA"/><path id="Fill 10" fill-rule="evenodd" clip-rule="evenodd" d="M52.4081 74.4683L49.8311 74.1903L54.2211 33.5633L56.8001 33.8413L52.4081 74.4683Z" fill="#BEDBEA"/></g></g></g><g id="EYES"><path id="Fill 1" d="M65.5302 21.9005C68.7192 22.4315 72.2132 20.8015 73.6692 17.9155C76.8882 11.5345 69.4722 6.0005 63.5982 8.7005C57.4312 11.5365 58.9212 20.7995 65.5302 21.9005" fill="#001D2D"/><path id="Fill 4_2" d="M14.9191 21.9005C11.7301 22.4315 8.23606 20.8015 6.78006 17.9155C3.56006 11.5345 10.9761 6.0005 16.8501 8.7005C23.0181 11.5365 21.5291 20.7995 14.9191 21.9005" fill="#001D2D"/></g></g></g><g id="Head Accesory" transform="matrix(-1 0 0 1 708 166) scale(1 1)"><g id="Head Accesory/Bow"><path id="Path 182" fill-rule="evenodd" clip-rule="evenodd" d="M95.8288 134.999C95.8288 134.999 64.933 108.517 57.209 117.345C49.4851 126.172 57.209 140.516 57.209 140.516C57.209 140.516 41.7611 162.585 59.4159 166.999C77.0706 171.412 95.8288 147.137 95.8288 147.137C95.8288 147.137 117.897 170.309 139.966 166.999C162.034 163.688 139.966 140.516 139.966 140.516C139.966 140.516 156.517 109.621 142.173 106.31C127.828 103 95.8288 134.999 95.8288 134.999Z" fill="#A98AFF"/><path id="Combined Shape" fill-rule="evenodd" clip-rule="evenodd" d="M134.911 122.586C134.682 122.083 134.089 121.861 133.586 122.09L103.762 135.646C102.338 123.924 95.0002 128 95.0002 128C95.0002 128 88.0002 123 88.0002 137C88.0002 137.136 88.0006 137.272 88.0014 137.407L70.3384 131.059L70.2264 131.026C69.7389 130.912 69.2326 131.179 69.0592 131.662C68.8724 132.182 69.1423 132.754 69.662 132.941L88.0474 139.548C88.0904 140.671 88.162 141.719 88.2588 142.693L67.5864 152.09L67.4831 152.144C67.0542 152.402 66.8777 152.947 67.0899 153.414C67.3184 153.917 67.9113 154.139 68.414 153.91L88.5188 144.772C89.6968 152.459 92.6543 154.564 95.0002 153C96.0525 153 97.0125 153.123 97.8802 153.234C101.369 153.681 103.366 153.937 103.872 145.235L133.662 155.941L133.774 155.974C134.262 156.088 134.768 155.821 134.941 155.338C135.128 154.818 134.858 154.246 134.338 154.059L103.96 143.142C103.987 142.184 104 141.139 104 140C104 139.207 103.981 138.461 103.943 137.761L134.414 123.91L134.517 123.856C134.946 123.598 135.123 123.053 134.911 122.586Z" fill="#7344BE"/></g></g></g></g><path id="Combined Shape" fill-rule="evenodd" clip-rule="evenodd" d="M905.424 594.042C907.61 593.725 909.64 595.235 909.958 597.415C910.276 599.594 908.762 601.618 906.575 601.935C736.105 626.665 580.585 632.325 440.014 618.906C427.986 617.757 414.254 608.235 413.031 598.483C412.757 596.298 414.312 594.305 416.504 594.031C418.63 593.766 420.574 595.216 420.94 597.297L420.97 597.494C421.647 602.901 432.08 610.135 440.777 610.966C580.675 624.321 735.558 618.683 905.424 594.042ZM379.045 621.326C379.363 619.214 381.287 617.739 383.396 617.949L383.594 617.974L423.594 623.956C425.778 624.283 427.284 626.314 426.956 628.492C426.638 630.604 424.714 632.08 422.605 631.869L422.407 631.844L382.407 625.862C380.222 625.535 378.717 623.505 379.045 621.326ZM380.368 632.902C378.258 632.707 376.344 634.195 376.041 636.31C375.728 638.49 377.248 640.51 379.435 640.822L421.435 646.804L421.633 646.828C423.743 647.023 425.657 645.535 425.96 643.42C426.273 641.24 424.753 639.219 422.566 638.908L380.566 632.926L380.368 632.902ZM379.082 651.028C379.512 648.938 381.51 647.568 383.602 647.887L383.804 647.923L422.804 655.899C424.968 656.342 426.363 658.45 425.919 660.607C425.489 662.698 423.491 664.068 421.399 663.749L421.197 663.713L382.197 655.736C380.033 655.294 378.638 653.186 379.082 651.028ZM393.751 664.862C391.581 664.449 389.486 665.868 389.071 668.032C388.657 670.195 390.08 672.284 392.25 672.697C406.983 675.501 418.174 678.126 425.781 680.554L430.7 682.121C510.342 707.418 555.727 718.792 616.358 726.605C690.726 736.188 780.185 737.637 906.223 730.59C908.429 730.467 910.117 728.584 909.993 726.385C909.87 724.186 907.981 722.503 905.776 722.626C780.19 729.648 691.201 728.206 617.383 718.694C557.321 710.955 512.342 699.683 433.114 674.516L427.747 672.808C420.433 670.508 410.268 668.087 397.22 665.532L393.751 664.862Z" fill="#001D2D"/><path id="Arm" fill-rule="evenodd" clip-rule="evenodd" d="M1148.05 588.493C1148.33 586.302 1150.33 584.753 1152.53 585.033C1178.93 588.397 1234.36 664.843 1268.92 745.661C1288.06 790.411 1299.49 833.019 1300.86 868.939C1302.45 910.648 1290.53 942.44 1263.52 961.237C1225.44 987.736 1188.82 982.769 1155.1 946.686C1127.03 916.645 1100.62 864.827 1075.75 791.155C1064.25 796.557 1055.7 790.691 1052.05 775.375L1051.67 773.736C1050.95 770.733 1050.05 767.718 1048.59 763.225L1047.67 760.388C1043.74 748.218 1042.8 744.079 1043.03 737.806C1043.38 728.535 1047.96 720.948 1057.66 714.635L1060.96 712.493C1070.84 706.104 1078.46 701.37 1083.86 698.269L1084.91 697.671L1084.48 697.098C1074.59 683.718 1068.1 672.9 1065 664.529L1064.85 664.091C1061.05 653.522 1062.57 645.689 1070.27 642.329C1078.1 638.907 1085.41 642.575 1092.31 651.411L1092.59 651.777C1097.34 657.959 1101.55 665.687 1107.88 679.033L1112.6 689.071C1114.14 692.326 1115.37 694.867 1116.53 697.198C1123.92 711.95 1160.82 771.352 1226.96 874.966H1251.21C1253.42 874.966 1255.21 876.757 1255.21 878.966C1255.21 881.108 1253.53 882.856 1251.41 882.96L1251.21 882.965H1232.07C1235.17 887.821 1238.34 892.769 1241.56 897.811C1242.75 899.673 1242.21 902.146 1240.34 903.334C1238.47 904.523 1236 903.977 1234.81 902.115L1225.89 888.176C1156.63 779.77 1117.96 717.623 1109.62 701.277L1109.37 700.776C1108.47 698.979 1107.54 697.072 1106.47 694.836L1101.29 683.841C1088.5 656.728 1080.66 646.521 1073.48 649.657C1066.82 652.564 1072.41 668.115 1094.1 696.565C1095.62 698.56 1094.95 701.443 1092.7 702.564L1092.02 702.91C1086.66 705.676 1076.63 711.839 1062.04 721.335C1054.59 726.181 1051.41 731.324 1051.06 737.748L1051.04 738.106C1050.85 743.179 1051.74 746.943 1055.49 758.549L1056.58 761.913C1057.95 766.166 1058.83 769.165 1059.56 772.277L1059.93 773.834C1062.51 784.601 1066.27 787.202 1073.19 783.495C1069.77 773.122 1066.39 762.333 1063.02 751.128C1062.39 749.012 1063.59 746.783 1065.72 746.149C1067.84 745.516 1070.07 746.718 1070.7 748.834C1098.93 842.949 1129.09 907.121 1160.96 941.23C1192.03 974.472 1224.21 978.838 1258.93 954.675C1283.41 937.644 1294.35 908.471 1292.85 869.244C1291.52 834.431 1280.33 792.725 1261.55 748.801C1244.9 709.884 1222.98 671.078 1201.06 640.839L1199.82 639.131C1179.73 611.736 1161.67 594.566 1151.82 593.01L1151.52 592.967C1149.32 592.688 1147.77 590.685 1148.05 588.493Z" fill="#001D2D"/><path id="Bubble" fill-rule="evenodd" clip-rule="evenodd" d="M546.02 368.992C546.02 286.154 613.173 219 696.01 219C778.847 219 846 286.154 846 368.992C846 451.83 778.847 518.983 696.01 518.983L695.064 518.981L694.03 518.971C668.549 518.64 644.038 511.935 622.327 499.666L621.225 499.035L558.168 518.564L557.942 518.631L557.704 518.695C550.346 520.594 543.809 513.281 546.699 506.106L569.477 449.562L568.8 448.492C554.013 424.882 546.02 397.524 546.02 368.992ZM834 368.992C834 292.781 772.22 231 696.01 231C619.801 231 558.02 292.781 558.02 368.992C558.02 395.369 565.438 420.823 579.436 442.862L582.922 448.301L559.895 505.466L622.656 486.03L628.285 489.249L629.17 489.745C649.262 500.904 671.836 506.836 695.138 506.981L696.047 506.984L698.328 506.965C773.449 505.746 834 444.44 834 368.992Z" fill="#E4EDF1"/><g id="Smartphone"><path id="Fill 1" fill-rule="evenodd" clip-rule="evenodd" d="M504.476 637.271L435.44 648.684C422.729 650.785 410.723 642.187 408.622 629.48L385.316 488.543C383.214 475.835 391.815 463.83 404.524 461.73L473.562 450.316C486.271 448.214 498.277 456.813 500.378 469.521L523.684 610.456C525.785 623.165 517.187 635.17 504.476 637.271" fill="#001D2D"/><path id="Fill 4" fill-rule="evenodd" clip-rule="evenodd" d="M433.977 637.842C427.613 638.894 421.581 634.577 420.53 628.221L397.158 487.024C396.106 480.669 400.427 474.643 406.789 473.592L476.024 462.157C482.386 461.107 488.418 465.423 489.471 471.778L512.842 612.975C513.895 619.331 509.575 625.358 503.211 626.408L433.977 637.842Z" fill="#A98AFF"/></g><path id="Path" fill-rule="evenodd" clip-rule="evenodd" d="M267.634 245.432C293.075 190.873 357.928 167.268 412.487 192.71C467.046 218.151 490.65 283.004 465.209 337.563C456.422 356.406 442.625 372.172 425.195 383.31L423.262 384.533L420.921 428.339C420.7 432.476 415.852 434.537 412.724 431.911L412.569 431.776L377.498 399.968L374.75 400.198L373.969 400.256C355.816 401.54 337.672 398.231 320.952 390.563L320.294 390.256L318.705 389.499C265.263 363.515 242.478 299.378 267.634 245.432ZM456.146 333.336C479.253 283.783 457.814 224.88 408.261 201.773C358.707 178.666 299.804 200.105 276.697 249.658C253.849 298.655 274.544 356.908 323.041 380.488L324.557 381.21L325.149 381.486C340.318 388.443 356.786 391.446 373.245 390.282L373.963 390.229L378.833 389.823C380.214 389.708 381.581 390.171 382.608 391.102L411.496 417.303L413.414 381.423C413.496 379.897 414.271 378.496 415.509 377.616L415.732 377.466L419.828 374.873C435.64 364.769 448.161 350.46 456.146 333.336Z" fill="#E4EDF1"/><g id="Object" transform="translate(297 216) scale(1 1)"><g id="Object/Music Note"><path id="Path 84" fill-rule="evenodd" clip-rule="evenodd" d="M66.5899 8.62186C66.5899 -1.32908 80.5481 -3.35558 83.3332 6.191C89.1722 26.2056 96.4952 31.4169 108.166 26.5145C112.522 24.6845 117.525 26.7614 119.34 31.1533C121.156 35.5452 119.096 40.589 114.739 42.419C102.956 47.3687 92.7132 46.4343 84.4216 40.2883L83.6805 39.7197V110.925C83.6805 126.759 71.1244 139.638 55.5021 139.992L54.8402 140H46.295C35.0864 140 26 130.84 26 119.539C26 108.434 34.7757 99.3955 45.7171 99.0871L46.295 99.0789L66.5899 99.0768V8.62186Z" fill="#001D2D"/></g></g><g id="Object" transform="translate(626 291) scale(1 1)"><g id="Object/Music Note"><path id="Path 84" fill-rule="evenodd" clip-rule="evenodd" d="M66.5899 8.62186C66.5899 -1.32908 80.5481 -3.35558 83.3332 6.191C89.1722 26.2056 96.4952 31.4169 108.166 26.5145C112.522 24.6845 117.525 26.7614 119.34 31.1533C121.156 35.5452 119.096 40.589 114.739 42.419C102.956 47.3687 92.7132 46.4343 84.4216 40.2883L83.6805 39.7197V110.925C83.6805 126.759 71.1244 139.638 55.5021 139.992L54.8402 140H46.295C35.0864 140 26 130.84 26 119.539C26 108.434 34.7757 99.3955 45.7171 99.0871L46.295 99.0789L66.5899 99.0768V8.62186Z" fill="#001D2D"/></g></g><path id="Path Copy" fill-rule="evenodd" clip-rule="evenodd" d="M228.962 595.962C203.578 570.578 203.578 529.422 228.962 504.038C254.346 478.654 295.502 478.654 320.886 504.038C329.651 512.804 335.674 523.753 338.362 535.801L338.411 536.024L360.692 545.509C364.504 547.132 364.783 552.392 361.245 554.434L361.065 554.533L337.714 566.842L337.533 567.507L337.408 567.95C334.425 578.386 328.869 587.881 321.154 595.694L320.846 596.002L320.11 596.726C294.648 621.374 254.061 621.061 228.962 595.962ZM313.815 511.109C292.336 489.63 257.512 489.63 236.033 511.109C214.554 532.588 214.554 567.412 236.033 588.891C257.27 610.128 291.614 610.393 313.125 589.569L313.803 588.902L314.061 588.645C320.576 582.047 325.272 574.022 327.788 565.219L327.896 564.837L328.637 562.117C329.001 560.78 329.904 559.654 331.13 559.008L347.097 550.591L332.12 544.214C330.713 543.615 329.662 542.408 329.258 540.944L329.194 540.683L328.598 537.959C326.328 527.786 321.239 518.533 313.815 511.109Z" fill="#E4EDF1"/></g></svg>