<svg viewBox="810 415.8119658119658 660.0000000000006 598.2905982905985" xmlns="http://www.w3.org/2000/svg" overflow="visible" xmlns:xlink="http://www.w3.org/1999/xlink" width="660.0000000000006px" height="598.2905982905985px"><g id="Master/Stickers/Disco Ball" stroke="none" stroke-width="1" fill="none" fill-rule="evenodd"><g id="Disco-ball" transform="translate(939.000000, 414.000000)" fill="#0089C5" fill-opacity=".25"><path d="M276,33 C278.688755,33 280.881818,35.1223067 280.99538,37.7831104 L281,38 L281.000423,126.081777 C361.528346,128.719434 426,194.830636 426,276 C426,358.842712 358.842712,426 276,426 C193.157288,426 126,358.842712 126,276 C126,194.8303 190.472188,128.718886 271.000579,126.081744 L271,38 C271,35.2385763 273.238576,33 276,33 Z M292.396547,373.422523 L290.676893,373.53933 C285.846165,373.844148 280.950088,374 276,374 C270.461105,374 264.989834,373.804866 259.602072,373.424245 C259.861952,374.821943 260.126463,376.198182 260.396807,377.549903 C262.967084,390.40129 265.989207,400.60982 269.232033,407.467818 C270.763479,410.706553 272.297743,413.092582 273.731241,414.559262 C274.771108,415.6232 275.513164,416 276,416 C276.486836,416 277.228892,415.6232 278.268759,414.559262 C279.702257,413.092582 281.236521,410.706553 282.767967,407.467818 C285.8728,400.90165 288.775314,391.264034 291.272636,379.176094 L291.272636,379.176094 L291.603193,377.549903 C291.873511,376.198316 292.137996,374.822215 292.396547,373.422523 Z M210.064389,364.103558 L210.823447,365.612651 C223.468819,390.457293 241.206025,407.972272 261.183508,413.843932 C257.186298,406.244787 253.831125,395.241459 250.949292,381.274871 L250.949292,381.274871 L250.591,379.511064 C250.133647,377.224298 249.692741,374.871279 249.268729,372.456125 C235.463415,370.843587 222.299958,368.001396 210.064389,364.103558 Z M341.934901,364.101574 L340.620157,364.517436 C328.758287,368.202989 316.043144,370.901251 302.730342,372.457009 C302.307259,374.871279 301.866353,377.224298 301.409,379.511064 C298.447717,394.31748 294.980366,405.928109 290.816835,413.842925 C311.196608,407.853932 329.245234,389.746559 341.934901,364.101574 Z M144.003919,322.768042 L144.589621,324.393888 C159.220846,364.110905 191.343643,395.366439 231.615737,408.818212 C217.556626,397.136624 205.642942,380.060335 196.91241,359.367666 C174.784894,350.421718 156.473277,337.81237 144.003919,322.768042 Z M407.997501,322.76905 L406.984626,323.968099 C394.545966,338.483229 376.624147,350.66059 355.086228,359.366462 C346.357058,380.060335 334.443374,397.136624 320.384757,408.820537 C361.20396,395.183527 393.651233,363.257613 407.997501,322.76905 Z M299.209499,309.633006 L298.110802,309.666735 C291.757673,309.8599 285.299587,309.970443 278.769231,309.994832 L278.769231,309.994832 L276,310 C268.147632,310 260.392497,309.875467 252.790912,309.632486 C253.725373,329.172766 255.46688,347.410376 257.894229,363.266605 C263.81818,363.750178 269.861222,364 276,364 C282.138778,364 288.18182,363.750178 294.105904,363.266313 C296.533189,347.409665 298.274652,329.17233 299.209499,309.633006 Z M192.816608,304.805907 L192.893181,305.410695 C195.080021,322.12986 199.08994,337.72038 204.548068,351.615175 C217.658889,356.544633 232.164467,360.166389 247.618651,362.179293 C245.305943,346.344603 243.651741,328.381042 242.760753,309.240116 C224.815473,308.403956 207.905831,306.897886 192.816608,304.805907 Z M359.18493,304.80696 L358.438559,304.908493 C343.538551,306.947165 326.889907,308.417668 309.240201,309.239243 C308.348259,328.381042 306.694057,346.344603 304.379645,362.177279 C319.835533,360.166389 334.341111,356.544633 347.453506,351.616122 C352.975705,337.553266 357.016225,321.754599 359.18493,304.80696 Z M137.984562,290.725665 L138.200322,291.511485 C144.551592,313.670017 164.247371,333.132757 191.985082,346.296516 C187.535415,332.997019 184.315799,318.51795 182.552962,303.246736 C179.0755,302.667161 175.716239,302.054461 172.488936,301.409 C157.574578,298.426128 145.902772,294.929784 137.984562,290.725665 Z M414.018879,290.726138 L413.885163,290.794591 C406.285943,294.801148 395.267585,298.163484 381.274871,301.050708 L381.274871,301.050708 L379.511064,301.409 C376.283827,302.054447 372.924638,302.667136 369.445065,303.245816 C367.684201,318.51795 364.464585,332.997019 360.014715,346.296443 C388.079857,332.977462 407.912,313.209928 414.018879,290.726138 Z M276,252 L274.636186,252.001271 C267.105306,252.015307 259.671153,252.145516 252.386288,252.386015 C252.131009,260.110571 252,268.002693 252,276 L252,276 L252.001271,277.363814 C252.015307,284.894694 252.145516,292.328847 252.386015,299.613712 C259.231671,299.839976 266.208972,299.968583 273.274483,299.994923 L273.274483,299.994923 L276,300 C283.997307,300 291.889429,299.868991 299.613712,299.613985 C299.839976,292.768329 299.968583,285.791028 299.994923,278.725517 L299.994923,278.725517 L300,276 C300,268.002693 299.868991,260.110571 299.613985,252.386288 C291.889429,252.131009 283.997307,252 276,252 L276,252 Z M242.367514,252.790912 L241.407046,252.83713 C223.453279,253.722336 206.618627,255.289886 191.745932,257.44545 C191.254042,263.512601 191,269.705926 191,276 C191,282.294074 191.254042,288.487399 191.745599,294.554973 C206.883825,296.748528 224.053537,298.333303 242.366994,299.209499 C242.124533,291.607503 242,283.852368 242,276 L242,276 L242.001293,274.614339 C242.015072,267.235156 242.138836,259.945032 242.367514,252.790912 Z M309.633122,252.790507 L309.666735,253.889198 C309.8599,260.242327 309.970443,266.700413 309.994832,273.230769 L309.994832,273.230769 L310,276 C310,283.852368 309.875467,291.607503 309.632486,299.209088 C327.946759,298.333285 345.116627,296.748484 360.254068,294.55455 C360.745958,288.487399 361,282.294074 361,276 C361,269.705926 360.745958,263.512601 360.254401,257.445027 C345.116627,255.251516 327.946759,253.666715 309.633122,252.790507 Z M181.595078,259.060806 L181.228862,259.125732 C178.907189,259.533731 176.646282,259.95757 174.450097,260.396807 C161.59871,262.967084 151.39018,265.989207 144.532182,269.232033 C141.293447,270.763479 138.907418,272.297743 137.440738,273.731241 C136.3768,274.771108 136,275.513164 136,276 C136,276.486836 136.3768,277.228892 137.440738,278.268759 C138.907418,279.702257 141.293447,281.236521 144.532182,282.767967 C151.09835,285.8728 160.735966,288.775314 172.823906,291.272636 L172.823906,291.272636 L174.450097,291.603193 C176.761556,292.065485 179.144711,292.51072 181.594948,292.938383 C181.20178,287.376647 181,281.724398 181,276 C181,270.275602 181.20178,264.623353 181.595078,259.060806 Z M370.405104,259.061626 L370.554092,261.32472 C370.849153,266.154979 371,271.050521 371,276 C371,281.724398 370.79822,287.376647 370.404922,292.939194 C372.855323,292.510714 375.23846,292.065482 377.549903,291.603193 C390.40129,289.032916 400.60982,286.010793 407.467818,282.767967 C410.706553,281.236521 413.092582,279.702257 414.559262,278.268759 C415.6232,277.228892 416,276.486836 416,276 C416,275.513164 415.6232,274.771108 414.559262,273.731241 C413.092582,272.297743 410.706553,270.763479 407.467818,269.232033 C400.90165,266.1272 391.264034,263.224686 379.176094,260.727364 L379.176094,260.727364 L377.549903,260.396807 C375.23846,259.934518 372.855323,259.489286 370.405104,259.061626 Z M191.985285,205.703557 L191.444264,205.961432 C163.665449,219.277082 144.048699,238.934768 137.981121,261.273862 C145.588308,257.23727 156.652506,253.853004 170.725129,250.949292 L170.725129,250.949292 L172.488936,250.591 C175.716239,249.945539 179.0755,249.332839 182.555149,248.754149 C184.315799,233.48205 187.535415,219.002981 191.985285,205.703557 Z M360.014918,205.703484 L360.515534,207.221326 C364.706628,220.102038 367.751038,234.061043 369.447038,248.753264 C372.9245,249.332839 376.283761,249.945539 379.511064,250.591 C394.425422,253.573872 406.097228,257.070216 414.015438,261.274335 C407.912,238.790072 388.079857,219.022538 360.014918,205.703484 Z M247.620355,189.822721 L246.592298,189.95694 C231.522038,191.994826 217.368216,195.564621 204.546494,200.383878 C199.024295,214.446734 194.983775,230.245401 192.81507,247.19304 C207.905831,245.102114 224.815473,243.596044 242.759884,242.760753 C243.651741,223.618958 245.305943,205.655397 247.620355,189.822721 Z M304.381349,189.820707 L304.437106,190.217179 C306.721446,205.953487 308.355646,223.777687 309.239243,242.759799 C327.184527,243.596044 344.094169,245.102114 359.183392,247.194093 C357.016225,230.245401 352.975705,214.446734 347.451932,200.384825 C334.341111,195.455367 319.835533,191.833611 304.381349,189.820707 Z M276,188 C269.861222,188 263.81818,188.249822 257.894096,188.733687 C255.46688,204.589624 253.725373,222.827234 252.790507,242.366878 C260.392497,242.124533 268.147632,242 276,242 L276,242 L277.385661,242.001293 C284.764844,242.015072 292.054968,242.138836 299.209088,242.367514 C298.274627,222.827234 296.53312,204.589624 294.105771,188.733395 C288.18182,188.249822 282.138778,188 276,188 Z M231.615243,143.179463 L229.670224,143.84768 C189.766254,157.836413 158.120095,189.387754 144.002499,229.23095 C156.473277,214.18763 174.784894,201.578282 196.913772,192.633538 C205.642942,171.939665 217.556626,154.863376 231.615243,143.179463 Z M320.384263,143.181788 L321.238599,143.897948 C334.925946,155.558436 346.534357,172.359891 355.08759,192.632334 C377.215106,201.578282 395.526723,214.18763 407.996081,229.231958 C393.651233,188.742387 361.20396,156.816473 320.384263,143.181788 Z M261.183165,138.157075 L261.034826,138.199995 C240.715618,144.234204 222.723899,162.315822 210.065099,187.898426 C222.299958,183.998604 235.463415,181.156413 249.269658,179.542991 C249.692741,177.128721 250.133647,174.775702 250.591,172.488936 C253.552283,157.68252 257.019634,146.071891 261.183165,138.157075 Z M290.816492,138.156068 L291.039087,138.584364 C294.938189,146.165025 298.222407,157.017981 301.050708,170.725129 L301.050708,170.725129 L301.409,172.488936 C301.866373,174.775803 302.307297,177.128928 302.731327,179.544194 C316.537222,181.156551 329.700338,183.998698 341.935611,187.896442 C329.245234,162.253441 311.196608,144.146068 290.816492,138.156068 Z M276,136 L275.91143,136.003975 C275.424833,136.046707 274.709939,136.439384 273.731241,137.440738 C272.297743,138.907418 270.763479,141.293447 269.232033,144.532182 C266.1272,151.09835 263.224686,160.735966 260.727364,172.823906 L260.727364,172.823906 L260.396807,174.450097 C260.126463,175.801818 259.861952,177.178057 259.603377,178.577892 C264.989834,178.195134 270.461105,178 276,178 C281.538895,178 287.010166,178.195134 292.397928,178.575755 C292.138048,177.178057 291.873537,175.801818 291.603193,174.450097 C289.032916,161.59871 286.010793,151.39018 282.767967,144.532182 C281.236521,141.293447 279.702257,138.907418 278.268759,137.440738 C277.228892,136.3768 276.486836,136 276,136 L276,136 Z M276,0 C278.688755,0 280.881818,2.12230671 280.99538,4.78311038 L281,5 L281,15 C281,17.7614237 278.761424,20 276,20 C273.311245,20 271.118182,17.8776933 271.00462,15.2168896 L271,15 L271,5 C271,2.23857625 273.238576,0 276,0 Z" id="Combined-Shape"/><path d="M473.090336,130.950296 L466.866606,115.232761 L466.572517,114.587678 C464.110987,109.85661 457.032076,110.06078 455.005942,115.214817 L448.82974,130.913593 L433.130965,137.089794 L432.486769,137.381933 C427.763127,139.829159 427.988717,146.90872 433.148908,148.950458 L448.870944,155.169688 L455.090174,170.891724 L455.384262,171.536806 C457.845792,176.267874 464.924703,176.063704 466.950837,170.909667 L473.122525,155.206377 L488.825815,149.03469 C494.20394,146.920463 494.192418,139.304536 488.807871,137.174026 L473.090336,130.950296 Z M495.945735,77.0270381 C497.971869,71.8730011 505.05078,71.6688313 507.51231,76.399899 L507.51231,76.399899 L507.806399,77.0449817 L510.410113,83.6134617 L516.978593,86.2171762 C522.363141,88.3476856 522.374662,95.963613 516.996537,98.0778399 L516.996537,98.0778399 L510.435891,100.652676 L507.852053,107.222324 C505.825919,112.376361 498.747008,112.58053 496.285478,107.849463 L496.285478,107.849463 L495.991389,107.20438 L493.387661,100.626885 L486.819195,98.0321855 C481.659004,95.9904473 481.433414,88.910886 486.157055,86.4636601 L486.157055,86.4636601 L486.801251,86.1715218 L493.366384,83.5831691 Z M436.5,82.0597374 C442.29899,82.0597374 447,86.7607475 447,92.5597374 C447,98.3587273 442.29899,103.059737 436.5,103.059737 C430.70101,103.059737 426,98.3587273 426,92.5597374 C426,86.7607475 430.70101,82.0597374 436.5,82.0597374 Z" id="Combined-Shape"/><path d="M80.4883178,76.8018884 L73.5829123,59.4738908 L73.2569364,58.7625828 C70.5307278,53.5448052 62.7364696,53.7461386 60.5224953,59.4147783 L53.7736659,76.6809758 L36.5074684,83.4298052 L35.7990822,83.7493555 C30.6057693,86.4284426 30.8776673,94.2248427 36.5665809,96.4902222 L53.8995198,103.390686 L60.799984,120.723625 L61.12596,121.434933 C63.8521686,126.652711 71.6464268,126.451377 73.860401,120.782738 L80.6042442,103.511554 L97.8754279,96.7677109 C103.79053,94.4574769 103.752573,86.0711681 97.8163154,83.7072939 L80.4883178,76.8018884 Z M74.1442262,175.396327 C76.3582005,169.727687 84.1524586,169.526353 86.8786673,174.744131 L86.8786673,174.744131 L87.2046432,175.455439 L90.093515,182.696953 L97.3350291,185.585825 C103.271287,187.949699 103.309244,196.336008 97.3941416,198.646242 L97.3941416,198.646242 L90.178437,201.459752 L87.3550444,208.685339 C85.1410701,214.353979 77.3468119,214.555312 74.6206033,209.337535 L74.6206033,209.337535 L74.2946274,208.626227 L71.4057106,201.374785 L64.1642414,198.495841 C58.4753278,196.230461 58.2034298,188.434061 63.3967427,185.754974 L63.3967427,185.754974 L64.1051289,185.435424 L71.3257299,182.607045 Z M12,168.643035 C18.627417,168.643035 24,173.79176 24,180.143035 C24,186.494309 18.627417,191.643035 12,191.643035 C5.372583,191.643035 -4.97379915e-14,186.494309 -4.97379915e-14,180.143035 C-4.97379915e-14,173.79176 5.372583,168.643035 12,168.643035 Z" id="Combined-Shape-Copy"/></g><path d="M884.113363,856.014118 C889.828141,875.456866 896.995302,880.519293 908.417673,875.75691 C912.681365,873.979228 917.577939,875.996762 919.354477,880.263196 C921.131015,884.529631 919.114779,889.429355 914.851087,891.207036 C903.318611,896.015326 893.293759,895.107594 885.178541,889.137242 L884.453207,888.58486 L884.453207,957.755237 C884.453207,973.137734 872.164329,985.648163 856.874416,985.992708 L856.226603,986 L847.863165,986 C836.893042,986 828,977.101237 828,966.124056 C828,955.336137 836.589029,946.555584 847.297632,946.256013 L847.863165,946.248112 L867.726331,946.24602 L867.726331,858.375517 C867.726331,848.708895 881.387521,846.740295 884.113363,856.014118 Z M1024.81553,809.024153 C1028.66679,822.033638 1033.49683,825.420997 1041.19452,822.234403 C1044.06788,821.044925 1047.36774,822.394892 1048.56497,825.249639 C1049.76221,828.104386 1048.40344,831.382877 1045.53008,832.572355 C1037.75819,835.789666 1031.00232,835.182287 1025.53336,831.187419 L1025.04455,830.817811 L1025.04455,877.100931 C1025.04455,887.393631 1016.76292,895.76458 1006.45885,895.995121 L1006.02228,896 L1000.38605,896 C992.993137,896 987,890.04568 987,882.700655 C987,875.482268 992.788259,869.607045 1000.00493,869.406597 L1000.38605,869.40131 L1013.77209,869.39991 L1013.77209,810.604206 C1013.77209,804.136099 1022.97855,802.818874 1024.81553,809.024153 Z M946.836826,722.874395 C949.569981,732.166884 952.997753,734.586427 958.460626,732.310288 C960.499783,731.460661 962.841623,732.424923 963.691272,734.464028 C964.54092,736.503133 963.576633,738.844912 961.537476,739.694539 C956.021945,741.992619 951.22745,741.558777 947.346259,738.705299 L946.99936,738.441293 L946.99936,771.500665 C946.99936,778.852594 941.12207,784.831843 933.809503,784.996515 L933.49968,785 L929.499775,785 C924.253194,785 920,780.746915 920,775.500468 C920,770.344477 924.107796,766.147889 929.229302,766.004712 L929.499775,766.000936 L938.999549,765.999936 L938.999549,724.003005 C938.999549,719.382928 945.533162,718.442053 946.836826,722.874395 Z" id="Combined-Shape" fill-opacity=".25" fill="#0089C5"/></g></svg>