<svg viewBox="200 116.2032710280373 2240 1402.453271028037" xmlns="http://www.w3.org/2000/svg" overflow="visible" xmlns:xlink="http://www.w3.org/1999/xlink" width="2240px" height="1402.453271028037px"><g id="Master/Background/Abstract" stroke="none" stroke-width="1" fill="none" fill-rule="evenodd"><g id="Cloud" transform="translate(822.000000, 153.500000)"><g id="Group-3" transform="translate(157.000000, 0.000000)" fill="#000"><path d="M1418.52711,462.5 C1369.05765,412.966583 1306.23855,382.094294 1236.86005,373.218438 L1235.04823,372.986123 L1235.35837,371.184801 C1247.51062,300.426613 1224.57022,227.947655 1173.99082,177.302859 C1134.88511,138.146593 1082.94393,115.244247 1027.73587,112.814856 C972.877591,110.39247 919.476692,128.309955 877.362944,163.244848 L876.212194,164.199793 L875.09059,163.209825 C753.521407,55.9173856 597.095084,-0.513119029 434.616535,4.28729131 C271.437276,9.12038926 117.966529,75.468084 2.47288998,191.109876 L0,188.633788 C116.125561,72.3580905 270.438093,5.64499491 434.51277,0.787381242 C597.377234,-4.05155379 754.20696,52.3556025 876.28448,159.597843 C918.886743,124.734163 972.639746,106.871547 1027.88977,109.316113 C1083.97459,111.784029 1136.73891,135.049442 1176.46371,174.826772 C1227.41504,225.843973 1250.75767,298.676658 1239.10559,369.980029 C1308.54821,379.255141 1371.40579,410.365582 1421,460.023913 L1418.52711,462.5 Z" id="Fill-1"/></g><g id="Group-6" transform="translate(0.000000, 120.000000)" fill="#000"><path d="M49.1774925,820.5 C-13.8273841,669.05017 -16.3727643,501.275389 42.0062722,348.083191 C100.13299,195.555584 212.873825,72.1128336 359.458053,0.5 L361,3.63439996 C215.218285,74.8573249 103.093061,197.625009 45.282909,349.323915 C-12.7783931,501.679264 -10.2458624,668.538051 52.4144125,819.163835 L49.1774925,820.5 Z" id="Fill-4"/></g><path d="M1504.42078,840 L1502.37572,837.152566 C1546.93549,805.212947 1577.87441,758.013043 1589.49229,704.246987 C1601.18501,650.135222 1592.21085,593.992411 1564.22434,546.16182 C1528.0272,484.298446 1463.64477,443.674036 1392,437.489801 L1392.30167,434 C1465.07947,440.281174 1530.48267,481.550286 1567.25275,544.393561 C1595.68359,592.983312 1604.79923,650.014924 1592.9206,704.985125 C1581.12031,759.602607 1549.68912,807.552329 1504.42078,840" id="Fill-7" fill="#000"/><line x1="1461" y1="917" x2="1323" y2="1055" id="Fill-9" fill="#FFF"/><path d="M1323.33532,1057 C1322.7374,1057 1322.14065,1056.77228 1321.68404,1056.31566 C1320.77199,1055.4036 1320.77199,1053.92515 1321.68404,1053.01308 L1459.0134,915.684047 C1459.92546,914.771984 1461.4039,914.771984 1462.31596,915.684047 C1463.22801,916.596109 1463.22801,918.074561 1462.31596,918.986624 L1324.9866,1056.31566 C1324.52999,1056.77228 1323.93324,1057 1323.33532,1057" id="Fill-11" fill="#231F20"/><line x1="692" y1="266" x2="226" y2="732" id="Fill-13" fill="#FFF"/><path d="M226.328913,734 C225.732637,734 225.137525,733.772903 224.682166,733.317545 C223.772611,732.407994 223.772611,730.933612 224.682166,730.02406 L690.023465,264.683037 C690.93302,263.772321 692.407406,263.772321 693.316961,264.683037 C694.22768,265.592589 694.22768,267.066971 693.316961,267.976522 L227.975661,733.317545 C227.520302,733.772903 226.92519,734 226.328913,734" id="Fill-15" fill="#231F20"/><line x1="1221" y1="368" x2="459" y2="1160" id="Fill-17" fill="#FFF"/><path d="M459.327306,1163 C458.746677,1163 458.166047,1162.78313 457.713412,1162.34822 C456.787198,1161.45626 456.759272,1159.98014 457.650579,1159.05087 L1218.99536,365.71456 C1219.88783,364.785284 1221.35977,364.760798 1222.28598,365.650432 C1223.2122,366.543563 1223.24129,368.019679 1222.34998,368.948955 L461.004033,1162.28526 C460.547908,1162.76098 459.937025,1163 459.327306,1163" id="Fill-19" fill="#231F20"/><line x1="647" y1="429" x2="213" y2="863" id="Fill-21" fill="#FFF"/><path d="M212.334011,866 C211.736429,866 211.140015,865.772405 210.683659,865.316048 C209.772114,864.404501 209.772114,862.926884 210.683659,862.015337 L646.014762,426.684536 C646.927474,425.771821 648.403921,425.771821 649.315466,426.684536 C650.228178,427.596083 650.228178,429.072532 649.315466,429.985246 L213.984363,865.316048 C213.528007,865.772405 212.931592,866 212.334011,866" id="Fill-23" fill="#231F20"/><line x1="1255" y1="654" x2="785" y2="1124" id="Fill-25" fill="#FFF"/><path d="M785.329196,1126 C784.732847,1126 784.137663,1125.77288 783.682249,1125.31746 C782.772584,1124.4078 782.772584,1122.93323 783.682249,1122.02357 L1253.02386,652.682248 C1253.93352,651.772584 1255.40809,651.772584 1256.31775,652.682248 C1257.22742,653.591912 1257.22742,655.066477 1256.31775,655.976141 L786.976144,1125.31746 C786.520729,1125.77288 785.925545,1126 785.329196,1126" id="Fill-27" fill="#231F20"/><line x1="1242" y1="773" x2="1020" y2="995" id="Fill-29" fill="#FFF"/><path d="M1019.33667,998 C1018.7384,998 1018.14131,997.772147 1017.68444,997.315272 C1016.77185,996.402692 1016.77185,994.923399 1017.68444,994.010819 L1241.01111,770.684436 C1241.92369,769.771855 1243.40298,769.771855 1244.31556,770.684436 C1245.22815,771.597016 1245.22815,773.076308 1244.31556,773.988889 L1020.98889,997.315272 C1020.53202,997.772147 1019.93493,998 1019.33667,998" id="Fill-31" fill="#231F20"/><path d="M619.220948,660.22082 C530.181048,749.259727 385.819534,749.259727 296.780799,660.22082 C207.739734,571.181914 207.739734,426.818959 296.780799,337.780053 C385.819534,248.739982 530.181048,248.739982 619.220948,337.780053 C708.259684,426.818959 708.259684,571.181914 619.220948,660.22082" id="Fill-33" fill="#5dbac3"/><path d="M1078.61002,653.610023 C1034.09122,698.129992 961.909653,698.129992 917.390853,653.610023 C872.869716,609.091223 872.869716,536.909653 917.390853,492.390853 C961.909653,447.869716 1034.09122,447.869716 1078.61002,492.390853 C1123.12999,536.909653 1123.12999,609.091223 1078.61002,653.610023" id="Fill-35" fill="#5dbac3"/><path d="M826.610814,999.610814 C782.090731,1044.12973 709.910145,1044.12973 665.390062,999.610814 C620.869979,955.090731 620.869979,882.910145 665.390062,838.390062 C709.910145,793.869979 782.090731,793.869979 826.610814,838.390062 C871.129729,882.910145 871.129729,955.090731 826.610814,999.610814" id="Fill-37" fill="#5dbac3"/><path d="M1262.01272,998.011975 C1239.36302,1020.66268 1202.63903,1020.66268 1179.98815,998.011975 C1157.33728,975.362444 1157.33728,938.638726 1179.98815,915.988025 C1202.63903,893.337325 1239.36302,893.337325 1262.01272,915.988025 C1284.66243,938.638726 1284.66243,975.362444 1262.01272,998.011975" id="Fill-39" fill="#5dbac3"/><path d="M393.141524,597.819779 C394.89839,595.689014 398.049002,595.385687 400.17967,597.141565 C402.310338,598.897443 402.614719,602.048198 400.85892,604.180031 C399.102054,606.310796 395.951442,606.614123 393.820774,604.859312 C391.690106,603.102366 391.384657,599.951611 393.141524,597.819779" id="Fill-41" fill="#000"/><path d="M341.141958,649.820774 C342.897759,647.688922 346.049442,647.385592 348.180112,649.141486 C350.310782,650.89738 350.614095,654.049231 348.859363,656.180015 C347.102495,658.310798 343.95188,658.614128 341.820142,656.859302 C339.689471,655.10234 339.38509,651.951557 341.141958,649.820774" id="Fill-43" fill="#000"/><path d="M383.141524,537.820774 C384.89839,535.688922 388.049002,535.385592 390.17967,537.141486 C392.310338,538.89738 392.614719,542.049231 390.85892,544.180015 C389.102054,546.310798 385.951442,546.614128 383.820774,544.859302 C381.690106,543.10234 381.384657,539.951557 383.141524,537.820774" id="Fill-45" fill="#000"/><path d="M329.141524,590.820411 C330.89839,588.689649 334.049002,588.385254 336.17967,590.14113 C338.310338,591.898075 338.614719,595.048826 336.85892,597.179589 C335.102054,599.310351 331.951442,599.614746 329.820774,597.85887 C327.690106,596.101925 327.384657,592.951174 329.141524,590.820411" id="Fill-47" fill="#000"/><path d="M324.141091,526.820411 C325.897975,524.689649 329.048618,524.385254 331.179307,526.14113 C333.311064,527.898075 333.61438,531.048826 331.858564,533.179589 C330.102748,535.310351 326.951037,535.614746 324.820348,533.85887 C322.689659,532.101925 322.385275,528.951174 324.141091,526.820411" id="Fill-49" fill="#000"/><path d="M270.141524,578.819985 C271.89839,576.689202 275.049002,576.385872 277.17967,578.140698 C279.310338,579.89766 279.614719,583.048443 277.85892,585.179226 C276.102054,587.311078 272.951442,587.614408 270.820774,585.858514 C268.690106,584.10262 268.384657,580.950769 270.141524,578.819985" id="Fill-51" fill="#000"/><path d="M312.141879,466.819985 C313.897695,464.689202 317.049406,464.385872 319.180095,466.140698 C321.310785,467.89766 321.614101,471.048443 319.859353,473.179226 C318.102469,475.311078 314.951826,475.614408 312.821137,473.858514 C310.689379,472.10262 310.384995,468.950769 312.141879,466.819985" id="Fill-53" fill="#000"/><path d="M258.141081,519.819779 C259.897949,517.689014 263.048564,517.385687 265.180302,519.141565 C267.310972,520.897443 267.614286,524.048198 265.858485,526.180031 C264.102685,528.310796 260.951002,528.614123 258.820332,526.859312 C256.689662,525.102366 256.385281,521.951611 258.141081,519.819779" id="Fill-55" fill="#000"/><path d="M252.141524,454.819779 C253.89839,452.689014 257.049002,452.385687 259.17967,454.141565 C261.310338,455.897443 261.614719,459.049266 259.85892,461.180031 C258.102054,463.310796 254.951442,463.614123 252.820774,461.859312 C250.690106,460.102366 250.384657,456.951611 252.141524,454.819779" id="Fill-57" fill="#000"/><path d="M528.141879,682.819985 C529.897695,680.689202 533.049406,680.385872 535.180095,682.140698 C537.310785,683.89766 537.614101,687.048443 535.859353,689.179226 C534.102469,691.311078 530.951826,691.614408 528.821137,689.858514 C526.689379,688.10262 526.384995,684.950769 528.141879,682.819985" id="Fill-59" fill="#000"/><path d="M468.141524,670.820774 C469.89839,668.688922 473.049002,668.385592 475.17967,670.141486 C477.310338,671.89738 477.614719,675.049231 475.85892,677.180015 C474.102054,679.310798 470.951442,679.614128 468.820774,677.859302 C466.690106,676.10234 466.384657,672.951557 468.141524,670.820774" id="Fill-61" fill="#000"/><path d="M456.14113,611.820411 C457.898075,609.689649 461.048826,609.385254 463.179589,611.14113 C465.310351,612.898075 465.614746,616.048826 463.85887,618.179589 C462.102993,620.310351 458.951174,620.614746 456.820411,618.85887 C454.689649,617.101925 454.385254,613.951174 456.14113,611.820411" id="Fill-63" fill="#000"/><path d="M404.141524,664.820411 C405.89839,662.689649 409.049002,662.385254 411.17967,664.14113 C413.310338,665.898075 413.614719,669.048826 411.85892,671.179589 C410.102054,673.310351 406.951442,673.614746 404.820774,671.85887 C402.690106,670.101925 402.384657,666.951174 404.141524,664.820411" id="Fill-65" fill="#000"/><path d="M636.141524,575.820411 C637.89839,573.689649 641.049002,573.385254 643.17967,575.14113 C645.310338,576.898075 645.614719,580.048826 643.85892,582.179589 C642.102054,584.310351 638.951442,584.614746 636.820774,582.85887 C634.690106,581.101925 634.384657,577.951174 636.141524,575.820411" id="Fill-67" fill="#000"/><path d="M582.141879,627.819985 C583.897695,625.689202 587.049406,625.385872 589.180095,627.140698 C591.310785,628.89766 591.614101,632.048443 589.859353,634.179226 C588.102469,636.311078 584.951826,636.614408 582.821137,634.858514 C580.689379,633.10262 580.384995,629.950769 582.141879,627.819985" id="Fill-69" fill="#000"/><path d="M575.141524,563.819969 C576.89839,561.689204 580.049002,561.385877 582.17967,563.140688 C584.310338,564.897634 584.614719,568.048389 582.85892,570.180221 C581.102054,572.310986 577.951442,572.614313 575.820774,570.858435 C573.690106,569.102557 573.384657,565.950734 575.141524,563.819969" id="Fill-71" fill="#000"/><path d="M523.141524,616.820774 C524.89839,614.688922 528.049002,614.385592 530.17967,616.141486 C532.310338,617.89738 532.614719,621.049231 530.85892,623.180015 C529.102054,625.310798 525.951442,625.614128 523.820774,623.859302 C521.690106,622.10234 521.384657,618.951557 523.141524,616.820774" id="Fill-73" fill="#000"/><path d="M565.141081,503.820774 C566.897949,501.688922 570.048564,501.385592 572.180302,503.141486 C574.310972,504.89738 574.614286,508.049231 572.858485,510.180015 C571.102685,512.310798 567.95207,512.614128 565.820332,510.859302 C563.689662,509.10234 563.385281,505.951557 565.141081,503.820774" id="Fill-75" fill="#000"/><path d="M511.14113,556.820411 C512.898075,554.689649 516.048826,554.385254 518.179589,556.14113 C520.310351,557.898075 520.614746,561.048826 518.85887,563.179589 C517.102993,565.310351 513.951174,565.614746 511.820411,563.85887 C509.689649,562.101925 509.385254,558.951174 511.14113,556.820411" id="Fill-77" fill="#000"/><path d="M1226.14109,977.819969 C1227.89798,975.689204 1231.04862,975.385877 1233.17931,977.140688 C1235.31106,978.897634 1235.61438,982.048389 1233.85856,984.180221 C1232.10275,986.310986 1228.95104,986.614313 1226.82035,984.858435 C1224.68966,983.102557 1224.38528,979.951802 1226.14109,977.819969" id="Fill-79" fill="#000"/><path d="M1214.14188,917.820774 C1215.8977,915.688922 1219.04941,915.385592 1221.1801,917.141486 C1223.31078,918.89738 1223.6141,922.049231 1221.85935,924.180015 C1220.10247,926.310798 1216.95183,926.614128 1214.82114,924.859302 C1212.68938,923.10234 1212.385,919.951557 1214.14188,917.820774" id="Fill-81" fill="#000"/><path d="M1058.14108,600.819985 C1059.89795,598.689202 1063.04856,598.385872 1065.1803,600.140698 C1067.31097,601.89766 1067.61429,605.048443 1065.85849,607.179226 C1064.10269,609.311078 1060.95207,609.614408 1058.82033,607.858514 C1056.68966,606.10262 1056.38528,602.950769 1058.14108,600.819985" id="Fill-83" fill="#000"/><path d="M1004.14113,654.819779 C1005.89807,652.689014 1009.04883,652.385687 1011.17959,654.141565 C1013.31035,655.897443 1013.61475,659.048198 1011.85887,661.180031 C1010.10299,663.310796 1006.95117,663.614123 1004.82041,661.859312 C1002.68965,660.102366 1002.38525,656.951611 1004.14113,654.819779" id="Fill-85" fill="#000"/><path d="M998.141879,590.820774 C999.897695,588.688922 1003.04941,588.385592 1005.1801,590.141486 C1007.31078,591.89738 1007.6141,595.049231 1005.85935,597.180015 C1004.10247,599.310798 1000.95183,599.614128 998.821137,597.859302 C996.689379,596.10234 996.384995,592.951557 998.141879,590.820774" id="Fill-87" fill="#000"/><path d="M945.141081,642.820411 C946.897949,640.689649 950.048564,640.385254 952.180302,642.14113 C954.310972,643.898075 954.614286,647.048826 952.858485,649.179589 C951.102685,651.310351 947.95207,651.614746 945.820332,649.85887 C943.689662,648.101925 943.385281,644.951174 945.141081,642.820411" id="Fill-89" fill="#000"/><path d="M987.141524,529.820411 C988.89839,527.689649 992.049002,527.385254 994.17967,529.14113 C996.310338,530.898075 996.614719,534.048826 994.85892,536.179589 C993.102054,538.310351 989.951442,538.614746 987.820774,536.85887 C985.690106,535.101925 985.384657,531.951174 987.141524,529.820411" id="Fill-91" fill="#000"/><path d="M934.141879,583.820411 C935.897695,581.689649 939.049406,581.385254 941.180095,583.14113 C943.310785,584.898075 943.614101,588.048826 941.859353,590.179589 C940.102469,592.310351 936.951826,592.614746 934.821137,590.85887 C932.689379,589.101925 932.384995,585.951174 934.141879,583.820411" id="Fill-93" fill="#000"/><path d="M790.141081,949.820411 C791.897949,947.689649 795.048564,947.385254 797.180302,949.14113 C799.310972,950.898075 799.614286,954.048826 797.858485,956.179589 C796.102685,958.310351 792.95207,958.614746 790.820332,956.85887 C788.689662,955.101925 788.385281,951.951174 790.141081,949.820411" id="Fill-95" fill="#000"/><path d="M736.141091,1002.81999 C737.897975,1000.6892 741.048618,1000.38587 743.179307,1002.1407 C745.311064,1003.89766 745.61438,1007.04844 743.858564,1009.17923 C742.102748,1011.31108 738.951037,1011.61441 736.820348,1009.85851 C734.689659,1008.10262 734.385275,1004.95077 736.141091,1002.81999" id="Fill-97" fill="#000"/><path d="M730.141879,938.819985 C731.897695,936.689202 735.049406,936.385872 737.180095,938.140698 C739.310785,939.89766 739.614101,943.048443 737.859353,945.179226 C736.102469,947.311078 732.951826,947.614408 730.821137,945.858514 C728.689379,944.10262 728.384995,940.950769 730.141879,938.819985" id="Fill-99" fill="#000"/><path d="M677.141081,991.820774 C678.897949,989.688922 682.048564,989.385592 684.180302,991.141486 C686.310972,992.89738 686.614286,996.049231 684.858485,998.180015 C683.102685,1000.3108 679.95207,1000.61413 677.820332,998.859302 C675.689662,997.10234 675.385281,993.951557 677.141081,991.820774" id="Fill-101" fill="#000"/><path d="M666.141879,931.820411 C667.897695,929.689649 671.049406,929.385254 673.180095,931.14113 C675.310785,932.898075 675.614101,936.048826 673.859353,938.179589 C672.102469,940.310351 668.951826,940.614746 666.821137,938.85887 C664.689379,937.101925 664.384995,933.951174 666.141879,931.820411" id="Fill-103" fill="#000"/><path d="M659.141091,867.820411 C660.897975,865.689649 664.048618,865.385254 666.179307,867.14113 C668.311064,868.898075 668.61438,872.048826 666.858564,874.179589 C665.102748,876.310351 661.951037,876.614746 659.820348,874.85887 C657.689659,873.101925 657.385275,869.951174 659.141091,867.820411" id="Fill-105" fill="#000"/></g><path d="M313.012724,1483.01197 C290.363022,1505.66268 253.639026,1505.66268 230.988154,1483.01197 C208.337282,1460.36244 208.337282,1423.63873 230.988154,1400.98803 C253.639026,1378.33732 290.363022,1378.33732 313.012724,1400.98803 C335.662425,1423.63873 335.662425,1460.36244 313.012724,1483.01197" id="Fill-39" fill="#5dbac3"/></g></svg>