<svg viewBox="0 0 1071.9999999999998 1429.9999999999998" xmlns="http://www.w3.org/2000/svg" overflow="visible" xmlns:xlink="http://www.w3.org/1999/xlink" width="1071.9999999999998px" height="1429.9999999999998px"><g id="Master/Textures/Colorful" stroke="none" stroke-width="1" fill="none" fill-rule="evenodd"><g id="Textures/Colorful" transform="scale(1 1)"><g id="Textures/Colorful/Squiggle 2" stroke="none" stroke-width="1" fill="none" fill-rule="evenodd"><g id="Group-68" transform="translate(8.000000, 10.000000)"><path d="M641.955,1007.2962 C572.065,1052.3832 555.844,1048.5452 628.824,1109.9992 C645.082,1101.4362 633.216,1035.0502 641.955,1007.2962 M691.601,983.7582 C680.584,1229.8072 694.307,1234.9402 521.41,1045.6372 C512.464,1021.3432 592.081,999.5742 609.673,982.8352 C641.545,963.2562 688.531,927.9952 691.601,983.7582" id="Fill-1" fill="#B2D9DB"/><path d="M422.6225,1342.3122 C427.1425,1337.2002 446.0185,1346.9592 438.6695,1330.9332 C428.4895,1310.3572 426.7595,1284.3122 412.4945,1266.5322 C357.4725,1334.2492 304.5955,1331.9292 422.6225,1342.3122 M459.3475,1390.8822 C347.4565,1391.0812 212.3975,1398.8102 362.6455,1278.6042 C377.2275,1264.7332 392.7205,1251.8142 407.6215,1238.2622 C413.6265,1222.0082 425.0725,1202.5232 445.2835,1210.4592 C467.2415,1218.7932 458.7865,1243.0452 468.2265,1258.4852 C480.2735,1282.1762 487.2235,1308.9872 498.4845,1333.2652 C504.5585,1347.5202 489.3445,1347.1992 484.6645,1354.0572 C475.5105,1367.1082 468.7315,1376.6432 459.3475,1390.8822" id="Fill-3" fill="#52799A"/><path d="M450.5878,816.7454 C448.0628,742.7764 468.1978,692.5944 398.1058,766.8384 C380.7478,777.2344 441.5348,809.6474 450.5878,816.7454 M496.6208,776.8684 C497.5788,802.8374 504.2248,825.4444 492.9198,848.5234 C488.8988,860.2814 498.2288,881.9094 484.8778,887.6034 C445.0018,878.8644 356.5858,817.6624 333.9128,784.9234 C344.9408,733.8674 422.4788,720.5434 456.6488,683.2154 C518.3418,625.6794 490.9838,747.3214 496.6208,776.8684" id="Fill-5" fill="#52799A"/><path d="M250.8095,1014.7764 C252.5255,1008.6304 247.7765,982.8334 237.9725,980.7244 C219.8665,998.9804 192.2245,1011.8724 180.5665,1034.5324 C220.4865,1040.9844 272.7075,1086.9424 250.8095,1014.7764 M296.7755,1106.2544 C313.6905,1151.0984 234.6925,1100.8764 213.8305,1099.9954 C183.9045,1086.4764 130.6455,1083.7524 124.1855,1045.2084 C128.8095,1020.1764 246.9735,938.3524 271.1465,937.8434 C307.8235,960.1344 294.7815,1024.7104 309.1875,1062.4754 C314.2745,1081.4014 299.6455,1090.3154 296.7755,1106.2544" id="Fill-7" fill="#D3A762"/><path d="M821.3768,770.4904 C737.8588,791.5314 739.9038,803.0864 824.5348,825.1314 C829.6838,810.1354 821.5598,791.1364 821.3768,770.4904 M849.1998,735.2424 C893.8868,698.4644 878.2058,812.3114 891.1298,836.4064 C898.9308,869.5504 881.0478,902.5694 848.1518,883.6344 C803.1098,851.0864 743.6488,847.3814 704.56415,809.9204 C704.5008,807.4464 709.1758,799.9524 713.4418,798.9154 C709.1658,795.1884 708.9158,781.8004 710.7628,779.8774 C744.9478,768.3624 823.9768,699.8474 849.1998,735.2424" id="Fill-9" fill="#D3A762"/><path d="M206.913,699.9955 C204.079,670.7255 191.765,630.9675 179.04,606.0465 C100.37,688.7435 92.759,674.5595 206.913,699.9955 M226.546,738.3765 C150.238,715.4665 -49.095,722.4585 110.948,623.0575 C133.567,612.4955 163.416,562.4945 186.531,575.3035 C228.267,584.3445 237.045,623.7795 247.082,659.9265 C253.786,689.2175 278.422,742.2045 226.546,738.3765" id="Fill-11" fill="#B2D9DB"/><path d="M884.4921,1083.4345 C852.8101,1076.8645 890.4861,1124.8105 894.7701,1140.5025 C911.3391,1143.4745 927.4371,1088.4815 942.8331,1071.7615 C938.8501,1061.6765 899.9981,1082.5195 884.4921,1083.4345 M833.3351,1051.8345 C1010.1361,1040.5065 1048.4811,995.5845 926.7781,1173.4685 C920.5031,1183.7885 868.1781,1243.6185 863.7381,1218.7505 C853.5591,1167.1105 793.7281,1099.2775 833.3351,1051.8345" id="Fill-13" fill="#52799A"/><path d="M104.6054,1287.5027 C116.3994,1287.9957 158.6614,1313.6197 157.4424,1294.5957 C145.8494,1277.2587 143.4874,1243.4487 123.8634,1235.8437 C88.7514,1266.0217 7.9384,1294.9097 104.6054,1287.5027 M192.9484,1351.5707 C138.5874,1335.5257 82.8784,1330.9217 26.7194,1326.4437 C-16.1376,1273.3967 83.6624,1202.4097 128.9654,1185.7977 C158.4984,1199.0117 166.9874,1241.3327 183.1524,1267.4807 C197.9634,1303.7447 257.1254,1340.0347 192.9484,1351.5707" id="Fill-15" fill="#B2D9DB"/><path d="M515.0306,162.173 C521.5556,104.551 481.8516,164.715 459.5016,181.121 C512.2056,215.72 538.9636,253.373 515.0306,162.173 M548.5536,98.054 C555.5156,161.691 576.9526,223.63 554.2576,284.546 C508.9466,264.303 463.4606,241.429 417.7636,221.662 C352.5846,180.811 467.8546,136.259 496.1776,108.617 C508.4446,91.376 554.8136,61.92 548.5536,98.054" id="Fill-17" fill="#52799A"/><path d="M831.9867,107.4464 C778.0117,94.4004 828.7667,179.7964 829.0847,209.9934 C858.0197,174.2844 885.3727,135.9994 911.8197,98.2804 C885.1887,99.5134 858.5907,104.7504 831.9867,107.4464 M784.3667,85.5134 C775.5757,53.5174 900.9117,79.1054 922.8057,78.1234 C935.7567,73.3784 944.8517,57.7444 952.8097,79.0854 C958.4787,118.6164 908.8897,149.6884 891.4457,183.7374 C852.5217,233.2574 795.1747,318.2914 785.5557,199.4564 C780.8567,161.1144 748.2987,116.3704 784.3667,85.5134" id="Fill-19" fill="#B2D9DB"/><path d="M886.5184,410.6454 C888.8894,373.2064 827.9874,447.2334 813.1854,458.7444 C903.3404,504.3234 885.4264,501.3974 886.5184,410.6454 M938.6994,396.9234 C931.5404,424.8344 958.1384,531.5904 916.3254,525.6694 C899.0724,514.2044 881.6034,532.2254 861.5324,517.2294 C838.4874,499.7244 767.1454,488.1144 762.7004,463.4484 C791.3634,421.5434 845.3004,402.8134 882.5184,368.1004 C911.1884,334.0864 942.8954,352.8494 938.6994,396.9234" id="Fill-21" fill="#52799A"/><path d="M629.5199,575.1053 C601.2959,480.6683 632.8299,418.1213 532.3589,515.1213 C506.4759,525.3933 615.4389,580.8913 629.5199,575.1053 M635.6869,460.2703 C633.5809,491.4233 697.9839,646.7013 633.7829,624.9543 C588.4969,613.6883 550.9009,588.7633 513.4389,561.9703 C491.2819,553.0243 500.1199,533.7493 491.4989,517.2443 C482.1809,506.8223 484.5329,503.9513 502.1649,493.5843 C538.3269,481.6283 621.1069,387.3763 635.6869,460.2703" id="Fill-23" fill="#B2D9DB"/><path d="M262.9438,333.6772 C311.4828,428.1072 305.3368,460.5512 354.9348,343.8782 C330.7498,333.6612 293.1338,338.7392 262.9438,333.6772 M231.4078,309.6872 C373.8028,310.7792 461.7258,259.3122 355.5138,435.1132 C345.1318,449.2662 342.3918,488.3102 318.5788,478.2012 C291.8238,423.6032 237.2768,368.9152 231.4078,309.6872" id="Fill-25" fill="#D3A762"/><path d="M767.4261,1365.5676 C758.1181,1351.8076 755.5971,1322.5186 742.7321,1319.3776 C707.5591,1364.3126 713.3911,1364.2146 767.4261,1365.5676 M760.0881,1278.2706 C814.3551,1349.2946 857.4651,1443.2056 721.3541,1399.8166 C694.8421,1401.6696 688.6721,1381.2056 671.4621,1366.9496 C644.3431,1347.0026 725.5871,1307.1206 722.0341,1280.7056 C708.9111,1258.2436 767.2461,1248.9956 760.0881,1278.2706" id="Fill-27" fill="#D3A762"/><path d="M136.3647,226.85 C177.1427,213.616 186.8127,210.884 146.9987,182.29 C136.0147,190.09 141.0877,212.382 136.3647,226.85 M102.2327,236.318 C119.6647,198.315 97.9747,73.943 168.4037,126.678 C193.0137,146.593 215.4997,169.658 236.3797,193.418 C237.4087,205.176 212.8687,210.485 217.1767,221.202 C214.4587,232.884 182.4717,225.614 163.8577,242.775 C134.0857,254.73 103.1397,288.564 102.2327,236.318" id="Fill-30" fill="#B2D9DB"/><path d="M79.7729,428.0542 C90.0239,421.9332 76.4969,398.2552 69.3649,394.6282 C33.8809,419.5082 40.3909,420.4182 79.7729,428.0542 M83.1979,336.7942 C89.9099,349.6732 115.6829,347.1892 114.1779,356.7292 C80.5979,376.7752 161.6759,454.6002 137.3119,474.6632 C90.2689,477.3122 48.6489,464.7192 8.3629,440.3972 C-16.3461,416.2392 64.0069,354.1812 83.1979,336.7942" id="Fill-32" fill="#52799A"/><path d="M1010.3558,643.934 C973.0008,660.216 978.7608,665.015 1013.5548,678.939 C1021.7038,674.411 1010.7048,653.225 1010.3558,643.934 M1044.3768,635.111 C1043.1338,661.71 1074.7538,736.572 1032.1188,734.21 C992.7858,707.402 933.8178,704.159 924.8558,651.313 C911.6518,639.503 922.2198,636.877 930.9658,633.93 C954.8788,622.33 989.2678,622.692 1006.9698,603.428 C1023.4368,583.004 1046.6268,616.032 1044.3768,635.111" id="Fill-34" fill="#B2D9DB"/><path d="M303.3022,35.7162 C301.3772,94.7462 324.0162,69.6842 356.5762,48.0242 C348.6352,41.4812 320.7092,40.9112 303.3022,35.7162 M278.6862,1.2022 C448.3372,2.0432 467.1232,51.3742 301.6032,109.5682 C268.4552,131.5742 281.5062,61.6002 273.7622,41.0672 C257.1972,31.5512 265.4762,11.5522 278.6862,1.2022" id="Fill-36" fill="#D3A762"/><path d="M991.9335,1327.4306 C983.0655,1332.0026 989.2495,1332.9086 994.0485,1337.0726 C995.6125,1333.6876 993.0245,1331.5136 991.9335,1327.4306 M1036.8175,1361.8256 C1028.6845,1406.9516 936.4485,1337.8906 917.5955,1319.9916 C1013.3805,1295.5226 1023.4905,1267.6296 1036.8175,1361.8256" id="Fill-38" fill="#2A4069"/><path d="M668.0072,6.691 C711.8252,-22.039 694.5142,66.533 683.1622,84.563 C654.6632,95.655 632.6462,57.156 611.7592,42.593 C591.0132,32.322 661.2812,-8.467 668.0072,6.691" id="Fill-40" fill="#2A4069"/><path d="M767.0868,582.3395 C750.6198,501.0025 799.5118,564.4665 833.6588,583.9855 C861.0928,613.3345 750.8648,668.9805 767.0868,582.3395" id="Fill-43" fill="#2A4069"/><path d="M440.6718,1077.6973 C414.8828,1074.3383 362.0208,1102.6933 366.6058,1061.8303 C375.9218,1043.7653 390.8028,1003.1763 416.6358,1021.6233 C478.2348,1067.0383 455.9108,1039.6543 440.6718,1077.6973" id="Fill-45" fill="#2A4069"/><path d="M736.2552,364.2524 C715.4792,345.5384 685.3002,344.7284 673.8722,323.4854 C678.6022,316.5584 686.2702,310.9934 680.6522,300.7354 C689.7282,289.7974 731.5472,263.0654 737.3872,288.3604 C741.9252,315.5344 758.2582,339.8244 736.2552,364.2524" id="Fill-47" fill="#2A4069"/><path d="M91.0126,830.5092 C120.3956,830.0082 101.4416,865.1942 113.5956,882.7732 C118.8296,898.3882 101.1816,902.9542 103.7076,917.4652 C100.1426,935.4412 52.7306,899.6112 44.0736,887.2962 C49.1866,866.1702 74.8756,845.7532 91.0126,830.5092" id="Fill-49" fill="#2A4069"/><path d="M56.352,33.4721 C139.743,99.2971 -7.807,99.9601 0.326,54.6281 C6.377,38.4731 25.262,29.8971 38.677,20.4721 C43.373,22.0681 68.955,26.2221 56.352,33.4721" id="Fill-51" fill="#2A4069"/><path d="M967.6141,897.5744 C990.3311,989.8994 976.5451,947.7044 925.1991,968.1134 C872.9631,968.6594 925.9321,919.7664 945.4251,908.1164 C948.9461,898.7474 959.0721,892.0034 967.6141,897.5744" id="Fill-53" fill="#2A4069"/><path d="M369.2582,566.7838 C376.9452,610.5178 391.5712,650.0318 336.3892,613.6888 C325.6232,602.4968 289.4422,589.2898 309.6702,572.2138 C327.5692,568.8068 353.2762,555.0238 369.2582,566.7838" id="Fill-55" fill="#2A4069"/><path d="M1011.538,3.8753 C1074.891,7.9803 1061.747,10.1553 1033.453,65.8333 C1012.485,72.6223 958.639,-2.3747 1011.538,3.8753" id="Fill-57" fill="#2A4069"/><path d="M635.9847,776.0752 C588.0307,758.8122 533.1097,730.6692 615.7987,711.2232 C635.8427,704.0942 639.6667,763.8902 635.9847,776.0752" id="Fill-60" fill="#2A4069"/><path d="M968.4852,225.6254 C1001.3012,193.1364 1054.4992,190.2904 1040.5602,240.9074 C1021.4522,242.3454 966.0012,245.4134 968.4852,225.6254" id="Fill-62" fill="#2A4069"/><path d="M55.8036,1124.183 C-29.4644,1170.058 36.1806,1043.757 62.2936,1098.333 C71.9826,1106.163 66.5736,1128.982 55.8036,1124.183" id="Fill-64" fill="#2A4069"/><path d="M507.5751,378.0961 C497.4191,365.0581 449.8341,357.9981 471.4021,337.9701 C484.3331,335.8861 505.2511,322.1311 514.4131,336.2831 C512.2511,355.6851 532.7391,372.4121 507.5751,378.0961" id="Fill-66" fill="#2A4069"/></g></g></g></g></svg>