<svg viewBox="346.7625000000003 371.1538461538462 3319.0125 2919.7435897435903" fill="none" xmlns="http://www.w3.org/2000/svg" xmlns:xlink="http://www.w3.org/1999/xlink" overflow="visible" width="3319.0125px" height="2919.7435897435903px"><g id="Master/Spot Illustration/Imagination"><g id="Blobs" opacity="0.5" transform="matrix(-1 0 0 1 2733 630) scale(1 1)"><g id="Blobs/4"><path id="Shape" fill-rule="evenodd" clip-rule="evenodd" d="M1891.82 1369.89C1845.91 1519.39 1750.9 1654.13 1634.23 1782.05C1517.57 1909.98 1379.58 2030.22 1209.72 2097.28C1039.55 2164.5 837.973 2177.95 698.398 2103.81C560.384 2029.98 482.991 1870.03 420.237 1714.42L418.34 1709.7C355.245 1552.61 307.071 1400.98 313.9 1235.26C320.876 1069.81 383.479 889.929 512.268 784.803C640.223 680.836 833.66 649.807 1009.76 638.305L1015.09 637.962C1192.46 626.462 1351.6 634.17 1501.21 679.715C1650.82 725.26 1790.9 808.643 1862.78 932.52C1934.51 1056.12 1937.57 1220.11 1891.82 1369.89ZM1441.91 1149.47L1436.65 1141.72C1396.61 1083.13 1354.53 1031.11 1295.28 994.392C1234.15 956.594 1154.41 935.27 1085.58 955.94C1018.23 976.331 961.029 1036.99 914.74 1096.73L911.565 1100.85C864.661 1161.78 829.056 1220.84 809.345 1285.7C789.633 1350.55 785.815 1421.2 812.996 1477.21C840.113 1533.09 898.301 1574.14 963.155 1594.19C1026.9 1613.79 1096.97 1612.83 1169.79 1602.55L1173.38 1602.03C1247.48 1591.28 1323.95 1570.98 1389.01 1526.28C1454.2 1481.51 1507.64 1412.35 1514.66 1344.14C1521.41 1276.61 1482.66 1209.89 1441.91 1149.47V1149.47Z" fill="#FFF5F3"/></g></g><ellipse id="Floor" opacity="0.5" cx="1982" cy="3206" rx="1602" ry="58" fill="#D5ECFF"/><g id="Paper Plane"><path id="Triangle" fill-rule="evenodd" clip-rule="evenodd" d="M350.986 1670.76L3301.76 1584.97L3018.43 2948.37L350.986 1670.76Z" fill="#DDB0C8"/><path id="Triangle_2" fill-rule="evenodd" clip-rule="evenodd" d="M350.986 1670.76L3575.86 1407.87L3325.88 1978.86L3661.16 2846.57L350.986 1670.76Z" fill="#EECCDC"/><path id="Path 4" fill-rule="evenodd" clip-rule="evenodd" d="M351.684 1670.39L3326.12 1978.49L3661.36 2846.12L351.684 1670.39Z" fill="#FAEFF4"/></g><g id="Master/Character/Sitting On Floor [colors]" transform="matrix(-0.992546 -0.121869 -0.121869 0.992546 3641.33 -382.32) scale(1 1)"><g id="Master/Character/Sitting On Floor [colors]"><g id="Upper Body" transform="translate(911 1329) scale(1 1)"><g id="Upper Body/With Phone"><path id="Neck" fill-rule="evenodd" clip-rule="evenodd" d="M724.954 220C724.954 220 721.263 301.153 673.924 329.8C630.973 355.791 721.969 506.61 819.858 497.614C873.442 492.688 886 346.158 886 346.158C886 346.158 842.734 337.797 858.716 271.819L724.954 220Z" fill="#7d4439"/><path id="Head" fill-rule="evenodd" clip-rule="evenodd" d="M803.337 302.516C739.877 294.841 694.078 253.116 687.665 183.898C669.216 186.835 664.865 138.765 670.003 123.323C675.146 107.859 691.933 116.901 691.933 116.901C691.933 116.901 693.327 113.235 694.303 109.226C722.025 -4.48555 799.67 0.0243587 799.67 0.0243587C942.344 7.45716 908.914 153.12 900.763 191.763C892.611 230.41 864.684 309.927 803.337 302.516Z" fill="#7d4439"/><g id="Group 20"><path id="Fill 1" fill-rule="evenodd" clip-rule="evenodd" d="M571.502 659.244L535.484 996.363C535.484 996.363 791.926 1042.47 1013.79 970.431L1026.76 673.651L571.502 659.244Z" fill="black"/><g id="Group 3"><mask id="mask095e9a6ec-28f6-4804-b55f-0026c8646f28" mask-type="alpha" maskUnits="userSpaceOnUse" x="427" y="326" width="705" height="617" fill="#ffffff"><path id="Clip 2" fill-rule="evenodd" clip-rule="evenodd" d="M427 326H1131.39V942.484H427V326Z" fill="#ffffff"/></mask><g mask="url(#mask095e9a6ec-28f6-4804-b55f-0026c8646f28)"><path id="Fill 1_2" fill-rule="evenodd" clip-rule="evenodd" d="M537.224 897.212C537.224 897.212 414.024 820.392 428.124 695.802C442.224 571.212 494.746 401.12 584.985 366.166C675.224 331.212 678.059 326 678.059 326C678.059 326 714.224 373.212 777.224 376.212C840.224 379.212 881.224 344.212 881.224 344.212C881.224 344.212 1004.95 373.683 1040.59 429.447C1076.22 485.212 1167.22 734.212 1116.22 813.212C1065.22 892.212 966.594 915.231 966.594 915.231C966.594 915.231 665.224 987.212 537.224 897.212" fill="black"/></g></g><path id="Fill 4" fill-rule="evenodd" clip-rule="evenodd" d="M714.223 667.996L713.314 587.996C713.314 587.996 710.587 570.996 736.951 569.996C763.314 568.996 834.223 567.996 834.223 567.996C834.223 567.996 851.496 563.996 852.405 588.996C853.314 613.996 854.223 699.996 854.223 699.996L745.132 730.996L704.223 728.996L714.223 667.996Z" fill="#204EB2"/><path id="Fill 6" fill-rule="evenodd" clip-rule="evenodd" d="M704.809 728.525L745.077 730.493L853.721 699.62C853.653 693.343 852.775 612.874 851.908 589.015C851.59 580.297 849.251 574.21 844.955 570.921C840.103 567.205 834.396 568.469 834.338 568.484L834.232 568.497C833.523 568.506 763.027 569.508 736.972 570.497C727.395 570.86 720.631 573.364 716.868 577.938C713.026 582.609 713.801 587.866 713.809 587.919L714.726 668.035L714.719 668.078L704.809 728.525ZM745.192 731.5L745.11 731.496L703.641 729.468L713.725 667.959L712.816 588.003C712.785 587.844 711.96 582.346 716.082 577.32C720.032 572.504 727.047 569.872 736.934 569.497C762.705 568.519 831.913 567.53 834.167 567.498C834.826 567.356 840.543 566.282 845.563 570.127C850.108 573.606 852.579 579.949 852.907 588.978C853.806 613.699 854.716 699.131 854.725 699.992L854.729 700.374L854.362 700.477L745.192 731.5Z" fill="black"/><path id="Fill 8" fill-rule="evenodd" clip-rule="evenodd" d="M713.283 590.988L713.223 577.212C713.223 577.212 713.223 566.212 728.223 565.212C743.223 564.212 832.223 562.212 832.223 562.212C832.223 562.212 844.223 561.212 849.223 568.212C854.223 575.212 852.636 592.229 852.636 592.229C852.636 592.229 852.079 568.382 832.152 568.797C812.223 569.212 734.698 570.814 734.698 570.814C734.698 570.814 714.343 568.763 713.283 590.988" fill="#56ACF6"/><path id="Fill 10" fill-rule="evenodd" clip-rule="evenodd" d="M832.661 568.292C846.248 568.292 850.829 579.569 852.367 586.641C852.401 581.096 851.882 572.794 848.817 568.503C844.037 561.812 832.381 562.698 832.265 562.71C831.345 562.731 743.074 564.723 728.257 565.711C722.286 566.108 717.881 568.235 715.517 571.86C713.744 574.579 713.723 577.186 713.723 577.212L713.755 584.521C714.832 580.577 716.762 577.392 719.526 575.01C725.919 569.498 734.39 570.281 734.748 570.317C734.688 570.314 812.213 568.712 832.141 568.297C832.315 568.293 832.49 568.292 832.661 568.292M853.134 592.276L852.136 592.241C852.134 592.183 851.965 586.287 849.398 580.535C845.996 572.91 840.206 569.118 832.162 569.297C812.234 569.712 734.708 571.314 734.708 571.314C734.566 571.303 726.232 570.544 720.171 575.773C716.253 579.155 714.103 584.282 713.783 591.012L712.783 590.99L712.723 577.214C712.723 577.098 712.9 565.732 728.19 564.713C743.03 563.724 831.322 561.732 832.212 561.712C832.684 561.672 844.523 560.772 849.63 567.921C854.681 574.991 853.199 591.573 853.134 592.276" fill="black"/><path id="Fill 12" fill-rule="evenodd" clip-rule="evenodd" d="M714.437 635.972C714.437 635.972 700.014 645.244 695.378 650.91C690.742 656.576 694.863 657.607 684.561 668.424C674.259 679.242 655.715 706.542 688.166 748.266C720.619 789.99 731.436 786.383 744.829 779.172C758.221 771.96 759.767 766.81 785.007 764.234C810.247 761.659 834.457 736.933 833.942 730.752L833.427 724.571C833.427 724.571 856.606 715.814 855.062 706.027C853.516 696.24 846.82 697.27 846.82 697.27C846.82 697.27 851.456 692.634 847.85 684.392C844.244 676.151 827.246 677.696 807.671 680.272C788.098 682.847 737.617 693.149 734.526 691.089C731.436 689.029 732.466 685.938 744.313 684.392C756.161 682.847 804.066 682.332 804.066 668.939C804.066 655.546 789.643 652.971 761.827 653.486C734.011 654.001 728.86 652.455 722.164 655.032L715.467 657.607L714.437 635.972Z" fill="#7d4439"/><path id="Fill 14" fill-rule="evenodd" clip-rule="evenodd" d="M847.224 697.212C847.224 697.212 848.704 696.144 837.681 700.353C833.667 701.885 828.007 703.484 820.033 704.996C790.156 710.662 743.282 720.965 728.859 723.025C714.435 725.086 726.283 728.176 759.25 721.48C792.217 714.783 831.462 705.8 833.224 705.212C836.224 704.212 845.224 701.212 847.224 697.212" fill="black"/><path id="Fill 16" fill-rule="evenodd" clip-rule="evenodd" d="M822.607 727.661C822.607 727.661 798.223 736.212 786.223 739.212C773.482 742.397 763.885 746.72 761.31 742.599C758.734 738.478 755.643 737.448 755.643 737.448L751.523 742.084C751.523 742.084 752.223 747.212 749.977 747.75C745.97 748.711 738.129 750.326 738.129 750.326C738.129 750.326 738.223 753.212 762.223 748.212C768.178 746.972 779.223 745.212 786.223 743.212C792.662 741.372 815.911 735.388 819.002 732.812C822.092 730.236 822.607 727.661 822.607 727.661" fill="black"/><path id="Fill 18" fill-rule="evenodd" clip-rule="evenodd" d="M746.888 725.086C746.888 725.086 746.508 745.829 752.364 745.502C758.221 745.175 760.281 745.175 761.311 743.629C762.342 742.084 759.766 736.933 759.766 731.267C759.766 725.601 759.766 723.025 755.13 723.54C750.494 724.056 747.403 724.056 746.888 725.086" fill="#F9C818"/></g></g></g><g id="Lower Body/Sitting on Floor" transform="matrix(-1 0 0 1 2330 1832) scale(1 1)"><g id="Lower Body/Sitting on Floor/Legs Crossed 3"><g id="Group 46"><path id="Fill 1" fill-rule="evenodd" clip-rule="evenodd" d="M652.882 663.558C652.882 663.558 610.128 682.102 604.977 674.89C599.826 667.679 644.125 712.494 644.125 712.494L676.062 694.464L652.882 663.558Z" fill="#7d4439"/><path id="Stroke 3 (Stroke)" fill-rule="evenodd" clip-rule="evenodd" d="M654.872 663.558L679.787 696.778L645.364 716.211L644.559 715.396L645.625 714.341C644.559 715.396 644.559 715.396 644.559 715.396L644.063 714.895C643.74 714.569 643.267 714.091 642.667 713.486C641.466 712.275 639.757 710.554 637.721 708.51C633.65 704.423 628.277 699.05 623.066 693.903C617.851 688.752 612.81 683.84 609.4 680.67C608.93 680.233 608.496 679.834 608.1 679.475C606.962 679.14 605.941 678.567 605.257 677.609M609.545 676.738C608.72 676.002 608.048 675.431 607.577 675.08C607.383 674.936 607.159 674.779 606.94 674.667C606.847 674.619 606.638 674.517 606.372 674.473C606.158 674.438 605.291 674.366 604.788 675.189C604.587 675.518 604.558 675.838 604.561 676.024C604.563 676.215 604.599 676.37 604.626 676.465C604.679 676.654 604.758 676.813 604.811 676.914C604.926 677.129 605.084 677.368 605.257 677.609M609.545 676.738C609.738 676.774 609.949 676.805 610.179 676.83C611.653 676.993 613.598 676.88 615.909 676.527C620.516 675.821 626.249 674.211 631.892 672.351C637.52 670.497 642.995 668.416 647.067 666.796C649.102 665.987 650.784 665.294 651.957 664.804C652.543 664.559 653.001 664.365 653.313 664.232C653.468 664.166 653.587 664.115 653.667 664.08L653.756 664.042L653.785 664.029C653.785 664.029 653.785 664.029 654.382 665.405L653.785 664.029L654.872 663.558M653.888 667.247C653.662 667.342 653.403 667.451 653.114 667.572C651.928 668.068 650.229 668.767 648.176 669.584C644.071 671.216 638.536 673.321 632.831 675.201C627.141 677.076 621.22 678.749 616.362 679.492C615.165 679.675 614.012 679.806 612.928 679.866C616.265 683.018 620.664 687.314 625.174 691.768C630.393 696.923 635.773 702.303 639.847 706.393C641.884 708.438 643.595 710.162 644.797 711.374C645.228 711.808 645.594 712.178 645.886 712.472L675.337 695.845L653.888 667.247ZM607.462 675.508C607.462 675.508 607.462 675.508 607.462 675.508C607.458 675.5 607.457 675.5 607.462 675.508Z" fill="black"/><path id="Fill 5" fill-rule="evenodd" clip-rule="evenodd" d="M310.336 686.223C310.336 686.223 247.493 722.795 297.458 779.972C347.423 837.149 524.105 798.001 524.105 798.001L528.741 775.336C528.741 775.336 351.029 689.314 310.336 686.223" fill="#F0ECEC"/><path id="Fill 7" fill-rule="evenodd" clip-rule="evenodd" d="M310.336 686.223C310.336 686.223 285.611 691.373 277.884 719.704C270.158 748.036 287.189 781.029 312.155 792.09C312.155 792.09 280.291 721.375 336.264 692.209L310.336 686.223Z" fill="#E0D3CC"/><path id="Fill 9" fill-rule="evenodd" clip-rule="evenodd" d="M330.523 800.127C330.523 800.127 353.089 754.218 363.391 755.248C373.693 756.278 485.214 762.067 496.418 759.945L533.376 774.821L526.841 798.405C526.841 798.405 389.344 830.584 330.523 800.127" fill="#E7DADA"/><path id="Fill 11" fill-rule="evenodd" clip-rule="evenodd" d="M360.818 713.524C360.818 713.524 352.576 773.276 364.423 773.276C376.271 773.276 379.362 706.312 381.422 729.492C383.483 752.671 385.028 782.033 392.755 773.276C400.481 764.519 384.513 699.616 391.209 717.644C397.905 735.673 402.026 769.67 412.844 769.155C423.661 768.64 408.723 734.128 414.389 733.097C420.055 732.067 431.387 777.912 441.174 772.246C450.962 766.58 432.933 728.977 443.235 742.884C453.537 756.793 456.628 773.276 465.9 771.215C475.172 769.155 464.869 751.127 459.203 742.37C453.537 733.613 366.484 700.13 363.908 704.252C361.333 708.373 360.818 713.524 360.818 713.524" fill="#F9F9F9"/><g id="Group 15"><path id="Fill 13" fill-rule="evenodd" clip-rule="evenodd" d="M493.714 772.246C493.714 772.246 285.611 711.978 188.771 635.227C91.9312 558.476 35.7842 483.786 90.3852 399.824C144.986 315.861 273.248 379.734 335.061 407.035C396.874 434.336 599.57 472.945 696.28 472.7C792.991 472.454 922.798 465.242 990.277 445.153C1057.76 425.064 1165.41 394.673 1198.38 476.575C1231.35 558.476 1192.71 638.834 1136.05 666.134C1079.39 693.434 904.769 752.157 815.141 746.491L725.512 740.824C725.512 740.824 686.879 698.071 697.181 635.743L643.095 674.891C643.095 674.891 612.189 674.376 600.856 670.255C589.524 666.134 526.681 817.06 493.714 772.246" fill="#E93737"/></g><path id="Fill 16" fill-rule="evenodd" clip-rule="evenodd" d="M548.83 779.458C548.83 779.458 639.489 812.939 661.123 826.848C682.758 840.756 727.572 852.603 749.207 837.665C770.841 822.727 757.964 748.552 757.964 748.552C757.964 748.552 685.333 732.067 677.092 720.735C668.85 709.403 602.916 671.801 602.916 671.801L548.83 779.458Z" fill="#7d4439"/><path id="Fill 18" fill-rule="evenodd" clip-rule="evenodd" d="M750.197 754.419C750.197 754.419 754.874 742.369 769.297 744.944C783.72 747.521 918.163 732.582 956.796 721.765C995.428 710.947 1077.33 787.698 1041.79 841.784C1006.25 895.871 957.826 870.115 914.042 866.51C870.258 862.904 785.265 875.267 766.206 869.085C747.147 862.904 728.088 851.571 727.573 838.179C727.058 824.786 750.197 754.419 750.197 754.419" fill="#F0ECEC"/><path id="Fill 20" fill-rule="evenodd" clip-rule="evenodd" d="M946.766 728.819C946.766 728.819 1003.67 756.793 1013.97 795.425C1024.27 834.058 1019.49 864.984 1019.49 864.984C1019.49 864.984 1073.49 839.54 1042.7 779.107C1011.91 718.674 963.523 713.708 946.766 722.63C930.009 731.552 946.766 728.819 946.766 728.819" fill="#E0D3CC"/><path id="Fill 22" fill-rule="evenodd" clip-rule="evenodd" d="M940.464 727.512C940.464 727.512 917.131 764.519 914.041 791.304C914.041 791.304 916.101 796.455 890.346 795.941C864.59 795.425 744.517 769.076 744.517 769.076C744.517 769.076 718.688 830.95 728.024 846.927C737.359 862.905 914.041 832.513 914.041 832.513C914.041 832.513 921.252 828.392 925.888 831.998C930.524 835.604 954.46 868.63 987.306 875.296C987.306 875.296 936.19 847.966 932.069 811.908C927.948 775.851 940.464 727.512 940.464 727.512" fill="#EEDFD9"/><path id="Fill 24" fill-rule="evenodd" clip-rule="evenodd" d="M770.842 765.035C770.842 765.035 772.387 800.061 765.691 819.636C758.994 839.21 753.433 856.283 764.97 854.185C776.508 852.088 788.871 774.306 782.175 767.61C775.478 760.914 771.357 758.853 770.842 765.035" fill="white"/><path id="Fill 26" fill-rule="evenodd" clip-rule="evenodd" d="M789.9 769.155C789.9 769.155 791.445 804.182 784.749 823.757C778.052 843.331 772.491 860.403 784.028 858.305C795.566 856.209 807.929 778.427 801.232 771.731C794.536 765.035 790.415 762.974 789.9 769.155" fill="white"/><path id="Fill 28" fill-rule="evenodd" clip-rule="evenodd" d="M857.379 770.385C857.379 770.385 858.924 802.423 852.228 820.326C845.531 838.23 839.97 853.846 851.507 851.927C863.045 850.008 875.408 778.865 868.711 772.74C862.015 766.615 857.894 764.731 857.379 770.385" fill="white"/><path id="Fill 30" fill-rule="evenodd" clip-rule="evenodd" d="M883.135 774.281C883.135 774.281 884.68 804.185 877.984 820.896C871.287 837.608 865.726 852.183 877.263 850.393C888.801 848.602 901.164 782.197 894.467 776.48C887.771 770.762 883.65 769.004 883.135 774.281" fill="white"/><path id="Fill 32" fill-rule="evenodd" clip-rule="evenodd" d="M901.643 772.124C901.643 772.124 907.419 801.505 903.164 818.998C898.909 836.491 895.474 851.709 906.64 848.298C917.806 844.887 920.613 777.398 913.173 772.69C905.732 767.982 901.403 766.826 901.643 772.124" fill="white"/><path id="Fill 34" fill-rule="evenodd" clip-rule="evenodd" d="M813.854 771.405C813.854 771.405 811.809 806.407 803.146 825.194C794.482 843.98 787.204 860.394 798.896 859.488C810.587 858.582 830.84 782.472 824.864 775.127C818.887 767.78 814.999 765.309 813.854 771.405" fill="white"/><path id="Fill 36" fill-rule="evenodd" clip-rule="evenodd" d="M823.955 770.756C823.955 770.756 830.916 805.119 827.338 825.495C823.759 845.871 820.914 863.601 831.987 859.738C843.059 855.876 843.204 777.118 835.55 771.542C827.895 765.966 823.505 764.569 823.955 770.756" fill="white"/><path id="Fill 38" fill-rule="evenodd" clip-rule="evenodd" d="M746.711 766.726C746.711 766.726 779.083 773.791 772.387 812.939C765.69 852.087 725.013 841.055 725.013 841.055C725.013 841.055 715.37 776.66 746.711 766.726" fill="white"/><path id="Stroke 40" d="M291.065 424.357L575.396 648.638L636.95 674.564L702.127 633.966L925.942 492.37L928.081 495.75L704.254 637.354L637.307 679.054L573.345 652.114L288.588 427.497L291.065 424.357Z" fill="black"/><path id="Fill 42" fill-rule="evenodd" clip-rule="evenodd" d="M709.028 612.563C709.028 612.563 662.669 625.44 649.791 647.59C636.913 669.74 641.034 707.857 679.152 723.826C717.27 739.794 732.723 753.187 722.936 727.947C713.149 702.707 695.12 656.346 709.028 612.563" fill="#F0ECEC"/><path id="Fill 44" fill-rule="evenodd" clip-rule="evenodd" d="M574.07 641.923C574.07 641.923 569.434 693.434 541.103 733.612C512.773 773.791 487.532 777.911 496.804 787.698C506.076 797.485 520.499 802.121 529.771 814.485C539.043 826.847 538.528 826.331 560.162 800.576C581.797 774.82 629.187 717.644 630.217 666.649C630.217 666.649 578.191 624.925 574.07 641.923" fill="#F0ECEC"/></g></g></g><g id="Expression" transform="translate(1633 1412) scale(1 1)"><g id="Expression/Happy"><g id="Group 124"><path id="Stroke 114" d="M123.94 52.5157L127.749 53.7377L127.377 54.9309C127.077 55.9043 126.744 57.0179 126.384 58.2529C125.356 61.7838 124.327 65.5761 123.368 69.4789C122.301 73.8176 121.387 78.025 120.672 81.9977L120.465 83.174C118.727 93.2776 118.482 100.993 120.034 105.142L120.126 105.377C129.004 127.34 116.948 138.478 91.6439 130.679L90.873 130.437L92.0921 126.627C114.886 133.921 124.027 125.703 116.417 106.876C114.322 101.694 114.645 92.8993 116.735 81.289C117.466 77.2272 118.398 72.9394 119.483 68.524C120.349 65.0028 121.269 61.5728 122.196 58.3381L122.543 57.1345C122.752 56.4176 122.952 55.7406 123.143 55.1068L123.631 53.5024L123.94 52.5157Z" fill="black"/><path id="Stroke 122" d="M25.1855 205.534L27.1425 202.046L27.8567 202.435L28.5118 202.783C29.5036 203.305 30.6327 203.881 31.8877 204.498L32.4332 204.765C36.6543 206.821 41.3224 208.878 46.301 210.798C57.7489 215.212 69.0606 218.225 79.5848 219.202C84.3541 219.645 88.8741 219.656 93.1069 219.202L93.9496 219.105L94.4385 223.075C89.6635 223.663 84.5751 223.683 79.2149 223.185C68.2771 222.169 56.6257 219.066 44.8619 214.53C39.7712 212.567 35.0001 210.465 30.6815 208.361L29.0484 207.554C28.354 207.206 27.7021 206.873 27.0948 206.556L25.9633 205.958L25.1855 205.534Z" fill="black"/></g><g id="Group 16"><path id="Fill 3" fill-rule="evenodd" clip-rule="evenodd" d="M94.7153 165.02C76.4873 160.136 64.9813 148.104 64.443 147.532C63.3072 146.327 63.3646 144.428 64.5708 143.291C65.7746 142.156 67.674 142.212 68.8105 143.418C69.0384 143.657 82.5828 157.683 102.678 160.536C104.307 160.767 105.459 162.287 105.227 163.928C104.995 165.568 103.475 166.71 101.835 166.476C99.3642 166.127 96.9862 165.628 94.7153 165.02" fill="black"/><path id="Fill 5" fill-rule="evenodd" clip-rule="evenodd" d="M105.825 133.166C101.782 133.166 96.7384 132.375 90.4434 130.361L91.6614 126.551C103.385 130.302 112.045 129.996 116.046 125.687C119.449 122.02 119.428 115.313 115.987 106.801C113.652 101.026 114.229 90.0734 117.702 74.2454C120.243 62.6624 123.477 52.5414 123.51 52.4404L127.318 53.6624C123.811 64.5954 115.606 95.1874 119.695 105.302C124.893 118.16 122.174 124.964 118.977 128.408C116.697 130.866 112.718 133.166 105.825 133.166" fill="black"/><g id="Group 9"><path id="Fill 7" fill-rule="evenodd" clip-rule="evenodd" d="M89.1393 50.3876C88.5383 50.3876 87.9263 50.2876 87.3273 50.0786C81.4913 48.0426 64.6343 42.6306 56.8223 42.0526C49.4663 41.5076 38.2433 45.1416 34.5393 46.5886C31.7103 47.6926 28.5213 46.2976 27.4153 43.4706C26.3083 40.6426 27.7013 37.4546 30.5283 36.3456C31.1643 36.0966 46.2603 30.2396 57.6343 31.0826C68.4893 31.8866 90.0393 39.3746 90.9513 39.6936C93.8193 40.6946 95.3323 43.8306 94.3323 46.6986C93.5403 48.9666 91.4133 50.3876 89.1393 50.3876" fill="black"/></g><path id="Fill 10" fill-rule="evenodd" clip-rule="evenodd" d="M181.678 69.1645C180.576 69.1645 179.464 68.8265 178.507 68.1245C175.448 65.8845 166.003 59.8175 159.138 58.6695C151.813 57.4455 134.961 58.8295 129.085 59.4645C126.138 59.7795 123.489 57.6525 123.17 54.7055C122.85 51.7575 124.981 49.1085 127.928 48.7895C128.85 48.6895 150.629 46.3615 160.908 48.0795C171.716 49.8855 184.329 59.0775 184.861 59.4685C187.25 61.2235 187.765 64.5835 186.01 66.9735C184.958 68.4055 183.329 69.1645 181.678 69.1645" fill="black"/><path id="Fill 12" fill-rule="evenodd" clip-rule="evenodd" d="M78.6366 79.1289C77.9116 79.1289 77.1856 78.8679 76.6096 78.3389C76.5716 78.3049 71.6246 73.9129 64.4836 74.1789C57.0946 74.4519 52.1896 78.0669 52.1406 78.1029C50.8186 79.0929 48.9396 78.8329 47.9446 77.5169C46.9476 76.1999 47.1966 74.3309 48.5086 73.3279C48.7646 73.1319 54.8866 68.5299 64.2616 68.1829C73.9106 67.8359 80.3946 73.6699 80.6656 73.9189C81.8866 75.0389 81.9686 76.9369 80.8476 78.1569C80.2566 78.8019 79.4476 79.1289 78.6366 79.1289" fill="black"/><path id="Fill 14" fill-rule="evenodd" clip-rule="evenodd" d="M162.754 88.2724C162.029 88.2724 161.303 88.0114 160.727 87.4824C160.689 87.4484 155.742 83.0504 148.6 83.3224C141.231 83.5944 136.317 87.2014 136.27 87.2374C134.953 88.2444 133.07 87.9924 132.064 86.6764C131.058 85.3604 131.309 83.4774 132.625 82.4714C132.881 82.2754 139.004 77.6724 148.379 77.3264C158.024 76.9814 164.512 82.8134 164.783 83.0624C166.004 84.1824 166.086 86.0804 164.965 87.3004C164.374 87.9454 163.565 88.2724 162.754 88.2724" fill="black"/></g></g></g><g id="Hairstyle" transform="translate(1142 1085) scale(1 1)"><g id="Hairstyle/Long Redhead"><g id="Group 3"><path id="Fill 1" fill-rule="evenodd" clip-rule="evenodd" d="M435.818 257.66C367.824 362.743 409.033 430.222 351.856 547.151C294.678 664.08 325.07 711.985 325.07 711.985C325.07 711.985 351.856 730.116 389.503 738.978C419.323 745.998 489.122 747 489.122 747C489.122 747 459.775 671.116 499.775 558.116C535.534 457.095 443.376 392.1 479.775 365.116C537.775 322.116 601.09 253.845 601.09 253.845C601.09 253.845 685.477 269.338 667.017 409.533C667.017 409.533 650.102 522.941 593.955 545.606C593.955 545.606 618.643 685.859 661.58 719.229C704.517 752.599 780.92 748 821 747C821 747 830.775 643.115 795.775 594.116C754.404 536.198 702.967 545.791 709.775 376.116C712.137 317.215 666.071 194.303 596.016 207.18C596.016 207.18 503.812 152.579 435.818 257.66Z" fill="#ffc943"/></g></g></g><g id="Accessories" transform="translate(1586 1445) scale(234 78)"><g id="Accessories/None" stroke="none" stroke-width="1" fill="none" fill-rule="evenodd" fill-opacity="0"/></g><g id="Facial Hair" transform="translate(1596 1446) scale(212 211)"><g id="Facial Hair/None" stroke="none" stroke-width="1" fill="none" fill-rule="evenodd" fill-opacity="0"/></g></g></g></g></svg>