<svg viewBox="297.22500000000036 569.102564102564 3368.5500000000006 2721.794871794873" fill="none" xmlns="http://www.w3.org/2000/svg" xmlns:xlink="http://www.w3.org/1999/xlink" overflow="visible" width="3368.5500000000006px" height="2721.794871794873px"><g id="Master/Spot Illustration/Home Garden"><g id="Blobs" opacity="0.5" transform="matrix(-1 0 0 1 3105 0) scale(1 1)"><g id="Blobs/4"><path id="Shape" fill-rule="evenodd" clip-rule="evenodd" d="M1891.82 1369.89C1845.91 1519.39 1750.9 1654.13 1634.23 1782.05C1517.57 1909.98 1379.58 2030.22 1209.72 2097.28C1039.55 2164.5 837.973 2177.95 698.398 2103.81C560.384 2029.98 482.991 1870.03 420.237 1714.42L418.34 1709.7C355.245 1552.61 307.071 1400.98 313.9 1235.26C320.876 1069.81 383.479 889.929 512.268 784.803C640.223 680.836 833.66 649.807 1009.76 638.305L1015.09 637.962C1192.46 626.462 1351.6 634.17 1501.21 679.715C1650.82 725.26 1790.9 808.643 1862.78 932.52C1934.51 1056.12 1937.57 1220.11 1891.82 1369.89ZM1441.91 1149.47L1436.65 1141.72C1396.61 1083.13 1354.53 1031.11 1295.28 994.392C1234.15 956.594 1154.41 935.27 1085.58 955.94C1018.23 976.331 961.029 1036.99 914.74 1096.73L911.565 1100.85C864.661 1161.78 829.056 1220.84 809.345 1285.7C789.633 1350.55 785.815 1421.2 812.996 1477.21C840.113 1533.09 898.301 1574.14 963.155 1594.19C1026.9 1613.79 1096.97 1612.83 1169.79 1602.55L1173.38 1602.03C1247.48 1591.28 1323.95 1570.98 1389.01 1526.28C1454.2 1481.51 1507.64 1412.35 1514.66 1344.14C1521.41 1276.61 1482.66 1209.89 1441.91 1149.47V1149.47Z" fill="#FFF5F3"/></g></g><ellipse id="Floor" opacity="0.5" cx="1982" cy="3206" rx="1602" ry="58" fill="#D5ECFF"/><g id="Tall Vase Plant" transform="translate(2356 859) scale(1 1)"><g id="Tall Vase Plant/Plant 6"><g id="Group 21"><g id="Group 3"><mask id="mask08b079de3-2d75-4a46-8c72-899e4d71c1d7" mask-type="alpha" maskUnits="userSpaceOnUse" x="292" y="633" width="519" height="875" fill="#ffffff"><path id="Clip 2" fill-rule="evenodd" clip-rule="evenodd" d="M292.504 633.003H810.705V1507.13H292.504V633.003Z" fill="#ffffff"/></mask><g mask="url(#mask08b079de3-2d75-4a46-8c72-899e4d71c1d7)"><path id="Fill 1" fill-rule="evenodd" clip-rule="evenodd" d="M354.376 1310.14C354.376 1310.14 308.81 1224.14 335.956 1120.14C363.102 1016.14 267.121 921.144 299.115 840.144C331.108 759.144 390.248 639.144 390.248 639.144C390.248 639.144 539.551 605.144 593.842 697.144C648.134 789.144 753.81 808.144 746.054 906.144C738.298 1004.14 736.359 1033.14 791.62 1084.14C846.882 1135.14 760.596 1366.14 799.376 1480.14C838.156 1594.14 354.376 1310.14 354.376 1310.14" fill="#E93737"/></g></g><path id="Fill 4" fill-rule="evenodd" clip-rule="evenodd" d="M390.247 639.144C390.247 639.144 498.831 740.144 540.519 971.144C582.208 1202.14 623.509 1250.95 608.676 1438.05C602.567 1450.14 354.375 1310.14 354.375 1310.14C354.375 1310.14 312.687 1243.14 317.534 1177.14C322.382 1111.14 349.567 1047.79 306.404 960.467C263.242 873.144 281.663 822.144 390.247 639.144" fill="#EC7070"/><path id="Fill 6" fill-rule="evenodd" clip-rule="evenodd" d="M769.322 1243.14C769.322 1243.14 824.583 1250.14 824.583 1327.14V1738.14L644.257 1742.14C644.257 1742.14 588.026 1625.14 491.076 1587.14C394.126 1549.14 621.958 1262.14 621.958 1262.14C621.958 1262.14 738.298 1224.14 769.322 1243.14" fill="#0A4343"/><path id="Fill 8" fill-rule="evenodd" clip-rule="evenodd" d="M161.445 1227.14C161.445 1227.14 115.879 1258.14 128.482 1324.14C141.086 1390.14 157.567 1408.14 119.757 1472.14C81.9465 1536.14 58.6786 1690.14 178.896 1838.14C178.896 1838.14 306.87 1864.14 371.827 1772.14C436.783 1680.14 428.058 1648.14 536.642 1607.14C645.225 1566.14 578.33 1338.14 649.103 1292.14C719.877 1246.14 748.962 1237.14 748.962 1237.14L161.445 1227.14Z" fill="#1BC0D7"/><g id="Group 12"><mask id="mask18b079de3-2d75-4a46-8c72-899e4d71c1d7" mask-type="alpha" maskUnits="userSpaceOnUse" x="71" y="1227" width="325" height="612" fill="#ffffff"><path id="Clip 11" fill-rule="evenodd" clip-rule="evenodd" d="M71.7422 1227.14H395.063V1838.14H71.7422V1227.14Z" fill="#ffffff"/></mask><g mask="url(#mask18b079de3-2d75-4a46-8c72-899e4d71c1d7)"><path id="Fill 10" fill-rule="evenodd" clip-rule="evenodd" d="M161.447 1227.14C161.447 1227.14 109.094 1249.14 128.484 1324.14C147.874 1399.14 127.514 1396.14 80.9782 1528.14C34.4422 1660.14 178.898 1838.14 178.898 1838.14C178.898 1838.14 187.623 1666.14 256.457 1568.14C325.292 1470.14 305.836 1264.4 395.063 1232.77L161.447 1227.14Z" fill="#237978"/></g></g><path id="Fill 13" fill-rule="evenodd" clip-rule="evenodd" d="M620.502 1737.37L856.258 1735.49C881.983 1735.29 904.419 1753.48 910.305 1779.31L1005.98 2199.19C1023.08 2274.25 967.861 2346.14 893.106 2346.14H622.019C551.404 2346.14 497.188 2281.59 507.258 2209.49L566.406 1786.08C570.289 1758.28 593.277 1737.58 620.502 1737.37" fill="#FC7750"/><path id="Fill 15" fill-rule="evenodd" clip-rule="evenodd" d="M828.461 1458.14C828.461 1458.14 707.274 1670.14 795.498 1778.14C883.723 1886.14 957.405 1863.14 987.459 1987.14C1017.51 2111.14 1245.35 2028.14 1245.35 2028.14C1245.35 2028.14 1267.64 1907.14 1222.08 1827.14C1176.51 1747.14 1121.25 1756.14 1120.28 1641.14C1119.31 1526.14 1059.2 1454.14 1059.2 1454.14L828.461 1458.14Z" fill="#237978"/><path id="Fill 17" fill-rule="evenodd" clip-rule="evenodd" d="M936.686 1454.93C936.686 1454.93 902.142 1604.14 959.343 1722.14C1016.54 1840.14 1187.18 1882.14 1245.34 2028.14C1245.34 2028.14 1288 1913.14 1240.5 1840.14C1192.99 1767.14 1144.52 1753.14 1135.79 1657.14C1127.07 1561.14 1059.2 1454.14 1059.2 1454.14L936.686 1454.93Z" fill="#1BC0D7"/><path id="Fill 19" fill-rule="evenodd" clip-rule="evenodd" d="M653.221 1737.01H612.146C612.146 1737.01 571.942 1736.92 563.988 1792.53C556.032 1848.14 504.649 2218.14 504.649 2218.14C504.649 2218.14 498.832 2271.14 525.977 2300.14C553.123 2329.14 573.096 2345.8 614.978 2346.97C614.978 2346.97 576.391 2295.14 580.269 2207.14C584.147 2119.14 625.836 1826.14 625.836 1826.14C625.836 1826.14 635.039 1743.89 653.221 1737.01" fill="#FEA78D"/></g></g></g><g id="Tall Vase Plant" transform="translate(231 859) scale(1 1)"><g id="Tall Vase Plant/Plant 6"><g id="Group 21"><g id="Group 3"><mask id="mask08b079de3-2d75-4a46-8c72-899e4d71c1d7" mask-type="alpha" maskUnits="userSpaceOnUse" x="292" y="633" width="519" height="875" fill="#ffffff"><path id="Clip 2" fill-rule="evenodd" clip-rule="evenodd" d="M292.504 633.003H810.705V1507.13H292.504V633.003Z" fill="#ffffff"/></mask><g mask="url(#mask08b079de3-2d75-4a46-8c72-899e4d71c1d7)"><path id="Fill 1" fill-rule="evenodd" clip-rule="evenodd" d="M354.376 1310.14C354.376 1310.14 308.81 1224.14 335.956 1120.14C363.102 1016.14 267.121 921.144 299.115 840.144C331.108 759.144 390.248 639.144 390.248 639.144C390.248 639.144 539.551 605.144 593.842 697.144C648.134 789.144 753.81 808.144 746.054 906.144C738.298 1004.14 736.359 1033.14 791.62 1084.14C846.882 1135.14 760.596 1366.14 799.376 1480.14C838.156 1594.14 354.376 1310.14 354.376 1310.14" fill="#E93737"/></g></g><path id="Fill 4" fill-rule="evenodd" clip-rule="evenodd" d="M390.247 639.144C390.247 639.144 498.831 740.144 540.519 971.144C582.208 1202.14 623.509 1250.95 608.676 1438.05C602.567 1450.14 354.375 1310.14 354.375 1310.14C354.375 1310.14 312.687 1243.14 317.534 1177.14C322.382 1111.14 349.567 1047.79 306.404 960.467C263.242 873.144 281.663 822.144 390.247 639.144" fill="#EC7070"/><path id="Fill 6" fill-rule="evenodd" clip-rule="evenodd" d="M769.322 1243.14C769.322 1243.14 824.583 1250.14 824.583 1327.14V1738.14L644.257 1742.14C644.257 1742.14 588.026 1625.14 491.076 1587.14C394.126 1549.14 621.958 1262.14 621.958 1262.14C621.958 1262.14 738.298 1224.14 769.322 1243.14" fill="#0A4343"/><path id="Fill 8" fill-rule="evenodd" clip-rule="evenodd" d="M161.445 1227.14C161.445 1227.14 115.879 1258.14 128.482 1324.14C141.086 1390.14 157.567 1408.14 119.757 1472.14C81.9465 1536.14 58.6786 1690.14 178.896 1838.14C178.896 1838.14 306.87 1864.14 371.827 1772.14C436.783 1680.14 428.058 1648.14 536.642 1607.14C645.225 1566.14 578.33 1338.14 649.103 1292.14C719.877 1246.14 748.962 1237.14 748.962 1237.14L161.445 1227.14Z" fill="#1BC0D7"/><g id="Group 12"><mask id="mask18b079de3-2d75-4a46-8c72-899e4d71c1d7" mask-type="alpha" maskUnits="userSpaceOnUse" x="71" y="1227" width="325" height="612" fill="#ffffff"><path id="Clip 11" fill-rule="evenodd" clip-rule="evenodd" d="M71.7422 1227.14H395.063V1838.14H71.7422V1227.14Z" fill="#ffffff"/></mask><g mask="url(#mask18b079de3-2d75-4a46-8c72-899e4d71c1d7)"><path id="Fill 10" fill-rule="evenodd" clip-rule="evenodd" d="M161.447 1227.14C161.447 1227.14 109.094 1249.14 128.484 1324.14C147.874 1399.14 127.514 1396.14 80.9782 1528.14C34.4422 1660.14 178.898 1838.14 178.898 1838.14C178.898 1838.14 187.623 1666.14 256.457 1568.14C325.292 1470.14 305.836 1264.4 395.063 1232.77L161.447 1227.14Z" fill="#237978"/></g></g><path id="Fill 13" fill-rule="evenodd" clip-rule="evenodd" d="M620.502 1737.37L856.258 1735.49C881.983 1735.29 904.419 1753.48 910.305 1779.31L1005.98 2199.19C1023.08 2274.25 967.861 2346.14 893.106 2346.14H622.019C551.404 2346.14 497.188 2281.59 507.258 2209.49L566.406 1786.08C570.289 1758.28 593.277 1737.58 620.502 1737.37" fill="#FC7750"/><path id="Fill 15" fill-rule="evenodd" clip-rule="evenodd" d="M828.461 1458.14C828.461 1458.14 707.274 1670.14 795.498 1778.14C883.723 1886.14 957.405 1863.14 987.459 1987.14C1017.51 2111.14 1245.35 2028.14 1245.35 2028.14C1245.35 2028.14 1267.64 1907.14 1222.08 1827.14C1176.51 1747.14 1121.25 1756.14 1120.28 1641.14C1119.31 1526.14 1059.2 1454.14 1059.2 1454.14L828.461 1458.14Z" fill="#237978"/><path id="Fill 17" fill-rule="evenodd" clip-rule="evenodd" d="M936.686 1454.93C936.686 1454.93 902.142 1604.14 959.343 1722.14C1016.54 1840.14 1187.18 1882.14 1245.34 2028.14C1245.34 2028.14 1288 1913.14 1240.5 1840.14C1192.99 1767.14 1144.52 1753.14 1135.79 1657.14C1127.07 1561.14 1059.2 1454.14 1059.2 1454.14L936.686 1454.93Z" fill="#1BC0D7"/><path id="Fill 19" fill-rule="evenodd" clip-rule="evenodd" d="M653.221 1737.01H612.146C612.146 1737.01 571.942 1736.92 563.988 1792.53C556.032 1848.14 504.649 2218.14 504.649 2218.14C504.649 2218.14 498.832 2271.14 525.977 2300.14C553.123 2329.14 573.096 2345.8 614.978 2346.97C614.978 2346.97 576.391 2295.14 580.269 2207.14C584.147 2119.14 625.836 1826.14 625.836 1826.14C625.836 1826.14 635.039 1743.89 653.221 1737.01" fill="#FEA78D"/></g></g></g><g id="Tall Vase Plant" transform="translate(504 859) scale(1 1)"><g id="Tall Vase Plant/Plant 5"><g id="Group 31"><g id="Group 3"><mask id="mask0c761423c-69cc-4041-a619-4d145b7c5f90" mask-type="alpha" maskUnits="userSpaceOnUse" x="434" y="-52" width="425" height="792" fill="#ffffff"><path id="Clip 2" fill-rule="evenodd" clip-rule="evenodd" d="M434.199 -51.9951H858.323V739.428H434.199V-51.9951Z" fill="#ffffff"/></mask><g mask="url(#mask0c761423c-69cc-4041-a619-4d145b7c5f90)"><path id="Fill 1" fill-rule="evenodd" clip-rule="evenodd" d="M707.341 739.044C707.341 739.044 553.193 754.518 499.151 589.058C499.151 589.058 474.273 527.121 500.009 522.697C525.743 518.273 564.345 515.619 564.345 507.655C564.345 499.692 432.984 476.352 434.208 389.258C435.431 302.164 431.928 -21.2264 501.99 -50.1334C572.052 -79.0394 799.752 237.125 794.498 298.55C789.243 359.977 733.194 405.143 757.715 410.563C782.237 415.982 808.511 320.231 827.778 379.85C847.045 439.469 928.455 653.802 707.341 739.044" fill="#1BC0D7"/></g></g><path id="Fill 4" fill-rule="evenodd" clip-rule="evenodd" d="M855.115 719.257C855.115 719.257 958.059 798.464 1067.54 699.981C1067.54 699.981 1111.82 665.159 1095.43 650.575C1079.03 635.992 1052.73 617.058 1056.15 611.175C1059.57 605.292 1162.98 645.804 1199.52 580.919C1236.05 516.034 1377.43 278.649 1340.03 226.488C1302.64 174.327 1004.98 307.799 982.331 355.492C959.685 403.185 980.136 461.198 960.375 454.421C940.613 447.644 963.058 365.349 923.756 400.925C884.453 436.502 734.526 559.061 855.115 719.257" fill="#237978"/><g id="Group 8"><mask id="mask1c761423c-69cc-4041-a619-4d145b7c5f90" mask-type="alpha" maskUnits="userSpaceOnUse" x="-12" y="414" width="517" height="359" fill="#ffffff"><path id="Clip 7" fill-rule="evenodd" clip-rule="evenodd" d="M-11.6328 414.322H504.058V772.722H-11.6328V414.322Z" fill="#ffffff"/></mask><g mask="url(#mask1c761423c-69cc-4041-a619-4d145b7c5f90)"><path id="Fill 6" fill-rule="evenodd" clip-rule="evenodd" d="M480.841 730.832C480.841 730.832 461.981 811.639 340.116 748.789C218.25 685.939 231.307 663.493 247.266 650.025C263.225 636.558 321.255 597.651 279.183 605.133C237.111 612.615 231.307 654.515 176.178 630.572C121.049 606.629 -31.2825 465.966 -9.5211 430.052C12.2403 394.138 276.281 419.577 398.146 507.866C520.011 596.154 520.011 691.925 480.841 730.832" fill="#237978"/></g></g><path id="Fill 9" fill-rule="evenodd" clip-rule="evenodd" d="M757.989 1008.12C757.989 1008.12 775.584 1088.93 889.277 1026.08C1002.97 963.227 990.79 940.781 975.901 927.313C961.012 913.846 906.873 874.939 946.124 882.421C985.376 889.903 990.79 931.803 1042.22 907.86C1093.65 883.917 1235.77 743.254 1215.47 707.34C1195.17 671.426 948.831 696.865 835.138 785.154C721.444 873.442 721.444 969.213 757.989 1008.12" fill="#1BC0D7"/><path id="Fill 11" fill-rule="evenodd" clip-rule="evenodd" d="M819.885 1100.87C819.885 1100.87 737.251 1153.39 819.05 1211.93C900.85 1270.48 953.434 1499.49 1022.71 1493.46C1091.99 1487.43 1074.46 1235.18 1067.79 1205.04C1061.11 1174.91 1016.87 1209.35 1013.53 1189.55C1010.19 1169.75 1059.44 1172.33 1059.44 1158.55C1059.44 1144.78 1014.37 999.279 819.885 1100.87" fill="#237978"/><path id="Fill 13" fill-rule="evenodd" clip-rule="evenodd" d="M256.465 1244.03C256.465 1244.03 271.966 1117.72 385.129 1029.78C498.292 941.834 651.759 916.251 681.212 1007.39C710.665 1098.53 526.195 1200.86 493.641 1181.68C461.087 1162.49 409.932 1151.3 420.783 1189.67C431.634 1228.05 358.776 1276.01 256.465 1244.03" fill="#1BC0D7"/><path id="Fill 15" fill-rule="evenodd" clip-rule="evenodd" d="M540.143 879.476C540.143 879.476 248.711 1008.99 124.697 1002.59C0.683307 996.199 157.251 869.882 310.717 829.909C464.185 789.935 540.143 821.914 540.143 879.476" fill="#1BC0D7"/><path id="Fill 17" fill-rule="evenodd" clip-rule="evenodd" d="M619.512 1513.04C619.093 1508.85 609.537 1408.88 634.137 1257.45C648.562 1168.66 671.841 1080.67 703.325 995.943C742.68 890.036 795.04 788.944 858.95 695.473C922.653 602.307 986.221 521.797 1047.89 456.18C1097.42 403.476 1145.89 360.16 1191.96 327.436C1271.72 270.774 1317.2 265.198 1319.09 264.988L1321.57 288.851C1321.22 288.896 1278.26 294.698 1202.49 349.102C1157.89 381.13 1110.86 423.455 1062.7 474.904C1002.47 539.251 940.317 618.116 877.965 709.305C815.165 801.153 763.717 900.481 725.052 1004.53C694.122 1087.77 671.254 1174.2 657.085 1261.41C633.001 1409.67 642.558 1509.58 642.657 1510.57L619.512 1513.04Z" fill="#0A4343"/><path id="Fill 19" fill-rule="evenodd" clip-rule="evenodd" d="M838.212 1664.65L815.088 1661.98C815.169 1661.24 822.955 1585.37 804.833 1460.43C794.19 1387.06 776.829 1311.36 753.228 1235.44C723.725 1140.54 684.334 1045.02 636.146 951.526C588.533 859.151 527.723 775.805 455.404 703.804C397.027 645.683 331.043 594.759 259.288 552.447C137.867 480.848 37.2813 456.36 26.3008 455.14C26.6178 455.175 26.8612 455.172 27.0289 455.172V431.172C32.554 431.172 62.2915 438.197 101.879 452.194C139.821 465.61 199.145 489.817 266.292 528.948C340.488 572.187 408.743 624.405 469.16 684.152C544.305 758.461 607.399 844.629 656.69 940.26C705.653 1035.25 745.665 1132.35 775.617 1228.86C799.6 1306.14 817.226 1383.23 828.004 1457.98C846.418 1585.7 838.555 1661.49 838.212 1664.65" fill="#0A4343"/><path id="Fill 21" fill-rule="evenodd" clip-rule="evenodd" d="M830.314 1609.64C829.947 1606.17 792.844 1258.62 733.603 885.222C698.835 666.082 663.364 481.083 628.175 335.364C584.484 154.435 541.397 34.5966 500.113 -20.8194L518.563 -35.4424C561.811 22.6106 606.291 145.431 650.764 329.605C686.108 475.972 721.71 661.637 756.581 881.442C815.916 1255.45 853.076 1603.55 853.443 1607.03L830.314 1609.64Z" fill="#0A4343"/><path id="Fill 23" fill-rule="evenodd" clip-rule="evenodd" d="M754.51 1632.18L731.249 1631.62C733.546 1529.7 704.305 1359.67 654.935 1187.9C632.04 1108.24 607.18 1036.7 583.043 981.025C549.748 904.223 528.117 881.478 518.187 874.757C502.046 863.831 474.499 860.783 436.309 865.696C404.23 869.822 365.176 879.587 320.231 894.718C243.108 920.682 174.831 953.794 174.15 954.125L164.215 932.423C164.907 932.086 234.323 898.412 312.802 871.973C359.197 856.343 399.747 846.223 433.328 841.893C477.821 836.158 509.756 840.343 530.953 854.691C552.375 869.192 577.048 908.401 604.285 971.228C628.833 1027.85 654.062 1100.42 677.245 1181.08C727.254 1355.08 756.861 1527.93 754.51 1632.18" fill="#0A4343"/><path id="Fill 25" fill-rule="evenodd" clip-rule="evenodd" d="M311.498 1216.65L295.941 1198.8C296.638 1198.16 366.615 1133.47 446.605 1077.05C493.937 1043.67 535.59 1019.58 570.406 1005.46C616.633 986.713 652.042 985.321 675.65 1001.32L662.872 1021.38C631.265 999.957 559.125 1026.76 459.739 1096.86C381.008 1152.39 312.184 1216.01 311.498 1216.65" fill="#0A4343"/><path id="Fill 27" fill-rule="evenodd" clip-rule="evenodd" d="M703.745 1524.55H680.477C680.477 1509.5 697.724 1422.44 722.301 1337.96C746.136 1256.03 784.83 1147.99 833.814 1098.55C852.998 1079.19 872.872 1069.6 892.902 1070.05C947.42 1071.27 987.672 1132.05 1012.54 1250.68C1030.32 1335.5 1033.61 1418.48 1033.74 1421.97L1010.49 1422.9C1010.46 1422.06 1007.13 1338.28 989.744 1255.49C979.672 1207.53 966.962 1169.4 951.968 1142.16C934.667 1110.73 914.625 1094.54 892.397 1094.04C878.871 1093.75 864.647 1101.02 850.115 1115.68C764.124 1202.42 703.757 1503.3 703.745 1524.55" fill="#0A4343"/><mask id="mask2c761423c-69cc-4041-a619-4d145b7c5f90" mask-type="alpha" maskUnits="userSpaceOnUse" x="-12" y="-52" width="1359" height="2399" fill="#ffffff"><path id="Clip 30" fill-rule="evenodd" clip-rule="evenodd" d="M-11.6328 2346.63H1346.27V-51.9951H-11.6328V2346.63Z" fill="#ffffff"/></mask><g mask="url(#mask2c761423c-69cc-4041-a619-4d145b7c5f90)"><path id="Fill 29" fill-rule="evenodd" clip-rule="evenodd" d="M304.113 2346.63H1182.48V1505.63H304.113V2346.63Z" fill="#EC7070"/></g></g></g></g><g id="Small Objects" transform="translate(2670 2276) scale(1 1)"><g id="Small Objects/Books"><g id="Books"><path id="Fill 28" fill-rule="evenodd" clip-rule="evenodd" d="M396.721 929.981H95.816C89.843 929.981 85 925.138 85 919.166V859.618C85 853.645 89.843 848.802 95.816 848.802H396.721C402.695 848.802 407.537 853.645 407.537 859.618V919.166C407.537 925.138 402.695 929.981 396.721 929.981" fill="#EECCDC"/><path id="Fill 29" fill-rule="evenodd" clip-rule="evenodd" d="M401.749 849.28H122.508C116.502 849.28 111.633 844.412 111.633 838.406V822.369C111.633 816.363 116.502 811.494 122.508 811.494H401.749C407.755 811.494 412.624 816.363 412.624 822.369V838.406C412.624 844.412 407.755 849.28 401.749 849.28" fill="#c26e5e"/><path id="Fill 30" fill-rule="evenodd" clip-rule="evenodd" d="M385.138 774.18H112.649C104.778 774.18 98.3984 767.8 98.3984 759.93V723.544C98.3984 715.673 104.778 709.293 112.649 709.293H385.138C393.009 709.293 399.388 715.673 399.388 723.544V759.93C399.388 767.8 393.009 774.18 385.138 774.18" fill="#c26e5e"/><path id="Fill 31" fill-rule="evenodd" clip-rule="evenodd" d="M393.467 658.384H114.962C108.753 658.384 103.719 653.351 103.719 647.142V629.242C103.719 623.033 108.753 618 114.962 618H393.467C399.676 618 404.71 623.033 404.71 629.242V647.142C404.71 653.351 399.676 658.384 393.467 658.384" fill="#c26e5e"/><path id="Fill 32" fill-rule="evenodd" clip-rule="evenodd" d="M375.276 811.956H96.0352C90.0292 811.956 85.1602 807.088 85.1602 801.081V785.045C85.1602 779.039 90.0292 774.17 96.0352 774.17H375.276C381.282 774.17 386.151 779.039 386.151 785.045V801.081C386.151 807.088 381.282 811.956 375.276 811.956" fill="#EECCDC"/><path id="Fill 33" fill-rule="evenodd" clip-rule="evenodd" d="M382.54 709.798H106.881C99.8858 709.798 94.2148 704.127 94.2148 697.132V671.206C94.2148 664.211 99.8858 658.54 106.881 658.54H382.54C389.535 658.54 395.206 664.211 395.206 671.206V697.132C395.206 704.127 389.535 709.798 382.54 709.798" fill="#EECCDC"/></g></g></g><g id="Small Objects" transform="translate(3086 2276) scale(1 1)"><g id="Small Objects/Books"><g id="Books"><path id="Fill 28" fill-rule="evenodd" clip-rule="evenodd" d="M396.721 929.981H95.816C89.843 929.981 85 925.138 85 919.166V859.618C85 853.645 89.843 848.802 95.816 848.802H396.721C402.695 848.802 407.537 853.645 407.537 859.618V919.166C407.537 925.138 402.695 929.981 396.721 929.981" fill="#EECCDC"/><path id="Fill 29" fill-rule="evenodd" clip-rule="evenodd" d="M401.749 849.28H122.508C116.502 849.28 111.633 844.412 111.633 838.406V822.369C111.633 816.363 116.502 811.494 122.508 811.494H401.749C407.755 811.494 412.624 816.363 412.624 822.369V838.406C412.624 844.412 407.755 849.28 401.749 849.28" fill="#c26e5e"/><path id="Fill 30" fill-rule="evenodd" clip-rule="evenodd" d="M385.138 774.18H112.649C104.778 774.18 98.3984 767.8 98.3984 759.93V723.544C98.3984 715.673 104.778 709.293 112.649 709.293H385.138C393.009 709.293 399.388 715.673 399.388 723.544V759.93C399.388 767.8 393.009 774.18 385.138 774.18" fill="#c26e5e"/><path id="Fill 31" fill-rule="evenodd" clip-rule="evenodd" d="M393.467 658.384H114.962C108.753 658.384 103.719 653.351 103.719 647.142V629.242C103.719 623.033 108.753 618 114.962 618H393.467C399.676 618 404.71 623.033 404.71 629.242V647.142C404.71 653.351 399.676 658.384 393.467 658.384" fill="#c26e5e"/><path id="Fill 32" fill-rule="evenodd" clip-rule="evenodd" d="M375.276 811.956H96.0352C90.0292 811.956 85.1602 807.088 85.1602 801.081V785.045C85.1602 779.039 90.0292 774.17 96.0352 774.17H375.276C381.282 774.17 386.151 779.039 386.151 785.045V801.081C386.151 807.088 381.282 811.956 375.276 811.956" fill="#EECCDC"/><path id="Fill 33" fill-rule="evenodd" clip-rule="evenodd" d="M382.54 709.798H106.881C99.8858 709.798 94.2148 704.127 94.2148 697.132V671.206C94.2148 664.211 99.8858 658.54 106.881 658.54H382.54C389.535 658.54 395.206 664.211 395.206 671.206V697.132C395.206 704.127 389.535 709.798 382.54 709.798" fill="#EECCDC"/></g></g></g><g id="Master/Character/Standing [colors]" transform="translate(817 556) scale(1 1)"><g id="Master/Character/Standing [colors]"><g id="Lower Body/Standing" transform="translate(503 1151) scale(1 1)"><g id="Lower Body/Standing/Yoga Pose"><path id="Rectangle (Stroke)" fill-rule="evenodd" clip-rule="evenodd" d="M422 0L424 193H874V0H422ZM423.01 1L424.99 192H873V1H423.01Z" fill="#979797"/><g id="Group 109"><path id="Fill 96" fill-rule="evenodd" clip-rule="evenodd" d="M851.705 832.457C851.705 832.457 806.525 844.92 751.998 848.036C697.47 851.152 689.68 868.289 705.26 975.786C720.839 1083.28 719.281 1257.77 750.44 1229.73C781.598 1201.69 766.019 1050.57 837.684 971.112C909.348 891.658 900.001 921.259 900.001 921.259L851.705 832.457Z" fill="#f6cbc3"/><path id="Fill 98" fill-rule="evenodd" clip-rule="evenodd" d="M551.039 1350.77C551.039 1350.77 561.898 1396.18 531.295 1411.97C500.692 1427.77 446.397 1465.28 369.395 1492.92C292.394 1520.56 275.612 1547.22 331.882 1554.13C388.152 1561.04 449.358 1555.11 502.667 1540.31C555.975 1525.5 649.758 1570.91 706.028 1524.51C762.298 1478.11 683.323 1404.07 686.284 1386.3C689.246 1368.54 551.039 1350.77 551.039 1350.77" fill="#f6cbc3"/><g id="Group 102"><mask id="mask0639bb743-4056-4386-9a6a-757753a146b2" mask-type="alpha" maskUnits="userSpaceOnUse" x="422" y="99" width="961" height="1290" fill="#ffffff"><path id="Clip 101" fill-rule="evenodd" clip-rule="evenodd" d="M422.799 99.5342H1382.91V1388.69H422.799V99.5342Z" fill="#ffffff"/></mask><g mask="url(#mask0639bb743-4056-4386-9a6a-757753a146b2)"><path id="Fill 100" fill-rule="evenodd" clip-rule="evenodd" d="M422.819 123.78C422.819 123.78 421.02 407.85 451.197 743.569C481.374 1079.29 519.095 1347.11 519.095 1347.11C519.095 1347.11 654.891 1415.01 752.966 1377.29C752.966 1377.29 663.414 343.901 727.54 355.217C791.666 366.534 1096.02 486.231 1087.83 494.42C974.773 607.473 832.181 815.239 832.181 815.239L877.446 1022.71C877.446 1022.71 1382.91 524.786 1382.91 426.711C1382.91 328.635 873.409 99.5342 873.409 99.5342C873.409 99.5342 694.789 167.746 422.819 123.78" fill="#FC7750"/></g></g><path id="Stroke 103" d="M1211.86 423.16L1212.83 427.041C1189.31 432.919 1164.72 444.156 1140.04 459.191C1126.85 467.231 1114.47 475.847 1103.27 484.462L1101.72 485.656C1098.93 487.823 1096.38 489.869 1094.07 491.764L1092.84 492.783C1091.92 493.55 1091.1 494.242 1090.39 494.851L1089.15 495.917L1086.5 492.922L1087.28 492.247L1088.1 491.54C1088.54 491.172 1089 490.777 1089.5 490.357L1090.28 489.707C1093.34 487.167 1096.87 484.337 1100.83 481.292C1112.14 472.593 1124.64 463.895 1137.96 455.776C1162.54 440.796 1187.08 429.524 1210.68 423.459L1211.86 423.16Z" fill="black"/><path id="Stroke 105" d="M890.706 106.019L891.347 109.967L890.864 110.057L890.307 110.171C890.108 110.213 889.895 110.259 889.67 110.31L889.322 110.39C887.6 110.79 885.576 111.336 883.269 112.051C876.645 114.102 869.096 117.089 860.762 121.187C837.166 132.789 812.142 150.784 786.766 176.533L785.849 177.467L782.99 174.669C808.998 148.095 834.711 129.538 858.997 117.597C867.521 113.406 875.264 110.343 882.086 108.23C884.485 107.487 886.602 106.915 888.417 106.494L889.182 106.321C889.572 106.235 889.903 106.167 890.174 106.115L890.706 106.019Z" fill="black"/><path id="Stroke 107" d="M712.465 256.723C712.465 283.567 715.645 307.66 720.941 328.636L721.449 330.612C723.067 336.798 724.773 342.297 726.482 347.08L726.752 347.829C727.442 349.729 728.081 351.372 728.653 352.752L729.085 353.771L729.354 354.375L725.726 356.06L725.517 355.595L725.199 354.858L724.959 354.284C724.364 352.85 723.703 351.151 722.992 349.194C720.968 343.619 718.948 337.078 717.063 329.615C711.784 308.708 708.581 284.779 708.468 258.176L708.465 256.723H712.465Z" fill="black"/></g></g></g><g id="Upper Body" transform="translate(376 277) scale(1 1)"><g id="Upper Body/Relaxed"><g id="Hand1"><path id="Fill 1" fill-rule="evenodd" clip-rule="evenodd" d="M219.607 1021.89C219.607 1021.89 213.4 1045.32 148.768 1042.86C114.66 1041.57 62.5171 1066.1 59.7308 1049.74C56.9445 1033.38 122.86 1009.15 122.86 1009.15C122.86 1009.15 82.6864 1006.49 49.0326 1014.52C15.3775 1022.55 -13.4136 1027.59 -13.4136 1027.59C-13.4136 1027.59 -29.6149 1023.79 -20.1077 1013.25C-10.601 1002.72 -4.60801 1002.43 -4.60801 1002.43C-4.60801 1002.43 -13.9051 996.464 -6.26478 988.769C1.37608 981.073 4.37283 980.929 4.37283 980.929C4.37283 980.929 -1.88363 975.732 4.80125 968.999C11.4872 962.265 19.4777 961.881 19.4777 961.881C19.4777 961.881 16.218 956.54 28.029 952.31C39.84 948.079 102.934 927.647 131.033 929.048C159.133 930.45 220.016 946.175 220.016 946.175C220.016 946.175 234.627 1013.93 219.607 1021.89" fill="#f6cbc3"/><path id="Path 2" d="M-5 1000.98L-4.21302 1003.88L1.48797 1002.34C36.3589 992.96 62.3903 986.929 79.5602 984.247L80.6556 984.078L80.2072 981.112L78.5422 981.37C60.489 984.234 33.0348 990.667 -3.84445 1000.67L-5 1000.98Z" fill="#995B5D"/><path id="Path 2 Copy" d="M3.91016 978.678L4.66355 981.603L10.1212 980.045C43.5039 970.571 68.4244 964.479 84.8615 961.769L85.9102 961.599L85.4808 958.603L83.8869 958.863C66.6042 961.756 40.3217 968.255 5.01639 978.361L3.91016 978.678Z" fill="#995B5D"/><path id="Path 2 Copy 2" d="M19.9102 959.678L20.5809 962.603L25.4395 961.045C55.1583 951.571 77.3436 945.479 91.9766 942.769L92.9102 942.599L92.528 939.603L91.109 939.863C75.7231 942.756 52.3253 949.255 20.895 959.361L19.9102 959.678Z" fill="#995B5D"/></g><path id="Neck" fill-rule="evenodd" clip-rule="evenodd" d="M724.954 220C724.954 220 721.263 301.153 673.924 329.8C630.973 355.791 721.969 506.61 819.858 497.614C873.442 492.688 886 346.158 886 346.158C886 346.158 842.734 337.797 858.716 271.819L724.954 220Z" fill="#f6cbc3"/><path id="Head" fill-rule="evenodd" clip-rule="evenodd" d="M803.337 302.516C739.877 294.841 694.078 253.116 687.665 183.898C669.216 186.835 664.865 138.765 670.003 123.323C675.146 107.859 691.933 116.901 691.933 116.901C691.933 116.901 693.327 113.235 694.303 109.226C722.025 -4.48555 799.67 0.0243587 799.67 0.0243587C942.344 7.45716 908.914 153.12 900.763 191.763C892.611 230.41 864.684 309.927 803.337 302.516Z" fill="#f6cbc3"/><g id="Group 63"><path id="Fill 3" fill-rule="evenodd" clip-rule="evenodd" d="M1509.38 983.669C1509.05 983.683 1508.73 983.696 1508.41 983.696C1508.73 983.942 1509.03 984.216 1509.31 984.489C1510.05 985.173 1510.74 985.939 1511.35 986.773L1531.23 1013.55C1536.78 1021.03 1535.22 1031.58 1527.74 1037.13C1521 1042.14 1511.75 1041.34 1505.94 1035.64C1509.46 1042.81 1507.49 1051.68 1500.86 1056.62C1494.74 1061.16 1486.52 1060.93 1480.71 1056.56C1483.4 1063.46 1481.28 1071.57 1475.05 1076.19C1468.31 1081.21 1459.05 1080.4 1453.24 1074.7C1456.77 1081.86 1454.8 1090.75 1448.17 1095.68C1440.7 1101.23 1430.15 1099.66 1424.61 1092.19L1404.73 1065.41C1403.4 1063.63 1402.5 1061.68 1401.97 1059.67L1363 993.338C1364.63 992.121 1366.3 990.698 1367.98 989.03C1382.22 974.943 1429.49 932.465 1443.3 915L1449.67 922.276C1449.66 922.194 1449.65 922.112 1449.65 922.03C1449.65 922.03 1484.98 943.501 1510.57 944.062C1536.17 944.623 1575.6 930.919 1577.9 945.676C1580.49 962.388 1533.51 982.835 1509.38 983.669" fill="#f6cbc3"/><path id="Fill 5" fill-rule="evenodd" clip-rule="evenodd" d="M135.992 927.185C135.992 927.185 368.677 545.401 452.679 455.018C536.682 364.636 525.219 344.712 671.309 331.812C671.309 331.812 666.408 412.485 761.044 428.435C855.679 444.385 873.196 349.717 863.374 328.998C863.374 328.998 995.242 368.624 1049.34 412.486C1103.43 456.347 1451.45 922.185 1451.45 922.185L1370.99 1007.54C1370.99 1007.54 1002.55 580.622 996.704 611.325C991.042 641.047 1061.49 949.938 1051.05 973.794C1050.7 974.582 1050.27 975.059 1049.74 975.205C1040.22 977.837 929.167 1034.97 776.256 1034.97C623.345 1034.97 520.372 1007.54 520.372 1007.13C520.372 1007.13 591.687 631.801 571.232 615.715C550.776 599.629 309.525 969.118 224.732 998.565L135.992 927.185Z" fill="#56ACF6"/><path id="Fill 7" fill-rule="evenodd" clip-rule="evenodd" d="M450.932 518.679L450.016 509.404L498.438 504.622L499.354 513.897L450.932 518.679Z" fill="#204EB2"/><path id="Fill 9" fill-rule="evenodd" clip-rule="evenodd" d="M727.834 666.352L726.918 657.077L775.339 652.295L776.255 661.57L727.834 666.352Z" fill="#204EB2"/><path id="Fill 11" fill-rule="evenodd" clip-rule="evenodd" d="M643.67 582.952L635.434 534.997L644.62 533.419L652.857 581.375L643.67 582.952Z" fill="#204EB2"/><path id="Fill 13" fill-rule="evenodd" clip-rule="evenodd" d="M488.439 629.568L480.223 625.167L503.201 582.277L511.417 586.678L488.439 629.568Z" fill="#204EB2"/><path id="Fill 15" fill-rule="evenodd" clip-rule="evenodd" d="M911.447 861.937L910.531 852.662L958.953 847.88L959.869 857.155L911.447 861.937Z" fill="#204EB2"/><path id="Fill 17" fill-rule="evenodd" clip-rule="evenodd" d="M918.548 559.936L885.871 523.884L892.777 517.624L925.454 553.676L918.548 559.936Z" fill="#204EB2"/><path id="Fill 19" fill-rule="evenodd" clip-rule="evenodd" d="M1298.93 833.141L1298.02 823.866L1346.44 819.084L1347.35 828.359L1298.93 833.141Z" fill="#204EB2"/><path id="Fill 21" fill-rule="evenodd" clip-rule="evenodd" d="M667.963 841.182L667.047 831.907L715.468 827.125L716.384 836.4L667.963 841.182Z" fill="#204EB2"/><path id="Fill 23" fill-rule="evenodd" clip-rule="evenodd" d="M315.492 767.211L313.273 758.158L360.532 746.576L362.751 755.628L315.492 767.211Z" fill="#204EB2"/><path id="Fill 25" fill-rule="evenodd" clip-rule="evenodd" d="M254.256 905.425L229.652 863.446L237.694 858.734L262.297 900.712L254.256 905.425Z" fill="#204EB2"/><path id="Fill 27" fill-rule="evenodd" clip-rule="evenodd" d="M1075.9 600.093L1074.98 590.818L1123.4 586.036L1124.32 595.311L1075.9 600.093Z" fill="#204EB2"/><path id="Fill 29" fill-rule="evenodd" clip-rule="evenodd" d="M658.814 438.368L657.898 429.093L706.32 424.311L707.236 433.586L658.814 438.368Z" fill="#204EB2"/><path id="Fill 31" fill-rule="evenodd" clip-rule="evenodd" d="M1329.23 928.125L1319.91 927.923L1320.97 879.277L1330.29 879.479L1329.23 928.125Z" fill="#204EB2"/><path id="Fill 33" fill-rule="evenodd" clip-rule="evenodd" d="M1172.82 734.009L1148.03 692.144L1156.05 687.394L1180.84 729.259L1172.82 734.009Z" fill="#204EB2"/><path id="Fill 35" fill-rule="evenodd" clip-rule="evenodd" d="M1399.41 934.711L1374.61 892.846L1382.63 888.096L1407.43 929.961L1399.41 934.711Z" fill="#204EB2"/><path id="Fill 37" fill-rule="evenodd" clip-rule="evenodd" d="M813.093 785.156L788.297 743.291L796.316 738.541L821.113 780.406L813.093 785.156Z" fill="#204EB2"/><path id="Fill 39" fill-rule="evenodd" clip-rule="evenodd" d="M615.323 969.284L590.527 927.419L598.546 922.669L623.343 964.534L615.323 969.284Z" fill="#204EB2"/><path id="Fill 41" fill-rule="evenodd" clip-rule="evenodd" d="M576.112 478.276L551.316 436.411L559.335 431.661L584.132 473.526L576.112 478.276Z" fill="#204EB2"/><path id="Fill 43" fill-rule="evenodd" clip-rule="evenodd" d="M414.148 682.863L389.352 640.998L397.371 636.248L422.168 678.113L414.148 682.863Z" fill="#204EB2"/><path id="Fill 45" fill-rule="evenodd" clip-rule="evenodd" d="M600.892 737.555L594.52 730.753L630.03 697.488L636.402 704.29L600.892 737.555Z" fill="#204EB2"/><path id="Fill 47" fill-rule="evenodd" clip-rule="evenodd" d="M889.017 689.818L882.645 683.016L918.155 649.751L924.527 656.553L889.017 689.818Z" fill="#204EB2"/><path id="Fill 49" fill-rule="evenodd" clip-rule="evenodd" d="M771.38 950.666L765.008 943.864L800.518 910.599L806.89 917.401L771.38 950.666Z" fill="#204EB2"/><path id="Fill 51" fill-rule="evenodd" clip-rule="evenodd" d="M1221.47 804.046L1215.1 797.244L1250.61 763.979L1256.98 770.781L1221.47 804.046Z" fill="#204EB2"/><path id="Fill 53" fill-rule="evenodd" clip-rule="evenodd" d="M769.677 539.788L763.305 532.986L798.815 499.721L805.187 506.523L769.677 539.788Z" fill="#204EB2"/><path id="Fill 55" fill-rule="evenodd" clip-rule="evenodd" d="M1020.29 526.149L1013.92 519.347L1049.43 486.082L1055.8 492.884L1020.29 526.149Z" fill="#204EB2"/><path id="Fill 57" fill-rule="evenodd" clip-rule="evenodd" d="M1495.49 997.235L1495.44 997.835C1495.23 997.635 1495.01 997.435 1494.78 997.255C1495.01 997.255 1495.25 997.245 1495.49 997.235" fill="#f6cbc3"/></g></g></g><g id="Expression" transform="translate(1098 360) scale(1 1)"><g id="Expression/Sweet"><g id="Group 124"><path id="Stroke 114" d="M123.94 52.5156L127.749 53.7376L127.377 54.9309C127.077 55.9042 126.744 57.0178 126.384 58.2528C125.356 61.7837 124.327 65.576 123.368 69.4789C122.301 73.8175 121.387 78.0249 120.672 81.9976L120.465 83.1739C118.727 93.2775 118.482 100.993 120.034 105.142L120.126 105.377C129.004 127.34 116.948 138.478 91.6439 130.679L90.873 130.436L92.0921 126.627C114.886 133.921 124.027 125.703 116.417 106.876C114.322 101.694 114.645 92.8992 116.735 81.2889C117.466 77.2272 118.398 72.9393 119.483 68.5239C120.349 65.0027 121.269 61.5727 122.196 58.338L122.543 57.1344C122.752 56.4175 122.952 55.7405 123.143 55.1067L123.631 53.5023L123.94 52.5156Z" fill="black"/><path id="Stroke 122" d="M25.1855 205.534L27.1425 202.045L27.8567 202.435L28.5118 202.783C29.5036 203.305 30.6327 203.881 31.8877 204.498L32.4332 204.765C36.6543 206.821 41.3224 208.878 46.301 210.798C57.7489 215.212 69.0606 218.225 79.5848 219.202C84.3541 219.645 88.8741 219.656 93.1069 219.202L93.9496 219.105L94.4385 223.075C89.6635 223.663 84.5751 223.683 79.2149 223.185C68.2771 222.169 56.6257 219.066 44.8619 214.53C39.7712 212.567 35.0001 210.465 30.6815 208.361L29.0484 207.554C28.354 207.206 27.7021 206.873 27.0948 206.556L25.9633 205.958L25.1855 205.534Z" fill="black"/></g><g id="Group 16"><path id="Fill 3" fill-rule="evenodd" clip-rule="evenodd" d="M98.0372 161.995C79.1662 161.995 64.9382 153.351 64.2702 152.938C62.8612 152.068 62.4252 150.219 63.2962 148.809C64.1652 147.401 66.0142 146.963 67.4242 147.834C67.7062 148.006 84.4192 158.048 104.568 155.603C106.201 155.405 107.707 156.575 107.908 158.22C108.108 159.864 106.936 161.36 105.291 161.559C102.814 161.861 100.388 161.995 98.0372 161.995" fill="black"/><path id="Fill 5" fill-rule="evenodd" clip-rule="evenodd" d="M105.825 133.166C101.782 133.166 96.7384 132.375 90.4434 130.361L91.6614 126.551C103.385 130.302 112.045 129.996 116.046 125.687C119.449 122.02 119.428 115.313 115.987 106.801C113.652 101.026 114.229 90.0734 117.702 74.2454C120.243 62.6624 123.477 52.5414 123.51 52.4404L127.318 53.6624C123.811 64.5954 115.606 95.1874 119.695 105.302C124.893 118.16 122.174 124.964 118.977 128.408C116.697 130.866 112.718 133.166 105.825 133.166" fill="black"/><g id="Group 9"><path id="Fill 7" fill-rule="evenodd" clip-rule="evenodd" d="M93.6837 39.7324C93.1031 39.888 92.4861 39.9498 91.8534 39.9029C85.6893 39.4468 68.006 38.5821 60.3106 40.0457C53.0642 41.4231 43.1641 47.838 39.9609 50.1944C37.514 51.993 34.0726 51.4709 32.2726 49.0265C30.4714 46.5813 30.9918 43.1414 33.4354 41.3385C33.9853 40.9334 47.051 31.3688 58.2557 29.2393C68.9489 27.2064 91.7026 28.8617 92.6661 28.9338C95.6955 29.1584 97.9686 31.796 97.7449 34.8251C97.5669 37.2208 95.8802 39.1439 93.6837 39.7324" fill="black"/></g><path id="Fill 10" fill-rule="evenodd" clip-rule="evenodd" d="M175.674 73.3322C174.652 72.9194 173.748 72.1894 173.123 71.1801C171.126 67.9573 164.642 58.7939 158.707 55.1578C152.373 51.2789 136.23 46.2493 130.544 44.6368C127.694 43.8249 126.034 40.8605 126.843 38.0086C127.65 35.1554 130.618 33.4975 133.47 34.3057C134.363 34.5584 155.428 40.5585 164.315 46.002C173.659 51.7252 181.91 64.9728 182.257 65.5346C183.815 68.0568 183.034 71.365 180.511 72.9235C178.999 73.8572 177.205 73.9507 175.674 73.3322" fill="black"/></g><g id="Group 19"><path id="Fill 10_2" fill-rule="evenodd" clip-rule="evenodd" d="M75.5217 74.6586C75.5217 77.9056 72.8887 80.5386 69.6417 80.5386C66.3947 80.5386 63.7617 77.9056 63.7617 74.6586C63.7617 71.4106 66.3947 68.7786 69.6417 68.7786C72.8887 68.7786 75.5217 71.4106 75.5217 74.6586" fill="black"/><path id="Fill 12" fill-rule="evenodd" clip-rule="evenodd" d="M150.762 81.3383C150.762 84.5863 148.129 87.2183 144.882 87.2183C141.635 87.2183 139.002 84.5863 139.002 81.3383C139.002 78.0913 141.635 75.4583 144.882 75.4583C148.129 75.4583 150.762 78.0913 150.762 81.3383" fill="black"/></g></g></g><g id="Hairstyle" transform="translate(607 33) scale(1 1)"><g id="Hairstyle/Pompadour"><g id="Hairstyle"><mask id="mask02987712e-c8a1-4f7b-a9a6-edc3f68e18e1" mask-type="alpha" maskUnits="userSpaceOnUse" x="440" y="176" width="259" height="219" fill="#ffffff"><path id="Clip 126" fill-rule="evenodd" clip-rule="evenodd" d="M440.893 176.106H698.492V394.732H440.893V176.106Z" fill="#ffffff"/></mask><g mask="url(#mask02987712e-c8a1-4f7b-a9a6-edc3f68e18e1)"><path id="Fill 125" fill-rule="evenodd" clip-rule="evenodd" d="M446.921 357.42C446.921 357.42 427.965 264.187 457.278 261.395L486.592 258.603C486.592 258.603 464.378 201.157 515.948 183.967C567.518 166.776 616.275 177.679 639.717 217.667C663.158 257.654 687.225 249.708 696.582 289.473C705.938 329.237 677.869 394.732 677.869 394.732C677.869 394.732 673.937 311.94 664.543 302.546C655.149 293.151 616.428 327.531 567.148 316.971C517.867 306.411 487.174 263.998 478.262 323.411C469.35 382.823 461.015 364.881 461.015 364.881C461.015 364.881 457.961 356.654 446.698 359.47L446.921 357.42Z" fill="#711515"/></g></g></g></g><g id="Accessories" transform="translate(1051 393) scale(1 1)"><g id="Accessories/Earring"><g id="Group 5"><path id="Fill 1" fill-rule="evenodd" clip-rule="evenodd" d="M22.5 66C22.5 71.799 17.8 76.5 12 76.5C6.201 76.5 1.5 71.799 1.5 66C1.5 60.2 6.201 55.5 12 55.5C17.8 55.5 22.5 60.2 22.5 66" fill="white"/></g></g></g><g id="Facial Hair" transform="translate(1061 394) scale(212 211)"><g id="Facial Hair/None" stroke="none" stroke-width="1" fill="none" fill-rule="evenodd" fill-opacity="0"/></g></g></g></g></svg>