<svg viewBox="60.772189349112466 39.5 266.8047337278106 177.74999999999994" xmlns="http://www.w3.org/2000/svg" overflow="visible" xmlns:xlink="http://www.w3.org/1999/xlink" width="266.8047337278106px" height="177.74999999999994px"><g id="Master/Character/Torso" stroke="none" stroke-width="1" fill="none" fill-rule="evenodd"><g id="Head" transform="translate(39.000000, 9.000000) scale(1.2307692307692308 1.2413793103448276)"><g id="Head/Ponytail" stroke="none" stroke-width="1" fill="none" fill-rule="evenodd"><g id="Head" transform="translate(19.000000, 24.000000)"><polygon id="Fill-1" fill="#ffdee3" points="75.4479 28.5783 75.4479 57.9863 96.3139 62.6203 89.5659 28.5783"/><g id="Group-17" transform="translate(0.000000, 0.620800)"><path d="M94.6209,53.4455 L93.7369,49.0155 L78.4819,35.4845 C78.4819,35.4845 80.9639,43.6205 86.1209,47.6255 C89.9199,50.5765 94.6209,53.4455 94.6209,53.4455" id="Fill-2" fill="#ffbdb1"/><path d="M94.5631,49.0609 L94.5631,49.0609 C84.9451,49.0609 77.6271,37.9919 77.6271,30.8679 L77.6271,13.3629 C77.6271,6.2389 83.7851,4.2499 91.5651,4.2499 C99.3451,4.2499 102.8331,5.6819 104.5891,8.4269 L104.8571,32.6519 C104.8571,41.7299 102.3431,49.0609 94.5631,49.0609" id="Fill-4" fill="#ffdee3"/><path d="M71.5518,30.3604 L70.9788,28.8824 C70.0928,26.5964 71.2278,24.0254 73.5128,23.1394 L73.5308,23.1324 C75.8168,22.2464 78.3878,23.3804 79.2738,25.6664 L79.8468,27.1444 C80.7328,29.4304 79.5988,32.0014 77.3128,32.8874 L77.2948,32.8944 C75.0088,33.7804 72.4378,32.6464 71.5518,30.3604" id="Fill-6" fill="#ffdee3"/><path d="M72.8468,28.7826 C72.6088,28.7826 72.3978,28.6116 72.3558,28.3676 C72.3498,28.3356 72.2178,27.5486 72.5248,26.6876 C72.8118,25.8796 73.5368,24.8516 75.3638,24.5356 C75.6288,24.4876 75.8938,24.6706 75.9418,24.9426 C75.9888,25.2156 75.8058,25.4736 75.5338,25.5206 C74.4498,25.7086 73.7538,26.2136 73.4658,27.0226 C73.2498,27.6286 73.3388,28.1916 73.3398,28.1976 C73.3878,28.4696 73.2048,28.7276 72.9338,28.7756 C72.9048,28.7806 72.8758,28.7826 72.8468,28.7826" id="Fill-8" fill="#ffbdb1"/><g id="Group-12" transform="translate(69.000000, 0.000000)" fill="#ea4b7b"><path d="M21.6745,1.0533 C0.0085,-0.6707 -2.9695,16.7033 2.5685,24.6313 C3.0495,23.9833 3.7045,23.4523 4.5125,23.1393 L4.5315,23.1323 C6.8165,22.2463 9.3875,23.3803 10.2735,25.6663 L10.3705,25.9153 C11.3495,25.2073 12.1235,24.2613 12.1725,23.0083 C12.2245,21.6683 12.8035,19.7343 14.2495,17.9463 C14.6235,17.4843 14.6365,10.7003 16.4975,8.7863 C16.6375,8.6423 16.1515,10.4133 16.0815,12.2443 C16.0115,14.0753 16.3575,15.9643 16.5345,15.8433 C19.3205,13.9243 23.6845,12.7193 30.2925,13.6793 C37.0565,14.6623 37.3185,17.5043 37.4485,14.1493 C37.8725,3.1283 28.5645,1.5413 22.3635,1.1043 C22.1285,1.0883 21.8985,1.0713 21.6745,1.0533" id="Fill-10"/></g><path d="M0,12.1522 C0,12.1522 26.419,30.2462 47.279,6.0982 C54.25,-1.9718 66.792,-1.3438 74.846,6.9862 C74.846,6.9862 61.833,9.9032 63.638,28.1682 C64.175,33.6012 60.872,38.6892 55.767,40.6242 L47.408,43.7932 L55.287,21.5982 L41.567,44.9782 C41.567,44.9782 32.873,50.2822 18.338,44.9782 C0.602,38.5072 0,12.1522 0,12.1522" id="Fill-13" fill="#ea4b7b"/><path d="M69.9279,11.3026 C69.8169,11.3026 69.7019,11.2836 69.5909,11.2436 C69.0719,11.0576 68.7999,10.4856 68.9869,9.9656 C70.8979,4.6196 73.6489,3.4336 73.9559,3.3156 C74.4699,3.1186 75.0489,3.3766 75.2469,3.8926 C75.4439,4.4036 75.1919,4.9756 74.6859,5.1776 C74.6149,5.2096 72.4519,6.2126 70.8689,10.6386 C70.7239,11.0476 70.3379,11.3026 69.9279,11.3026" id="Fill-15" fill="#F85786"/></g></g></g></g><g id="Expression" transform="translate(162.000000, 50.000000) scale(1.2608695652173914 1.2432432432432432)"><g id="Expression/Smiling" stroke="none" stroke-width="1" fill="none" fill-rule="evenodd"><g id="Expressión" transform="translate(7.000000, 8.000000)"><path d="M0.999713429,3.5525167 C0.758713429,3.5525167 0.516713429,3.4665167 0.324713429,3.2905167 C-0.079286571,2.9195167 -0.111286571,2.2945167 0.256713429,1.8875167 C0.361713429,1.7695167 2.91271343,-0.979483296 7.19571343,0.373516704 C7.72271343,0.540516704 8.01471343,1.1025167 7.84771343,1.6295167 C7.68171343,2.1565167 7.12571343,2.4485167 6.59271343,2.2815167 C3.56971343,1.3235167 1.80971343,3.1555167 1.73471343,3.2335167 C1.53771343,3.4455167 1.26971343,3.5525167 0.999713429,3.5525167" id="Fill-8" fill="#ea4b7b"/><path d="M15.0241134,2.9763167 C14.7451134,2.9763167 14.4671134,2.8603167 14.2701134,2.6343167 C14.2121134,2.5733167 13.7671134,2.1373167 12.9281134,2.3393167 C12.3931134,2.4693167 11.8501134,2.1393167 11.7211134,1.6013167 C11.5921134,1.0643167 11.9221134,0.524316704 12.4601134,0.395316704 C14.1281134,-0.00468329569 15.3381134,0.795316704 15.7891134,1.3333167 C16.1441134,1.7563167 16.0881134,2.3873167 15.6661134,2.7423167 C15.4781134,2.8993167 15.2511134,2.9763167 15.0241134,2.9763167" id="Fill-10" fill="#ea4b7b"/><path d="M13.4248134,15.3240167 L3.50881343,15.5770167 C1.92781343,15.6180167 0.719813429,16.9960167 0.888813429,18.5670167 C1.26781343,22.1000167 2.64781343,27.7760167 7.54981343,29.3870167 C11.7518134,30.7680167 15.1418134,24.4450167 14.5598134,16.3650167 C14.5168134,15.7700167 14.0208134,15.3090167 13.4248134,15.3240167" id="Fill-14" fill="#443389"/><path d="M3.38081343,15.4615167 L13.2048134,15.2075167 C14.0558134,15.1855167 14.7468134,15.8915167 14.7078134,16.7415167 L14.5788134,19.5285167 L1.09281343,20.0395167 C1.09281343,20.0395167 0.917813429,19.2145167 0.867813429,18.3325167 C0.769813429,17.0945167 2.02881343,15.4965167 3.38081343,15.4615167" id="Fill-16" fill="#FFF"/><path d="M1.09281343,20.0399167 L10.0078134,19.7019167 C10.0078134,19.7019167 14.6898134,21.4329167 13.8678134,23.8749167 C13.0528134,26.2939167 11.9858134,29.4789167 8.80881343,29.5769167 C2.31881343,29.7779167 1.09281343,20.0399167 1.09281343,20.0399167" id="Fill-18" fill="#F85786"/><path d="M7.70351343,9.4111167 C7.70351343,11.3851167 6.39851343,12.9861167 4.78851343,12.9861167 C3.17851343,12.9861167 1.87351343,11.3851167 1.87351343,9.4111167 C1.87351343,7.4371167 3.17851343,5.8361167 4.78851343,5.8361167 C6.39851343,5.8361167 7.70351343,7.4371167 7.70351343,9.4111167" id="Fill-20" fill="#FFF"/><path d="M4.78831343,5.8361167 L4.78831343,12.9861167 C6.39831343,12.9861167 7.70331343,11.3851167 7.70331343,9.4111167 C7.70331343,7.4371167 6.39831343,5.8361167 4.78831343,5.8361167" id="Fill-22" fill="#1D1D1B"/><path d="M15.1006134,9.4111167 C15.1006134,11.2371167 14.3516134,12.7171167 13.4276134,12.7171167 C12.5026134,12.7171167 11.7536134,11.2371167 11.7536134,9.4111167 C11.7536134,7.5851167 12.5026134,6.1051167 13.4276134,6.1051167 C14.3516134,6.1051167 15.1006134,7.5851167 15.1006134,9.4111167" id="Fill-24" fill="#FFF"/><path d="M13.4272134,6.1054167 L13.4272134,12.7164167 C14.3512134,12.7164167 15.1002134,11.2364167 15.1002134,9.4114167 C15.1002134,7.5854167 14.3512134,6.1054167 13.4272134,6.1054167" id="Fill-26" fill="#1D1D1B"/></g></g></g><g id="Beard" transform="translate(150.000000, 70.000000) scale(1.2352941176470589 1.25)" fill="#000"><g id="Beard/None" stroke="none" stroke-width="1" fill="none" fill-rule="evenodd" fill-opacity="0"/></g><g id="Accesories" transform="translate(147.000000, 60.000000) scale(1.236842105263158 1.2)" fill="#000"><g id="Accesories/None" stroke="none" stroke-width="1" fill="none" fill-rule="evenodd" fill-opacity="0"/></g><g id="Upper Body" transform="translate(1.000000, 32.000000) scale(1.241635687732342 1.2432432432432432)"><g id="Upper Body/Playing the Trumpet" stroke="none" stroke-width="1" fill="none" fill-rule="evenodd"><g id="Group-35" transform="translate(90.000000, 23.000000)"><path d="M54.4221,41.7962 C54.4221,41.7962 65.2311,50.6472 82.5161,53.0452 C83.7711,53.2202 86.0931,53.6822 88.3151,52.8102 C91.1631,51.6932 95.3771,51.8452 97.8571,53.6372 C97.8571,53.6372 115.5821,66.6052 106.5591,79.2932 C85.3591,109.1052 53.4901,92.8312 53.4901,92.8312 L54.4221,41.7962 Z" id="Fill-1" fill="#FFC1FF"/><path d="M96.1765,52.6233 C96.1765,52.6233 88.8225,54.6093 87.5325,61.6743 C86.2425,68.7403 92.4705,74.5133 95.3385,76.1773 C100.4975,79.1723 106.3755,78.4323 110.0825,74.1133 C113.4475,70.1913 113.2045,63.7093 108.7935,58.8663 C105.6275,55.3883 100.2935,52.3163 96.1765,52.6233" id="Fill-3" fill="#F85786"/><path d="M124.1386,21.6975 C124.1166,20.7175 121.4106,15.7235 119.1866,11.7795 C117.4266,8.6575 114.2076,6.6415 110.6306,6.4175 L104.4176,6.0295 C102.6046,5.9155 100.8066,6.4185 99.3146,7.4555 L92.4416,10.3405 C91.4676,11.2855 92.2136,12.9305 93.5656,12.8195 L105.3936,12.8545 L110.9366,23.3815 C113.4296,47.2675 94.9546,56.0035 94.9546,56.0035 C88.3266,65.0555 105.3316,78.5955 111.5276,67.8755 C118.1126,56.4805 124.6376,43.7765 124.1386,21.6975" id="Fill-5" fill="#ffdee3"/><path d="M2.8869,53.3513 C-2.3951,30.1313 18.9019,21.7623 33.7119,28.8503 L48.5609,37.9623 L52.1089,40.1383 C63.1879,47.4083 69.1789,60.3383 67.5609,73.4913 L63.7669,103.6213 C64.0719,111.5433 66.2979,113.7543 66.2979,120.0193 C66.2979,122.3353 64.6059,123.7813 63.2059,123.8113 L47.8149,123.8113 L16.9219,123.8113 C-1.7771,122.0023 2.8869,53.3513 2.8869,53.3513" id="Fill-7" fill="#FF9B8F"/><path d="M57.0076,124.494 C56.3266,121.52 52.6096,96.644 56.0856,74.092 C59.0396,54.936 51.5156,43.2 51.4396,43.083 L52.2756,42.534 C52.3536,42.653 60.0896,54.685 57.0736,74.244 C53.6736,96.307 57.3406,121.467 57.9826,124.27 L57.0076,124.494 Z" id="Fill-9" fill="#643FE1"/><path d="M40.1366,32.7926 L54.6766,48.5506 L54.4226,41.7966 C54.4226,41.7966 51.6136,39.6216 47.6276,37.3116 C43.6406,35.0016 40.1366,32.7926 40.1366,32.7926" id="Fill-11" fill="#643FE1"/><g id="Group-15" transform="translate(80.000000, 0.494000)" fill="#E9CB00"><path d="M86.1214,33.1489 L86.1214,33.1489 C81.3544,26.4209 75.9634,19.9169 68.0694,19.5139 L0.7794,16.2269 L0.7794,15.3459 L0.7794,14.5789 L68.3134,12.1399 C75.3804,11.8699 82.5244,7.6519 86.1214,0.5059 L86.1214,33.1489 Z" id="Fill-13"/></g><path d="M125.8323,34.5281 L79.3173,34.5281 C73.9273,34.5281 69.5433,30.1441 69.5433,24.7551 C69.5433,19.3661 73.9273,14.9821 79.3173,14.9821 L85.1673,14.9821 L85.1673,16.6461 L79.3173,16.6461 C74.8463,16.6461 71.2083,20.2841 71.2083,24.7551 C71.2083,29.2261 74.8463,32.8631 79.3173,32.8631 L125.8323,32.8631 C130.3033,32.8631 133.9403,31.7231 133.9403,27.2521 L133.9403,26.6091 L135.6053,26.6091 L135.6053,27.2521 C135.6053,32.6411 131.2213,34.5281 125.8323,34.5281" id="Fill-16" fill="#E9CB00"/><polygon id="Fill-18" fill="#D8B846" points="93.947 37.319 96.138 37.319 96.138 16.956 93.947 16.956"/><polygon id="Fill-20" fill="#D8B846" points="94.677 16.956 95.408 16.956 95.408 13.681 94.677 13.681"/><polygon id="Fill-21" fill="#D8B846" points="92.889 13.689 97.195 13.689 97.195 12.85 92.889 12.85"/><polygon id="Fill-22" fill="#D8B846" points="99.871 37.319 102.062 37.319 102.062 16.956 99.871 16.956"/><polygon id="Fill-23" fill="#D8B846" points="100.601 16.956 101.332 16.956 101.332 13.681 100.601 13.681"/><polygon id="Fill-24" fill="#D8B846" points="98.813 13.689 103.119 13.689 103.119 12.85 98.813 12.85"/><polygon id="Fill-25" fill="#D8B846" points="106.096 37.319 108.287 37.319 108.287 16.956 106.096 16.956"/><polygon id="Fill-26" fill="#D8B846" points="106.826 16.956 107.557 16.956 107.557 13.681 106.826 13.681"/><polygon id="Fill-27" fill="#D8B846" points="105.038 13.689 109.344 13.689 109.344 12.85 105.038 12.85"/><path d="M135.6055,27.2622 L133.9405,27.2622 C133.9405,24.3102 131.5395,21.9092 128.5875,21.9092 L62.0205,21.9092 L62.0205,20.2442 L128.5875,20.2442 C132.4575,20.2442 135.6055,23.3922 135.6055,27.2622" id="Fill-28" fill="#E9CB00"/><path d="M58.7927,22.3502 L61.1267,22.3502 C61.8457,22.3502 62.4287,21.7672 62.4287,21.0492 C62.4287,20.3302 61.8457,19.7482 61.1267,19.7482 L58.7927,19.7482 C58.0737,19.7482 57.4917,20.3302 57.4917,21.0492 C57.4917,21.7672 58.0737,22.3502 58.7927,22.3502" id="Fill-29" fill="#E9CB00"/><path d="M58.0613,22.845 L58.0613,22.845 C58.7173,22.845 59.2483,22.314 59.2483,21.658 L59.2483,20.44 C59.2483,19.784 58.7173,19.253 58.0613,19.253 L58.0613,19.253 C57.4053,19.253 56.8743,19.784 56.8743,20.44 L56.8743,21.658 C56.8743,22.314 57.4053,22.845 58.0613,22.845" id="Fill-30" fill="#E9CB00"/><path d="M166.1214,11.5074 C169.0294,11.5074 171.3874,14.1114 171.3874,17.3234 C171.3874,20.5364 169.0294,23.1404 166.1214,23.1404" id="Fill-31" fill="#8069FF"/><path d="M92.4248,53.2408 C93.2288,51.4538 95.2038,43.2398 96.0898,41.2688 L102.6008,32.5518 L97.4248,29.5998 C95.9538,28.7598 94.1438,28.7798 92.6908,29.6528 L92.6908,29.6528 C91.7058,30.2438 90.4888,30.2988 89.4548,29.7988 L89.2948,29.7208 C87.7578,28.9778 85.9128,29.3748 84.8168,30.6828 L81.3168,34.8638 C83.1808,59.7428 64.0648,66.0368 64.0648,66.0368 C58.2198,69.3448 55.7398,70.0578 51.3228,69.9228 L37.8278,75.7388 C24.7228,92.8918 33.8328,100.9798 55.5748,94.9518 C72.8568,90.1598 87.1758,64.9098 92.4248,53.2408" id="Fill-32" fill="#ffdee3"/><path d="M14.5815,27.8591 C14.5815,27.8591 2.3785,29.7671 0.1865,49.0511 C-1.1275,60.6121 4.8155,75.3601 7.8625,84.0851 C11.8125,95.3961 29.2165,105.0071 44.5435,102.4691 C52.8205,101.0981 50.6845,86.7341 48.5555,82.8511 C44.2625,75.0231 49.2915,71.6841 49.2905,69.9891 C49.2835,60.4641 41.9345,64.5971 40.6305,57.1681 C36.8505,35.6431 22.7595,26.4081 14.5815,27.8591" id="Fill-33" fill="#FFC1FF"/><path d="M46.5459,68.3588 C46.5459,68.3588 47.9829,69.6468 54.2499,68.3768 C54.9679,68.2318 55.7199,69.1218 55.1989,69.6368 C51.8579,72.9418 49.2899,90.9968 57.5749,94.3018 C57.5749,94.3018 56.3659,98.3908 50.4619,98.1928 C49.8809,98.1738 49.3719,98.1688 48.9249,98.1738 C46.9459,98.1978 45.1729,97.0028 44.4279,95.1688 C41.9879,89.1588 38.3009,76.4338 46.5459,68.3588" id="Fill-34" fill="#F85786"/></g></g></g></g></svg>