<svg viewBox="157.5 17.95454545454544 135.0000000000001 347.8693181818182" xmlns="http://www.w3.org/2000/svg" overflow="visible" xmlns:xlink="http://www.w3.org/1999/xlink" width="135.0000000000001px" height="347.8693181818182px"><g id="Master/Stickers/Treble Clef" stroke="none" stroke-width="1" fill="none" fill-rule="evenodd"><g id="Group-3" transform="translate(160.000000, 21.000000)" fill="#B9C8FF"><path d="M100.8245,258.4412 C95.0405,235.0712 89.1285,211.7332 83.2105,188.3972 C90.4505,188.4192 97.6435,190.4222 103.4605,194.7762 C115.5645,203.8362 119.8315,222.0102 115.7265,236.1492 C112.7745,246.3182 108.4115,253.2832 100.8245,258.4412 M93.8675,262.2952 C63.5835,275.9192 27.6675,257.1152 21.1215,224.2592 C14.6665,191.8602 38.8305,159.9132 53.0265,132.8882 C54.0285,130.9802 54.9915,129.0632 55.9155,127.1362 C61.2575,144.8232 67.1755,163.3352 72.4345,180.8192 C59.2025,185.2022 48.6205,195.5832 48.3095,211.2512 C48.2155,216.0042 49.2445,220.8332 51.7825,224.8822 C54.4145,229.0822 60.3695,224.1482 57.7565,219.9782 C58.1465,220.6012 56.6475,216.9842 56.4205,215.9332 C55.1375,210.0102 56.8775,203.3042 60.0935,198.2662 C62.7705,194.0702 62.5895,193.6052 67.1015,191.6682 C69.5955,190.5972 72.2335,189.7932 74.9355,189.2402 C77.3515,197.4812 79.5695,205.4192 81.4445,212.8332 C85.6105,229.3062 89.8315,245.7742 93.9075,262.2752 C93.8945,262.2822 93.8815,262.2882 93.8675,262.2952 M51.5715,60.6302 C49.7215,52.7902 46.2135,43.7882 45.8585,35.7362 C45.6445,30.8982 48.6545,29.0892 53.0915,31.4082 C61.9825,36.0542 63.8355,49.8732 64.2295,58.6152 C64.6425,67.7812 61.7015,76.9212 57.6235,85.8802 C55.5825,77.4692 53.5585,69.0542 51.5715,60.6302 M109.1755,184.1752 C100.9125,179.2352 90.5895,177.5672 80.8035,178.8952 C78.4995,169.8032 76.1995,160.7102 73.9105,151.6142 C70.3505,137.4592 66.8265,123.2962 63.3285,109.1262 C66.1365,100.9912 68.3155,92.6342 69.8785,83.9792 C72.3565,70.2502 71.7825,44.5912 67.4695,31.0902 C64.3515,21.3342 42.2625,-9.1718 31.1245,2.7052 C25.0615,9.1712 31.2315,30.1602 32.9035,37.3772 C36.9475,54.8382 41.1575,72.2602 45.4315,89.6652 C46.4805,93.9362 47.6485,98.3832 48.9025,102.9552 C46.5085,107.4372 44.1895,111.8442 42.2575,116.1522 C34.7365,132.9172 24.7205,148.4322 16.5695,164.8842 C9.0765,180.0072 -0.3045,198.5432 0.0075,215.6962 C0.3385,233.8512 14.9805,254.2822 30.8935,263.3662 C49.2695,273.8552 75.3925,276.4642 95.6055,269.1932 C97.9065,278.6172 100.1545,288.0522 102.3015,297.5092 C104.4275,306.8762 108.6015,318.7512 104.4205,327.9662 C101.3065,334.8282 93.8495,337.9762 86.6465,337.4602 C90.5135,334.5592 92.6885,329.6712 91.8725,324.5652 C90.6995,317.2232 83.7975,312.2222 76.4555,313.3952 C71.3165,314.2162 67.3335,317.8492 65.8035,322.4702 C65.1425,323.0152 64.6925,323.8482 64.6715,325.0172 C64.2495,347.9382 98.1975,351.0032 109.3875,334.8512 C116.1715,325.0602 113.5905,312.9822 111.2465,302.1942 C108.6215,290.1102 105.6785,278.0942 102.7205,266.0872 C106.5335,264.0922 110.0295,261.6722 113.0845,258.8052 C134.0115,239.1682 135.9255,200.1662 109.1755,184.1752" id="Fill-1"/></g></g></svg>