<svg viewBox="60.772189349112466 39.5 291.50887573964496 202.43750000000006" xmlns="http://www.w3.org/2000/svg" overflow="visible" xmlns:xlink="http://www.w3.org/1999/xlink" width="291.50887573964496px" height="202.43750000000006px"><g id="Master/Character/Torso" stroke="none" stroke-width="1" fill="none" fill-rule="evenodd"><g id="Head" transform="translate(39.000000, 9.000000) scale(1.2307692307692308 1.2413793103448276)"><g id="Head/Ponytail" stroke="none" stroke-width="1" fill="none" fill-rule="evenodd"><g id="Head" transform="translate(19.000000, 24.000000)"><polygon id="Fill-1" fill="#ffdee3" points="75.4479 28.5783 75.4479 57.9863 96.3139 62.6203 89.5659 28.5783"/><g id="Group-17" transform="translate(0.000000, 0.620800)"><path d="M94.6209,53.4455 L93.7369,49.0155 L78.4819,35.4845 C78.4819,35.4845 80.9639,43.6205 86.1209,47.6255 C89.9199,50.5765 94.6209,53.4455 94.6209,53.4455" id="Fill-2" fill="#ffbdb1"/><path d="M94.5631,49.0609 L94.5631,49.0609 C84.9451,49.0609 77.6271,37.9919 77.6271,30.8679 L77.6271,13.3629 C77.6271,6.2389 83.7851,4.2499 91.5651,4.2499 C99.3451,4.2499 102.8331,5.6819 104.5891,8.4269 L104.8571,32.6519 C104.8571,41.7299 102.3431,49.0609 94.5631,49.0609" id="Fill-4" fill="#ffdee3"/><path d="M71.5518,30.3604 L70.9788,28.8824 C70.0928,26.5964 71.2278,24.0254 73.5128,23.1394 L73.5308,23.1324 C75.8168,22.2464 78.3878,23.3804 79.2738,25.6664 L79.8468,27.1444 C80.7328,29.4304 79.5988,32.0014 77.3128,32.8874 L77.2948,32.8944 C75.0088,33.7804 72.4378,32.6464 71.5518,30.3604" id="Fill-6" fill="#ffdee3"/><path d="M72.8468,28.7826 C72.6088,28.7826 72.3978,28.6116 72.3558,28.3676 C72.3498,28.3356 72.2178,27.5486 72.5248,26.6876 C72.8118,25.8796 73.5368,24.8516 75.3638,24.5356 C75.6288,24.4876 75.8938,24.6706 75.9418,24.9426 C75.9888,25.2156 75.8058,25.4736 75.5338,25.5206 C74.4498,25.7086 73.7538,26.2136 73.4658,27.0226 C73.2498,27.6286 73.3388,28.1916 73.3398,28.1976 C73.3878,28.4696 73.2048,28.7276 72.9338,28.7756 C72.9048,28.7806 72.8758,28.7826 72.8468,28.7826" id="Fill-8" fill="#ffbdb1"/><g id="Group-12" transform="translate(69.000000, 0.000000)" fill="#ebeced"><path d="M21.6745,1.0533 C0.0085,-0.6707 -2.9695,16.7033 2.5685,24.6313 C3.0495,23.9833 3.7045,23.4523 4.5125,23.1393 L4.5315,23.1323 C6.8165,22.2463 9.3875,23.3803 10.2735,25.6663 L10.3705,25.9153 C11.3495,25.2073 12.1235,24.2613 12.1725,23.0083 C12.2245,21.6683 12.8035,19.7343 14.2495,17.9463 C14.6235,17.4843 14.6365,10.7003 16.4975,8.7863 C16.6375,8.6423 16.1515,10.4133 16.0815,12.2443 C16.0115,14.0753 16.3575,15.9643 16.5345,15.8433 C19.3205,13.9243 23.6845,12.7193 30.2925,13.6793 C37.0565,14.6623 37.3185,17.5043 37.4485,14.1493 C37.8725,3.1283 28.5645,1.5413 22.3635,1.1043 C22.1285,1.0883 21.8985,1.0713 21.6745,1.0533" id="Fill-10"/></g><path d="M0,12.1522 C0,12.1522 26.419,30.2462 47.279,6.0982 C54.25,-1.9718 66.792,-1.3438 74.846,6.9862 C74.846,6.9862 61.833,9.9032 63.638,28.1682 C64.175,33.6012 60.872,38.6892 55.767,40.6242 L47.408,43.7932 L55.287,21.5982 L41.567,44.9782 C41.567,44.9782 32.873,50.2822 18.338,44.9782 C0.602,38.5072 0,12.1522 0,12.1522" id="Fill-13" fill="#ebeced"/><path d="M69.9279,11.3026 C69.8169,11.3026 69.7019,11.2836 69.5909,11.2436 C69.0719,11.0576 68.7999,10.4856 68.9869,9.9656 C70.8979,4.6196 73.6489,3.4336 73.9559,3.3156 C74.4699,3.1186 75.0489,3.3766 75.2469,3.8926 C75.4439,4.4036 75.1919,4.9756 74.6859,5.1776 C74.6149,5.2096 72.4519,6.2126 70.8689,10.6386 C70.7239,11.0476 70.3379,11.3026 69.9279,11.3026" id="Fill-15" fill="#F85786"/></g></g></g></g><g id="Expression" transform="translate(162.000000, 50.000000) scale(1.2608695652173914 1.2432432432432432)"><g id="Expression/Relax" stroke="none" stroke-width="1" fill="none" fill-rule="evenodd"><g id="Group-17" transform="translate(6.000000, 9.000000)"><path d="M0.9999,3.5256 C0.7589,3.5256 0.5169,3.4396 0.3249,3.2636 C-0.0791,2.8926 -0.1111,2.2676 0.2569,1.8596 C0.3609,1.7446 2.8689,-0.9674 7.0909,0.3696 C7.6169,0.5356 7.9089,1.0976 7.7419,1.6246 C7.5759,2.1506 7.0159,2.4446 6.4869,2.2766 C3.5289,1.3396 1.8069,3.1306 1.7349,3.2066 C1.5379,3.4186 1.2699,3.5256 0.9999,3.5256" id="Fill-1" fill="#ebeced"/><path d="M15.1122,3.6828 C14.8192,3.6828 14.5302,3.5548 14.3332,3.3108 C14.2832,3.2558 13.9292,2.8988 13.1492,2.9898 C12.5852,3.0608 12.1032,2.6608 12.0402,2.1128 C11.9752,1.5638 12.3692,1.0678 12.9172,1.0038 C14.8602,0.7738 15.8032,1.9418 15.9062,2.0758 C16.2412,2.5148 16.1572,3.1418 15.7182,3.4768 C15.5372,3.6158 15.3242,3.6828 15.1122,3.6828" id="Fill-3" fill="#ebeced"/><path d="M4.8085,12.6931 C3.9215,12.6931 3.0185,12.1761 2.1185,11.1511 C1.9365,10.9441 1.9565,10.6281 2.1635,10.4461 C2.3705,10.2641 2.6865,10.2841 2.8705,10.4911 C3.6305,11.3581 4.3265,11.7541 4.9605,11.6841 C5.8175,11.5811 6.3395,10.6011 6.3445,10.5911 C6.4735,10.3471 6.7735,10.2521 7.0185,10.3791 C7.2635,10.5051 7.3595,10.8051 7.2335,11.0501 C7.2035,11.1091 6.4715,12.5051 5.0875,12.6761 C4.9955,12.6871 4.9015,12.6931 4.8085,12.6931" id="Fill-6" fill="#ffbdb1"/><path d="M14.1874,13.2067 C13.4024,13.2067 12.8924,12.2597 12.5754,11.5367 C12.4644,11.2837 12.5794,10.9887 12.8324,10.8767 C13.0864,10.7687 13.3804,10.8807 13.4914,11.1337 C13.9284,12.1317 14.1974,12.2067 14.2004,12.2067 C14.3204,12.1567 14.5834,11.6537 14.6964,11.2107 C14.7654,10.9437 15.0414,10.7817 15.3044,10.8507 C15.5724,10.9197 15.7334,11.1917 15.6654,11.4597 C15.5644,11.8507 15.1664,13.1307 14.2684,13.2037 C14.2414,13.2057 14.2134,13.2067 14.1874,13.2067" id="Fill-8" fill="#ffbdb1"/><g id="Group-12" transform="translate(7.000000, 20.007800)" fill="#F85786"><path d="M0.4042,0.6701 C0.4042,3.0611 1.8582,5.0001 3.6512,5.0001 C5.4452,5.0001 6.8992,3.0611 6.8992,0.6701" id="Fill-10"/></g><path d="M13.899,20.2976 C13.899,19.1016 13.147,18.1326 12.219,18.1326 C11.291,18.1326 10.539,19.1016 10.539,20.2976" id="Fill-13" fill="#F85786"/><path d="M10.764,20.2976 C10.764,19.1016 10.012,18.1326 9.084,18.1326 C8.156,18.1326 7.404,19.1016 7.404,20.2976" id="Fill-15" fill="#F85786"/></g></g></g><g id="Beard" transform="translate(150.000000, 70.000000) scale(1.2352941176470589 1.25)" fill="#000"><g id="Beard/None" stroke="none" stroke-width="1" fill="none" fill-rule="evenodd" fill-opacity="0"/></g><g id="Accesories" transform="translate(147.000000, 60.000000) scale(1.236842105263158 1.2)" fill="#000"><g id="Accesories/None" stroke="none" stroke-width="1" fill="none" fill-rule="evenodd" fill-opacity="0"/></g><g id="Upper Body" transform="translate(1.000000, 32.000000) scale(1.241635687732342 1.2432432432432432)"><g id="Upper Body/Playing the Violin" stroke="none" stroke-width="1" fill="none" fill-rule="evenodd"><g id="Group-69" transform="translate(85.000000, 41.000000)"><path d="M60.395,24.9299 L98.299,53.4689 C112.02,61.8799 125.813,45.5169 134.962,48.6899 C148.463,53.3719 154.126,62.0099 145.067,71.5939 C145.067,71.5939 133.654,82.2299 119.283,88.2979 C80.623,104.6229 60.079,70.9199 60.079,70.9199 L60.395,24.9299 Z" id="Fill-1" fill="#ED9CF7"/><path d="M17.1307,99.8572 L17.4927,98.1762 C17.5697,97.8172 17.5757,97.4462 17.5107,97.0852 L6.1557,34.3582 C0.8737,11.5332 22.1707,3.3072 36.9807,10.2742 L55.3777,21.3702 C66.4567,28.5162 72.4477,41.2272 70.8307,54.1552 C69.7377,52.1472 69.8707,82.6032 72.2697,100.0512 C72.8667,104.3932 67.6487,105.6452 66.2487,105.6742 L18.7617,105.713901 C16.1837,105.7702 16.5967,102.3372 17.1307,99.8572" id="Fill-3" fill="#ED9CF7"/><polygon id="Fill-5" fill="#D1DDF0" points="55.1123 21.1862 60.1603 32.7042 61.9553 25.2652"/><path d="M72.5703,100.2833 L71.8943,100.3573 C70.4083,100.5213 69.0883,99.4163 68.9973,97.9243 C68.4063,88.2663 66.3583,55.8393 64.9583,46.7753 C63.2763,35.8793 60.3953,24.9303 60.3953,24.9303 L69.6993,32.8913 C69.6993,32.8913 73.6093,50.0783 72.8503,70.8903 C72.1523,90.0663 72.5703,96.9273 72.5703,100.2833" id="Fill-7" fill="#5A629D"/><path d="M49.9345,41.1468 C49.9345,41.1468 55.1605,62.7128 53.0515,85.2798 C52.1465,94.9668 43.5125,102.0608 33.8345,101.0648 L16.3195,99.5718 C16.3195,99.5718 -1.5375,21.2238 17.1695,9.2908 C17.1695,9.2908 47.5265,-3.5512 49.9345,41.1468" id="Fill-9" fill="#5A629D"/><polygon id="Fill-11" fill="#D1DDF0" points="36.6703 8.8171 34.7643 9.6021 47.1323 31.4351 53.9613 20.4921"/><path d="M54.7118,28.1954 C54.8398,29.0794 54.4748,29.8644 53.8958,29.9484 C53.3168,30.0324 52.7438,29.3834 52.6158,28.4994 C52.4868,27.6154 52.8528,26.8304 53.4318,26.7464 C54.0108,26.6624 54.5838,27.3114 54.7118,28.1954" id="Fill-13" fill="#643FE1"/><path d="M58.53,41.8291 C58.658,42.7131 58.293,43.4981 57.714,43.5821 C57.135,43.6661 56.562,43.0171 56.434,42.1331 C56.305,41.2491 56.671,40.4641 57.25,40.3801 C57.829,40.2961 58.402,40.9451 58.53,41.8291" id="Fill-15" fill="#643FE1"/><path d="M58.6196,96.4941 C58.5866,97.3871 58.0856,98.0931 57.5006,98.0711 C56.9166,98.0491 56.4696,97.3081 56.5026,96.4151 C56.5356,95.5221 57.0366,94.8161 57.6216,94.8381 C58.2056,94.8601 58.6526,95.6011 58.6196,96.4941" id="Fill-17" fill="#643FE1"/><path d="M60.1367,56.2213 C60.1877,57.1133 59.7557,57.8633 59.1717,57.8963 C58.5877,57.9303 58.0727,57.2343 58.0217,56.3423 C57.9707,55.4503 58.4027,54.7003 58.9867,54.6673 C59.5707,54.6333 60.0857,55.3293 60.1367,56.2213" id="Fill-19" fill="#643FE1"/><path d="M56.5556,31.5045 L59.5946,41.6985 C59.5946,41.6985 61.6776,48.4225 69.2206,49.5405 C83.8286,51.7045 92.1886,49.4025 91.3736,47.9835 C91.3736,47.9835 90.7076,45.3215 93.2196,43.6165 C95.7326,41.9105 107.6586,42.0505 108.1886,45.7245 C108.7956,49.9335 116.7616,47.4445 122.3556,48.5285 C127.9496,49.6125 142.1186,52.2085 147.3746,41.5105 C147.9206,40.4015 149.9006,37.2275 151.3026,36.4505 C156.2126,33.7315 160.3536,35.6595 160.485843,33.1675 C160.5476,31.9935 148.7436,29.3295 148.7436,29.3295 L56.5556,31.5045 Z" id="Fill-21" fill="#F85786"/><path d="M100.6852,16.5327 L103.1762,16.9517 C102.4052,18.9687 104.6432,19.5357 106.6462,19.8217 C122.4612,22.0857 117.6662,17.5807 119.3012,17.5927 C119.3012,17.5927 122.0782,19.2487 135.4562,19.6507 C147.1612,20.0027 148.7442,29.3297 148.7442,29.3297 C148.7442,29.3297 149.3312,37.9617 139.5692,40.5917 C127.2102,43.9217 116.6442,36.0007 111.6902,39.1987 C108.2162,41.4407 111.7862,36.1647 105.7522,35.1637 C96.1322,33.5667 90.4192,36.5257 90.1802,39.3647 C90.1802,39.3647 54.3032,44.8967 56.3212,28.7837 C58.7202,9.6247 87.9932,15.7447 100.6852,16.5327" id="Fill-23" fill="#FF9B8F"/><path d="M106.582,21.9882 C106.4,21.9882 106.166,21.9472 105.862,21.8402 C105.732,21.7942 105.664,21.6512 105.711,21.5202 C105.758,21.3902 105.899,21.3212 106.03,21.3692 C106.489,21.5322 106.693,21.4902 106.73,21.4632 C106.711,21.4562 106.598,21.2942 106.286,21.1842 C105.801,21.0142 104.247,20.8392 102.743,20.6682 C101.668,20.5462 100.651,20.4312 99.968,20.3142 C98.325,20.0332 96.766,19.6632 96.484,18.8632 C96.353,18.4942 96.467,18.2682 96.586,18.1432 C97.083,17.6192 98.632,18.0272 99.094,18.1652 C99.227,18.2042 99.302,18.3432 99.262,18.4762 C99.223,18.6082 99.083,18.6832 98.951,18.6442 C98.14,18.4032 97.14,18.2822 96.948,18.4882 C96.908,18.5302 96.93,18.6252 96.955,18.6972 C97.179,19.3302 99.341,19.7002 100.052,19.8212 C100.722,19.9362 101.778,20.0552 102.8,20.1712 C104.401,20.3532 105.913,20.5242 106.452,20.7132 C106.864,20.8572 107.152,21.1232 107.206,21.4062 C107.237,21.5752 107.183,21.7342 107.055,21.8432 C106.965,21.9202 106.818,21.9882 106.582,21.9882" id="Fill-25" fill="#443389"/><path d="M111.7479,27.0076 L112.8949,24.4356 C113.3599,23.3916 114.4659,22.7886 115.5959,22.9626 L175.0009,32.1276 C179.4609,33.0356 187.328563,37.3286 187.328563,37.3286 C187.3749,38.1396 184.9089,41.8496 184.1029,41.7526 L170.4299,35.3326 L112.9599,29.0826 C111.9529,28.9876 111.3359,27.9316 111.7479,27.0076" id="Fill-27" fill="#443389"/><path d="M57.046,25.231 L87.389,26.837 C88.128,26.859 89.91,26.433 90.108,25.346 L91.509,22.518 C91.727,21.584 90.853,21.073 89.897,21.131 L59.336,21.224 L58.901,21.776 C58.006,22.649 57.643,23.696 57.19,24.861 L57.046,25.231 Z" id="Fill-29" fill="#443389"/><g id="Group-33" transform="translate(170.000000, 30.633000)" fill="#FF9B8F"><path d="M0.4303,4.7 L1.6963,7.035 C2.2983,7.531 3.3183,9.255 6.8263,10.418 C16.2753,13.552 17.6073,16.219 21.3323,15.708 C28.1873,14.768 29.4333,5.926 24.4663,2.585 C18.0083,-1.758 14.9883,3.183 14.4543,4.821 C14.3523,5.133 14.2583,6.153 14.2583,6.927 C14.2573,8.288 11.9633,8.394 10.7343,7.809 L7.7123,6.372 C5.7793,5 2.6373,4.77 0.4303,4.7" id="Fill-31"/></g><path d="M180.6918,44.023 C180.1738,45.127 178.8578,45.602 177.7538,45.084 C176.6498,44.565 176.1748,43.25 176.6928,42.146 C177.2108,41.041 178.5268,40.567 179.6308,41.085 C180.7348,41.603 181.2098,42.919 180.6918,44.023" id="Fill-36" fill="#443389"/><path d="M179.1581,42.8842 L178.8621,42.8382 C178.3461,42.7592 177.9921,42.2752 178.0711,41.7582 L178.2831,40.3892 C178.3631,39.8732 178.8461,39.5182 179.3631,39.5982 L179.6591,39.6442 C180.1751,39.7242 180.5291,40.2072 180.4491,40.7242 L180.2381,42.0932 C180.1581,42.6102 179.6751,42.9642 179.1581,42.8842" id="Fill-38" fill="#443389"/><path d="M187.1745,46.5787 C186.6565,47.6827 185.3405,48.1577 184.2365,47.6397 C183.1325,47.1207 182.6575,45.8057 183.1755,44.7017 C183.6935,43.5967 185.0095,43.1227 186.1135,43.6407 C187.2175,44.1587 187.6925,45.4747 187.1745,46.5787" id="Fill-40" fill="#443389"/><path d="M100.6332,20.6409 L100.5352,20.6519 C99.7152,20.7459 98.9992,21.2489 98.6342,21.9899 L97.1252,25.0509 C96.6272,26.0599 96.6432,27.2449 97.1682,28.2399 L97.2572,28.4089 C97.5082,28.8859 98.2002,28.8559 98.4092,28.3599 L101.2972,21.5279 C101.4882,21.0759 101.1212,20.5849 100.6332,20.6409" id="Fill-44" fill="#FFC1FF"/><polygon id="Fill-46" fill="#8069FF" points="184.1698 37.7939 175.3128 34.4409 98.5198 25.4779 78.4978 24.6939 78.5178 24.1939 98.5588 24.9789 175.4308 33.9589 184.3478 37.3259"/><polygon id="Fill-48" fill="#8069FF" points="184.4413 36.8022 175.6083 33.4442 98.8263 23.7962 80.6713 23.0862 80.6913 22.5862 98.8673 23.2982 175.7283 32.9622 184.6193 36.3342"/><polygon id="Fill-50" fill="#8069FF" points="184.4706 36.1098 176.5226 32.7868 99.7096 22.3588 81.2436 21.9258 81.2556 21.4258 99.7486 21.8608 176.6856 32.3128 184.6636 35.6488"/><path d="M90.7538,32.8525 C90.0458,32.8525 88.7048,32.7555 88.2348,32.0565 C88.0058,31.7155 88.0098,31.2975 88.2458,30.8135 C88.9298,29.4155 91.6748,29.6995 92.9928,29.8365 C93.8758,29.9285 95.1648,30.1675 96.5288,30.4215 C98.3448,30.7585 100.4038,31.1425 101.0578,31.0535 C101.4568,30.9995 101.6808,30.7805 101.7508,30.6095 C101.7788,30.5395 101.7988,30.4395 101.7328,30.3545 C101.6858,30.2965 101.4828,30.1155 100.8378,30.2075 C100.7038,30.2255 100.5738,30.1315 100.5558,29.9955 C100.5358,29.8585 100.6308,29.7315 100.7678,29.7125 C101.5828,29.5935 101.9578,29.8305 102.1268,30.0475 C102.2908,30.2575 102.3218,30.5315 102.2138,30.7975 C102.0528,31.1925 101.6358,31.4795 101.1238,31.5485 C100.3928,31.6495 98.4708,31.2905 96.4388,30.9135 C95.1438,30.6725 93.8038,30.4235 92.9418,30.3335 C91.8288,30.2175 89.2248,29.9475 88.6948,31.0335 C88.4658,31.5025 88.6048,31.7095 88.6498,31.7775 C88.9918,32.2855 90.3688,32.3955 91.1498,32.3405 C91.3008,32.3355 91.4058,32.4355 91.4148,32.5735 C91.4248,32.7115 91.3198,32.8305 91.1828,32.8395 C91.1268,32.8435 90.9698,32.8525 90.7538,32.8525" id="Fill-52" fill="#443389"/><path d="M142.0832,0.8049 L142.5662,2.9049 C142.5692,3.0129 143.2322,5.7529 143.1872,5.8479 L142.1342,6.5999 L141.3522,5.0269 L86.2392,121.7749 C86.2202,121.8149 88.0122,121.5719 88.0122,121.5719 C88.2062,121.8069 87.8632,122.6959 87.7952,122.7409 L84.1322,123.5019 C83.4722,123.9359 82.5482,123.2109 82.8762,122.5159 L140.5212,0.4069 C140.8612,-0.3151 142.0602,-0.0091 142.0832,0.8049" id="Fill-54" fill="#443389"/><path d="M142.2533,6.2682 L143.1873,5.8482 L88.3763,121.8882 L87.8773,122.6942 C87.6363,122.8522 87.1343,122.4622 87.4673,121.7552 L141.6693,7.0442 C141.8573,6.6452 141.9813,6.3412 142.2533,6.2682" id="Fill-56" fill="#B9C8FF"/><path d="M134.0838,53.0422 L140.4818,48.9492 L147.9478,36.9802 C147.9478,36.9802 150.4058,27.5852 153.0518,27.6942 C156.1688,27.8242 153.8468,32.3462 153.8828,35.7922 C153.8898,36.4052 154.7398,36.6822 155.0898,36.1892 L157.0258,29.5372 C157.7318,27.7902 160.1058,27.3082 161.6858,28.6152 C163.6318,30.2262 165.8258,32.9882 166.6228,37.5402 C167.0918,40.2182 165.6878,47.2062 161.3708,51.3322 C156.8938,55.6122 151.7748,60.6792 144.2598,65.4512 C144.2598,65.4512 139.6998,67.2322 135.5078,63.6592 C132.3388,60.9572 130.9268,54.3232 134.0838,53.0422" id="Fill-58" fill="#ffdee3"/><path d="M77.4058,70.9325 L109.6198,73.3705 C113.9308,73.0645 116.6878,78.7885 114.9058,82.3545 L113.0908,85.8135 C113.9118,89.0925 112.8738,92.9195 109.8528,96.1275 L104.6028,100.5095 C102.3478,102.8935 102.3058,104.7485 100.2648,103.2255 L98.6348,101.6465 C97.2698,98.6555 101.5068,95.4425 97.0538,94.0705 L72.4368,88.2645 L77.4058,70.9325 Z" id="Fill-60" fill="#ffdee3"/><path d="M86.2024,70.541 L74.9264,70.164 L78.5074,92.762 L88.9404,92.762 C88.9404,92.762 92.1434,76.695 86.2024,70.541" id="Fill-62" fill="#D1DDF0"/><g id="Group-66" transform="translate(0.000000, 7.633000)" fill="#FFC1FF"><path d="M23.855,0.5285 C23.855,0.5285 7.651,-1.2015 1.919,20.4635 C-1.518,33.4525 0.186,52.4935 2.933,59.9805 C7.589,72.6725 15.461,81.2025 29.816,87.2555 C46.826,94.4285 73.13,89.8975 78.436,88.8875 C86.758,87.3045 82.778,68.5595 80.2,62.0975 C75.759,50.9605 39.932,69.6685 30.694,33.7305 C26.319,16.7065 29.46,3.6395 23.855,0.5285" id="Fill-64"/></g><path d="M137.9186,49.3456 L132.3076,53.6456 C132.3076,53.6456 130.1056,59.7796 134.9076,64.2886 C138.4856,67.6486 143.0516,68.2116 145.0756,66.9586 C147.0996,65.7066 150.3656,62.5316 150.3656,62.5316 L150.4246,61.1046 C150.4246,61.1046 145.3206,65.7316 139.6536,59.4866 C135.2676,54.6526 138.8226,50.0106 138.8226,50.0106 L137.9186,49.3456 Z" id="Fill-67" fill="#D1DDF0"/></g></g></g></g></svg>