<svg viewBox="83.72093023255815 104.40000000000003 203.4883720930233 365.3999999999999" fill="none" xmlns="http://www.w3.org/2000/svg" xmlns:xlink="http://www.w3.org/1999/xlink" overflow="visible" width="203.4883720930233px" height="365.3999999999999px"><g id="Master/Character/Standing"><g id="Lower Body Standing" transform="translate(32 185) scale(1 1)"><g id="Lower Body Standing/High Heels"><g id="High Heels"><path id="Skin" fill-rule="evenodd" clip-rule="evenodd" d="M218.056 211.169L230.875 237.326L243.783 252.874L233.742 259.022L228.103 257.122L227.606 262.779L202.213 278.325H169.851L170.208 276.872C171.804 270.371 177.66 265.821 184.354 265.881L187.871 265.912C188.844 265.921 189.801 265.66 190.636 265.159L192.122 264.268C193.607 263.377 194.561 261.814 194.675 260.085L195.08 253.929L182.312 229.126C177.487 219.753 180.765 208.244 189.805 202.821C199.85 196.794 212.901 200.65 218.056 211.169ZM137.963 219.166C140.992 212.549 147.601 208.305 154.879 208.305C168.123 208.305 177.126 221.751 172.08 233.996L161.826 258.884V278.326H149.852L146.61 274.512L142.874 278.326H87.5L87.688 277.803C90.085 271.131 95.874 266.256 102.857 265.029L109.95 263.782C113.588 263.142 116.973 261.493 119.718 259.022L137.963 219.166Z" fill="#dcad7f"/><path id="Fill 116" fill-rule="evenodd" clip-rule="evenodd" d="M170.488 277.825H202.071L227.129 262.484L227.604 257.078C227.617 256.926 227.7 256.788 227.828 256.704C227.956 256.62 228.115 256.599 228.261 256.649L233.679 258.473L243.029 252.749L230.489 237.645C230.464 237.615 230.443 237.581 230.426 237.546L217.606 211.389C215.211 206.501 210.842 202.813 205.622 201.27C200.402 199.728 194.731 200.449 190.062 203.249C181.275 208.521 178.066 219.787 182.756 228.897L195.524 253.7C195.565 253.781 195.584 253.871 195.578 253.962L195.173 260.118C195.049 262.01 194.004 263.721 192.378 264.697L190.892 265.588C189.978 266.137 188.905 266.404 187.866 266.412L184.349 266.381C177.844 266.295 172.24 270.686 170.692 276.992L170.488 277.825ZM202.213 278.825H169.85C169.696 278.825 169.551 278.754 169.457 278.634C169.362 278.512 169.328 278.355 169.365 278.206L169.721 276.753C171.381 269.995 177.397 265.341 184.358 265.381L187.875 265.412C188.769 265.434 189.622 265.185 190.378 264.731L191.863 263.839C193.208 263.033 194.072 261.617 194.175 260.053L194.571 254.034L181.867 229.355C176.937 219.777 180.31 207.934 189.547 202.392C194.455 199.448 200.418 198.689 205.905 200.311C211.394 201.933 215.986 205.81 218.504 210.949L231.297 237.053L244.167 252.555C244.26 252.667 244.3 252.813 244.276 252.956C244.252 253.099 244.167 253.225 244.044 253.301L234.003 259.448C233.877 259.526 233.723 259.544 233.582 259.495L228.544 257.799L228.103 262.823C228.09 262.98 228.002 263.122 227.866 263.205L202.474 278.751C202.395 278.8 202.305 278.825 202.213 278.825V278.825Z" fill="black"/><path id="Fill 121" fill-rule="evenodd" clip-rule="evenodd" d="M150.083 277.825H161.325V258.883C161.325 258.818 161.338 258.753 161.363 258.693L171.617 233.806C173.923 228.21 173.289 221.866 169.922 216.837C166.555 211.807 160.931 208.805 154.879 208.805C147.818 208.805 141.356 212.953 138.417 219.374L120.173 259.23C120.144 259.292 120.103 259.348 120.052 259.394C117.234 261.93 113.771 263.618 110.036 264.274L102.943 265.521C96.2054 266.705 90.5744 271.413 88.2114 277.825H142.664L146.253 274.161C146.351 274.061 146.489 274.001 146.628 274.012C146.768 274.017 146.9 274.081 146.991 274.188L150.083 277.825ZM161.825 278.825H149.852C149.705 278.825 149.566 278.761 149.471 278.649L146.584 275.252L143.231 278.675C143.137 278.771 143.008 278.825 142.874 278.825H87.5004C87.3374 278.825 87.1844 278.746 87.0914 278.613C86.9974 278.48 86.9744 278.31 87.0294 278.156L87.2174 277.634C89.6694 270.81 95.6284 265.791 102.77 264.536L109.864 263.289C113.379 262.671 116.642 261.092 119.307 258.719L137.508 218.958C140.609 212.183 147.427 207.805 154.879 207.805C161.265 207.805 167.2 210.973 170.753 216.28C174.306 221.587 174.975 228.281 172.542 234.187L162.325 258.982V278.325C162.325 278.602 162.102 278.825 161.825 278.825V278.825Z" fill="black"/><path id="Shoes" fill-rule="evenodd" clip-rule="evenodd" d="M169.851 278.325L170.207 276.872C171.803 270.371 177.66 265.821 184.353 265.88L187.871 265.912C187.871 268.164 189.697 269.991 191.95 269.991H194.363C195.107 269.991 195.837 269.788 196.474 269.402L237.104 244.829L243.783 252.874L233.742 259.021L228.102 257.122L227.605 262.778L202.213 278.325H169.851ZM107.641 264.33C108.634 266.663 110.681 268.382 113.15 268.958C113.742 269.097 114.349 269.166 114.957 269.166H161.826V278.325H149.852L146.61 274.511L142.874 278.325H87.5L87.688 277.802C90.085 271.13 95.874 266.255 102.857 265.028L107.585 264.197L107.641 264.33Z" fill="#FCBD21"/><path id="Fill 125" fill-rule="evenodd" clip-rule="evenodd" d="M170.488 277.825H202.071L227.129 262.484L227.604 257.078C227.617 256.926 227.7 256.788 227.828 256.704C227.956 256.62 228.115 256.599 228.261 256.649L233.679 258.473L243.029 252.749L236.994 245.48L196.733 269.83C196.018 270.263 195.198 270.492 194.363 270.492H191.95C189.592 270.492 187.645 268.7 187.397 266.408L184.349 266.381C177.844 266.295 172.24 270.686 170.692 276.992H170.693L170.488 277.825ZM202.213 278.825H169.85C169.696 278.825 169.551 278.754 169.457 278.634C169.362 278.512 169.328 278.355 169.365 278.206L169.721 276.753C171.381 269.995 177.397 265.341 184.358 265.381L187.875 265.412C188.149 265.414 188.37 265.637 188.37 265.912C188.37 267.886 189.976 269.492 191.95 269.492H194.363C195.016 269.492 195.656 269.313 196.215 268.975L236.845 244.402C237.057 244.272 237.33 244.32 237.488 244.51L244.167 252.555C244.26 252.667 244.3 252.813 244.276 252.956C244.252 253.099 244.167 253.225 244.044 253.301L234.003 259.448C233.877 259.526 233.723 259.544 233.582 259.495L228.544 257.799L228.103 262.823C228.09 262.98 228.002 263.122 227.866 263.205L202.474 278.751C202.395 278.8 202.305 278.825 202.213 278.825V278.825Z" fill="black"/><path id="Fill 130" fill-rule="evenodd" clip-rule="evenodd" d="M150.083 277.825H161.325V269.666H114.956C114.309 269.666 113.663 269.592 113.036 269.445C110.503 268.854 108.371 267.111 107.284 264.758L102.942 265.521C96.2054 266.704 90.5744 271.413 88.2114 277.825H142.664L146.253 274.161C146.351 274.06 146.489 274.001 146.627 274.012C146.768 274.016 146.9 274.08 146.991 274.187L150.083 277.825ZM161.825 278.825H149.852C149.705 278.825 149.565 278.761 149.471 278.649L146.583 275.252L143.23 278.675C143.137 278.771 143.008 278.825 142.874 278.825H87.5004C87.3374 278.825 87.1844 278.746 87.0914 278.613C86.9974 278.48 86.9744 278.309 87.0294 278.156L87.2164 277.634C89.6684 270.809 95.6284 265.791 102.77 264.535L107.498 263.704C107.726 263.665 107.953 263.787 108.044 264.001L108.101 264.134C109.028 266.312 110.958 267.933 113.263 268.471C113.815 268.601 114.385 268.666 114.956 268.666H161.825C162.102 268.666 162.325 268.89 162.325 269.166V278.325C162.325 278.601 162.102 278.825 161.825 278.825V278.825Z" fill="black"/><path id="Pants" fill-rule="evenodd" clip-rule="evenodd" d="M224.364 77.4998H142.426V107.815C142.426 107.815 140.892 130.524 135.061 139.424C129.231 148.324 139.051 158.758 140.585 163.975C142.119 169.191 143.654 174.715 143.654 174.715C143.654 174.715 138.437 181.774 135.061 194.663C131.686 207.552 124.663 215.224 124.663 215.224C124.663 215.224 160.225 237.012 205.03 240.388C205.03 240.388 204.614 222.896 206.817 218.292L231.115 205.404C231.115 205.404 225.898 193.435 216.692 189.446C207.485 185.457 209.94 179.933 209.94 179.933C209.94 179.933 224.364 167.657 221.909 150.165C219.454 132.673 221.295 135.128 224.671 121.932C228.046 108.736 222.364 77.4998 222.364 77.4998" fill="#FF5613"/><path id="Fill 134" fill-rule="evenodd" clip-rule="evenodd" d="M204.52 239.847C204.468 236.777 204.335 222.322 206.366 218.076C206.412 217.98 206.488 217.901 206.583 217.85L230.462 205.184C229.44 203.047 224.446 193.35 216.493 189.905C212.839 188.321 210.513 186.305 209.579 183.911C208.677 181.596 209.451 179.805 209.484 179.729C209.514 179.661 209.56 179.6 209.617 179.552C209.759 179.43 223.802 167.243 221.414 150.234C219.547 136.929 220.171 134.982 222.025 129.202C222.62 127.346 223.361 125.037 224.187 121.807C227.284 109.7 222.346 81.847 221.918 78H142.927V107.815C142.863 108.782 141.315 130.791 135.48 139.698C131.363 145.983 135.487 153.277 138.498 158.603C139.649 160.638 140.642 162.395 141.065 163.833C142.583 168.994 144.121 174.526 144.137 174.581C144.178 174.729 144.148 174.889 144.057 175.012C144.005 175.082 138.854 182.157 135.546 194.789C132.64 205.882 126.977 213.236 125.43 215.097C129.909 217.717 163.467 236.609 204.52 239.847ZM204.993 240.887C160.581 237.54 124.759 215.868 124.402 215.65C124.275 215.572 124.189 215.441 124.168 215.293C124.147 215.145 124.194 214.996 124.294 214.886C124.364 214.81 131.276 207.144 134.578 194.536C137.628 182.892 142.241 175.875 143.109 174.621C142.804 173.525 141.447 168.675 140.106 164.116C139.715 162.787 138.748 161.076 137.628 159.095C134.49 153.545 130.192 145.944 134.643 139.15C140.335 130.462 141.913 108.007 141.928 107.782L141.927 77.5C141.927 77.223 142.151 77 142.427 77H222.365C222.618 77 222.831 77.19 222.861 77.441C223.012 78.721 228.515 108.921 225.156 122.055C224.322 125.314 223.576 127.639 222.977 129.507C221.127 135.275 220.569 137.016 222.405 150.096C224.763 166.898 211.629 179.096 210.362 180.228C210.098 180.953 208.835 185.496 216.891 188.987C226.172 193.008 231.358 204.708 231.574 205.204C231.679 205.443 231.581 205.723 231.35 205.846L207.201 218.655C205.15 223.318 205.526 240.204 205.531 240.376C205.534 240.517 205.477 240.653 205.375 240.75C205.282 240.839 205.158 240.888 205.031 240.888C205.018 240.888 205.006 240.888 204.993 240.887Z" fill="black"/><path id="Fill 136" fill-rule="evenodd" clip-rule="evenodd" d="M206.817 218.792C206.769 218.792 206.719 218.785 206.671 218.77C206.406 218.689 206.258 218.409 206.339 218.146C210.662 204.059 208.211 195.727 206.894 191.25C206.663 190.466 206.464 189.79 206.329 189.193C205.368 184.94 209.378 179.836 209.549 179.621C209.721 179.404 210.037 179.371 210.252 179.541C210.468 179.712 210.504 180.027 210.332 180.243C210.293 180.292 206.449 185.189 207.305 188.973C207.433 189.538 207.628 190.201 207.853 190.968C209.199 195.545 211.706 204.065 207.295 218.438C207.229 218.654 207.031 218.792 206.817 218.792" fill="black"/><path id="Fill 138" fill-rule="evenodd" clip-rule="evenodd" d="M143.654 175.215C143.463 175.215 143.28 175.105 143.197 174.919C143.085 174.667 143.197 174.371 143.45 174.258C143.565 174.207 154.977 169.002 157.194 158.838L157.316 158.276C159.53 148.114 160.359 144.312 167.414 137.433C174.925 130.111 179.202 119.568 180.546 114.493C180.617 114.226 180.891 114.068 181.157 114.138C181.424 114.209 181.583 114.482 181.512 114.749C180.143 119.923 175.779 130.674 168.112 138.149C161.272 144.819 160.461 148.541 158.293 158.489L158.17 159.05C155.844 169.715 144.345 174.954 143.857 175.172C143.791 175.201 143.722 175.215 143.654 175.215" fill="black"/></g></g></g><g id="Head" transform="translate(193 148) scale(1 1)"><g id="Head/Happy Neutral"><path id="Path 2" fill-rule="evenodd" clip-rule="evenodd" d="M12.5 43.7363C12.5 43.7363 16.0343 41.1592 15.4058 30.5163C15.4058 30.5163 20.9953 33.4358 27.0934 28.4994L28.5 43.6134C28.5 43.6134 24.2721 48.9732 19.8389 48.4534C15.4058 47.9337 12.5 43.7363 12.5 43.7363Z" fill="#dcad7f"/><path id="Path 2 Copy" fill-rule="evenodd" clip-rule="evenodd" d="M15.6186 29.6569C19.1685 31.589 22.8731 30.9229 26.799 27.6111C27.1107 27.3482 27.5511 27.5754 27.5908 28.0195L28.9974 43.7693C29.0117 43.9295 28.9677 44.0893 28.8761 44.2104C25.9593 48.0636 22.9235 49.8314 19.7865 49.4481C16.6923 49.0701 14.1229 47.3491 12.1037 44.3099C11.9264 44.0429 11.9825 43.6577 12.2257 43.4729C14.3851 41.8321 15.3152 37.4227 14.9069 30.2187C14.882 29.7788 15.274 29.4693 15.6186 29.6569ZM27.979 43.8473L26.683 29.4994L26.4197 29.6984C22.8774 32.3023 19.423 32.914 16.097 31.5055L15.95 31.4411L15.9735 32.0363C16.1716 38.1667 15.2955 42.2314 13.2751 44.214L13.214 44.2707L13.3506 44.4569C15.0493 46.7135 17.1119 48.0252 19.5558 48.4088L19.8915 48.4554C22.6653 48.7903 25.4036 47.2146 28.124 43.6632L27.979 43.8473Z" fill="black"/><g id="Happy Neutral"><path id="Skin" fill-rule="evenodd" clip-rule="evenodd" d="M19.7086 31.4032C12.9636 31.4032 7.49463 25.6032 7.49463 18.4492C7.49463 11.2952 12.9636 5.49524 19.7086 5.49524C26.4546 5.49524 31.9236 11.2952 31.9236 18.4492C31.9236 25.6032 26.4546 31.4032 19.7086 31.4032Z" fill="#dcad7f"/><path id="Combined Shape" fill-rule="evenodd" clip-rule="evenodd" d="M7.99 18.4492C7.99 25.3192 13.247 30.9072 19.709 30.9072C26.171 30.9072 31.429 25.3192 31.429 18.4492C31.429 11.5792 26.171 5.99124 19.709 5.99124C13.247 5.99124 7.99 11.5792 7.99 18.4492ZM7 18.4492C7 11.0332 12.701 5.00024 19.709 5.00024C26.718 5.00024 32.419 11.0332 32.419 18.4492C32.419 25.8652 26.718 31.8982 19.709 31.8982C12.701 31.8982 7 25.8652 7 18.4492ZM16.2261 22.6029L14.1841 22.3549C14.0421 22.3369 13.9131 22.2589 13.8311 22.1389C13.7501 22.0199 13.7251 21.8709 13.7621 21.7309L14.3801 19.3799C14.4491 19.1129 14.7261 18.9549 14.9901 19.0229C15.2581 19.0929 15.4171 19.3669 15.3471 19.6339L14.8741 21.4309L16.3481 21.6089C16.6211 21.6429 16.8161 21.8919 16.7831 22.1659C16.7531 22.4199 16.5371 22.6059 16.2881 22.6059C16.2671 22.6059 16.2471 22.6049 16.2261 22.6029ZM18.337 18.1665C18.337 18.7695 18.645 19.2575 19.023 19.2575C19.402 19.2575 19.709 18.7695 19.709 18.1665C19.709 17.5635 19.402 17.0755 19.023 17.0755C18.645 17.0755 18.337 17.5635 18.337 18.1665ZM12.3628 19.2575C11.9838 19.2575 11.6768 18.7695 11.6768 18.1665C11.6768 17.5635 11.9838 17.0755 12.3628 17.0755C12.7418 17.0755 13.0488 17.5635 13.0488 18.1665C13.0488 18.7695 12.7418 19.2575 12.3628 19.2575ZM18.3524 14.8006C18.442 14.8024 19.4869 14.8239 20.4084 15.6153C20.5034 15.6963 20.6194 15.7363 20.7344 15.7363C20.8754 15.7363 21.0144 15.6773 21.1134 15.5623C21.2944 15.3523 21.2694 15.0363 21.0604 14.8573C19.8721 13.8369 18.5369 13.8055 18.347 13.8011L18.3469 13.8011C18.3355 13.8008 18.3282 13.8006 18.3254 13.8003C18.0494 13.8073 17.8334 14.0353 17.8384 14.3103C17.8434 14.5833 18.0674 14.8003 18.3394 14.8003H18.3464C18.346 14.8004 18.3462 14.8004 18.3469 14.8005L18.3524 14.8006ZM10.2724 15.5623C10.0914 15.3523 10.1164 15.0363 10.3254 14.8573C11.5057 13.8446 12.8383 13.8069 13.0362 13.8013C13.0497 13.801 13.0579 13.8007 13.0604 13.8003C13.3374 13.8073 13.5554 14.0363 13.5484 14.3123C13.5424 14.5873 13.3024 14.8213 13.0394 14.8003C13.0564 14.7893 11.9304 14.7973 10.9774 15.6153C10.8824 15.6963 10.7664 15.7363 10.6514 15.7363C10.5104 15.7363 10.3714 15.6773 10.2724 15.5623ZM13.83 25.1423C13.676 25.3713 13.737 25.6823 13.966 25.8363C14.44 26.1553 15.298 26.5073 16.291 26.5073C17.113 26.5073 18.03 26.2653 18.899 25.5643C19.114 25.3903 19.147 25.0753 18.974 24.8613C18.8 24.6453 18.485 24.6123 18.27 24.7853C16.456 26.2523 14.602 25.0573 14.522 25.0053C14.295 24.8543 13.984 24.9133 13.83 25.1423Z" fill="black"/></g></g></g><g id="Accesories" transform="translate(193 148) scale(1 1)"><g id="Accesories/Simple Necklace"><g id="Group"><path id="Fill 1" fill-rule="evenodd" clip-rule="evenodd" d="M21.5005 45C20.6719 45 20 44.1051 20 43C20 41.8949 20.6719 41 21.5005 41C22.3281 41 23 41.8949 23 43C23 44.1051 22.3281 45 21.5005 45Z" fill="#FCBD21"/><g id="Group 5"><path id="Fill 3" fill-rule="evenodd" clip-rule="evenodd" d="M21.6313 44.1387C20.9863 44.1387 20.4613 43.6487 20.4613 43.0467C20.4613 42.4447 20.9863 41.9547 21.6313 41.9547C22.2763 41.9547 22.8013 42.4447 22.8013 43.0467C22.8013 43.6487 22.2763 44.1387 21.6313 44.1387M28.1467 38.1707C22.2238 43.7427 15.0249 39.2647 14.7217 39.0717C14.5117 38.9377 14.2245 38.9867 14.081 39.1837C13.9363 39.3797 13.991 39.6477 14.1999 39.7827C14.2449 39.8107 16.766 41.3807 20.1078 41.7177C19.7574 42.0667 19.5388 42.5317 19.5388 43.0467C19.5388 44.1237 20.4774 44.9997 21.6313 44.9997C22.7853 44.9997 23.7238 44.1237 23.7238 43.0467C23.7238 42.4967 23.4774 42.0007 23.0831 41.6457C24.9699 41.3467 26.9499 40.5187 28.8013 38.7777C28.9803 38.6087 28.9792 38.3357 28.7981 38.1687C28.6181 38.0007 28.3256 38.0017 28.1467 38.1707Z" fill="black"/></g></g></g></g><g id="Hair" transform="translate(143 115) scale(1 1)"><g id="Hair/Fluffy Ponytail"><g id="Fluffy Ponytail"><path id="Hair" fill-rule="evenodd" clip-rule="evenodd" d="M80.5862 58.8098C80.7902 58.5018 80.9832 58.1818 81.1642 57.8478C80.9832 58.1818 80.7912 58.5018 80.5862 58.8098M80.2202 59.3088C80.1282 59.4308 80.0412 59.5588 79.9452 59.6758C80.0412 59.5588 80.1282 59.4308 80.2202 59.3088M79.2442 60.4418C79.2952 60.3908 79.3432 60.3338 79.3942 60.2808C79.3432 60.3328 79.2962 60.3908 79.2442 60.4418M71.9932 37.5348L72.6422 37.7638C73.7742 37.9048 74.7652 38.1748 75.6362 38.5458C77.0882 39.1648 78.2082 40.0628 79.0922 41.1088C79.6232 41.7368 80.0692 42.4168 80.4532 43.1218C80.0692 42.4168 79.6232 41.7368 79.0922 41.1088C78.2082 40.0628 77.0882 39.1648 75.6362 38.5458C74.7652 38.1748 73.7742 37.9048 72.6422 37.7638L71.9932 37.5348C71.9932 37.5348 59.8612 20.8968 48.8662 32.7758C37.8722 44.6558 57.3192 44.8758 57.3192 44.8758L58.3112 44.6348H70.7952C72.0032 44.6348 73.0182 45.5398 73.1552 46.7398L73.7842 52.2488C74.4312 52.1268 75.1492 52.2048 76.0112 53.2168C76.3302 53.5908 76.5572 54.0658 76.5532 54.5578C76.5442 55.8398 75.5022 56.8758 74.2182 56.8758C74.1402 56.8758 74.0672 56.8608 73.9912 56.8528L74.2492 62.5808C74.4262 62.5808 74.5922 62.5528 74.7652 62.5388L74.7462 62.5808L72.7661 63.5249C74.1871 72.6199 86.1472 71.8258 86.1472 71.8258C86.1472 71.8258 101.312 66.6448 95.4992 46.5508C89.6862 26.4578 71.9942 37.5338 71.9932 37.5348Z" fill="#4b69fd"/><path id="Fill 3" fill-rule="evenodd" clip-rule="evenodd" d="M80.1769 38.0169C77.8939 31.2119 72.1009 37.6279 72.1009 37.6279C72.1009 37.6279 82.4599 44.8229 80.1769 38.0169M72.1009 29.5369C65.4129 32.1439 72.1009 37.6209 72.1009 37.6209C72.1009 37.6209 78.7889 26.9289 72.1009 29.5369" fill="#FCBD21"/><path id="Fill 5" fill-rule="evenodd" clip-rule="evenodd" d="M86.0487 71.3303C85.0327 71.3773 75.0957 71.6293 73.5667 63.7173L74.9667 63.0293C74.9677 63.0293 74.9697 63.0283 74.9717 63.0273C75.9857 62.9283 76.9467 62.6213 77.8377 62.1183C77.8447 62.1143 77.8517 62.1103 77.8597 62.1063C78.1427 61.9453 78.4197 61.7673 78.6877 61.5673C78.7157 61.5463 78.7417 61.5243 78.7687 61.5033C79.0157 61.3143 79.2577 61.1143 79.4907 60.8923C79.5487 60.8383 79.6017 60.7783 79.6577 60.7223C79.8587 60.5213 80.0567 60.3183 80.2457 60.0933C80.3497 59.9703 80.4457 59.8323 80.5467 59.7023C80.6827 59.5233 80.8217 59.3523 80.9517 59.1613C81.1807 58.8223 81.3997 58.4643 81.6037 58.0853C83.4217 54.7143 83.7177 50.5123 82.4167 46.5563C81.8217 44.7483 81.0437 42.9193 79.8797 41.3493C80.0667 41.2963 80.2367 41.2193 80.3827 41.1093C81.1137 40.5613 81.2007 39.4973 80.6517 37.8573C80.2787 36.7483 79.7877 35.9113 79.1897 35.3313C81.5167 34.8713 84.1477 34.7943 86.6397 35.7483C90.5307 37.2403 93.3497 40.9213 95.0187 46.6903C100.495 65.6163 87.2317 70.9013 86.0487 71.3303M77.0537 54.5613C77.0577 53.9903 76.8227 53.3983 76.3917 52.8923C75.5777 51.9363 74.8227 51.7083 74.2257 51.7053L73.6527 46.6833C73.4857 45.2303 72.2577 44.1343 70.7957 44.1343H58.3107C58.2707 44.1343 58.2317 44.1393 58.1927 44.1483L57.2647 44.3743C56.4537 44.3543 47.8597 44.0553 46.2537 40.3203C45.4767 38.5153 46.4797 36.0913 49.2337 33.1163C51.9237 30.2093 54.9087 28.8203 58.1137 29.0163C62.8577 29.2913 67.1097 32.9163 69.5177 35.4313C70.4197 36.8723 71.6967 37.9363 71.7847 38.0083C71.7867 38.0103 71.7897 38.0103 71.7917 38.0123C71.8007 38.0193 71.8057 38.0313 71.8167 38.0383C72.6717 38.6323 76.2367 41.0213 78.6697 41.3803C79.6137 42.4853 80.3017 43.7943 80.8577 45.1813C81.0787 45.7343 81.2797 46.2993 81.4667 46.8683C82.6827 50.5653 82.4117 54.4803 80.7237 57.6103C79.2797 60.2883 77.1507 61.8613 74.7277 62.0403C74.7267 62.0403 74.7267 62.0413 74.7257 62.0413L74.5147 57.3603C75.9297 57.2123 77.0427 56.0133 77.0537 54.5613M69.6557 32.4383C69.8157 31.4393 70.6987 30.6203 72.2827 30.0023C72.9227 29.7533 73.4527 29.6263 73.8347 29.6263C74.1067 29.6263 74.3027 29.6903 74.4097 29.8193C75.1297 30.6873 73.4777 34.3393 71.9877 36.8463C71.1457 36.0443 69.3857 34.1383 69.6557 32.4383M72.8807 37.5513C73.7227 36.7493 75.7137 35.0783 77.3957 35.4353C78.3857 35.6423 79.1627 36.5643 79.7027 38.1763C80.0767 39.2893 80.1057 40.0673 79.7827 40.3093C78.8807 40.9863 75.3127 39.1603 72.8807 37.5513M95.9797 46.4123C94.2187 40.3263 91.1967 36.4243 86.9977 34.8143C83.8897 33.6233 80.6437 33.8793 77.9437 34.5583C77.8297 34.5203 77.7167 34.4803 77.5987 34.4553C76.3097 34.1873 74.9717 34.7633 73.8977 35.4643C75.0107 33.2973 76.1787 30.3883 75.1797 29.1823C74.5977 28.4783 73.5307 28.4423 71.9197 29.0703C69.9807 29.8263 68.8867 30.9073 68.6687 32.2833C68.6217 32.5803 68.6257 32.8763 68.6577 33.1713C66.0657 30.8113 62.3447 28.2613 58.1757 28.0173C54.6577 27.8173 51.4037 29.2993 48.4997 32.4363C45.4527 35.7283 44.3877 38.5143 45.3347 40.7163C47.2687 45.2103 56.9047 45.3713 57.3137 45.3753C57.3617 45.3723 57.3977 45.3713 57.4377 45.3613L58.3707 45.1343H70.7957C71.7497 45.1343 72.5507 45.8493 72.6587 46.7963L73.2877 52.3053C73.3037 52.4433 73.3757 52.5683 73.4877 52.6513C73.6007 52.7343 73.7407 52.7673 73.8777 52.7403C74.3237 52.6553 74.8647 52.6413 75.6307 53.5403C75.9057 53.8633 76.0557 54.2233 76.0537 54.5543C76.0467 55.5593 75.2227 56.3763 74.2177 56.3763L74.0397 56.3553C73.8987 56.3423 73.7527 56.3913 73.6477 56.4913C73.5427 56.5903 73.4857 56.7313 73.4917 56.8753L73.7457 62.5153L72.7887 62.9853C72.5927 63.0813 72.4817 63.2943 72.5157 63.5113C73.8127 71.8183 83.3207 72.3353 85.6597 72.3353C85.9777 72.3353 86.1627 72.3263 86.1767 72.3253C86.2217 72.3223 86.2667 72.3133 86.3087 72.2993C86.4697 72.2443 90.2737 70.9123 93.3927 67.0373C96.2627 63.4713 99.0427 56.9983 95.9797 46.4123" fill="black"/></g></g></g><g id="Upper Body" transform="translate(58 77) scale(1 1)"><g id="Upper Body/Pointing Up"><g id="Pointing"><path id="Sweater" fill-rule="evenodd" clip-rule="evenodd" d="M178.888 187.752H108.338C108.338 187.752 115.344 163.833 116.069 154.168C116.069 154.168 55.6667 144.026 39.7207 76.252H80.8277C80.8277 76.252 99.6457 124.683 147.482 113.814C148.743 116.473 151.872 118.358 155.542 118.358C159.211 118.358 162.34 116.473 163.602 113.814L169.524 114.169C178.292 114.693 186.919 116.839 194.774 120.773C207.169 126.979 221.23 139.087 223.586 162.383C227.935 205.389 197.492 197.658 197.492 197.658C197.492 197.658 186.861 194.879 178.888 187.269" fill="#FCBD21"/><path id="Combined Shape" fill-rule="evenodd" clip-rule="evenodd" d="M178.048 187.252L160.22 173.491C160.111 173.406 160.042 173.281 160.028 173.143C160.015 173.006 160.059 172.869 160.149 172.766L182.7 146.994C182.874 146.794 183.174 146.766 183.383 146.928L193.077 154.476L192.564 148.655C192.54 148.38 192.743 148.138 193.018 148.113C193.295 148.088 193.536 148.292 193.56 148.567L194.156 155.316L205.933 164.485C206.151 164.655 206.19 164.969 206.021 165.187C205.851 165.405 205.537 165.444 205.319 165.274L193.374 155.974L193.365 155.967L183.141 148.007L161.252 173.024L179.194 186.873C179.211 186.887 179.228 186.901 179.243 186.917C187.032 194.345 197.513 197.147 197.618 197.174C197.719 197.2 208.15 199.739 215.661 193.258C222.096 187.705 224.595 177.333 223.088 162.434C220.718 138.993 206.261 127.083 194.55 121.22C186.945 117.412 178.515 115.207 169.494 114.668L163.9 114.333C162.427 117.093 159.188 118.858 155.542 118.858C151.919 118.858 148.699 117.116 147.212 114.388C122.486 119.862 105.649 109.309 95.862 99.462C86.188 89.729 81.327 78.748 80.492 76.752H40.353C48.64 111.19 68.696 130.248 84.109 140.182C99.1504 149.876 112.801 153.003 115.621 153.573C115.695 152.637 115.802 150.62 115.573 148.669C115.54 148.395 115.737 148.147 116.011 148.114C116.281 148.077 116.534 148.278 116.566 148.552C116.882 151.239 116.597 153.951 116.568 154.209C115.913 162.93 110.12 183.371 109.003 187.252H178.048ZM197.369 198.143C197.565 198.192 199.704 198.717 202.713 198.716C206.572 198.716 211.861 197.854 216.306 194.022C223.009 188.244 225.625 177.582 224.083 162.333C221.667 138.44 206.933 126.302 194.998 120.326C187.272 116.457 178.711 114.217 169.554 113.67L163.632 113.316C163.432 113.311 163.238 113.416 163.15 113.601C161.942 116.147 158.884 117.858 155.542 117.858C152.2 117.858 149.142 116.147 147.933 113.601C147.833 113.389 147.597 113.273 147.371 113.327C122.899 118.888 106.251 108.485 96.595 98.781C86.097 88.23 81.341 76.191 81.294 76.071C81.219 75.879 81.034 75.752 80.828 75.752H39.721C39.568 75.752 39.423 75.822 39.329 75.942C39.234 76.061 39.199 76.218 39.234 76.367C47.509 111.54 67.93 130.954 83.604 141.046C98.951 150.929 112.879 154.048 115.534 154.576C114.648 164.352 107.927 187.377 107.858 187.612C107.814 187.763 107.843 187.926 107.938 188.052C108.032 188.178 108.18 188.252 108.338 188.252H178.888C178.979 188.252 179.065 188.228 179.138 188.186C187.041 195.383 197.261 198.115 197.369 198.143Z" fill="black"/><path id="Skin" fill-rule="evenodd" clip-rule="evenodd" d="M76.7874 71.373L76.4454 76.252H46.1234C42.0164 75.168 41.2914 70.571 41.2914 70.571C35.6804 72.146 32.6354 64.736 31.7014 61.939C31.4844 61.291 31.4444 60.598 31.5734 59.926C31.8324 58.58 32.7584 57.458 34.0324 56.948L34.4054 56.799L34.1354 55.612C33.9204 54.667 34.0724 53.676 34.5614 52.838C35.1494 51.83 36.1664 51.146 37.3224 50.981L38.0294 50.879L37.7234 48.587C37.6094 47.73 37.8164 46.86 38.3034 46.146L38.6054 45.704C39.4914 44.406 41.1314 43.856 42.6204 44.356C42.6204 44.356 41.5674 42.681 40.2384 38.694C39.5554 36.647 40.5624 34.758 41.7034 33.406C42.7534 32.161 44.6904 32.211 45.7064 33.483L57.6004 48.101C57.9024 47.572 58.3694 47.268 58.8684 47.1C60.0194 46.711 61.2944 47.081 62.1724 47.919L70.9634 56.317C75.0484 60.219 77.1834 65.737 76.7874 71.373ZM140.123 140.588C139.852 140.503 139.598 140.451 139.358 140.429L140.123 140.588ZM136.006 143.094C136.006 143.094 136.854 140.192 139.358 140.429L139.321 140.421C137.284 139.999 136.197 137.714 137.219 135.902C137.26 135.831 137.285 135.792 137.285 135.792C138.54 133.571 140.903 132.492 143.167 133.477C147.238 135.247 153.37 138.314 157.144 142.088C157.144 142.088 154.447 136.694 145.614 132.443C143.786 131.563 143.031 129.363 143.993 127.577L144.09 127.397C144.983 125.739 147.013 125.079 148.713 125.888C150.206 126.599 152.17 127.705 154.486 129.403C157.73 127.262 162.112 128.368 163.95 131.793L167.533 138.463L178.197 152.899L163.586 169.597L159.487 165.336C157.403 163.169 154.751 161.634 151.835 160.905C150.946 160.682 150.04 160.537 149.126 160.47L140.937 159.869C138.904 159.72 137.331 158.027 137.331 155.989C137.331 153.664 139.352 151.871 141.663 152.123C143.732 152.348 146.411 152.904 149.412 154.168C149.412 154.168 146.416 150.516 138.033 147.747C136.096 147.107 135.134 144.938 136.006 143.094Z" fill="#dcad7f"/><path id="Combined Shape_2" fill-rule="evenodd" clip-rule="evenodd" d="M46.1891 75.752H75.9791L76.2881 71.337C76.6751 65.833 74.6081 60.49 70.6181 56.679L61.8261 48.281C61.0491 47.539 59.9511 47.26 59.0281 47.573C58.5817 47.7244 58.2624 47.9672 58.052 48.3168L57.575 49.5088C56.712 51.6668 56.839 54.0828 57.925 56.1388L61.1757 62.2913L61.1833 62.3051L61.1869 62.3119L61.1916 62.3215L62.874 65.5058C63.003 65.7498 62.909 66.0518 62.665 66.1808C62.591 66.2198 62.511 66.2388 62.432 66.2388C62.253 66.2388 62.079 66.1418 61.989 65.9718L60.9822 64.066C60.9549 64.7214 60.9993 65.6381 61.2323 66.8529C61.2843 67.1239 61.1073 67.3859 60.8363 67.4379C60.8043 67.4439 60.7723 67.4469 60.7413 67.4469C60.5063 67.4469 60.2963 67.2799 60.2513 67.0409C59.7631 64.4975 60.03 63.1144 60.196 62.5778L57.041 56.6058C55.818 54.2898 55.674 51.5678 56.646 49.1368L57.0254 48.1887L45.3181 33.799C44.9191 33.298 44.3261 33.009 43.6891 33C43.0511 33.019 42.4821 33.257 42.0851 33.728C40.6691 35.406 40.2081 37.024 40.7121 38.536C41.8834 42.0497 42.8437 43.7525 43.0158 44.0444L52.1529 53.1069C52.2119 53.1699 56.6569 58.0339 53.3929 61.9519C52.5699 62.7399 50.7679 63.8139 48.7999 63.4579C49.0769 64.1039 49.2929 64.9379 49.1289 65.7999C48.9399 66.7929 48.2969 67.6099 47.2169 68.2269C46.1659 68.8279 45.1319 68.9749 44.1419 68.6639C43.8089 68.5599 43.5039 68.4089 43.2269 68.2319C43.2639 68.6029 43.2459 68.9809 43.1409 69.3419C42.9518 69.9929 42.5231 70.5006 41.8645 70.8548C42.1313 71.9031 43.1499 74.9131 46.1891 75.752ZM39.0181 45.985C39.7532 44.9087 41.1121 44.4279 42.3541 44.7964L51.4339 53.8019C51.5939 53.9749 55.3249 58.0709 52.6639 61.2689C52.572 61.3569 50.4001 63.3695 48.0151 62.1444L38.5052 50.6714L38.2191 48.522C38.1211 47.785 38.2971 47.041 38.7161 46.427L39.0181 45.985ZM37.8232 51.4146L47.2939 62.8412L47.3029 62.8529C47.3139 62.8659 48.4059 64.2499 48.1469 65.6129C48.0149 66.3059 47.5349 66.8929 46.7209 67.3589C45.9219 67.8149 45.1569 67.9329 44.4459 67.7119C43.5789 67.4409 42.9299 66.7219 42.5469 66.1809C42.3243 65.7631 42.1268 65.4852 42.1 65.4474L42.0989 65.4459C42.09 65.4336 42.0806 65.4218 42.0708 65.4106L34.8659 56.5725L34.6221 55.501C34.4351 54.677 34.5671 53.821 34.9921 53.09C35.5071 52.209 36.3821 51.62 37.3931 51.476L37.8232 51.4146ZM34.2501 57.3998L34.2171 57.413C33.0971 57.86 32.2921 58.835 32.0641 60.02C31.9501 60.614 31.9881 61.223 32.1751 61.781C33.1689 64.7541 36.0317 71.5135 41.1353 70.0946C41.706 69.8591 42.0473 69.5218 42.1809 69.0639C42.3919 68.3369 42.0519 67.3979 41.7059 66.7269C41.4769 66.399 41.3315 66.1302 41.2718 66.0131L34.2501 57.3998ZM76.4451 76.752H46.1231C46.0801 76.752 46.0371 76.747 45.9951 76.735C42.4331 75.795 41.2461 72.481 40.9111 71.176C35.2941 72.292 32.2801 65.251 31.2261 62.098C30.9851 61.377 30.9361 60.593 31.0821 59.832C31.3731 58.319 32.3971 57.073 33.8231 56.493L33.6471 55.723C33.4041 54.65 33.5751 53.537 34.1291 52.586C34.7981 51.439 35.9361 50.673 37.2511 50.485L37.4681 50.455L37.2281 48.653C37.0971 47.672 37.3321 46.682 37.8901 45.864L38.1921 45.422C38.9861 44.259 40.3201 43.615 41.6881 43.679C41.2451 42.784 40.5531 41.222 39.7631 38.853C39.1501 37.013 39.6891 35.018 41.3211 33.084C41.9121 32.382 42.7891 32.029 43.7021 32C44.6391 32.013 45.5121 32.439 46.0971 33.171L57.5901 47.297C57.8881 47.001 58.2621 46.776 58.7091 46.626C60.0001 46.189 61.4591 46.547 62.5171 47.558L71.3091 55.956C75.5141 59.974 77.6931 65.606 77.2861 71.408L76.9441 76.287C76.9251 76.549 76.7071 76.752 76.4451 76.752ZM138.954 153.471C139.581 152.908 140.397 152.6 141.236 152.6C141.36 152.6 141.484 152.606 141.608 152.62C144.149 152.897 146.709 153.573 149.217 154.629C149.43 154.718 149.674 154.651 149.812 154.467C149.949 154.283 149.944 154.029 149.798 153.851C149.672 153.698 146.612 150.055 138.188 147.272C137.39 147.008 136.743 146.417 136.414 145.65C136.087 144.889 136.102 144.057 136.484 143.236C136.488 143.222 136.935 141.759 138.054 141.165C138.425 140.968 138.838 140.887 139.288 140.926L140.02 141.078C140.067 141.088 140.113 141.091 140.158 141.087C143.304 141.821 149.862 143.904 154.275 149.139C154.374 149.256 154.516 149.317 154.658 149.317C154.772 149.317 154.886 149.278 154.98 149.199C155.191 149.021 155.218 148.706 155.04 148.495C149.626 142.073 141.392 140.238 139.081 139.838C138.407 139.602 137.864 139.108 137.561 138.442C137.221 137.692 137.255 136.856 137.654 136.148L137.719 136.038C138.909 133.933 141.018 133.089 142.967 133.936C147.258 135.802 153.139 138.791 156.789 142.441C156.962 142.615 157.236 142.637 157.435 142.494C157.634 142.35 157.699 142.083 157.59 141.864C157.476 141.638 154.715 136.269 145.83 131.993C145.055 131.62 144.483 130.969 144.22 130.161C143.965 129.375 144.04 128.541 144.432 127.814L144.529 127.634C145.295 126.214 147.038 125.645 148.497 126.34C149.328 126.735 150.177 127.192 151.04 127.707C151.177 127.799 160.518 134.109 168.295 140.337L177.555 152.872L163.568 168.858L159.846 164.989C157.695 162.753 154.967 161.173 151.956 160.42C151.045 160.192 150.105 160.041 149.161 159.972L140.972 159.371C139.211 159.241 137.83 157.756 137.83 155.99C137.83 155.015 138.229 154.12 138.954 153.471ZM166.559 137.699C162.477 134.536 158.266 131.517 155.356 129.475C156.666 128.81 158.186 128.633 159.622 128.996C161.282 129.415 162.699 130.521 163.509 132.029L166.559 137.699ZM167.972 138.227L169.017 139.639C169.049 139.673 169.077 139.71 169.098 139.75L178.598 152.602C178.738 152.79 178.727 153.051 178.572 153.228L163.962 169.926C163.869 170.032 163.737 170.094 163.597 170.097H163.585C163.45 170.097 163.319 170.042 163.225 169.944L159.125 165.683C157.105 163.581 154.542 162.098 151.713 161.39C150.857 161.176 149.974 161.034 149.088 160.969L140.899 160.368C138.618 160.201 136.83 158.277 136.83 155.99C136.83 154.746 137.361 153.556 138.286 152.726C139.218 151.891 140.469 151.489 141.716 151.626C143.503 151.821 145.297 152.205 147.076 152.772C145.361 151.496 142.419 149.723 137.875 148.222C136.804 147.868 135.936 147.075 135.495 146.044C135.06 145.031 135.081 143.878 135.552 142.881C135.547 142.878 136.088 141.081 137.578 140.286C137.61 140.269 137.641 140.253 137.673 140.237L137.703 140.222L137.72 140.214C137.266 139.858 136.895 139.394 136.651 138.855C136.177 137.811 136.225 136.645 136.783 135.657L136.863 135.521C138.28 133.011 140.96 131.973 143.366 133.019C146.491 134.378 150.45 136.327 153.827 138.703C152.055 136.941 149.349 134.796 145.397 132.894C144.387 132.408 143.612 131.524 143.269 130.469C142.929 129.422 143.029 128.31 143.551 127.34L143.649 127.16C144.667 125.269 146.986 124.514 148.927 125.437C150.721 126.291 152.597 127.422 154.506 128.801C156.114 127.85 158.048 127.567 159.867 128.026C161.798 128.515 163.447 129.801 164.39 131.557L167.972 138.227Z" fill="black"/></g></g></g><g id="Facial Hair" transform="translate(193 148) scale(39 49)"><g id="Facial Hair/No Facial Hair" stroke="none" stroke-width="1" fill="none" fill-rule="evenodd" fill-opacity="0"/></g></g></svg>