<svg viewBox="118.60465116279073 139.2 191.86046511627896 330.5999999999999" fill="none" xmlns="http://www.w3.org/2000/svg" xmlns:xlink="http://www.w3.org/1999/xlink" overflow="visible" width="191.86046511627896px" height="330.5999999999999px"><g id="Master/Character/Standing"><g id="Lower Body Standing" transform="translate(32 185) scale(1 1)"><g id="Lower Body Standing/Skirt"><g id="Skirt"><path id="Shoes" fill-rule="evenodd" clip-rule="evenodd" d="M230.666 259.244L266.395 240.162L274.709 253.946L237.691 278.326H205.329L205.686 276.873C207.282 270.372 213.138 265.821 219.832 265.881L223.349 265.912C224.322 265.921 225.279 265.661 226.114 265.16L227.6 264.268C229.085 263.377 230.553 260.972 230.666 259.244ZM90.5 278.325H164.826V258.883H122.872L122.719 259.022C119.973 261.492 116.588 263.142 112.951 263.781L105.857 265.028C98.874 266.255 93.085 271.13 90.688 277.802L90.5 278.325Z" fill="#409B81"/><path id="Lines" fill-rule="evenodd" clip-rule="evenodd" d="M232.942 273.913H206.779C205.737 275.697 205.329 278.325 205.329 278.325H237.692L274.709 253.945L272.167 249.73L238.806 272.173C237.061 273.309 235.024 273.913 232.942 273.913ZM92.6 273.913H164.826V278.325H90.5L90.688 277.803C91.184 276.422 91.833 275.123 92.6 273.913Z" fill="#EFF2F7"/><path id="Combined Shape" fill-rule="evenodd" clip-rule="evenodd" d="M259.657 263.26L237.541 277.825H205.967L206.171 276.992C206.392 276.091 206.696 275.228 207.075 274.413H232.941C235.125 274.413 237.247 273.783 239.085 272.588L272.01 250.439L274.033 253.792L259.657 263.26ZM232.941 273.413H207.589C210.014 269.133 214.576 266.38 219.699 266.38C219.726 266.38 219.754 266.38 219.782 266.381C219.797 266.381 219.812 266.381 219.827 266.381L223.344 266.412C224.411 266.413 225.456 266.137 226.37 265.588L227.857 264.697C229.413 263.762 230.889 261.425 231.137 259.558L266.212 240.826L271.492 249.581L238.533 271.754C236.865 272.839 234.932 273.413 232.941 273.413ZM219.837 265.381C213.949 265.354 208.684 268.715 206.223 273.881C205.237 275.709 204.85 278.142 204.834 278.248C204.812 278.392 204.854 278.539 204.949 278.65C204.994 278.703 205.049 278.745 205.11 278.775L206.223 273.881L205.328 278.825H205.329H237.691H237.691C237.775 278.825 237.857 278.804 237.931 278.764C237.938 278.76 237.945 278.756 237.952 278.751C237.957 278.748 237.962 278.745 237.967 278.742L260.433 263.946L274.984 254.363L274.984 254.363C275.208 254.215 275.276 253.917 275.137 253.687L272.595 249.472C272.591 249.466 272.587 249.459 272.582 249.452L266.822 239.903C266.685 239.675 266.394 239.594 266.16 239.721L230.43 258.802C230.279 258.883 230.178 259.038 230.167 259.21C230.064 260.78 228.691 263.03 227.342 263.839L225.857 264.731C225.1 265.184 224.237 265.415 223.354 265.412L219.837 265.381ZM164.326 274.413V277.825H91.2117C91.6427 276.657 92.2017 275.511 92.8777 274.413H164.326ZM164.826 278.825H164.826C165.102 278.825 165.326 278.601 165.326 278.325V258.883C165.326 258.607 165.102 258.383 164.826 258.383H122.872C122.748 258.383 122.629 258.429 122.537 258.512L122.384 258.65C119.705 261.061 116.413 262.665 112.864 263.288L105.77 264.535C98.7579 265.769 92.8858 270.629 90.3542 277.264C90.307 277.387 90.2612 277.511 90.2167 277.634L90.1173 277.912L90.0294 278.156C89.9744 278.309 89.9974 278.48 90.0914 278.613C90.1844 278.746 90.3374 278.825 90.5004 278.825H90.5007H164.826ZM164.326 273.413H93.5279C96.4235 269.302 100.87 266.412 105.943 265.52L113.036 264.274C116.771 263.617 120.234 261.93 123.053 259.393L164.326 259.383V273.413Z" fill="black"/><path id="Skin" fill-rule="evenodd" clip-rule="evenodd" d="M194.579 185.607L192.808 168.935C191.603 157.585 200.331 147.619 211.741 147.317L211.791 147.315C222.793 147.024 231.869 155.863 231.869 166.868C231.869 177.174 234.669 187.287 239.972 196.124L266.395 240.162L230.666 259.243L201.558 207.471C197.769 200.733 195.395 193.294 194.579 185.607ZM134.257 166.644L122.718 259.022L164.825 258.883L176.738 172.216C178.506 159.346 168.505 147.876 155.514 147.876C144.71 147.876 135.596 155.923 134.257 166.644Z" fill="#d96e05"/><path id="Combined Shape_2" fill-rule="evenodd" clip-rule="evenodd" d="M211.804 147.816C211.978 147.811 212.151 147.809 212.324 147.809C217.316 147.809 222.016 149.717 225.607 153.214C229.322 156.833 231.368 161.682 231.368 166.869C231.368 177.264 234.195 187.469 239.543 196.382L265.696 239.969L230.863 258.572L201.993 207.226C198.217 200.509 195.889 193.218 195.076 185.555L193.305 168.883C192.737 163.534 194.376 158.359 197.92 154.313C201.464 150.266 206.377 147.959 211.804 147.816ZM230.23 259.489C230.322 259.652 230.491 259.744 230.667 259.744C230.746 259.744 230.827 259.725 230.902 259.684L266.63 240.603C266.751 240.538 266.84 240.427 266.877 240.295C266.913 240.163 266.894 240.022 266.824 239.905L240.401 195.867C235.146 187.11 232.368 177.082 232.368 166.869C232.368 161.41 230.215 156.307 226.304 152.498C222.394 148.689 217.239 146.671 211.728 146.817C206.15 146.965 200.843 149.457 197.168 153.654C193.492 157.851 191.721 163.44 192.311 168.988L194.081 185.661C194.909 193.459 197.278 200.88 201.122 207.716L230.23 259.489ZM134.754 166.707C136.059 156.257 144.984 148.377 155.515 148.377C161.562 148.377 167.31 150.991 171.285 155.549C175.259 160.107 177.066 166.157 176.243 172.149L164.39 258.385L123.285 258.521L134.754 166.707ZM122.344 259.354C122.439 259.461 122.576 259.523 122.719 259.523H122.72L164.828 259.384C165.077 259.383 165.287 259.199 165.321 258.952L177.234 172.285C178.096 166.007 176.203 159.668 172.038 154.892C167.874 150.116 161.851 147.377 155.515 147.377C144.481 147.377 135.129 155.634 133.761 166.583L122.223 258.96C122.205 259.103 122.249 259.247 122.344 259.354Z" fill="black"/><path id="Skirt_2" fill-rule="evenodd" clip-rule="evenodd" d="M143.031 77.5H221.479C221.479 77.5 236.949 141.21 250.744 165.618C250.744 165.618 177.786 182.066 128.705 168.536L143.031 77.5Z" fill="#FF5613"/><path id="Fill 104" fill-rule="evenodd" clip-rule="evenodd" d="M129.268 168.172C175.198 180.63 242.611 166.848 249.979 165.273C237.004 141.69 222.156 83.439 221.068 78H143.458L129.268 168.172ZM128.572 169.018C128.326 168.951 128.171 168.71 128.211 168.459L142.537 77.422C142.575 77.179 142.785 77 143.031 77H221.479C221.718 77 221.924 77.17 221.97 77.404C222.094 78.04 237.581 141.314 251.179 165.372C251.257 165.509 251.265 165.676 251.201 165.82C251.137 165.965 251.008 166.071 250.854 166.106C250.337 166.222 213.722 174.336 175.123 174.336C159.138 174.336 142.816 172.945 128.572 169.018Z" fill="black"/><path id="Socks" fill-rule="evenodd" clip-rule="evenodd" d="M243.487 201.982L207.761 218.504L230.666 259.243L266.395 240.162L243.487 201.982ZM170.805 215.38H128.17L122.719 259.022L164.826 258.883L170.805 215.38Z" fill="#FCBD21"/><path id="Combined Shape_3" fill-rule="evenodd" clip-rule="evenodd" d="M230.862 258.572L208.462 218.731L243.289 202.625L265.695 239.969L230.862 258.572ZM230.23 259.489C230.322 259.652 230.491 259.744 230.667 259.744C230.746 259.744 230.827 259.725 230.901 259.685L266.63 240.603C266.751 240.539 266.84 240.427 266.877 240.295C266.913 240.164 266.894 240.023 266.823 239.905L243.915 201.725C243.784 201.507 243.51 201.42 243.276 201.529L207.551 218.051C207.424 218.109 207.328 218.218 207.285 218.351C207.242 218.483 207.256 218.628 207.325 218.75L230.23 259.489ZM123.285 258.521L128.611 215.881H170.231L164.389 258.385L123.285 258.521ZM122.344 259.354C122.439 259.461 122.575 259.523 122.718 259.523H122.72L164.827 259.384C165.077 259.383 165.287 259.199 165.321 258.952L171.3 215.449C171.32 215.306 171.277 215.161 171.182 215.052C171.087 214.944 170.949 214.881 170.805 214.881H128.17C127.917 214.881 127.705 215.069 127.674 215.319L122.222 258.961C122.204 259.103 122.249 259.247 122.344 259.354Z" fill="black"/></g></g></g><g id="Head" transform="translate(193 148) scale(1 1)"><g id="Head/Calm"><path id="Path 2" fill-rule="evenodd" clip-rule="evenodd" d="M12.5 43.7363C12.5 43.7363 16.0343 41.1592 15.4058 30.5163C15.4058 30.5163 20.9953 33.4358 27.0934 28.4994L28.5 43.6134C28.5 43.6134 24.2721 48.9732 19.8389 48.4534C15.4058 47.9337 12.5 43.7363 12.5 43.7363Z" fill="#d96e05"/><path id="Path 2 Copy" fill-rule="evenodd" clip-rule="evenodd" d="M15.6185 29.1575C19.1685 31.0897 22.873 30.4235 26.799 27.1117C27.1106 26.8489 27.5511 27.076 27.5907 27.5201L28.9973 43.2699C29.0117 43.4301 28.9677 43.5899 28.876 43.711C25.9592 47.5642 22.9235 49.332 19.7865 48.9487C16.6923 48.5707 14.1229 46.8497 12.1037 43.8105C11.9264 43.5435 11.9825 43.1583 12.2257 42.9735C14.3851 41.3327 15.3152 36.9233 14.9069 29.7193C14.882 29.2794 15.274 28.9699 15.6185 29.1575ZM27.8541 43.348L26.5503 29L26.2853 29.199C22.7217 31.8029 19.2465 32.4147 15.9004 31.0061L15.7525 30.9417L15.7761 31.5369C15.9754 37.6673 15.094 41.732 13.0614 43.7146L13 43.7713L13.1374 43.9575C14.8463 46.2141 16.9214 47.5258 19.3801 47.9095L19.7177 47.956C22.5083 48.2909 25.2631 46.7152 28 43.1638L27.8541 43.348Z" fill="black"/><g id="Calm"><path id="Skin" fill-rule="evenodd" clip-rule="evenodd" d="M19.7106 31.402C12.9646 31.402 7.49561 25.603 7.49561 18.449C7.49561 11.295 12.9646 5.495 19.7106 5.495C26.4566 5.495 31.9246 11.295 31.9246 18.449C31.9246 25.603 26.4566 31.402 19.7106 31.402Z" fill="#d96e05"/><path id="Fill 193" fill-rule="evenodd" clip-rule="evenodd" d="M19.71 5.991C13.248 5.991 7.991 11.579 7.991 18.449C7.991 25.318 13.248 30.907 19.71 30.907C26.172 30.907 31.429 25.318 31.429 18.449C31.429 11.579 26.172 5.991 19.71 5.991M19.71 31.898C12.702 31.898 7 25.865 7 18.449C7 11.033 12.702 5 19.71 5C26.718 5 32.42 11.033 32.42 18.449C32.42 25.865 26.718 31.898 19.71 31.898" fill="black"/><path id="Fill 199" fill-rule="evenodd" clip-rule="evenodd" d="M16.2881 22.6058C16.2681 22.6058 16.2481 22.6048 16.2271 22.6028L14.1851 22.3548C14.0421 22.3368 13.9131 22.2588 13.8321 22.1388C13.7511 22.0198 13.7251 21.8708 13.7621 21.7308L14.3811 19.3788C14.4511 19.1128 14.7241 18.9538 14.9921 19.0228C15.2581 19.0938 15.4181 19.3668 15.3481 19.6338L14.8751 21.4308L16.3481 21.6088C16.6221 21.6428 16.8171 21.8918 16.7841 22.1658C16.7531 22.4198 16.5381 22.6058 16.2881 22.6058" fill="black"/><path id="Fill 201" fill-rule="evenodd" clip-rule="evenodd" d="M19.7099 18.1663C19.7099 18.7693 19.4029 19.2573 19.0239 19.2573C18.6449 19.2573 18.3369 18.7693 18.3369 18.1663C18.3369 17.5633 18.6449 17.0753 19.0239 17.0753C19.4029 17.0753 19.7099 17.5633 19.7099 18.1663" fill="black"/><path id="Fill 203" fill-rule="evenodd" clip-rule="evenodd" d="M13.0498 18.1663C13.0498 18.7693 12.7428 19.2573 12.3628 19.2573C11.9848 19.2573 11.6768 18.7693 11.6768 18.1663C11.6768 17.5633 11.9848 17.0753 12.3628 17.0753C12.7428 17.0753 13.0498 17.5633 13.0498 18.1663" fill="black"/><path id="Fill 205" fill-rule="evenodd" clip-rule="evenodd" d="M20.735 15.7357C20.619 15.7357 20.504 15.6957 20.409 15.6147C19.45 14.7907 18.361 14.7997 18.347 14.8007H18.34C18.068 14.8007 17.844 14.5827 17.839 14.3097C17.834 14.0347 18.05 13.8077 18.325 13.8007C18.386 13.8007 19.806 13.7787 21.061 14.8567C21.27 15.0367 21.294 15.3517 21.114 15.5617C21.015 15.6767 20.876 15.7357 20.735 15.7357" fill="black"/><path id="Fill 207" fill-rule="evenodd" clip-rule="evenodd" d="M10.6526 15.7357C10.5116 15.7357 10.3726 15.6767 10.2736 15.5617C10.0936 15.3517 10.1176 15.0357 10.3266 14.8567C11.5826 13.7787 13.0056 13.8017 13.0626 13.8007C13.3386 13.8077 13.5566 14.0367 13.5496 14.3127C13.5436 14.5877 13.3556 14.8097 13.0406 14.8007C13.0076 14.8047 11.9296 14.7987 10.9786 15.6147C10.8836 15.6957 10.7686 15.7357 10.6526 15.7357" fill="black"/><path id="Fill 209" fill-rule="evenodd" clip-rule="evenodd" d="M17.8506 25.2132C17.7996 25.2132 17.7516 25.2112 17.7066 25.2082C17.4316 25.1872 17.2256 24.9462 17.2466 24.6712C17.2676 24.3972 17.5096 24.1962 17.7806 24.2112C17.9356 24.2182 18.7256 24.2282 18.8506 23.4472C18.8936 23.1742 19.1506 22.9892 19.4236 23.0332C19.6966 23.0772 19.8816 23.3332 19.8376 23.6062C19.6316 24.8882 18.5196 25.2132 17.8506 25.2132" fill="black"/></g></g></g><g id="Accesories" transform="translate(193 148) scale(39 49)"><g id="Accesories/No Accesory" stroke="none" stroke-width="1" fill="none" fill-rule="evenodd" fill-opacity="0"/></g><g id="Hair" transform="translate(143 115) scale(1 1)"><g id="Hair/Short Peaks"><g id="Peaks"><path id="Hair" fill-rule="evenodd" clip-rule="evenodd" d="M85.8619 50.7614C85.2679 56.2144 82.1919 61.4684 77.1589 61.4684L76.9019 55.7404C76.9769 55.7484 77.0499 55.7634 77.1279 55.7634C78.4119 55.7634 79.4539 54.7274 79.4639 53.4464C79.4669 52.9534 79.2399 52.4784 78.9219 52.1044C78.0599 51.0934 77.3409 51.0144 76.6949 51.1364L76.0649 45.6274C75.9279 44.4284 74.9129 43.5224 73.7059 43.5224H59.6479C59.6479 43.5224 56.7869 27.7214 60.0619 28.2804C63.3359 28.8394 63.0579 31.0344 65.6939 28.1744C68.3289 25.3134 70.5669 26.8874 72.0839 28.8844C73.6009 30.8804 76.9519 24.7764 79.3359 27.0074C82.2859 29.7694 80.8579 31.9274 85.9679 31.0754C88.9809 30.5744 85.9289 50.4264 85.8619 50.7614" fill="#040226"/><path id="Fill 3" fill-rule="evenodd" clip-rule="evenodd" d="M77.4251 56.2482L77.6361 60.9512C82.2121 60.6162 84.8441 55.4852 85.3651 50.7072C85.3661 50.6932 85.3691 50.6792 85.3711 50.6652C85.7991 48.3762 87.7911 33.2712 86.1721 31.6202C86.1121 31.5582 86.0831 31.5632 86.0501 31.5682C82.4351 32.1742 81.7541 31.3372 80.7721 29.6852C80.3651 28.9992 79.9031 28.2232 78.9941 27.3732C78.1001 26.5362 77.0081 27.2542 75.4411 28.4422C74.1561 29.4162 72.6991 30.5192 71.6861 29.1862C70.6761 27.8582 69.6701 27.1612 68.6951 27.1152C67.8521 27.0722 66.9531 27.5452 66.0611 28.5132C64.2641 30.4632 63.5501 30.3572 62.2341 29.6222C61.7041 29.3252 61.0441 28.9552 59.9781 28.7732C59.8411 28.7502 59.7501 28.7802 59.6511 28.8792C58.3661 30.1772 59.2011 38.0652 60.0671 43.0222H73.7061C75.1691 43.0222 76.3961 44.1182 76.5621 45.5712L77.1351 50.5932C77.7331 50.5962 78.4871 50.8242 79.3021 51.7802C79.7331 52.2852 79.9671 52.8782 79.9641 53.4492C79.9521 54.9012 78.8391 56.1002 77.4251 56.2482M77.1591 61.9682C76.8921 61.9682 76.6721 61.7582 76.6601 61.4912L76.4021 55.7632C76.3961 55.6192 76.4521 55.4782 76.5571 55.3782C76.6621 55.2792 76.8061 55.2292 76.9501 55.2432L77.1281 55.2642C78.1331 55.2642 78.9561 54.4462 78.9641 53.4422C78.9661 53.1112 78.8161 52.7512 78.5411 52.4282C77.7741 51.5282 77.2341 51.5432 76.7871 51.6272C76.6521 51.6542 76.5101 51.6212 76.3981 51.5392C76.2861 51.4562 76.2141 51.3312 76.1981 51.1932L75.5691 45.6842C75.4601 44.7362 74.6601 44.0222 73.7061 44.0222H59.6481C59.4061 44.0222 59.1991 43.8492 59.1551 43.6112C58.9101 42.2562 56.8211 30.3162 58.9401 28.1762C59.2691 27.8442 59.6881 27.7092 60.1461 27.7882C61.3821 27.9982 62.1571 28.4332 62.7231 28.7492C63.6381 29.2632 63.8841 29.4002 65.3261 27.8352C66.4271 26.6392 67.5741 26.0562 68.7421 26.1162C70.0271 26.1772 71.2851 27.0062 72.4821 28.5812C72.8291 29.0372 73.4001 28.7352 74.8371 27.6452C76.2931 26.5412 78.1051 25.1692 79.6781 26.6422C80.6901 27.5902 81.2121 28.4682 81.6321 29.1742C82.4411 30.5362 82.7761 31.1022 85.8861 30.5822C86.2601 30.5212 86.6171 30.6432 86.8921 30.9262C89.1231 33.2292 86.4961 49.9942 86.3581 50.8282C85.7691 56.1962 82.6411 61.9682 77.1591 61.9682" fill="black"/></g></g></g><g id="Upper Body" transform="translate(58 77) scale(1 1)"><g id="Upper Body/Computer"><g id="Computer"><path id="Laptop" fill-rule="evenodd" clip-rule="evenodd" d="M128.218 164.899C130.514 162.716 136.864 164.172 139.484 164.899H150.915V160.342H141.584L129.955 123.72H74.5L87.574 164.899H128.218Z" fill="#EFF2F7"/><path id="Blouse" fill-rule="evenodd" clip-rule="evenodd" d="M150.916 164.899V160.342H141.584L131.667 129.109C133.61 128.006 142.116 122.915 144.918 116.839C145.58 115.405 146 114.152 146.266 113.05H148.8L148.089 109.376C148.046 109.156 148.069 108.944 148.133 108.748C149.381 109.529 150.866 110.073 151.756 109.05C152.019 108.749 152.301 108.353 152.547 107.88H164.001C164.748 107.88 165.33 108.527 165.251 109.269L164.852 113.05H169.549C188.906 113.05 207.019 122.593 217.966 138.557L226.586 151.13C226.989 151.717 226.568 152.516 225.856 152.516H194.95C194.614 152.516 194.308 152.327 194.158 152.027L192.228 148.167L194.127 162.36L196.158 174.255C196.108 174.287 196.058 174.319 196.009 174.352C195.926 174.406 195.843 174.461 195.753 174.512C185.766 180.15 140.638 165.241 140.638 165.241C140.638 165.241 140.2 165.097 139.484 164.899H150.916ZM131.667 129.109L129.956 123.72L131.667 129.109C131.667 129.109 131.667 129.109 131.667 129.109ZM127.417 167.905C127.327 167.447 127.323 166.937 127.43 166.368C127.545 165.754 127.824 165.274 128.219 164.898H122.014C123.766 167.072 127.417 167.905 127.417 167.905ZM149.678 185.133C145.571 182.959 135.846 179.757 135.846 179.757C130.884 178.39 126.951 177.013 123.834 175.68L122.014 186.341H152.157C150.948 185.779 150.095 185.354 149.678 185.133Z" fill="#409B81"/><path id="Skin" fill-rule="evenodd" clip-rule="evenodd" d="M131.667 129.109C133.61 128.006 142.115 122.915 144.918 116.839C148.09 109.962 145.938 107.011 145.938 107.011C145.938 107.011 150.003 111.064 151.756 109.05C153.509 107.037 156.207 100.87 142.207 94.8015C128.208 88.7335 118.508 105.723 115.508 111.823C114.584 113.701 112.407 118.283 109.836 123.72H129.956L131.667 129.109ZM222.946 152.517H195.724C195.724 152.517 205.739 168.875 195.752 174.512C185.766 180.15 140.637 165.241 140.637 165.241C140.637 165.241 128.396 161.214 127.429 166.369C127.322 166.938 127.326 167.448 127.416 167.906C127.416 167.906 123.765 167.073 122.013 164.899H87.5746L85.6246 158.756C83.5286 165.741 81.9546 176.568 90.6086 180.3C99.3336 184.063 106.619 180.266 112.501 173.346C116.042 175.367 121.332 177.572 129.261 179.758C129.261 179.758 138.986 182.96 143.093 185.134C147.201 187.308 192.946 209.013 216.02 191.98C239.093 174.946 222.946 152.517 222.946 152.517V152.517Z" fill="#d96e05"/><path id="Fill 11" fill-rule="evenodd" clip-rule="evenodd" d="M147.708 108.468C147.578 108.782 147.532 109.128 147.598 109.47L148.193 112.551H146.382C146.316 112.869 146.235 113.202 146.139 113.551H148.8C148.949 113.551 149.09 113.484 149.186 113.369C149.28 113.254 149.319 113.102 149.291 112.956L148.58 109.28C148.562 109.191 148.573 109.101 148.587 109.014C148.283 108.847 147.986 108.661 147.708 108.468" fill="black"/><path id="Fill 13" fill-rule="evenodd" clip-rule="evenodd" d="M109.526 123.72H109.836C109.887 123.613 109.936 123.509 109.986 123.402C109.834 123.51 109.677 123.611 109.526 123.72" fill="black"/><path id="Fill 15" fill-rule="evenodd" clip-rule="evenodd" d="M115.956 112.044C119.378 105.086 128.768 89.5205 142.008 95.2605C148.207 97.9475 151.859 101.023 152.567 104.152C153.087 106.447 151.909 108.112 151.378 108.722C151.159 108.975 150.893 109.098 150.542 109.11C149.126 109.183 146.997 107.358 146.292 106.659V106.658L143.078 103.44C143.028 103.39 142.969 103.354 142.906 103.33C139.94 99.6195 134.467 97.9645 134.139 97.8675C133.874 97.7905 133.596 97.9415 133.518 98.2065C133.44 98.4715 133.592 98.7495 133.857 98.8275C133.964 98.8585 144.602 102.075 143.731 109.274C142.904 116.113 141.32 117.656 140.45 117.967C139.725 118.224 138.848 117.871 137.844 116.917C138.541 114.755 138.557 111.765 137.876 107.945C136.858 102.234 129.197 101.976 128.871 101.967C128.585 101.959 128.366 102.179 128.359 102.455C128.352 102.731 128.57 102.96 128.846 102.967C128.918 102.969 136.016 103.204 136.894 108.137C138.173 115.307 136.93 119.288 133.245 119.963C132.599 120.019 130.814 119.971 130.332 119.079C130.331 119.076 130.328 119.075 130.327 119.072C131.642 116.894 132.426 113.836 132.591 111.65C132.976 106.574 125.352 105.402 125.027 105.355C124.758 105.312 124.5 105.503 124.46 105.777C124.42 106.05 124.609 106.304 124.882 106.344C124.953 106.354 131.908 107.426 131.594 111.575C131.354 114.747 129.704 119.799 127.347 120.636C126.438 120.955 125.463 120.576 124.447 119.502C121.543 116.435 126.087 111.26 126.133 111.209C126.317 111.002 126.299 110.686 126.093 110.502C125.887 110.319 125.571 110.337 125.387 110.543C125.314 110.624 124.691 111.339 124.039 112.384C123.657 112.1 123.76 110.991 123.953 110.323C124.029 110.058 123.877 109.781 123.612 109.704C123.346 109.626 123.07 109.778 122.993 110.044C122.922 110.286 122.338 112.428 123.479 113.217C123.5 113.231 123.524 113.227 123.546 113.238C122.473 115.265 121.691 118.045 123.721 120.19C124.855 121.388 125.886 121.747 126.712 121.747C127.078 121.747 127.404 121.676 127.681 121.578C128.45 121.305 129.134 120.717 129.733 119.944C130.539 120.84 132.046 120.974 132.851 120.974C133.141 120.974 133.339 120.957 133.379 120.953C135.281 120.606 136.641 119.583 137.458 117.898C138.334 118.651 139.174 119.052 139.964 119.052C140.244 119.052 140.518 119.004 140.787 118.908C142.719 118.218 144.044 115.017 144.724 109.394C144.863 108.25 144.75 107.203 144.465 106.245L145.55 107.331C145.71 107.578 147.352 110.368 144.463 116.629C141.783 122.44 133.592 127.425 131.511 128.621L131.821 129.596C133.609 128.596 142.433 123.418 145.372 117.048C147.242 112.993 147.315 110.232 147.021 108.59C148.026 109.341 149.4 110.151 150.577 110.11C151.206 110.088 151.729 109.842 152.133 109.378C152.764 108.654 154.164 106.673 153.543 103.932C152.749 100.429 149.002 97.2025 142.405 94.3425C128.374 88.2625 118.607 104.388 115.059 111.603C114.127 113.497 111.902 118.179 109.283 123.72H110.389C112.917 118.373 115.051 113.885 115.956 112.044M215.722 191.577C191.984 209.099 143.803 184.943 143.327 184.692C139.229 182.523 129.816 179.414 129.394 179.276C112.484 174.615 107.814 169.873 106.537 167.461C106.025 166.496 105.971 165.784 105.998 165.399H110.582C110.58 165.481 110.565 165.553 110.578 165.646C110.756 166.938 112.537 168.422 115.873 170.059C122.358 173.242 130.425 175.683 130.506 175.707C130.554 175.721 130.602 175.728 130.65 175.728C130.865 175.728 131.063 175.588 131.129 175.372C131.208 175.107 131.059 174.829 130.794 174.749C130.714 174.725 122.726 172.308 116.313 169.162C112.305 167.195 111.666 165.985 111.577 165.557C111.562 165.487 111.57 165.444 111.575 165.399H121.78C123.381 167.221 126.134 168.082 127.02 168.321C128.093 172.034 134.227 172.335 134.472 172.343L139.062 172.746C139.078 172.748 139.092 172.748 139.107 172.748C139.363 172.748 139.582 172.552 139.604 172.292C139.629 172.017 139.425 171.774 139.15 171.75L134.536 171.346C134.477 171.343 128.548 171.063 127.906 167.809C127.825 167.397 127.829 166.943 127.92 166.461C128.047 165.781 128.409 165.273 129.026 164.909C132.203 163.029 140.398 165.69 140.479 165.716C142.331 166.328 185.935 180.628 195.998 174.948C198.232 173.687 199.686 171.811 200.319 169.372C201.896 163.289 197.959 155.473 196.591 153.017H222.681C224.203 155.305 236.972 175.89 215.722 191.577M223.351 152.225C223.257 152.094 223.106 152.017 222.945 152.017H195.724C195.543 152.017 195.376 152.114 195.288 152.272C195.199 152.43 195.203 152.623 195.297 152.778C195.355 152.873 201.101 162.377 199.35 169.123C198.788 171.288 197.495 172.955 195.506 174.077C185.824 179.542 141.242 164.915 140.793 164.766C140.438 164.649 132.084 161.939 128.518 164.047C127.65 164.56 127.118 165.31 126.937 166.276C126.876 166.602 126.847 166.92 126.849 167.228C125.75 166.884 123.586 166.055 122.402 164.586C122.307 164.467 122.164 164.399 122.013 164.399H105.583C105.375 164.399 105.188 164.528 105.115 164.723C105.067 164.85 104.676 166.014 105.6 167.828C106.397 169.394 108.134 171.347 111.713 173.475C109.471 176.036 107.036 178.134 104.396 179.501C100.062 181.746 95.4901 181.86 90.8071 179.841C88.1921 178.713 86.3651 176.811 85.3761 174.185C83.7171 169.777 84.6501 164.061 85.9021 159.633L85.3521 157.899C83.8641 162.587 82.4771 169.321 84.4401 174.536C85.5271 177.426 87.5371 179.52 90.4111 180.759C92.7621 181.773 95.0861 182.279 97.3731 182.279C99.9231 182.279 102.425 181.649 104.857 180.389C107.539 179 110.127 176.856 112.617 173.993C116.22 175.993 121.472 178.129 129.104 180.233C129.201 180.265 138.836 183.446 142.859 185.576C143.212 185.762 169.464 198.92 193.003 198.92C201.601 198.92 209.836 197.165 216.316 192.382C239.519 175.253 223.515 152.453 223.351 152.225" fill="black"/><path id="Fill 18" fill-rule="evenodd" clip-rule="evenodd" d="M226.998 150.847L218.378 138.274C207.334 122.167 189.08 112.55 169.549 112.55H165.407L165.748 109.321C165.8 108.826 165.639 108.331 165.307 107.961C164.974 107.592 164.498 107.38 164 107.38H152.776C152.624 107.751 152.446 108.088 152.258 108.38H164C164.218 108.38 164.417 108.469 164.563 108.63C164.708 108.792 164.776 109 164.753 109.216L164.354 112.997C164.339 113.139 164.384 113.279 164.479 113.385C164.574 113.49 164.709 113.55 164.851 113.55H169.549C188.75 113.55 206.695 123.004 217.553 138.84L226.174 151.412C226.293 151.586 226.23 151.748 226.197 151.81C226.165 151.872 226.065 152.016 225.855 152.016H194.95C194.803 152.016 194.67 151.934 194.604 151.803L192.675 147.943C192.565 147.725 192.315 147.618 192.082 147.689C191.848 147.761 191.7 147.991 191.732 148.233L193.633 162.443L195.7 174.539C195.717 174.53 195.735 174.521 195.752 174.512C196.059 174.339 196.345 174.155 196.615 173.963L194.622 162.293L193.121 151.071L193.71 152.25C193.946 152.722 194.422 153.016 194.95 153.016H196.015C195.835 152.698 195.724 152.516 195.724 152.516H222.947C222.947 152.516 223.072 152.691 223.282 153.016H225.855C226.371 153.016 226.841 152.732 227.081 152.276C227.321 151.82 227.29 151.272 226.998 150.847V150.847ZM116.022 185.841L117.723 175.875C117.4 175.74 117.084 175.605 116.778 175.471L114.936 186.257C114.912 186.402 114.952 186.551 115.047 186.663C115.142 186.776 115.282 186.841 115.429 186.841H146.661C145.816 186.458 145.096 186.121 144.514 185.841H116.022ZM162.168 109.053C161.892 109.053 161.668 109.276 161.668 109.553V112.57C161.668 112.847 161.892 113.07 162.168 113.07C162.444 113.07 162.668 112.847 162.668 112.57V109.553C162.668 109.276 162.444 109.053 162.168 109.053V109.053ZM159.917 109.053C159.641 109.053 159.417 109.276 159.417 109.553V112.57C159.417 112.847 159.641 113.07 159.917 113.07C160.194 113.07 160.417 112.847 160.417 112.57V109.553C160.417 109.276 160.194 109.053 159.917 109.053V109.053ZM157.667 109.053C157.391 109.053 157.167 109.276 157.167 109.553V112.57C157.167 112.847 157.391 113.07 157.667 113.07C157.943 113.07 158.167 112.847 158.167 112.57V109.553C158.167 109.276 157.943 109.053 157.667 109.053V109.053ZM153.166 109.053C152.89 109.053 152.666 109.276 152.666 109.553V112.57C152.666 112.847 152.89 113.07 153.166 113.07C153.442 113.07 153.666 112.847 153.666 112.57V109.553C153.666 109.276 153.442 109.053 153.166 109.053V109.053ZM155.416 109.053C155.14 109.053 154.916 109.276 154.916 109.553V112.57C154.916 112.847 155.14 113.07 155.416 113.07C155.693 113.07 155.916 112.847 155.916 112.57V109.553C155.916 109.276 155.693 109.053 155.416 109.053V109.053ZM150.915 109.053C150.64 109.053 150.415 109.276 150.415 109.553V112.57C150.415 112.847 150.64 113.07 150.915 113.07C151.192 113.07 151.415 112.847 151.415 112.57V109.553C151.415 109.276 151.192 109.053 150.915 109.053V109.053Z" fill="black"/><path id="Fill 20" fill-rule="evenodd" clip-rule="evenodd" d="M150.415 160.842V164.399H143.235L142.144 160.842H150.415ZM105.583 164.899H122.013C122.155 165.075 122.312 165.239 122.477 165.399H127.81C128.078 164.974 128.457 164.645 128.923 164.399H87.9403L75.1833 124.22H129.59L137.604 149.461V149.462L142.189 164.399H137.472C139.297 164.801 140.637 165.241 140.637 165.241C140.637 165.241 140.806 165.297 141.12 165.399H150.915C151.191 165.399 151.415 165.175 151.415 164.899V160.342C151.415 160.066 151.191 159.842 150.915 159.842H141.949L130.432 123.569C130.366 123.361 130.173 123.22 129.955 123.22H74.5003C74.3403 123.22 74.1903 123.296 74.0963 123.425C74.0023 123.553 73.9753 123.719 74.0233 123.871L87.0983 165.05C87.1643 165.258 87.3563 165.399 87.5743 165.399H105.499C105.518 165.076 105.583 164.899 105.583 164.899V164.899Z" fill="black"/></g></g></g><g id="Facial Hair" transform="translate(193 148) scale(39 49)"><g id="Facial Hair/No Facial Hair" stroke="none" stroke-width="1" fill="none" fill-rule="evenodd" fill-opacity="0"/></g></g></svg>