<svg viewBox="89.53488372093028 139.2 220.9302325581395 330.5999999999999" fill="none" xmlns="http://www.w3.org/2000/svg" xmlns:xlink="http://www.w3.org/1999/xlink" overflow="visible" width="220.9302325581395px" height="330.5999999999999px"><g id="Master/Character/Standing"><g id="Lower Body Standing" transform="translate(32 185) scale(1 1)"><g id="Lower Body Standing/Sneakers"><g id="Semi-frontal"><path id="Legs" fill-rule="evenodd" clip-rule="evenodd" d="M109.137 214.09L96.8721 258.883H138.825L147.669 214.09H109.137ZM234.182 260.977L231.349 214.09H197.147L202.334 263.606C203.186 271.744 210.047 277.923 218.229 277.923C227.435 277.923 234.738 270.166 234.182 260.977Z" fill="#d96e05"/><path id="Combined Shape" fill-rule="evenodd" clip-rule="evenodd" d="M138.415 258.383H97.5276L109.519 214.59H147.061L138.415 258.383ZM96.8726 259.383H138.826C139.065 259.383 139.27 259.214 139.317 258.98L148.16 214.187C148.189 214.04 148.151 213.888 148.056 213.773C147.961 213.657 147.819 213.59 147.67 213.59H109.137C108.912 213.59 108.715 213.741 108.655 213.958L96.3896 258.751C96.3486 258.902 96.3806 259.062 96.4746 259.186C96.5696 259.31 96.7166 259.383 96.8726 259.383ZM202.832 263.553L197.703 214.59H230.879L233.684 261.007C233.944 265.312 232.459 269.413 229.503 272.553C226.546 275.694 222.543 277.423 218.23 277.423C210.279 277.423 203.66 271.461 202.832 263.553ZM201.837 263.658C202.719 272.075 209.766 278.423 218.23 278.423C222.821 278.423 227.083 276.582 230.231 273.239C233.378 269.896 234.959 265.53 234.682 260.946L231.849 214.06C231.833 213.796 231.614 213.59 231.35 213.59H197.148C197.006 213.59 196.871 213.65 196.776 213.756C196.682 213.861 196.636 214.001 196.651 214.142L201.837 263.658Z" fill="black"/><path id="Shoes" fill-rule="evenodd" clip-rule="evenodd" d="M64.4995 278.325H138.826V258.883H96.8725L96.7185 259.022C93.9725 261.492 90.5885 263.142 86.9505 263.781L79.8565 265.028C72.8745 266.255 67.0845 271.131 64.6875 277.803L64.4995 278.325ZM229.488 261.198C222.609 260.283 215.639 260.283 208.759 261.198C198.534 262.557 189.694 269.004 185.275 278.324H252.973C248.553 269.004 239.714 262.557 229.488 261.198Z" fill="#4B69FD"/><path id="Combined Shape_2" fill-rule="evenodd" clip-rule="evenodd" d="M138.325 277.825H65.2114C67.5744 271.413 73.2054 266.704 79.9434 265.521L87.0364 264.274C90.7704 263.617 94.2344 261.93 97.0534 259.393L138.325 259.383V277.825ZM64.4994 278.825H138.825C139.101 278.825 139.325 278.601 139.325 278.325V258.883C139.325 258.607 139.101 258.383 138.825 258.383H96.8724C96.7484 258.383 96.6294 258.429 96.5374 258.512L96.3834 258.65C93.7044 261.061 90.4124 262.665 86.8634 263.288L79.7704 264.535C72.6284 265.791 66.6684 270.809 64.2174 277.634L64.0294 278.156C63.9744 278.309 63.9974 278.479 64.0904 278.613C64.1844 278.746 64.3374 278.825 64.4994 278.825ZM252.17 277.825H186.076C190.542 269.009 198.989 263.002 208.824 261.694C215.658 260.786 222.588 260.786 229.422 261.694C239.258 263.002 247.704 269.009 252.17 277.825ZM185.274 278.825H252.972C253.144 278.825 253.303 278.737 253.395 278.592C253.487 278.448 253.498 278.266 253.424 278.111C248.913 268.598 239.99 262.09 229.554 260.703C222.633 259.783 215.614 259.783 208.693 260.703C198.256 262.091 189.333 268.598 184.822 278.111C184.749 278.266 184.76 278.448 184.852 278.592C184.943 278.737 185.103 278.825 185.274 278.825Z" fill="black"/><path id="Combined Shape_3" fill-rule="evenodd" clip-rule="evenodd" d="M66.6405 273.849H138.826V278.325H64.4995L64.6875 277.802C65.1925 276.397 65.8555 275.078 66.6405 273.849ZM252.973 278.325C252.223 276.744 251.337 275.253 250.348 273.849H187.899C186.91 275.253 186.024 276.744 185.274 278.325H252.973Z" fill="#EFF2F7"/><path id="Combined Shape_4" fill-rule="evenodd" clip-rule="evenodd" d="M138.325 277.825H65.2114C65.6504 276.635 66.2234 275.468 66.9174 274.349H138.325V277.825ZM64.5004 278.825H138.825C139.101 278.825 139.325 278.601 139.325 278.325V273.849C139.325 273.573 139.101 273.349 138.825 273.349H66.6414C66.4704 273.349 66.3114 273.436 66.2194 273.58C65.3914 274.876 64.7174 276.24 64.2164 277.634L64.0294 278.156C63.9744 278.309 63.9974 278.48 64.0914 278.613C64.1844 278.746 64.3374 278.825 64.5004 278.825ZM252.17 277.825H186.078C186.678 276.648 187.376 275.482 188.16 274.349H250.088C250.872 275.482 251.57 276.648 252.17 277.825ZM185.275 278.825H252.973C253.145 278.825 253.303 278.737 253.395 278.592C253.486 278.448 253.497 278.266 253.424 278.111C252.693 276.566 251.794 275.035 250.757 273.561C250.663 273.429 250.51 273.349 250.348 273.349H187.899C187.737 273.349 187.584 273.429 187.491 273.561C186.453 275.035 185.556 276.566 184.823 278.111C184.75 278.266 184.761 278.448 184.852 278.592C184.944 278.737 185.103 278.825 185.275 278.825Z" fill="black"/><path id="Pants" fill-rule="evenodd" clip-rule="evenodd" d="M221.503 77.4998H143.117L91.1187 254.218H145.102L177.65 138.711L193.924 254.218H243.143L221.503 77.4998Z" fill="#409B81"/><path id="Combined Shape_5" fill-rule="evenodd" clip-rule="evenodd" d="M242.581 253.718H194.358L178.161 138.761L183.494 119.857C183.569 119.591 183.414 119.315 183.148 119.24C182.882 119.167 182.606 119.32 182.531 119.585L177.194 138.506C177.184 138.528 177.175 138.551 177.168 138.576L144.723 253.718H91.7873L143.491 77.9995H221.057L242.581 253.718ZM172.965 157.179L145.582 254.354C145.522 254.569 145.325 254.718 145.101 254.718H91.1193C90.9613 254.718 90.8133 254.644 90.7183 254.517C90.6243 254.391 90.5953 254.228 90.6393 254.077L142.637 77.3585C142.699 77.1455 142.895 76.9995 143.116 76.9995H221.502C221.756 76.9995 221.97 77.1895 221.999 77.4415L243.639 254.16C243.656 254.302 243.611 254.444 243.516 254.551C243.421 254.657 243.285 254.718 243.143 254.718H193.923C193.674 254.718 193.463 254.534 193.428 254.288L177.488 141.147L172.967 157.173C172.966 157.175 172.966 157.177 172.965 157.179Z" fill="black"/></g></g></g><g id="Head" transform="translate(193 148) scale(1 1)"><g id="Head/Calm"><path id="Path 2" fill-rule="evenodd" clip-rule="evenodd" d="M12.5 43.7363C12.5 43.7363 16.0343 41.1592 15.4058 30.5163C15.4058 30.5163 20.9953 33.4358 27.0934 28.4994L28.5 43.6134C28.5 43.6134 24.2721 48.9732 19.8389 48.4534C15.4058 47.9337 12.5 43.7363 12.5 43.7363Z" fill="#d96e05"/><path id="Path 2 Copy" fill-rule="evenodd" clip-rule="evenodd" d="M15.6185 29.1575C19.1685 31.0897 22.873 30.4235 26.799 27.1117C27.1106 26.8489 27.5511 27.076 27.5907 27.5201L28.9973 43.2699C29.0117 43.4301 28.9677 43.5899 28.876 43.711C25.9592 47.5642 22.9235 49.332 19.7865 48.9487C16.6923 48.5707 14.1229 46.8497 12.1037 43.8105C11.9264 43.5435 11.9825 43.1583 12.2257 42.9735C14.3851 41.3327 15.3152 36.9233 14.9069 29.7193C14.882 29.2794 15.274 28.9699 15.6185 29.1575ZM27.8541 43.348L26.5503 29L26.2853 29.199C22.7217 31.8029 19.2465 32.4147 15.9004 31.0061L15.7525 30.9417L15.7761 31.5369C15.9754 37.6673 15.094 41.732 13.0614 43.7146L13 43.7713L13.1374 43.9575C14.8463 46.2141 16.9214 47.5258 19.3801 47.9095L19.7177 47.956C22.5083 48.2909 25.2631 46.7152 28 43.1638L27.8541 43.348Z" fill="black"/><g id="Calm"><path id="Skin" fill-rule="evenodd" clip-rule="evenodd" d="M19.7106 31.402C12.9646 31.402 7.49561 25.603 7.49561 18.449C7.49561 11.295 12.9646 5.495 19.7106 5.495C26.4566 5.495 31.9246 11.295 31.9246 18.449C31.9246 25.603 26.4566 31.402 19.7106 31.402Z" fill="#d96e05"/><path id="Fill 193" fill-rule="evenodd" clip-rule="evenodd" d="M19.71 5.991C13.248 5.991 7.991 11.579 7.991 18.449C7.991 25.318 13.248 30.907 19.71 30.907C26.172 30.907 31.429 25.318 31.429 18.449C31.429 11.579 26.172 5.991 19.71 5.991M19.71 31.898C12.702 31.898 7 25.865 7 18.449C7 11.033 12.702 5 19.71 5C26.718 5 32.42 11.033 32.42 18.449C32.42 25.865 26.718 31.898 19.71 31.898" fill="black"/><path id="Fill 199" fill-rule="evenodd" clip-rule="evenodd" d="M16.2881 22.6058C16.2681 22.6058 16.2481 22.6048 16.2271 22.6028L14.1851 22.3548C14.0421 22.3368 13.9131 22.2588 13.8321 22.1388C13.7511 22.0198 13.7251 21.8708 13.7621 21.7308L14.3811 19.3788C14.4511 19.1128 14.7241 18.9538 14.9921 19.0228C15.2581 19.0938 15.4181 19.3668 15.3481 19.6338L14.8751 21.4308L16.3481 21.6088C16.6221 21.6428 16.8171 21.8918 16.7841 22.1658C16.7531 22.4198 16.5381 22.6058 16.2881 22.6058" fill="black"/><path id="Fill 201" fill-rule="evenodd" clip-rule="evenodd" d="M19.7099 18.1663C19.7099 18.7693 19.4029 19.2573 19.0239 19.2573C18.6449 19.2573 18.3369 18.7693 18.3369 18.1663C18.3369 17.5633 18.6449 17.0753 19.0239 17.0753C19.4029 17.0753 19.7099 17.5633 19.7099 18.1663" fill="black"/><path id="Fill 203" fill-rule="evenodd" clip-rule="evenodd" d="M13.0498 18.1663C13.0498 18.7693 12.7428 19.2573 12.3628 19.2573C11.9848 19.2573 11.6768 18.7693 11.6768 18.1663C11.6768 17.5633 11.9848 17.0753 12.3628 17.0753C12.7428 17.0753 13.0498 17.5633 13.0498 18.1663" fill="black"/><path id="Fill 205" fill-rule="evenodd" clip-rule="evenodd" d="M20.735 15.7357C20.619 15.7357 20.504 15.6957 20.409 15.6147C19.45 14.7907 18.361 14.7997 18.347 14.8007H18.34C18.068 14.8007 17.844 14.5827 17.839 14.3097C17.834 14.0347 18.05 13.8077 18.325 13.8007C18.386 13.8007 19.806 13.7787 21.061 14.8567C21.27 15.0367 21.294 15.3517 21.114 15.5617C21.015 15.6767 20.876 15.7357 20.735 15.7357" fill="black"/><path id="Fill 207" fill-rule="evenodd" clip-rule="evenodd" d="M10.6526 15.7357C10.5116 15.7357 10.3726 15.6767 10.2736 15.5617C10.0936 15.3517 10.1176 15.0357 10.3266 14.8567C11.5826 13.7787 13.0056 13.8017 13.0626 13.8007C13.3386 13.8077 13.5566 14.0367 13.5496 14.3127C13.5436 14.5877 13.3556 14.8097 13.0406 14.8007C13.0076 14.8047 11.9296 14.7987 10.9786 15.6147C10.8836 15.6957 10.7686 15.7357 10.6526 15.7357" fill="black"/><path id="Fill 209" fill-rule="evenodd" clip-rule="evenodd" d="M17.8506 25.2132C17.7996 25.2132 17.7516 25.2112 17.7066 25.2082C17.4316 25.1872 17.2256 24.9462 17.2466 24.6712C17.2676 24.3972 17.5096 24.1962 17.7806 24.2112C17.9356 24.2182 18.7256 24.2282 18.8506 23.4472C18.8936 23.1742 19.1506 22.9892 19.4236 23.0332C19.6966 23.0772 19.8816 23.3332 19.8376 23.6062C19.6316 24.8882 18.5196 25.2132 17.8506 25.2132" fill="black"/></g></g></g><g id="Accesories" transform="translate(193 148) scale(39 49)"><g id="Accesories/No Accesory" stroke="none" stroke-width="1" fill="none" fill-rule="evenodd" fill-opacity="0"/></g><g id="Hair" transform="translate(143 115) scale(1 1)"><g id="Hair/Fluffy Ponytail"><g id="Fluffy Ponytail"><path id="Hair" fill-rule="evenodd" clip-rule="evenodd" d="M80.5862 58.8098C80.7902 58.5018 80.9832 58.1818 81.1642 57.8478C80.9832 58.1818 80.7912 58.5018 80.5862 58.8098M80.2202 59.3088C80.1282 59.4308 80.0412 59.5588 79.9452 59.6758C80.0412 59.5588 80.1282 59.4308 80.2202 59.3088M79.2442 60.4418C79.2952 60.3908 79.3432 60.3338 79.3942 60.2808C79.3432 60.3328 79.2962 60.3908 79.2442 60.4418M71.9932 37.5348L72.6422 37.7638C73.7742 37.9048 74.7652 38.1748 75.6362 38.5458C77.0882 39.1648 78.2082 40.0628 79.0922 41.1088C79.6232 41.7368 80.0692 42.4168 80.4532 43.1218C80.0692 42.4168 79.6232 41.7368 79.0922 41.1088C78.2082 40.0628 77.0882 39.1648 75.6362 38.5458C74.7652 38.1748 73.7742 37.9048 72.6422 37.7638L71.9932 37.5348C71.9932 37.5348 59.8612 20.8968 48.8662 32.7758C37.8722 44.6558 57.3192 44.8758 57.3192 44.8758L58.3112 44.6348H70.7952C72.0032 44.6348 73.0182 45.5398 73.1552 46.7398L73.7842 52.2488C74.4312 52.1268 75.1492 52.2048 76.0112 53.2168C76.3302 53.5908 76.5572 54.0658 76.5532 54.5578C76.5442 55.8398 75.5022 56.8758 74.2182 56.8758C74.1402 56.8758 74.0672 56.8608 73.9912 56.8528L74.2492 62.5808C74.4262 62.5808 74.5922 62.5528 74.7652 62.5388L74.7462 62.5808L72.7661 63.5249C74.1871 72.6199 86.1472 71.8258 86.1472 71.8258C86.1472 71.8258 101.312 66.6448 95.4992 46.5508C89.6862 26.4578 71.9942 37.5338 71.9932 37.5348Z" fill="#eff2f7"/><path id="Fill 3" fill-rule="evenodd" clip-rule="evenodd" d="M80.1769 38.0169C77.8939 31.2119 72.1009 37.6279 72.1009 37.6279C72.1009 37.6279 82.4599 44.8229 80.1769 38.0169M72.1009 29.5369C65.4129 32.1439 72.1009 37.6209 72.1009 37.6209C72.1009 37.6209 78.7889 26.9289 72.1009 29.5369" fill="#FCBD21"/><path id="Fill 5" fill-rule="evenodd" clip-rule="evenodd" d="M86.0487 71.3303C85.0327 71.3773 75.0957 71.6293 73.5667 63.7173L74.9667 63.0293C74.9677 63.0293 74.9697 63.0283 74.9717 63.0273C75.9857 62.9283 76.9467 62.6213 77.8377 62.1183C77.8447 62.1143 77.8517 62.1103 77.8597 62.1063C78.1427 61.9453 78.4197 61.7673 78.6877 61.5673C78.7157 61.5463 78.7417 61.5243 78.7687 61.5033C79.0157 61.3143 79.2577 61.1143 79.4907 60.8923C79.5487 60.8383 79.6017 60.7783 79.6577 60.7223C79.8587 60.5213 80.0567 60.3183 80.2457 60.0933C80.3497 59.9703 80.4457 59.8323 80.5467 59.7023C80.6827 59.5233 80.8217 59.3523 80.9517 59.1613C81.1807 58.8223 81.3997 58.4643 81.6037 58.0853C83.4217 54.7143 83.7177 50.5123 82.4167 46.5563C81.8217 44.7483 81.0437 42.9193 79.8797 41.3493C80.0667 41.2963 80.2367 41.2193 80.3827 41.1093C81.1137 40.5613 81.2007 39.4973 80.6517 37.8573C80.2787 36.7483 79.7877 35.9113 79.1897 35.3313C81.5167 34.8713 84.1477 34.7943 86.6397 35.7483C90.5307 37.2403 93.3497 40.9213 95.0187 46.6903C100.495 65.6163 87.2317 70.9013 86.0487 71.3303M77.0537 54.5613C77.0577 53.9903 76.8227 53.3983 76.3917 52.8923C75.5777 51.9363 74.8227 51.7083 74.2257 51.7053L73.6527 46.6833C73.4857 45.2303 72.2577 44.1343 70.7957 44.1343H58.3107C58.2707 44.1343 58.2317 44.1393 58.1927 44.1483L57.2647 44.3743C56.4537 44.3543 47.8597 44.0553 46.2537 40.3203C45.4767 38.5153 46.4797 36.0913 49.2337 33.1163C51.9237 30.2093 54.9087 28.8203 58.1137 29.0163C62.8577 29.2913 67.1097 32.9163 69.5177 35.4313C70.4197 36.8723 71.6967 37.9363 71.7847 38.0083C71.7867 38.0103 71.7897 38.0103 71.7917 38.0123C71.8007 38.0193 71.8057 38.0313 71.8167 38.0383C72.6717 38.6323 76.2367 41.0213 78.6697 41.3803C79.6137 42.4853 80.3017 43.7943 80.8577 45.1813C81.0787 45.7343 81.2797 46.2993 81.4667 46.8683C82.6827 50.5653 82.4117 54.4803 80.7237 57.6103C79.2797 60.2883 77.1507 61.8613 74.7277 62.0403C74.7267 62.0403 74.7267 62.0413 74.7257 62.0413L74.5147 57.3603C75.9297 57.2123 77.0427 56.0133 77.0537 54.5613M69.6557 32.4383C69.8157 31.4393 70.6987 30.6203 72.2827 30.0023C72.9227 29.7533 73.4527 29.6263 73.8347 29.6263C74.1067 29.6263 74.3027 29.6903 74.4097 29.8193C75.1297 30.6873 73.4777 34.3393 71.9877 36.8463C71.1457 36.0443 69.3857 34.1383 69.6557 32.4383M72.8807 37.5513C73.7227 36.7493 75.7137 35.0783 77.3957 35.4353C78.3857 35.6423 79.1627 36.5643 79.7027 38.1763C80.0767 39.2893 80.1057 40.0673 79.7827 40.3093C78.8807 40.9863 75.3127 39.1603 72.8807 37.5513M95.9797 46.4123C94.2187 40.3263 91.1967 36.4243 86.9977 34.8143C83.8897 33.6233 80.6437 33.8793 77.9437 34.5583C77.8297 34.5203 77.7167 34.4803 77.5987 34.4553C76.3097 34.1873 74.9717 34.7633 73.8977 35.4643C75.0107 33.2973 76.1787 30.3883 75.1797 29.1823C74.5977 28.4783 73.5307 28.4423 71.9197 29.0703C69.9807 29.8263 68.8867 30.9073 68.6687 32.2833C68.6217 32.5803 68.6257 32.8763 68.6577 33.1713C66.0657 30.8113 62.3447 28.2613 58.1757 28.0173C54.6577 27.8173 51.4037 29.2993 48.4997 32.4363C45.4527 35.7283 44.3877 38.5143 45.3347 40.7163C47.2687 45.2103 56.9047 45.3713 57.3137 45.3753C57.3617 45.3723 57.3977 45.3713 57.4377 45.3613L58.3707 45.1343H70.7957C71.7497 45.1343 72.5507 45.8493 72.6587 46.7963L73.2877 52.3053C73.3037 52.4433 73.3757 52.5683 73.4877 52.6513C73.6007 52.7343 73.7407 52.7673 73.8777 52.7403C74.3237 52.6553 74.8647 52.6413 75.6307 53.5403C75.9057 53.8633 76.0557 54.2233 76.0537 54.5543C76.0467 55.5593 75.2227 56.3763 74.2177 56.3763L74.0397 56.3553C73.8987 56.3423 73.7527 56.3913 73.6477 56.4913C73.5427 56.5903 73.4857 56.7313 73.4917 56.8753L73.7457 62.5153L72.7887 62.9853C72.5927 63.0813 72.4817 63.2943 72.5157 63.5113C73.8127 71.8183 83.3207 72.3353 85.6597 72.3353C85.9777 72.3353 86.1627 72.3263 86.1767 72.3253C86.2217 72.3223 86.2667 72.3133 86.3087 72.2993C86.4697 72.2443 90.2737 70.9123 93.3927 67.0373C96.2627 63.4713 99.0427 56.9983 95.9797 46.4123" fill="black"/></g></g></g><g id="Upper Body" transform="translate(58 77) scale(1 1)"><g id="Upper Body/Neutral Arms Sweater"><g id="Neutral Hands"><path id="Skin" fill-rule="evenodd" clip-rule="evenodd" d="M244.974 230.589L239.437 220.901C235.504 214.019 232.79 206.488 231.618 198.649C227.834 173.337 219.835 149.889 211.274 136.678C208.211 131.953 204.84 128.004 201.486 124.733C193.381 116.826 179.746 121.941 178.913 133.233C178.573 137.846 180.707 142.233 184.413 145C203.418 159.183 211.546 204.137 212.121 210.143C212.755 216.758 205.989 216.071 204.883 229.816C203.654 245.081 210.282 246.222 213.025 244.693C215.769 243.164 214.118 230.828 214.118 230.828C220.021 238.868 216.082 251.234 220.398 254.956C224.409 258.415 228.171 254.88 228.171 254.88C234.727 256.928 237.407 251.637 237.407 251.637C244.941 250.533 244.119 243.332 244.119 243.332C248.653 238.316 244.974 230.589 244.974 230.589M109.412 124.733C106.058 128.004 102.686 131.953 99.6238 136.678C91.0628 149.889 83.0638 173.337 79.2798 198.649C78.1078 206.488 75.3938 214.019 71.4608 220.901L65.9238 230.589C65.9238 230.589 62.2448 238.316 66.7798 243.332C66.7798 243.332 65.9568 250.533 73.4918 251.637C73.4918 251.637 76.1698 256.928 82.7268 254.88C82.7268 254.88 86.4898 258.415 90.4998 254.956C94.8158 251.234 90.8768 238.868 96.7808 230.828C96.7808 230.828 95.1288 243.164 97.8718 244.693C100.617 246.222 107.244 245.081 106.015 229.816C104.909 216.071 98.1428 216.758 98.7768 210.143C99.3518 204.137 107.48 159.183 126.484 145C130.191 142.233 132.325 137.846 131.985 133.233C131.152 121.941 117.517 116.826 109.412 124.733" fill="#d96e05"/><path id="Fill 3" fill-rule="evenodd" clip-rule="evenodd" d="M236.855 228.297C240.896 235.845 242.834 239.825 243.623 243.41C243.665 243.808 244.157 249.774 237.869 251.032C238.612 247.816 238.074 241.681 232.835 230.021C232.723 229.769 232.427 229.655 232.174 229.77C231.923 229.883 231.81 230.179 231.923 230.431C238.029 244.022 237.469 249.639 236.592 251.778C236.485 252.037 236.372 252.247 236.257 252.43C236.01 252.728 235.698 253.054 235.307 253.373C235.23 253.405 235.168 253.456 235.118 253.517C233.82 254.505 231.779 255.298 228.838 254.536C229.381 252.797 230.337 246.878 225.712 232.108C225.629 231.844 225.35 231.695 225.085 231.78C224.822 231.863 224.675 232.143 224.758 232.407C229.866 248.716 228.021 253.967 227.761 254.574C227.256 255.013 224.104 257.495 220.724 254.578C218.876 252.984 218.66 249.484 218.411 245.43C218.11 240.55 217.766 235.026 214.58 230.621C214.584 228.12 215.363 227.047 215.379 227.025C215.548 226.809 215.511 226.497 215.296 226.326C215.08 226.155 214.766 226.19 214.593 226.406C214.522 226.496 212.866 228.655 213.934 233.936C213.935 233.942 213.939 233.947 213.94 233.953C214.285 238.343 214.209 243.461 212.781 244.256C211.882 244.759 210.301 245.001 208.803 244.039C207.182 242.997 204.583 239.769 205.38 229.856C205.99 222.274 208.32 219.215 210.192 216.758C211.653 214.841 212.914 213.186 212.618 210.095C212.014 203.788 203.667 158.747 184.712 144.599C181.07 141.881 179.088 137.646 179.411 133.27C179.781 128.258 182.925 124.041 187.617 122.263C192.334 120.476 197.515 121.559 201.136 125.091C204.801 128.667 208.071 132.657 210.853 136.95C219.7 150.602 227.467 174.273 231.123 198.723C232.283 206.486 234.934 214.031 239.002 221.149L244.522 230.804C244.555 230.875 247.637 237.508 244.356 242.215C243.424 238.761 241.466 234.791 237.737 227.825C237.606 227.582 237.305 227.491 237.06 227.62C236.816 227.751 236.725 228.054 236.855 228.297M245.407 230.341L239.87 220.653C235.864 213.643 233.253 206.215 232.112 198.576C228.437 173.992 220.612 150.171 211.692 136.406C208.87 132.051 205.553 128.003 201.834 124.375C197.932 120.569 192.349 119.401 187.263 121.328C182.203 123.245 178.813 127.793 178.414 133.197C178.066 137.915 180.197 142.477 184.114 145.401C202.78 159.332 211.024 203.941 211.623 210.191C211.881 212.891 210.839 214.259 209.397 216.152C207.548 218.578 205.017 221.901 204.383 229.776C203.586 239.686 206.053 243.459 208.262 244.88C210.132 246.083 212.127 245.766 213.268 245.13C215.555 243.855 215.211 236.725 214.858 232.965C216.878 236.823 217.16 241.392 217.412 245.491C217.676 249.771 217.904 253.467 220.07 255.335C221.489 256.559 222.885 256.97 224.121 256.969C226.127 256.969 227.712 255.886 228.283 255.436C231.733 256.431 234.154 255.464 235.701 254.288C235.878 254.218 236.556 253.894 237.16 252.874C237.418 252.554 237.605 252.276 237.717 252.094C244.617 250.945 244.691 244.784 244.63 243.507C249.119 238.305 245.579 230.699 245.407 230.341M126.185 144.599C107.229 158.747 98.8819 203.788 98.2779 210.095C97.9819 213.186 99.2439 214.841 100.704 216.758C102.576 219.215 104.906 222.274 105.516 229.856C106.313 239.769 103.714 242.997 102.093 244.039C100.595 245.001 99.0139 244.758 98.1149 244.257C96.6879 243.462 96.6109 238.343 96.9559 233.953C96.9579 233.946 96.9609 233.942 96.9619 233.936C98.0299 228.655 96.3739 226.496 96.3019 226.406C96.1319 226.192 95.8229 226.157 95.6049 226.325C95.3889 226.493 95.3509 226.807 95.5169 227.025C95.5279 227.039 96.3119 228.111 96.3169 230.62C93.1299 235.026 92.7869 240.55 92.4859 245.429C92.2359 249.484 92.0199 252.984 90.1719 254.578C86.7919 257.494 83.6399 255.012 83.1339 254.574C82.8729 253.96 81.0349 248.704 86.1379 232.407C86.2209 232.143 86.0739 231.863 85.8109 231.78C85.5449 231.695 85.2659 231.844 85.1839 232.108C80.5589 246.877 81.5139 252.797 82.0579 254.536C79.1019 255.3 77.0489 254.484 75.7499 253.484C75.7289 253.463 75.7029 253.448 75.6779 253.43C75.2389 253.083 74.8889 252.724 74.6219 252.402C74.5129 252.224 74.4059 252.025 74.3049 251.778C73.4269 249.639 72.8679 244.022 78.9729 230.431C79.0859 230.179 78.9729 229.883 78.7219 229.77C78.4679 229.657 78.1739 229.77 78.0609 230.021C72.8229 241.68 72.2839 247.816 73.0279 251.032C66.7489 249.776 67.2309 243.825 67.2739 243.413C68.0599 239.828 69.9999 235.847 74.0409 228.297C74.1709 228.054 74.0799 227.751 73.8359 227.62C73.5919 227.491 73.2899 227.582 73.1589 227.825C69.4309 234.79 67.4719 238.761 66.5409 242.214C63.2669 237.514 66.3399 230.877 66.3569 230.838L71.8939 221.149C75.9619 214.031 78.6129 206.486 79.7729 198.723C83.4289 174.274 91.1959 150.603 100.043 136.95C102.825 132.658 106.094 128.668 109.761 125.091C113.381 121.559 118.561 120.478 123.279 122.263C127.971 124.041 131.116 128.258 131.485 133.27C131.808 137.646 129.826 141.881 126.185 144.599M123.633 121.328C118.547 119.401 112.964 120.57 109.063 124.375C105.343 128.004 102.026 132.052 99.2039 136.406C90.2839 150.172 82.4589 173.993 78.7839 198.576C77.6429 206.215 75.0319 213.643 71.0259 220.653L65.4709 230.375C65.3169 230.699 61.7769 238.305 66.2659 243.507C66.2059 244.784 66.2789 250.945 73.1789 252.094C73.2909 252.275 73.4769 252.552 73.7339 252.871C74.3439 253.903 75.0299 254.224 75.1999 254.29C76.7469 255.464 79.1669 256.428 82.6129 255.436C83.1839 255.886 84.7689 256.97 86.7749 256.969C88.0109 256.969 89.4079 256.559 90.8259 255.335C92.9919 253.467 93.2199 249.771 93.4839 245.491C93.7359 241.392 94.0189 236.823 96.0379 232.965C95.6849 236.725 95.3409 243.855 97.6279 245.13C98.7679 245.766 100.764 246.081 102.634 244.88C104.843 243.459 107.31 239.686 106.513 229.776C105.879 221.901 103.348 218.578 101.499 216.152C100.057 214.259 99.0149 212.891 99.2729 210.191C99.8719 203.941 108.116 159.332 126.783 145.401C130.699 142.477 132.83 137.915 132.482 133.197C132.084 127.793 128.693 123.245 123.633 121.328" fill="black"/><path id="Tshirt" fill-rule="evenodd" clip-rule="evenodd" d="M235.505 194.032C235.505 194.032 231.854 186.952 223.797 155.156C215.741 123.359 186.318 116.279 186.318 116.279L186.319 116.28C182.064 114.922 177.635 114.042 173.109 113.684C173.089 113.683 173.068 113.68 173.048 113.678C172.359 113.625 171.668 113.586 170.975 113.556C170.904 113.553 170.835 113.547 170.764 113.545C170.005 113.515 169.243 113.5 168.48 113.5H163.777C163.776 113.502 163.775 113.504 163.774 113.507L163.737 113.5H163.736H163.733C162.474 116.152 159.356 118.033 155.697 118.041C152.038 118.033 148.92 116.152 147.661 113.5H147.657V113.5L147.62 113.507C147.619 113.504 147.617 113.502 147.616 113.5H142.914C142.151 113.5 141.389 113.515 140.63 113.545C140.559 113.547 140.489 113.553 140.419 113.556C139.726 113.586 139.034 113.625 138.345 113.678C138.325 113.68 138.305 113.683 138.284 113.684C133.758 114.042 129.33 114.922 125.075 116.28V116.279C125.075 116.279 95.6517 123.359 87.5957 155.156C79.5397 186.952 75.8887 194.032 75.8887 194.032H103.953C103.953 194.032 108.847 171.622 117.512 158.813C116.879 169.556 114.898 186.791 114.898 186.791H196.496C196.496 186.791 194.515 169.556 193.881 158.813C202.547 171.622 207.441 194.032 207.441 194.032H235.505Z" fill="#4B69FD"/><path id="Fill 8" fill-rule="evenodd" clip-rule="evenodd" d="M116.879 167.215L118.864 147.36Z" fill="#4B69FD"/><path id="Fill 10" fill-rule="evenodd" clip-rule="evenodd" d="M194.404 166.347L192.602 147.375Z" fill="#4B69FD"/><path id="Fill 12" fill-rule="evenodd" clip-rule="evenodd" d="M195.002 172.611H116.385L116.763 168.538H194.63L195.002 172.611Z" fill="#FF5613"/><path id="Fill 14" fill-rule="evenodd" clip-rule="evenodd" d="M195.373 176.667H116.006L116.384 172.594H195.001L195.373 176.667Z" fill="#FCBD21"/><path id="Fill 16" fill-rule="evenodd" clip-rule="evenodd" d="M207.84 193.532C207.134 190.47 202.284 170.342 194.296 158.533C194.26 158.481 194.203 158.46 194.154 158.426L193.1 147.328C193.073 147.053 192.833 146.845 192.555 146.878C192.28 146.904 192.078 147.148 192.105 147.423L193.906 166.395C193.912 166.458 193.93 166.516 193.957 166.57C193.999 167.057 194.042 167.547 194.085 168.037H117.309C117.332 167.781 117.354 167.525 117.376 167.269C117.377 167.268 117.378 167.267 117.378 167.265L119.362 147.41C119.39 147.135 119.19 146.89 118.915 146.863C118.638 146.837 118.395 147.036 118.367 147.31L117.257 158.412C117.201 158.449 117.137 158.475 117.098 158.533C109.11 170.342 104.26 190.47 103.554 193.532H76.6697C77.7407 191.075 81.3667 181.775 88.0807 155.279C95.9867 124.072 124.899 116.836 125.227 116.756C129.481 115.399 133.887 114.533 138.384 114.177C139.068 114.124 139.753 114.086 140.44 114.056C140.443 114.056 140.545 114.05 140.548 114.05L140.649 114.044C141.402 114.015 142.157 114 142.914 114H147.353C148.818 116.761 152.053 118.533 155.698 118.541C159.341 118.533 162.576 116.761 164.041 114H168.48C169.237 114 169.992 114.015 170.844 114.05C170.847 114.05 170.95 114.056 170.954 114.056C171.641 114.086 172.326 114.124 173.07 114.183C177.506 114.533 181.912 115.399 186.201 116.765C186.493 116.835 215.422 124.135 223.313 155.279C230.027 181.775 233.653 191.075 234.724 193.532H207.84ZM115.458 186.291C115.606 184.979 115.995 181.483 116.434 177.167H194.96C195.399 181.483 195.788 184.979 195.936 186.291H115.458ZM194.453 172.094H116.935C117.032 171.085 117.127 170.062 117.219 169.037H194.173L194.453 172.094ZM116.839 173.111H194.547L194.826 176.167H116.555L116.839 173.111ZM235.95 193.803C235.913 193.732 232.214 186.335 224.282 155.032C216.241 123.298 186.715 115.851 186.471 115.803C182.144 114.423 177.662 113.542 173.087 113.18C172.393 113.126 171.695 113.087 170.908 113.052L170.784 113.045C170.018 113.015 169.25 113 168.48 113H163.777C163.769 113 163.76 113 163.752 113C163.558 112.991 163.367 113.104 163.281 113.285C162.057 115.863 159.08 117.533 155.698 117.541C152.314 117.533 149.337 115.863 148.113 113.285C148.03 113.111 147.85 113 147.657 113H142.914C142.144 113 141.376 113.015 140.612 113.045L140.397 113.057C139.698 113.087 139.001 113.126 138.245 113.186C133.733 113.542 129.251 114.423 124.958 115.792C124.661 115.864 95.1487 123.31 87.1107 155.032C79.1797 186.335 75.4807 193.732 75.4437 193.803C75.3647 193.958 75.3707 194.144 75.4617 194.292C75.5527 194.441 75.7147 194.532 75.8887 194.532H103.953C104.188 194.532 104.392 194.368 104.442 194.139C104.488 193.925 109.017 173.473 116.891 160.699C116.72 163.195 116.494 165.945 116.247 168.694L115.916 172.251C115.907 172.348 115.897 172.447 115.888 172.544C115.888 172.545 115.887 172.546 115.887 172.548L115.869 172.739C115.153 180.167 114.413 186.628 114.401 186.734C114.384 186.875 114.429 187.017 114.525 187.124C114.619 187.23 114.755 187.291 114.898 187.291H196.496C196.639 187.291 196.775 187.23 196.869 187.124C196.965 187.017 197.009 186.875 196.993 186.734C196.974 186.572 195.229 171.332 194.503 160.699C202.377 173.473 206.905 193.925 206.952 194.139C207.002 194.368 207.206 194.532 207.441 194.532H235.505C235.679 194.532 235.841 194.441 235.932 194.292C236.023 194.144 236.029 193.958 235.95 193.803V193.803Z" fill="black"/></g></g></g><g id="Facial Hair" transform="translate(193 148) scale(39 49)"><g id="Facial Hair/No Facial Hair" stroke="none" stroke-width="1" fill="none" fill-rule="evenodd" fill-opacity="0"/></g></g></svg>