<svg viewBox="109.01249999999993 146.1730769230769 750.9750000000001 459.0559440559439" fill="none" xmlns="http://www.w3.org/2000/svg" xmlns:xlink="http://www.w3.org/1999/xlink" overflow="visible" width="750.9750000000001px" height="459.0559440559439px"><g id="Master/Scenes/Delivery on the Way"><g id="Plant" transform="translate(71 219.679) scale(1 1)"><g id="Plant/Wavy Leaves"><g id="Wavy Leaves"><path id="Fill 1" fill-rule="evenodd" clip-rule="evenodd" d="M128.89 284.67C128.974 286.581 128.54 288.511 127.872 290.434C126.035 289.31 124.393 288.141 123.98 286.715C123.347 284.529 125.515 281.225 126.813 278.252C127.937 280.42 128.798 282.561 128.89 284.67M198.609 200.455C199.551 193.177 192.069 185.919 192.234 179.944C192.45 172.178 198.058 166.274 198.515 160.754C199.501 148.828 194.632 146.175 190.416 144.399C185.602 142.372 176.64 143.745 172.039 149.616C167.596 155.288 167.111 164.814 162.669 169.934C157.989 175.328 147.46 176.258 143.879 182.083C140.166 188.12 144.105 197.997 141.436 204.34C138.698 210.851 128.922 214.892 127.136 221.552C125.304 228.382 131.756 236.857 130.766 243.66C129.742 250.705 121.171 256.935 120.874 263.745C120.763 266.298 121.707 268.826 122.976 271.325C119.914 270.694 116.244 270.421 114.848 268.67C112.642 265.903 115.751 257.704 112.814 255.304C110.114 253.099 106.858 255.079 103.47 253.263C100.422 251.629 98.3788 241.989 91.2868 244.716C91.3838 244.679 85.6048 249.592 91.8328 258.355C93.4858 260.681 86.3368 264.406 86.5028 268.212C86.6368 271.29 94.8548 274.014 95.2648 277.588C95.6258 280.739 88.2088 285.257 88.8578 288.713C89.4518 291.876 97.9788 293.387 98.8688 296.743C99.7008 299.881 93.0308 305.432 94.1648 308.689C95.2388 311.769 103.897 311.965 105.279 315.109C106.595 318.103 100.877 324.626 102.505 327.641C104.06 330.523 112.637 329.323 114.505 332.193C116.292 334.939 111.714 342.304 113.812 345.011C115.818 347.601 119.687 343.985 121.999 346.516C127.109 344.534 129.793 343.637 130.676 338.903C131.214 336.02 124.267 332.376 124.969 328.362C125.312 326.398 128.308 324.692 130.823 322.856C131.242 323.774 131.576 324.689 131.759 325.608C134.271 338.222 128.075 348.748 134.72 350.499C137.833 351.32 141.307 335.78 144.604 330.235C148.12 324.321 155.76 319.915 158.826 314.26C162.114 308.193 158.038 298.622 160.842 292.857C163.872 286.628 173.906 283.896 176.413 278.023C179.146 271.622 174.142 262.5 176.309 256.528C178.697 249.946 188.358 246.116 190.133 240.062C192.12 233.281 185.999 224.864 187.32 218.756C188.833 211.755 197.82 206.558 198.609 200.455" fill="#FCBD21"/><path id="Fill 3" fill-rule="evenodd" clip-rule="evenodd" d="M198.113 200.39C197.739 203.285 195.378 206.02 192.879 208.916C190.292 211.914 187.616 215.015 186.831 218.65C186.183 221.645 187.209 225.036 188.294 228.626C189.46 232.481 190.665 236.468 189.653 239.921C188.807 242.807 186.046 245.193 183.123 247.719C180.151 250.287 177.077 252.944 175.839 256.357C174.76 259.329 175.359 262.896 175.992 266.671C176.647 270.576 177.325 274.614 175.953 277.826C174.757 280.628 171.737 282.701 168.54 284.894C165.307 287.112 161.965 289.405 160.392 292.638C158.984 295.535 159.24 299.357 159.488 303.053C159.75 306.961 160.022 311.004 158.386 314.021C156.869 316.819 154.223 319.286 151.421 321.898C148.728 324.409 145.943 327.004 144.174 329.979C142.889 332.14 141.575 335.796 140.305 339.332C138.716 343.756 136.56 349.722 135.09 350.012C136.735 311.216 143.983 274.99 156.705 237.453L177.113 177.242C177.201 176.981 177.061 176.697 176.8 176.608C176.538 176.522 176.255 176.66 176.166 176.921L155.758 237.133C143.03 274.685 135.77 310.938 134.102 349.743C131.65 348.609 131.829 345.558 132.386 340.181C132.81 336.082 133.339 330.981 132.249 325.509C132.082 324.674 131.798 323.846 131.444 323.02C133.203 321.703 134.68 320.291 134.831 318.594C135.01 316.583 133.062 314.648 131 312.6C129.187 310.799 127.313 308.938 127.296 307.286C127.28 305.751 129.038 303.904 130.738 302.117C132.728 300.026 134.785 297.864 134.503 295.732C134.225 293.636 131.689 292.129 129.235 290.671C128.981 290.52 128.727 290.369 128.474 290.217C129.086 288.369 129.471 286.507 129.389 284.648C129.297 282.526 128.45 280.369 127.359 278.23C128.115 276.439 128.553 274.729 127.878 273.384C127.162 271.955 125.4 271.327 123.31 270.88C122.132 268.518 121.271 266.131 121.374 263.766C121.521 260.393 123.788 257.164 126.189 253.746C128.43 250.554 130.749 247.253 131.261 243.732C131.744 240.411 130.517 236.708 129.331 233.126C128.031 229.204 126.688 225.15 127.619 221.68C128.521 218.317 131.545 215.654 134.747 212.835C137.603 210.32 140.557 207.719 141.897 204.534C143.176 201.492 142.989 197.665 142.808 193.964C142.604 189.781 142.392 185.454 144.304 182.344C146.123 179.386 149.822 177.744 153.737 176.004C157.198 174.467 160.777 172.877 163.046 170.261C165.371 167.581 166.652 163.701 167.891 159.948C169.076 156.356 170.302 152.643 172.432 149.924C175.687 145.771 181.1 144.041 185.519 144.041C187.324 144.041 188.964 144.329 190.222 144.86C193.726 146.335 199.021 148.565 198.016 160.712C197.822 163.057 196.624 165.554 195.355 168.198C193.716 171.614 191.858 175.485 191.735 179.93C191.656 182.766 193.175 185.781 194.783 188.973C196.663 192.705 198.608 196.566 198.113 200.39V200.39ZM122.693 366.734V359.653C122.693 355.063 122.615 350.836 122.45 346.876L122.646 346.801C127.556 344.902 130.261 343.856 131.168 338.994C131.46 337.425 130.028 335.831 128.51 334.143C126.846 332.29 125.124 330.375 125.461 328.448C125.706 327.045 127.742 325.628 129.711 324.257C130.013 324.047 130.317 323.836 130.616 323.623C130.903 324.321 131.131 325.014 131.268 325.704C132.329 331.029 131.809 336.046 131.391 340.078C130.85 345.301 130.428 349.47 134.057 350.804C133.845 356.063 133.736 361.369 133.729 366.734H122.693ZM127.592 289.671C126.079 288.709 124.786 287.7 124.46 286.575C124.032 285.099 125.15 282.834 126.23 280.645C126.433 280.235 126.633 279.823 126.829 279.411C127.693 281.208 128.315 282.963 128.39 284.691C128.462 286.33 128.127 287.998 127.592 289.671V289.671ZM130.2 322.689C129.85 322.94 129.495 323.19 129.14 323.437C126.904 324.993 124.793 326.463 124.476 328.276C124.055 330.682 126.027 332.876 127.767 334.812C129.114 336.311 130.386 337.727 130.184 338.811C129.387 343.088 127.045 344.027 122.4 345.825C121.153 318.852 115.721 304.108 103.007 269.637L101.748 266.224C101.652 265.964 101.363 265.829 101.106 265.928C100.846 266.023 100.714 266.311 100.809 266.57L102.068 269.984C114.672 304.152 120.096 318.877 121.379 345.438C120.836 345.169 120.26 345.063 119.674 345.063C119.012 345.063 118.342 345.18 117.707 345.291C116.268 345.543 115.025 345.76 114.207 344.703C113.279 343.506 113.941 340.975 114.582 338.528C115.266 335.911 115.913 333.439 114.924 331.92C113.875 330.308 111.15 329.865 108.514 329.435C106.103 329.042 103.61 328.636 102.945 327.403C102.224 326.069 103.291 323.678 104.322 321.366C105.425 318.897 106.465 316.564 105.737 314.908C104.959 313.138 102.332 312.259 99.7923 311.409C97.4833 310.636 95.0953 309.837 94.6373 308.524C94.1333 307.076 95.5683 304.871 96.9553 302.74C98.4253 300.482 99.8123 298.349 99.3523 296.615C98.8493 294.715 96.3623 293.435 93.9573 292.198C91.8153 291.095 89.6003 289.955 89.3493 288.62C89.0573 287.062 90.8273 285.063 92.5393 283.129C94.2983 281.141 95.9603 279.264 95.7613 277.531C95.5263 275.479 93.1843 273.811 90.9183 272.198C89.0203 270.846 87.0573 269.448 87.0023 268.19C86.9293 266.51 88.5893 264.703 90.0533 263.11C91.7273 261.288 93.3083 259.567 92.2403 258.064C87.0763 250.798 90.3803 246.371 91.5723 245.142C95.9333 243.535 98.2113 247.047 100.22 250.151C101.25 251.743 102.14 253.117 103.234 253.703C104.954 254.624 106.66 254.63 108.165 254.635C109.803 254.641 111.218 254.645 112.497 255.69C113.867 256.81 113.72 259.63 113.578 262.357C113.44 265.023 113.309 267.54 114.457 268.981C115.693 270.531 118.397 271.006 121.011 271.465C121.558 271.561 122.106 271.661 122.642 271.767L123.915 272.053C125.357 272.426 126.539 272.944 126.985 273.832C127.403 274.667 127.201 275.808 126.744 277.065L126.255 278.271C125.97 278.908 125.652 279.557 125.334 280.203C124.115 282.672 122.964 285.004 123.499 286.853C123.932 288.347 125.496 289.538 127.261 290.643L128.131 291.176C128.329 291.294 128.527 291.413 128.724 291.531C130.973 292.867 133.298 294.248 133.511 295.863C133.731 297.521 131.842 299.507 130.014 301.427C128.092 303.448 126.276 305.356 126.296 307.295C126.317 309.358 128.34 311.367 130.295 313.309C132.103 315.105 133.972 316.962 133.835 318.506C133.722 319.771 132.509 320.951 131.016 322.087L130.2 322.689ZM195.676 188.523C194.127 185.447 192.663 182.541 192.735 179.957C192.851 175.725 194.66 171.956 196.257 168.63C197.566 165.901 198.803 163.323 199.013 160.794C199.995 148.919 195.19 145.867 190.61 143.938C185.361 141.727 176.282 143.388 171.645 149.307C169.407 152.163 168.154 155.961 166.942 159.634C165.678 163.462 164.484 167.077 162.291 169.606C160.167 172.054 156.692 173.597 153.331 175.09C149.449 176.815 145.434 178.598 143.453 181.821C141.378 185.195 141.597 189.677 141.809 194.013C141.993 197.768 142.167 201.314 140.975 204.145C139.724 207.119 136.858 209.644 134.086 212.084C130.914 214.877 127.634 217.766 126.653 221.42C125.645 225.18 127.036 229.379 128.382 233.441C129.584 237.072 130.72 240.501 130.272 243.587C129.793 246.874 127.545 250.076 125.37 253.171C122.993 256.557 120.534 260.057 120.375 263.723C120.273 266.069 121.021 268.375 122.087 270.641C121.788 270.586 121.488 270.534 121.184 270.48C118.753 270.053 116.238 269.612 115.239 268.358C114.327 267.213 114.454 264.771 114.577 262.41C114.732 259.433 114.892 256.356 113.13 254.916C111.576 253.647 109.844 253.641 108.169 253.635C106.713 253.63 105.207 253.625 103.706 252.822C102.839 252.357 101.975 251.021 101.059 249.608C99.0503 246.503 96.2993 242.253 91.1073 244.248C91.0203 244.283 90.9453 244.339 90.8893 244.412L90.8883 244.411C89.9603 245.356 85.6233 250.48 91.4253 258.644C92.0253 259.487 90.7093 260.918 89.3173 262.433C87.7213 264.17 85.9123 266.139 86.0033 268.233C86.0793 269.979 88.1483 271.453 90.3383 273.012C92.4253 274.498 94.5843 276.036 94.7683 277.644C94.9163 278.935 93.3273 280.73 91.7903 282.466C89.9193 284.58 87.9843 286.766 88.3673 288.805C88.7083 290.62 91.0353 291.819 93.4993 293.086C95.7103 294.225 97.9963 295.401 98.3853 296.87C98.7323 298.176 97.4033 300.219 96.1173 302.194C94.5983 304.528 93.0283 306.942 93.6933 308.853C94.3133 310.629 96.8203 311.469 99.4743 312.357C101.808 313.138 104.222 313.946 104.821 315.31C105.371 316.561 104.374 318.796 103.409 320.958C102.28 323.492 101.111 326.111 102.065 327.877C102.964 329.543 105.582 329.97 108.354 330.422C110.775 330.817 113.278 331.224 114.086 332.465C114.833 333.614 114.214 335.983 113.614 338.275C112.913 340.956 112.187 343.73 113.417 345.317C114.605 346.849 116.344 346.543 117.879 346.277C119.218 346.042 120.485 345.833 121.438 346.681C121.611 350.698 121.693 354.984 121.693 359.653V366.734H106.236C105.959 366.734 105.736 366.957 105.736 367.234C105.736 367.51 105.959 367.734 106.236 367.734H151.781C152.057 367.734 152.281 367.51 152.281 367.234C152.281 366.957 152.057 366.734 151.781 366.734H134.729C134.736 361.442 134.844 356.205 135.051 351.016C137.219 350.868 139.096 345.656 141.246 339.67C142.501 336.179 143.798 332.569 145.033 330.491C146.729 327.638 149.461 325.092 152.103 322.629C154.841 320.078 157.671 317.439 159.265 314.497C161.039 311.226 160.758 307.036 160.486 302.986C160.236 299.256 159.999 295.733 161.292 293.076C162.749 290.08 165.98 287.863 169.105 285.719C172.426 283.441 175.562 281.288 176.873 278.218C178.36 274.737 177.657 270.552 176.978 266.506C176.367 262.864 175.79 259.424 176.779 256.699C177.928 253.53 180.902 250.96 183.777 248.476C186.814 245.851 189.683 243.371 190.613 240.203C191.708 236.463 190.459 232.331 189.251 228.336C188.204 224.873 187.216 221.603 187.808 218.861C188.54 215.475 191.131 212.473 193.636 209.57C196.236 206.556 198.692 203.71 199.105 200.519C199.639 196.389 197.624 192.39 195.676 188.523V188.523Z" fill="black"/></g></g></g><g id="Delivery" transform="translate(240 87) scale(1 1)"><g id="Delivery/Vespa"><g id="Delivery"><g id="BG"><mask id="mask093b51960-6084-4046-9602-92004fe864f6" mask-type="alpha" maskUnits="userSpaceOnUse" x="350" y="128" width="212" height="340" fill="#ffffff"><path id="Clip 2" fill-rule="evenodd" clip-rule="evenodd" d="M350 128H561.418V467.675H350V128Z" fill="#ffffff"/></mask><g mask="url(#mask093b51960-6084-4046-9602-92004fe864f6)"><path id="Fill 1" fill-rule="evenodd" clip-rule="evenodd" d="M390.147 379.56H350.5C350.223 379.56 350 379.784 350 380.06C350 380.336 350.223 380.56 350.5 380.56H389.647V467.175C389.647 467.452 389.871 467.675 390.147 467.675C390.423 467.675 390.647 467.452 390.647 467.175V380.06C390.647 379.784 390.423 379.56 390.147 379.56V379.56ZM462.04 334.858V306.798C462.04 306.522 461.816 306.298 461.54 306.298C461.263 306.298 461.04 306.522 461.04 306.798V334.358H419.147V278.74C419.147 278.463 418.923 278.24 418.647 278.24C418.371 278.24 418.147 278.463 418.147 278.74V334.858C418.147 335.134 418.371 335.358 418.647 335.358H461.54C461.816 335.358 462.04 335.134 462.04 334.858V334.858ZM350.627 335.358H383.396C383.672 335.358 383.896 335.134 383.896 334.858V306.798C383.896 306.522 383.672 306.298 383.396 306.298C383.12 306.298 382.896 306.522 382.896 306.798V334.358H350.627C350.351 334.358 350.127 334.581 350.127 334.858C350.127 335.134 350.351 335.358 350.627 335.358V335.358ZM413.219 161.301H431.417V129H413.219V161.301ZM561.271 364.997L500.433 304.159V233.137H509.464C509.741 233.137 509.964 232.914 509.964 232.637V219.459C509.964 219.183 509.741 218.959 509.464 218.959H499.656L442.143 161.448C442.049 161.354 441.922 161.301 441.79 161.301H432.417V128.5C432.417 128.224 432.193 128 431.917 128H412.718C412.442 128 412.218 128.224 412.218 128.5V161.301H351.556C351.28 161.301 351.056 161.525 351.056 161.801C351.056 162.078 351.28 162.301 351.556 162.301H441.583L499.095 219.813C499.189 219.907 499.316 219.959 499.449 219.959H508.964V232.137H350.909C350.632 232.137 350.409 232.361 350.409 232.637C350.409 232.914 350.632 233.137 350.909 233.137H499.433V304.159L440.933 362.659C440.839 362.752 440.787 362.879 440.787 363.012V414.519C440.787 414.795 441.01 415.019 441.287 415.019C441.563 415.019 441.787 414.795 441.787 414.519V363.219L499.933 305.073L560.564 365.704C560.662 365.801 560.79 365.85 560.918 365.85C561.045 365.85 561.173 365.801 561.271 365.704C561.466 365.508 561.466 365.192 561.271 364.997V364.997Z" fill="black"/></g></g><g id="Phone"><path id="Stroke 1" fill-rule="evenodd" clip-rule="evenodd" d="M137.337 68.9998H330.841C341.541 68.9998 350.214 77.673 350.214 88.3742L349.108 481.033C349.108 491.732 340.434 500.405 329.735 500.405H136.23C125.53 500.405 116.857 491.732 116.857 481.031L117.964 88.3728C117.964 77.6726 126.637 68.9998 137.337 68.9998ZM330.841 69.9998H137.337C127.189 69.9998 118.964 78.2249 118.964 88.3742L117.857 481.033C117.857 491.18 126.082 499.405 136.23 499.405H329.735C339.882 499.405 348.108 491.179 348.108 481.031L349.214 88.3728C349.214 78.2252 340.988 69.9998 330.841 69.9998Z" fill="black"/><path id="Fill 3" fill-rule="evenodd" clip-rule="evenodd" d="M331.589 499.905H135.663C125.908 499.905 118 491.998 118 482.243V453.795H349.251V482.243C349.251 491.998 341.344 499.905 331.589 499.905" fill="black"/><path id="Stroke 5" fill-rule="evenodd" clip-rule="evenodd" d="M117.5 453.295H349.751V482.243C349.751 492.274 341.62 500.405 331.589 500.405H135.663C125.631 500.405 117.5 492.274 117.5 482.243V453.295ZM348.75 454.294H118.499L118.5 482.243C118.5 491.613 126.008 499.228 135.337 499.402L135.663 499.405H331.589C341.068 499.405 348.751 491.722 348.751 482.243L348.75 454.294Z" fill="black"/><path id="Fill 7" fill-rule="evenodd" clip-rule="evenodd" d="M246.987 475.54C246.987 482.92 241.005 488.902 233.626 488.902C226.246 488.902 220.264 482.92 220.264 475.54C220.264 468.161 226.246 462.179 233.626 462.179C241.005 462.179 246.987 468.161 246.987 475.54" fill="black"/><path id="Stroke 9" fill-rule="evenodd" clip-rule="evenodd" d="M219.764 475.54C219.764 467.884 225.97 461.679 233.626 461.679C241.281 461.679 247.487 467.884 247.487 475.54C247.487 483.196 241.281 489.402 233.626 489.402C225.97 489.402 219.764 483.196 219.764 475.54ZM246.487 475.54C246.487 468.437 240.729 462.679 233.626 462.679C226.522 462.679 220.764 468.437 220.764 475.54C220.764 482.643 226.522 488.402 233.626 488.402C240.729 488.402 246.487 482.643 246.487 475.54Z" fill="white"/></g><g id="Vespa"><g id="Interface"><path id="Interface_2" fill-rule="evenodd" clip-rule="evenodd" d="M144.173 170.745H324.174C327.031 170.745 329.347 168.43 329.347 165.572V154.173C329.347 151.316 327.031 149 324.174 149H144.173C141.316 149 139 151.316 139 154.173V165.572C139 168.43 141.316 170.745 144.173 170.745ZM147.593 314.915H320.754C325.5 314.915 329.347 311.068 329.347 306.322V188.325C329.347 183.58 325.5 179.732 320.754 179.732H147.593C142.847 179.732 139 183.58 139 188.325V306.322C139 311.068 142.847 314.915 147.593 314.915Z" fill="#EEF2F8"/></g><g id="Vespa_2"><mask id="mask193b51960-6084-4046-9602-92004fe864f6" mask-type="alpha" maskUnits="userSpaceOnUse" x="146" y="269" width="348" height="234" fill="#ffffff"><path id="Clip 8" fill-rule="evenodd" clip-rule="evenodd" d="M146.492 269.307V453.92H346.388L347.494 502.113H493.429V269.307" fill="#ffffff"/></mask><g mask="url(#mask193b51960-6084-4046-9602-92004fe864f6)"><path id="Vespa_3" fill-rule="evenodd" clip-rule="evenodd" d="M460.907 408.575L450.807 308.333C448.861 291.269 434.421 278.382 417.247 278.382L428.57 388.048C430.071 401.034 424.501 413.829 413.973 421.578C401.153 431.014 301.326 426.026 301.326 426.026C292.465 424.506 285.521 417.572 283.987 408.714L275.717 360.938C274.147 351.873 275.031 342.682 277.026 333.702C279.559 322.301 270.885 311.485 259.204 311.485H245.613C240.528 311.485 235.674 313.605 232.218 317.337L214.083 336.918C195.776 356.684 185.606 382.633 185.606 409.574C185.606 431.338 203.412 449.143 225.176 449.143H423.654C440.395 449.143 455.686 438.294 459.927 422.098C461.088 417.666 461.423 413.078 460.907 408.575" fill="#FF5613"/><path id="Fill 10" fill-rule="evenodd" clip-rule="evenodd" d="M245.613 311.924C240.667 311.924 235.901 314.005 232.54 317.635L214.405 337.216C196.117 356.962 186.046 382.659 186.046 409.573C186.046 431.15 203.599 448.703 225.176 448.703H423.654C440.642 448.703 455.383 437.717 459.502 421.987C460.655 417.581 460.981 413.086 460.47 408.624C460.47 408.622 460.469 408.62 460.469 408.618L450.37 308.376C448.467 291.691 434.481 279.065 417.734 278.824L429.008 388.002C430.522 401.106 424.861 414.109 414.234 421.931C401.435 431.353 305.387 426.669 301.304 426.465C292.228 424.91 285.116 417.809 283.554 408.788L275.284 361.013C273.877 352.884 274.306 343.919 276.597 333.606C277.775 328.302 276.502 322.83 273.102 318.592C269.703 314.355 264.636 311.924 259.204 311.924H245.613ZM423.654 449.582H225.176C203.115 449.582 185.167 431.634 185.167 409.573C185.167 382.437 195.321 356.528 213.76 336.618L231.895 317.037C235.423 313.23 240.423 311.045 245.613 311.045H259.204C264.905 311.045 270.22 313.595 273.788 318.042C277.355 322.488 278.692 328.232 277.455 333.797C275.189 343.995 274.762 352.849 276.149 360.862L284.42 408.638C285.919 417.293 292.743 424.107 301.4 425.592C302.344 425.636 401.164 430.459 413.713 421.224C424.087 413.587 429.612 400.894 428.134 388.098L416.809 278.426C416.797 278.302 416.837 278.179 416.921 278.087C417.004 277.994 417.123 277.942 417.247 277.942C434.655 277.942 449.271 290.986 451.244 308.282L461.344 408.53C461.867 413.097 461.533 417.699 460.351 422.209C456.132 438.326 441.042 449.582 423.654 449.582V449.582Z" fill="black"/><path id="Seat" fill-rule="evenodd" clip-rule="evenodd" d="M290.716 327.275H230.054C224.049 327.275 219.182 322.408 219.182 316.404V310.777C219.182 304.148 225.064 299.062 231.623 300.02L292.286 305.646C297.627 306.426 301.587 311.006 301.587 316.404C301.587 322.408 296.72 327.275 290.716 327.275" fill="#4B69FD"/><path id="Fill 16" fill-rule="evenodd" clip-rule="evenodd" d="M230.056 300.347C227.557 300.347 225.137 301.237 223.231 302.885C220.937 304.868 219.621 307.744 219.621 310.777V316.404C219.621 322.156 224.301 326.835 230.054 326.835H290.716C296.468 326.835 301.148 322.156 301.148 316.404C301.148 311.262 297.311 306.825 292.223 306.08L231.582 300.457C231.074 300.383 230.563 300.347 230.056 300.347M290.716 327.714H230.054C223.817 327.714 218.743 322.64 218.743 316.404V310.777C218.743 307.49 220.168 304.37 222.656 302.22C225.143 300.071 228.438 299.111 231.687 299.585L292.327 305.208C297.867 306.017 302.027 310.828 302.027 316.404C302.027 322.64 296.952 327.714 290.716 327.714" fill="black"/><path id="Fill 19" fill-rule="evenodd" clip-rule="evenodd" d="M281.756 465.872C281.756 485.536 265.815 501.477 246.15 501.477C226.486 501.477 210.543 485.536 210.543 465.872C210.543 446.207 226.486 430.266 246.15 430.266C265.815 430.266 281.756 446.207 281.756 465.872" fill="black"/><path id="Fill 22" fill-rule="evenodd" clip-rule="evenodd" d="M246.15 430.706C226.759 430.706 210.983 446.482 210.983 465.873C210.983 485.264 226.759 501.039 246.15 501.039C265.541 501.039 281.317 485.264 281.317 465.873C281.317 446.482 265.541 430.706 246.15 430.706M246.15 501.918C226.274 501.918 210.104 485.748 210.104 465.873C210.104 445.997 226.274 429.827 246.15 429.827C266.026 429.827 282.196 445.997 282.196 465.873C282.196 485.748 266.026 501.918 246.15 501.918" fill="black"/><path id="Fill 25" fill-rule="evenodd" clip-rule="evenodd" d="M449.629 475.311C449.629 489.763 437.913 501.478 423.462 501.478C409.01 501.478 397.294 489.763 397.294 475.311C397.294 460.859 409.01 449.143 423.462 449.143C437.913 449.143 449.629 460.859 449.629 475.311" fill="black"/><path id="Fill 28" fill-rule="evenodd" clip-rule="evenodd" d="M423.462 449.582C409.275 449.582 397.733 461.124 397.733 475.311C397.733 489.497 409.275 501.038 423.462 501.038C437.649 501.038 449.19 489.497 449.19 475.311C449.19 461.124 437.649 449.582 423.462 449.582M423.462 501.917C408.79 501.917 396.855 489.981 396.855 475.311C396.855 460.639 408.79 448.703 423.462 448.703C438.133 448.703 450.068 460.639 450.068 475.311C450.068 489.981 438.133 501.917 423.462 501.917" fill="black"/><path id="Wheel" fill-rule="evenodd" clip-rule="evenodd" d="M291.556 458.683C291.556 433.731 271.328 413.504 246.377 413.504C221.425 413.504 201.198 433.731 201.198 458.683H291.556Z" fill="#FF5613"/><path id="Fill 34" fill-rule="evenodd" clip-rule="evenodd" d="M201.639 458.244H291.115C290.878 433.775 270.901 413.944 246.377 413.944C221.854 413.944 201.875 433.775 201.639 458.244M291.556 459.123H201.198C200.954 459.123 200.758 458.927 200.758 458.683C200.758 433.529 221.223 413.065 246.377 413.065C271.532 413.065 291.995 433.529 291.995 458.683C291.995 458.927 291.799 459.123 291.556 459.123" fill="black"/><path id="Lights" fill-rule="evenodd" clip-rule="evenodd" d="M466.626 308.499C466.626 318.868 459.016 327.274 449.629 327.274C440.242 327.274 432.633 318.868 432.633 308.499C432.633 298.13 440.242 289.724 449.629 289.724C459.016 289.724 466.626 298.13 466.626 308.499" fill="#FF5613"/><path id="Fill 40" fill-rule="evenodd" clip-rule="evenodd" d="M449.629 290.164C440.5 290.164 433.072 298.39 433.072 308.5C433.072 318.61 440.5 326.836 449.629 326.836C458.759 326.836 466.187 318.61 466.187 308.5C466.187 298.39 458.759 290.164 449.629 290.164M449.629 327.715C440.015 327.715 432.193 319.095 432.193 308.5C432.193 297.905 440.015 289.285 449.629 289.285C459.243 289.285 467.066 297.905 467.066 308.5C467.066 319.095 459.243 327.715 449.629 327.715" fill="black"/><path id="Fill 43" fill-rule="evenodd" clip-rule="evenodd" d="M466.626 308.499C466.626 318.868 462.821 327.274 458.127 327.274C453.434 327.274 449.629 318.868 449.629 308.499C449.629 298.13 453.434 289.724 458.127 289.724C462.821 289.724 466.626 298.13 466.626 308.499" fill="black"/><path id="Fill 46" fill-rule="evenodd" clip-rule="evenodd" d="M458.127 290.164C453.684 290.164 450.068 298.39 450.068 308.5C450.068 318.61 453.684 326.836 458.127 326.836C462.571 326.836 466.187 318.61 466.187 308.5C466.187 298.39 462.571 290.164 458.127 290.164M458.127 327.715C453.115 327.715 449.189 319.274 449.189 308.5C449.189 297.726 453.115 289.285 458.127 289.285C463.14 289.285 467.065 297.726 467.065 308.5C467.065 319.274 463.14 327.715 458.127 327.715" fill="black"/><path id="Fill 49" fill-rule="evenodd" clip-rule="evenodd" d="M419.706 289.346L371.035 286.205V280.97L419.765 278.346C422.919 278.177 425.569 280.689 425.569 283.848C425.569 287.03 422.882 289.55 419.706 289.346" fill="#FF4200"/><path id="Fill 52" fill-rule="evenodd" clip-rule="evenodd" d="M419.734 288.908C421.152 288.99 422.495 288.514 423.528 287.547C424.56 286.578 425.13 285.264 425.13 283.848C425.13 282.442 424.568 281.136 423.547 280.169C422.527 279.202 421.187 278.71 419.788 278.785L371.474 281.387V285.794L419.734 288.908ZM420.072 289.798C419.941 289.798 419.809 289.794 419.677 289.785L371.006 286.644C370.775 286.63 370.595 286.437 370.595 286.206V280.971C370.595 280.737 370.778 280.544 371.011 280.532L419.741 277.908C421.393 277.817 422.956 278.397 424.152 279.531C425.349 280.666 426.008 282.199 426.008 283.848C426.008 285.51 425.341 287.051 424.129 288.187C423.013 289.234 421.586 289.798 420.072 289.798V289.798Z" fill="black"/><path id="Fill 55" fill-rule="evenodd" clip-rule="evenodd" d="M426.787 289.724H421.614C418.386 289.724 415.768 287.107 415.768 283.879C415.768 280.651 418.386 278.034 421.614 278.034H426.787C430.016 278.034 432.633 280.651 432.633 283.879C432.633 287.107 430.016 289.724 426.787 289.724" fill="black"/><path id="Fill 58" fill-rule="evenodd" clip-rule="evenodd" d="M421.614 278.473C418.633 278.473 416.208 280.898 416.208 283.879C416.208 286.86 418.633 289.285 421.614 289.285H426.787C429.768 289.285 432.193 286.86 432.193 283.879C432.193 280.898 429.768 278.473 426.787 278.473H421.614ZM426.787 290.163H421.614C418.148 290.163 415.329 287.344 415.329 283.879C415.329 280.413 418.148 277.594 421.614 277.594H426.787C430.253 277.594 433.072 280.413 433.072 283.879C433.072 287.344 430.253 290.163 426.787 290.163V290.163Z" fill="black"/><path id="Fill 61" fill-rule="evenodd" clip-rule="evenodd" d="M380.089 289.724H368.14C364.912 289.724 362.295 287.107 362.295 283.879C362.295 280.651 364.912 278.034 368.14 278.034H380.089C383.317 278.034 385.934 280.651 385.934 283.879C385.934 287.107 383.317 289.724 380.089 289.724" fill="black"/><path id="Fill 64" fill-rule="evenodd" clip-rule="evenodd" d="M368.14 278.473C365.16 278.473 362.735 280.898 362.735 283.879C362.735 286.86 365.16 289.285 368.14 289.285H380.089C383.07 289.285 385.494 286.86 385.494 283.879C385.494 280.898 383.07 278.473 380.089 278.473H368.14ZM380.089 290.163H368.14C364.675 290.163 361.856 287.344 361.856 283.879C361.856 280.413 364.675 277.594 368.14 277.594H380.089C383.554 277.594 386.373 280.413 386.373 283.879C386.373 287.344 383.554 290.163 380.089 290.163V290.163Z" fill="black"/></g></g></g></g></g></g><path id="Floor line" fill-rule="evenodd" clip-rule="evenodd" d="M858.719 588H111.281C110.571 588 110 587.776 110 587.5C110 587.224 110.571 587 111.281 587H858.719C859.426 587 860 587.224 860 587.5C860 587.776 859.426 588 858.719 588" fill="black"/><g id="Master/Character/Standing" transform="matrix(-1 0 0 1 557.153 125.198) scale(1 1)"><g id="Master/Character/Standing"><g id="Lower Body Standing" transform="translate(32 185) scale(1 1)"><g id="Lower Body Standing/Small Step"><g id="Small Step"><path id="Shoe" fill-rule="evenodd" clip-rule="evenodd" d="M169.826 278.325H95.4995L95.6875 277.803C98.0845 271.131 103.874 266.255 110.857 265.028L117.951 263.781C121.589 263.142 124.973 261.492 127.719 259.022L127.873 258.883H169.826V278.325Z" fill="#FCBD21"/><path id="Combined Shape" fill-rule="evenodd" clip-rule="evenodd" d="M97.5998 273.915H97.5981C97.4666 274.122 97.3403 274.333 97.217 274.545C97.178 274.612 97.1393 274.68 97.1011 274.747C97.1394 274.68 97.1781 274.613 97.217 274.545C97.3408 274.333 97.4684 274.123 97.5998 273.915ZM97.5998 273.915H116.64C116.574 269.266 115.832 266.225 115.029 264.294L110.857 265.027C105.319 266.001 100.538 269.275 97.5998 273.915ZM164.466 270.96C165.767 270.96 166.822 269.905 166.822 268.604C166.822 267.303 165.767 266.249 164.466 266.249C163.165 266.249 162.111 267.303 162.111 268.604C162.111 269.905 163.165 270.96 164.466 270.96Z" fill="#FBEFE3"/><path id="Fill 13" fill-rule="evenodd" clip-rule="evenodd" d="M169.826 273.915H97.5975C96.8315 275.125 96.1835 276.422 95.6875 277.802L95.4995 278.325H169.826V273.915Z" fill="#EFF2F7"/><path id="Combined Shape_2" fill-rule="evenodd" clip-rule="evenodd" d="M96.2238 277.791C96.2197 277.802 96.2156 277.814 96.2114 277.825H169.325L169.325 274.415H116.657C116.651 274.415 116.646 274.415 116.64 274.415H97.8769C97.8059 274.53 97.7369 274.647 97.6679 274.764C97.6494 274.797 97.6306 274.829 97.6118 274.861C97.5861 274.906 97.5604 274.95 97.5349 274.995C97.5267 275.01 97.5178 275.023 97.5084 275.037C97.0025 275.931 96.5726 276.854 96.2238 277.791ZM99.8067 271.79C99.3556 272.306 98.9304 272.848 98.5332 273.415H116.13C116.043 269.956 115.568 267.081 114.716 264.858L110.943 265.521C106.567 266.289 102.657 268.545 99.8067 271.79ZM115.718 264.681C116.569 266.991 117.044 269.923 117.13 273.415H169.325V259.383L128.053 259.393C126.921 260.412 125.684 261.294 124.368 262.027C125.291 262.426 126.604 263.26 127.92 264.999C128.087 265.219 128.043 265.533 127.823 265.7C127.733 265.768 127.627 265.801 127.522 265.801C127.371 265.801 127.221 265.733 127.123 265.603C125.287 263.176 123.498 262.741 123.105 262.673C122.184 263.104 121.23 263.466 120.251 263.755C121.142 264.202 122.302 265.032 123.464 266.568C123.631 266.788 123.587 267.102 123.367 267.269C123.277 267.337 123.171 267.37 123.066 267.37C122.915 267.37 122.765 267.302 122.667 267.172C120.598 264.438 118.59 264.232 118.57 264.231C118.522 264.227 118.477 264.216 118.434 264.2C118.302 264.226 118.169 264.25 118.036 264.274L115.718 264.681ZM170.325 278.325C170.325 278.601 170.101 278.825 169.825 278.825H95.5004H95.4994C95.3374 278.825 95.1844 278.746 95.0904 278.613C95.0305 278.526 94.9997 278.425 95 278.323C95.0002 278.267 95.0099 278.21 95.0294 278.156L95.2164 277.634C95.2239 277.613 95.2315 277.592 95.2391 277.571C97.6314 270.984 103.294 266.091 110.127 264.659C110.341 264.614 110.555 264.573 110.77 264.535L113.248 264.099L114.943 263.801C114.946 263.801 114.949 263.8 114.952 263.8L117.863 263.288C121.412 262.665 124.704 261.061 127.383 258.65L127.537 258.512C127.629 258.429 127.748 258.383 127.872 258.383H169.825C170.101 258.383 170.325 258.607 170.325 258.883V278.325ZM164.466 266.748C163.443 266.748 162.61 267.581 162.61 268.603C162.61 269.627 163.443 270.459 164.466 270.459C165.489 270.459 166.322 269.627 166.322 268.603C166.322 267.581 165.489 266.748 164.466 266.748ZM164.466 271.459C162.891 271.459 161.61 270.178 161.61 268.603C161.61 267.029 162.891 265.748 164.466 265.748C166.041 265.748 167.322 267.029 167.322 268.603C167.322 270.178 166.041 271.459 164.466 271.459Z" fill="black"/><path id="Fill 21" fill-rule="evenodd" clip-rule="evenodd" d="M96.6007 276.182C96.5257 276.182 96.4497 276.165 96.3777 276.129C96.1307 276.006 96.0307 275.706 96.1537 275.459V275.458L96.1547 275.457C96.2027 275.361 96.2507 275.266 96.3007 275.172C96.3837 275.013 96.4687 274.854 96.5557 274.697C96.6897 274.457 96.9937 274.37 97.2347 274.503C97.4757 274.637 97.5637 274.94 97.4307 275.182C97.4307 275.182 97.4297 275.182 97.4297 275.183V275.183C97.3477 275.331 97.2677 275.48 97.1897 275.63C97.1417 275.722 97.0947 275.813 97.0477 275.906C96.9607 276.081 96.7837 276.182 96.6007 276.182" fill="black"/><path id="Fill 23" fill-rule="evenodd" clip-rule="evenodd" d="M96.125 277.2C96.059 277.2 95.992 277.187 95.927 277.159C95.738 277.077 95.625 276.893 95.625 276.7C95.625 276.634 95.638 276.566 95.666 276.502C95.667 276.5 95.668 276.497 95.669 276.494C95.748 276.312 95.833 276.133 95.917 275.953C95.919 275.95 95.921 275.947 95.922 275.943L95.937 275.912L95.939 275.913C96.069 275.69 96.356 275.581 96.592 275.692C96.842 275.809 96.96 276.084 96.844 276.334L96.778 276.474C96.712 276.615 96.646 276.755 96.584 276.898C96.503 277.087 96.319 277.2 96.125 277.2" fill="black"/><path id="Shoe_2" fill-rule="evenodd" clip-rule="evenodd" d="M218.573 238.658L231.481 254.206L191.381 278.325H159.018L159.375 276.872C160.971 270.371 166.828 265.821 173.522 265.881L177.039 265.912C178.012 265.921 178.969 265.66 179.803 265.159L181.289 264.268C182.775 263.377 183.729 261.814 183.843 260.085L184.248 253.929L218.573 238.658Z" fill="#FCBD21"/><path id="Skin" fill-rule="evenodd" clip-rule="evenodd" d="M221.882 242.644L183.842 260.085L184.247 253.928L218.572 238.658L221.882 242.644ZM169.826 258.884H127.873V253.929H169.826V258.884Z" fill="#8b4500"/><path id="Combined Shape_3" fill-rule="evenodd" clip-rule="evenodd" d="M184.595 253.226L181.914 241.91L215.176 229.899L217.957 238.384L184.595 253.226ZM184.026 254.376C184.096 254.41 184.172 254.428 184.248 254.428C184.317 254.428 184.386 254.414 184.451 254.385L218.776 239.115C219.011 239.01 219.128 238.745 219.048 238.502L215.966 229.098C215.924 228.97 215.831 228.864 215.71 228.805C215.588 228.745 215.448 228.737 215.321 228.784L181.155 241.121C180.916 241.207 180.779 241.459 180.838 241.706L183.761 254.043C183.795 254.188 183.893 254.31 184.026 254.376ZM169.325 258.383H128.372V254.428H169.325V258.383ZM127.872 259.383H169.826C170.102 259.383 170.326 259.159 170.326 258.883V253.929C170.326 253.652 170.102 253.429 169.826 253.429H127.872C127.596 253.429 127.372 253.652 127.372 253.929V258.883C127.372 259.159 127.596 259.383 127.872 259.383Z" fill="black"/><path id="Combined Shape_4" fill-rule="evenodd" clip-rule="evenodd" d="M221.546 252.027C222.847 252.027 223.902 250.972 223.902 249.671C223.902 248.37 222.847 247.316 221.546 247.316C220.245 247.316 219.191 248.37 219.191 249.671C219.191 250.972 220.245 252.027 221.546 252.027ZM160.467 273.915L160.468 273.913C159.426 275.697 159.019 278.325 159.019 278.325H191.382L231.481 254.206L228.422 250.522L192.496 272.173C190.751 273.309 188.714 273.913 186.632 273.913H179.706C181.236 268.179 178.207 265.783 178.207 265.783L178.204 265.781C177.823 265.864 177.433 265.915 177.039 265.912L173.522 265.881C167.901 265.83 162.881 269.038 160.467 273.915Z" fill="#EFF2F7"/><path id="Combined Shape_5" fill-rule="evenodd" clip-rule="evenodd" d="M219.702 249.458C219.694 249.528 219.69 249.599 219.69 249.671C219.69 250.651 220.453 251.455 221.415 251.522L219.702 249.458ZM218.929 248.527C218.775 248.878 218.69 249.264 218.69 249.671C218.69 251.246 219.971 252.527 221.546 252.527C221.767 252.527 221.982 252.501 222.189 252.454L222.876 253.281L192.223 271.754C190.555 272.839 188.621 273.413 186.631 273.413H181.449L181.547 273.354C183.172 272.378 184.217 270.667 184.341 268.775L184.478 266.693C184.763 266.985 185.054 267.321 185.347 267.708C185.445 267.838 185.595 267.906 185.746 267.906C185.851 267.906 185.957 267.873 186.047 267.805C186.267 267.638 186.311 267.324 186.144 267.104C185.608 266.395 185.073 265.837 184.564 265.397L184.706 263.233C185.79 263.506 187.379 263.796 189.431 263.879H189.451C189.718 263.879 189.939 263.668 189.95 263.399C189.961 263.123 189.747 262.89 189.471 262.879C187.981 262.819 186.744 262.643 185.785 262.449L218.43 247.926L218.929 248.527ZM219.514 247.666L218.958 246.996C218.815 246.823 218.575 246.769 218.37 246.858L184.21 262.054C183.704 261.899 183.435 261.783 183.42 261.777L183.42 261.777C183.167 261.668 182.872 261.779 182.76 262.031C182.648 262.283 182.761 262.578 183.013 262.691C183.042 262.704 183.282 262.809 183.723 262.952L183.609 264.679C182.332 263.855 181.387 263.774 181.325 263.77C181.052 263.757 180.815 263.955 180.793 264.229C180.771 264.503 180.976 264.743 181.25 264.767C181.264 264.767 182.241 264.867 183.532 265.85L183.344 268.71C183.241 270.274 182.376 271.69 181.032 272.496L180.456 272.842C181.364 267.714 178.641 265.488 178.516 265.39C178.398 265.296 178.244 265.261 178.097 265.292C177.713 265.376 177.368 265.418 177.042 265.412L173.526 265.381C167.846 265.336 162.554 268.587 160.027 273.677C158.967 275.504 158.55 278.085 158.524 278.244L158.524 278.248C158.502 278.393 158.544 278.539 158.639 278.65C158.734 278.761 158.873 278.825 159.019 278.825H162.414C160.747 280.636 159.511 282.878 158.89 285.41L158.533 286.863C158.496 287.012 158.53 287.169 158.625 287.291C158.72 287.411 158.865 287.482 159.018 287.482H191.381C191.472 287.482 191.561 287.457 191.639 287.411L231.739 263.292C231.863 263.217 231.949 263.091 231.974 262.947C231.998 262.803 231.959 262.656 231.866 262.544L227.444 257.218L231.739 254.635C231.864 254.56 231.95 254.434 231.974 254.29C231.998 254.146 231.959 253.999 231.866 253.887L228.807 250.202C228.649 250.011 228.375 249.965 228.164 250.094L223.742 252.759L223.143 252.037C223.902 251.523 224.402 250.654 224.402 249.671C224.402 248.097 223.121 246.816 221.546 246.816C220.752 246.816 220.032 247.141 219.514 247.666ZM220.158 248.441L222.5 251.262C223.04 250.938 223.402 250.346 223.402 249.671C223.402 248.649 222.569 247.816 221.546 247.816C220.994 247.816 220.498 248.058 220.158 248.441ZM161.3 273.413H179.316C180.356 269.045 178.612 266.88 178.053 266.32C177.694 266.385 177.359 266.413 177.034 266.412L173.517 266.381C168.474 266.369 163.782 269.072 161.3 273.413ZM159.656 286.482H191.242L230.724 262.735L226.577 257.74L191.639 278.754C191.561 278.8 191.472 278.825 191.381 278.825H163.822C161.925 280.616 160.522 282.955 159.861 285.649L159.656 286.482ZM191.242 277.825L225.931 256.961L223.521 254.059L192.754 272.601C190.938 273.783 188.816 274.413 186.631 274.413H179.76C178.919 274.848 177.984 275.057 177.034 275.069L173.517 275.038C170.347 275.011 167.387 276.036 165.008 277.825H191.242ZM228.312 251.172L224.388 253.537L226.798 256.44L230.725 254.078L228.312 251.172ZM170.005 274.413C167.532 274.98 165.277 276.167 163.428 277.825H159.622C159.788 277.032 160.151 275.572 160.763 274.413H170.005Z" fill="black"/><path id="Fill 35" fill-rule="evenodd" clip-rule="evenodd" d="M184.727 254.262L184.397 259.281L221.081 242.461L218.43 239.268L184.727 254.262ZM183.843 260.585C183.743 260.585 183.644 260.555 183.559 260.496C183.414 260.397 183.332 260.228 183.344 260.052L183.749 253.895C183.761 253.71 183.875 253.547 184.045 253.471L218.37 238.2C218.575 238.111 218.815 238.166 218.958 238.338L222.267 242.324C222.367 242.444 222.405 242.603 222.37 242.755C222.336 242.907 222.232 243.033 222.091 243.098L184.051 260.539C183.985 260.57 183.914 260.585 183.843 260.585V260.585Z" fill="black"/><path id="Pants" fill-rule="evenodd" clip-rule="evenodd" d="M221.902 77.4998H143.477L123.066 253.635H176.014L177.734 258.029L225.854 235.343L193.053 182.25L221.963 137.623C230.585 124.094 232.892 107.483 228.285 92.1168L221.902 77.4998Z" fill="#FF5613"/><path id="Combined Shape_6" fill-rule="evenodd" clip-rule="evenodd" d="M123.627 253.135H175.327L151.165 189.954C148.065 181.847 148.753 172.874 153.053 165.335L181.762 115.002C181.898 114.761 182.204 114.677 182.444 114.815C182.683 114.952 182.767 115.257 182.63 115.497L153.922 165.83C149.771 173.108 149.106 181.771 152.099 189.596L178.008 257.347L225.135 235.13L195.354 186.925C195.349 186.918 195.345 186.911 195.34 186.904L188.084 175.292C187.938 175.058 188.009 174.749 188.244 174.603C188.478 174.456 188.786 174.528 188.933 174.762L193.045 181.342L221.544 137.351C230.092 123.937 232.376 107.501 227.806 92.2595L221.53 77.9995H143.923L123.627 253.135ZM196.161 186.329L193.645 182.256L222.385 137.892C231.092 124.229 233.417 107.492 228.764 91.9725L222.381 77.3565C222.318 77.1445 222.123 76.9995 221.902 76.9995H143.477C143.223 76.9995 143.01 77.1905 142.981 77.4425L122.569 253.577C122.553 253.719 122.597 253.861 122.692 253.968C122.787 254.074 122.923 254.135 123.066 254.135H175.673L177.253 258.172L177.267 258.208C177.299 258.292 177.352 258.363 177.417 258.416C177.45 258.443 177.486 258.466 177.526 258.484C177.533 258.487 177.541 258.49 177.549 258.494C177.609 258.518 177.672 258.53 177.734 258.53C177.807 258.53 177.88 258.513 177.947 258.482L226.068 235.795C226.196 235.735 226.293 235.622 226.334 235.485C226.374 235.349 226.355 235.201 226.28 235.08L196.199 186.39C196.196 186.385 196.193 186.379 196.189 186.374L196.161 186.329Z" fill="black"/></g></g></g><g id="Head" transform="translate(193 148) scale(1 1)"><g id="Head/Wink"><path id="Path 2" fill-rule="evenodd" clip-rule="evenodd" d="M12.5 43.7362C12.5 43.7362 16.0343 41.1591 15.4058 30.5162C15.4058 30.5162 20.9953 33.4357 27.0934 28.4993L28.5 43.6133C28.5 43.6133 24.2721 48.9731 19.8389 48.4533C15.4058 47.9335 12.5 43.7362 12.5 43.7362Z" fill="#8b4500"/><path id="Path 2 Copy" fill-rule="evenodd" clip-rule="evenodd" d="M15.6185 29.1575C19.1685 31.0897 22.873 30.4235 26.799 27.1117C27.1106 26.8489 27.5511 27.076 27.5907 27.5201L28.9973 43.2699C29.0117 43.4301 28.9677 43.5899 28.876 43.711C25.9592 47.5642 22.9235 49.332 19.7865 48.9487C16.6923 48.5707 14.1229 46.8497 12.1037 43.8105C11.9264 43.5435 11.9825 43.1583 12.2257 42.9735C14.3851 41.3327 15.3152 36.9233 14.9069 29.7193C14.882 29.2794 15.274 28.9699 15.6185 29.1575ZM27.8541 43.348L26.5503 29L26.2853 29.199C22.7217 31.8029 19.2465 32.4147 15.9004 31.0061L15.7525 30.9417L15.7761 31.5369C15.9754 37.6673 15.094 41.732 13.0614 43.7146L13 43.7713L13.1374 43.9575C14.8463 46.2141 16.9214 47.5258 19.3801 47.9095L19.7177 47.956C22.5083 48.2909 25.2631 46.7152 28 43.1638L27.8541 43.348Z" fill="black"/><g id="Wink"><path id="Skin" fill-rule="evenodd" clip-rule="evenodd" d="M19.7101 31.4031C12.9651 31.4031 7.49609 25.6031 7.49609 18.4491C7.49609 11.2951 12.9651 5.49512 19.7101 5.49512C26.4561 5.49512 31.9251 11.2951 31.9251 18.4491C31.9251 25.6031 26.4561 31.4031 19.7101 31.4031Z" fill="#8b4500"/><path id="Fill 25" fill-rule="evenodd" clip-rule="evenodd" d="M19.71 5.991C13.248 5.991 7.991 11.579 7.991 18.449C7.991 25.319 13.248 30.907 19.71 30.907C26.172 30.907 31.429 25.319 31.429 18.449C31.429 11.579 26.172 5.991 19.71 5.991M19.71 31.898C12.702 31.898 7 25.865 7 18.449C7 11.033 12.702 5 19.71 5C26.718 5 32.42 11.033 32.42 18.449C32.42 25.865 26.718 31.898 19.71 31.898" fill="black"/><path id="Fill 31" fill-rule="evenodd" clip-rule="evenodd" d="M16.2881 22.6058C16.2681 22.6058 16.2481 22.6048 16.2271 22.6028L14.1851 22.3548C14.0421 22.3368 13.9131 22.2588 13.8321 22.1388C13.7511 22.0198 13.7251 21.8708 13.7621 21.7308L14.3811 19.3788C14.4521 19.1118 14.7261 18.9558 14.9921 19.0228C15.2581 19.0938 15.4181 19.3668 15.3481 19.6338L14.8751 21.4308L16.3481 21.6088C16.6221 21.6428 16.8171 21.8918 16.7841 22.1658C16.7531 22.4198 16.5381 22.6058 16.2881 22.6058" fill="black"/><path id="Fill 33" fill-rule="evenodd" clip-rule="evenodd" d="M13.0498 18.1662C13.0498 18.7692 12.7428 19.2572 12.3638 19.2572C11.9848 19.2572 11.6768 18.7692 11.6768 18.1662C11.6768 17.5632 11.9848 17.0752 12.3638 17.0752C12.7428 17.0752 13.0498 17.5632 13.0498 18.1662" fill="black"/><path id="Fill 35" fill-rule="evenodd" clip-rule="evenodd" d="M20.7349 15.7362C20.6189 15.7362 20.5039 15.6962 20.4089 15.6152C19.4569 14.7972 18.3349 14.8082 18.3469 14.8002C18.0359 14.7842 17.8439 14.5852 17.8389 14.3102C17.8349 14.0352 18.0509 13.8072 18.3259 13.8002C18.3929 13.7992 19.8069 13.7802 21.0609 14.8572C21.2699 15.0372 21.2939 15.3522 21.1139 15.5622C21.0149 15.6772 20.8759 15.7362 20.7349 15.7362" fill="black"/><path id="Fill 37" fill-rule="evenodd" clip-rule="evenodd" d="M10.6526 15.736C10.5116 15.736 10.3726 15.677 10.2736 15.562C10.0936 15.352 10.1176 15.036 10.3266 14.857C11.5806 13.78 13.0016 13.803 13.0616 13.8C13.3386 13.807 13.5566 14.036 13.5496 14.312C13.5436 14.584 13.3206 14.8 13.0496 14.8H13.0386C12.9866 14.8 11.9146 14.812 10.9786 15.615C10.8836 15.696 10.7686 15.736 10.6526 15.736" fill="black"/><path id="Fill 39" fill-rule="evenodd" clip-rule="evenodd" d="M17.1265 27.1391C15.9455 27.1391 15.0465 26.5821 15.0005 26.5531C14.7665 26.4061 14.6965 26.0971 14.8435 25.8641C14.9895 25.6301 15.2965 25.5591 15.5315 25.7061C15.5485 25.7171 16.6245 26.3681 17.7945 26.0521C18.6115 25.8321 19.3095 25.1911 19.8675 24.1461C19.9975 23.9031 20.2995 23.8111 20.5435 23.9411C20.7875 24.0711 20.8795 24.3741 20.7495 24.6181C20.0525 25.9211 19.1415 26.7301 18.0415 27.0211C17.7255 27.1051 17.4175 27.1391 17.1265 27.1391" fill="black"/><path id="Fill 251" fill-rule="evenodd" clip-rule="evenodd" d="M20.7349 18.5647H17.5869C17.3109 18.5647 17.0869 18.3407 17.0869 18.0647C17.0869 17.7887 17.3109 17.5647 17.5869 17.5647H20.7349C21.0109 17.5647 21.2349 17.7887 21.2349 18.0647C21.2349 18.3407 21.0109 18.5647 20.7349 18.5647" fill="black"/><path id="Fill 253" fill-rule="evenodd" clip-rule="evenodd" d="M20.9051 19.4574C20.8011 19.4574 20.6961 19.4254 20.6061 19.3584L19.4101 18.4654C19.2881 18.3744 19.2141 18.2304 19.2101 18.0774C19.2061 17.9244 19.2731 17.7774 19.3911 17.6794L20.5871 16.6904C20.8011 16.5144 21.1151 16.5444 21.2911 16.7564C21.4671 16.9694 21.4371 17.2854 21.2241 17.4604L20.5181 18.0444L21.2051 18.5564C21.4261 18.7224 21.4711 19.0354 21.3061 19.2564C21.2081 19.3884 21.0571 19.4574 20.9051 19.4574" fill="black"/></g></g></g><g id="Accesories" transform="translate(193 148) scale(39 49)"><g id="Accesories/No Accesory" stroke="none" stroke-width="1" fill="none" fill-rule="evenodd" fill-opacity="0"/></g><g id="Hair" transform="translate(143 115) scale(1 1)"><g id="Hair/Curly Medium"><g id="Curly Medium"><path id="Hair" fill-rule="evenodd" clip-rule="evenodd" d="M66.1589 64.2894L66.4679 72.6794H27.2879C27.2879 72.6794 25.2339 66.9924 27.7709 64.2894C30.3079 61.5864 35.3819 56.7244 33.0869 51.6324C30.7909 46.5414 30.6709 36.7914 40.4559 35.1004C50.2409 33.4084 43.1139 28.6974 52.8989 24.4694C62.6839 20.2414 70.2949 31.1134 70.2949 31.1134C74.2819 21.8114 85.5019 22.8744 90.1309 25.7264C97.1139 30.0264 91.4349 39.5694 103.516 37.5164C115.597 35.4624 121.999 42.7104 122.724 47.7674C123.449 52.8234 118.617 56.8454 122.966 62.4014C127.315 67.9584 122.966 73.1424 122.966 73.1424H77.2709C77.2709 73.1424 73.5959 63.3284 76.4149 60.1064C77.8249 58.4964 77.6459 56.9454 77.1149 55.7974C76.5039 54.4764 76.1459 53.0434 76.3009 51.5964C76.5049 49.6944 76.1265 47.0521 72.6299 45.7704C69.0617 44.4624 67.9 40.3406 67.9 40.3406C66.318 41.3296 64.9534 43.9784 62.2349 44.4624C59.5164 44.9464 58.4409 47.1004 58.4409 47.1004L58.0669 48.2344C57.7409 49.4014 57.5659 50.6364 57.5659 51.9154C57.5659 57.5894 61.0069 62.4114 65.7959 64.1644L66.1589 64.2894Z" fill="#040226"/><path id="Hair Copy" fill-rule="evenodd" clip-rule="evenodd" d="M49.8335 25.9554C50.6981 25.317 51.7719 24.7191 53.0932 24.1534C58.1375 21.9936 62.9905 23.3992 67.3481 27.0254C68.3585 27.8662 69.2616 28.7661 70.0464 29.6665C70.1839 29.8244 70.313 29.9767 70.4333 30.1226L70.51 30.2171L70.6357 29.9738C72.5618 26.3382 75.8099 24.219 79.8293 23.5717L80.186 23.5184C83.9004 23.0059 88.0104 23.8259 90.6326 25.4268C92.638 26.6504 93.7573 28.2723 94.5877 30.6564C94.655 30.8498 94.6979 30.9734 94.7482 31.1294L95.1659 32.4994C96.4766 36.8573 97.9292 37.9546 103.62 36.9963L103.994 36.9362C114.434 35.3355 122.35 40.7665 123.329 47.5347C123.548 49.0473 123.383 50.2128 122.758 52.4044L122.354 53.7818C121.345 57.324 121.473 59.2139 123.467 61.739L123.673 62.0074C126.007 65.1416 125.966 68.3859 124.485 71.3437C124.263 71.7858 124.026 72.1824 123.788 72.5285C123.643 72.7395 123.527 72.8892 123.457 72.9725L123.307 73.1494H77.2184L77.0962 72.8261C77.0608 72.7324 77.0108 72.5948 76.9489 72.4177L76.6548 71.5392C76.4738 70.9759 76.2947 70.3752 76.1252 69.7493C75.7552 68.3826 75.4711 67.043 75.3068 65.7822C74.9354 62.9316 75.1985 60.7419 76.3367 59.4528L76.4857 59.2767C77.435 58.1029 77.5089 56.9284 76.9555 55.7427L76.8117 55.4222C76.2146 54.0343 75.9569 52.6624 76.1007 51.3314L76.1224 51.0997C76.303 48.8015 75.3916 47.0573 72.7709 46.1054L72.4758 45.9904C71.2138 45.4646 70.1671 44.5838 69.3169 43.4501C68.8208 42.7886 68.4226 42.0823 68.112 41.3758L67.987 41.0791L67.9148 41.1416C67.7601 41.2775 67.6 41.4294 67.4045 41.6246L66.8405 42.1995L66.2785 42.7632C65.0465 43.955 64.0211 44.5995 62.6753 44.8369L62.392 44.8947C61.5563 45.0886 60.8486 45.4664 60.2572 45.9774C59.9466 46.2457 59.6891 46.5331 59.4827 46.8191L59.2841 47.1059L58.9184 48.2029C58.6011 49.3285 58.4382 50.5023 58.4382 51.7C58.4382 56.9867 61.6392 61.6262 66.2966 63.3156L66.9835 63.55L67.3233 72.6925H27.4321L27.2713 72.2463L27.1113 71.7338C27.0406 71.4914 26.9709 71.2298 26.9048 70.9524C26.6141 69.7332 26.4582 68.502 26.5097 67.3417C26.5783 65.7987 27.0115 64.5065 27.9001 63.5684L29.4826 61.8994C29.7225 61.6392 29.9439 61.3931 30.1594 61.1464C33.2587 57.5976 34.4463 54.5821 33.1026 51.6279C29.829 44.4352 32.1504 36.0955 40.8126 34.6122L41.4287 34.5004C44.8761 33.8371 45.8127 32.9456 46.6216 30.6325L46.7229 30.3463C47.4926 28.2041 48.106 27.231 49.8335 25.9554ZM69.2925 30.3235C68.541 29.4612 67.6751 28.5985 66.7085 27.7941C62.6107 24.3841 58.1275 23.0857 53.4868 25.0727C52.2331 25.6094 51.2264 26.17 50.4275 26.7599C48.9625 27.8416 48.4199 28.6413 47.7586 30.4251L47.4899 31.1736C46.5231 33.805 45.1879 34.877 40.9815 35.5978C33.0905 36.9491 30.9767 44.5429 34.0128 51.2137L34.119 51.4577C35.5029 54.7908 34.1648 58.0803 30.9126 61.8042C30.6911 62.0577 30.4643 62.3099 30.2191 62.5758L29.7005 63.1303L28.6261 64.256C27.9252 64.996 27.5675 66.063 27.5088 67.386C27.4619 68.4411 27.6066 69.5844 27.8775 70.7204C27.9603 71.0679 28.049 71.3884 28.1375 71.6739L28.143 71.6921H66.285L66.009 64.2731L65.9646 64.2589C60.9972 62.4571 57.572 57.5964 57.442 52.0284L57.4382 51.7C57.4382 50.4104 57.6138 49.1453 57.9628 47.9093L58.3632 46.723C58.5604 46.3317 58.9628 45.7741 59.6035 45.2207C60.3916 44.5398 61.3552 44.0544 62.5016 43.8521L62.7353 43.8048C63.8112 43.5583 64.6871 42.9471 65.8198 41.8113L66.7013 40.9135C66.9094 40.7059 67.083 40.5413 67.255 40.3902C67.5026 40.1728 67.7351 39.9955 67.9674 39.8516L68.5305 39.5028L68.7117 40.1398C68.7568 40.2986 68.8596 40.5916 69.0275 40.9734C69.309 41.6138 69.6702 42.2544 70.1169 42.8501C70.9235 43.9256 71.9161 44.731 73.1123 45.1655C76.3004 46.3235 77.4016 48.6054 77.0949 51.4389C76.9614 52.6742 77.235 53.9772 77.8616 55.3198L77.9496 55.5187C78.5885 57.046 78.3971 58.6316 77.0862 60.1148L76.9736 60.2518C76.1754 61.2946 75.976 63.1782 76.2984 65.653C76.4563 66.8647 76.7314 68.1616 77.0905 69.488C77.297 70.2507 77.5183 70.9754 77.7394 71.6379L77.914 72.1491H122.829L122.964 71.9616C123.177 71.652 123.391 71.2949 123.591 70.896C124.955 68.1719 124.955 65.2355 122.683 62.3588L122.491 62.1106C120.377 59.3147 120.331 57.0871 121.493 53.161L121.697 52.4738C122.365 50.1882 122.543 49.0844 122.339 47.6779C121.431 41.4009 113.872 36.2832 103.786 37.9824L103.462 38.0354C97.4893 38.9801 95.6289 37.5107 94.2082 32.7874L94.0922 32.4016C93.9196 31.8283 93.8451 31.5841 93.7774 31.378L93.5274 30.6633C92.7817 28.6589 91.8038 27.3129 90.1117 26.2803C87.6889 24.8012 83.8116 24.0277 80.3227 24.509C76.1096 25.0903 72.8152 27.3453 71.0749 31.3686L70.7214 32.1859L70.2076 31.4586C70.1853 31.427 70.1487 31.3769 70.0981 31.3099L69.8262 30.961C69.6675 30.763 69.4894 30.5494 69.2925 30.3235Z" fill="black"/></g></g></g><g id="Upper Body" transform="translate(58 77) scale(1 1)"><g id="Upper Body/Front Box Open"><g id="Front Box Open"><path id="Tshirt" fill-rule="evenodd" clip-rule="evenodd" d="M190.566 147.704L191.964 151.146L218.345 137.8C207.398 121.835 187.244 112.584 167.886 112.584H163.188C161.93 115.233 158.816 117.113 155.162 117.126C151.508 117.113 148.395 115.233 147.137 112.584H142.439C123.081 112.584 102.927 121.835 91.9805 137.8L118.36 151.146L119.759 147.704L117.86 161.895L113.766 185.875H196.559L192.464 161.895L190.566 147.704Z" fill="#409B81"/><path id="Fill 3" fill-rule="evenodd" clip-rule="evenodd" d="M114.359 185.375H195.966L191.972 161.979L190.071 147.771C190.037 147.521 190.195 147.285 190.438 147.221C190.681 147.152 190.935 147.282 191.029 147.516L192.224 150.455L217.607 137.613C207.114 122.693 187.67 113.084 167.887 113.084H163.496C162.034 115.841 158.803 117.613 155.164 117.626C151.522 117.613 148.291 115.841 146.829 113.084H142.439C122.656 113.084 103.212 122.693 92.7193 137.613L118.102 150.455L119.296 147.516C119.39 147.281 119.646 147.152 119.887 147.221C120.131 147.285 120.288 147.521 120.255 147.771L118.356 161.962L114.359 185.375ZM196.559 186.375H113.766C113.619 186.375 113.479 186.31 113.384 186.197C113.289 186.085 113.249 185.937 113.274 185.791L117.368 161.812L118.753 151.457C118.697 151.527 118.622 151.582 118.536 151.614C118.405 151.664 118.26 151.656 118.135 151.593L91.7543 138.246C91.6263 138.181 91.5323 138.063 91.4963 137.924C91.4603 137.784 91.4863 137.636 91.5683 137.517C102.162 122.067 122.13 112.084 142.439 112.084H147.137C147.33 112.084 147.506 112.195 147.589 112.369C148.811 114.943 151.784 116.614 155.164 116.626C158.541 116.614 161.515 114.943 162.737 112.369C162.819 112.195 162.995 112.084 163.188 112.084H167.887C188.196 112.084 208.164 122.067 218.757 137.517C218.839 137.636 218.865 137.784 218.829 137.924C218.794 138.063 218.699 138.181 218.571 138.246L192.191 151.593C192.066 151.654 191.92 151.664 191.789 151.614C191.703 151.582 191.629 151.527 191.573 151.457L192.96 161.829L197.052 185.791C197.077 185.937 197.036 186.085 196.941 186.197C196.846 186.31 196.706 186.375 196.559 186.375V186.375Z" fill="black"/><path id="Box" fill-rule="evenodd" clip-rule="evenodd" d="M196.866 98.5H192.668L184.592 129.567H124.231L116.155 98.5H111.957L120.033 129.567V179.983H188.972V129.567H188.79L196.866 98.5Z" fill="#FCBD21"/><path id="Fill 7" fill-rule="evenodd" clip-rule="evenodd" d="M136.785 179.643H172.221V172.414H136.785V179.643Z" fill="#EFF2F7"/><path id="Fill 9" fill-rule="evenodd" clip-rule="evenodd" d="M135.578 136.797H171.014V129.568H135.578V136.797Z" fill="#EFF2F7"/><path id="Fill 10" fill-rule="evenodd" clip-rule="evenodd" d="M188.403 129.067H185.238L193.055 99.0005H196.219L188.403 129.067ZM188.472 179.483H172.72V172.413C172.72 172.136 172.497 171.913 172.22 171.913H136.785C136.508 171.913 136.285 172.136 136.285 172.413V179.483H120.533V130.067H135.076V136.796C135.076 137.072 135.3 137.296 135.576 137.296H171.012C171.289 137.296 171.512 137.072 171.512 136.796V130.067H188.472V179.483ZM137.285 179.142H171.721V172.913H137.285V179.142ZM115.768 99.0005L123.585 129.067H120.42L112.603 99.0005H115.768ZM136.076 136.296H170.512V130.067H136.076V136.296ZM197.261 98.1945C197.167 98.0715 197.021 98.0005 196.866 98.0005H192.668C192.44 98.0005 192.242 98.1545 192.184 98.3745L184.205 129.067H124.617L116.638 98.3745C116.581 98.1545 116.382 98.0005 116.154 98.0005H111.957C111.802 98.0005 111.656 98.0715 111.561 98.1945C111.466 98.3165 111.434 98.4755 111.473 98.6265L119.533 129.631V179.983C119.533 180.259 119.757 180.483 120.033 180.483H188.972C189.249 180.483 189.472 180.259 189.472 179.983V129.567C189.472 129.463 189.433 129.372 189.379 129.292L197.35 98.6265C197.389 98.4755 197.356 98.3165 197.261 98.1945V98.1945Z" fill="black"/><path id="Skin" fill-rule="evenodd" clip-rule="evenodd" d="M217.048 138.561L206.667 143.85L206.022 142.269C205.942 142.072 205.847 141.897 205.759 141.711C205.781 141.101 205.811 140.498 205.811 139.868C205.811 129.947 197.934 123.392 193.811 120.994C191.671 119.749 188.946 121.064 188.534 123.505L188.492 123.75C188.251 125.179 188.921 126.576 190.129 127.375C192.682 129.067 194.609 132.478 194.609 132.478L180.995 132.823C179.289 132.866 177.929 134.26 177.929 135.967C177.929 137.626 179.218 138.999 180.874 139.106L192.161 139.762L178.186 140.705C176.494 140.828 175.184 142.237 175.184 143.933C175.184 145.584 176.427 146.971 178.069 147.151L191.686 148.525L180.948 149.41C179.238 149.566 177.929 151 177.929 152.717C177.929 154.625 179.532 156.141 181.437 156.033L192.056 155.492C192.392 158.554 185.928 158.354 183.239 158.973C182.044 159.248 181.201 160.314 181.201 161.541C181.201 162.723 181.98 163.775 183.122 164.081C184.619 164.482 187.165 164.888 191.337 164.888C191.696 164.888 192.054 164.847 192.411 164.805C199.308 176.928 215.86 201.915 229.491 190.167C247.197 174.908 217.048 138.561 217.048 138.561M132.344 140.705L118.369 139.762L129.656 139.106C131.312 138.999 132.601 137.626 132.601 135.967C132.601 134.26 131.241 132.866 129.535 132.823L115.921 132.478C115.921 132.478 117.848 129.067 120.402 127.375C121.61 126.576 122.279 125.179 122.038 123.75L121.996 123.505C121.584 121.064 118.859 119.749 116.719 120.994C112.596 123.392 104.719 129.947 104.719 139.868C104.719 140.498 104.749 141.101 104.771 141.711C104.683 141.897 104.588 142.072 104.508 142.269L103.863 143.85L93.4822 138.561C93.4822 138.561 63.3332 174.908 81.0392 190.167C94.6712 201.915 111.222 176.928 118.119 164.805C118.476 164.847 118.834 164.888 119.194 164.888C123.365 164.888 125.911 164.482 127.408 164.081C128.55 163.775 129.329 162.723 129.329 161.541C129.329 160.314 128.486 159.248 127.291 158.973C124.602 158.354 118.138 158.554 118.474 155.492L129.093 156.033C130.998 156.141 132.601 154.625 132.601 152.717C132.601 151 131.292 149.566 129.582 149.41L118.844 148.525L132.461 147.151C134.103 146.971 135.346 145.584 135.346 143.933C135.346 142.237 134.036 140.828 132.344 140.705" fill="#8b4500"/><path id="Fill 12" fill-rule="evenodd" clip-rule="evenodd" d="M229.166 189.788C226.361 192.206 223.247 193.14 219.907 192.561C209.395 190.745 198.803 174.911 193.204 165.181C199.368 163.962 205.136 156.712 206.14 143.878L206.202 144.029C211.785 159.765 218.233 166.599 218.505 166.883C218.603 166.984 218.734 167.036 218.866 167.036C218.99 167.036 219.115 166.99 219.212 166.897C219.411 166.706 219.418 166.39 219.227 166.19C219.162 166.123 212.763 159.314 207.292 144.093L216.916 139.189C219.77 142.751 245.445 175.758 229.166 189.788M192.412 164.305C192.393 164.305 192.373 164.306 192.354 164.309C192.016 164.348 191.678 164.388 191.338 164.388C187.093 164.388 184.598 163.958 183.252 163.597C182.34 163.352 181.703 162.507 181.703 161.541C181.703 160.539 182.381 159.684 183.353 159.46C183.965 159.319 184.813 159.219 185.711 159.112C188.898 158.734 192.865 158.265 192.554 155.436C192.525 155.173 192.293 154.963 192.032 154.992L181.41 155.533C180.629 155.573 179.883 155.306 179.314 154.767C178.744 154.229 178.43 153.501 178.43 152.717C178.43 151.249 179.533 150.041 180.99 149.907L191.729 149.022C191.986 149.002 192.185 148.787 192.187 148.529C192.19 148.27 191.995 148.053 191.738 148.027L178.125 146.653C176.734 146.501 175.685 145.331 175.685 143.933C175.685 142.506 176.8 141.307 178.221 141.203L192.196 140.261C192.46 140.243 192.664 140.023 192.663 139.76C192.661 139.495 192.455 139.278 192.191 139.263L180.907 138.606C179.518 138.517 178.43 137.357 178.43 135.967C178.43 134.52 179.562 133.358 181.009 133.322L194.623 132.977C194.799 132.973 194.959 132.877 195.045 132.724C195.132 132.571 195.132 132.385 195.046 132.231C194.965 132.088 193.03 128.696 190.406 126.958C189.342 126.254 188.785 125.027 188.986 123.833L189.028 123.588C189.197 122.591 189.846 121.738 190.763 121.308C191.676 120.881 192.696 120.923 193.56 121.425C193.561 121.426 193.561 121.427 193.562 121.427C193.569 121.432 193.58 121.437 193.587 121.442C193.851 121.596 194.117 121.763 194.384 121.934C195.084 122.385 196.043 123.056 197.107 123.944C197.161 123.989 197.215 124.034 197.269 124.08C197.459 124.241 197.652 124.41 197.848 124.586C201.496 127.889 204.7 132.61 205.232 138.229C205.236 138.272 205.24 138.316 205.243 138.359C205.286 138.847 205.31 139.34 205.311 139.84C205.311 139.85 205.312 139.858 205.312 139.867C205.312 139.88 205.311 139.892 205.311 139.905C205.31 140.386 205.293 140.85 205.275 141.314L205.261 141.693C205.26 141.706 205.268 141.718 205.269 141.731C204.808 152.539 200.356 163.381 192.45 164.314C192.437 164.313 192.425 164.305 192.412 164.305M230.36 158.424C225.071 147.501 217.51 138.333 217.434 138.241C217.285 138.062 217.031 138.008 216.822 138.115L206.926 143.157L206.487 142.08C206.428 141.935 206.362 141.802 206.295 141.667L206.265 141.604L206.274 141.352C206.293 140.864 206.312 140.374 206.312 139.867C206.312 128.271 196.109 121.75 194.063 120.56C192.911 119.89 191.554 119.833 190.339 120.402C189.124 120.972 188.266 122.1 188.042 123.422L188.001 123.667C187.733 125.25 188.461 126.869 189.854 127.792C191.576 128.933 193.026 130.931 193.726 132L180.983 132.322C178.991 132.373 177.43 133.974 177.43 135.967C177.43 137.884 178.929 139.481 180.846 139.604L184.183 139.799L178.15 140.205C176.207 140.347 174.685 141.984 174.685 143.933C174.685 145.843 176.117 147.439 178.021 147.647L186.209 148.475L180.904 148.911C178.924 149.092 177.43 150.728 177.43 152.717C177.43 153.779 177.855 154.766 178.627 155.495C179.398 156.224 180.409 156.604 181.464 156.531L191.527 156.018C191.139 157.462 188.089 157.823 185.594 158.119C184.668 158.228 183.793 158.332 183.128 158.485C181.7 158.814 180.703 160.071 180.703 161.541C180.703 162.959 181.645 164.202 182.994 164.563C185.035 165.11 187.842 165.388 191.338 165.388C191.606 165.388 191.874 165.366 192.141 165.339C197.775 175.189 208.701 191.64 219.736 193.547C220.438 193.668 221.131 193.728 221.813 193.728C224.677 193.728 227.362 192.663 229.818 190.546C237.249 184.142 237.436 173.034 230.36 158.424M132.412 146.653L118.795 148.027C118.538 148.053 118.343 148.27 118.345 148.529C118.348 148.787 118.547 149.002 118.804 149.022L129.538 149.907C131 150.041 132.103 151.249 132.103 152.717C132.103 153.501 131.789 154.229 131.219 154.767C130.649 155.306 129.905 155.575 129.12 155.533L118.501 154.992C118.241 154.967 118.008 155.173 117.979 155.436C117.668 158.265 121.634 158.734 124.821 159.112C125.72 159.219 126.568 159.319 127.18 159.46C128.151 159.684 128.83 160.539 128.83 161.541C128.83 162.507 128.193 163.352 127.28 163.597C125.935 163.958 123.44 164.388 119.195 164.388H119.191C118.852 164.387 118.515 164.348 118.179 164.309C118.157 164.306 118.138 164.319 118.117 164.319C110.189 163.411 105.727 152.558 105.264 141.735C105.265 141.721 105.273 141.708 105.272 141.693L105.258 141.311C105.239 140.836 105.221 140.36 105.221 139.867C105.221 131.537 110.786 125.934 114.365 123.192C115.532 122.298 116.489 121.707 116.972 121.427C116.973 121.427 116.973 121.426 116.974 121.425C117.838 120.922 118.857 120.88 119.77 121.308C120.687 121.738 121.336 122.591 121.505 123.588L121.546 123.833C121.748 125.027 121.19 126.254 120.127 126.958C117.503 128.696 115.568 132.088 115.487 132.231C115.4 132.385 115.401 132.571 115.487 132.724C115.574 132.877 115.734 132.973 115.91 132.977L129.524 133.322C130.97 133.358 132.103 134.52 132.103 135.967C132.103 137.357 131.015 138.517 129.629 138.606L118.341 139.263C118.078 139.278 117.871 139.495 117.87 139.76C117.869 140.023 118.073 140.243 118.336 140.261L132.31 141.203C133.732 141.307 134.848 142.506 134.848 143.933C134.848 145.331 133.799 146.501 132.412 146.653M90.6258 192.561C87.2878 193.14 84.1718 192.206 81.3668 189.788C65.0878 175.758 90.7638 142.751 93.6168 139.189L103.241 144.093C97.7698 159.314 91.3708 166.123 91.3058 166.19C91.1148 166.39 91.1218 166.706 91.3208 166.897C91.4178 166.99 91.5418 167.036 91.6668 167.036C91.7978 167.036 91.9298 166.984 92.0268 166.883C92.2988 166.599 98.7488 159.765 104.331 144.029L104.392 143.879C105.396 156.713 111.165 163.962 117.329 165.181C111.73 174.911 101.138 190.745 90.6258 192.561M132.379 140.205L126.35 139.799L129.689 139.604C131.604 139.481 133.103 137.884 133.103 135.967C133.103 133.974 131.542 132.373 129.549 132.322L116.807 132C117.507 130.931 118.956 128.933 120.679 127.792C122.072 126.869 122.8 125.25 122.532 123.667L122.49 123.422C122.268 122.1 121.409 120.972 120.194 120.402C118.979 119.834 117.622 119.891 116.469 120.56C116.027 120.817 115.204 121.324 114.187 122.076C110.492 124.805 104.221 130.775 104.221 139.867C104.221 140.373 104.239 140.861 104.259 141.35L104.268 141.604L104.237 141.667C104.171 141.802 104.105 141.935 104.046 142.08L103.606 143.157L93.7098 138.115C93.5018 138.009 93.2478 138.062 93.0988 138.241C93.0218 138.333 85.4608 147.501 80.1718 158.424C73.0968 173.034 73.2838 184.142 80.7138 190.546C83.1708 192.663 85.8548 193.729 88.7188 193.728C89.4008 193.728 90.0948 193.668 90.7958 193.547C101.832 191.64 112.758 175.189 118.392 165.339C118.659 165.366 118.926 165.388 119.195 165.388V165.388C122.69 165.388 125.498 165.11 127.539 164.563C128.888 164.202 129.83 162.959 129.83 161.541C129.83 160.071 128.833 158.814 127.404 158.485C126.739 158.332 125.865 158.228 124.939 158.119C122.443 157.823 119.394 157.462 119.005 156.018L129.066 156.531C130.125 156.596 131.134 156.224 131.905 155.495C132.678 154.766 133.103 153.779 133.103 152.717C133.103 150.728 131.609 149.092 129.625 148.911L124.324 148.474L132.517 147.647C134.416 147.439 135.848 145.843 135.848 143.933C135.848 141.984 134.325 140.347 132.379 140.205" fill="black"/></g></g></g><g id="Facial Hair" transform="translate(193 148) scale(39 49)"><g id="Facial Hair/No Facial Hair" stroke="none" stroke-width="1" fill="none" fill-rule="evenodd" fill-opacity="0"/></g></g></g></g></svg>