<svg viewBox="43 172 688.0000000000001 537.5" xmlns="http://www.w3.org/2000/svg" xmlns:xlink="http://www.w3.org/1999/xlink" overflow="visible" width="688.0000000000001px" height="537.5px"><defs><path d="M10.036,1.749 C21.192,19.839 17.736,68.558 0.322,75.527 L0.322,75.527 C1.079,78.715 1.697,81.494 2.039,83.464 L2.039,83.464 C2.909,88.491 3.267,91.451 3.878,95.37 L3.878,95.37 C26.162,101.217 56.597,104.896 79.011,93.595 L79.011,93.595 C79.043,86.599 78.8,79.775 78.284,73.082 L78.284,73.082 C78.284,73.082 83.93,68.661 82.95,58.867 L82.95,58.867 C81.159,40.951 61.873,29.289 58.171,3.855 L58.171,3.855 C57.65,3.661 57.147,3.461 56.676,3.256 L56.676,3.256 C50.882,10.609 39.104,11.277 39.104,11.277 L39.104,11.277 C20.723,11.941 13.247,0.619 13.157,0.481 L13.157,0.481 C12.228,0.87 11.218,1.28 10.036,1.749" id="masterspot-illustrationsmeditating-path-1"/><path d="M10.036,1.749 C21.192,19.839 17.736,68.558 0.322,75.527 L0.322,75.527 C1.079,78.715 1.697,81.494 2.039,83.464 L2.039,83.464 C2.909,88.491 3.267,91.451 3.878,95.37 L3.878,95.37 C26.162,101.217 56.597,104.896 79.011,93.595 L79.011,93.595 C79.043,86.599 78.8,79.775 78.284,73.082 L78.284,73.082 C78.284,73.082 83.93,68.661 82.95,58.867 L82.95,58.867 C81.159,40.951 61.873,29.289 58.171,3.855 L58.171,3.855 C57.65,3.661 57.147,3.461 56.676,3.256 L56.676,3.256 C50.882,10.609 39.104,11.277 39.104,11.277 L39.104,11.277 C20.723,11.941 13.247,0.619 13.157,0.481 L13.157,0.481 C12.228,0.87 11.218,1.28 10.036,1.749" id="masterspot-illustrationsmeditating-path-3"/><path d="M10.036,1.749 C21.192,19.839 17.736,68.558 0.322,75.527 L0.322,75.527 C1.079,78.715 1.697,81.494 2.039,83.464 L2.039,83.464 C2.909,88.491 3.267,91.451 3.878,95.37 L3.878,95.37 C26.162,101.217 56.597,104.896 79.011,93.595 L79.011,93.595 C79.043,86.599 78.8,79.775 78.284,73.082 L78.284,73.082 C78.284,73.082 83.93,68.661 82.95,58.867 L82.95,58.867 C81.159,40.951 61.873,29.289 58.171,3.855 L58.171,3.855 C57.65,3.661 57.147,3.461 56.676,3.256 L56.676,3.256 C50.882,10.609 39.104,11.277 39.104,11.277 L39.104,11.277 C20.723,11.941 13.247,0.619 13.157,0.481 L13.157,0.481 C12.228,0.87 11.218,1.28 10.036,1.749" id="masterspot-illustrationsmeditating-path-5"/><path d="M10.036,1.749 C21.192,19.839 17.736,68.558 0.322,75.527 L0.322,75.527 C1.079,78.715 1.697,81.494 2.039,83.464 L2.039,83.464 C2.909,88.491 3.267,91.451 3.878,95.37 L3.878,95.37 C26.162,101.217 56.597,104.896 79.011,93.595 L79.011,93.595 C79.043,86.599 78.8,79.775 78.284,73.082 L78.284,73.082 C78.284,73.082 83.93,68.661 82.95,58.867 L82.95,58.867 C81.159,40.951 61.873,29.289 58.171,3.855 L58.171,3.855 C57.65,3.661 57.147,3.461 56.676,3.256 L56.676,3.256 C50.882,10.609 39.104,11.277 39.104,11.277 L39.104,11.277 C20.723,11.941 13.247,0.619 13.157,0.481 L13.157,0.481 C12.228,0.87 11.218,1.28 10.036,1.749" id="masterspot-illustrationsmeditating-path-7"/><path d="M10.036,1.749 C21.192,19.839 17.736,68.558 0.322,75.527 L0.322,75.527 C1.079,78.715 1.697,81.494 2.039,83.464 L2.039,83.464 C2.909,88.491 3.267,91.451 3.878,95.37 L3.878,95.37 C26.162,101.217 56.597,104.896 79.011,93.595 L79.011,93.595 C79.043,86.599 78.8,79.775 78.284,73.082 L78.284,73.082 C78.284,73.082 83.93,68.661 82.95,58.867 L82.95,58.867 C81.159,40.951 61.873,29.289 58.171,3.855 L58.171,3.855 C57.65,3.661 57.147,3.461 56.676,3.256 L56.676,3.256 C50.882,10.609 39.104,11.277 39.104,11.277 L39.104,11.277 C20.723,11.941 13.247,0.619 13.157,0.481 L13.157,0.481 C12.228,0.87 11.218,1.28 10.036,1.749" id="masterspot-illustrationsmeditating-path-9"/><path d="M10.036,1.749 C21.192,19.839 17.736,68.558 0.322,75.527 L0.322,75.527 C1.079,78.715 1.697,81.494 2.039,83.464 L2.039,83.464 C2.909,88.491 3.267,91.451 3.878,95.37 L3.878,95.37 C26.162,101.217 56.597,104.896 79.011,93.595 L79.011,93.595 C79.043,86.599 78.8,79.775 78.284,73.082 L78.284,73.082 C78.284,73.082 83.93,68.661 82.95,58.867 L82.95,58.867 C81.159,40.951 61.873,29.289 58.171,3.855 L58.171,3.855 C57.65,3.661 57.147,3.461 56.676,3.256 L56.676,3.256 C50.882,10.609 39.104,11.277 39.104,11.277 L39.104,11.277 C20.723,11.941 13.247,0.619 13.157,0.481 L13.157,0.481 C12.228,0.87 11.218,1.28 10.036,1.749" id="masterspot-illustrationsmeditating-path-11"/><path d="M10.036,1.749 C21.192,19.839 17.736,68.558 0.322,75.527 L0.322,75.527 C1.079,78.715 1.697,81.494 2.039,83.464 L2.039,83.464 C2.909,88.491 3.267,91.451 3.878,95.37 L3.878,95.37 C26.162,101.217 56.597,104.896 79.011,93.595 L79.011,93.595 C79.043,86.599 78.8,79.775 78.284,73.082 L78.284,73.082 C78.284,73.082 83.93,68.661 82.95,58.867 L82.95,58.867 C81.159,40.951 61.873,29.289 58.171,3.855 L58.171,3.855 C57.65,3.661 57.147,3.461 56.676,3.256 L56.676,3.256 C50.882,10.609 39.104,11.277 39.104,11.277 L39.104,11.277 C20.723,11.941 13.247,0.619 13.157,0.481 L13.157,0.481 C12.228,0.87 11.218,1.28 10.036,1.749 L10.036,1.749 Z" id="masterspot-illustrationsmeditating-path-13"/><path d="M10.036,1.749 C21.192,19.839 17.736,68.558 0.322,75.527 L0.322,75.527 C1.079,78.715 1.697,81.494 2.039,83.464 L2.039,83.464 C2.909,88.491 3.267,91.451 3.878,95.37 L3.878,95.37 C26.162,101.217 56.597,104.896 79.011,93.595 L79.011,93.595 C79.043,86.599 78.8,79.775 78.284,73.082 L78.284,73.082 C78.284,73.082 83.93,68.661 82.95,58.867 L82.95,58.867 C81.159,40.951 61.873,29.289 58.171,3.855 L58.171,3.855 C57.65,3.661 57.147,3.461 56.676,3.256 L56.676,3.256 C50.882,10.609 39.104,11.277 39.104,11.277 L39.104,11.277 C20.723,11.941 13.247,0.619 13.157,0.481 L13.157,0.481 C12.228,0.87 11.218,1.28 10.036,1.749" id="masterspot-illustrationsmeditating-path-15"/><path d="M10.036,1.749 C21.192,19.839 17.736,68.558 0.322,75.527 L0.322,75.527 C1.079,78.715 1.697,81.494 2.039,83.464 L2.039,83.464 C2.909,88.491 3.267,91.451 3.878,95.37 L3.878,95.37 C26.162,101.217 56.597,104.896 79.011,93.595 L79.011,93.595 C79.043,86.599 78.8,79.775 78.284,73.082 L78.284,73.082 C78.284,73.082 83.93,68.661 82.95,58.867 L82.95,58.867 C81.159,40.951 61.873,29.289 58.171,3.855 L58.171,3.855 C57.65,3.661 57.147,3.461 56.676,3.256 L56.676,3.256 C50.882,10.609 39.104,11.277 39.104,11.277 L39.104,11.277 C20.723,11.941 13.247,0.619 13.157,0.481 L13.157,0.481 C12.228,0.87 11.218,1.28 10.036,1.749" id="masterspot-illustrationsmeditating-path-17"/><path d="M10.036,1.749 C21.192,19.839 17.736,68.558 0.322,75.527 L0.322,75.527 C1.079,78.715 1.697,81.494 2.039,83.464 L2.039,83.464 C2.909,88.491 3.267,91.451 3.878,95.37 L3.878,95.37 C26.162,101.217 56.597,104.896 79.011,93.595 L79.011,93.595 C79.043,86.599 78.8,79.775 78.284,73.082 L78.284,73.082 C78.284,73.082 83.93,68.661 82.95,58.867 L82.95,58.867 C81.159,40.951 61.873,29.289 58.171,3.855 L58.171,3.855 C57.65,3.661 57.147,3.461 56.676,3.256 L56.676,3.256 C50.882,10.609 39.104,11.277 39.104,11.277 L39.104,11.277 C20.723,11.941 13.247,0.619 13.157,0.481 L13.157,0.481 C12.228,0.87 11.218,1.28 10.036,1.749" id="masterspot-illustrationsmeditating-path-19"/><path d="M10.036,1.749 C21.192,19.839 17.736,68.558 0.322,75.527 L0.322,75.527 C1.079,78.715 1.697,81.494 2.039,83.464 L2.039,83.464 C2.909,88.491 3.267,91.451 3.878,95.37 L3.878,95.37 C26.162,101.217 56.597,104.896 79.011,93.595 L79.011,93.595 C79.043,86.599 78.8,79.775 78.284,73.082 L78.284,73.082 C78.284,73.082 83.93,68.661 82.95,58.867 L82.95,58.867 C81.159,40.951 61.873,29.289 58.171,3.855 L58.171,3.855 C57.65,3.661 57.147,3.461 56.676,3.256 L56.676,3.256 C50.882,10.609 39.104,11.277 39.104,11.277 L39.104,11.277 C20.723,11.941 13.247,0.619 13.157,0.481 L13.157,0.481 C12.228,0.87 11.218,1.28 10.036,1.749" id="masterspot-illustrationsmeditating-path-21"/><path d="M10.036,1.749 C21.192,19.839 17.736,68.558 0.322,75.527 L0.322,75.527 C1.079,78.715 1.697,81.494 2.039,83.464 L2.039,83.464 C2.909,88.491 3.267,91.451 3.878,95.37 L3.878,95.37 C26.162,101.217 56.597,104.896 79.011,93.595 L79.011,93.595 C79.043,86.599 78.8,79.775 78.284,73.082 L78.284,73.082 C78.284,73.082 83.93,68.661 82.95,58.867 L82.95,58.867 C81.159,40.951 61.873,29.289 58.171,3.855 L58.171,3.855 C57.65,3.661 57.147,3.461 56.676,3.256 L56.676,3.256 C50.882,10.609 39.104,11.277 39.104,11.277 L39.104,11.277 C20.723,11.941 13.247,0.619 13.157,0.481 L13.157,0.481 C12.228,0.87 11.218,1.28 10.036,1.749" id="masterspot-illustrationsmeditating-path-23"/><path d="M10.036,1.749 C21.192,19.839 17.736,68.558 0.322,75.527 L0.322,75.527 C1.079,78.715 1.697,81.494 2.039,83.464 L2.039,83.464 C2.909,88.491 3.267,91.451 3.878,95.37 L3.878,95.37 C26.162,101.217 56.597,104.896 79.011,93.595 L79.011,93.595 C79.043,86.599 78.8,79.775 78.284,73.082 L78.284,73.082 C78.284,73.082 83.93,68.661 82.95,58.867 L82.95,58.867 C81.159,40.951 61.873,29.289 58.171,3.855 L58.171,3.855 C57.65,3.661 57.147,3.461 56.676,3.256 L56.676,3.256 C50.882,10.609 39.104,11.277 39.104,11.277 L39.104,11.277 C20.723,11.941 13.247,0.619 13.157,0.481 L13.157,0.481 C12.228,0.87 11.218,1.28 10.036,1.749" id="masterspot-illustrationsmeditating-path-25"/><path d="M10.036,1.749 C21.192,19.839 17.736,68.558 0.322,75.527 L0.322,75.527 C1.079,78.715 1.697,81.494 2.039,83.464 L2.039,83.464 C2.909,88.491 3.267,91.451 3.878,95.37 L3.878,95.37 C26.162,101.217 56.597,104.896 79.011,93.595 L79.011,93.595 C79.043,86.599 78.8,79.775 78.284,73.082 L78.284,73.082 C78.284,73.082 83.93,68.661 82.95,58.867 L82.95,58.867 C81.159,40.951 61.873,29.289 58.171,3.855 L58.171,3.855 C57.65,3.661 57.147,3.461 56.676,3.256 L56.676,3.256 C50.882,10.609 39.104,11.277 39.104,11.277 L39.104,11.277 C20.723,11.941 13.247,0.619 13.157,0.481 L13.157,0.481 C12.228,0.87 11.218,1.28 10.036,1.749" id="masterspot-illustrationsmeditating-path-27"/><path d="M10.036,1.749 C21.192,19.839 17.736,68.558 0.322,75.527 L0.322,75.527 C1.079,78.715 1.697,81.494 2.039,83.464 L2.039,83.464 C2.909,88.491 3.267,91.451 3.878,95.37 L3.878,95.37 C26.162,101.217 56.597,104.896 79.011,93.595 L79.011,93.595 C79.043,86.599 78.8,79.775 78.284,73.082 L78.284,73.082 C78.284,73.082 83.93,68.661 82.95,58.867 L82.95,58.867 C81.159,40.951 61.873,29.289 58.171,3.855 L58.171,3.855 C57.65,3.661 57.147,3.461 56.676,3.256 L56.676,3.256 C50.882,10.609 39.104,11.277 39.104,11.277 L39.104,11.277 C20.723,11.941 13.247,0.619 13.157,0.481 L13.157,0.481 C12.228,0.87 11.218,1.28 10.036,1.749" id="masterspot-illustrationsmeditating-path-29"/><path d="M10.036,1.749 C21.192,19.839 17.736,68.558 0.322,75.527 L0.322,75.527 C1.079,78.715 1.697,81.494 2.039,83.464 L2.039,83.464 C2.909,88.491 3.267,91.451 3.878,95.37 L3.878,95.37 C26.162,101.217 56.597,104.896 79.011,93.595 L79.011,93.595 C79.043,86.599 78.8,79.775 78.284,73.082 L78.284,73.082 C78.284,73.082 83.93,68.661 82.95,58.867 L82.95,58.867 C81.159,40.951 61.873,29.289 58.171,3.855 L58.171,3.855 C57.65,3.661 57.147,3.461 56.676,3.256 L56.676,3.256 C50.882,10.609 39.104,11.277 39.104,11.277 L39.104,11.277 C20.723,11.941 13.247,0.619 13.157,0.481 L13.157,0.481 C12.228,0.87 11.218,1.28 10.036,1.749" id="masterspot-illustrationsmeditating-path-31"/><path d="M10.036,1.749 C21.192,19.839 17.736,68.558 0.322,75.527 L0.322,75.527 C1.079,78.715 1.697,81.494 2.039,83.464 L2.039,83.464 C2.909,88.491 3.267,91.451 3.878,95.37 L3.878,95.37 C26.162,101.217 56.597,104.896 79.011,93.595 L79.011,93.595 C79.043,86.599 78.8,79.775 78.284,73.082 L78.284,73.082 C78.284,73.082 83.93,68.661 82.95,58.867 L82.95,58.867 C81.159,40.951 61.873,29.289 58.171,3.855 L58.171,3.855 C57.65,3.661 57.147,3.461 56.676,3.256 L56.676,3.256 C50.882,10.609 39.104,11.277 39.104,11.277 L39.104,11.277 C20.723,11.941 13.247,0.619 13.157,0.481 L13.157,0.481 C12.228,0.87 11.218,1.28 10.036,1.749" id="masterspot-illustrationsmeditating-path-33"/><path d="M10.036,1.749 C21.192,19.839 17.736,68.558 0.322,75.527 L0.322,75.527 C1.079,78.715 1.697,81.494 2.039,83.464 L2.039,83.464 C2.909,88.491 3.267,91.451 3.878,95.37 L3.878,95.37 C26.162,101.217 56.597,104.896 79.011,93.595 L79.011,93.595 C79.043,86.599 78.8,79.775 78.284,73.082 L78.284,73.082 C78.284,73.082 83.93,68.661 82.95,58.867 L82.95,58.867 C81.159,40.951 61.873,29.289 58.171,3.855 L58.171,3.855 C57.65,3.661 57.147,3.461 56.676,3.256 L56.676,3.256 C50.882,10.609 39.104,11.277 39.104,11.277 L39.104,11.277 C20.723,11.941 13.247,0.619 13.157,0.481 L13.157,0.481 C12.228,0.87 11.218,1.28 10.036,1.749" id="masterspot-illustrationsmeditating-path-35"/><path d="M10.036,1.749 C21.192,19.839 17.736,68.558 0.322,75.527 L0.322,75.527 C1.079,78.715 1.697,81.494 2.039,83.464 L2.039,83.464 C2.909,88.491 3.267,91.451 3.878,95.37 L3.878,95.37 C26.162,101.217 56.597,104.896 79.011,93.595 L79.011,93.595 C79.043,86.599 78.8,79.775 78.284,73.082 L78.284,73.082 C78.284,73.082 83.93,68.661 82.95,58.867 L82.95,58.867 C81.159,40.951 61.873,29.289 58.171,3.855 L58.171,3.855 C57.65,3.661 57.147,3.461 56.676,3.256 L56.676,3.256 C50.882,10.609 39.104,11.277 39.104,11.277 L39.104,11.277 C20.723,11.941 13.247,0.619 13.157,0.481 L13.157,0.481 C12.228,0.87 11.218,1.28 10.036,1.749" id="masterspot-illustrationsmeditating-path-37"/><path d="M0.322,75.527 C1.079,78.715 1.697,81.494 2.039,83.464 C2.909,88.491 3.267,91.451 3.878,95.37 C26.162,101.217 56.597,104.896 79.011,93.595 C79.043,86.599 78.8,79.775 78.284,73.082 C78.284,73.082 83.93,68.661 82.95,58.867 C81.159,40.951 61.873,28.289 58.171,2.855 C57.65,2.661 57.147,2.461 56.676,2.256 C50.882,9.609 39.104,11.277 39.104,11.277 C20.723,11.941 13.247,0.619 13.157,0.481 C12.228,0.87 11.218,1.28 10.036,1.749 C21.192,19.839 17.736,68.558 0.322,75.527 Z" id="masterspot-illustrationsmeditating-path-39"/></defs><g id="Master/Spot Illustrations/Meditating" stroke="none" stroke-width="1" fill="none" fill-rule="evenodd"><g id="Backgrounds" transform="translate(50.000000, 176.000000)"><path d="M650,236 L9,231 C77.7611263,77 130.888561,0 168.382303,0 C205.876045,0 366.415277,78.6666667 650,236 Z" id="Mountains-Back" fill="#CEECDA"/><path d="M487.496143,220.247883 L142,258 C213.836352,122.282102 270.216324,54.4231527 311.139917,54.4231527 C372.525306,54.4231527 461.866944,118.883774 613.453414,154.916113 C714.51106,178.937671 672.525303,200.714928 487.496143,220.247883 Z" id="Mountains-Front" fill="#CEECDA" transform="translate(404.500000, 156.211576) scale(-1, 1) translate(-404.500000, -156.211576)"/><g id="Pines" transform="translate(0.000000, 22.000000)" fill="#B5E2C7"><g id="Group-18" transform="translate(0.000000, 51.000000)"><path d="M80.0727025,100.61454 L80.0734021,100.548924 C80.0734021,86.5372337 75.3496424,73.9804121 67.882716,65.4450316 C66.0168589,63.3113751 65.1780277,60.1512404 65.4249897,56.9217185 C65.4935514,56.0227017 65.5285318,55.1123717 65.5285318,54.1914828 C65.5285318,45.4336108 62.402679,37.648668 57.5368987,32.6188498 C55.7500974,30.7710384 54.7391625,27.9148498 54.7181742,24.9304458 C54.7076801,23.4574761 54.4887025,21.9136108 53.9891817,20.3071461 C52.5514852,15.6838465 49.2780149,0.902109091 45.4854348,0.463159596 C40.1418215,-0.155291582 35.5621813,15.9681832 34.5939225,22.4739879 C34.5799303,22.5667556 34.5694362,22.709301 34.5638393,22.8933279 C34.4246171,27.0550519 33.0212016,30.8864323 30.6439303,33.6521158 C26.3210466,38.6826882 23.5939708,46.0128431 23.5939708,54.1914828 C23.5939708,55.1123717 23.6289513,56.0227017 23.697513,56.9217185 C23.9451745,60.1512404 23.107043,63.3113751 21.2411859,65.4450316 C19.0612044,67.9361832 7.87603659e-13,185.5 7.87603659e-13,185.5 C7.87603659e-13,185.5 6.10646358,223.543779 42.1601934,223.543779 C69.285706,223.543779 96,209.540385 96,171.237894 C96,154.241045 91.1789947,123.666931 83.2622197,111.813032 C81.193476,108.716251 80.0706036,104.731766 80.0727025,100.61454 Z" id="Fill-16" transform="translate(48.000000, 111.994817) scale(-1, 1) translate(-48.000000, -111.994817)"/></g><path d="M137.744776,96.5957886 L137.744776,96.530041 C137.744776,82.4902883 132.923547,69.9083181 125.30255,61.3558431 C123.398193,59.218669 122.542054,56.0514495 122.794112,52.8154596 C122.864802,51.9153979 122.89979,51.002489 122.89979,50.0797558 C122.89979,41.3050993 119.709439,33.5038092 114.74326,28.4639174 C112.91959,26.6124051 111.887796,23.7504962 111.866374,20.7601151 C111.855664,19.2841953 111.632168,17.737238 111.12234,16.1275559 C109.654978,11.4949967 106.313964,0.462251049 102.443128,0.0224224311 C96.9892563,-0.597267375 92.3151208,11.7799029 91.3268831,18.2987374 C91.3126023,18.3916909 91.3018916,18.5345218 91.2961792,18.7189173 C91.1547984,22.889732 89.721711,26.7280302 87.2953877,29.4992528 C82.8833065,34.5399003 80.0999609,41.8854917 80.0999609,50.0797558 C80.0999609,51.002489 80.1363772,51.9153979 80.2056395,52.8154596 C80.4584113,56.0514495 79.6037,59.2179133 77.6986292,61.3558431 C70.0769178,69.9083181 65.2564032,82.4902883 65.2564032,96.530041 L65.2564032,96.5957886 C65.2592593,100.769626 64.0610926,104.777205 61.9310978,107.921753 C53.3204347,120.627662 48.3206949,182.826381 49.0747259,201.231168 C50.4785375,235.489434 80.0999609,250 99.0492748,250 C117.998589,250 154,235.96856 154,197.590113 C154,180.558467 149.079519,119.694348 140.999391,107.817464 C138.887961,104.713725 137.74192,100.72126 137.744776,96.5957886 Z" id="Fill-14"/><path d="M199.999391,143.478008 C197.887962,140.377411 196.74192,136.388988 196.744776,132.267693 L196.744776,132.202012 C196.744776,118.176472 191.923548,105.607239 184.30255,97.0634223 C182.398193,94.9284118 181.542054,91.7643986 181.794112,88.5316846 C181.864802,87.6325341 181.89979,86.7205494 181.89979,85.7987503 C181.89979,77.0322219 178.709439,69.2395844 173.74326,64.2047946 C171.91959,62.3551568 170.887796,59.4961451 170.866374,56.5087913 C170.855664,55.0343657 170.632168,53.4889744 170.12234,51.8809219 C168.654978,47.2530525 165.313964,32.4567046 161.443129,32.0173212 C155.989256,31.3982588 151.315121,47.5376702 150.326883,54.0499053 C150.312602,54.1427647 150.301892,54.2854511 150.296179,54.4696599 C150.154799,58.6362523 148.721711,62.4706648 146.295388,65.2390819 C141.883307,70.2746266 139.099961,77.6127817 139.099961,85.7987503 C139.099961,86.7205494 139.136377,87.6325341 139.20564,88.5316846 C139.458411,91.7643986 138.602986,94.9276568 136.698629,97.0634223 C129.076918,105.607239 124.255689,118.176472 124.255689,132.202012 L124.256403,132.267693 C124.25926,136.437305 123.061093,140.440827 120.930384,143.582192 C112.320435,156.275237 107.320695,195.762363 108.074726,214.148518 C109.478538,248.372103 131.432551,261.310509 158.049275,262.867979 C188.159105,264.629287 213,248.850744 213,210.511149 C213,193.496745 208.079519,155.342869 199.999391,143.478008" id="Fill-19"/><path d="M252.999319,125.469631 C250.887878,122.369572 249.74183,118.380869 249.744686,114.25853 L249.744686,114.192845 C249.744686,100.166322 244.923431,87.5962084 237.302391,79.0525477 C235.398024,76.9166325 234.54188,73.7523976 234.793939,70.519457 C234.86463,69.6202435 234.900332,68.7081949 234.900332,67.7863312 C234.900332,59.0199433 231.70925,51.2267597 226.743756,46.1908621 C224.920077,44.3410946 223.888276,41.4818826 223.866141,38.4943193 C223.856144,37.0197904 223.631933,35.4742908 223.122102,33.8661256 C221.655447,29.2379318 218.3137,17.4605755 214.442843,17.0211614 C208.988941,16.4020555 204.315493,29.5225695 203.326536,36.0352611 C203.312255,36.1281269 203.302259,36.2708233 203.296546,36.455045 C203.154451,40.6219294 201.721355,44.4566107 199.295733,47.2252218 C194.882913,52.2611194 192.099552,59.5997888 192.099552,67.7863312 C192.099552,68.7081949 192.135968,69.6202435 192.205231,70.519457 C192.458004,73.7523976 191.603288,76.9166325 189.698921,79.0517927 C182.076453,87.5962084 177.255912,100.166322 177.255912,114.192845 L177.255912,114.25853 C177.258768,118.428435 176.061309,122.432238 173.930588,125.573822 C165.319878,138.267757 160.32011,177.758406 161.074859,196.145094 C162.477965,230.371078 184.432099,243.31039 211.049685,244.86797 C241.159681,246.629402 266,230.849752 266,192.50747 C266,175.492629 261.079492,137.335324 252.999319,125.469631" id="Fill-21"/><path d="M277.476402,165.83509 C275.828683,163.1951 274.995206,159.866549 275.104199,156.478978 L275.105624,156.424499 C275.469646,144.893744 271.850791,134.352701 265.834799,126.999471 C264.331691,125.161541 263.714064,122.523822 264.004,119.877022 C264.084498,119.140791 264.137214,118.39321 264.161434,117.634279 C264.388681,110.427841 261.979435,103.883481 258.047135,99.5296544 C256.60173,97.93083 255.831654,95.5352416 255.891494,93.0783638 C255.920701,91.8654364 255.778226,90.5859229 255.402806,89.2413365 C254.322136,85.3740428 251.677806,75.5654479 248.521281,75.0372986 C244.074647,74.2935009 240.124538,84.8595134 239.145737,90.1712727 C239.132202,90.2476955 239.120091,90.3642212 239.11083,90.5147967 C238.886433,93.9349039 237.614134,97.0258636 235.557513,99.1967236 C231.815416,103.145737 229.347043,109.059041 229.135468,115.788783 C229.110535,116.546957 229.116947,117.298322 229.151141,118.040606 C229.273669,120.708592 228.491483,123.273673 226.877958,124.94665 C220.41887,131.642342 216.14748,141.767978 215.783458,153.299489 L215.782033,153.353212 C215.675889,156.780886 214.59237,160.020151 212.767269,162.511079 C205.39207,172.575425 200.863513,208.90347 201.003138,224.051821 C201.263867,252.248788 218.503298,261.113071 240.244929,263.540439 C264.840326,266.287118 285.970028,257.105795 286.963788,225.585573 C287.40546,211.597183 283.781617,175.938026 277.476402,165.83509" id="Fill-23"/><path d="M556.152824,206.186271 C557.801531,204.16897 558.696664,201.575081 558.693847,198.892894 L558.693847,198.849876 C558.693847,189.724852 562.4589,181.546971 568.41143,175.987129 C569.898858,174.599244 570.567215,172.540435 570.370018,170.436344 C570.315084,169.851455 570.286913,169.258264 570.286913,168.658281 C570.286913,162.955047 572.779342,157.885002 576.657078,154.608869 C578.081826,153.40513 578.886812,151.54556 578.904419,149.600709 C578.912166,148.642246 579.086826,147.636237 579.485445,146.590229 C580.6313,143.579749 583.240638,141.320945 586.263385,141.034915 C590.522134,140.631908 594.17239,143.764649 594.944979,148.00151 C594.956248,148.061885 594.963291,148.154713 594.968221,148.274709 C595.078792,150.985576 596.197884,153.480599 598.093087,155.282057 C601.538399,158.558191 603.712495,163.332395 603.712495,168.658281 C603.712495,169.258264 603.684324,169.851455 603.629391,170.436344 C603.432194,172.53968 604.100551,174.599244 605.587275,175.987129 C611.539804,181.546971 615.304857,189.724852 615.304857,198.849876 L615.304857,198.892894 C615.30204,201.606024 616.237317,204.210478 617.902222,206.254194 C624.625933,214.512827 628.530432,225.468742 627.941658,237.431421 C626.845807,259.697958 609.700239,277.940458 588.913571,278.95326 C565.399247,280.099642 546,260.009647 546,235.064696 C546,223.994822 549.841819,213.906052 556.152824,206.186271" id="Fill-25"/><path d="M606.278771,214.854726 L606.27806,214.811737 C606.27806,205.692829 610.07748,197.520428 616.08251,191.964312 C617.583235,190.576603 618.257566,188.519174 618.058607,186.417247 C618.003182,185.83275 617.974759,185.239956 617.974759,184.639621 C617.974759,178.940964 620.489468,173.874317 624.401868,170.600379 C625.839352,169.397446 626.651534,167.539123 626.669299,165.595576 C626.677115,164.637001 626.853336,163.63242 627.255519,162.587113 C628.411617,159.577896 631.04428,157.320606 634.094049,157.034768 C638.391578,156.632785 642.073754,159.763426 642.85325,163.997448 C642.864619,164.057783 642.872435,164.150548 642.877409,164.270464 C642.988258,166.97876 644.118065,169.472865 646.029499,171.273116 C649.50561,174.547054 651.69914,179.318058 651.69914,184.639621 C651.69914,185.239956 651.670718,185.83275 651.615293,186.417247 C651.417044,188.519174 652.090665,190.576603 653.590679,191.964312 C659.59713,197.520428 663.395129,205.692829 663.395129,214.811737 L663.395129,214.854726 C663.393708,216.10291 663.594089,217.328468 663.973533,218.48615 C663.973533,228.155463 691.777452,291.910142 636.768635,294.861438 C613.04386,296.134304 597,288.856259 597,263.928779 C597,252.866324 597.347611,229.857823 603.714322,222.143216 C605.378478,220.127266 606.280902,217.535116 606.278771,214.854726 Z" id="Fill-27" transform="translate(634.000000, 226.000000) scale(-1, 1) translate(-634.000000, -226.000000)"/><path d="M505.152737,219.186271 C506.802134,217.16897 507.696555,214.575081 507.694443,211.892894 L507.694443,211.849876 C507.694443,202.724852 511.459463,194.546971 517.411237,188.987884 C518.898653,187.599244 519.567004,185.540435 519.369809,183.437098 C519.314876,182.851455 519.286705,182.258264 519.286705,181.658281 C519.286705,175.955802 521.779112,170.885002 525.656815,167.608869 C527.08155,166.40513 527.886529,164.54556 527.904136,162.601464 C527.912587,161.642246 528.086542,160.636992 528.485158,159.590229 C529.631003,156.579749 532.240318,154.320945 535.263744,154.034915 C539.522456,153.631908 543.171976,156.764649 543.944559,161.00151 C543.955828,161.061885 543.963574,161.154713 543.968504,161.274709 C544.07837,163.985576 545.198157,166.480599 547.09264,168.282057 C550.537922,171.558945 552.712,176.332395 552.712,181.658281 C552.712,182.258264 552.683829,182.851455 552.628896,183.437098 C552.432405,185.540435 553.100052,187.599244 554.587467,188.987884 C560.539946,194.546971 564.304262,202.724852 564.304262,211.849876 L564.304262,211.892894 C564.302149,214.606024 565.237418,217.210478 566.901605,219.254194 C573.625962,227.512827 577.530427,238.468742 576.941659,250.431421 C575.845113,272.698713 558.699692,290.940458 537.913907,291.95326 C514.39908,293.099642 495,273.009647 495,248.064696 C495,236.994822 498.84249,226.906052 505.152737,219.186271" id="Fill-29"/><path d="M463.152808,205.186271 C464.802217,203.16897 465.696644,200.575081 465.693827,197.892894 L465.693827,197.849876 C465.693827,188.724852 469.458874,180.546971 475.411394,174.987884 C476.89882,173.599244 477.567175,171.540435 477.369979,169.436344 C477.315046,168.851455 477.286875,168.258264 477.286875,167.658281 C477.286875,161.955802 479.779299,156.885002 483.657029,153.608869 C485.081775,152.40513 485.886759,150.54556 485.904366,148.601464 C485.912113,147.642246 486.086773,146.636992 486.485392,145.590229 C487.631245,142.579749 490.240579,140.320945 493.263321,140.034915 C497.522767,139.631908 501.172313,142.764649 501.944901,147.00151 C501.95617,147.061885 501.963212,147.154713 501.968847,147.274709 C502.078713,149.985576 503.198508,152.480599 505.093004,154.282057 C508.538311,157.558191 510.712403,162.332395 510.712403,167.658281 C510.712403,168.258264 510.684232,168.851455 510.629299,169.436344 C510.432807,171.540435 511.100458,173.599244 512.587179,174.987129 C518.540404,180.546971 522.304746,188.724852 522.304746,197.849876 L522.304746,197.892894 C522.302634,200.606024 523.237205,203.210478 524.902107,205.254194 C531.626512,213.512827 535.531004,224.468742 534.941527,236.431421 C533.845678,258.697958 516.700137,276.940458 495.914207,277.95326 C472.399216,279.099642 453,259.009647 453,234.064696 C453,222.994822 456.842517,212.906052 463.152808,205.186271" id="Fill-31"/><path d="M408.295537,184.377316 C409.64343,182.72579 410.374503,180.600786 410.3724,178.405024 L410.3724,178.37115 C410.3724,170.898634 413.448793,164.201448 418.311863,159.649589 C419.52658,158.512189 420.073307,156.826036 419.912093,155.103752 C419.867934,154.625758 419.844803,154.139483 419.844803,153.64794 C419.844803,148.978653 421.881012,144.826502 425.049227,142.144466 C426.212775,141.158368 426.870951,139.635561 426.88497,138.043502 C426.891979,137.257635 427.034268,136.434883 427.359501,135.578257 C428.295947,133.112259 430.428184,131.262761 432.89827,131.028656 C436.3777,130.698201 439.360168,133.264314 439.991708,136.733723 C440.000119,136.782652 440.007128,136.859432 440.010633,136.957289 C440.101053,139.177139 441.01577,141.220093 442.56413,142.694724 C445.379076,145.377513 447.155239,149.287279 447.155239,153.64794 C447.155239,154.139483 447.132108,154.625758 447.087248,155.103752 C446.926034,156.826036 447.472761,158.512189 448.687477,159.649589 C453.550548,164.201448 456.626941,170.897882 456.626941,178.37115 L456.626941,178.405024 C456.624838,180.627132 457.388854,182.759663 458.748664,184.433019 C464.242573,191.195695 467.433218,200.166929 466.952378,209.962421 C466.056587,228.19545 452.047748,243.132954 435.063451,243.961728 C415.850188,244.900403 400,228.450631 400,208.024098 C400,198.959523 403.140178,190.698129 408.295537,184.377316" id="Fill-33"/></g><g id="Concrete-2" transform="translate(0.000000, 362.000000)" stroke="#DBECF2"><g id="Concrete"><ellipse id="Oval" stroke-width="12" fill="#C3DFE9" cx="330" cy="72.5" rx="324" ry="66.5"/><line x1="9" y1="72.5" x2="660" y2="72.5" id="Path-26" stroke-width="10"/></g></g></g><g transform="translate(230.000000, 22.000000) scale(1 1)" id="Master/Character/Sitting In Floor"><defs><path d="M6.567,5.614 C14.223,11.366 13.91,26.772 0.784,51.417 L0.784,51.417 C0.855,51.767 0.913,52.115 0.949,52.46 L0.949,52.46 C1.943,60.844 3.834,69.263 5.304,76.737 L5.304,76.737 C7.669,88.771 11.022,98.001 11.207,105.026 L11.207,105.026 C11.563,118.566 6.866,122.386 5.506,126.404 L5.506,126.404 C45.467,138.088 69.217,133.932 87.233,124.711 L87.233,124.711 C84.109,112.996 85.827,103.935 85.54,91.744 L85.54,91.744 C85.593,87.955 85.606,84.353 85.512,81.202 L85.512,81.202 C85.559,80.063 85.473,79.133 85.354,77.797 L85.354,77.797 C85.272,76.588 85.167,75.478 85.028,74.505 L85.028,74.505 C84.829,73.116 85.732,73.58 88.135,69.756 L88.135,69.756 C89.813,67.087 90.226,65.13 90.2152122,61.078 L90.2152122,61.078 C90.213,60.185 90.171,58.172 90.21,56.68 L90.21,56.68 C83.583,24.477 76.567,11.398 72.408,6.168 L72.408,6.168 C67.075,4.697 64.602,3.923 61.759,2.613 L61.759,2.613 C62.754,3.319 62.54,8.004 47.723,8.697 L47.723,8.697 C28.645,9.592 21.371,1.505 21.837,0.011 L21.837,0.011 C18.621,1.549 12.595,3.426 6.567,5.614" id="mastercharactersitting-in-floor-path-1"/><path d="M6.567,5.614 C14.223,11.366 13.91,26.772 0.784,51.417 L0.784,51.417 C0.855,51.767 0.913,52.115 0.949,52.46 L0.949,52.46 C1.943,60.844 3.834,69.263 5.304,76.737 L5.304,76.737 C7.669,88.771 11.022,98.001 11.207,105.026 L11.207,105.026 C11.563,118.566 6.866,122.386 5.506,126.404 L5.506,126.404 C45.467,138.088 69.217,133.932 87.233,124.711 L87.233,124.711 C84.109,112.996 85.827,103.935 85.54,91.744 L85.54,91.744 C85.593,87.955 85.606,84.353 85.512,81.202 L85.512,81.202 C85.559,80.063 85.473,79.133 85.354,77.797 L85.354,77.797 C85.272,76.588 85.167,75.478 85.028,74.505 L85.028,74.505 C84.829,73.116 85.732,73.58 88.135,69.756 L88.135,69.756 C89.813,67.087 90.226,65.13 90.2152122,61.078 L90.2152122,61.078 C90.213,60.185 90.171,58.172 90.21,56.68 L90.21,56.68 C83.583,24.477 76.567,11.398 72.408,6.168 L72.408,6.168 C67.075,4.697 64.602,3.923 61.759,2.613 L61.759,2.613 C62.754,3.319 62.54,8.004 47.723,8.697 L47.723,8.697 C28.645,9.592 21.371,1.505 21.837,0.011 L21.837,0.011 C18.621,1.549 12.595,3.426 6.567,5.614" id="mastercharactersitting-in-floor-path-3"/><path d="M6.567,5.614 C14.223,11.366 13.91,26.772 0.784,51.417 L0.784,51.417 C0.855,51.767 0.913,52.115 0.949,52.46 L0.949,52.46 C1.943,60.844 3.834,69.263 5.304,76.737 L5.304,76.737 C7.669,88.771 11.022,98.001 11.207,105.026 L11.207,105.026 C11.563,118.566 6.866,122.386 5.506,126.404 L5.506,126.404 C45.467,138.088 69.217,133.932 87.233,124.711 L87.233,124.711 C84.109,112.996 85.827,103.935 85.54,91.744 L85.54,91.744 C85.593,87.955 85.606,84.353 85.512,81.202 L85.512,81.202 C85.559,80.063 85.473,79.133 85.354,77.797 L85.354,77.797 C85.272,76.588 85.167,75.478 85.028,74.505 L85.028,74.505 C84.829,73.116 85.732,73.58 88.135,69.756 L88.135,69.756 C89.813,67.087 90.226,65.13 90.2152122,61.078 L90.2152122,61.078 C90.213,60.185 90.171,58.172 90.21,56.68 L90.21,56.68 C83.583,24.477 76.567,11.398 72.408,6.168 L72.408,6.168 C67.075,4.697 64.602,3.923 61.759,2.613 L61.759,2.613 C62.754,3.319 62.54,8.004 47.723,8.697 L47.723,8.697 C28.645,9.592 21.371,1.505 21.837,0.011 L21.837,0.011 C18.621,1.549 12.595,3.426 6.567,5.614" id="mastercharactersitting-in-floor-path-5"/><path d="M6.567,5.614 C14.223,11.366 13.91,26.772 0.784,51.417 L0.784,51.417 C0.855,51.767 0.913,52.115 0.949,52.46 L0.949,52.46 C1.943,60.844 3.834,69.263 5.304,76.737 L5.304,76.737 C7.669,88.771 11.022,98.001 11.207,105.026 L11.207,105.026 C11.563,118.566 6.866,122.386 5.506,126.404 L5.506,126.404 C45.467,138.088 69.217,133.932 87.233,124.711 L87.233,124.711 C84.109,112.996 85.827,103.935 85.54,91.744 L85.54,91.744 C85.593,87.955 85.606,84.353 85.512,81.202 L85.512,81.202 C85.559,80.063 85.473,79.133 85.354,77.797 L85.354,77.797 C85.272,76.588 85.167,75.478 85.028,74.505 L85.028,74.505 C84.829,73.116 85.732,73.58 88.135,69.756 L88.135,69.756 C89.813,67.087 90.226,65.13 90.2152122,61.078 L90.2152122,61.078 C90.213,60.185 90.171,58.172 90.21,56.68 L90.21,56.68 C83.583,24.477 76.567,11.398 72.408,6.168 L72.408,6.168 C67.075,4.697 64.602,3.923 61.759,2.613 L61.759,2.613 C62.754,3.319 62.54,8.004 47.723,8.697 L47.723,8.697 C28.645,9.592 21.371,1.505 21.837,0.011 L21.837,0.011 C18.621,1.549 12.595,3.426 6.567,5.614" id="mastercharactersitting-in-floor-path-7"/><path d="M6.567,5.614 C14.223,11.366 13.91,26.772 0.784,51.417 L0.784,51.417 C0.855,51.767 0.913,52.115 0.949,52.46 L0.949,52.46 C1.943,60.844 3.834,69.263 5.304,76.737 L5.304,76.737 C7.669,88.771 11.022,98.001 11.207,105.026 L11.207,105.026 C11.563,118.566 6.866,122.386 5.506,126.404 L5.506,126.404 C45.467,138.088 69.217,133.932 87.233,124.711 L87.233,124.711 C84.109,112.996 85.827,103.935 85.54,91.744 L85.54,91.744 C85.593,87.955 85.606,84.353 85.512,81.202 L85.512,81.202 C85.559,80.063 85.473,79.133 85.354,77.797 L85.354,77.797 C85.272,76.588 85.167,75.478 85.028,74.505 L85.028,74.505 C84.829,73.116 85.732,73.58 88.135,69.756 L88.135,69.756 C89.813,67.087 90.226,65.13 90.2152122,61.078 L90.2152122,61.078 C90.213,60.185 90.171,58.172 90.21,56.68 L90.21,56.68 C83.583,24.477 76.567,11.398 72.408,6.168 L72.408,6.168 C67.075,4.697 64.602,3.923 61.759,2.613 L61.759,2.613 C62.754,3.319 62.54,8.004 47.723,8.697 L47.723,8.697 C28.645,9.592 21.371,1.505 21.837,0.011 L21.837,0.011 C18.621,1.549 12.595,3.426 6.567,5.614" id="mastercharactersitting-in-floor-path-9"/><polygon id="mastercharactersitting-in-floor-path-11" points="0 0.227850116 76.9085 0.227850116 76.9085 80.4252 0 80.4252"/></defs><g id="Master/Character/Sitting In Floor" stroke="none" stroke-width="1" fill="none" fill-rule="evenodd"><g id="Body/Sitting In Floor" transform="translate(11.000000, 333.000000) scale(1 1)"><defs><path d="M6.567,5.614 C14.223,11.366 13.91,26.772 0.784,51.417 L0.784,51.417 C0.855,51.767 0.913,52.115 0.949,52.46 L0.949,52.46 C1.943,60.844 3.834,69.263 5.304,76.737 L5.304,76.737 C7.669,88.771 11.022,98.001 11.207,105.026 L11.207,105.026 C11.563,118.566 6.866,122.386 5.506,126.404 L5.506,126.404 C45.467,138.088 69.217,133.932 87.233,124.711 L87.233,124.711 C84.109,112.996 85.827,103.935 85.54,91.744 L85.54,91.744 C85.593,87.955 85.606,84.353 85.512,81.202 L85.512,81.202 C85.559,80.063 85.473,79.133 85.354,77.797 L85.354,77.797 C85.272,76.588 85.167,75.478 85.028,74.505 L85.028,74.505 C84.829,73.116 85.732,73.58 88.135,69.756 L88.135,69.756 C89.813,67.087 90.226,65.13 90.2152122,61.078 L90.2152122,61.078 C90.213,60.185 90.171,58.172 90.21,56.68 L90.21,56.68 C83.583,24.477 76.567,11.398 72.408,6.168 L72.408,6.168 C67.075,4.697 64.602,3.923 61.759,2.613 L61.759,2.613 C62.754,3.319 62.54,8.004 47.723,8.697 L47.723,8.697 C28.645,9.592 21.371,1.505 21.837,0.011 L21.837,0.011 C18.621,1.549 12.595,3.426 6.567,5.614" id="bodysitting-in-flooroverall-path-1"/><path d="M6.567,5.614 C14.223,11.366 13.91,26.772 0.784,51.417 L0.784,51.417 C0.855,51.767 0.913,52.115 0.949,52.46 L0.949,52.46 C1.943,60.844 3.834,69.263 5.304,76.737 L5.304,76.737 C7.669,88.771 11.022,98.001 11.207,105.026 L11.207,105.026 C11.563,118.566 6.866,122.386 5.506,126.404 L5.506,126.404 C45.467,138.088 69.217,133.932 87.233,124.711 L87.233,124.711 C84.109,112.996 85.827,103.935 85.54,91.744 L85.54,91.744 C85.593,87.955 85.606,84.353 85.512,81.202 L85.512,81.202 C85.559,80.063 85.473,79.133 85.354,77.797 L85.354,77.797 C85.272,76.588 85.167,75.478 85.028,74.505 L85.028,74.505 C84.829,73.116 85.732,73.58 88.135,69.756 L88.135,69.756 C89.813,67.087 90.226,65.13 90.2152122,61.078 L90.2152122,61.078 C90.213,60.185 90.171,58.172 90.21,56.68 L90.21,56.68 C83.583,24.477 76.567,11.398 72.408,6.168 L72.408,6.168 C67.075,4.697 64.602,3.923 61.759,2.613 L61.759,2.613 C62.754,3.319 62.54,8.004 47.723,8.697 L47.723,8.697 C28.645,9.592 21.371,1.505 21.837,0.011 L21.837,0.011 C18.621,1.549 12.595,3.426 6.567,5.614" id="bodysitting-in-flooroverall-path-3"/><path d="M6.567,5.614 C14.223,11.366 13.91,26.772 0.784,51.417 L0.784,51.417 C0.855,51.767 0.913,52.115 0.949,52.46 L0.949,52.46 C1.943,60.844 3.834,69.263 5.304,76.737 L5.304,76.737 C7.669,88.771 11.022,98.001 11.207,105.026 L11.207,105.026 C11.563,118.566 6.866,122.386 5.506,126.404 L5.506,126.404 C45.467,138.088 69.217,133.932 87.233,124.711 L87.233,124.711 C84.109,112.996 85.827,103.935 85.54,91.744 L85.54,91.744 C85.593,87.955 85.606,84.353 85.512,81.202 L85.512,81.202 C85.559,80.063 85.473,79.133 85.354,77.797 L85.354,77.797 C85.272,76.588 85.167,75.478 85.028,74.505 L85.028,74.505 C84.829,73.116 85.732,73.58 88.135,69.756 L88.135,69.756 C89.813,67.087 90.226,65.13 90.2152122,61.078 L90.2152122,61.078 C90.213,60.185 90.171,58.172 90.21,56.68 L90.21,56.68 C83.583,24.477 76.567,11.398 72.408,6.168 L72.408,6.168 C67.075,4.697 64.602,3.923 61.759,2.613 L61.759,2.613 C62.754,3.319 62.54,8.004 47.723,8.697 L47.723,8.697 C28.645,9.592 21.371,1.505 21.837,0.011 L21.837,0.011 C18.621,1.549 12.595,3.426 6.567,5.614" id="bodysitting-in-flooroverall-path-5"/><path d="M6.567,5.614 C14.223,11.366 13.91,26.772 0.784,51.417 L0.784,51.417 C0.855,51.767 0.913,52.115 0.949,52.46 L0.949,52.46 C1.943,60.844 3.834,69.263 5.304,76.737 L5.304,76.737 C7.669,88.771 11.022,98.001 11.207,105.026 L11.207,105.026 C11.563,118.566 6.866,122.386 5.506,126.404 L5.506,126.404 C45.467,138.088 69.217,133.932 87.233,124.711 L87.233,124.711 C84.109,112.996 85.827,103.935 85.54,91.744 L85.54,91.744 C85.593,87.955 85.606,84.353 85.512,81.202 L85.512,81.202 C85.559,80.063 85.473,79.133 85.354,77.797 L85.354,77.797 C85.272,76.588 85.167,75.478 85.028,74.505 L85.028,74.505 C84.829,73.116 85.732,73.58 88.135,69.756 L88.135,69.756 C89.813,67.087 90.226,65.13 90.2152122,61.078 L90.2152122,61.078 C90.213,60.185 90.171,58.172 90.21,56.68 L90.21,56.68 C83.583,24.477 76.567,11.398 72.408,6.168 L72.408,6.168 C67.075,4.697 64.602,3.923 61.759,2.613 L61.759,2.613 C62.754,3.319 62.54,8.004 47.723,8.697 L47.723,8.697 C28.645,9.592 21.371,1.505 21.837,0.011 L21.837,0.011 C18.621,1.549 12.595,3.426 6.567,5.614" id="bodysitting-in-flooroverall-path-7"/><path d="M6.567,5.614 C14.223,11.366 13.91,26.772 0.784,51.417 L0.784,51.417 C0.855,51.767 0.913,52.115 0.949,52.46 L0.949,52.46 C1.943,60.844 3.834,69.263 5.304,76.737 L5.304,76.737 C7.669,88.771 11.022,98.001 11.207,105.026 L11.207,105.026 C11.563,118.566 6.866,122.386 5.506,126.404 L5.506,126.404 C45.467,138.088 69.217,133.932 87.233,124.711 L87.233,124.711 C84.109,112.996 85.827,103.935 85.54,91.744 L85.54,91.744 C85.593,87.955 85.606,84.353 85.512,81.202 L85.512,81.202 C85.559,80.063 85.473,79.133 85.354,77.797 L85.354,77.797 C85.272,76.588 85.167,75.478 85.028,74.505 L85.028,74.505 C84.829,73.116 85.732,73.58 88.135,69.756 L88.135,69.756 C89.813,67.087 90.226,65.13 90.2152122,61.078 L90.2152122,61.078 C90.213,60.185 90.171,58.172 90.21,56.68 L90.21,56.68 C83.583,24.477 76.567,11.398 72.408,6.168 L72.408,6.168 C67.075,4.697 64.602,3.923 61.759,2.613 L61.759,2.613 C62.754,3.319 62.54,8.004 47.723,8.697 L47.723,8.697 C28.645,9.592 21.371,1.505 21.837,0.011 L21.837,0.011 C18.621,1.549 12.595,3.426 6.567,5.614" id="bodysitting-in-flooroverall-path-9"/><polygon id="bodysitting-in-flooroverall-path-11" points="0 0.227850116 76.9085 0.227850116 76.9085 80.4252 0 80.4252"/></defs><g id="Body/Sitting In Floor/Overall" stroke="none" stroke-width="1" fill="none" fill-rule="evenodd"><g id="Overall" transform="translate(28.000000, 0.000000)"><g id="Group-111" transform="translate(0.000000, 0.474000)"><path d="M209.6754,108.6035 C209.1644,108.2475 208.8924,108.0425 208.8924,108.0425 C187.1734,82.7665 137.9644,42.6515 114.4874,55.5475 C94.1074,66.7415 146.0214,86.2965 161.9994,96.1755 C177.6044,105.8235 186.7164,111.4615 201.1914,121.0165 C201.7624,121.3945 202.2114,121.9585 202.7464,122.4375 C202.0914,117.0685 204.9954,111.4615 209.6754,108.6035" id="SKIN" fill="#e88f70"/><path d="M188.9166,101.9966 C170.7206,81.3946 146.5716,60.4796 115.3646,69.9006 C126.5736,79.4616 151.7216,89.8206 161.9996,96.1756 C176.7836,105.3166 185.7486,110.8636 198.9596,119.5476 C200.4756,116.1846 194.5916,108.6956 188.9166,101.9966" id="Fill-3" fill-opacity=".15" fill="#000" style="mix-blend-mode:overlay"/><path d="M195.4263,111.8286 C195.5643,114.9166 195.5093,117.2206 195.4563,118.4326 C200.3763,120.8526 206.6653,120.3036 210.8503,116.8746 C221.4423,84.3546 216.5263,50.6976 216.9963,39.9376 C217.1373,36.7266 207.5843,36.1696 206.7993,39.2766 C206.0193,42.3616 205.8723,49.2336 203.6623,57.1786 C196.9223,81.4086 195.2193,107.1556 195.4263,111.8286" id="SKIN" fill="#e88f70"/><path d="M207.4537,101.9409 C205.0267,107.4629 209.2787,114.1909 212.2217,112.3239 C219.3797,86.9579 217.7347,61.5949 217.1337,47.5579 C207.7637,60.3019 216.3397,81.7209 207.4537,101.9409" id="Fill-7" fill-opacity=".15" fill="#000" style="mix-blend-mode:overlay"/><path d="M208.2691,23.7207 C208.9361,28.4587 208.3551,34.5697 206.5821,39.8757 C205.4801,43.1787 216.2641,44.7977 216.7691,42.6177 C217.9261,37.6217 219.2091,36.2627 221.1101,33.9837 C221.6901,33.2877 222.1641,32.6537 222.5861,32.0487 C222.6071,32.0247 222.6291,32.0087 222.6501,31.9837 C222.8571,31.7307 223.1341,31.2757 223.4271,30.7587 C223.6921,30.3117 223.9241,29.8847 224.1181,29.4807 C224.4561,28.8337 224.7581,28.2297 224.9341,27.8847 C225.7901,26.1987 226.8731,24.6277 228.1511,23.2317 C230.1541,21.0427 232.6041,19.3017 235.1761,17.8227 C236.0241,17.3367 236.9191,16.8457 237.4601,16.0327 C237.5361,15.9187 237.6051,15.7907 237.5921,15.6547 C237.5811,15.5227 237.4911,15.4097 237.3921,15.3207 C236.8051,14.7877 235.9121,14.8377 235.1251,14.9307 C233.8711,15.0797 232.2981,15.6047 230.7431,16.2307 C234.4831,12.3297 238.6571,9.0927 237.3881,7.7747 C235.7241,6.0447 227.6101,12.4977 226.1851,14.1047 C226.8701,11.6787 229.2451,8.7417 231.2301,6.2017 C232.0471,5.1557 233.6891,3.4437 232.4881,2.7057 C231.2581,1.9507 229.5241,3.0047 228.1901,4.4827 C225.8031,7.1267 223.9721,8.7347 221.8911,12.5527 C222.0011,9.4867 224.2741,6.0977 225.5811,3.3227 C226.0631,2.2967 226.6421,1.0957 225.7761,0.7097 C224.0881,-0.0423 222.7861,1.6507 221.4851,3.4027 C218.2261,7.7927 217.3751,9.3367 214.6351,15.1977 C214.2811,15.9547 214.1231,16.3027 213.7681,16.9307 C213.3761,17.6207 213.0821,16.9697 213.0041,15.4847 C212.8461,12.4677 215.2961,6.9627 213.5241,6.4427 C211.6671,5.9517 207.4261,17.7367 208.2691,23.7207" id="SKIN" fill="#e88f70"/><path d="M218.0738,16.5503 C212.8518,19.2573 215.9938,20.7003 214.2008,24.8723 C213.4058,26.7203 215.8088,29.7863 218.1238,30.9213 C219.7468,31.7173 222.9348,31.5973 223.2538,31.0613 C223.6598,30.3773 224.0188,29.6883 224.1178,29.4813 C224.4558,28.8343 224.7588,28.2303 224.9338,27.8843 C225.7908,26.1983 226.8738,24.6273 228.1508,23.2323 C229.2598,19.6763 222.4028,14.3053 218.0738,16.5503" id="Fill-11" fill-opacity=".15" fill="#000" style="mix-blend-mode:overlay"/><path d="M207.3678,119.2436 C207.0088,118.7276 206.6488,118.2116 206.2678,117.7076 C199.0338,111.2916 187.6778,107.0396 179.4638,112.0726 C166.9458,123.0376 137.5628,145.8366 111.1748,174.1636 C94.3048,192.2726 78.9498,215.7256 68.8228,231.0116 C79.0558,242.8926 107.3518,250.5226 128.9698,240.4416 C129.4728,239.7456 191.5548,152.0236 208.5318,130.7596 C208.7258,127.0056 208.6858,122.6056 207.3678,119.2436" id="SKIN" fill="#e88f70"/><path d="M204.1744,123.1753 C195.6334,122.8363 186.6164,119.7873 179.7014,115.2613 C177.7134,128.0333 174.7524,134.3213 165.8544,153.7543 C158.3254,170.1953 159.6354,197.7583 159.3134,205.0533 C158.7404,217.9893 158.1944,231.0913 156.4384,240.5233 C155.5494,245.2963 154.5454,250.2863 153.2054,254.4153 C150.5634,262.5543 155.6464,279.1963 170.0754,269.7723 C170.0754,269.7723 198.4634,168.5333 208.3994,131.4863 C209.0944,127.6023 207.3704,124.3603 204.1744,123.1753" id="SKIN" fill="#e88f70"/><path d="M168.1754,174.9575 C167.6834,156.4605 181.7354,143.5765 175.7474,130.9845 C173.6274,136.8285 170.5774,143.4385 165.8544,153.7535 C158.3254,170.1955 159.6354,197.7575 159.3134,205.0525 C158.7394,217.9895 158.1954,231.0905 156.4384,240.5235 C157.4804,240.6565 159.3174,235.1425 162.5964,228.7165 C165.8164,222.4075 168.8854,201.6085 168.1754,174.9575" id="Fill-17" fill-opacity=".15" fill="#000" style="mix-blend-mode:overlay"/><path d="M202.0474,282.6943 C202.3494,282.7673 206.7614,286.0863 206.4074,291.7413 L199.9934,297.5943 C199.9934,297.5943 190.5804,298.7793 190.3624,298.763461 C190.1464,298.7463 168.6654,288.9693 168.6654,288.9693 L168.3994,271.2483 L190.6534,285.2363 L202.0474,282.6943 Z" id="Fill-19" fill="#D7595E"/><path d="M151.6812,254.6523 C151.6812,254.6523 151.4412,254.7303 151.0882,255.1673 C150.5072,255.8863 149.8322,257.4443 149.6152,259.4353 C149.6152,259.4353 150.4442,266.6523 159.2442,270.1203 C166.6812,273.0493 167.3812,274.3723 169.1322,277.3073 C169.1322,277.3073 172.6892,276.9523 176.7302,282.5513 C180.7722,288.1493 194.6772,290.9623 199.5962,289.0493 C204.5152,287.1363 202.8752,284.1063 202.0472,282.6943 C201.2192,281.2823 198.4932,278.8973 196.0602,276.7413 C193.6272,274.5863 191.7432,272.0563 191.2242,270.6683 L151.6812,254.6523 Z" id="Fill-21" fill="#FFF"/><path d="M179.6822,255.7846 C179.6822,255.7846 181.0932,249.4546 180.7072,246.3116 C180.3212,243.1686 178.3502,241.7746 175.4942,242.4936 C172.6362,243.2126 171.4192,241.4596 169.5332,243.0826 C167.6452,244.7046 166.0662,245.0006 166.8742,249.4216 C167.6832,253.8426 166.7062,258.5436 165.9292,259.2116 C165.9292,259.2116 162.4532,259.8836 159.2642,256.7376 C156.0772,253.5906 155.4432,249.5976 151.8092,250.9856 C151.8092,250.9856 152.4482,253.5246 151.0782,255.1856 C151.0782,255.1856 151.8542,254.5176 153.5002,256.0956 C155.1462,257.6726 156.3232,264.0936 160.8722,264.3316 C165.4212,264.5716 165.3032,261.4906 168.3152,261.9866 C172.0142,262.5956 171.2212,267.4996 173.5612,270.8936 C175.9002,274.2876 182.9142,280.0306 190.4312,276.8026 C190.4312,276.8026 195.2832,275.3756 189.7282,268.4786 C185.0892,262.7196 184.7652,262.7076 184.0872,260.6836 C183.4102,258.6606 181.4132,256.2266 179.6822,255.7846" id="Fill-23" fill="#323C84"/><path d="M178.9244,255.7529 C178.9244,255.7529 179.9384,248.5819 178.6894,248.2739 C177.5394,248.0279 177.0584,248.8369 175.8004,249.1399 C174.4974,249.4529 173.3904,248.4329 172.2974,249.8609 C171.4584,250.9579 173.9754,255.2709 173.4354,257.8789 C175.0584,256.1589 178.0654,255.2649 178.9244,255.7529" id="Fill-25" fill="#D7595E"/><path d="M149.6148,259.4355 C149.6148,259.4355 147.8548,261.6145 148.1788,266.0095 C148.1788,266.0095 150.2188,273.9865 159.9098,277.0925 C167.4078,279.4975 168.4428,285.1645 172.8368,287.7535 C172.8368,287.7535 171.3738,281.4175 168.8098,276.6825 C166.2468,271.9455 164.4848,272.3535 158.3258,269.4015 C149.9218,265.3735 149.6148,259.4355 149.6148,259.4355" id="Fill-27" fill="#F9A8AC"/><path d="M148.1793,266.0092 C148.1793,266.0092 147.0943,270.7352 147.1383,274.0162 C147.1823,277.2982 152.7903,280.4672 157.7003,282.0102 C164.0393,284.0022 164.2653,289.3662 170.4943,293.6962 C176.7243,298.0262 191.0173,303.6202 202.0253,299.6422 C202.0253,299.6422 206.6793,297.8072 206.4083,291.7412 C206.4083,291.7412 205.5593,290.4392 202.4803,291.6632 C199.4023,292.8882 200.2963,295.5052 196.9663,296.2012 C193.6363,296.8972 183.1373,297.5562 172.8363,287.7542 C172.8363,287.7542 169.3493,279.4632 162.9123,277.4272 C153.9323,274.5872 148.7873,269.6562 148.1793,266.0092" id="Fill-29" fill="#10145F"/><path d="M151.8092,250.9853 C151.7892,250.9883 151.3632,246.1113 151.4472,244.6023 C151.5302,243.0923 153.2622,241.7673 157.1422,242.1983 C157.1422,242.1983 155.1472,247.3483 154.5492,251.7803 C154.5492,251.7803 153.3112,250.7333 151.8092,250.9853" id="Fill-31" fill="#F9A8AC"/><path d="M175.0015,264.039 C174.9415,264.035 174.8825,264.021 174.8245,263.997 C174.5315,263.876 174.3935,263.541 174.5145,263.248 C175.8365,260.054 180.3675,257.758 183.6655,258.613 C183.9725,258.692 184.1565,259.005 184.0765,259.311 C183.9965,259.618 183.6855,259.796 183.3775,259.723 C180.6705,259.013 176.6615,261.058 175.5735,263.687 C175.4775,263.921 175.2415,264.057 175.0015,264.039" id="Fill-33" fill="#FFF"/><path d="M177.3072,266.4546 C177.2272,266.4486 177.1472,266.4266 177.0732,266.3846 C176.7952,266.2306 176.6962,265.8816 176.8492,265.6056 C177.4882,264.4536 179.0212,262.7596 180.7152,261.7516 C181.8582,261.0726 184.0232,260.7916 185.1022,261.4456 C185.3732,261.6096 185.4592,261.9626 185.2952,262.2336 C185.1312,262.5046 184.7782,262.5906 184.5082,262.4266 C183.8752,262.0426 182.1982,262.2046 181.3012,262.7376 C179.7982,263.6316 178.4032,265.1686 177.8522,266.1606 C177.7402,266.3626 177.5242,266.4716 177.3072,266.4546" id="Fill-35" fill="#FFF"/><path d="M179.8092,268.9331 C179.7342,268.9271 179.6592,268.9071 179.5872,268.8691 C179.3062,268.7231 179.1982,268.3761 179.3442,268.0961 C180.1372,266.5801 181.3392,265.2321 182.5612,264.4901 C183.8032,263.7361 185.3882,263.4441 186.6992,263.7231 C187.0082,263.7891 187.2052,264.0941 187.1392,264.4051 C187.0732,264.7141 186.7692,264.9061 186.4582,264.8451 C185.4402,264.6241 184.1422,264.8711 183.1562,265.4711 C182.1212,266.0991 181.0502,267.3081 180.3612,268.6271 C180.2512,268.8361 180.0312,268.9501 179.8092,268.9331" id="Fill-37" fill="#FFF"/><path d="M182.0006,271.7011 C181.9066,271.6941 181.8136,271.6641 181.7296,271.6081 C181.4646,271.4341 181.3916,271.0791 181.5646,270.8141 C182.0496,270.0781 183.3396,268.2631 184.8636,267.3161 C186.4266,266.3451 187.7486,266.4411 188.8396,266.6591 C189.1496,266.7221 189.3516,267.0241 189.2876,267.3351 C189.2256,267.6451 188.9266,267.8481 188.6116,267.7841 C187.5576,267.5671 186.6196,267.5751 185.4686,268.2901 C184.1386,269.1171 182.9666,270.7721 182.5236,271.4451 C182.4046,271.6251 182.2016,271.7161 182.0006,271.7011" id="Fill-39" fill="#FFF"/><path d="M184.6119,274.0288 C184.5679,274.0258 184.5239,274.0178 184.4799,274.0038 C184.1779,273.9068 184.0119,273.5858 184.1079,273.2828 C184.5089,272.0248 185.6329,270.8788 187.1909,270.1388 C188.6549,269.4418 190.2079,269.2648 191.2439,269.6738 C191.5389,269.7898 191.6829,270.1228 191.5669,270.4178 C191.4509,270.7128 191.1159,270.8578 190.8239,270.7398 C190.0859,270.4488 188.8519,270.6188 187.6829,271.1748 C186.4289,271.7698 185.5009,272.6888 185.2009,273.6318 C185.1179,273.8898 184.8709,274.0488 184.6119,274.0288" id="Fill-41" fill="#FFF"/><path d="M154.5406,251.8784 C154.5096,251.8764 154.4786,251.8714 154.4466,251.8634 C154.1396,251.7874 153.9506,251.4774 154.0266,251.1704 C154.2006,250.4624 154.3046,249.7314 154.3356,248.9944 C154.3806,247.9034 154.2676,246.8194 153.9966,245.7754 C153.9176,245.4684 154.1026,245.1554 154.4086,245.0764 C154.7166,244.9984 155.0286,245.1824 155.1076,245.4884 C155.4046,246.6424 155.5306,247.8384 155.4806,249.0414 C155.4476,249.8564 155.3326,250.6644 155.1406,251.4434 C155.0726,251.7194 154.8146,251.8994 154.5406,251.8784" id="Fill-43" fill="#203C6A"/><path d="M329.5552,318.8174 C316.4032,308.6474 290.3542,288.4804 288.2012,286.6124 C280.2562,279.7244 229.3322,235.1634 224.6722,231.6514 C224.3062,231.3764 223.7322,230.9354 223.0162,230.3814 C223.0232,230.6804 223.0282,230.9784 222.9982,231.2794 C220.5802,242.7274 208.9692,247.6924 197.3562,251.1284 C203.4562,257.2474 210.7852,269.3954 221.9602,279.9904 C238.6282,295.7944 258.3342,304.2184 269.8322,309.0544 C280.1422,313.3904 294.9902,318.8684 303.5142,323.3124 C310.4192,327.3204 317.8582,333.0974 321.5792,336.5074 C326.7302,332.0444 329.9712,325.2724 329.5552,318.8174" id="SKIN" fill="#e88f70"/><path d="M209.5387,266.1504 C213.1127,270.6524 217.1857,275.4634 221.9607,279.9904 C237.3597,294.5904 255.3367,302.8844 267.0537,307.8774 C266.8377,302.4994 250.5887,296.8774 241.0997,283.9294 C230.9477,270.0784 215.6707,263.0064 209.5387,266.1504" id="Fill-47" fill-opacity=".15" fill="#000" style="mix-blend-mode:overlay"/><path d="M61.3121,187.5786 C59.3551,187.3996 52.4441,195.8816 51.7331,197.6476 C49.1411,204.0886 47.1781,210.8296 46.2191,217.7146 C43.5261,237.0316 51.0931,256.2956 71.4601,260.8796 C87.6181,264.5156 104.3761,264.7736 120.8351,263.6176 C137.6641,262.4346 154.3721,260.9176 171.2671,260.4526 C183.2261,260.1226 196.5261,257.4396 208.4281,259.4196 C209.5081,259.5996 211.6451,260.1326 213.0171,260.6456 C222.1521,252.6936 226.2701,242.8366 223.7091,231.4196 C223.6111,231.1336 223.4821,230.8646 223.3531,230.5966 C213.0191,228.1856 180.0721,209.7466 134.4161,198.9266 C88.7591,188.1066 75.4141,188.8746 61.3121,187.5786" id="SKIN" fill="#e88f70"/><path d="M145.9342,196.9541 C142.5602,176.6681 139.1262,165.6311 138.9242,161.1801 C138.3102,147.6531 141.3902,134.8631 140.2002,119.4581 C140.2002,119.4581 144.0052,116.1001 144.7902,109.7751 C145.2492,106.0791 145.6322,96.0731 139.0692,79.7521 C131.6552,61.3181 132.0372,55.4761 131.8182,53.9461 C131.7332,53.3501 123.5272,51.7791 118.5922,49.6321 C112.7982,56.9851 101.0212,57.6521 101.0212,57.6521 C82.6392,58.3171 75.1632,46.9951 75.0732,46.8571 C72.4492,47.9561 69.1732,49.2221 63.1892,51.5451 C70.7372,69.5791 58.5852,84.8701 55.0042,90.4031 C55.4422,96.2661 62.4322,121.0611 63.9542,129.8401 C65.9252,141.2121 68.0212,151.2731 67.2062,158.8681 C66.4812,165.6421 58.2722,184.1091 53.2052,200.4781 C75.6252,203.1671 97.7462,219.5361 106.6872,240.3811 C106.8802,240.3361 107.0852,240.2941 107.2982,240.2541 C111.6782,239.4331 115.3692,236.5691 117.1632,232.4891 C123.5412,217.9931 132.8182,204.7871 145.9342,196.9541 Z" id="Fill-51" fill="#e88f70"/><path d="M118.4586,49.5732 C118.5076,49.5952 118.5426,49.6112 118.5646,49.6202 C118.5286,49.6042 118.4946,49.5892 118.4586,49.5732" id="Fill-53" fill="#e88f70"/><path d="M75.4469,46.7002 C76.0309,46.4872 76.5839,46.2472 77.1069,45.9822 C76.5669,46.2212 76.0189,46.4582 75.4469,46.7002" id="Fill-55" fill="#e88f70"/><path d="M77.6949,151.6128 C77.6949,146.6128 85.7829,127.0748 82.4549,120.6408 C72.7599,116.3498 75.3879,103.6968 63.9999,93.7038 C60.5759,90.5798 56.6809,90.1518 55.0049,90.4028 C55.4419,96.2658 62.4319,121.0608 63.9539,129.8408 C65.9249,141.2118 68.0209,151.2728 67.2069,158.8678 C66.4809,165.6418 58.2719,184.1088 53.2049,200.4778 C59.3619,201.2168 65.4949,202.9898 71.3389,205.6028 C79.9049,177.8098 75.9479,171.6988 77.6949,151.6128" id="Fill-57" fill="#000"/><path d="M96.0699,65.498 C95.9629,65.498 95.8549,65.464 95.7639,65.394 C90.4929,61.311 83.9239,58.849 77.2669,58.46 C76.9919,58.444 76.7809,58.208 76.7979,57.932 C76.8129,57.657 77.0329,57.45 77.3259,57.462 C84.1809,57.862 90.9469,60.398 96.3769,64.602 C96.5939,64.772 96.6339,65.086 96.4659,65.304 C96.3669,65.432 96.2189,65.498 96.0699,65.498" id="Fill-59" fill="#000"/><path d="M114.3013,64.4799 C114.2943,64.4799 114.2883,64.4799 114.2813,64.4799 C114.0623,64.4709 113.8743,64.3199 113.8183,64.1079 C113.7313,63.7809 113.8293,63.4269 114.0613,63.1879 C115.5073,59.5019 118.2373,56.2669 121.6323,54.2419 C121.8693,54.1009 122.1773,54.1779 122.3183,54.4149 C122.4593,54.6519 122.3813,54.9589 122.1453,55.0999 C118.9283,57.0189 116.3453,60.0849 114.9823,63.5789 C114.9713,63.6299 114.9513,63.6799 114.9253,63.7259 C114.8723,63.8649 114.8223,64.0039 114.7733,64.1439 C114.7033,64.3459 114.5133,64.4799 114.3013,64.4799" id="Fill-61" fill="#000"/><path d="M95.1099,123.2695 C93.0639,123.2695 90.7819,123.1215 88.6399,122.7215 C85.8779,122.2045 82.0849,120.8665 79.8359,119.0415 C77.0469,116.7795 74.5439,111.7325 73.8089,108.9585 C73.7379,108.6915 73.8969,108.4175 74.1649,108.3475 C74.4319,108.2785 74.7049,108.4355 74.7759,108.7025 C75.5649,111.6825 78.0949,116.3435 80.4649,118.2655 C82.5789,119.9795 86.1859,121.2445 88.8239,121.7375 C92.6069,122.4465 96.8449,122.3405 99.3239,122.0375 C99.6039,121.9955 99.8479,122.1985 99.8809,122.4725 C99.9149,122.7465 99.7199,122.9965 99.4459,123.0295 C98.2979,123.1705 96.7829,123.2695 95.1099,123.2695" id="Fill-63" fill="#000"/><path d="M118.0347,168.2685 C117.8517,168.2685 117.6767,168.1685 117.5887,167.9945 C116.8397,166.5185 116.6787,164.7615 117.1447,163.1735 L117.1917,163.0185 C117.2817,162.7235 117.3667,162.4455 117.3137,162.2315 C117.2487,161.9625 117.4137,161.6925 117.6807,161.6265 C117.9487,161.5625 118.2207,161.7255 118.2857,161.9945 C118.4027,162.4755 118.2667,162.9195 118.1477,163.3105 L118.1037,163.4565 C117.7087,164.8015 117.8457,166.2905 118.4797,167.5425 C118.6047,167.7885 118.5067,168.0895 118.2607,168.2145 C118.1877,168.2515 118.1107,168.2685 118.0347,168.2685" id="Fill-65" fill="#000"/><path d="M365.942,307.2534 C366.162,307.0334 371.297,305.0064 375.934,308.2634 L377.573,316.7914 C377.573,316.7914 373.664,325.4364 373.536,325.6124 C373.409,325.7894 353.847,338.9934 353.847,338.9934 L338.599,329.9604 L362.155,318.2954 L365.942,307.2534 Z" id="Fill-67" fill="#D7595E"/><path d="M315.7125,335.5405 C315.7125,335.5405 315.6535,335.7855 315.8425,336.3135 C316.1515,337.1865 317.1275,338.5765 318.7115,339.8015 C318.7115,339.8015 325.2975,342.8665 332.8535,337.1745 C339.2365,332.3655 340.7315,332.4595 344.1485,332.5005 C344.1485,332.5005 345.7035,329.2835 352.5895,328.7635 C359.4745,328.2435 369.1395,317.8575 370.0795,312.6645 C371.0195,307.4705 367.5785,307.2855 365.9415,307.2535 C364.3065,307.2215 360.8475,308.2995 357.7375,309.2475 C354.6285,310.1945 351.4865,310.4795 350.0325,310.1965 L315.7125,335.5405 Z" id="Fill-69" fill="#FFF"/><path d="M331.3111,312.2592 C331.3111,312.2592 326.6521,307.7482 323.7711,306.4342 C320.8891,305.1212 318.6701,306.0722 317.7901,308.8842 C316.9111,311.6962 314.7801,311.8182 315.1771,314.2742 C315.5751,316.7312 315.0011,318.2322 319.1931,319.8532 C323.3851,321.4732 326.8821,324.7632 327.0461,325.7752 C327.0461,325.7752 325.8021,329.0902 321.4541,330.1642 C317.1041,331.2382 313.3701,329.6912 312.6531,333.5142 C312.6531,333.5142 315.1521,334.2972 315.8521,336.3342 C315.8521,336.3342 315.6891,335.3222 317.8931,334.7432 C320.0981,334.1642 326.1871,336.5162 328.7691,332.7622 C331.3501,329.0092 328.6631,327.4992 330.6591,325.1912 C333.1111,322.3552 336.8771,325.5942 340.9941,325.3742 C345.1101,325.1532 353.6721,322.1732 354.8481,314.0772 C354.8481,314.0772 356.1661,309.1962 347.3841,310.3272 C340.0491,311.2722 339.8701,311.5422 337.7901,311.0632 C335.7111,310.5842 332.5921,311.0132 331.3111,312.2592" id="Fill-71" fill="#323C84"/><path d="M330.7964,312.7304 C330.7964,312.7304 325.4814,307.8114 324.5164,308.6624 C323.6584,309.4664 324.0494,310.3234 323.5814,311.5294 C323.0974,312.7784 321.6274,313.1064 322.1784,314.8184 C322.6014,316.1334 327.5794,316.5224 329.4154,318.4534 C328.9274,316.1384 329.9044,313.1594 330.7964,312.7304" id="Fill-73" fill="#D7595E"/><path d="M318.7115,339.8012 C318.7115,339.8012 319.6485,342.4412 323.5655,344.4612 C323.5655,344.4612 331.4335,346.8902 339.1455,340.2522 C345.1135,335.1152 350.4865,337.1952 354.9905,334.8022 C354.9905,334.8022 348.8235,332.7392 343.4455,332.4492 C338.0685,332.1592 337.4955,333.8742 331.7605,337.5832 C323.9345,342.6432 318.7115,339.8012 318.7115,339.8012" id="Fill-75" fill="#F9A8AC"/><path d="M323.566,344.4614 C323.566,344.4614 327.028,347.8554 329.848,349.5324 C332.67,351.2104 338.302,348.0854 342.183,344.7054 C347.195,340.3414 351.885,342.9524 358.833,339.9044 C365.78,336.8564 378.018,327.5934 380.379,316.1294 C380.379,316.1294 381.248,311.2024 375.934,308.2634 C375.934,308.2634 374.38,308.3064 373.815,311.5714 C373.251,314.8364 375.95,315.4404 374.802,318.6444 C373.656,321.8474 368.731,331.1424 354.991,334.8024 C354.991,334.8024 346.099,333.4424 341,337.8664 C333.885,344.0384 326.993,345.8484 323.566,344.4614" id="Fill-77" fill="#10145F"/><path d="M307.0219,330.4876 C305.911907,329.720242 305.730235,328.054021 307.177332,325.588392 C307.352038,325.290721 314.3009,328.2206 316.5719,330.9556 C316.5719,330.9556 313.0479,330.9216 312.6529,333.5146 C312.6499,333.5336 308.2649,331.3476 307.0219,330.4876 Z" id="Fill-79" fill="#323C84"/><path d="M335.8834,320.5893 C335.8524,320.6273 335.8174,320.6623 335.7754,320.6923 C335.5194,320.8793 335.1604,320.8213 334.9744,320.5663 C332.9424,317.7683 333.3624,312.7083 335.8044,310.3393 C336.0324,310.1203 336.3954,310.1273 336.6154,310.3553 C336.8344,310.5833 336.8304,310.9443 336.6004,311.1653 C334.5884,313.1123 334.2304,317.5893 335.9024,319.8913 C336.0584,320.1063 336.0434,320.3923 335.8834,320.5893" id="Fill-81" fill="#FFF"/><path d="M339.147,319.8842 C339.103,319.9382 339.048,319.9862 338.984,320.0222 C338.709,320.1782 338.359,320.0812 338.203,319.8052 C337.554,318.6572 336.913,316.4662 336.938,314.4962 C336.957,313.1672 337.85,311.1732 338.971,310.5962 C339.253,310.4512 339.599,310.5622 339.744,310.8432 C339.889,311.1252 339.777,311.4682 339.497,311.6162 C338.838,311.9552 338.099,313.4702 338.085,314.5112 C338.062,316.2592 338.643,318.2522 339.202,319.2412 C339.321,319.4522 339.292,319.7072 339.147,319.8842" id="Fill-83" fill="#FFF"/><path d="M342.5679,319.0468 C342.5269,319.0978 342.4769,319.1418 342.4189,319.1778 C342.1449,319.3398 341.7939,319.2518 341.6309,318.9798 C340.7529,317.5128 340.2319,315.7838 340.2379,314.3538 C340.2449,312.9028 340.8239,311.3898 341.7469,310.4258 C341.9639,310.1958 342.3279,310.1868 342.5559,310.4048 C342.7869,310.6238 342.8069,311.0048 342.5769,311.2148 C341.8609,311.9738 341.3889,313.2068 341.3849,314.3588 C341.3799,315.5698 341.8499,317.1148 342.6149,318.3908 C342.7419,318.6038 342.7149,318.8648 342.5679,319.0468" id="Fill-85" fill="#FFF"/><path d="M346.0738,318.6255 C346.0208,318.6905 345.9528,318.7445 345.8728,318.7835 C345.5868,318.9175 345.2448,318.7945 345.1098,318.5085 C344.7348,317.7105 343.8618,315.6615 343.8508,313.8675 C343.8398,312.0275 344.6158,310.9515 345.3688,310.1345 C345.5848,309.9025 345.9478,309.8905 346.1788,310.1055 C346.4118,310.3225 346.4268,310.6885 346.2088,310.9165 C345.4758,311.7015 344.9888,312.5055 344.9978,313.8605 C345.0068,315.4265 345.8048,317.2915 346.1468,318.0205 C346.2448,318.2265 346.2078,318.4595 346.0738,318.6255" id="Fill-87" fill="#FFF"/><path d="M349.4224,317.6162 C349.4014,317.6412 349.3774,317.6662 349.3524,317.6892 C349.1114,317.8962 348.7504,317.8692 348.5434,317.6302 C347.6794,316.6302 347.2894,315.0742 347.4734,313.3582 C347.6454,311.7472 348.3054,310.3302 349.1944,309.6592 C349.4474,309.4692 349.8074,309.5202 349.9974,309.7732 C350.1894,310.0262 350.1404,310.3852 349.8844,310.5762 C349.2504,311.0532 348.7514,312.1932 348.6124,313.4802 C348.4654,314.8602 348.7644,316.1322 349.4104,316.8802 C349.5954,317.0942 349.5944,317.4042 349.4224,317.6162" id="Fill-89" fill="#FFF"/><path d="M71.3961,50.4995 C64.7931,50.8705 60.3101,51.9545 55.4161,54.2195 C42.7211,60.0945 33.3051,71.4255 27.0551,83.3885 C21.5421,93.9405 16.5151,104.7635 11.5501,115.5815 C9.8201,119.3515 8.1091,123.1315 6.4351,126.9275 C5.7041,128.5855 4.9801,130.2475 4.2681,131.9145 C4.1651,132.1585 2.0151,136.5485 0.1371,140.3105 C-0.1089,140.8045 3.9511,140.9905 6.2261,141.3895 C12.6961,142.4735 16.4561,144.3495 16.7031,150.1935 C43.2571,118.1675 53.1841,94.9155 54.9611,90.9835 C64.0251,84.2575 72.6621,58.9105 71.3961,50.4995" id="SKIN" fill="#e88f70"/><path d="M24.0357,108.2241 C33.9697,86.3541 49.6377,84.2601 59.7157,65.9701 C62.5517,59.6611 64.4727,53.0021 62.5147,51.7151 C60.0557,52.3101 57.7807,53.1241 55.4157,54.2191 C42.7217,60.0941 33.3057,71.4251 27.0557,83.3881 C21.5427,93.9401 16.5147,104.7631 11.5507,115.5811 C9.8197,119.3511 8.1087,123.1311 6.4347,126.9281 C5.7037,128.5861 4.9797,130.2471 4.2677,131.9141 C4.0647,132.3911 2.9647,135.9281 2.5597,136.0061 C4.5877,135.6181 7.5787,134.6241 11.7837,130.8401 C15.9897,127.0561 20.2597,115.9241 24.0357,108.2241" id="Fill-95" fill-opacity=".15" fill="#000" style="mix-blend-mode:overlay"/><path d="M140.5406,137.7436 C140.5916,133.9546 140.6056,130.3526 140.5126,127.2026 C140.5586,126.0626 140.4736,125.1336 140.3536,123.7966 C140.2716,122.5876 140.1666,121.4776 140.0276,120.5046 C139.8296,119.1156 140.7316,119.5796 143.1356,115.7566 C144.8126,113.0866 145.2266,111.1306 145.2156,107.0786 C145.2116,105.6236 145.1006,101.1906 145.4106,100.8936 C145.3906,98.8756 145.5196,96.8596 145.7916,94.8636 C146.8936,86.7836 155.3466,72.6716 160.6576,66.4326 C156.5996,62.6636 151.3796,60.5376 147.4176,58.7976 C142.1056,56.4666 136.9506,54.7896 132.9196,53.6756 C123.4736,51.0996 120.4366,50.3076 116.7586,48.6126 C117.7546,49.3186 117.5386,54.0036 102.7226,54.6976 C83.6456,55.5926 76.3716,47.5056 76.8356,46.0106 C70.8396,48.8776 55.0716,52.9296 47.7356,57.9656 C40.6256,62.8476 31.2026,71.1046 28.1366,76.1416 C38.0836,75.3466 54.8566,88.1996 55.9486,98.4596 C56.9426,106.8446 58.8336,115.2636 60.3036,122.7376 C62.6686,134.7706 66.0216,144.0006 66.2066,151.0256 C66.5626,164.5656 61.8656,168.3866 60.5056,172.4046 C100.4666,184.0876 124.2186,179.9316 142.2326,170.7106 C139.1086,158.9956 140.8266,149.9356 140.5406,137.7436" id="Fill-97" fill="#e85d5d"/><path d="M61.567,51.6142 C69.292,57.8032 68.911,72.7722 55.784,97.4172 L55.784,97.4172 C53.735,87.3512 37.75,75.3732 28.137,76.1412 C31.203,71.1052 40.626,62.8472 47.736,57.9662 C47.736,57.9662 52.381,54.4992 61.567,51.6142" id="Fill-99" fill="#e85d5d"/><path d="M126.3775,51.8828 C126.4135,51.8928 126.4495,51.9028 126.4855,51.9128 C126.4495,51.9028 126.4145,51.8928 126.3775,51.8828" id="Fill-101" fill="#E44E46"/><path d="M147.4166,58.7978 C142.1056,56.4658 136.9506,54.7898 132.9206,53.6758 C130.7746,53.0908 128.9746,52.6008 127.4076,52.1688 C131.5666,57.3978 138.5826,70.4768 145.2096,102.6798 L145.2096,102.6958 C145.2326,101.7508 145.2896,101.0088 145.4106,100.8938 C145.3896,98.8758 145.5196,96.8598 145.7916,94.8638 C146.8936,86.7838 155.3466,72.6718 160.6586,66.4328 C156.5986,62.6638 151.3796,60.5378 147.4166,58.7978" id="Fill-103" fill="#e85d5d"/><path d="M55.6549,96.8813 C55.7879,97.4123 55.8929,97.9403 55.9489,98.4603 C56.9429,106.8443 58.8339,115.2633 60.3019,122.7373 C62.6679,134.7713 66.0219,144.0013 66.2069,151.0263 C66.5629,164.5653 61.8659,168.3863 60.5059,172.4043 C64.4429,172.6063 68.8259,172.6723 72.7259,172.6583 C78.6739,146.7173 74.1189,115.1093 55.6549,96.8813" id="Fill-105" fill-opacity=".25" fill="#000" style="mix-blend-mode:overlay"/><path d="M100.9742,122.2949 C91.9472,124.3249 82.3142,123.3899 73.8502,119.6609 C73.5472,119.5289 73.1932,119.6659 73.0592,119.9689 C72.9252,120.2719 73.0632,120.6259 73.3662,120.7599 C79.0582,123.2659 85.2622,124.5439 91.4692,124.5439 C94.7492,124.5439 98.0322,124.1869 101.2382,123.4659 C101.5612,123.3929 101.7642,123.0719 101.6912,122.7489 C101.6182,122.4239 101.2942,122.2229 100.9742,122.2949" id="Fill-107" fill="#000"/><path d="M121.1744,119.9121 C116.9914,118.6161 112.5614,119.5311 108.6524,120.3391 C108.3264,120.4061 108.1184,120.7231 108.1854,121.0481 C108.2434,121.3311 108.4934,121.5261 108.7724,121.5261 C108.8134,121.5261 108.8534,121.5221 108.8944,121.5141 C112.6614,120.7341 116.9304,119.8531 120.8194,121.0581 C121.1374,121.1541 121.4704,120.9791 121.5704,120.6631 C121.6674,120.3471 121.4904,120.0101 121.1744,119.9121" id="Fill-109" fill="#000"/></g><g id="Group-127" transform="translate(55.000000, 46.474000)"><g id="Group-114"><mask id="bodysitting-in-flooroverall-mask-2" fill="#fff"><use xlink:href="#bodysitting-in-flooroverall-path-1"/></mask><g id="Clip-113"/><path d="M82.5299803,2.78951646 L82.9626197,3.69108354 L82.6568881,3.8436422 C80.5510567,4.92313175 73.7447242,8.84658292 72.2526636,9.64618754 C63.8412938,14.1538934 56.4494516,16.6317459 48.3845942,16.8620956 C39.7406687,17.1093131 32.8839829,16.6900167 25.0246674,15.6823252 L22.5471876,15.3501184 C20.9957664,15.1361767 18.9145728,14.8458512 18.3982887,14.7767706 L17.1173492,14.6107926 C15.7759433,14.4436263 14.6887506,14.332418 13.6692322,14.2616261 C10.5129167,14.0424623 8.07581648,14.23827 5.72130374,14.9702477 C5.45536858,15.0529223 5.19046536,15.1426034 4.92611218,15.2395221 L4.52993473,15.3903573 L4.16266527,14.4602427 C4.58166455,14.2947947 5.0017278,14.1467418 5.42443592,14.0153291 C7.77265103,13.2853092 10.1839209,13.0615016 13.1998856,13.2302055 L13.738502,13.2640281 C14.9851651,13.3505922 16.3239573,13.4956627 18.0823743,13.726179 L24.1256005,14.556304 C32.3735854,15.6544504 39.3953508,16.1187803 48.3560247,15.8625038 C56.0205887,15.6435874 63.0901105,13.339069 71.0921061,9.1301979 L71.7803107,8.76477802 C73.2850027,7.95840412 80.458308,3.82164453 82.3854384,2.86037047 L82.5299803,2.78951646 Z" id="Stroke-112" fill-opacity=".5" fill="#000" style="mix-blend-mode:overlay" mask="url(#bodysitting-in-flooroverall-mask-2)"/></g><g id="Group-117"><mask id="bodysitting-in-flooroverall-mask-4" fill="#fff"><use xlink:href="#bodysitting-in-flooroverall-path-3"/></mask><g id="Clip-116"/><path d="M90.6386746,8.60958457 L91.1281254,9.48161543 L90.806806,9.66693253 C89.1117887,10.6591617 83.3363604,14.1795576 81.2768316,15.3247443 C72.8728784,19.997704 64.6704355,22.7864204 54.3283527,23.6986644 L53.0644059,23.8056063 C45.1392954,24.4465162 38.6392904,24.4000267 28.2789419,23.8934 L25.0761308,23.7371617 C11.7066155,23.1149607 6.81561851,23.3940309 0.75281298,25.6578938 L0.230049119,25.8568252 L-0.131249119,24.9243748 C6.2642287,22.4463073 11.080381,22.1007284 24.5296543,22.7109749 L29.9243596,22.9703587 C39.8540087,23.4262153 46.2031855,23.4117998 54.2404671,22.7025338 C64.1558946,21.8279238 72.0642919,19.2066517 80.1192327,14.8203769 L80.7908632,14.4507679 C82.7215112,13.3772445 88.0034386,10.1630239 90.0099377,8.97579467 L90.6386746,8.60958457 Z" id="Stroke-115" fill-opacity=".5" fill="#000" style="mix-blend-mode:overlay" mask="url(#bodysitting-in-flooroverall-mask-4)"/></g><g id="Group-120"><mask id="bodysitting-in-flooroverall-mask-6" fill="#fff"><use xlink:href="#bodysitting-in-flooroverall-path-5"/></mask><g id="Clip-119"/><path d="M94.3827163,17.6970294 L95.1364837,18.3541706 C89.0438908,25.342619 71.2428097,31.1106986 54.5024224,31.9893134 L53.9385595,32.0170726 C48.5940571,32.2627462 44.4519019,32.281939 37.4762226,32.1641526 L33.3837292,32.0943001 C24.7037688,31.9657658 21.1258061,32.1113435 16.4417536,32.8913264 C11.4385739,33.7244501 6.72225554,35.2847827 1.67341818,37.8699699 L0.982821124,38.2288758 L0.516378876,37.3443242 C5.9218335,34.493917 10.9408625,32.7935589 16.2774965,31.9049089 L17.1067207,31.7716831 C21.3884112,31.1101333 25.0113909,30.9780054 32.8776955,31.0869343 L39.4348834,31.1944505 C45.0497983,31.2730289 48.8119673,31.241469 53.3814633,31.0410894 L53.8926425,31.0181273 C70.3615008,30.2611621 88.0406155,24.6390198 94.177978,17.9262894 L94.3827163,17.6970294 Z" id="Stroke-118" fill-opacity=".5" fill="#000" style="mix-blend-mode:overlay" mask="url(#bodysitting-in-flooroverall-mask-6)"/></g><g id="Group-123"><mask id="bodysitting-in-flooroverall-mask-8" fill="#fff"><use xlink:href="#bodysitting-in-flooroverall-path-7"/></mask><g id="Clip-122"/><path d="M94.6332334,27.9742904 L95.3695666,28.6509096 C89.0973913,35.4766262 71.155954,40.7768776 54.3990949,41.2193057 L51.2942432,41.2771223 C49.2140703,41.3086029 47.0826887,41.3274746 43.9243861,41.3461064 L39.1750055,41.3738649 C17.8784911,41.5329488 9.37723841,42.3999107 -1.39767784,46.3400316 C-2.35832272,46.6913157 -3.31258998,47.0655026 -4.26214599,47.4635894 L-5.21019329,47.8696799 L-5.61100671,46.9535201 C-4.32995503,46.3930691 -3.04129691,45.8763004 -1.74111164,45.4008547 L-0.656769057,45.0119925 C9.7607444,41.3516906 18.4662376,40.5287225 39.158771,40.3739574 L48.3543086,40.3131521 C50.3272676,40.2939371 51.9458019,40.2696469 53.8084908,40.2326982 C70.2925999,39.9059455 88.1120698,34.7479043 94.4225798,28.1981129 L94.6332334,27.9742904 Z" id="Stroke-121" fill-opacity=".5" fill="#000" style="mix-blend-mode:overlay" mask="url(#bodysitting-in-flooroverall-mask-8)"/></g><g id="Group-126"><mask id="bodysitting-in-flooroverall-mask-10" fill="#fff"><use xlink:href="#bodysitting-in-flooroverall-path-9"/></mask><g id="Clip-125"/><path d="M95.0335647,36.2780482 L95.5944353,37.1059518 C83.5636285,45.2563273 64.9141368,48.9985883 37.3358142,48.1543941 L35.600522,48.0956584 C22.4527399,47.6094377 7.7655123,51.4661893 -0.272057875,58.7176032 L-0.632793836,59.0495476 L-1.31720616,58.3204524 C6.74081211,50.7562725 21.6028769,46.7136777 35.0369637,47.0771216 L37.3609803,47.1546983 C64.4647727,47.9849989 82.8198234,44.3678689 94.6617709,36.5270566 L95.0335647,36.2780482 Z" id="Stroke-124" fill-opacity=".5" fill="#000" style="mix-blend-mode:overlay" mask="url(#bodysitting-in-flooroverall-mask-10)"/></g></g><g id="Group-151" transform="translate(0.000000, 48.474000)"><path d="M179.5299,64.0903 C179.0589,64.2833 178.5849,64.4913 178.1079,64.7083 C177.9539,64.7783 177.7999,64.8543 177.6449,64.9263 C177.3199,65.0793 176.9939,65.2343 176.6659,65.3973 C176.4849,65.4873 176.3029,65.5813 176.1209,65.6743 C175.8139,65.8313 175.5069,65.9913 175.1979,66.1563 C175.0119,66.2563 174.8269,66.3573 174.6409,66.4593 C174.3269,66.6323 174.0129,66.8093 173.6979,66.9893 C173.5219,67.0903 173.3459,67.1913 173.1689,67.2943 C172.8199,67.4983 172.4689,67.7093 172.1199,67.9223 C171.9799,68.0073 171.8409,68.0893 171.7019,68.1753 C170.7099,68.7883 169.7169,69.4333 168.7249,70.1043 C168.5999,70.1893 168.4749,70.2763 168.3499,70.3613 C167.9789,70.6153 167.6099,70.8703 167.2409,71.1313 C167.0849,71.2403 166.9289,71.3523 166.7739,71.4633 C166.4319,71.7063 166.0909,71.9513 165.7509,72.1993 C165.5919,72.3163 165.4319,72.4323 165.2739,72.5493 C164.9299,72.8033 164.5869,73.0593 164.2449,73.3173 C164.0989,73.4273 163.9539,73.5363 163.8089,73.6473 C163.4269,73.9373 163.0479,74.2293 162.6709,74.5243 C162.5689,74.6023 162.4679,74.6793 162.3679,74.7573 C161.3929,75.5213 160.4299,76.2963 159.4829,77.0763 C159.3989,77.1463 159.3149,77.2173 159.2299,77.2873 C158.8499,77.6013 158.4729,77.9163 158.0979,78.2323 C157.9709,78.3393 157.8439,78.4473 157.7179,78.5553 C157.3869,78.8353 157.0589,79.1153 156.7329,79.3953 C156.5959,79.5133 156.4599,79.6313 156.3229,79.7493 C156.0089,80.0213 155.6989,80.2923 155.3899,80.5633 C155.2549,80.6823 155.1199,80.8003 154.9859,80.9183 C154.6569,81.2093 154.3339,81.4973 154.0119,81.7853 C153.9129,81.8743 153.8109,81.9643 153.7119,82.0533 C152.8699,82.8103 152.0509,83.5583 151.2639,84.2893 C151.1419,84.4023 151.0239,84.5133 150.9029,84.6263 C150.6399,84.8713 150.3799,85.1153 150.1239,85.3573 C149.9689,85.5023 149.8189,85.6453 149.6669,85.7883 C149.4559,85.9883 149.2459,86.1883 149.0399,86.3843 C148.8749,86.5423 148.7119,86.6983 148.5509,86.8533 C148.3699,87.0273 148.1929,87.1973 148.0169,87.3673 C147.8429,87.5373 147.6689,87.7053 147.4979,87.8713 C147.3519,88.0133 147.2119,88.1513 147.0689,88.2893 C146.8859,88.4693 146.7019,88.6493 146.5239,88.8233 C146.4419,88.9053 146.3629,88.9843 146.2809,89.0653 C143.4379,91.8733 141.4169,94.0193 140.6419,94.8533 C140.6399,94.8553 140.6389,94.8583 140.6369,94.8603 L140.6369,94.8583 C140.5859,87.0463 140.8069,77.9323 140.4379,73.1513 C140.4379,73.1513 145.5119,67.3843 145.5119,60.4663 C145.5119,53.0883 142.5129,46.7433 136.7119,36.6673 C132.4099,19.4283 127.6389,8.3873 125.1569,3.5383 C124.4169,3.3093 122.7619,2.8613 122.1459,2.6373 C126.2089,10.1423 132.5909,33.8933 132.6389,36.7683 C131.5939,38.9573 127.4639,43.9933 118.6999,49.0663 C105.2139,45.3593 94.3619,41.6403 90.2979,39.8223 C86.4729,29.3793 79.6579,14.5213 69.9089,0.6843 C69.2969,0.9073 67.6359,1.4933 67.3329,1.5823 C76.9319,15.7483 84.9729,34.2863 85.7229,40.6763 C76.6579,54.3773 64.7489,61.5023 57.9969,64.7873 C59.8339,72.1743 61.7529,80.3603 62.4499,84.3833 C64.0769,93.7683 67.5629,107.3623 63.5899,117.1473 C55.8439,134.3153 49.6229,143.8093 45.5499,156.5933 C42.1119,167.3773 39.6289,179.0743 42.8639,189.9203 C45.6879,199.3823 52.7119,207.2333 61.1149,212.4183 C69.5179,217.6033 79.1209,222.0513 88.9929,221.8263 C108.0649,221.3913 120.9929,222.7623 137.0539,227.2673 C140.8589,222.9693 144.3989,222.4973 143.8989,213.9093 C140.9989,214.0403 137.7319,214.3273 136.2599,214.4783 C136.0219,177.5953 155.6599,167.9673 165.1169,159.5603 C166.0459,146.0833 162.6039,143.0033 162.6039,132.2533 C162.6039,117.2813 163.3729,114.3933 167.3639,102.9613 C167.9469,101.2923 167.2859,99.0833 166.5219,97.0513 C166.5199,97.0483 166.5189,97.0443 166.5179,97.0413 C166.3679,96.6403 166.2139,96.2473 166.0639,95.8663 C165.9679,95.6233 165.8749,95.3833 165.7859,95.1523 C165.7699,95.1133 165.7569,95.0763 165.7409,95.0373 C165.6319,94.7503 165.5259,94.4703 165.4349,94.2073 C164.2189,90.7013 164.3719,84.1593 165.7319,80.7063 C168.6389,73.3283 174.3439,68.2423 179.5299,64.0903" id="Fill-128" fill="#323C84"/><path d="M66.9469,59.5948 C94.2859,75.7578 71.8459,118.0278 71.8459,118.2208 C72.9509,150.7858 51.7379,167.2788 62.1239,188.7138 C72.7309,204.8448 91.2859,209.9448 115.4439,217.6748 C122.3479,219.8838 126.7569,222.6868 128.8469,225.1848 C116.2729,222.3428 104.7209,221.4678 88.9929,221.8268 C79.1209,222.0518 69.5179,217.6028 61.1149,212.4178 C52.7119,207.2328 45.6879,199.3818 42.8639,189.9198 C39.6289,179.0738 42.1119,167.3778 45.5489,156.5938 C49.6229,143.8098 55.8439,134.3158 63.5899,117.1458 C67.5629,107.3618 64.0769,93.7678 62.4499,84.3838 C61.7529,80.3608 59.8339,72.1748 57.9969,64.7878 C60.4319,63.6028 63.5439,61.9078 66.9469,59.5948 Z M105.816,137.9407 C101.655,134.7187 149.709,145.4567 164.83,148.5237 C165.219,151.3397 165.42,154.6217 165.149,159.0307 C144.473,150.4237 123.4,144.7857 105.816,137.9407 Z M142.8518,92.528 C146.0418,90.97 149.5578,89.822 152.3678,92.686 C157.8698,99.367 161.7558,97.097 166.8898,98.081 C167.4718,99.806 167.8488,101.571 167.3638,102.961 C167.2638,103.249 167.1668,103.529 167.0688,103.807 C150.0378,113.705 135.7848,132.933 114.3678,126.686 C128.4248,120.898 136.9968,108.951 140.6798,94.814 C141.0928,94.37 141.8348,93.581 142.8518,92.528 Z" id="Combined-Shape" fill-opacity=".25" fill="#000" style="mix-blend-mode:overlay"/><path d="M143.8992,213.9093 C140.9982,214.0403 137.7322,214.3273 136.2602,214.4783 C136.2542,213.7413 136.2712,213.0343 136.2822,212.3183 C135.6662,217.0093 136.7292,222.2533 137.1812,227.1313 C140.9372,222.9633 144.3942,222.4013 143.8992,213.9093 Z" id="Fill-136" fill-opacity=".25" fill="#000" style="mix-blend-mode:overlay"/><g id="Group-140" transform="translate(0.000000, 86.000000)"><mask id="bodysitting-in-flooroverall-mask-12" fill="#fff"><use xlink:href="#bodysitting-in-flooroverall-path-11"/></mask><g id="Clip-139"/><path d="M3.3345,4.0952 C1.9285,5.9832 1.2415,4.3902 0.0835,6.6682 C-0.2905,8.4402 0.7005,10.2422 0.8265,10.3852 C2.2315,11.9842 3.4865,13.7412 4.9245,15.8212 C9.4655,22.3902 15.8235,32.1742 34.4875,50.3082 C59.0595,74.1822 68.2715,76.5762 70.9115,80.4252 L76.9085,74.8342 C76.9085,74.8342 63.1575,49.4142 40.0865,24.5752 C40.0865,24.5752 22.8635,8.1132 19.7705,4.0672 C19.4355,3.6282 19.0155,2.9772 18.5205,2.1582 C13.1885,-0.2488 7.2115,-1.1958 3.3345,4.0952" id="SKIN" fill="#e88f70" mask="url(#bodysitting-in-flooroverall-mask-12)"/></g><path d="M49.3834,144.146 C33.8514,132.495 27.9084,115.097 12.3764,103.445 C11.2314,102.138 7.4534,100.126 4.9434,101.849 C9.4834,108.419 15.8484,118.198 34.4874,136.309 C44.9494,146.473 52.6194,152.736 58.1914,156.883 C57.0124,151.85 53.5904,147.229 49.3834,144.146" id="Fill-141" fill-opacity=".15" fill="#000" style="mix-blend-mode:overlay"/><path d="M85.9703,163.2475 C90.1233,165.3165 95.7693,168.9595 95.9883,170.7395 C95.9213,172.1805 92.8973,171.4205 89.5563,170.2275 C87.9103,169.6405 85.1393,168.0565 84.7113,168.8515 C84.2593,169.6915 85.2383,172.1055 86.8183,174.1335 C91.3373,179.9345 95.9743,181.4355 101.6953,186.1505 C102.2143,186.5785 102.7753,187.1635 102.6283,187.8195 C102.3853,188.9065 100.7783,188.7055 99.7653,188.2395 C96.4913,186.7345 93.1103,184.7755 89.8373,183.2695 C93.0243,185.9795 96.3193,189.1445 99.5053,191.8545 C99.8553,192.1515 100.4083,192.6845 100.4003,193.1435 C100.3793,194.1425 98.6923,193.9435 97.7713,193.5555 C94.2833,192.0835 90.1303,189.8365 86.2133,187.2225 C89.0813,190.2405 96.1783,195.5295 94.9503,197.1215 C94.3233,198.6965 80.9543,189.0795 76.7023,182.4735 C72.8903,176.5515 71.5593,172.1545 70.9443,169.5075 C70.3513,166.9565 67.5873,162.7305 64.9423,160.6705 C62.8753,159.0615 72.2623,152.7915 73.6203,155.0325 C75.7583,158.5565 77.3953,158.9915 79.0873,159.9245 C81.3203,161.1545 83.6903,162.1115 85.9703,163.2475" id="SKIN" fill="#e88f70"/><path d="M84.3795,178.1089 C81.8215,171.6999 70.4585,165.8249 69.1985,165.6639 C70.0535,167.0509 70.6925,168.4289 70.9435,169.5079 C71.5595,172.1539 72.8905,176.5509 76.7025,182.4739 C77.9675,184.4389 80.0415,186.6699 82.3455,188.7949 C79.3895,183.6209 86.7755,184.7909 84.3795,178.1089" id="Fill-145" fill-opacity=".15" fill="#000" style="mix-blend-mode:overlay"/><path d="M123.8873,63.8017 C124.1003,65.4467 123.2643,66.9107 122.0203,67.0717 C120.7773,67.2327 119.5963,66.0297 119.3833,64.3837 C119.1703,62.7387 120.0063,61.2747 121.2493,61.1137 C122.4933,60.9527 123.6743,62.1557 123.8873,63.8017 Z M122.5738,55.313 C122.7858,56.958 121.9508,58.422 120.7068,58.583 C119.4628,58.744 118.2818,57.541 118.0688,55.895 C117.8568,54.25 118.6918,52.786 119.9358,52.625 C121.1798,52.464 122.3608,53.667 122.5738,55.313 Z" id="Combined-Shape" fill="#10145F"/></g></g></g></g><g id="Head" transform="translate(81.000000, 268.000000) scale(1 1)"><g id="Head/Shoulders Lenght" stroke="none" stroke-width="1" fill="none" fill-rule="evenodd"><g id="Face" transform="translate(32.500000, 25.500000)"><path d="M30.7767,0.5676 C45.7477,-1.3684 55.5807,16.5326 54.5617,32.3626 C54.4857,33.5426 54.9987,35.8566 55.1797,36.9336 C56.7807,46.4006 48.3307,70.7006 38.7557,71.4606 C38.3803183,71.4903702 38.0020397,71.5077643 37.6213478,71.5132798 C33.4398567,84.9144331 44.1499,89.254 44.1499,89.254 C38.3569,96.607 26.5789,97.275 26.5789,97.275 C8.0839,97.943 0.6259,86.473 0.6259,86.473 C16.6550083,81.083045 10.1556786,56.0912938 7.99144992,49.115552 C7.7631801,48.4631396 7.60716858,47.9590756 7.51793398,47.6565987 C7.46420413,47.4985927 7.42642476,47.3913952 7.40791403,47.3393646 C2.83753962,48.4696808 2.0687,43.8703838 2.0687,41.5796 C2.0687,39.2856 -0.2433,37.1386 1.4947,34.1256 C4.0567,29.6826 8.9497,32.4046 8.9497,32.4046 C11.2427,16.3496 14.7147,2.6446 30.7767,0.5676 Z" id="sk_face" fill="#e88f70"/><path d="M10.9747,55.6816 C15.2012616,63.0778418 27.2956206,71.6606229 37.6173544,71.5133372 C33.1096076,84.9575519 22.1724502,92.1250987 9.6239,90.429 C3.2939,89.574 0.6259,86.473 0.6259,86.473 C16.6609027,81.0810629 10.1508955,56.0729104 7.9890641,49.1078636 C8.53782006,50.6782986 9.50619578,53.1121587 10.9747,55.6816 Z" id="sd_face" fill-opacity=".25" fill="#000" style="mix-blend-mode:overlay"/></g><g id="Hair" transform="translate(6.450000, 13.050000)"><path d="M28.641,6.8073 C35.168,-0.6457 45.512,-0.6767 54.109,0.6903 C61.921,1.9333 71.019,5.3293 76.854,11.9133 C86.083,22.3263 81.177,35.1653 80.493,38.2963 C80.442,38.1473 80.396,38.0153 80.347,37.8683 C79.726,32.9133 77.587,27.6803 75.208,23.5853 C72.093,18.2733 69.672,20.5923 60.717,23.4383 C53.524,25.7233 47.482,24.4343 46.466,23.4973 C47.482,26.1413 47.811,34.2683 42.94,39.1173 C39.2101667,42.8308417 35.3636962,44.6589024 35.0038653,44.825917 L34.977,44.8383 C34.975,44.8503 34.974,44.8603 34.972,44.8713 C34.972,44.8713 30.069,42.1673 27.524,46.6203 C25.797,49.6393 28.116,51.7783 28.125,54.0713 C28.134,56.3623 28.921,60.9563 33.486,59.8113 C33.5,59.8493 33.536,59.9483 33.602,60.1403 C33.688,60.4303 33.839,60.9053 34.055,61.5193 C36.218,68.3683 42.925,93.4983 26.852,98.9713 C26.852,98.9713 19.31,102.0463 16.556,103.0813 C11.579,103.2023 5.675,100.0573 3.62376795e-13,94.4863 C9.023,93.2933 11.067,81.6083 8.601,67.0653 C6.269,53.3253 5.999,36.0983 11.306,24.0013 C16.521,12.1123 24.195,8.3073 28.641,6.8073 Z M75.0466,74.3795 C75.3296,78.0875 74.9096,81.7175 74.8866,83.4635 C74.8496,86.4285 76.0126,87.9445 77.1016,88.6805 C78.3776,89.5435 81.0256,89.8415 82.7296,89.2365 C81.9346,92.9785 79.8306,96.5045 76.6586,98.6425 C74.6986,99.9645 72.1336,101.1075 69.6356,101.4255 C67.4966,100.3045 60.0766,95.4825 63.6736,83.9505 C64.0526,83.9445 64.4286,83.9305 64.8016,83.9005 C68.5746,83.6015 72.1686,79.6405 75.0466,74.3795 Z" id="color_hair" fill="#b5d3ff"/><path d="M75.0466,74.3795 C75.3296,78.0875 74.9096,81.7175 74.8866,83.4635 C74.8496,86.4285 76.0126,87.9445 77.1016,88.6805 C78.3776,89.5435 81.0256,89.8415 82.7296,89.2365 C81.9346,92.9785 79.8306,96.5045 76.6586,98.6425 C74.6986,99.9645 72.1336,101.1075 69.6356,101.4255 C67.4966,100.3045 60.0766,95.4825 63.6736,83.9505 C64.0526,83.9445 64.4286,83.9305 64.8016,83.9005 C68.5746,83.6015 72.1686,79.6405 75.0466,74.3795 Z M30.9697,66.6849 C31.3097,66.6149 31.6387,66.8289 31.7107,67.1659 C33.5117,75.6319 33.6937,82.3159 32.2667,87.5999 C32.1917,87.8779 31.9387,88.0619 31.6627,88.0619 C31.6097,88.0619 31.5547,88.0549 31.4997,88.0399 C31.1667,87.9499 30.9697,87.6069 31.0597,87.2739 C32.4337,82.1859 32.2467,75.6939 30.4887,67.4259 C30.4157,67.0889 30.6317,66.7569 30.9697,66.6849 Z M71.5371,18.2621 C73.0061,17.7591 74.7731,17.1561 76.3631,17.6341 C77.2421,17.8981 78.0011,18.5491 78.4451,19.4191 C78.9581,20.4211 79.0111,21.6351 78.5941,22.8381 C78.4801,23.1641 78.1261,23.3341 77.7981,23.2231 C77.4721,23.1101 77.2991,22.7541 77.4121,22.4271 C77.8031,21.3031 77.5841,20.4801 77.3321,19.9871 C77.0421,19.4191 76.5571,18.9981 76.0041,18.8311 C74.7941,18.4671 73.3061,18.9781 71.9941,19.4271 C70.6911,19.8731 69.3441,20.3781 67.9461,20.9011 C63.2601,22.6551 57.9691,24.6351 53.8931,24.6351 C53.7581,24.6351 53.6241,24.6331 53.4901,24.6291 C53.1451,24.6171 52.8751,24.3281 52.8871,23.9831 C52.8981,23.6451 53.1761,23.3791 53.5121,23.3791 C53.5181,23.3791 53.5251,23.3791 53.5331,23.3801 C57.4551,23.5111 62.7761,21.5021 67.5081,19.7301 C68.9171,19.2021 70.2761,18.6941 71.5371,18.2621 Z M60.9116,4.0432 C63.1346,3.7402 64.8476,4.0962 66.0046,5.1042 C66.2646,5.3312 66.2916,5.7262 66.0646,5.9852 C65.8376,6.2452 65.4436,6.2722 65.1826,6.0462 C64.3106,5.2852 62.9256,5.0272 61.0806,5.2812 C54.8396,6.1372 48.9926,10.8612 45.4386,17.9182 C45.3286,18.1362 45.1086,18.2622 44.8796,18.2622 C44.7856,18.2622 44.6886,18.2402 44.5986,18.1952 C44.2896,18.0402 44.1656,17.6642 44.3216,17.3562 C48.0606,9.9312 54.2616,4.9552 60.9116,4.0432 Z M45.1583,0.453 C45.4903,0.38 45.8293,0.593 45.9023,0.93 C45.9763,1.267 45.7623,1.6 45.4253,1.674 C41.3903,2.559 37.9943,5.844 36.9753,9.847 C36.9043,10.129 36.6493,10.317 36.3703,10.317 C36.3193,10.317 36.2673,10.311 36.2153,10.298 C35.8813,10.213 35.6793,9.872 35.7643,9.538 C36.8963,5.088 40.6723,1.437 45.1583,0.453 Z" id="sd_hair" fill-opacity=".25" fill="#000" style="mix-blend-mode:overlay"/></g></g></g><g id="Expression" transform="translate(117.000000, 318.000000) scale(1 1)"><g id="Expression/Laugh" stroke="none" stroke-width="1" fill="none" fill-rule="evenodd"><g id="Laugh" transform="translate(0.000000, 0.500000)"><path d="M31.1978,28.8898 C30.6838,28.8208 29.9118,28.8148 29.3978,28.7458 C29.2438,28.7248 29.6538,29.2558 29.5848,29.3958 C29.5348,29.4958 29.5818,29.6168 29.6318,29.7168 C30.1468,30.7498 31.0698,31.5458 32.1088,32.0508 C33.1468,32.5548 34.3008,32.7868 35.4508,32.8898 C36.1348,32.9508 36.8248,32.9678 37.5058,32.8758 C39.8138,32.5658 40.9378,32.1488 42.1268,30.1448 C42.6758,29.2188 36.8868,26.9808 34.9068,27.7378 C34.1068,28.0428 32.0478,29.0038 31.1978,28.8898" id="Fill-25" fill="#AA614D"/><path d="M37.6197,26.6764 C37.0417,26.8584 36.5457,27.4214 36.6247,28.0214 C36.6977,28.5734 37.1907,28.9554 37.6197,29.3104 C38.4017,29.9574 39.0907,30.7184 39.6567,31.5614 C39.8047,31.7794 39.9617,32.0184 40.2117,32.1004 C40.6257,32.2364 41.0267,31.8774 41.3027,31.5404 C42.1667,30.4824 42.8757,29.3084 43.5827,28.1394 C43.6507,28.0254 43.7167,27.8694 43.6257,27.7724 C43.5737,27.7184 43.4927,27.7084 43.4177,27.7014 C42.3947,27.6064 41.3807,27.4184 40.3907,27.1394 C39.4857,26.8844 38.5847,26.3734 37.6197,26.6764" id="Fill-27" fill="#300D07"/><path d="M40.1822,31.1217 C40.3852,31.1557 40.5932,31.1977 40.7672,31.3087 C40.9402,31.4187 41.0742,31.6147 41.0542,31.8197 C41.0332,32.0467 40.8382,32.2157 40.6482,32.3417 C39.9282,32.8207 39.0692,33.0547 38.2112,33.1617 C37.0862,33.3017 35.9362,33.2327 34.8362,32.9607 C34.5612,32.8927 34.2792,32.8077 34.0682,32.6187 C33.4742,32.0877 33.9802,31.8027 34.4832,31.6247 C35.0842,31.4117 35.7032,31.2497 36.3312,31.1397 C37.6022,30.9177 38.9112,30.9087 40.1822,31.1217 Z M37.2839,26.5489 C39.2539,26.3059 39.6289,26.4559 41.5329,27.0169 C41.6109,27.0399 41.4889,27.5509 42.2899,27.4859 C42.4199,27.4749 43.0039,27.6469 42.9729,27.7739 C42.8649,28.2279 41.0969,29.0219 39.6969,29.3219 C37.6799,29.7539 35.3019,29.9959 32.5309,29.6459 C31.3549,29.4979 30.4419,29.2139 30.4779,28.7459 C30.5019,28.4429 32.2789,27.8099 32.7849,27.4749 C33.9509,26.7039 35.8969,26.7199 37.2839,26.5489 Z" id="Combined-Shape" fill="#F4F0E9"/><path d="M43.8822,27.5104 C44.0362,27.4814 44.0802,27.4854 44.1142,27.5264 C44.1472,27.5664 44.1342,27.6174 43.9382,27.7624 L43.8677983,27.8091718 C43.8795229,27.8257026 43.8703766,27.865961 43.835,27.935 C42.676,30.359 42.505,30.834 41.142,32.747 C40.73,33.326 39.921,33.944 39.288,34.267 C37.495,35.178 34.22,35.209 32.359,33.963 C31.349,33.288 30.439,32.35 29.869,31.282 C29.6402631,30.8561975 28.5725396,28.5055243 29.1041621,28.6449901 C29.0602594,28.6118351 29.0364925,28.5751347 29.0542,28.5304 C29.0882,28.4454 29.2692,28.5044 29.4102,28.5004 C31.5462,28.4434 33.8992,25.8334 36.0592,26.0934 C36.5742,26.1554 37.0812,26.3304 37.5972,26.2794 C38.0892,26.2294 38.5342,25.9644 39.0142,25.8474 C40.6562,25.4524 42.0472,27.8554 43.8822,27.5104 Z M37.0982,28.0094 C34.6266493,28.4319042 31.6868788,30.2167711 29.3578835,28.8041236 L29.418,28.853 C29.79,29.185 30.578,29.911 31.02,30.206 C31.505,30.528 32.187,30.879 32.723,31.107 C33.837,31.582 35.581,31.805 37.556,31.562 C39.37,31.338 41.446,30.255 42.692,28.826 C42.9537045,28.5263306 43.3015046,28.1882256 43.5517357,27.9848435 C42.6874923,28.3660531 41.5815982,28.1548005 40.4772,27.9974 C39.0802,27.7974 38.4902,27.7724 37.0982,28.0094 Z M37.3866,0.4246 C37.6876,0.5226 37.8516,0.8476 37.7526,1.1476 C37.7446,1.1716 36.9626,3.5656 36.6966,5.2346 C36.4056,7.0636 36.3506,9.1006 37.9056,11.6046 C38.4326,12.4526 39.1026,13.1816 39.7506,13.8856 C40.8706,15.1036 41.9286,16.2526 41.7186,17.6506 C41.5336,18.8746 40.4376,20.0126 38.1626,21.3386 C38.0716,21.3926 37.9726,21.4176 37.8746,21.4176 C37.6776,21.4176 37.4846,21.3156 37.3786,21.1326 C37.2186,20.8586 37.3116,20.5076 37.5846,20.3486 C39.4786,19.2436 40.4596,18.3056 40.5846,17.4796 C40.7126,16.6256 39.8756,15.7156 38.9066,14.6626 C38.2546,13.9536 37.5156,13.1496 36.9316,12.2096 C35.1786,9.3866 35.2376,7.1026 35.5636,5.0536 C35.8446,3.2936 36.6296,0.8916 36.6626,0.7906 C36.7616,0.4886 37.0856,0.3256 37.3866,0.4246 Z M3.8396,10.4928 C4.0536,10.7258 4.0376,11.0888 3.8046,11.3028 C3.5706,11.5158 3.2086,11.5008 2.9936,11.2668 C2.8106,11.0678 2.0856,10.9478 1.5746,11.3108 C1.4236,11.4198 1.2246,11.7008 1.1646,12.1378 C1.09565035,12.6395188 1.23061499,13.2014971 1.54936675,13.7657215 C2.58537428,12.6869438 3.65768073,12.997596 4.0001,13.1397 C4.5171,13.3537 4.7581,13.6677 4.6771,14.0237 C4.6071,14.3337 4.2971,14.5267 3.9911,14.4557 C3.8581,14.4257 3.7461,14.3517 3.6671,14.2517 C3.5821,14.1977 3.3551,14.0957 3.0831,14.1417 C2.78586608,14.1897702 2.48799029,14.3995923 2.21004258,14.7536818 C2.5832713,15.4925326 2.38094105,16.2512711 2.2136,16.8788 C1.9986,17.6838 1.9566,18.0198 2.3606,18.3478 C2.6066,18.5478 2.6446,18.9088 2.4446,19.1548 C2.3316,19.2948 2.1656,19.3668 1.9996,19.3668 C1.8726,19.3668 1.7446,19.3248 1.6386,19.2388 C0.6186,18.4108 0.8996,17.3548 1.1056,16.5838 C1.2856,15.9088 1.3806,15.4768 1.0756,15.0978 C0.0346,13.8038 -0.0684,12.6888 0.0286,11.9808 C0.1216,11.3048 0.4506,10.7058 0.9086,10.3788 C1.8846,9.6808 3.2626,9.8618 3.8396,10.4928 Z M25.2281,7.8173 C28.5091,7.8403 30.3001,9.8653 30.3741,9.9513 C30.4661,10.0573 30.4681,10.2143 30.3781,10.3223 C30.2891,10.4313 30.1331,10.4573 30.0131,10.3863 C26.8321,8.5323 23.8581,9.9533 21.8891,10.8933 C21.2901,11.1803 20.8171,11.4063 20.4411,11.4893 C20.2281,11.5353 20.0331,11.5563 19.8531,11.5563 C18.8511,11.5563 18.3411,10.9153 18.2011,10.5173 C18.1751,10.4443 18.1801,10.3633 18.2151,10.2933 C18.2501,10.2233 18.3131,10.1713 18.3871,10.1483 C18.9211,9.9853 19.4171,9.6973 19.9931,9.3643 C21.1811,8.6733 22.6571,7.8163 25.1491,7.8163 C25.1751,7.8163 25.2021,7.8163 25.2281,7.8173 Z M50.2945,7.3407 C50.7775,7.5897 51.2335,7.8257 51.6575,7.9407 C51.7405,7.9637 51.8095,8.0217 51.8445,8.1007 C51.8795,8.1797 51.8775,8.2697 51.8385,8.3467 C51.8035,8.4167 51.4495,9.0377 50.0235,9.0797 C50.0015,9.0797 49.9795,9.0807 49.9575,9.0807 C49.3685,9.0807 48.8105,8.8507 48.2195,8.6077 C46.8875,8.0597 45.3785,7.4377 42.6685,8.8457 C42.5495,8.9067 42.4035,8.8787 42.3165,8.7757 C42.2315,8.6737 42.2275,8.5247 42.3085,8.4177 C42.3525,8.3607 43.3975,7.0177 45.7825,6.4547 C47.7035,6.0007 49.1395,6.7447 50.2945,7.3407 Z" id="Combined-Shape" fill="#35211F"/></g><path d="M28.6324,-0.9752 C28.9884,-0.9752 29.3294,-0.5632 29.6434,0.2488 C29.9394,1.0138 30.2894,2.4448 29.7274,2.9558 C29.3864,3.2648 28.1574,3.4508 25.8324,3.7778 C23.7744,4.0678 21.4414,4.3958 20.6494,4.8308 C18.8904,5.7948 14.1394,9.3148 14.0914,9.3498 C14.0404,9.3878 13.9804,9.4068 13.9204,9.4068 C13.8614,9.4068 13.8014,9.3878 13.7514,9.3508 C13.6504,9.2768 13.6094,9.1458 13.6494,9.0268 C13.7314,8.7888 15.6994,3.1708 20.2624,1.0968 C24.38065,-0.77565 27.645135,-0.960425 28.51258,-0.974221375 L28.6324,-0.9752 Z" id="Combined-Shape" fill="#b5d3ff"/><path d="M48.4494,-0.3272 C49.7024,0.2098 51.1314,1.2768 51.3324,1.8258 C51.3634,1.9108 51.7284,3.5668 51.3584,3.8678 C51.3064,3.9098 51.2274,3.9308 51.1494,3.9308 C51.0854,3.9308 51.0234,3.9168 50.9764,3.8878 C50.7905667,3.77113333 50.4457056,3.63363333 50.1628815,3.52622593 L50.0024,3.4658 C49.8684,3.4148 49.7584,3.3738 49.6954,3.3458 C48.8644,2.9818 46.4904,2.9348 44.5824,2.8988 C42.3624,2.8558 41.1854,2.8198 40.8174,2.5408 C40.2134,2.0818 40.4364,0.6268 40.6634,-0.1612 C40.9054,-0.9992 41.2074,-1.4402 41.5634,-1.4712 C42.5354,-1.5572 45.6684,-1.5192 48.4494,-0.3272 Z" id="Combined-Shape" fill="#b5d3ff"/></g></g><g id="Accesory" transform="translate(81.000000, 268.000000) scale(1 1)"><g id="Accesory/Pin" stroke="none" stroke-width="1" fill="none" fill-rule="evenodd"><g id="Pin" transform="translate(28.000000, 36.000000)" fill="#e85d5d"><path d="M12.353868,-0.801030138 C12.353868,-0.801030138 11.1747843,-1.62326066 10.353868,-0.801030138 C9.53295174,0.021200387 3.33086802,7.19096986 2.35386802,8.69896986 C0.773868018,11.1419699 4.91486802,13.5739699 6.32286802,12.0249699 C7.29932244,10.9498977 11.3563408,5.30052334 12.8504258,1.69911293 C13.5076788,0.114840395 12.353868,-0.801030138 12.353868,-0.801030138 Z" id="color_pin" transform="translate(7.526419, 5.672551) rotate(-270.000000) translate(-7.526419, -5.672551)"/></g></g></g></g></g></g></svg>