<svg viewBox="177.8387096774194 48.05000000000007 420.5645161290322 912.9499999999997" xmlns="http://www.w3.org/2000/svg" overflow="visible" xmlns:xlink="http://www.w3.org/1999/xlink" width="420.5645161290322px" height="912.9499999999997px"><g id="Master/Character/Standing" stroke="none" stroke-width="1" fill="none" fill-rule="evenodd"><g id="Bottom/Standing" transform="translate(39.000000, 389.000000) scale(1 1)"><g id="Bottom/Standing/Pants and sandals" stroke="none" stroke-width="1" fill="none" fill-rule="evenodd"><path d="M204.720189,482.965332 L207.088952,491.347044 L208.516508,504.182635 L207.088952,513.059222 L213.744849,519.983584 L213.744849,527.544075 L222.960445,534.572672 L222.960445,543.807751 L233.446352,547.847612 L237.230981,556.206917 L245.590287,554.308271 L253.820509,559.296682 L259.991958,556.206917 L265.576246,561.162492 L276.638231,556.206917 L279.847922,561.162492 L290.131111,556.206917 L294.215709,559.296682 L304.762988,554.308271 L310.07339,556.206917 L315.321957,545.91974 L312.463374,524.80375 L295.108397,515.118304 L279.847922,513.059222 L275.566789,470.939926 L304.762988,442.398152 L353.916748,399.601807 L378.093703,431.566828 L412.845322,494.941704 L423.054215,536.225268 L427.922379,546.057024 L437.439523,543.807751 L446.193068,546.057024 L451.148931,542.638854 L459.066776,546.057024 L469.118768,546.057024 L472.988549,547.847612 L480.728767,543.807751 L488.304998,546.057024 L496.648354,543.807751 L508.458266,545.91974 L514.325205,539.286879 L521.045541,542.638854 L530.967755,540.662014 L538.775953,540.662014 L540.671703,539.286879 L548.297217,540.662014 L554.81764,534.572672 L554.81764,521.011956 L548.297217,504.182635 L521.045541,491.347044 L467.429016,482.965332 L454.574972,481.685213 L446.193068,451.847885 L416.349847,360.79803 L408.914378,333.067296 L425.689849,302.886253 L439.970451,267.503273 L442.891326,240.134886 L420.161713,165.654837 L393.166034,101.672278 L363.730443,31.2331738 L348.595142,1.11022302e-15 C278.208651,-1.29129898 241.420563,-1.93694847 238.230879,-1.93694847 C235.041194,-1.93694847 226.703748,4.52987092 213.218541,17.4635097 L198.484597,45.4708253 L196.48804,83.6206694 L204.720189,129.14435 L229.57129,197.959043 L258.163356,264.513198 L285.582185,312.566439 L301.397542,334.800977 L288.528357,363.241718 L272.125447,407.973383 L242.88044,448.431297 L204.720189,482.965332 Z" id="Fill" fill="#FFF"/><path d="M238.374393,-3.9861069 C240.127991,-3.80362254 241.131543,-1.70714992 239.988666,-0.362638725 C239.981334,-0.356346161 239.976096,-0.349004836 239.969811,-0.341663511 C239.140151,0.604318628 237.887282,1.17694196 236.093878,2.40608949 C253.2475,13.4222717 271.926354,15.3708691 291.333254,16.5454811 C291.601427,12.8580385 291.678946,9.65407459 292.150343,6.50884129 C292.306428,5.46532441 293.364453,3.88274453 294.200397,3.74955193 C296.254642,3.42338735 296.499768,5.22515821 296.512339,6.82556702 C296.538527,10.0190433 296.520719,13.2114708 296.520719,16.3304851 C304.491523,18.9125339 334.692373,14.2717679 350.16363,8.34627001 C349.500532,6.85178604 348.681348,5.42127646 348.259186,3.88169577 C348.053866,3.13078312 348.432031,1.54086192 348.82591,1.44122966 C349.757181,1.20630726 351.124233,1.30593953 351.821901,1.87541658 C352.802408,2.67562098 353.458173,3.96349911 354.038516,5.14859868 C357.471335,12.150125 361.135663,19.0572629 364.180889,26.226591 C377.43239,57.4251238 390.634655,88.6456807 403.591794,119.967967 C416.402276,150.93787 428.918397,182.03782 438.907828,214.064874 C442.4894,225.545657 444.477649,237.335825 444.445174,249.495156 C444.409558,262.792393 440.408967,275.024089 435.461391,287.026106 C428.995915,302.711371 421.900863,318.118714 412.491774,332.307397 C411.006349,334.54755 411.194908,336.297932 411.928193,338.647156 C418.904872,361.000441 425.707658,383.406164 432.655006,405.766791 C434.347846,411.2172 436.340285,416.578465 438.279299,421.950217 C444.742679,439.856757 451.24377,457.750712 457.735434,475.646764 C458.252924,477.076225 458.807077,478.4931 459.493222,480.306408 C466.729694,481.158001 474.059397,482.105032 481.407956,482.865384 C495.415787,484.316869 509.434094,485.673965 523.008239,489.733718 C530.708775,492.037845 537.981911,495.239711 544.667371,499.778747 C549.601329,503.12744 553.004817,507.564747 554.726989,513.231201 C556.989695,520.674255 559.824364,528.062774 556.430304,536.006088 C555.335615,538.569259 554.054462,540.730755 551.544533,542.049047 C547.432902,544.206348 543.85133,543.43446 540.952761,540.119327 C538.65339,541.815173 536.731137,544.149714 534.393006,544.694021 C532.165916,545.212109 530.401843,542.761155 527.30843,542.09729 C522.021448,546.088873 520.068816,547.205803 513.337263,542.641597 C510.896473,545.225743 509.124019,549.538247 504.759928,548.921576 C501.310348,548.432853 498.031518,546.732812 494.363,545.461714 C492.539216,546.468524 490.143471,548.788383 487.671254,548.874381 C485.221036,548.958282 482.694347,546.789445 479.977004,545.502616 C477.971994,546.941515 475.66529,549.314861 472.858905,550.423401 C469.481606,551.755327 466.712933,549.471126 464.572789,546.941515 C457.672581,551.477405 457.337365,551.429162 450.409921,545.083112 C443.633324,550.894294 442.404548,550.938342 436.603219,545.571834 C436.250195,545.689295 435.818605,545.715514 435.554622,545.9389 C430.327351,550.366768 426.030303,549.846583 422.619482,544.088886 C421.446227,542.108826 420.693039,539.906429 420.275066,537.642154 C418.647175,528.840955 417.037091,520.02717 415.80203,511.165142 C415.077126,505.96224 413.300482,501.365522 410.760175,496.789779 C399.292651,476.147023 387.874362,455.470706 376.838429,434.594076 C370.694552,422.970661 361.633249,413.821273 353.287423,403.740585 C347.824453,408.576421 342.795168,413.18887 337.590942,417.594714 C329.886216,424.115908 322.594225,431.34921 314.121645,436.676914 C306.378159,441.544213 301.511245,448.523715 295.933044,455.144541 C291.760655,460.096789 287.571504,465.041696 283.218936,469.833484 C279.989342,473.389831 278.309072,478.093523 278.672572,482.88531 C279.348241,491.785093 280.214565,500.682779 281.026416,509.919214 C286.314445,511.245897 291.268306,512.403729 296.171885,513.747191 L298.003142,514.249955 C301.057016,515.093188 304.11004,515.981576 307.016117,517.195516 C312.265387,519.387426 315.492887,523.330766 316.5132,529.144047 C317.678075,535.77536 318.390409,542.3427 316.423111,548.927868 C316.04285,550.203161 315.703444,551.502576 315.176527,552.717041 C312.444518,559.019043 309.113311,559.982855 302.935912,556.124464 C299.086168,558.762097 295.856573,564.540769 290.120192,559.474206 C282.297093,565.477312 280.37903,565.479409 274.418474,559.653544 C266.495857,564.897347 264.634362,564.809251 259.72764,559.226698 C256.949539,559.932514 254.199722,561.433291 251.779883,561.015884 C249.462704,560.616306 247.488073,558.224083 245.189749,556.582772 C236.483566,560.402359 232.546875,556.898449 230.545008,548.438097 C227.283987,547.922107 222.757526,548.836626 221.305622,544.786312 C220.150175,541.560324 220.444537,537.812054 220.064276,533.994565 C217.504065,532.536787 214.041915,531.221642 211.455515,528.920661 C208.473142,526.266247 210.165982,522.558878 211.063732,519.365402 C202.60896,513.902408 202.230795,512.429948 206.612694,502.549573 C201.839011,497.311013 202.958842,496.343007 205.973689,489.909909 C201.304761,486.663995 201.761493,485.460018 202.079948,483.339424 C202.422496,481.054174 204.731295,478.934629 206.494321,477.032177 C208.033171,475.375135 209.967995,474.069428 211.794921,472.698698 C231.162015,458.157631 247.477597,440.798544 260.995175,420.650802 C267.925762,410.322607 273.692522,399.761587 277.581025,387.771106 C282.739159,371.865602 289.585942,356.493916 296.091224,341.054061 C297.185913,338.45733 298.672386,335.209318 298.672386,335.209318 C298.672386,335.209318 296.167695,330.512968 294.774454,328.566468 C267.783296,290.826815 248.041179,249.240307 230.614147,206.436188 C219.475554,179.078217 209.075483,151.474836 201.458751,122.889815 C196.830677,105.516045 193.449188,87.9293772 194.074575,69.8760107 C194.357413,61.7250427 195.234212,53.4954176 196.863151,45.5101537 C201.148676,24.5076722 214.648446,10.213064 232.080716,-0.942603384 C233.841646,-2.06897236 235.643431,-3.23834053 237.590826,-3.91793745 C237.830715,-4 238.094697,-4.01547219 238.374393,-3.9861069 Z M221.458565,470.939926 C216.586412,474.866486 212.322886,478.302226 207.795377,481.950864 C206.791825,482.75841 206.869344,484.322112 207.95251,485.019538 C212.190895,487.745267 211.804349,488.327329 209.004249,492.865317 C208.710936,493.339357 208.473142,493.848006 208.245824,494.384971 C207.717859,495.63824 208.201827,497.096018 209.360416,497.803931 C209.907237,498.136388 210.427869,498.442626 210.965262,498.719499 C213.409195,499.980109 213.663749,501.702174 212.142707,503.837451 C211.590649,504.610388 210.922312,505.30257 210.394347,506.090189 C207.321885,510.679566 207.84566,512.283121 213.100168,514.50125 C217.01067,516.15095 217.261034,516.664843 215.940074,520.344944 C213.805168,526.296661 213.970681,526.623875 220.214076,528.639593 C220.754611,528.814736 221.322383,528.907027 221.868156,529.069585 C224.665113,529.899154 225.920078,531.733437 225.453918,534.659479 C225.304119,535.59812 225.074705,536.527322 224.948999,537.469109 C224.228285,542.888055 224.70073,543.455435 230.023329,543.62009 C231.163063,543.654699 232.460976,543.331681 233.402723,543.776356 C234.39161,544.242005 235.345927,545.311741 235.751329,546.339527 C236.13578,547.313825 235.608862,548.606947 235.796374,549.706049 C236.41757,553.328468 238.711704,554.373034 242.003104,552.617408 C242.669345,552.26083 243.24026,551.72701 243.900216,551.353652 C247.038674,549.571807 247.806528,549.846583 249.737162,552.93728 C250.29341,553.827678 250.954414,554.649906 251.67408,555.523524 C252.442982,556.460067 253.854031,556.539773 254.723497,555.69657 C255.874754,554.580688 256.817548,553.663023 257.80434,552.796746 C259.689929,551.140753 261.269633,551.604305 262.421938,553.713363 C263.482058,555.652522 263.823559,558.854388 266.500048,558.533467 C268.406587,558.305886 270.080571,556.08566 271.845692,554.739051 C272.145291,554.510421 272.357944,554.171672 272.648115,553.930457 C275.033385,551.94725 276.684323,552.200002 278.122608,554.822952 C278.482965,555.480525 278.537438,556.306948 278.89989,556.963473 C280.395791,559.670324 282.005874,560.018512 284.359718,558.025867 C285.35908,557.179517 286.141599,556.058392 286.946117,555.00229 C290.717295,550.050042 291.653804,550.139187 294.379528,555.715447 L294.382671,555.722789 C294.823689,556.620528 296.066083,556.721209 296.677852,555.929395 C297.684547,554.625785 298.765618,553.03901 299.822595,551.910544 C302.634218,548.907942 303.416737,548.921576 306.115224,551.840277 C306.515388,552.273415 306.953264,552.669846 307.448755,553.10718 C308.168421,553.742728 309.300822,553.604292 309.82774,552.800941 C312.309384,549.023305 312.881346,544.334296 312.894964,539.879161 C312.894964,539.879161 310.960141,540.48954 310.25514,540.587074 C301.78675,541.761686 293.345597,543.175416 284.849971,544.104618 C273.288168,545.370472 261.702271,545.354741 250.161419,543.58653 C243.358633,542.545111 237.89252,539.624312 235.110229,532.917488 C231.468947,524.146702 227.13314,515.580425 224.428367,506.527522 C222.057763,498.594697 221.281529,490.138539 220.30626,481.854378 C219.93019,478.665097 220.948408,475.312209 221.458565,470.939926 Z M551.333976,520.087998 C508.487109,520.394236 465.991171,522.779118 423.054215,526.673166 C424.168808,532.29767 423.95825,538.125633 427.877133,542.831422 C428.891161,544.049033 430.762084,544.042741 431.737352,542.792618 C432.345979,542.01234 432.90118,541.299183 433.451143,540.581831 C436.325619,536.836706 437.750286,536.915363 439.949092,540.916385 C440.348209,541.644225 440.772466,542.356334 441.311954,543.25617 C442.080855,544.535658 443.862737,544.724435 444.87886,543.631627 C446.095065,542.321725 447.098617,541.241501 448.122073,540.178058 C451.263674,536.914315 452.250465,537.091555 454.376991,540.900654 C454.748871,541.567666 455.180461,542.202166 455.660239,542.857641 C456.921488,544.577609 459.477509,544.622706 460.82361,542.967761 C461.599844,542.01234 462.317415,541.156551 463.075841,540.340616 C465.158369,538.100463 466.999961,538.521016 468.12922,541.413498 C468.403678,542.116168 468.390059,542.933152 468.684421,543.622188 C469.880722,546.42972 471.738027,546.856566 473.909597,544.656266 C475.2337,543.313852 476.162876,541.591787 477.385366,540.137156 C479.699403,537.382062 480.96589,537.444987 483.210789,540.203228 C483.976547,541.142918 484.768495,542.060583 485.653674,543.082076 C486.613229,544.18747 488.340638,544.164397 489.270862,543.035931 C490.354028,541.719736 491.295775,540.578684 492.268949,539.466998 C493.793133,537.725007 495.410549,537.356892 496.998634,539.417706 C497.577929,540.169668 498.00952,541.059017 498.678904,541.712395 C502.619785,545.563444 505.753005,545.21106 508.827563,540.617488 C509.463425,539.66836 509.975677,538.631136 510.659727,537.720811 C513.002047,534.597602 514.481187,534.645845 516.640186,537.84876 C519.766074,542.484283 520.671156,542.531477 523.904942,538.22107 C524.246443,537.766957 524.485284,537.225796 524.860307,536.805243 C526.884172,534.536774 528.387406,534.694088 530.170335,537.325429 C530.459458,537.750177 530.747534,538.175974 531.03142,538.596527 C531.912409,539.901185 533.776,540.191692 534.922019,539.113566 C536.234598,537.877077 536.808655,536.07216 537.877156,534.744429 C540.471936,531.514246 542.123921,531.614927 544.066078,535.366344 C544.867453,536.914315 545.455128,539.037006 547.475851,538.465432 C549.085935,538.010269 550.993522,536.642685 551.661859,535.174421 C553.932946,530.19071 554.54681,525.036051 551.333976,520.087998 Z M292.148248,518.834729 C284.959964,523.858293 280.928993,530.69831 279.847922,540.347957 C291.086033,538.765377 301.536386,537.291868 312.463374,535.753336 C312.404711,530.354316 312.253864,525.613918 307.97672,523.221695 C303.921656,520.953226 299.255871,519.753443 294.802738,518.249521 C294.055835,517.997818 292.849058,518.343909 292.148248,518.834729 Z M245.998458,466.447035 C239.710018,471.315382 233.911832,475.936222 227.960704,480.352553 C225.369067,482.274932 224.594928,484.411257 224.997187,487.646684 C226.950866,503.360265 232.266132,517.895039 239.646118,531.794265 C242.508023,537.184895 247.029246,538.958349 253.061036,538.982471 C254.648073,524.373234 264.622839,516.892424 276.638231,511.066559 C275.580206,500.184618 274.538942,489.467332 273.499773,478.787802 C263.307117,476.779426 254.131631,473.345783 245.998458,466.447035 Z M461.231107,487.528174 C454.912288,489.574306 448.515952,491.386564 442.136376,493.239725 C436.890248,494.765671 431.621074,496.208766 425.689849,497.877344 C428.008076,506.162554 430.087462,513.598267 432.162657,521.011956 C457.363554,519.422035 481.961062,517.870918 506.900072,516.298826 C507.239478,507.23229 506.571141,498.814936 504.129303,490.360876 C503.086992,490.14588 502.188194,489.888934 501.271589,489.784058 C491.455003,488.660835 481.621656,487.66661 471.823926,486.401805 C468.132362,485.925667 464.727827,486.395512 461.231107,487.528174 Z M527.027686,495.750458 C527.639455,502.824348 528.188371,509.155717 528.789665,516.102707 C536.020898,515.35599 543.112808,516.398458 550.52422,514.970046 C546.320404,503.294193 536.526865,500.205593 527.027686,495.750458 Z M427.669718,407.973383 C410.946639,412.780902 392.888982,415.862161 376.644633,422.533328 C386.518834,441.50436 396.161526,460.030717 405.958208,478.853874 C420.470958,475.533498 434.43584,472.337924 449.046012,468.994475 C442.187705,449.686791 435.527386,430.88356 428.798976,412.1055 C428.317103,410.75994 427.669718,407.973383 427.669718,407.973383 Z M273.465204,410.306876 C267.007061,419.66287 260.446259,429.166739 253.820509,438.762899 C261.112501,450.428265 270.873566,457.088944 283.633766,461.851366 C289.938966,453.951052 296.674709,446.69153 302.429946,439.478154 C292.658404,429.636584 283.303788,420.215567 273.465204,410.306876 Z M310.778914,360.79803 C301.029372,378.988784 291.88217,396.054218 282.840771,412.920387 C290.171522,422.278479 298.552965,429.376491 307.620553,436.525893 C317.558654,428.330877 327.340671,420.262761 337.306009,412.045721 C328.488785,395.010701 319.928211,378.473843 310.778914,360.79803 Z M226.347478,9.12969425 C213.760124,17.8637732 204.236852,32.4614732 201.558268,44.9448717 C198.857686,57.5258049 197.857276,70.1738587 198.874446,82.9991532 C199.933519,96.3425354 202.580676,109.381777 206.020829,122.29307 C214.135147,152.7323 225.562863,181.983284 237.432646,211.092686 C256.944302,258.938197 280.633584,304.476435 312.440328,345.371809 C330.212004,368.220109 348.824862,390.415032 367.121361,412.853267 C369.816705,416.157912 372.505765,418.806032 372.505765,418.806032 C374.222698,418.700107 376.521022,417.731053 380.428381,416.069816 C380.931205,415.856917 381.331369,415.402804 381.777625,415.060908 C370.393905,399.983924 358.853053,385.099913 347.750077,369.896029 C331.683811,347.897225 315.577738,325.875348 302.712784,301.773779 C280.817953,260.754651 260.606534,218.929026 243.563953,175.619404 C234.286855,152.043264 225.358591,128.346516 218.831311,103.828589 C213.575755,84.0909131 210.142936,64.0700716 208.501426,43.6601398 C208.061455,38.1887553 209.178143,33.9758837 211.87663,29.8794244 C216.371665,23.0561874 221.209248,16.4573852 226.347478,9.12969425 Z M268.941885,19.1390662 C255.039857,37.8112015 238.947402,51.1419986 213.694128,45.4073751 C213.694128,46.9406633 213.586231,48.4456348 213.710889,49.9327775 C215.561909,72.0479941 220.108273,93.6440741 226.708882,114.788138 C240.757568,159.790459 258.783798,203.210201 279.377573,245.569645 C291.535431,270.577343 303.358074,295.779063 318.343269,319.287033 C334.84741,345.177788 353.017155,369.888688 371.647822,394.265032 C375.6966,399.562322 380.101546,404.586935 384.114708,409.909395 C385.211492,411.365075 386.452838,413.107067 387.716183,413.559083 C387.716183,413.559083 390.441906,413.161602 392.375682,412.47781 C397.374588,410.710649 402.663665,409.76991 407.814466,408.423302 C414.03691,406.797722 420.245735,405.118657 427.151181,403.27913 C425.240451,396.3657 423.616749,390.320643 421.899816,384.299708 C409.27475,340.03152 391.782769,297.63432 372.660802,255.860085 C361.007862,230.403516 348.598592,205.254235 338.017295,179.357187 C324.193833,145.524168 311.836939,111.089159 298.861992,76.9079511 C297.96529,74.5482396 297.12725,72.166504 296.155124,69.4428725 C295.720391,68.2242126 296.413869,66.8828477 297.6615,66.5430492 C303.277413,65.0118586 308.704767,64.3930898 314.07241,63.5750565 C314.648562,63.4869606 315.853244,64.5462089 315.959046,65.2037819 C316.069039,65.8812813 315.373466,67.0370155 314.707225,67.4156181 C313.581109,68.0553622 312.22139,68.3427226 310.925571,68.6112053 C307.964149,69.2257791 304.982823,69.7407206 301.62438,70.3678795 C302.220436,72.2986479 302.647836,73.9179344 303.216655,75.4847829 C305.231093,81.0348244 307.295813,86.5649395 309.335391,92.1044935 C322.295673,127.309292 334.889312,162.653576 350.425518,196.852613 C370.033548,240.020652 391.086149,282.555239 407.717044,327.039472 C407.937029,327.628876 408.220915,329.163213 408.742595,329.75786 C409.333413,329.064629 410.124312,327.575389 410.412389,327.098203 C421.518508,308.783695 430.552574,289.501181 436.993955,269.060835 C440.49277,257.955508 440.574479,246.56387 438.947635,235.103013 C436.709022,219.328604 431.441943,204.411032 425.955927,189.588897 C407.833322,140.634845 387.521338,92.571192 366.710721,44.7151931 C366.353507,43.8940135 365.794116,43.1609298 365.391857,42.4897229 C345.028543,46.1184349 329.879931,40.2705453 322.445473,20.2192897 C313.872328,20.86218 305.597735,21.4830464 297.003639,22.1280342 C297.181723,25.1610501 297.354569,27.7923907 297.48656,30.4258287 C297.793492,36.5149333 298.137088,42.6029891 298.340313,48.6962887 C298.394785,50.3050875 298.76876,52.6092148 296.448438,52.8388934 C294.006601,53.0801083 294.146972,50.8294679 294.033837,49.1493533 C293.78871,45.5384702 293.598056,41.9233921 293.377023,38.3114603 C293.041807,32.8274907 292.699259,27.3435211 292.339949,21.5260456 C284.176397,20.6933296 276.471671,19.9078078 268.941885,19.1390662 Z M300.574735,341.753585 C295.199759,354.988945 289.990296,367.431441 285.105573,380.000838 C282.424894,386.900635 280.314082,394.02172 277.89948,401.027441 C277.436464,402.369855 276.790126,404.854369 276.790126,404.854369 C276.955638,406.095053 278.428493,407.609463 279.803925,408.735832 C279.803925,408.735832 280.198851,408.151673 280.27218,408.017431 C289.405763,391.362063 298.54249,374.708792 307.605887,358.014619 C308.09614,357.111636 308.440784,355.637079 308.04481,354.824289 C305.948664,350.528565 304.139546,346.018894 300.574735,341.753585 Z M234.750919,8.22985758 C227.493497,13.8239471 215.350304,30.7677247 213.218541,38.7414522 C218.564186,42.4404312 223.173403,43.1714174 230.259027,41.937026 C244.921577,39.3801475 254.864916,30.2454419 263.243216,18.8233893 C253.689566,15.2712368 244.356948,11.8019365 234.750919,8.22985758 Z M353.458173,12.6252136 C348.595449,13.9235793 344.419917,15.0572896 340.234957,16.1490495 C336.109707,17.225078 331.973982,18.259156 327.874921,19.3037217 C331.312978,34.2191961 348.780865,42.9459338 363.730443,37.1714575 C360.323812,29.030977 356.925562,20.9093743 353.458173,12.6252136 Z M309.985621,10.5717849 C310.184425,13.1944777 308.309529,14.9003029 305.120196,14.9959667 C301.624197,15.1002295 299.132795,13.1740551 299.003784,10.2654458 C298.896979,7.87815048 301.061623,6.09493437 304.176932,6.0024952 C307.062771,5.91650528 309.794219,8.06517857 309.985621,10.5717849 Z" id="Stroke" fill="#000"/></g></g><g id="Head" transform="translate(195.000000, 0.000000) scale(1 1)"><g id="Head/Braids" stroke="none" stroke-width="1" fill="none" fill-rule="evenodd"><path d="M132.564158,54.6777031 C155.473343,54.6777031 171.213204,63.8953385 179.783741,82.3306094 L178.829019,93.685776 L178.829019,97.425145 L188.000193,122.406477 L185.554053,147.783329 L181.376158,153.253048 C181.192876,153.770314 181.003564,154.288153 180.808221,154.806564 C179.015011,159.565486 176.362158,163.549907 172.849662,166.759825 L176.83815,174.069571 L178.829019,180.876492 L182.126651,187.315702 L185.554053,195.525022 C187.950142,197.561524 187.474073,201.342156 184.125847,206.866919 C182.097358,207.845652 178.687713,205.939853 173.89691,201.149523 L166.487247,194.41394 L169.844218,189.902206 L161.193388,182.052733 L158.990123,174.295056 C151.500962,176.533866 142.303451,177.233527 131.397591,176.394039 L130.484815,176.320518 L132.077401,191.665688 C134.51512,194.460131 136.017585,198.283443 136.017585,202.5 C136.017585,211.060414 129.824916,218 122.185872,218 C114.653359,218 108.527161,211.252618 108.357759,202.857181 L106.670384,202.741239 L106.272869,198.088067 C105.162615,185.361618 104.075782,175.175598 103.012369,167.530007 L100.740209,167.314234 L76.7324972,161.13577 L74.0752549,161.13577 L70.9062464,171.6836 L70.9062464,177.734707 L66.9203793,185.584427 L68.3097844,189.902206 L63.69148,195.525022 L54.740638,194.41394 L53.2196713,188.318638 L54.740638,175.582282 L55.6033686,164.524827 L57.4985167,161.13577 L54.740638,149.752157 L57.4985167,142.413849 C45.8320121,121.391986 44.9127192,105.149295 54.740638,93.685776 C69.4825163,76.4904976 80.0040997,80.7386953 80.0040997,80.7386953 L80.8928017,79.3824452 C88.1647507,68.4080703 99.5749318,54.6777031 132.564158,54.6777031 Z" id="Path" fill="#FFF"/><path d="M183.961266,203.430944 C186.709237,207.823745 190.814664,209.222354 195.357883,209.842453 C197.389558,210.119674 197.597935,213.119076 195.635385,213.730838 C195.314805,213.830887 194.971183,213.897587 194.616542,213.94657 C190.357838,214.541656 182.413466,210.051932 181.104097,206.154168 C180.817579,205.298536 181.163204,204.003102 181.646078,203.182904 C181.834419,202.862954 183.674748,202.973425 183.961266,203.430944 Z M162.238393,61.3472448 C167.607963,64.2545113 172.133744,68.0515534 175.737932,72.7393708 C180.728345,79.2267342 182.003892,86.3819291 180.261521,94.0299997 C180.191619,94.3351502 179.767948,95.4642762 179.451411,96.2818788 C185.780988,104.780439 189.486341,114.212498 189.891781,124.716228 C190.180345,132.193673 190.003695,139.603962 187.959606,146.940077 C185.420475,156.061526 180.240257,162.544117 173.338347,167.230033 C173.562606,167.317829 173.966461,167.519875 174.770804,168.038966 C178.281713,170.248328 180.000833,176.128387 179.248108,179.220701 C182.106077,182.102694 186.102895,187.503578 185.000923,191.968931 C188.632225,192.483821 194.34274,193.480861 198.94586,194.132658 C200.984943,194.421353 201.24742,197.080128 199.270161,197.622796 C198.360167,197.8728 197.295071,197.784505 196.252753,197.730933 C193.972886,197.612875 190.260237,197.454142 186.931544,197.278544 C189.643089,200.817294 194.204994,202.248865 197.246264,203.732025 C198.276651,204.234018 199.483831,204.509816 200.372133,205.159629 C201.551113,206.02373 200.967589,207.938445 199.470816,207.990033 C197.971873,208.042614 196.208284,207.901738 194.98375,207.215219 C191.656141,205.348124 188.508579,203.201262 185.379455,201.054401 C183.849059,200.00478 182.518232,198.711108 180.758981,197.245805 C181.085451,192.760611 180.191726,186.88452 176.957394,182.252498 C175.743706,183.83685 174.053871,185.168222 174.053871,185.168222 C172.090712,186.590865 171.92585,185.214849 171.45838,184.205904 C171.25881,183.773357 172.639529,180.830847 175.047381,178.823869 C175.047381,178.823869 176.890148,175.875407 169.626459,169.931855 C169.57438,169.819507 169.511396,169.705937 169.445698,169.591953 C166.699394,171.083045 163.743273,172.352649 160.623294,173.442641 C161.827758,176.448535 162.836274,179.500433 164.566867,182.150924 C166.636491,185.32098 170.12387,188.776698 174.287858,190.314115 C174.756858,192.122317 172.842134,192.858293 170.1314,193.483179 C172.167677,197.887137 174.988131,199.736997 177.902169,201.31409 C179.509247,202.183971 179.319926,204.444471 177.543965,204.967193 C176.808195,205.184415 174.748252,204.266924 174.114672,203.861244 C169.228898,200.729872 165.716778,200.008773 165.220885,193.897786 C165.159571,193.153874 165.086424,191.077865 166.330995,189.6317 C166.330995,189.6317 161.176299,186.653078 160.381366,185.797083 C157.50175,182.579417 157.546929,181.076715 157.082231,176.722352 C157.004411,175.994476 156.9488,175.26073 157.073097,174.587058 C155.751662,174.98031 154.40492,175.346018 153.036725,175.687146 C147.462933,177.076387 141.331761,176.597269 134.988829,177.003216 C135.096355,178.173948 135.176451,179.753633 135.395892,181.315277 C136.304376,187.782365 137.258943,194.244441 138.19376,200.708522 C138.234356,200.996193 138.261786,201.284867 138.274953,201.574543 C138.347368,203.194322 138.360535,205.033613 136.034464,205 C135.146827,204.986503 133.742406,203.177282 133.519674,202.034616 C132.612287,197.380758 131.73233,190.905652 131.237492,186.19867 C130.334493,182.328641 130.819457,182.004886 129.3119,180.557509 C128.788534,180.055337 127.365461,178.522762 126.966079,177.933386 C124.105671,173.703518 123.259727,173.24144 121.062029,168.846185 C121.009363,168.628678 120.992905,168.403152 121.001683,168.172614 C121.068612,166.519758 122.721,165.341008 124.498469,165.655742 C125.044877,165.751966 125.527646,165.910336 125.872168,166.204021 C135.163285,174.137531 145.856627,173.70853 156.635551,170.139202 C172.154394,165.000213 182.65024,155.695504 184.52536,139.804429 C185.98464,127.4476 185.517232,115.3604 178.771626,104.227426 C176.499318,100.475673 173.999889,97.3132949 170.246357,93.8371849 C169.735298,93.2311889 169.160975,91.8480961 168.383092,91.0798913 C168.247457,90.9459433 167.22618,90.1250189 167.181869,90.0089369 C167.03967,89.6368204 166.905954,89.5643908 166.881314,89.5119716 C163.282414,93.38074 158.571483,95.7912263 152.737313,96.5824968 C151.320352,96.7748482 149.85095,96.2088143 148.681984,96.6906945 C148.681984,96.6906945 146.647765,98.701367 145.64595,99.6901731 C143.07204,102.229812 139.397991,103.637383 135.61797,103.71252 C134.419507,103.736564 133.147847,102.974171 132.193009,103.325814 C132.193009,103.325814 130.599064,105.142131 129.814655,106.110901 C125.489481,111.451656 119.720033,114.203682 112.251761,113.153765 C108.870352,116.039208 106.889579,120.783978 101.878834,121.803295 C101.491598,122.189859 101.008318,122.519068 100.570552,122.646964 C97.9548196,123.407739 90.1515104,124.956889 87.6630535,125.937176 C85.5399653,126.773126 83.5562219,128.238545 81.9652772,129.80921 C76.9367949,134.777802 78.1097052,140.552274 85.0330574,142.870683 C89.4317451,144.344121 94.3186882,144.723005 99.0322732,145.257251 C104.495248,145.875694 105.438843,146.301688 105.9655,150.958553 C107.665068,165.994633 109.245041,181.041738 110.808555,196.089847 C111.014829,198.073475 111.019218,200.105215 110.782222,202.080824 C110.704321,202.733346 109.606021,203.709624 108.907102,203.759741 C108.157712,203.812865 106.904706,203.101205 106.630405,202.453694 C106.146539,201.311028 106.222246,199.96589 106.089484,198.703945 C105.046934,188.791646 104.008016,178.879346 102.96309,168.96758 C94.4972906,167.91768 83.1451071,167.152076 75.772964,162.76266 C75.772964,162.76266 74.2881134,169.902859 72.4076678,172.975084 C73.2733741,174.669656 73.4530903,177.890843 72.1238476,179.33048 C70.1677898,182.280736 68.8056722,183.620398 68.8056722,183.620398 C69.1136006,185.306973 71.2921121,192.042273 66.3521071,196.832065 C64.2579746,197.60687 64.2481121,201.053 64.2031831,204.095233 C64.1724998,206.171709 63.2476186,208.351159 62.1989086,210.243682 C62.0104257,210.583596 61.5162061,210.780546 60.9200742,210.932508 C59.6982229,211.24243 58.4818508,210.44863 58.3854177,209.295921 C58.363501,209.034986 58.3624052,208.776052 58.3974718,208.521116 C58.7108794,206.212698 59.3365987,203.939272 59.6280897,201.630854 C59.6993187,201.061998 60.0609429,198.955529 59.5327524,198.054757 C57.39917,200.564123 54.4590561,204.309179 52.4646442,206.490628 C51.5846921,207.452386 50.5403654,208.448135 49.3327599,208.949008 C49.1311271,209.032987 48.9086734,209.072977 48.6708781,209.084974 C47.1487692,209.159955 45.9115763,207.789301 46.3290879,206.451638 C46.3893585,206.258687 46.4759292,206.084731 46.6030455,205.938768 C48.5240368,203.720327 52.977493,199.713338 54.4316603,196.756084 C51.7622167,198.433661 46.6348246,200.10424 43.8141563,200.50014 C41.5885241,200.813061 40.6976137,200.603114 40.1310692,199.179473 C39.6894494,198.069753 40.403931,196.846061 41.6718072,196.609121 C45.9313013,195.815322 50.4011949,195.352438 53.6645788,191.848322 C52.0175452,189.046029 51.1134849,186.667629 51.0345851,184.305225 C50.9688352,182.371713 51.6920835,180.497186 52.8394183,178.870596 C53.0465303,178.575671 53.1944674,178.316736 53.1900841,178.174772 C53.1900841,178.174772 52.3134195,175.857356 52.1556199,175.227515 C51.1080057,171.069564 52.271778,167.380495 54.4765894,163.739414 C54.8042428,163.19855 55.8376112,162.083831 56.0041775,161.420998 C56.0041775,161.420998 55.508862,160.088335 55.3357207,159.293535 C54.2826274,154.463754 52.9950262,150.628721 55.0902546,144.154354 C55.0902546,144.154354 53.3873337,141.099125 52.4186193,139.388557 C44.152768,124.796238 43.9642851,110.087949 52.0109702,95.463638 C55.4551663,89.2052168 60.3842129,83.8615649 67.7043623,81.0532734 C70.9480213,79.8095871 74.5270045,79.2937173 78.5103492,78.3109652 C85.9137817,64.6264175 99.4505788,57.6711722 115.657915,54.4399873 C132.096472,51.1628141 147.719731,53.4852282 162.238393,61.3472448 Z M90.4592876,70.510933 C87.3537033,73.1572654 84.9790381,76.7333632 83.0536634,80.2394787 C81.7956498,82.5309006 80.7787188,83.7395957 77.8517549,83.4456698 C71.3107412,82.7868361 66.3115614,85.6981016 62.0783673,89.7890695 C53.3643212,98.2119446 50.1743579,108.439364 50.7430941,119.818494 C51.319501,131.332589 57.7531233,140.428294 65.2376473,149.096108 C66.210745,150.222823 67.1958968,151.34454 68.0922864,152.522243 C68.2577568,152.739189 68.0254407,153.21007 67.9377742,153.856907 C63.3637767,155.875397 61.3540231,150.15684 58.5366423,148.950145 C57.2775328,152.620219 58.9914121,157.524981 61.9468676,163.050587 C62.1923336,163.510471 62.5386162,163.955359 62.824628,164.418242 C63.7144425,165.856879 61.9326218,167.449478 60.3546255,166.640682 L57.8901022,164.284276 C54.6584973,170.771639 56.7307132,175.608419 58.6078713,179.778367 C58.0807767,180.582164 56.4436056,180.181266 55.7203573,179.821356 C55.7203573,179.821356 54.8864301,183.408451 56.0688315,186.044786 C57.1219248,188.392194 57.6939485,190.641627 57.5164239,191.345449 C58.3558302,192.443172 62.1978128,193.236972 63.2772061,194.146742 C64.5319323,193.501905 65.705567,191.251473 65.0984768,189.878819 C64.928623,189.495916 57.9547562,184.91907 59.7968476,184.140267 C62.267946,183.484432 65.6376255,185.574905 65.6376255,185.574905 C66.4090903,180.415207 66.9263224,178.904588 68.884572,175.046561 C63.6399261,175.553433 62.1780878,175.491449 62.8969528,173.564935 C63.7922465,172.283258 65.5346174,172.290256 66.4660735,171.690408 C67.4216379,171.075563 69.4883747,168.535204 70.0593025,167.616435 C72.6366964,163.465483 72.7068296,158.477741 71.2855371,153.488999 C70.7957008,151.770433 72.9216124,150.23482 74.5270045,151.239567 C75.2064195,151.66546 75.623931,152.402274 75.7126933,153.308045 C76.4447083,160.766164 82.7753224,161.640943 88.6928084,163.060585 C91.7677095,163.798399 99.0896731,163.701423 102.171149,164.418242 C102.288564,164.445549 102.394994,164.473475 102.491468,164.502772 L101.217902,152.482107 L101.217902,152.482107 C101.144389,151.789491 100.832784,151.118927 100.570552,150.230855 C95.8459951,149.615419 91.655776,149.304694 87.5873465,148.486786 C80.997544,147.163699 75.2712405,144.334097 74.167454,137.64449 C73.1371802,131.400923 76.9803713,127.668561 82.4140334,123.544594 C87.5647694,119.635358 93.7952476,119.562161 97.0114725,118.598555 C97.0479254,118.411718 97.2153605,118.268312 97.5837719,118.177273 C101.086404,117.311734 104.884401,115.729097 105.913125,113.692749 C107.660019,110.235434 109.921477,106.998522 111.710978,103.556235 C113.085332,100.911404 114.240096,98.1693953 115.464779,95.3813028 C115.888666,94.4155388 117.350419,94.2291985 117.987342,95.0907722 C119.172695,96.6936999 118.289962,99.0620257 114.618098,108.913019 C116.29835,108.81484 117.810358,109.022218 119.071093,108.598444 C123.602748,107.076665 126.851818,104.097223 128.446856,99.9847111 C129.898777,96.2408728 130.737811,92.2976705 131.845597,88.4416273 C132.108888,87.5269567 132.368901,86.6102823 132.655133,85.6044451 C132.964308,84.5134524 134.461022,84.091682 135.34157,84.8791203 C137.34083,86.6643811 136.238506,88.9866228 136.020007,90.8941068 C135.717387,93.5419432 134.807342,96.1326752 134.155124,98.7745006 C139.945329,99.360571 143.810565,97.3569113 145.590233,92.2696192 C146.97442,88.3123913 147.580753,84.1237406 148.480966,80.0292619 C148.860061,78.3001036 148.586938,75.73041 151.288669,76.0229443 C154.058135,76.3234932 153.153552,78.8661374 152.918667,80.5341842 C152.388808,84.2890425 151.602214,88.0128441 150.810158,92.3557766 C155.36257,91.9800904 159.162256,91.028352 162.024584,87.9928075 C163.708113,86.2075467 165.107595,84.1958723 166.812974,82.4296463 C167.259803,81.9668009 167.834454,81.6081458 168.428769,81.2735346 C169.31478,80.7736215 170.535093,81.100218 170.851915,82.0088777 C171.354462,83.4515127 170.477191,84.6106299 169.726649,85.8008038 C169.618966,85.9715825 169.50982,86.140496 169.39921,86.3075367 C171.094972,87.5075705 173.790199,89.9387388 175.743544,91.9059107 C178.5694,81.7176993 172.998854,74.262195 164.686479,68.116537 C143.191759,52.2235465 109.794125,54.03309 90.4592876,70.510933 Z" id="Stroke" fill="#000"/></g></g><g id="Body" transform="translate(28.000000, 114.000000) scale(1 1)"><g id="Body/Bomber" stroke="none" stroke-width="1" fill="none" fill-rule="evenodd"><path d="M347.421607,97.1375466 C357.675604,98.3652122 367.91063,99.7771278 378.122692,101.315215 C387.002833,102.65303 393.46974,107.570702 397.572337,115.540515 C405.143521,130.254477 412.765625,144.944408 420.149102,159.752498 C428.017821,175.535912 436.050285,191.259245 443.238067,207.356084 C449.544225,221.478244 454.388665,236.149148 455.648698,251.819409 C456.827858,266.488311 455.213378,280.597453 448.127437,293.639147 C441.320061,306.168145 431.607219,315.359616 417.012996,317.840982 C408.286616,319.324996 399.562232,318.464829 391.264182,315.455746 C382.066537,312.121222 372.767051,308.828755 364.060639,304.425782 C344.466219,294.517338 325.194297,283.968026 305.829519,273.603965 C300.427949,270.714044 300.526795,270.631932 296.217521,274.821617 C282.375124,288.277873 268.002555,301.098267 251.293633,310.94763 C241.744536,316.576267 232.003738,321.869448 220.986932,324.156551 C212.512159,325.916939 204.419788,324.976664 196.733784,320.81702 C188.865064,316.559243 182.788548,310.457966 178.011004,302.952783 C170.25411,290.767251 166.043681,277.295974 163.749262,263.157792 C159.557804,237.328749 159.434996,211.305442 160.713001,185.27813 C161.390943,171.469395 163.131227,157.72675 166.87139,144.33458 C166.968239,143.984105 167.047115,143.627621 167.127989,143.27314 C170.997949,126.285092 180.955409,115.573559 198.117624,111.06344 C213.7672,106.950861 229.555559,103.845648 245.52863,101.522496 C247.177058,101.283171 252.091388,100.755455 252.039469,100.325872 C251.816816,98.462344 251.472354,98.5584744 251.742932,96.5237138 C251.921653,95.1728811 254.408771,93.7108975 255.951364,93.1271055 C261.533651,91.0162416 273.888324,87.4924608 272.95283,87.4924608 C278.11616,90.6777824 284.334672,90.8115459 289.53735,90.0158844 C295.383301,89.1218451 300.496278,89.1218451 306.620285,83.2016393 C312.675834,82.4836652 318.550666,83.7894368 324.322657,85.4386743 C326.415391,86.0364854 327.433802,87.7898643 327.598545,90.0158844 C327.730339,91.7832823 328.136705,93.4144954 327.58856,95.6134788 C334.240179,96.1411948 341.171362,96.3895317 347.421607,97.1375466 Z" id="Fill" fill="#FFF"/><path d="M324.323106,85.4386743 C326.414844,86.0364854 327.433256,87.7898643 327.598997,90.0158844 C327.729793,91.7832823 328.137158,93.4144954 327.588015,95.6134788 C334.239642,96.1411948 341.170834,96.3895317 347.422086,97.1375466 C357.675098,98.3652122 367.910137,99.7771278 378.123211,101.315215 C387.002366,102.65303 393.47028,107.570702 397.571884,115.540515 C405.143077,130.254477 412.765192,144.944408 420.148678,159.752498 C428.017408,175.535912 436.049882,191.259245 443.237674,207.356084 C449.54384,221.478244 454.388286,236.149148 455.648321,251.819409 C456.828481,266.488311 455.213,280.597453 448.127049,293.639147 C441.319665,306.168145 431.606811,315.359616 417.013567,317.840982 C408.286176,319.324996 399.561781,318.464829 391.264719,315.455746 C382.067062,312.121222 372.766564,308.828755 364.061139,304.425782 C344.466694,294.517338 325.193748,283.968026 305.828945,273.603965 C300.428367,270.714044 300.526214,270.631932 296.216934,274.821617 C282.374519,288.277873 268.00293,301.098267 251.292987,310.946629 C241.743877,316.576267 232.003067,321.869448 220.986246,324.156551 C212.511462,325.916939 204.419081,324.976664 196.733066,320.81702 C188.864336,316.559243 182.787812,310.457966 178.010262,302.952783 C170.254356,290.767251 166.042923,277.295974 163.7495,263.157792 C159.557037,237.328749 159.435227,211.305442 160.713234,185.27813 C161.391177,171.469395 163.130465,157.72675 166.870633,144.33458 C166.96848,143.984105 167.046359,143.627621 167.127232,143.27314 C170.997198,126.285092 180.95467,115.573559 198.116908,111.06344 C213.767503,106.950861 229.555883,103.845648 245.527977,101.522496 C247.176406,101.283171 252.090743,100.755455 252.038824,100.325872 C251.816171,98.462344 251.471708,98.5584744 251.742286,96.5237138 C251.922006,95.1728811 254.408129,93.7108975 255.950724,93.1271055 C261.533019,91.0162416 267.204175,89.0896277 272.952212,87.4924608 C276.127261,86.6102639 277.131695,87.4073453 278.11616,90.6777824 C279.110609,93.9822657 279.720658,97.4009039 280.638227,100.731423 C283.872184,112.477359 287.183021,124.202266 290.423967,135.9462 C291.092924,138.372491 292.291056,140.773749 293.008936,140.701651 C296.552411,140.346169 305.361674,139.35182 305.143015,138.397525 C305.502454,138.037036 305.14601,133.986541 304.956306,132.065935 C304.385196,126.275078 303.318859,120.525278 302.912493,114.72641 C302.316422,106.203847 302.034861,97.655249 301.800227,89.112659 C301.6894,85.0781853 302.892524,83.6442398 306.619712,83.2016393 C312.676267,82.4836652 318.550108,83.7894368 324.323106,85.4386743 Z M249.484806,104.467491 C247.872321,104.467491 246.453533,104.745869 245.606854,104.891066 C235.428725,106.634431 222.25327,109.262998 212.180977,111.499031 C204.068627,113.301477 201.873051,114.213714 193.964383,116.818248 C185.739209,119.527924 178.464553,125.02338 175.265542,133.059283 C173.589156,137.271998 172.071522,141.582847 170.930302,145.966795 C167.249042,160.105978 164.649097,174.342293 163.815397,188.91206 C162.354675,214.447705 163.324163,239.833147 167.62246,265.040346 C169.938848,278.623775 174.422856,291.517268 182.570151,302.768533 C193.053803,317.244173 209.670891,325.420265 230.819912,316.475129 C241.909619,311.784766 250.608055,306.314344 260.375823,299.291816 C289.839878,278.110078 313.762574,252.569426 333.566692,222.377464 C336.354345,218.125695 336.151661,216.233128 332.234769,213.03579 C326.044422,207.982934 319.695322,203.126345 313.365193,198.249729 C312.907906,197.898252 312.409683,197.598846 311.883504,197.313459 C310.374856,196.497351 308.477814,196.749694 307.293661,197.994382 C307.059027,198.240717 306.853348,198.499067 306.690601,198.782452 C304.262388,203.006182 300.267617,204.653417 295.762642,205.67981 C291.8777,206.566012 288.00474,207.506288 284.183698,208.639826 C271.598323,212.37289 258.995975,216.064899 246.515437,220.130415 C242.413833,221.466228 238.65769,223.847458 234.673902,225.588821 L234.647943,225.600837 C233.101354,226.262735 231.865282,224.18792 233.175239,223.129484 C236.609883,220.356722 240.715481,218.785591 244.231997,216.66271 C244.054275,215.771501 242.957984,213.215033 242.668436,212.382904 C237.229916,196.763713 232.27065,182.815789 226.641428,167.266693 C223.982574,159.922729 220.761597,152.782041 217.804208,145.546224 C217.731322,145.369985 217.653443,145.192745 217.57856,145.014503 C216.817746,143.229081 218.945429,142.339874 220.309302,143.717744 C222.232303,145.659378 225.345449,149.415474 225.853656,150.129442 C229.586835,141.27543 231.494859,135.554668 235.328881,127.994411 C239.236787,120.289958 242.908062,113.796148 249.484806,104.467491 Z M339.655197,100.047495 L338.077657,102.883342 C339.008206,103.717474 340.882284,104.678778 341.974581,105.319648 C347.807485,108.740288 352.923507,112.960013 357.579247,117.926752 C361.510117,122.11944 366.309633,126.68864 370.584966,130.456752 C370.682814,130.239457 370.649865,128.922671 370.786652,128.623264 C371.573425,126.88791 374.150407,127.416627 374.19933,129.322213 C374.243262,130.985469 374.69955,133.576985 374.309159,138.164209 C373.924758,142.680336 374.097489,147.249535 374.111467,151.794702 C374.125445,156.343874 374.194338,160.894047 374.354089,165.439214 C374.511843,169.920293 374.816368,174.395365 375.067976,179.099747 C377.526142,179.099747 378.706302,178.561017 380.487525,178.529974 C382.482414,178.493926 383.734461,178.09939 385.721363,178.182503 C391.246747,178.95455 394.413808,181.617163 391.047058,187.406017 C390.896293,187.664367 390.637697,188.220121 390.637697,188.220121 C394.216117,190.492204 395.719772,194.32941 393.205692,198.39793 C392.96045,198.795031 392.581821,199.643624 392.535451,199.588079 L392.53,199.565 L392.574324,199.878199 C393.325014,205.770045 389.689985,207.793902 385.240114,209.176554 C383.052525,209.856476 380.861941,210.528388 378.144179,211.366525 C379.251452,216.941088 380.094138,222.123119 381.419072,227.176975 C381.745563,228.421664 383.495834,229.578233 384.854715,230.203081 C387.812103,231.564929 390.983158,232.452132 393.969501,233.757904 C395.084762,234.244564 395.927448,235.357074 396.893941,236.185197 C396.511537,236.927204 395.681831,237.321739 394.866103,237.153511 C393.856677,236.945228 392.84825,236.737947 391.882755,236.404495 C387.084238,234.748248 382.364598,232.84867 377.529138,231.316592 C369.238067,228.69103 360.906059,226.186632 352.534114,223.84145 C350.941598,223.394844 348.076066,221.868774 347.298279,222.773 C334.866664,237.24864 327.643927,251.645172 312.509527,263.644452 C311.246497,264.644809 308.995008,266.73865 307.094971,268.280742 C308.822277,269.544457 309.8976,270.50476 311.12269,271.199703 L317.029435,274.550028 C336.067919,285.336974 355.19353,295.975348 375.351534,304.551953 C383.496832,308.017655 391.91171,311.119864 400.485341,313.234733 C413.911404,316.545224 425.763922,312.432645 436.261552,302.640359 C441.80391,297.470345 444.225134,291.944848 447.155564,284.976394 C452.555144,272.139978 451.842256,259.197419 449.727554,245.774207 C446.851039,227.512431 440.799476,212.134567 432.841885,195.535046 C427.578093,184.553146 421.991804,173.725456 416.496373,162.855709 C409.075945,148.178796 401.542692,133.558961 394.176179,118.85401 C390.24431,111.005362 382.652149,105.67513 373.959704,104.599671 C363.17552,103.26486 353.681325,101.308205 342.900137,99.9473588 C341.835797,99.8121754 340.700567,99.8271957 339.655197,100.047495 Z M355.316775,210.191931 C354.233464,210.193934 352.802696,211.078134 351.444813,211.729017 C346.889916,214.690034 347.50296,214.690034 343.28953,217.483824 C354.609877,220.608063 365.759491,223.980639 377.84864,227.317166 C376.632536,221.439191 375.661051,216.738814 374.594714,211.580816 C367.651541,211.580816 364.218893,212.100521 355.316775,210.191931 Z M347.571852,173.278841 C337.706236,173.329919 323.516364,184.232712 317.141305,196.534402 C324.418956,202.399359 332.415487,208.904184 339.720096,214.79017 C347.651728,208.671869 355.991723,205.714857 365.434997,203.69712 C372.327249,202.225122 379.051763,199.924 385.791254,197.800119 C387.130166,197.377546 388.36524,196.628529 389.64824,195.860487 C390.887307,195.119482 391.183845,193.436198 390.25729,192.327694 C388.521996,190.249875 385.260082,190.517238 382.140946,191.661791 C376.012503,193.911844 369.899036,196.197945 363.775585,198.460014 C362.300884,199.003752 360.782252,199.936017 359.296569,198.059471 C359.827741,195.886523 361.814643,195.767361 363.408158,195.140511 C370.495106,192.356734 377.606018,189.632037 384.656024,186.756135 C385.702393,186.329556 386.895532,185.947037 387.760184,185.119915 C388.752636,184.169626 388.332292,182.528399 387.014347,182.146882 C384.900643,181.537054 382.805909,181.891535 380.805029,182.312106 C370.702783,184.433985 360.648461,186.785175 350.54921,188.929083 C346.836998,189.718154 343.065879,190.315965 339.290766,190.674451 C338.307299,190.766576 336.87054,189.859345 336.289446,188.980153 C335.932003,188.441422 336.531069,186.827232 337.173068,186.139298 C339.523403,183.620881 342.137327,181.348799 344.523606,178.860423 C345.76467,177.565666 346.858964,176.127715 348.144959,174.511522 C348.53535,174.021858 348.197876,173.275846 347.571852,173.278841 Z M252.903475,107.028967 C251.065342,109.269006 249.77136,110.733993 248.600186,112.292107 C239.423496,124.507681 233.262104,139.692282 228.362744,154.04876 C228.82003,155.791124 233.466784,164.696206 234.72682,168.636552 C241.414391,183.156251 246.13503,193.22391 252.673834,207.812703 C253.4007,209.434904 254.249377,211.004033 255.166946,212.848536 C265.323109,210.074772 271.288806,208.6208 280.725091,206.098377 C281.908246,205.782949 284.070874,205.264246 284.213651,204.882728 C284.213651,204.882728 284.532155,202.523527 284.710876,201.028499 C286.330351,187.497141 287.33079,174.73783 288.895351,161.200463 C289.373605,157.062849 289.518379,152.124149 289.53735,147.943477 C289.494417,146.196106 289.501406,144.454743 289.501406,144.454743 C288.813478,144.141318 287.938842,143.327214 286.078743,142.261768 C282.442413,140.800786 278.879968,138.786053 275.810754,136.345742 C267.763303,129.948062 261.516045,121.944203 256.519836,112.951001 C255.516401,111.143549 254.368191,109.417207 252.903475,107.028967 Z M388.715694,200.729093 C381.22138,202.914057 371.851991,205.502569 364.666196,207.597411 C364.770034,208.059038 365.297212,208.4736 367.160307,208.487619 C373.467471,208.450569 379.665806,207.561362 385.654467,205.399429 C387.450666,204.75155 390.831395,204.384052 388.715694,200.729093 Z M305.88985,142.498089 C301.360912,143.389298 297.323209,144.184377 292.957017,145.043542 C292.957017,149.315338 293.300482,153.663237 292.89112,157.938037 C291.715952,170.230715 290.22328,182.491349 288.884368,194.768005 C288.579843,197.5648 288.392135,200.37361 288.117564,203.562938 C295.089691,202.641688 301.143252,201.925716 304.809535,195.772368 C306.048602,193.693547 307.987579,192.593054 310.751269,192.7743 C312.210993,192.869429 314.853872,193.767648 314.853872,193.767648 C315.698555,192.019276 318.799719,187.878658 319.533574,187.050535 C319.533574,187.050535 318.400342,184.6663 317.776315,183.112191 C313.143539,171.578543 309.170734,161.818301 307.321617,149.550657 C307.237748,148.994903 307.141898,148.433141 307.023083,147.883395 C306.506888,145.492151 306.294219,144.049193 305.88985,142.498089 Z M275.121429,191.27595 C277.670455,191.28498 280.658795,193.874493 280.836517,196.226684 C281.047189,199.023479 278.766745,201.315588 275.713506,201.37567 C272.935838,201.429743 270.847095,199.447053 270.77321,196.684305 C270.701322,193.967619 272.871937,191.267957 275.121429,191.27595 Z M275.325112,194.530383 C275.220275,194.546404 275.115439,194.593468 275.021585,194.642535 C274.22982,195.057097 273.993189,195.207301 273.911316,196.480028 C273.854405,197.36623 275.49285,197.888939 275.907204,197.915976 C276.020028,197.923987 276.169795,197.899954 276.337533,197.846882 C277.623528,197.446339 277.801251,195.705978 276.693977,194.937936 C276.246675,194.628516 275.750449,194.466296 275.325112,194.530383 Z M336.291443,105.667119 C334.694932,107.895142 333.752402,109.198911 332.821853,110.511692 C327.884552,117.478143 323.009155,124.490657 317.985988,131.394024 C316.068977,134.027597 313.566879,136.253617 311.80862,138.976311 C310.826153,140.496373 309.980471,140.90693 310.294981,141.285444 C311.86054,150.874453 314.276772,162.372052 317.733382,172.253459 C318.940499,175.704141 320.58194,178.974578 322.513927,182.075785 C322.625753,182.255028 322.740573,182.445286 322.859388,182.647561 C325.16679,180.547712 326.773285,179.581401 329.023776,178.037306 C332.994584,174.105972 337.711229,171.478407 343.031932,169.968359 C344.744262,169.4827 346.605359,169.189302 348.36861,169.29845 C351.464782,169.491712 353.108219,171.802848 351.816234,174.579615 C350.701971,176.972862 348.781965,179.022643 347.044674,181.076429 C345.697775,182.668589 343.674929,185.077858 341.642099,187.067558 C343.260575,187.413026 344.372841,186.744119 344.957928,186.607934 C352.72282,184.796476 360.472735,182.922935 368.221652,181.042383 C369.323933,180.774019 370.346338,180.924223 370.686073,180.201242 L370.686009,178.776984 C370.685517,178.067137 370.684172,177.260372 370.680817,176.782604 C370.596948,164.586056 370.62091,152.387506 370.385278,140.193963 C370.349334,138.365482 369.615478,136.115429 368.399374,134.81867 C361.820633,127.796142 355.164013,120.823682 348.166924,114.227733 C344.796181,111.050423 340.616698,108.735282 336.291443,105.667119 Z M279.015457,159.297581 C282.215467,159.255524 284.903276,161.61873 284.829391,164.410518 C284.760499,167.024064 282.491037,168.949677 279.709375,168.75341 C277.039538,168.565155 274.931825,166.448283 274.861934,163.883804 C274.790046,161.247226 276.52534,159.330626 279.015457,159.297581 Z M279.343945,161.97221 C278.549184,162.099383 278.133832,162.676165 278.066936,162.8494 C277.699509,163.8077 277.738449,165.046381 279.707378,165.655207 C279.882106,165.70928 280.074805,165.688252 280.252528,165.649199 C281.4247,165.396856 282.257402,164.697908 282.108634,163.935874 C281.993813,163.352082 280.95044,161.713859 279.343945,161.97221 Z M259.470235,95.4362384 C254.046693,97.5671294 254.712654,97.9786878 256.060552,102.393678 C259.785743,114.588223 267.128294,124.320427 276.511662,132.653733 C277.520089,133.548947 278.778127,134.160777 279.919348,134.903785 C281.728526,135.689852 282.211773,135.724899 282.439418,135.438511 C278.386738,129.230088 272.108528,121.843065 268.555069,115.359269 C265.060518,108.982617 262.467561,102.109292 259.470235,95.4362384 Z M271.58734,91.4548367 C268.983401,92.2378991 265.91219,93.0880525 263.7256,93.7459451 C267.276063,106.587367 279.048705,125.360838 286.00985,133.453818 C281.222316,118.606674 277.236531,107.184177 271.58734,91.4548367 Z M320.148615,88.2304621 C317.549668,101.670697 313.826474,119.45082 311.205561,133.000203 C311.589961,133.164425 313.081635,131.283874 313.626785,129.999131 C314.47047,128.744429 315.454935,127.231376 316.109913,125.883547 C319.852078,118.186104 322.53789,110.131175 323.76897,101.637652 C324.209283,98.6005315 324.526788,95.5303661 324.646601,92.4652075 C324.742452,90.0218926 323.584258,88.3205843 320.148615,88.2304621 Z M312.63633,87.1259635 C311.782661,87.1259635 311.044812,87.7337882 310.87907,88.5729267 C309.780783,94.1404804 308.849235,99.5558276 307.522304,104.871039 C305.942768,111.196621 306.090537,117.487156 307.051039,123.818746 C307.211789,124.872175 308.094412,128.990763 308.34602,131.323928 C309.079876,128.736418 310.161189,123.635497 310.473702,122.069372 C311.607933,116.380654 312.813054,110.578783 313.887379,104.828982 C314.443512,101.855948 314.968693,98.8759051 315.439958,95.8878511 C315.670598,94.4258676 315.889257,92.96088 316.091941,91.494891 C316.267667,90.2251683 316.699993,88.8322786 316.751912,87.7067515 L312.63633,87.1259635 Z" id="Stroke" fill="#000"/></g></g><g id="Face" transform="translate(324.000000, 111.000000) scale(1 1)" fill="#000"><g id="Face/Glasses 2" stroke="none" stroke-width="1" fill="none" fill-rule="evenodd"><path d="M30.8272308,41.3801 C31.3570769,43.5651 30.7130769,45.3391 29.0535385,46.7271 C26.9933846,48.4501 24.2892308,48.4231 21.5366154,46.6521 C19.2093846,45.1551 18.3607692,43.8481 18.7344615,41.6601 C18.8841538,40.7761 19.9524615,40.3191 20.7601538,40.8061 C21.9469231,41.5201 23.1250769,42.0451 24.3796923,42.8761 C24.9698462,43.2681 25.7883077,43.2061 26.274,42.7061 C27.1473846,41.8081 27.8786154,41.2671 28.5732308,40.6901 C29.3583077,40.0371 30.5946154,40.4251 30.8272308,41.3801 Z M57.7401611,5.69244571 C59.78055,12.01096 59.4997722,18.2595314 56.3214944,24.20056 C54.3349389,27.9116457 51.2527167,30.6188457 46.7761056,30.2537029 C45.3226056,30.1343886 43.2294389,30.2670743 43.2294389,30.2670743 C43.2294389,30.2670743 40.8058833,32.5649029 39.7767167,33.9791886 C38.8362167,35.2721029 37.9168278,36.9990743 35.40355,36.6935886 C34.64355,36.6010171 34.2424389,35.7514171 34.6351056,35.1106171 C37.0639389,31.1423886 39.3471056,27.4127886 42.0641056,22.9724457 C42.4356611,22.3666171 41.9321611,21.6106171 41.2122722,21.6918743 C37.0692167,22.1578171 33.0148278,22.51576 30.1838278,23.13496 C30.1838278,23.13496 29.8259944,24.6809029 29.22855,25.7526743 C28.2278833,27.5465029 27.7043278,29.6129029 26.5854389,31.3193029 C23.2319389,36.4302743 17.7008278,37.6223886 12.6932722,34.1499314 C5.87543889,29.4226171 3.77593889,22.28536 3.02227222,14.6430743 C2.81116111,12.5057029 4.14749444,11.1490171 6.24805,10.5894743 C11.78655,9.11450286 17.2796611,7.41016 22.89205,6.28078857 C26.9876056,5.45690286 28.9942167,7.03267429 29.8523833,11.0513029 C30.3527167,13.3964457 30.3548278,15.8660457 30.6398278,18.4631886 C31.6774389,18.1268457 34.2572167,18.0311886 34.2572167,18.0311886 C33.8919944,14.8652457 33.5742722,12.1086743 33.2227722,9.06101714 C33.0707722,7.74033143 33.6998833,6.37747429 34.9296056,5.80353143 C35.04255,5.75107429 35.1576056,5.70787429 35.2758278,5.67496 C40.4322167,4.25656 45.57805,2.74970286 50.8178278,1.69336 C54.9988833,0.849931429 56.4967167,1.84044571 57.7401611,5.69244571 Z M25.5921611,9.95587429 C18.7584944,10.2654743 13.05005,12.2382743 6.78638333,14.4641029 C7.39227222,20.7095886 8.99777222,25.9943886 13.4226611,30.0428457 C17.0917722,33.3990743 21.20105,33.0370171 23.5897722,29.0214743 C27.1163833,23.09176 27.2757722,16.77016 25.5921611,9.95587429 Z M53.0102167,4.89736 C47.6078833,6.22113143 42.5317167,7.46467429 37.0312167,8.81313143 C37.5347167,11.9646743 38.0223833,15.2201029 38.4171611,17.6886743 C42.5686611,17.8563314 44.4507167,18.0178171 45.8746611,19.5308457 C47.1392167,20.87416 46.5428278,24.2478743 45.4556056,26.3194171 C49.01705,26.6495886 52.3093278,24.1954171 53.4799389,21.42136 C55.72405,16.1036457 55.98055,10.7489029 53.0102167,4.89736 Z M22.9646307,16.3637855 C23.0306909,17.5429088 23.0317738,18.7007361 22.720966,19.7610504 C22.5953434,20.1880902 22.0744425,20.4918378 21.2893009,20.8180021 C19.6486257,21.4994726 17.8660835,20.1768818 18.0079505,18.3532758 C18.1194947,16.9286887 18.2678594,15.7775864 18.7291978,14.7822808 C18.9068022,14.3978328 19.4450304,14.1915983 20.1132129,14.0503725 C21.5448781,13.746625 22.8790773,14.8540145 22.9646307,16.3637855 Z M45.1267884,11.150925 C47.7910746,12.9513347 47.3696056,14.43246 45.386981,16.8625697 C44.318256,17.0803532 44.0290337,17.0074302 43.841953,16.8635551 C41.7367584,15.2562928 41.3722737,13.3642366 43.0796532,11.3775776 C43.3936046,11.0100063 44.7042442,10.8651457 45.1267884,11.150925 Z" id="Stroke" fill="#000"/></g></g></g></svg>