<svg viewBox="129.77419354838707 36.03750000000002 444.5967741935483 924.9625" xmlns="http://www.w3.org/2000/svg" overflow="visible" xmlns:xlink="http://www.w3.org/1999/xlink" width="444.5967741935483px" height="924.9625px"><g id="Master/Character/Standing" stroke="none" stroke-width="1" fill="none" fill-rule="evenodd"><g id="Bottom/Standing" transform="translate(39.000000, 389.000000) scale(1 1)"><g id="Bottom/Standing/Short pants" stroke="none" stroke-width="1" fill="none" fill-rule="evenodd"><path d="M230.430095,-7.08101859 L203.423254,78.4568591 L179.429458,155.104726 L150.739388,250.232606 L135.45799,304.147624 L131,322.274045 L132.923504,327.457889 L176.723679,345.61793 L175.985048,403.69567 L175.985048,447.088194 L175.985048,473.938924 L137.091392,538.393328 L134.375499,546.648338 L142.277158,570 L157.670257,569.221339 L193.03525,545.621738 L214.068493,515.939199 L214.068493,499.117278 L215.585061,464.47339 L225.787232,351.146535 L237.900125,348.895615 L256.815194,239.089639 L280.35476,106.656135 L287.174404,70.574341 L290.606063,72.5777037 L290.606063,102.196281 L287.174404,350.131221 L311.921,354.026164 L314.649513,417.375828 L318.984671,475.686005 L318.021667,502.345342 L320.209039,543.242513 L332.311148,545.125642 L390.793656,547.531148 L454.404368,539.961556 L461,514.257664 L455.939313,505.740807 L432.920556,495.095051 L391.654392,485.259623 L357.254242,476.745486 L358.779033,424.325981 L359.617567,341.423628 L384.711915,323.116907 L378.684948,250.232606 L369.163483,136.361782 L357.254242,-7.08101859 C326.408267,-7.69367286 303.048321,-8 287.174404,-8 C271.300487,-8 252.385718,-7.69367286 230.430095,-7.08101859 Z" id="Fill" fill="#FFF"/><path d="M379.529583,485.337135 C377.238295,488.793735 375.130978,491.974016 372.599272,495.795567 C377.443173,496.399299 381.26791,496.87582 385.427142,497.394049 C387.204145,494.301356 388.895434,491.357772 390.827141,487.997101 C386.525748,486.984625 383.107631,486.179649 379.529583,485.337135 L379.529583,485.337135 Z M410.373128,492.945827 C404.867555,491.562144 400.3801,490.432884 395.667906,489.248359 C393.902401,492.408829 392.406583,495.087564 390.666165,498.203196 C396.14247,499.111401 400.743863,499.874668 405.391248,500.64732 C407.028182,498.116651 408.441422,495.93112 410.373128,492.945827 L410.373128,492.945827 Z M435.185316,499.036325 C427.963367,497.300205 421.555704,495.760115 415.006925,494.185615 C413.466159,496.699601 412.125044,498.889303 410.442118,501.635814 C417.449781,502.873517 423.717375,503.98088 430.003785,505.091372 C431.659533,503.157135 433.111449,501.459595 435.185316,499.036325 L435.185316,499.036325 Z M374.738992,484.263139 C369.696485,482.887797 365.558159,481.581275 361.335163,480.661601 C357.440391,479.812831 354.464434,481.952482 353.829939,485.624924 C353.022971,490.294202 355.205548,493.823793 359.305199,494.351407 C361.909031,494.685076 364.528542,494.89049 367.338297,495.174109 C369.723663,491.658074 372.026449,488.261951 374.738992,484.263139 L374.738992,484.263139 Z M159.617103,508.814907 C167.73278,507.880635 172.565182,511.0703 175.186784,517.803111 C180.604553,513.275642 182.311521,507.806602 180.532428,501.386605 C178.986435,495.809122 174.769711,494.033379 169.53487,496.495229 C164.592711,498.820483 162.091318,503.112299 159.617103,508.814907 L159.617103,508.814907 Z M162.947415,533.991262 C164.974244,531.565907 167.105602,529.392889 168.787483,526.917483 C171.562744,522.833168 170.821629,517.009605 167.495497,514.54984 C164.496544,512.330942 157.156476,512.720918 154.818149,515.792756 C151.232784,520.505828 148.438709,525.817419 145.131392,530.740077 C152.561355,526.291854 157.634176,529.927802 162.947415,533.991262 L162.947415,533.991262 Z M355.132378,531.457465 C349.895445,519.319219 333.761304,511.144333 320.16305,513.118192 C320.311482,515.636349 320.370018,518.223325 320.632387,520.79049 C321.173851,526.105208 322.005906,527.417986 327.390225,528.222963 C336.325414,529.556595 345.343182,530.346973 355.132378,531.457465 L355.132378,531.457465 Z M142.43662,562.657584 C144.316062,568.604188 144.546027,567.773144 149.730694,567.338332 C159.29097,566.536484 167.757867,562.953716 175.303858,557.234423 C190.156467,545.977272 202.221272,532.335431 211.006983,515.801098 C212.986774,512.077563 212.583289,508.790925 211.810816,504.006948 C210.434161,506.082994 209.594789,507.219553 208.888169,508.434316 C205.837995,513.669789 202.996881,519.032472 199.769007,524.155331 C191.243574,537.681431 180.049501,548.610127 166.433477,556.981044 C159.164489,561.45012 150.88261,563.379143 142.43662,562.657584 L142.43662,562.657584 Z M186.011868,503.710817 C188.574934,500.104066 190.229637,497.384665 192.270055,494.992676 C195.540786,491.156528 196.54636,486.555026 196.796186,481.841954 C197.02197,477.563694 195.967266,473.381364 191.593748,471.305319 C187.526502,469.37421 184.024761,471.588937 181.267271,474.084154 C176.213265,478.65646 172.417796,484.275651 169.100027,491.112734 C178.746017,489.51738 183.653681,493.989585 186.011868,503.710817 L186.011868,503.710817 Z M140.98993,558.093621 C150.88261,558.093621 157.337312,557.213569 161.655429,555.406544 C162.578426,555.021782 164.417101,551.925961 164.475638,550.830068 C164.839401,544.055548 162.050551,538.748128 156.431041,534.923449 C151.285049,531.42097 147.001427,534.402092 142.800383,536.902523 C137.993067,539.76269 136.280872,544.395473 137.787144,549.424488 C139.328955,554.577585 139.820244,555.277247 140.98993,558.093621 L140.98993,558.093621 Z M441.677649,499.639015 C435.791588,500.64732 426.909709,518.511114 428.682531,529.040451 C435.994375,528.411694 443.068938,526.764204 450.076601,524.521324 C458.058481,521.965629 459.952557,511.644836 453.42782,506.396851 C450.23235,503.825516 446.933397,501.183276 441.677649,499.639015 L441.677649,499.639015 Z M169.727204,549.324387 C170.360653,549.2295 170.678423,548.559034 170.943929,548.368217 C188.652286,535.662734 200.937648,516.440282 209.747402,497.061423 C209.747402,497.061423 209.012559,494.145992 207.469702,492.303514 C204.757159,489.671702 203.332421,489.016876 202.338345,489.671702 C199.715697,491.39948 196.267266,496.518169 194.613608,499.784995 C194.193399,500.617081 193.477372,501.299017 192.912912,502.060199 C184.001765,514.07749 175.092708,526.097909 166.298634,537.961921 C167.38156,541.449803 168.574243,545.609193 169.727204,549.324387 L169.727204,549.324387 Z M454.203429,528.725551 C410.084627,539.181898 366.238646,537.88476 321.997544,532.375054 C321.997544,533.562706 321.849112,535.052746 322.023676,536.503163 C322.717753,542.304829 322.963397,542.762581 328.991619,543.20365 C340.338305,544.033651 351.700671,544.907446 363.069309,545.124331 C385.095784,545.543502 407.079401,544.47889 428.952217,541.720909 C436.627825,540.753269 444.26162,539.462388 452.109702,538.290376 C452.874858,534.79311 453.540712,531.75151 454.203429,528.725551 L454.203429,528.725551 Z M289.680132,331.181099 C289.680132,335.205979 289.844243,338.949326 289.644591,342.674947 C289.281874,349.461979 289.191978,349.457808 295.94668,350.432747 C296.321941,350.486968 296.699293,350.54536 297.07769,350.572471 C312.932738,351.663151 328.526462,350.549531 343.708339,345.414159 C356.039694,341.243299 367.549447,335.610552 377.519479,327.147877 C378.915994,325.96231 380.817388,324.454544 380.990907,322.926966 C381.467562,318.739423 381.314949,314.445522 380.49021,309.281997 C367.022618,319.175278 352.759556,324.964432 337.376982,328.242728 C321.886743,331.542921 306.258524,332.311402 289.680132,331.181099 L289.680132,331.181099 Z M133.093765,324.537961 C137.313625,327.101998 140.864495,329.669162 144.748814,331.553348 C170.751594,344.161859 198.456116,348.257643 227.077362,347.548597 C230.062727,347.474564 233.044956,347.248295 236.1683,347.086674 C236.87492,343.496606 237.550181,340.363248 238.100007,337.206949 C238.665512,333.955764 239.107672,330.683724 239.677358,326.943505 C203.148449,330.08312 169.970758,321.218999 137.940802,304.196676 C136.389583,310.706346 134.832092,317.244169 133.093765,324.537961 L133.093765,324.537961 Z M319.892318,507.509428 C343.434472,510.101618 349.082205,513.389298 361.382202,531.560693 C381.750837,532.197792 402.352573,532.312491 422.53201,529.758882 C422.813194,522.679889 424.543159,516.177518 427.802392,509.152747 C423.923299,508.46664 419.348039,507.785747 415.615287,507.217468 C397.421913,504.451145 379.222266,501.719231 361.019484,499.010258 C359.713909,498.816313 358.324711,498.673461 357.046314,498.903901 C347.592659,500.60874 338.159909,499.912206 328.721932,498.843423 C325.805557,498.512882 322.890227,498.170872 319.892318,497.824691 L319.892318,507.509428 Z M214.640432,443.77347 C217.319525,415.792212 220.017434,387.607624 222.768652,358.865184 C207.67458,362.393731 193.223365,360.225927 178.65194,359.04036 L178.65194,448.540764 C179.935564,448.679445 179.935564,448.679445 180.435215,448.609583 C191.679463,447.04551 202.916393,445.439729 214.640432,443.77347 L214.640432,443.77347 Z M313.619497,363.130931 C315.285699,396.618767 317.251901,429.487231 320.387788,462.479778 C332.387785,461.236862 343.599628,460.074235 355.193005,458.873027 C355.856768,425.299688 356.511123,392.16846 357.165478,358.992395 C349.513912,360.475136 342.709036,362.334297 335.791268,362.982865 C328.6958,363.64916 321.48953,363.130931 313.619497,363.130931 L313.619497,363.130931 Z M152.779822,306.649142 C173.417099,315.777069 194.915699,321.793535 217.552626,323.027067 C223.596527,323.356565 229.697919,322.87066 235.762725,322.559931 C238.013247,322.444189 240.147742,322.614152 240.523003,321.929088 C240.523003,321.929088 241.111504,319.673696 241.533804,317.252511 C244.009064,303.071586 246.389203,288.875021 248.799655,274.684712 C255.904531,232.854112 262.828571,190.994316 270.168639,149.206468 C275.31254,119.921815 281.014629,90.7341357 286.488843,61.5068327 C287.18501,57.78434 288.144592,54.1077267 288.729958,50.3706359 C288.912884,49.2027951 289.591281,46.4468992 289.591281,46.4468992 C289.591281,46.4468992 291.412187,45.840039 292.78257,45.5188828 C295.912185,44.7848114 299.038665,43.8578377 302.21741,43.5575358 C306.188489,43.1821584 307.487792,44.884912 306.547026,48.6491134 C306.182217,50.1099572 305.548768,51.5082381 304.979082,52.9117325 C303.980824,55.3683692 302.927166,57.8031088 301.91532,60.2545319 C299.03553,67.2261248 295.148074,73.9808329 293.581176,81.2350015 C292.045636,88.3369337 292.796159,95.9466682 292.684312,103.335347 C292.25365,131.760802 292.012187,160.189385 291.447727,188.611712 C290.863406,217.974568 289.786752,247.32804 289.318459,276.692981 C289.072815,292.03549 289.664452,307.391555 289.897553,322.74032 C289.912187,323.66938 290.097205,324.595311 290.193372,325.433653 C309.330649,333.165386 358.364432,321.298246 380.506935,303.433409 C379.785681,292.82274 379.158503,281.866933 378.272092,270.933023 C376.635159,250.726248 374.838295,230.534071 373.12401,210.334595 C371.810073,194.853405 370.416694,179.37847 369.251189,163.886853 C368.156764,149.340978 367.61112,134.748181 366.296137,120.225246 C364.059204,95.511856 361.376975,70.8391324 358.941436,46.1434691 C357.528196,31.8165643 355.489413,10.4075388 354.149343,-3.92666504 C354.078263,-4.67950531 353.862932,-5.54495881 354.13889,-6.17163056 C354.470249,-6.92447082 355.21659,-7.941118 355.857357,-8 C356.563977,-8.05790209 357.665719,-7.32383069 358.031572,-6.63668147 C358.53645,-5.68885349 358.58976,-4.46991959 358.705788,-3.35317177 C362.070595,29.058583 366.429935,68.5180487 369.411119,100.964213 C371.299969,121.523426 372.005544,142.18691 373.648749,162.771148 C376.256762,195.445667 379.370698,228.080563 381.946307,260.757167 C383.523659,280.774168 384.419477,300.844347 385.812857,320.876989 C386.065818,324.507723 385.070697,327.105126 382.162683,329.147804 C376.738643,332.957885 371.469307,337.004662 365.888472,340.56762 C364.690563,341.334015 362.177672,343.192134 362.177672,343.192134 C362.177672,343.192134 362.039693,345.242111 362.032376,346.822867 C361.9937,355.349148 361.736557,363.875429 361.560947,372.399625 C360.888822,405.177373 360.213561,437.95512 359.543526,470.731825 C359.517394,472.034176 359.54039,473.33757 359.54039,475.073691 C362.545616,476.045501 365.347009,477.136181 368.239342,477.855655 C389.414946,483.124494 410.599958,488.355795 431.812147,493.475526 C434.382529,494.094899 436.987406,494.562035 439.575559,494.94784 C442.137579,495.329473 443.498554,495.587024 446.585313,496.702729 C449.987751,497.933133 452.895764,500.269857 455.7766,502.460602 C461.722243,506.980771 463.430256,513.396597 460.803428,521.050126 C459.076599,526.080183 457.964404,531.283331 457.246286,536.551128 C456.686007,540.65734 454.766844,542.414314 451.027821,543.038901 C417.942116,548.557991 384.675575,550.914528 351.148755,549.011573 C343.186736,548.56112 335.21322,548.255604 327.271062,547.578882 C320.132736,546.972022 318.623329,545.851103 317.905211,538.646985 C316.670716,526.258487 315.781169,513.822025 315.214619,501.38452 C314.849811,493.347272 314.857128,485.286042 315.551204,477.270691 C316.669671,464.35458 314.591623,451.649097 313.801379,438.860197 C312.176989,412.575436 310.497199,386.29276 308.829952,360.010085 C308.747373,358.712947 308.556084,357.421023 308.352252,355.543093 C305.238315,355.410669 302.241452,355.470103 299.297899,355.107238 C295.553649,354.646358 291.825079,353.957124 288.139365,353.146934 C285.551213,352.576569 284.718112,350.802911 284.730656,348.075168 C284.857136,320.599626 284.58745,293.118871 284.950168,265.646458 C285.300342,239.121872 286.262014,212.605628 286.957136,186.086256 C287.012536,184.002912 287.112885,181.919567 287.148425,179.836222 C287.673163,148.761228 288.192676,117.686234 288.703825,86.6112403 C288.743546,84.1566891 288.709052,81.7010951 287.80278,79.0432145 C287.344941,80.9962198 286.79616,82.9325416 286.44285,84.9043158 C277.808706,133.193493 269.038674,181.458687 260.628223,229.787487 C253.874567,268.600469 247.559935,307.48957 241.051922,346.345304 C240.183282,351.532811 240.189553,351.523427 235.060287,351.741354 C232.818127,351.836241 230.579103,351.983264 228.085027,352.120903 C227.417083,358.501276 226.736596,364.505229 226.170045,370.520652 C223.948791,394.100611 221.656458,417.674313 219.602451,441.269911 C218.156807,457.873063 216.906633,474.497069 215.890606,491.132545 C215.604195,495.815379 216.305588,500.582672 216.817783,505.283231 C217.370745,510.350826 216.572139,515.008635 214.10315,519.526719 C204.562734,536.988025 191.554027,551.342041 175.299676,562.757685 C167.702466,568.094301 159.175988,571.106705 149.865537,571.871015 C142.559965,572.470576 140.350209,571.149456 137.93453,564.292562 C136.487841,560.188435 134.938712,556.108291 133.753347,551.928047 C132.020246,545.814608 133.037319,540.448797 136.76589,534.846289 C146.002124,520.967751 154.551599,506.628334 163.198286,492.366077 C166.528599,486.874097 169.451246,481.127694 172.394799,475.412573 C173.163092,473.922533 173.572848,472.274001 173.585391,470.598358 C173.862395,436.483849 174.11222,402.369341 174.227203,368.25379 C174.250199,361.2603 173.709781,354.263682 173.410827,346.804098 C171.541838,346.258759 169.613267,345.642514 167.655428,345.134712 C155.441146,341.959644 143.967978,337.190266 133.420943,330.14464 C129.256484,327.363719 128.236275,324.179267 129.518853,319.530844 C138.93906,285.395481 147.415364,250.975457 157.780518,217.131012 C177.301418,153.388798 197.895837,89.9739964 218.033462,26.4205139 C221.235203,16.3134769 224.383635,6.1897564 227.554017,-3.92666504 C227.780846,-4.65030929 227.81116,-5.51576279 228.244957,-6.07465806 C228.296177,-6.13930639 228.348442,-6.20291201 228.401752,-6.26443219 C229.50663,-7.53550185 231.672483,-7.2967201 232.277709,-5.72743394 C232.35297,-5.53244623 232.390601,-5.34162937 232.375967,-5.15394066 C232.197221,-2.92044502 231.514643,-0.699461954 230.826838,1.46000092 C222.274227,28.3516222 213.582592,55.1994493 205.123013,82.1202666 C187.918488,136.86385 170.704556,191.604305 153.77808,246.43339 C148.532785,263.425475 144.202124,280.699092 139.149164,298.937221 C143.935574,301.676434 148.16066,304.606463 152.779822,306.649142 Z" id="Stroke" fill="#000"/></g></g><g id="Head" transform="translate(195.000000, 0.000000) scale(1 1)"><g id="Head/Hat" stroke="none" stroke-width="1" fill="none" fill-rule="evenodd"><path d="M106.45801,41.2918979 L127.924691,54.8379226 L142.122358,69.9842945 L180.437484,53.7052761 L198.408335,52.578972 L200.271218,58.8899125 L191.436811,69.9842945 L162.352699,87.8828854 C178.930138,101.365542 185.648026,117.562486 182.506364,136.473718 C179.633982,153.764024 163.194639,164.965276 133.188336,170.077474 L132.274902,170.230525 L135.429159,201.026202 C135.800457,202.442687 136,203.944588 136,205.5 C136,214.060414 129.955844,221 122.5,221 C115.044156,221 109,214.060414 109,205.5 C109,204.181358 109.143417,202.901175 109.413319,201.678891 L109.380924,201.679251 L108.975315,197.959447 C105.754073,168.754226 103.099937,152.826112 101.012908,150.175107 C76.8278334,150.175107 80.1299471,134.877485 81.454966,128.265904 C81.6146153,127.469285 81.8397179,126.792398 82.1235645,126.208594 L52.6298968,137.985171 L36.8782252,143.290622 L34.7954492,137.985171 L62.7016797,111.412448 L69.8466308,103.625101 L62.7016797,93.6760814 L54.7642885,69.9842945 L58.7804006,61.0243043 L58.7804006,61.0243043 L67.7927821,58.8899125 L67.7927821,58.8899125 L75.0897259,58.8899125 L94.0327919,41.2918979 L106.45801,41.2918979 Z" id="Path" fill="#FFF"/><path d="M113.1537,42.6461 C122.7947,47.5691 130.7777,54.7671 138.6127,62.1061 C140.3177,63.7031 141.9667,65.3611 143.7637,67.1091 C149.4647,64.5391 154.8937,62.0581 160.3507,59.6401 C168.8277,55.8831 177.4227,52.4271 186.6497,50.9971 C189.6797,50.5271 192.8087,50.2621 195.8597,50.4481 C200.8257,50.7501 202.9117,53.9791 201.4397,58.7511 C200.0637,63.2121 197.4237,67.0391 193.8107,69.8311 C187.3617,74.8161 180.6257,79.4371 173.9127,84.0691 C171.5367,85.7081 168.8777,86.9351 166.8107,88.0921 L166.779814,88.305866 C170.176151,92.6329844 180.041266,107.172129 182.4455,111.8238 C188.3275,123.2028 187.4385,134.2268 181.2875,145.0778 C176.8075,152.9788 170.4935,159.1848 162.8675,164.0338 C155.1305,168.9548 146.6965,172.2078 137.7305,174.0948 C136.6955,174.3118 135.6725,174.5838 134.1975,174.9378 C135.1485,180.2898 136.0635,185.4268 136.9715,190.5648 C137.3515,192.7088 137.7295,194.8538 138.0845,197.0028 C138.3755,198.7718 139.1065,201.1508 136.7725,201.6188 C134.6025,202.1438 134.1495,199.1488 133.6775,196.5288 C132.7165,191.1868 133.1315,191.6278 132.0645,187.3588 C130.4125,180.7528 130.5725,180.7408 127.7325,178.9578 C127.0735,178.6678 125.1095,177.1948 123.7225,176.2708 C123.0785,175.8418 122.4895,175.3378 122.0015,174.7378 C121.5925,174.2338 121.4695,173.9098 121.5205,173.0128 C121.6665,170.4518 124.3745,170.7628 126.2705,170.5058 C128.6075,170.1898 130.9805,170.1448 133.3185,169.8328 C150.2625,167.5758 164.5235,160.3578 174.7555,146.4088 C182.5945,135.7228 184.2005,124.3128 177.4855,112.2198 C175.797434,109.179721 169.069717,99.2735941 165.642388,94.3801084 L165.6657,94.3541 C164.4737,95.8671 162.0397,97.1151 160.1007,97.1831 C155.6277,97.3391 152.8947,99.5281 150.2057,102.8051 C145.6137,108.4011 139.1147,110.7901 132.1787,112.0891 C130.9297,112.3231 129.6737,112.6081 128.4127,112.6651 C121.7817,112.9661 116.4107,114.9931 114.4787,122.2041 C114.2117,123.2011 113.3897,124.0841 112.7127,124.9311 C109.4057,129.0611 106.0487,129.3951 102.0217,125.9001 C100.6637,124.7201 100.136938,123.223575 98.5249382,121.485575 L98.0519793,121.69158 C97.9726223,121.795022 97.8852895,121.883704 97.7901,121.953211 C96.5071,122.889524 94.8621,123.328698 93.4241,124.078338 C90.8721,125.40863 88.0811,126.481509 85.8881,128.254905 C78.6771,134.087951 80.1361,143.140618 88.7901,146.512525 C91.1001,147.412486 93.7041,147.672846 96.2041,147.986261 C97.8041,148.186689 99.4641,147.991173 101.0931,147.898819 C106.4611,147.591299 106.8541,147.965628 107.0991,153.408625 C107.3151,158.215951 107.4901,163.027207 107.8831,167.82176 C108.7131,177.94436 109.6491,188.059099 110.6031,198.170891 C110.6931,199.125871 110.9341,200.096572 110.7111,201.057448 C110.3011,202.826913 107.7161,202.878003 107.1031,201.166504 C106.6601,199.928566 106.2831,198.783965 106.1811,197.615784 C105.056548,184.682402 104.084566,171.736378 103.068662,158.794161 C102.87502,158.805938 102.672103,158.799662 102.4607,158.7741 C98.1887,158.2571 93.6707,157.8051 89.8337,156.0571 C80.7287,151.9111 73.9817,145.2541 71.3277,135.1761 C71.1957,134.6771 71.1957,134.6771 70.9867,133.4121 C64.5527,135.9831 57.7137,138.7811 51.3007,141.2241 C47.9167,142.5121 44.4337,143.5481 40.9597,144.5791 C39.5827,144.9871 38.1167,145.2421 36.6837,145.2821 C31.4637,145.4251 29.5727,142.4761 32.1327,138.0331 C33.3007,136.0071 34.7187,134.0101 36.4177,132.4231 C44.5037,124.8691 52.7137,117.4491 60.9107,110.0151 C62.2427,108.8071 63.7297,107.7711 65.5567,106.3301 C64.5957,103.9991 63.5777,101.7251 62.7127,99.3941 C59.8747,91.7431 56.8927,84.1351 54.3937,76.3741 C53.4767,73.5251 53.3727,70.2671 53.5657,67.2391 C53.9827,60.6811 58.1347,56.2221 64.4947,57.0681 C72.6127,58.1461 77.2417,54.9641 82.0387,48.7731 C90.3567,38.0361 100.8887,36.3841 113.1537,42.6461 Z M193.4477,54.8379226 C191.5747,54.8571 189.7517,54.9121 187.9947,55.2821 C182.8567,56.3651 177.5877,57.4031 172.7987,59.4531 C155.7937,66.7351 138.7927,74.0721 122.1237,82.0821 C105.7637,89.9441 89.8097,98.6511 73.6767,106.9871 C73.0347,107.3191 72.3527,107.5901 71.7487,107.9811 C59.6247,115.8301 48.7487,125.1381 39.1997,135.9781 C38.4807,136.7941 37.8457,137.6841 37.0987,138.7431 C36.5127,139.5721 37.1707,140.7141 38.1807,140.6081 C38.7447,140.5491 39.2147,140.4761 39.6597,140.3301 C44.6567,138.6891 49.7197,137.1931 54.5857,135.2171 C92.1397,119.9731 128.7057,102.5821 164.6977,83.9901 C171.7707,80.3361 178.4447,75.8461 185.0377,71.3511 C188.2967,69.1281 191.1227,66.1751 193.8207,63.2541 C194.9147,62.0701 195.9327,60.7631 196.5547,59.1211 C197.3457,57.0321 195.6817,54.8151 193.4477,54.8379226 Z M86.8877,49.8271 C84.7827,52.0691 82.8067,54.4701 81.0527,56.9931 C78.6527,60.4471 75.6827,62.2041 71.3717,61.5691 C69.2277,61.2531 67.0237,61.1971 64.8517,61.2481 C60.8327,61.3421 58.7107,63.0941 58.0337,66.8731 C57.7807,68.2841 57.7157,69.7911 57.9067,71.2091 C59.1037,80.0901 62.9627,88.0291 66.2587,96.3891 C88.3497,84.8541 109.8127,73.6471 132.0607,62.0291 C124.1207,55.2361 117.1247,48.9221 108.2617,45.3001 C100.2147,42.0101 92.9257,43.3951 86.8877,49.8271 Z" id="Stroke" fill="#000"/></g></g><g id="Body" transform="translate(28.000000, 114.000000) scale(1 1)"><g id="Body/Pointing" stroke="none" stroke-width="1" fill="none" fill-rule="evenodd"><path d="M275.074532,86.2943462 C284.394589,85.3690377 294.145216,85.831692 304.326413,87.6823089 L304.326413,87.6823089 L346.7218,89.6678728 L372.001968,105.848648 L389.833556,138.37575 L404.576958,183.772622 L461.786012,144.754718 L469.387773,151.241178 L487.631718,130.038358 L499.996904,123.168022 L502.400692,128.178422 L492.935074,141.558189 L508.913927,131.170933 L530.606034,124.639377 L534.446581,128.178422 L515.195127,144.754718 L517.428927,154.340374 L521.209354,154.816843 L521.209354,164.523003 L512.68289,174.247319 L489.580573,183.772622 L476.833647,195.074068 L441.562005,231.137605 L411.090192,250.467051 L397.031977,248.244758 L375.923489,225.403226 L389.833556,264.929615 L363.080442,279.266056 L349.574944,280.653861 L346.7218,276.041349 L292.614761,282.916334 L258.743474,287.404436 L229.368664,280.653861 L246.004706,313.444997 L246.004706,317.649938 L241.741692,317.649938 L231.274394,308.188037 L224.74432,338.657208 L220.610853,343.973661 L215.423323,340.183264 L209.365116,346.831692 L207.293165,343.973661 L209.365116,323.497913 L195.217,333.324377 L193.251342,331.505966 L195.217,326.629278 L207.293165,315.637053 L155.729186,271.99224 L132.678774,234.188506 L112.633911,191.38433 L110.446581,169.952007 L110.446581,164.523003 L118.959378,147.763682 L167.681651,115.913751 L227.284887,95.9165141 C249.824593,90.427044 265.754475,87.2196547 275.074532,86.2943462 Z M228.446581,151.831692 L200.491053,162.480144 L164.446581,181.080212 C174.928595,199.160725 183.387773,212.6763 189.824114,221.626936 C196.260455,230.577573 206.828866,243.522535 221.529348,260.461822 L221.529348,260.461822 L228.446581,262.831692 L228.446581,151.831692 Z" id="Fill" fill="#FFF"/><path d="M271.661745,83.2116457 C274.134956,82.4442615 276.819173,83.8512261 277.450643,86.3633965 C277.618794,87.0352543 277.747834,87.753322 277.850688,88.4909998 C279.063115,97.1594428 280.278789,105.825958 281.501835,114.49181 C281.737288,116.159665 282.016041,117.821396 282.316961,119.760208 C290.962247,121.953782 298.975066,121.294169 307.188023,117.13573 C306.116778,112.153959 305.059213,107.371189 304.067339,102.575075 C303.065388,97.7312226 301.986466,92.8959259 301.206622,88.014405 C300.52945,83.7740331 301.392704,83.1436394 305.595264,83.4614547 C307.845265,83.6328774 310.131428,83.2742903 312.403068,83.2328262 C324.869357,83.0038447 337.087972,84.4404792 348.832087,88.8705714 C362.728712,94.1121875 373.257665,103.44724 380.931626,115.994057 C388.829637,128.90617 393.973753,143.040964 398.458175,157.422349 C400.705313,164.629037 402.780855,171.88968 405.058113,179.541725 C412.474409,174.28297 419.203896,169.328137 426.121104,164.651718 C435.895516,158.041481 445.787646,151.605272 455.669924,145.157008 C462.444788,140.736458 462.475828,140.784246 469.053222,145.832168 C471.908823,142.32878 474.533022,138.580359 477.698489,135.364932 C481.278068,131.728478 485.218358,128.409929 489.253754,125.276813 C490.997741,123.92252 493.308428,123.175994 495.473825,122.52152 C498.174973,121.705232 501.230894,120.620078 503.400376,123.407989 C505.341198,125.898555 504.002263,128.464829 502.70869,130.865621 C502.535656,131.187026 501.46709,133.154782 500.483647,133.638295 C502.637418,132.585594 506.060753,130.850355 507.768351,129.99039 C514.402723,126.650418 521.027794,123.287926 528.588724,122.550076 C530.724435,122.342022 532.926772,121.50274 534.799517,123.89217 C536.59263,126.180907 536.34404,129.484155 534.323493,131.575125 C532.624365,133.333582 530.650265,134.878295 528.695466,136.354778 C524.911295,139.21465 520.101151,141.949413 516.037534,144.800934 C517.623555,146.480818 519.109175,150.056451 518.395763,152.348114 C519.436845,152.664956 521.180097,154.264954 521.794206,155.688274 C524.087771,161.008975 522.590251,168.061378 517.344876,172.180205 C513.214701,175.421659 508.568885,178.681202 503.628545,180.079903 C491.170881,183.60463 482.049684,190.952013 473.702756,200.627061 C461.897248,214.309997 449.042256,227.156337 434.508759,238.027338 C428.617231,242.434382 422.133147,246.246992 415.471061,249.375688 C405.161432,254.217381 395.829134,251.511501 387.729543,243.865909 C386.557868,242.760628 385.057829,241.920351 378.577664,231.416841 C379.870485,234.930963 386.030183,248.00901 387.355078,251.511173 C388.566689,254.714694 389.870231,257.884216 391.076451,261.090602 C391.796836,263.006285 391.757971,264.727957 389.927514,266.192072 C378.755473,275.128405 366.481076,281.696799 352.210424,284.092077 C348.393723,284.732399 346.036862,282.959661 344.605163,279.395247 C338.116472,280.535501 331.83736,282.037145 325.471602,282.67187 C313.749566,283.841052 312.177346,283.638007 300.435744,284.620469 C298.694291,284.766305 290.37923,284.09238 287.95566,285.852738 C283.90251,289.08459 281.488585,288.180682 279.638503,288.519109 C267.887869,290.674017 256.143413,289.85079 244.402577,288.358412 C241.405649,287.977887 238.397458,287.692241 234.57655,287.272729 C235.639473,289.112992 236.360062,290.324725 237.046157,291.554583 C240.193959,297.19702 243.465599,302.776706 246.397964,308.529551 C247.323884,310.34375 247.870786,312.529408 247.969092,314.593987 C248.187793,319.181721 243.314977,322.192265 239.429223,319.749794 C238.159723,318.950975 237.083284,317.828653 235.969503,316.798795 C234.872726,315.784516 233.840419,314.700176 232.008106,312.879392 C230.952092,317.647913 230.028582,321.588278 229.214895,325.553282 C228.226673,330.368371 227.345249,335.205842 226.401595,340.03061 C226.281213,340.64748 226.140088,341.260115 225.952414,341.860869 C223.862653,348.55281 218.211592,349.451601 215.199315,344.183459 C214.066698,345.493206 212.422801,348.738017 211.06886,349.85047 C208.454002,352.000518 205.770529,351.059402 205.056165,347.748702 C204.444058,344.907073 204.520978,341.859207 204.644574,338.920798 C204.731077,336.865959 205.851717,331.120886 206.586145,328.386178 L206.648,328.158 L206.628375,328.206908 C205.698369,330.343087 203.381411,332.261313 202.41331,332.844149 L202.307748,332.905409 C200.813456,333.735636 199.394522,334.768097 197.809458,335.350171 C195.479479,336.204795 192.912516,336.980905 190.913634,334.718103 C188.79506,332.318937 190.121794,329.825462 191.681543,327.986262 C194.733986,324.387228 198.185823,321.128059 202.018597,317.160762 C200.282345,315.627226 198.282599,313.760947 196.178724,312.0214 C191.485794,308.139196 186.736976,304.323304 182.016047,300.475303 C162.138093,284.272675 145.916233,264.953771 133.942878,242.295752 C126.392784,228.00549 119.570141,213.315869 112.814731,198.623476 C109.073425,190.484497 106.627578,181.868915 106.072781,172.793256 C105.600864,165.056425 107.46225,158.121708 112.115233,151.885131 C116.857327,145.528379 122.857857,140.561571 129.355983,136.201005 C157.222613,117.501496 186.949247,102.854658 219.832688,95.2785844 C234.092341,91.9930745 248.424237,89.0292347 262.699581,85.804347 C265.544691,85.1613655 268.328571,84.2465997 271.661745,83.2116457 Z M225.693507,284.675372 C225.733458,284.713136 224.724,287.393197 224.678902,287.493647 C219.942028,297.791177 217.253405,304.929084 210.024142,317.660048 C209.161488,319.17908 208.197528,319.690891 206.521004,320.177947 C206.205924,320.269494 205.018021,319.793884 204.77922,320.010078 C201.839506,322.65822 197.090011,326.095926 195.151206,329.627429 C195.084695,330.896528 196.347296,330.966895 196.789008,330.739304 C199.723809,329.225006 205.58524,324.512139 208.334663,321.674624 C208.99406,320.99368 209.999944,320.782018 210.861681,321.200667 C211.5272,321.523005 211.881384,322.265461 211.783196,322.998898 C211.171543,327.589276 208.700585,336.91447 208.910698,341.166035 L208.910698,341.166035 L208.966876,341.794256 C209.060379,342.850377 210.507983,343.071021 210.91055,342.090207 C211.616086,340.368853 212.302661,338.449271 212.527261,337.283926 C214.196819,328.64902 214.053982,325.553967 215.856534,319.741875 C216.25019,318.471036 216.432655,317.049596 217.147389,315.992819 C217.65987,315.234933 219.116305,314.386985 219.753476,314.630202 C220.518189,314.91997 221.346437,316.35766 221.286569,317.239982 C221.16135,319.109251 220.545464,320.960148 220.009681,322.782721 C218.775081,326.978505 219.116661,328.921546 218.290285,335.448891 C218.025631,337.538512 217.848348,337.480961 217.524371,340.422508 C217.260432,342.81851 220.609044,342.269059 220.903823,341.264761 C221.63508,338.772601 222.307415,336.60468 222.746293,334.390951 C224.374827,326.178789 225.813427,317.930446 227.404601,309.71108 C227.473696,309.352754 227.562544,308.997562 227.662727,308.64611 C228.383801,306.128238 231.525548,305.325599 233.425972,307.126873 C234.427608,308.076366 235.220479,309.209006 236.19162,310.080315 C238.096869,311.789519 238.789235,313.319754 240.213002,314.995332 C240.904194,315.807906 241.940841,316.249361 243.004466,316.176061 L243.004466,316.176061 L243.040229,316.173739 C243.538974,316.137979 243.875275,315.641533 243.709251,315.16912 C239.966993,304.488067 234.129506,292.422524 225.693507,284.675372 Z M271.517642,88.3815129 C252.173852,92.8892793 233.473017,97.0698435 214.862646,101.62444 C184.923147,108.951935 158.034314,122.995276 132.504312,139.873219 C126.300659,143.975396 120.525435,148.643471 116.027739,154.697246 C112.125431,159.951319 110.46307,165.768659 110.861219,172.352836 C111.351085,180.467243 113.545598,188.138032 116.746467,195.468142 C121.615995,206.621627 126.931808,217.580283 132.061999,228.620485 C147.972543,262.860479 173.069604,289.206773 203.066168,311.333233 C203.492076,311.64721 204.06584,311.760161 204.998655,312.142668 C206.018008,310.333898 207.15457,308.628839 207.990096,306.787354 C212.858113,296.047672 217.620703,285.259452 222.49081,274.51988 C224.151357,270.857342 225.714494,267.053313 225.714494,267.053313 C225.714494,267.053313 223.23774,264.327983 220.606901,261.442455 C197.841818,236.483616 176.967726,210.125733 160.804059,180.295575 C159.812883,178.466416 158.841727,176.595292 158.185542,174.634714 C157.978833,174.018537 158.631342,172.668941 159.252179,172.343727 C159.871971,172.018459 161.244312,172.255092 161.755976,172.772897 C162.907909,173.934845 163.730389,175.422591 164.65941,176.73757 C172.880833,172.53761 180.631791,168.073794 188.783897,164.536394 C200.458631,159.469341 212.426081,155.077527 224.271996,150.404473 C225.155107,150.055236 226.034743,149.652311 226.955074,149.452951 C229.793532,148.836898 230.863298,149.566498 231.172684,152.38387 C231.317567,153.699718 231.217728,155.044707 231.220278,156.376177 C231.235763,165.701589 231.284756,175.027707 231.256226,184.352911 C231.192401,205.472597 231.34519,226.59944 230.831193,247.708123 C230.764838,250.454396 230.083049,256.963091 230.084753,256.950591 C230.143647,256.466884 234.043744,260.035815 235.177964,261.21572 C238.909867,265.093721 240.885773,269.935111 237.685601,274.752827 C236.401793,276.687271 235.446105,278.841391 234.136967,281.279136 C249.968674,284.62044 264.994129,284.624196 280.38264,282.380875 C280.743051,217.638483 279.267115,153.432473 271.517642,88.3815129 Z M308.31929,122.39237 C299.811961,126.147206 291.391719,126.180124 282.479662,125.316494 C282.869598,127.836989 283.019894,130.189654 283.411666,132.515108 C285.24544,143.388847 287.732615,154.196114 288.815056,165.144831 C292.418622,201.614439 291.482476,238.118902 288.595662,274.600869 C288.450409,276.432368 288.579708,278.2856 288.58186,280.46474 C306.903018,280.028529 324.597365,279.131426 341.989391,274.622088 C341.838001,273.530411 341.852149,272.96043 341.675116,272.458064 C333.01732,247.801073 327.319387,222.391711 322.482966,196.765218 C318.074949,173.40525 313.690259,150.04021 309.257924,126.684213 C308.996719,125.307714 308.739198,123.920917 308.31929,122.39237 Z M379.545598,123.479296 C366.486506,96.6360787 338.917516,84.9339789 306.44159,89.0546174 C306.904208,91.8884121 307.231572,94.3227467 307.703962,96.7300607 C313.442592,126.023309 319.211923,155.310822 324.957926,184.603407 C330.117876,210.917244 335.035476,237.294967 343.596091,262.786162 C345.507503,268.478158 348.201135,273.905853 350.541512,279.473453 C364.57345,277.172675 375.908596,271.144664 386.302175,262.880936 C385.302251,260.438632 384.456753,258.53003 383.733115,256.576408 C378.452642,242.343194 372.401331,228.337109 368.112203,213.809639 C360.845145,189.198256 354.67908,164.260595 348.111449,139.44457 C347.683656,137.826435 347.589915,136.0548 347.721496,134.384149 C347.774689,133.709204 348.751243,132.857088 349.493571,132.573911 C349.975949,132.390416 351.006946,132.919701 351.410936,133.431863 C351.970392,134.137867 352.244564,135.106937 352.51531,136.00134 C357.358643,152.015086 362.149819,168.043933 367.018734,184.049578 C371.726732,199.525375 376.569189,214.955763 384.21756,229.310975 C385.735952,232.161283 387.293461,235.005248 389.041369,237.71651 C393.854501,245.185669 402.989665,248.51279 411.429673,245.8025 C421.616121,242.531181 430.188272,236.37935 437.788592,229.189364 C450.770065,216.909884 463.20641,204.051046 475.825346,191.388521 C477.274685,189.935907 478.431103,188.192021 479.586145,186.754408 C473.115581,173.647479 466.842169,160.939059 460.601946,148.297423 C459.890139,148.49827 459.477385,148.513358 459.187247,148.709026 C442.67399,159.932641 426.179168,171.184499 409.658041,182.398259 C406.208131,184.740597 403.935493,187.801383 402.939934,191.896389 C402.448367,193.915367 401.758678,195.954386 400.74422,197.749774 C400.672608,197.876112 400.584707,197.993204 400.481455,198.103196 C399.23495,199.425859 396.8652,198.799136 396.523813,197.012424 C396.483391,196.803628 396.480219,196.604129 396.526732,196.416675 C397.286882,193.353209 398.301337,190.317758 399.565277,187.422325 C400.287276,185.76688 400.906626,184.209918 401.709174,182.857694 C401.709174,182.857694 400.3306,180.079759 399.989294,179.051567 C397.712288,172.19477 396.039799,165.12416 393.52188,158.363845 C389.148522,146.623676 385.011388,134.716486 379.545598,123.479296 Z M356.885285,266.387937 C357.256261,266.988706 357.456276,267.664054 357.446219,268.354939 C357.419402,270.201787 356.515425,271.598058 354.382309,271.818685 C352.484964,272.014453 350.319443,269.969765 350.452414,267.74899 C350.453531,267.734489 350.454649,267.721023 350.454649,267.707558 C350.678129,264.66435 355.251646,263.739373 356.885285,266.387937 Z M226.480744,155.543427 C213.738829,157.731363 173.8332,175.787345 167.805945,182.064156 C182.50968,210.428764 203.044609,234.517456 224.920915,257.993467 C228.160482,223.781404 225.807334,189.694839 226.480744,155.543427 Z M346.618903,243.989168 C349.776025,245.110276 350.868748,250.148047 346.841189,250.804431 C345.762772,250.980635 344.633735,250.291277 343.875542,249.066096 C342.831238,247.378252 343.674164,242.944312 346.618903,243.989168 Z M341.868962,219.933098 C342.1749,220.027667 342.459388,220.172477 342.737103,220.355705 C344.961079,221.822517 345.042361,224.858591 342.820643,226.328359 C342.574538,226.4909 342.32166,226.618963 342.051848,226.705652 C340.129294,227.322323 338.484455,225.58855 338.447201,223.413452 C338.409947,221.268892 340.057043,219.365681 341.868962,219.933098 Z M336.43157,197.891857 C337.031525,198.013112 337.575722,198.362729 338.135531,198.845726 C339.976656,200.431129 339.89748,203.219984 337.778681,204.488104 C337.464206,204.676049 337.156423,204.795283 336.837488,204.819534 C334.403098,205.008489 333.615797,202.960297 333.46079,201.093988 C333.309129,199.283253 334.376335,197.47656 336.43157,197.891857 Z M499.426444,125.968358 C494.725972,126.350441 490.364567,129.383591 487.20967,132.63734 C482.718375,137.268841 478.365158,142.085928 474.432783,147.193646 C468.904388,154.372618 469.08851,154.519703 473.100339,162.917305 C474.331204,165.493411 475.517838,168.093427 476.844648,170.618958 C479.034019,174.787508 481.321482,178.904545 483.402625,182.737998 C489.445841,180.477015 495.040507,178.654139 500.399098,176.295379 C504.893895,174.317293 509.400317,172.117402 513.379261,169.281377 C517.680524,166.215699 518.623633,162.641456 516.929949,157.95544 C516.629778,157.122442 515.772428,156.620093 514.899567,156.753748 C511.614329,157.254063 508.059128,157.545094 505.226758,158.364996 C502.204912,159.240013 499.064485,160.657507 496.326086,162.684628 C495.552151,163.130861 494.944572,166.203372 497.035037,165.878592 C501.833642,165.684199 506.550667,164.646233 511.260031,164.454507 C512.45026,164.405677 513.392277,165.472695 513.148805,166.6381 C512.841786,168.11596 511.565271,168.691124 510.184303,168.819133 C505.47977,169.258704 500.727087,169.656936 496.021778,169.451256 C492.732683,169.30511 491.564714,167.389051 491.722996,163.968814 C491.779279,162.734849 493.914983,159.726686 493.914983,159.726686 C489.278587,159.066152 489.398718,153.993646 492.533286,151.507838 C495.476522,149.172519 498.805691,147.893959 502.311814,146.679227 C512.040151,143.308363 518.613002,137.46196 526.862483,131.726506 C527.766507,131.098249 528.574111,130.329602 529.60368,129.345978 C530.323157,128.65874 529.785565,127.455549 528.792748,127.517872 C523.878182,127.824739 520.129855,129.300598 516.601287,131.143628 C508.685156,135.278805 500.902607,139.685362 493.200793,144.211553 C492.795231,144.449432 492.400394,144.662694 492.016665,144.844015 C489.118866,146.212326 486.457401,142.511074 488.577202,140.106372 C491.93084,136.300709 495.249824,132.536244 498.566662,128.772715 C499.158496,128.10082 499.527633,127.237854 499.500127,126.34256 C499.495314,126.194381 499.475923,126.064323 499.426444,125.968358 Z M331.455802,171.927112 C332.064352,172.086507 332.620773,172.445707 333.214591,172.927259 C334.861189,174.264155 334.861189,176.811107 333.190793,178.118818 C332.810025,178.416281 332.438322,178.63629 332.034888,178.754153 C330.23417,179.279483 328.413053,177.044586 328.44705,174.79622 C328.47878,172.838581 329.61542,171.446682 331.455802,171.927112 Z M514.360914,151.790446 C514.470066,150.527778 513.306174,147.113785 511.210632,147.655468 C507.326652,148.659457 498.822225,150.498747 496.0663,153.280318 C495.14654,154.208848 494.100972,156.17781 497.296215,156.694623 C502.792665,155.145666 506.97149,152.276053 514.360914,151.790446 Z M329.98878,149.533274 C330.916095,150.949551 330.411802,152.760362 328.683246,153.567639 C328.396716,153.701174 328.097684,153.794244 327.790315,153.818523 C325.454316,153.999604 324.807279,152.278828 324.505121,150.776563 C324.192543,149.226751 325.141738,148.095753 327.113063,147.846893 C328.127899,147.719428 329.249012,148.403288 329.98878,149.533274 Z M323.48795,128.092302 C323.876243,128.304983 324.225397,128.602528 324.516874,128.951409 C325.762089,130.443322 325.968079,132.88549 323.809296,133.688022 C323.552837,133.783362 323.307708,133.834699 323.063609,133.831556 C321.064469,133.800125 320.181798,132.007525 320.515504,130.23064 C320.691626,129.298195 321.459971,127.955054 322.495075,127.838761 C322.839079,127.799996 323.183084,127.925719 323.48795,128.092302 Z M321.476443,109.476164 L321.518661,109.517333 C322.81591,110.77352 322.747785,113.054715 321.34691,114.176839 C321.001489,114.453411 320.667582,114.657146 320.308727,114.758485 C318.632475,115.237736 317.094391,113.291174 317.517532,111.044815 C317.601009,110.598287 317.824573,110.18554 318.113384,109.786516 C318.940476,108.64328 320.479519,108.510271 321.476443,109.476164 Z" id="Stroke" fill="#000"/></g></g><g id="Face" transform="translate(324.000000, 111.000000) scale(1 1)" fill="#000"><g id="Face/Glasses 2" stroke="none" stroke-width="1" fill="none" fill-rule="evenodd"><path d="M30.8272308,41.3801 C31.3570769,43.5651 30.7130769,45.3391 29.0535385,46.7271 C26.9933846,48.4501 24.2892308,48.4231 21.5366154,46.6521 C19.2093846,45.1551 18.3607692,43.8481 18.7344615,41.6601 C18.8841538,40.7761 19.9524615,40.3191 20.7601538,40.8061 C21.9469231,41.5201 23.1250769,42.0451 24.3796923,42.8761 C24.9698462,43.2681 25.7883077,43.2061 26.274,42.7061 C27.1473846,41.8081 27.8786154,41.2671 28.5732308,40.6901 C29.3583077,40.0371 30.5946154,40.4251 30.8272308,41.3801 Z M57.7401611,5.69244571 C59.78055,12.01096 59.4997722,18.2595314 56.3214944,24.20056 C54.3349389,27.9116457 51.2527167,30.6188457 46.7761056,30.2537029 C45.3226056,30.1343886 43.2294389,30.2670743 43.2294389,30.2670743 C43.2294389,30.2670743 40.8058833,32.5649029 39.7767167,33.9791886 C38.8362167,35.2721029 37.9168278,36.9990743 35.40355,36.6935886 C34.64355,36.6010171 34.2424389,35.7514171 34.6351056,35.1106171 C37.0639389,31.1423886 39.3471056,27.4127886 42.0641056,22.9724457 C42.4356611,22.3666171 41.9321611,21.6106171 41.2122722,21.6918743 C37.0692167,22.1578171 33.0148278,22.51576 30.1838278,23.13496 C30.1838278,23.13496 29.8259944,24.6809029 29.22855,25.7526743 C28.2278833,27.5465029 27.7043278,29.6129029 26.5854389,31.3193029 C23.2319389,36.4302743 17.7008278,37.6223886 12.6932722,34.1499314 C5.87543889,29.4226171 3.77593889,22.28536 3.02227222,14.6430743 C2.81116111,12.5057029 4.14749444,11.1490171 6.24805,10.5894743 C11.78655,9.11450286 17.2796611,7.41016 22.89205,6.28078857 C26.9876056,5.45690286 28.9942167,7.03267429 29.8523833,11.0513029 C30.3527167,13.3964457 30.3548278,15.8660457 30.6398278,18.4631886 C31.6774389,18.1268457 34.2572167,18.0311886 34.2572167,18.0311886 C33.8919944,14.8652457 33.5742722,12.1086743 33.2227722,9.06101714 C33.0707722,7.74033143 33.6998833,6.37747429 34.9296056,5.80353143 C35.04255,5.75107429 35.1576056,5.70787429 35.2758278,5.67496 C40.4322167,4.25656 45.57805,2.74970286 50.8178278,1.69336 C54.9988833,0.849931429 56.4967167,1.84044571 57.7401611,5.69244571 Z M25.5921611,9.95587429 C18.7584944,10.2654743 13.05005,12.2382743 6.78638333,14.4641029 C7.39227222,20.7095886 8.99777222,25.9943886 13.4226611,30.0428457 C17.0917722,33.3990743 21.20105,33.0370171 23.5897722,29.0214743 C27.1163833,23.09176 27.2757722,16.77016 25.5921611,9.95587429 Z M53.0102167,4.89736 C47.6078833,6.22113143 42.5317167,7.46467429 37.0312167,8.81313143 C37.5347167,11.9646743 38.0223833,15.2201029 38.4171611,17.6886743 C42.5686611,17.8563314 44.4507167,18.0178171 45.8746611,19.5308457 C47.1392167,20.87416 46.5428278,24.2478743 45.4556056,26.3194171 C49.01705,26.6495886 52.3093278,24.1954171 53.4799389,21.42136 C55.72405,16.1036457 55.98055,10.7489029 53.0102167,4.89736 Z M22.9646307,16.3637855 C23.0306909,17.5429088 23.0317738,18.7007361 22.720966,19.7610504 C22.5953434,20.1880902 22.0744425,20.4918378 21.2893009,20.8180021 C19.6486257,21.4994726 17.8660835,20.1768818 18.0079505,18.3532758 C18.1194947,16.9286887 18.2678594,15.7775864 18.7291978,14.7822808 C18.9068022,14.3978328 19.4450304,14.1915983 20.1132129,14.0503725 C21.5448781,13.746625 22.8790773,14.8540145 22.9646307,16.3637855 Z M45.1267884,11.150925 C47.7910746,12.9513347 47.3696056,14.43246 45.386981,16.8625697 C44.318256,17.0803532 44.0290337,17.0074302 43.841953,16.8635551 C41.7367584,15.2562928 41.3722737,13.3642366 43.0796532,11.3775776 C43.3936046,11.0100063 44.7042442,10.8651457 45.1267884,11.150925 Z" id="Stroke" fill="#000"/></g></g></g></svg>